<svg width="163" height="134" viewBox="0 0 163 134" fill="none" xmlns="http://www.w3.org/2000/svg">
<path d="M90.0746 111.159C90.0159 112.093 90.1161 113.053 90.0746 113.987L99.6411 114.159C100.16 113.987 99.8243 112.093 99.7725 111.564C103.125 111.654 106.526 111.602 109.871 111.764C110.773 111.809 112.346 112.169 113.203 112.169H116.234C117.074 112.169 118.615 112.303 119.566 112.369C120.433 112.428 121.39 112.504 122.289 112.573C126.906 112.922 131.544 113.416 136.127 113.983C135.768 115.587 135.564 117.246 135.118 118.829L141.553 119.406C141.826 119.236 141.968 115.556 141.982 114.92C142.03 114.733 142.255 114.806 142.39 114.792C143.589 114.66 147.619 115.604 149.06 115.898C152.094 116.513 161.156 118.383 162.67 121.068C163.399 122.357 162.822 123.028 161.882 123.885C157.628 127.77 141.246 129.85 135.215 130.545C110.269 133.41 83.75 133.469 58.6724 132.56C43.2271 132 24.5572 131.181 9.68211 127.217C3.36434 125.533 -4.44301 121.942 6.35041 118.02C11.7558 116.057 17.7729 115.366 23.4201 114.387C23.4201 114.415 23.6413 114.602 23.631 114.878C23.6033 115.766 23.2266 116.838 23.4201 117.823L31.9049 117.014C32.0016 115.787 31.8081 114.588 31.701 113.378C34.9981 113.136 38.2918 112.701 41.5993 112.57C42.0036 112.552 42.5359 112.57 42.9126 112.57H48.1624C49.4101 112.57 50.8962 112.155 52.1024 111.965C53.9237 111.678 56.0734 111.643 57.9605 111.56C62.9615 111.343 68.1249 111.229 73.1086 111.156C78.7593 111.073 84.4239 111.218 90.0746 111.156V111.159Z" fill="#A0D92A"/>
<path d="M78.9671 20.4711C72.0895 21.145 66.335 27.0066 65.8305 33.8946C65.4883 38.5604 68.1426 42.6627 65.948 47.1419C65.2913 48.4828 64.016 49.765 63.2522 51.1129C61.4032 54.372 61.0196 57.5586 61.1924 61.2739C61.2027 61.4743 61.1785 61.6782 61.1924 61.8787C56.9344 62.7289 53.4472 61.5676 50.2814 58.7509C48.9854 57.5966 48.0004 56.1416 46.7562 55.0045C40.8912 49.651 32.6795 49.2052 25.8467 52.9896C27.637 47.3596 30.433 45.3654 34.0308 41.2769C38.3164 36.4037 36.2323 29.4466 37.9673 23.4986C39.4673 18.3559 42.1907 16.341 45.2355 12.4875C49.3759 7.24454 53.0394 0.753998 60.6947 0.0731445C73.0987 -1.03281 76.8243 10.6177 78.9706 20.4711H78.9671Z" fill="#A0D92A"/>
<path d="M141.377 39.4555C131.873 42.5591 130.242 49.3814 127.442 58.039C123.658 58.0113 119.542 57.1404 116.808 54.3306C114.555 52.015 114.548 49.8031 113.511 47.0244C111.022 40.3506 104.635 36.4314 97.5505 37.2332C97.5228 37.1744 97.3846 37.1122 97.35 37.0327C97.3154 36.9532 97.1738 36.891 97.1496 36.8323C95.9157 34.0743 94.9618 31.2265 93.5137 28.5514C93.8559 28.3406 93.8904 28.0054 93.9216 27.6459C94.2499 24.1069 93.5863 21.7775 94.9238 18.1451C101.394 0.546591 134.462 3.15595 137.489 22.244C138.288 27.2692 136.539 31.2887 139.259 36.2309C139.884 37.368 140.873 38.2493 141.384 39.4589L141.377 39.4555Z" fill="#A0D92A"/>
<path d="M93.5108 28.548C94.9589 31.2265 95.9128 34.0709 97.1467 36.8289L97.3471 37.0293C97.3851 37.1123 97.5234 37.171 97.5476 37.2298C98.5049 39.3726 99.1788 41.6432 100.299 43.8724C102.331 47.9126 105.182 51.5623 107.041 55.6128C102.88 60.8315 98.1351 66.1263 90.9809 66.7173C79.3753 67.6781 78.3869 57.0195 68.1637 58.0356C65.5025 58.3017 63.415 60.0021 61.1928 61.267C61.0199 57.5517 61.4001 54.3652 63.2526 51.106C64.0164 49.7616 65.2917 48.476 65.9484 47.135C68.143 42.6559 65.4887 38.5535 65.8308 33.8877C66.3354 26.9997 72.0899 21.1382 78.9675 20.4642C85.5445 19.8179 90.4833 22.9423 93.5108 28.5446V28.548Z" fill="#28BD3B"/>
<path d="M141.782 39.4555L141.982 39.6559C150.09 39.49 155.026 45.4587 155.523 53.2799C155.665 55.4814 155.316 57.3754 155.859 59.6115C156.633 62.798 158.952 64.1217 160.396 66.7898C162.937 71.4728 163.006 76.6397 161.775 81.6684C160.825 81.6476 159.961 81.1811 159.024 81.0877C152.627 80.4449 151.431 86.2858 146.479 88.2868C143.344 89.5518 140.178 89.3617 137.203 87.765C132.927 85.4701 129.302 78.1017 123.554 80.3101C122.504 80.7145 121.774 81.6373 120.776 82.0762C120.734 81.5647 120.537 81.1638 120.575 80.4587C120.703 77.9151 121.75 74.9773 122.594 72.5823C124.308 67.7195 125.863 62.9155 127.443 58.039C130.242 49.3814 131.873 42.5591 141.378 39.4555C141.46 39.4278 141.661 39.452 141.782 39.4555Z" fill="#28BD3B"/>
<path d="M37.9641 23.4987C36.2291 29.4432 38.3131 36.4003 34.0276 41.2769C30.4332 45.3655 27.6338 47.3597 25.8435 52.9897C24.112 58.4296 24.074 65.131 26.4483 70.3601C16.671 76.1352 5.81535 69.966 0.192261 61.4744C1.0079 55.1151 3.26475 53.9954 6.62063 49.4229C10.018 44.7952 8.7807 41.8402 9.50993 36.7597C11.4315 23.4019 26.8078 20.0391 37.9606 23.5021L37.9641 23.4987Z" fill="#28BD3B"/>
<path d="M26.4514 70.36C27.4986 72.6687 31.5008 76.0522 33.7887 77.2619C34.5975 77.6904 37.2794 78.5441 37.5593 79.0452C37.6043 79.1282 37.5455 79.4185 37.6734 79.6293C38.9211 81.6857 40.6975 83.3688 41.8 85.5081C41.0846 85.4839 39.4913 86.2408 38.5754 86.424C36.0905 86.9217 33.0318 86.7731 30.6921 85.7086C28.7152 84.81 27.8097 83.4483 25.2383 83.2858C22.7879 83.1303 20.1025 84.5162 17.5623 84.295C16.6845 84.219 14.832 83.8803 13.9265 83.6902C3.75169 81.5371 -1.04884 71.1445 0.191905 61.4709C5.81499 69.966 16.6706 76.1352 26.448 70.3566L26.4514 70.36Z" fill="#027D40"/>
<path d="M161.778 81.6718C160.009 88.9089 152.568 98.1367 144.207 95.4064C142.821 94.9536 142.296 94.2693 140.572 93.9928C138.367 93.6403 137.15 94.6391 135.118 94.8016C134.236 94.8741 133.172 94.729 132.291 94.6011C127.321 93.8753 123.011 90.2671 121.383 85.5115C120.91 84.1256 120.889 83.4966 120.778 82.0762C121.777 81.6372 122.506 80.7145 123.557 80.3101C129.305 78.1016 132.93 85.4701 137.205 87.7649C140.181 89.3617 143.347 89.5517 146.481 88.2868C151.434 86.2892 152.633 80.4449 159.027 81.0877C159.964 81.181 160.828 81.6476 161.778 81.6684V81.6718Z" fill="#027D40"/>
<path d="M30.6924 85.7086C30.3572 85.9194 30.492 86.4758 30.4885 86.818C30.4436 90.319 30.4989 93.8304 30.4989 97.3315C30.4989 102.682 31.2281 108.045 31.7016 113.382C31.8087 114.591 32.0023 115.794 31.9055 117.017L23.4208 117.826C23.2272 116.841 23.6039 115.766 23.6316 114.882C23.6419 114.605 23.4173 114.418 23.4208 114.391C23.5141 112.348 24.0187 110.292 23.8148 108.222L24.3988 99.1805L15.0432 90.3501L13.9268 83.6902C14.8323 83.8803 16.6848 84.219 17.5627 84.295C17.7216 85.7466 17.8668 87.2707 18.361 88.6463C20.1651 89.9872 21.8448 91.5183 23.642 92.8593C23.832 93.001 24.6926 93.7475 24.8309 93.585L25.2352 83.2858C27.8066 83.4483 28.712 84.81 30.6889 85.7086H30.6924Z" fill="#BE6632"/>
<path d="M144.204 95.4064L142.183 113.489L142.387 114.795C142.252 114.809 142.027 114.736 141.979 114.923C141.965 115.559 141.823 119.24 141.55 119.409L135.115 118.832C135.564 117.246 135.768 115.587 136.124 113.986C136.791 111 137.731 108.059 138.146 105.007L132.848 98.3717L132.284 94.5942C133.166 94.7221 134.23 94.8672 135.111 94.7946C135.219 95.434 135.184 96.692 135.416 97.2174C135.678 97.8049 137.572 99.5295 138.136 100.152C138.571 100.635 138.602 101.434 139.352 101.261L140.565 93.9894C142.29 94.2659 142.815 94.9502 144.201 95.4029L144.204 95.4064Z" fill="#BE6632"/>
<path d="M141.986 39.6593L141.785 39.4589C141.937 39.4623 141.972 39.6628 141.986 39.6593Z" fill="#A0D92A"/>
<path d="M65.0289 77.2273L66.0415 99.2427C66.8329 98.5653 68.8098 97.7359 69.1416 96.7889C69.6704 91.2418 71.5125 85.2282 71.903 79.7399C71.9307 79.3528 71.91 78.9761 71.6957 78.6409C71.9549 78.6996 72.2452 78.7756 72.5044 78.8413C73.6829 79.1454 74.6299 79.7226 75.7359 80.0544L75.131 86.5173L82.5444 82.0175L83.0075 80.2549C84.3761 79.8782 85.4752 78.9554 86.8438 78.6374C86.353 80.0095 86.1664 82.9506 85.2298 83.9909L75.0585 91.19L74.6126 91.7533L73.5171 103.787L73.1127 111.159C68.129 111.232 62.9656 111.343 57.9646 111.564C58.2307 103.915 58.6419 96.2981 58.7664 88.6428L55.5556 84.2225C55.1547 83.7248 55.1271 84.3987 54.937 84.5923C54.187 85.3733 51.0178 88.7016 50.9003 89.4585C50.7828 90.2154 51.0869 90.7752 51.1007 91.4561C51.2321 98.1402 51.1457 104.797 51.4809 111.474L52.103 111.965C50.8968 112.155 49.4141 112.569 48.163 112.569H42.9132C42.5365 112.569 42.0042 112.552 41.5999 112.569L44.7484 88.826C44.147 88.273 42.4052 85.5254 41.8003 85.5047C40.6978 83.3653 38.9214 81.6822 37.6737 79.6258C37.5459 79.415 37.6046 79.1247 37.5597 79.0418C37.7567 78.6581 38.2405 78.9104 38.5343 78.9726C39.7958 79.2353 41.1229 79.5602 42.4052 79.6466C42.8026 80.2998 44.8037 83.0128 45.3325 83.0854C45.7507 83.1442 45.7852 82.4288 45.8163 82.1488C45.9131 81.3228 45.7991 80.4726 45.8405 79.6466C47.223 79.5222 49.3105 79.0003 50.6894 78.6374L50.9901 83.0785C51.4602 82.7502 52.9463 81.5751 53.0776 81.1154C53.3161 80.2963 52.459 79.059 52.3035 78.233C54.1317 77.6904 55.7354 76.7953 57.7572 76.4151C57.8885 77.1996 56.6962 78.5787 56.7411 79.1282C56.7653 79.4392 58.8735 82.2663 59.0705 82.2698C59.2882 82.2698 59.3608 81.7825 59.385 81.5751C59.5682 79.9092 59.2295 77.9185 59.3746 76.2112C62.1534 76.0902 62.6752 76.5776 65.0289 77.2204V77.2273ZM66.4458 111.159C66.8329 111.09 66.7811 110.738 66.8571 110.461C67.4205 108.415 67.5207 105.802 67.9596 103.691C67.6555 104.029 66.6187 104.728 66.4286 104.983C65.7443 105.91 66.6809 109.846 66.4458 111.159Z" fill="#BE6632"/>
<path d="M117.344 70.9648L117.952 82.681C118.913 82.1004 119.494 80.8251 120.576 80.4587C120.541 81.1603 120.738 81.5612 120.776 82.0762C120.89 83.4932 120.907 84.1222 121.381 85.5116L118.543 88.2281C117.994 89.1819 118.505 91.7533 118.554 92.8869C118.827 99.3878 119.186 105.882 119.566 112.376C118.616 112.31 117.071 112.175 116.235 112.175H113.204C112.343 112.175 110.774 111.816 109.872 111.771C110.339 109.141 110.283 106.452 110.48 103.794C111.019 96.578 111.686 89.417 111.901 82.1868C112.011 78.4438 111.866 74.7009 112.094 70.9683C114.026 70.4464 114.614 70.1215 116.801 70.6123C117.113 70.6814 117.296 70.9579 117.344 70.9683V70.9648Z" fill="#BE6632"/>
<path d="M97.9519 76.2181L96.7319 86.2063C97.7446 94.6496 98.8989 103.11 99.7698 111.567C99.8251 112.096 100.157 113.99 99.6385 114.163L90.072 113.99C90.1135 113.053 90.0167 112.096 90.072 111.163C90.072 111.132 90.2655 110.935 90.2828 110.676C90.8531 101.593 91.2505 92.5275 91.8519 83.431C91.7759 82.9368 88.7587 79.3252 88.1815 78.6132C87.9672 78.3471 87.9016 78.005 87.4454 78.0361C88.5375 77.1409 89.6262 76.6847 91.0812 76.6225C91.2505 76.9474 92.1595 78.5268 92.2977 78.6409C92.8922 79.1386 92.6192 77.1651 92.8991 76.823C94.0604 76.8264 96.884 76.5361 97.9485 76.2181H97.9519Z" fill="#BE6632"/>
<path d="M61.1929 61.8752C61.6802 68.6492 66.1663 74.967 71.9691 78.2745C72.2421 78.43 72.6154 78.3401 72.5013 78.8413C72.2421 78.7756 71.9518 78.6961 71.6926 78.6408C69.4738 78.1431 67.2446 77.8321 65.0258 77.2273C62.6687 76.5845 62.1468 76.0937 59.3716 76.2181C58.7287 76.2457 58.3693 76.3045 57.7541 76.4185C55.7323 76.7987 54.1287 77.6938 52.3004 78.2364C51.8476 78.3712 51.1979 78.506 50.6829 78.6408C49.3039 79.0072 47.2164 79.5256 45.834 79.65C44.8628 79.7364 43.3836 79.7157 42.3986 79.65C41.1129 79.5636 39.7858 79.2387 38.5278 78.9761C38.234 78.9139 37.7467 78.6616 37.5532 79.0452C37.2732 78.5441 34.5913 77.6904 33.7825 77.2618C31.4946 76.0522 27.4924 72.6687 26.4452 70.36C24.0709 65.1309 24.1089 58.4295 25.8404 52.9896C32.6731 49.2052 40.8883 49.651 46.7499 55.0045C47.9941 56.1416 48.9791 57.5966 50.2751 58.7509C53.4409 61.5676 56.9281 62.7289 61.186 61.8787L61.1929 61.8752Z" fill="#62B529"/>
<path d="M107.041 55.6163C108.838 59.532 108.911 64.0423 107.076 68.0721L104.214 72.3784C103.385 72.4717 102.254 73.7574 101.411 74.3242C100.703 74.8011 98.6082 76.0211 97.9516 76.2181C96.8836 76.5361 94.0634 76.8299 92.9022 76.8229C92.4529 76.8229 91.7928 76.5914 91.0843 76.6225C89.6293 76.6847 88.5406 77.1409 87.4485 78.036C87.1858 78.2503 87.1201 77.8632 86.8436 78.6409C85.4716 78.9588 84.3725 79.8816 83.0073 80.2583C80.6088 80.9184 78.1101 80.7629 75.7357 80.0579C74.6298 79.7295 73.6828 79.1489 72.5042 78.8448C72.6148 78.3436 72.2416 78.4335 71.972 78.278C66.1692 74.9705 61.6832 68.6527 61.1959 61.8787C61.182 61.6783 61.2062 61.4744 61.1959 61.2739C63.4147 60.009 65.5056 58.3086 68.1668 58.0425C78.39 57.0229 79.3784 67.685 90.9841 66.7242C98.1417 66.1332 102.883 60.8385 107.045 55.6197L107.041 55.6163Z" fill="#027D40"/>
<path d="M97.5472 37.2333C104.636 36.4314 111.019 40.3507 113.507 47.0244C114.544 49.8031 114.551 52.0151 116.805 54.3307C119.538 57.1405 123.655 58.0114 127.439 58.039C125.86 62.9156 124.308 67.7161 122.59 72.5823C120.897 71.8773 119.089 71.4177 117.34 70.9649C117.292 70.9511 117.109 70.678 116.798 70.6089C114.607 70.1216 114.019 70.443 112.09 70.9649C111.976 70.996 111.804 70.9338 111.686 70.9649L111.486 71.1653C108.807 71.8704 106.927 72.0743 104.214 72.3784L107.076 68.0721C108.907 64.0423 108.838 59.5286 107.041 55.6163C105.182 51.5692 102.33 47.9161 100.298 43.8759C99.1785 41.6467 98.5045 39.376 97.5472 37.2333Z" fill="#62B529"/>
<path d="M97.3467 37.0328L97.1463 36.8323C97.174 36.8945 97.3122 36.9533 97.3467 37.0328Z" fill="#62B529"/>
<path d="M45.8397 79.65C45.7983 80.476 45.9123 81.3262 45.8155 82.1522C45.7844 82.4287 45.7499 83.1476 45.3317 83.0888C44.8029 83.0163 42.8018 80.3032 42.4044 79.65C43.3893 79.7157 44.8686 79.7364 45.8397 79.65Z" fill="#027D40"/>
<path d="M111.485 71.1686L111.686 70.9682C111.627 70.9855 111.548 71.1548 111.485 71.1686Z" fill="#BE6632"/>
</svg>
