<svg width="375" height="243" viewBox="0 0 375 243" fill="none" xmlns="http://www.w3.org/2000/svg">
<path d="M190.127 11.8314C192.913 9.26474 197.512 9.88215 199.514 13.1078C201.345 15.9936 200.488 19.8158 197.599 21.6471L179.534 33.0895L181.202 30.2489L178.282 45.4268L176.825 42.0173L184.72 47.8582C188.254 50.6364 184.47 55.9154 180.699 53.4563L172.645 47.8374C171.584 47.1055 170.99 45.7737 171.188 44.4244L172.607 29.0314C172.694 28.1297 173.099 27.2487 173.821 26.5966L174.279 26.1838L190.131 11.8279V11.8349L190.127 11.8314Z" fill="#E48544"/>
<path d="M199.552 16.7321C201.924 15.1921 205.185 16.0627 206.465 18.5946C207.679 20.9705 206.749 23.8806 204.37 25.1015L183.661 35.7288L185.496 32.9194L185.045 42.7628L183.484 38.9683L190.467 45.9815C193.18 48.7979 189.68 53.1508 186.329 51.0559L178.053 45.6347C176.887 44.8682 176.218 43.4634 176.464 41.9998L176.492 41.8402L178.136 32.1216C178.313 31.0082 178.944 29.9712 179.971 29.3122L199.548 16.7356V16.7286L199.552 16.7321Z" fill="#E48544"/>
<path d="M201.265 19.5663C203.918 17.7905 207.602 18.72 209.09 21.5468C210.509 24.2105 209.499 27.509 206.842 28.9207L192.371 36.6241L194.487 33.8008L192.527 43.2628L191.011 38.1607L195.669 45.1947C197.452 47.8862 194.438 51.2679 191.542 49.7349L184.091 45.7704C182.565 44.9623 181.788 43.1621 182.325 41.4557L182.572 40.6753C182.572 40.6753 185.465 31.4457 185.482 31.4388C185.836 30.3324 186.55 29.33 187.598 28.6363L201.254 19.5698H201.261L201.265 19.5663Z" fill="#E48544"/>
<path d="M235.503 36.308C230.834 37.9971 225.392 44.7433 217.14 48.5586C200.154 57.6598 203.168 41.5627 200.917 34.0847C198.666 26.6068 176.077 20.1416 175.533 17.8281C174.988 15.5147 194.17 8.15113 200.279 7.04816C206.387 5.94519 221.32 8.84481 227.504 8.60549C233.689 8.36617 240.172 34.6189 235.503 36.308Z" fill="#FDB47E"/>
<path d="M202.117 9.25405C206.564 8.50487 210.761 11.9109 210.924 16.4199C211.105 20.6063 207.851 24.1511 203.664 24.3314L171.398 25.7257L173.67 24.987L152.841 34.3275C149.216 35.8744 146.385 31.0325 149.535 28.6392L167.968 15.1747C168.377 14.8799 168.87 14.6579 169.411 14.5712L170.24 14.4359L202.121 9.261V9.25405H202.117Z" fill="#FDB47E"/>
<path d="M212.788 32.2813C216.507 28.5076 223.08 29.2811 225.796 33.8525C228.213 37.7857 226.975 42.9364 223.042 45.3435L205.303 56.2136L206.239 55.2944L193.863 67.2884C190.519 70.4273 185.448 66.338 187.845 62.3943L197.078 47.8373L198.015 46.9181L212.799 32.2743L212.788 32.2848V32.2813Z" fill="#FDB47E"/>
<path d="M184.888 27.5361L180.383 31.0913C180.383 31.0913 177.864 41.344 178.749 42.78C179.633 44.2159 185.343 46.7756 186.005 50.8025" stroke="#C66E34" stroke-width="3.78" stroke-miterlimit="10" stroke-linecap="round"/>
<path d="M190.632 29.8569L186.425 32.9369C186.425 32.9369 183.351 39.3986 185.936 41.5179C188.516 43.6371 191.801 45.8396 191.288 49.6895" stroke="#C66E34" stroke-width="3.78" stroke-miterlimit="10" stroke-linecap="round"/>
<path d="M248.091 36.3325C249.239 36.6828 375.001 55.3917 375.001 55.3917V1.97754L228.531 8.7653L231.05 35.9683L248.091 36.3325Z" fill="#FFB57F"/>
<path d="M163.957 80.6457C163.926 80.5416 163.902 80.4411 163.87 80.337C163.843 80.2364 163.811 80.1358 163.787 80.0353C163.742 79.8688 163.704 79.7023 163.666 79.5358C163.645 79.4456 163.621 79.3589 163.603 79.2687C163.6 79.2479 163.593 79.2306 163.589 79.2098C163.576 79.1473 163.565 79.0814 163.555 79.019C163.51 78.7935 163.468 78.5715 163.43 78.3495C163.413 78.242 163.395 78.138 163.381 78.0305C163.35 77.8293 163.326 77.6281 163.302 77.427C163.295 77.3645 163.284 77.3056 163.277 77.2431C163.27 77.1842 163.267 77.1217 163.263 77.0628C163.253 76.9552 163.246 76.8477 163.236 76.7402C163.225 76.5911 163.215 76.4454 163.208 76.2963C163.201 76.1887 163.197 76.0847 163.194 75.9771C163.191 75.828 163.187 75.6788 163.184 75.5332C163.184 75.4291 163.184 75.3286 163.184 75.2245C163.184 75.0719 163.191 74.9193 163.194 74.7667C163.194 74.6695 163.197 74.5759 163.204 74.4788C163.211 74.3088 163.225 74.1389 163.239 73.9724C163.246 73.8961 163.25 73.8198 163.256 73.7435C163.277 73.5007 163.305 73.2579 163.34 73.0151C163.343 72.9874 163.35 72.9596 163.354 72.9353C163.385 72.7203 163.416 72.5087 163.454 72.3006C163.468 72.2173 163.485 72.1376 163.503 72.0578C163.527 71.933 163.551 71.8046 163.576 71.6797C163.579 71.6589 163.586 71.6381 163.593 71.6138C163.659 71.3225 163.728 71.0346 163.808 70.7467C163.822 70.6912 163.839 70.6392 163.857 70.5872C163.926 70.3548 163.995 70.1224 164.075 69.8935C164.089 69.8554 164.099 69.8137 164.113 69.7756C164.138 69.7027 164.165 69.6333 164.193 69.5605C164.228 69.4599 164.266 69.3628 164.304 69.2657C164.353 69.1408 164.405 69.016 164.453 68.8946C164.491 68.8009 164.533 68.7038 164.575 68.6102C164.588 68.5755 164.602 68.5408 164.616 68.5096C164.672 68.3847 164.731 68.2633 164.79 68.1419C164.81 68.1003 164.828 68.0587 164.849 68.0171C164.939 67.8367 165.029 67.6563 165.126 67.4794C165.136 67.4621 165.143 67.4482 165.154 67.4309C165.175 67.3893 165.199 67.3511 165.223 67.3095C165.306 67.1569 165.397 67.0077 165.483 66.862C165.515 66.81 165.546 66.758 165.577 66.7095C165.601 66.6713 165.622 66.6332 165.646 66.595C165.678 66.5499 165.709 66.5048 165.74 66.4597C165.851 66.2863 165.969 66.1198 166.087 65.9533C166.118 65.9117 166.142 65.8666 166.174 65.825C166.198 65.7938 166.222 65.7626 166.246 65.7314C166.364 65.5718 166.486 65.4192 166.611 65.2666C166.645 65.2215 166.68 65.1764 166.718 65.1313C166.729 65.1174 166.742 65.107 166.753 65.0931C166.923 64.892 167.096 64.6978 167.277 64.507C167.277 64.507 167.284 64.5 167.284 64.4966C167.308 64.4723 167.336 64.448 167.36 64.4238C167.513 64.2677 167.665 64.1116 167.825 63.9624C167.842 63.9486 167.856 63.9312 167.873 63.9139C167.922 63.8688 167.974 63.8271 168.026 63.7821C168.151 63.6711 168.272 63.5601 168.401 63.456C168.432 63.4318 168.46 63.404 168.487 63.3797C168.532 63.3416 168.584 63.3069 168.629 63.2722C168.754 63.1716 168.883 63.0745 169.011 62.9809C169.056 62.9497 169.094 62.915 169.139 62.8837C169.178 62.856 169.216 62.8352 169.254 62.8074C169.393 62.7103 169.535 62.6167 169.677 62.5265C169.733 62.4918 169.781 62.4537 169.837 62.419C169.875 62.3947 169.913 62.3739 169.951 62.3531C169.989 62.3288 170.027 62.308 170.066 62.2872C170.239 62.1866 170.412 62.086 170.593 61.9924C170.6 61.9889 170.607 61.9854 170.614 61.982C170.631 61.9715 170.652 61.9646 170.669 61.9542C170.843 61.864 171.016 61.7808 171.193 61.701C171.238 61.6802 171.28 61.6594 171.325 61.6421C171.359 61.6282 171.394 61.6108 171.429 61.5935C171.592 61.5241 171.755 61.4582 171.921 61.3923C171.942 61.3854 171.966 61.375 171.987 61.368C172.119 61.3195 172.254 61.2709 172.386 61.2224C172.462 61.1981 172.539 61.1703 172.618 61.146L175.615 60.2026C175.4 60.2685 175.192 60.3448 174.984 60.4212C174.963 60.4281 174.939 60.4385 174.918 60.4454C174.717 60.5217 174.519 60.605 174.322 60.6917C174.277 60.7125 174.231 60.7333 174.19 60.7506C174.013 60.8304 173.839 60.9137 173.67 61.0039C173.652 61.0143 173.631 61.0212 173.611 61.0316C173.427 61.1287 173.243 61.2293 173.066 61.3368C173.028 61.3576 172.99 61.3819 172.951 61.4027C172.858 61.4582 172.768 61.5172 172.677 61.5761C172.535 61.6663 172.393 61.76 172.254 61.8571C172.171 61.9126 172.091 61.9716 172.011 62.0305C171.883 62.1242 171.755 62.2247 171.63 62.3219C171.554 62.3843 171.474 62.4433 171.401 62.5057C171.273 62.6132 171.148 62.7207 171.023 62.8352C170.957 62.8941 170.888 62.9531 170.825 63.0155C170.666 63.1647 170.51 63.3208 170.357 63.4769C170.329 63.5046 170.301 63.5324 170.274 63.5601C170.093 63.7509 169.92 63.9451 169.75 64.1463C169.701 64.2018 169.656 64.2607 169.611 64.3197C169.486 64.4723 169.365 64.6249 169.247 64.7844C169.191 64.8573 169.139 64.9301 169.087 65.0064C168.969 65.1729 168.851 65.3429 168.74 65.5129C168.685 65.5961 168.629 65.6759 168.577 65.7626C168.546 65.8146 168.515 65.8631 168.484 65.9152C168.394 66.0643 168.307 66.2135 168.224 66.3626C168.203 66.4042 168.179 66.4424 168.154 66.484C168.05 66.6782 167.946 66.8725 167.849 67.0702C167.828 67.1118 167.811 67.1534 167.79 67.195C167.714 67.3511 167.644 67.5072 167.572 67.6667C167.53 67.7604 167.492 67.854 167.45 67.9511C167.398 68.076 167.35 68.1974 167.301 68.3223C167.263 68.4194 167.228 68.52 167.19 68.6171C167.148 68.7281 167.11 68.8391 167.072 68.9501C166.996 69.179 166.923 69.4114 166.853 69.6437C166.84 69.6958 166.819 69.7513 166.805 69.8033C166.725 70.0877 166.652 70.3791 166.59 70.6704C166.559 70.8161 166.527 70.9652 166.5 71.1144C166.482 71.1941 166.465 71.2774 166.451 71.3572C166.413 71.5688 166.382 71.7803 166.351 71.9919C166.347 72.0196 166.34 72.0474 166.337 72.0717C166.305 72.311 166.278 72.5538 166.253 72.8C166.246 72.8763 166.243 72.9527 166.236 73.029C166.222 73.1989 166.208 73.3654 166.201 73.5388C166.198 73.6325 166.194 73.7296 166.191 73.8267C166.188 73.9793 166.181 74.1319 166.181 74.2845C166.181 74.3886 166.181 74.4892 166.181 74.5932C166.181 74.7424 166.184 74.8881 166.191 75.0372C166.194 75.1447 166.201 75.2488 166.205 75.3563C166.212 75.502 166.222 75.6511 166.233 75.8002C166.24 75.9078 166.25 76.0153 166.26 76.1228C166.271 76.2442 166.285 76.3656 166.299 76.487C166.323 76.6882 166.347 76.8894 166.378 77.0905C166.396 77.1981 166.41 77.3021 166.427 77.4096C166.465 77.6316 166.507 77.8571 166.552 78.079C166.569 78.1623 166.583 78.2455 166.6 78.3288C166.621 78.4189 166.642 78.5057 166.663 78.5958C166.701 78.7623 166.742 78.9288 166.784 79.0953C166.812 79.1959 166.84 79.2964 166.867 79.397C166.923 79.5947 166.978 79.7925 167.041 79.9902C167.131 80.278 167.228 80.5624 167.332 80.8399C167.415 81.0619 167.499 81.2839 167.589 81.5024C167.61 81.5544 167.63 81.603 167.655 81.655C167.714 81.7972 167.776 81.9325 167.839 82.0712C167.929 82.2724 168.022 82.4701 168.12 82.6678C168.161 82.7545 168.206 82.8447 168.248 82.9314C168.362 83.1534 168.48 83.3719 168.602 83.5904C168.626 83.6355 168.65 83.6806 168.675 83.7222C168.82 83.9754 168.973 84.2216 169.125 84.4644C169.171 84.5338 169.219 84.6032 169.264 84.6691C169.375 84.8391 169.49 85.009 169.608 85.172C169.67 85.2587 169.733 85.342 169.795 85.4252C169.902 85.5709 170.01 85.7165 170.124 85.8553C170.194 85.942 170.263 86.0252 170.329 86.1119C170.444 86.2507 170.558 86.386 170.676 86.5212C170.745 86.601 170.815 86.6808 170.884 86.7605C171.023 86.9166 171.169 87.0658 171.314 87.2149C171.37 87.2704 171.422 87.3294 171.481 87.3849C171.689 87.593 171.9 87.7942 172.119 87.9884C172.164 88.0265 172.209 88.0647 172.251 88.1029C172.442 88.2694 172.632 88.4323 172.827 88.5884C172.896 88.6439 172.962 88.696 173.031 88.748C173.291 88.9492 173.555 89.1468 173.822 89.3307C173.822 89.3307 173.822 89.3307 173.826 89.3307C173.829 89.3341 173.836 89.3376 173.839 89.3411C174.023 89.466 174.211 89.5874 174.401 89.7053C174.464 89.7434 174.53 89.7816 174.596 89.8197C174.724 89.896 174.852 89.9724 174.981 90.0452C175.112 90.118 175.241 90.1874 175.373 90.2568C175.463 90.3053 175.556 90.3539 175.647 90.399C175.789 90.4684 175.931 90.5342 176.077 90.6001C176.164 90.6383 176.247 90.6799 176.333 90.7181C176.389 90.7423 176.441 90.7632 176.496 90.7874C176.646 90.8499 176.795 90.9123 176.947 90.9678C177.02 90.9955 177.093 91.0198 177.166 91.0476C177.301 91.0961 177.44 91.1447 177.579 91.1898C177.655 91.214 177.728 91.2383 177.804 91.2626C177.95 91.3077 178.096 91.3493 178.241 91.3875C178.307 91.4048 178.37 91.4256 178.436 91.4395C178.647 91.495 178.859 91.5435 179.07 91.5886C179.084 91.5886 179.102 91.5956 179.115 91.5956C179.313 91.6337 179.511 91.6719 179.709 91.6997C179.778 91.7101 179.847 91.7204 179.917 91.7274C180.062 91.7482 180.208 91.7655 180.357 91.7829C180.437 91.7898 180.513 91.7967 180.593 91.8037C180.735 91.8176 180.881 91.8245 181.023 91.8315C181.099 91.8349 181.172 91.8384 181.249 91.8418C181.415 91.8488 181.582 91.8488 181.748 91.8488C181.8 91.8488 181.849 91.8488 181.901 91.8488C182.116 91.8453 182.334 91.8349 182.549 91.821C182.605 91.8176 182.657 91.8106 182.712 91.8072C182.875 91.7933 183.038 91.7759 183.202 91.7586C183.278 91.7482 183.354 91.7378 183.43 91.7274C183.573 91.7066 183.718 91.6823 183.861 91.658C183.94 91.6442 184.017 91.6303 184.096 91.6129C184.246 91.5817 184.395 91.5505 184.54 91.5158C184.61 91.4985 184.679 91.4846 184.749 91.4673C184.964 91.4118 185.175 91.3528 185.39 91.2869L182.393 92.2303C182.178 92.2962 181.963 92.3586 181.748 92.4141C181.679 92.4315 181.609 92.4454 181.543 92.4627C181.394 92.4974 181.245 92.5321 181.096 92.5633C181.016 92.5806 180.94 92.5945 180.86 92.6084C180.714 92.6327 180.572 92.6569 180.427 92.6777C180.35 92.6881 180.274 92.6985 180.198 92.7089C180.035 92.7298 179.872 92.7471 179.709 92.7575C179.653 92.761 179.601 92.7679 179.545 92.7714C179.33 92.7853 179.112 92.7957 178.897 92.7991C178.845 92.7991 178.796 92.7991 178.744 92.7991C178.578 92.7991 178.411 92.7991 178.245 92.7922C178.168 92.7922 178.096 92.7853 178.019 92.7818C177.877 92.7749 177.731 92.7644 177.589 92.754C177.509 92.7471 177.433 92.7402 177.353 92.7332C177.208 92.7194 177.058 92.6985 176.913 92.6777C176.843 92.6673 176.774 92.6604 176.705 92.65C176.507 92.6188 176.309 92.5841 176.111 92.5459C176.098 92.5459 176.08 92.539 176.066 92.539C175.855 92.4939 175.643 92.4454 175.432 92.3899C175.366 92.3725 175.303 92.3552 175.237 92.3378C175.092 92.2962 174.946 92.2546 174.8 92.213C174.724 92.1887 174.651 92.1644 174.575 92.1401C174.436 92.095 174.301 92.0465 174.162 91.9979C174.089 91.9702 174.016 91.9459 173.944 91.9182C173.791 91.8592 173.642 91.8002 173.493 91.7378C173.437 91.7135 173.382 91.6927 173.33 91.6684C173.316 91.6615 173.302 91.658 173.288 91.6511C173.215 91.6199 173.146 91.5817 173.073 91.5505C172.931 91.4846 172.785 91.4187 172.643 91.3493C172.549 91.3042 172.459 91.2557 172.369 91.2071C172.237 91.1377 172.105 91.0684 171.977 90.9955C171.949 90.9817 171.921 90.9678 171.894 90.9505C171.793 90.8915 171.692 90.8291 171.592 90.7701C171.529 90.7319 171.463 90.6938 171.401 90.6556C171.21 90.5377 171.023 90.4163 170.839 90.2914C170.836 90.288 170.829 90.2845 170.825 90.281C170.555 90.0972 170.291 89.8995 170.034 89.6983C170.003 89.6741 169.968 89.6498 169.934 89.6255C169.899 89.5977 169.864 89.5665 169.83 89.5388C169.635 89.3827 169.441 89.2197 169.254 89.0532C169.219 89.022 169.184 88.9977 169.15 88.9665C169.139 88.9561 169.129 88.9457 169.119 88.9387C168.9 88.7445 168.688 88.5433 168.48 88.3352C168.47 88.3248 168.456 88.311 168.442 88.3006C168.397 88.2555 168.359 88.2104 168.314 88.1653C168.168 88.0161 168.026 87.8635 167.884 87.7109C167.856 87.6797 167.825 87.652 167.797 87.6208C167.755 87.5722 167.714 87.5201 167.672 87.4716C167.554 87.3363 167.44 87.2011 167.325 87.0623C167.287 87.0172 167.245 86.9721 167.207 86.9236C167.176 86.8854 167.148 86.8438 167.117 86.8056C167.006 86.6634 166.899 86.5212 166.788 86.3755C166.742 86.3166 166.697 86.2611 166.656 86.2021C166.638 86.1744 166.621 86.1466 166.6 86.1224C166.482 85.9559 166.368 85.7894 166.257 85.6194C166.219 85.5605 166.177 85.5085 166.139 85.4495C166.132 85.4391 166.125 85.4252 166.118 85.4148C165.962 85.172 165.809 84.9258 165.667 84.6726C165.667 84.6656 165.66 84.6621 165.657 84.6552C165.636 84.6171 165.615 84.5789 165.594 84.5408C165.473 84.3257 165.352 84.1072 165.241 83.8818C165.227 83.854 165.209 83.8263 165.195 83.7985C165.164 83.7395 165.14 83.6771 165.109 83.6181C165.012 83.4204 164.918 83.2228 164.828 83.0216C164.803 82.9696 164.779 82.921 164.755 82.8689C164.717 82.7822 164.679 82.6921 164.644 82.6053C164.623 82.5533 164.599 82.5048 164.578 82.4528C164.495 82.2516 164.415 82.0469 164.339 81.8423C164.332 81.825 164.328 81.8076 164.321 81.7937C164.217 81.5128 164.12 81.2319 164.03 80.944C163.999 80.8503 163.971 80.7532 163.943 80.6595L163.957 80.6457Z" fill="#FFAE00"/>
<path d="M185.42 91.2648C192.856 88.9203 196.69 80.0606 193.983 71.4759C191.276 62.8912 183.054 57.8325 175.618 60.1769C168.181 62.5214 164.348 71.3811 167.055 79.9658C169.762 88.5505 177.984 93.6092 185.42 91.2648Z" fill="#FFD733"/>
<path d="M186.16 91.0232C187.995 90.3295 189.653 89.1815 190.981 87.7351C192.31 86.2818 193.312 84.5441 193.964 82.6885C194.616 80.8329 194.925 78.8593 194.911 76.8927C194.897 74.9227 194.554 72.9595 193.926 71.0935C192.674 67.3649 190.201 64.0213 186.885 61.8882C185.23 60.8234 183.371 60.0707 181.425 59.7551C179.483 59.4464 177.471 59.5886 175.604 60.1956C177.478 59.6164 179.486 59.5054 181.411 59.8418C183.34 60.1679 185.185 60.9205 186.819 61.9853C190.1 64.1219 192.535 67.4482 193.76 71.149C194.391 72.9942 194.741 74.94 194.766 76.8927C194.79 78.8455 194.492 80.8017 193.853 82.6504C193.219 84.4956 192.227 86.2263 190.919 87.6761C189.618 89.1329 187.984 90.3018 186.16 91.0232Z" fill="#EDB400"/>
<path d="M196.296 200.581C196.237 201.518 196.338 202.482 196.296 203.418L205.897 203.592C206.418 203.418 206.081 201.518 206.029 200.987C209.394 201.077 212.807 201.025 216.165 201.188C217.07 201.233 218.648 201.594 219.509 201.594H222.551C223.394 201.594 224.941 201.729 225.894 201.795C226.765 201.854 227.726 201.93 228.628 202C233.262 202.35 237.917 202.846 242.517 203.415C242.156 205.024 241.951 206.689 241.504 208.278L247.962 208.857C248.236 208.687 248.379 204.993 248.392 204.355C248.441 204.168 248.667 204.24 248.802 204.227C250.005 204.095 254.05 205.042 255.496 205.336C258.542 205.954 267.637 207.83 269.156 210.525C269.888 211.819 269.309 212.492 268.365 213.352C264.095 217.251 247.654 219.339 241.601 220.036C216.564 222.911 189.948 222.97 164.779 222.058C149.278 221.496 130.54 220.674 115.61 216.696C109.27 215.006 101.434 211.403 112.267 207.466C117.692 205.496 123.731 204.802 129.399 203.821C129.399 203.848 129.621 204.036 129.61 204.313C129.582 205.205 129.204 206.28 129.399 207.268L137.914 206.457C138.011 205.225 137.817 204.022 137.71 202.808C141.019 202.565 144.324 202.128 147.644 201.996C148.05 201.979 148.584 201.996 148.962 201.996H154.231C155.483 201.996 156.975 201.58 158.185 201.389C160.013 201.101 162.171 201.067 164.065 200.984C169.084 200.765 174.266 200.651 179.268 200.578C184.939 200.494 190.625 200.64 196.296 200.578V200.581Z" fill="#A0D92A"/>
<path d="M185.149 109.569C178.246 110.245 172.471 116.128 171.964 123.041C171.621 127.723 174.285 131.84 172.082 136.335C171.423 137.681 170.143 138.968 169.377 140.32C167.521 143.591 167.136 146.789 167.309 150.518C167.32 150.719 167.296 150.923 167.309 151.125C163.036 151.978 159.536 150.812 156.359 147.986C155.058 146.827 154.069 145.367 152.821 144.226C146.934 138.853 138.693 138.406 131.835 142.204C133.632 136.554 136.438 134.552 140.049 130.449C144.35 125.559 142.258 118.577 144 112.607C145.505 107.446 148.238 105.424 151.294 101.557C155.45 96.2953 159.127 89.7816 166.81 89.0983C179.259 87.9884 182.998 99.6805 185.152 109.569H185.149Z" fill="#A0D92A"/>
<path d="M247.786 128.621C238.247 131.736 236.61 138.583 233.8 147.271C230.002 147.244 225.871 146.37 223.127 143.55C220.866 141.226 220.859 139.006 219.818 136.217C217.321 129.52 210.91 125.587 203.799 126.391C203.772 126.332 203.633 126.27 203.598 126.19C203.564 126.11 203.421 126.048 203.397 125.989C202.159 123.221 201.201 120.363 199.748 117.678C200.091 117.467 200.126 117.13 200.157 116.77C200.487 113.218 199.821 110.88 201.163 107.235C207.657 89.5736 240.845 92.1923 243.884 111.349C244.685 116.392 242.93 120.426 245.66 125.385C246.288 126.527 247.28 127.411 247.793 128.625L247.786 128.621Z" fill="#A0D92A"/>
<path d="M199.744 117.675C201.197 120.363 202.155 123.218 203.393 125.985L203.594 126.186C203.632 126.27 203.771 126.329 203.796 126.388C204.756 128.538 205.433 130.817 206.557 133.054C208.596 137.109 211.458 140.771 213.324 144.836C209.148 150.074 204.385 155.387 197.205 155.98C185.557 156.945 184.565 146.248 174.305 147.268C171.634 147.535 169.539 149.241 167.308 150.511C167.135 146.782 167.516 143.584 169.376 140.313C170.142 138.964 171.422 137.674 172.081 136.328C174.284 131.833 171.62 127.716 171.963 123.034C172.47 116.121 178.245 110.239 185.148 109.562C191.749 108.914 196.705 112.049 199.744 117.671V117.675Z" fill="#28BD3B"/>
<path d="M248.192 128.622L248.393 128.823C256.531 128.656 261.484 134.646 261.984 142.495C262.126 144.705 261.776 146.605 262.32 148.85C263.097 152.047 265.425 153.376 266.875 156.053C269.424 160.753 269.493 165.939 268.259 170.985C267.305 170.964 266.438 170.496 265.498 170.402C259.077 169.757 257.877 175.619 252.906 177.627C249.76 178.897 246.583 178.706 243.596 177.104C239.305 174.8 235.667 167.406 229.898 169.622C228.844 170.028 228.112 170.954 227.109 171.394C227.068 170.881 226.87 170.479 226.908 169.771C227.037 167.218 228.088 164.27 228.934 161.867C230.654 156.987 232.215 152.165 233.8 147.271C236.61 138.583 238.247 131.736 247.786 128.622C247.87 128.594 248.071 128.618 248.192 128.622Z" fill="#28BD3B"/>
<path d="M143.996 112.608C142.255 118.573 144.347 125.555 140.046 130.449C136.438 134.552 133.628 136.554 131.832 142.204C130.094 147.663 130.056 154.389 132.439 159.636C122.626 165.432 111.73 159.241 106.087 150.719C106.906 144.337 109.171 143.213 112.539 138.624C115.948 133.98 114.707 131.015 115.439 125.916C117.367 112.51 132.799 109.136 143.993 112.611L143.996 112.608Z" fill="#28BD3B"/>
<path d="M132.441 159.636C133.492 161.953 137.509 165.349 139.805 166.563C140.617 166.993 143.309 167.85 143.59 168.352C143.635 168.436 143.576 168.727 143.704 168.939C144.956 171.002 146.739 172.691 147.846 174.838C147.128 174.814 145.529 175.574 144.61 175.758C142.116 176.257 139.046 176.108 136.697 175.04C134.713 174.138 133.805 172.771 131.224 172.608C128.765 172.452 126.069 173.843 123.52 173.621C122.639 173.545 120.78 173.205 119.871 173.014C109.659 170.853 104.841 160.424 106.086 150.715C111.73 159.241 122.625 165.432 132.438 159.633L132.441 159.636Z" fill="#027D40"/>
<path d="M268.262 170.988C266.486 178.251 259.017 187.512 250.627 184.772C249.236 184.318 248.708 183.631 246.978 183.354C244.765 183 243.544 184.002 241.504 184.165C240.619 184.238 239.551 184.092 238.667 183.964C233.679 183.236 229.353 179.615 227.719 174.842C227.244 173.451 227.223 172.82 227.112 171.394C228.115 170.954 228.847 170.028 229.901 169.622C235.67 167.406 239.308 174.8 243.599 177.103C246.586 178.706 249.763 178.897 252.909 177.627C257.88 175.622 259.083 169.757 265.5 170.402C266.44 170.496 267.308 170.964 268.262 170.985V170.988Z" fill="#027D40"/>
<path d="M136.698 175.04C136.361 175.251 136.497 175.81 136.493 176.153C136.448 179.667 136.504 183.191 136.504 186.704C136.504 192.073 137.235 197.456 137.711 202.812C137.818 204.026 138.012 205.233 137.915 206.461L129.4 207.272C129.205 206.284 129.583 205.205 129.611 204.317C129.622 204.04 129.396 203.852 129.4 203.824C129.493 201.775 130 199.711 129.795 197.633L130.381 188.56L120.992 179.698L119.871 173.014C120.78 173.205 122.639 173.545 123.52 173.621C123.68 175.078 123.825 176.608 124.321 177.988C126.132 179.334 127.818 180.87 129.622 182.216C129.812 182.358 130.676 183.107 130.815 182.944L131.221 172.608C133.801 172.771 134.71 174.138 136.694 175.04H136.698Z" fill="#BE6632"/>
<path d="M250.624 184.772L248.595 202.919L248.799 204.23C248.664 204.244 248.438 204.171 248.39 204.358C248.376 204.997 248.234 208.691 247.96 208.861L241.501 208.281C241.952 206.689 242.157 205.024 242.514 203.419C243.183 200.422 244.127 197.47 244.543 194.408L239.226 187.748L238.66 183.957C239.545 184.085 240.613 184.231 241.498 184.158C241.605 184.8 241.57 186.062 241.803 186.59C242.066 187.179 243.967 188.91 244.533 189.534C244.97 190.02 245.001 190.821 245.754 190.648L246.971 183.35C248.702 183.628 249.229 184.314 250.62 184.769L250.624 184.772Z" fill="#BE6632"/>
<path d="M248.397 128.826L248.195 128.625C248.348 128.628 248.383 128.83 248.397 128.826Z" fill="#A0D92A"/>
<path d="M171.159 166.528L172.175 188.622C172.97 187.942 174.954 187.11 175.287 186.159C175.818 180.593 177.666 174.557 178.058 169.05C178.086 168.661 178.065 168.283 177.85 167.947C178.11 168.006 178.402 168.082 178.662 168.148C179.845 168.453 180.795 169.032 181.905 169.365L181.298 175.851L188.739 171.335L189.203 169.566C190.577 169.188 191.68 168.262 193.054 167.943C192.561 169.32 192.374 172.272 191.434 173.316L181.225 180.541L180.778 181.106L179.678 193.183L179.272 200.581C174.271 200.654 169.088 200.765 164.069 200.987C164.336 193.311 164.749 185.667 164.874 177.984L161.651 173.548C161.249 173.049 161.221 173.725 161.031 173.919C160.278 174.703 157.097 178.043 156.979 178.803C156.861 179.566 157.166 180.124 157.18 180.808C157.312 187.516 157.225 194.196 157.562 200.897L158.186 201.389C156.976 201.58 155.488 201.996 154.232 201.996H148.963C148.585 201.996 148.051 201.979 147.645 201.996L150.805 178.168C150.201 177.613 148.453 174.856 147.846 174.835C146.739 172.688 144.957 170.999 143.704 168.935C143.576 168.724 143.635 168.432 143.59 168.349C143.788 167.964 144.273 168.217 144.568 168.28C145.834 168.543 147.166 168.869 148.453 168.956C148.852 169.612 150.86 172.334 151.391 172.407C151.811 172.466 151.845 171.748 151.877 171.467C151.974 170.638 151.859 169.785 151.901 168.956C153.288 168.831 155.383 168.307 156.767 167.943L157.069 172.4C157.541 172.071 159.033 170.891 159.164 170.43C159.404 169.608 158.543 168.366 158.387 167.537C160.222 166.993 161.832 166.094 163.861 165.713C163.993 166.5 162.796 167.884 162.841 168.436C162.865 168.748 164.981 171.585 165.179 171.589C165.398 171.589 165.47 171.099 165.495 170.891C165.679 169.22 165.339 167.222 165.484 165.508C168.273 165.387 168.797 165.876 171.159 166.521V166.528ZM172.581 200.581C172.97 200.512 172.918 200.158 172.994 199.881C173.559 197.827 173.66 195.205 174.101 193.086C173.795 193.426 172.755 194.127 172.564 194.383C171.877 195.313 172.817 199.263 172.581 200.581Z" fill="#BE6632"/>
<path d="M223.664 160.243L224.275 172.001C225.239 171.419 225.822 170.139 226.908 169.771C226.873 170.475 227.071 170.877 227.109 171.394C227.223 172.816 227.241 173.448 227.716 174.842L224.868 177.568C224.317 178.525 224.83 181.106 224.878 182.244C225.152 188.768 225.513 195.285 225.895 201.802C224.941 201.736 223.39 201.601 222.551 201.601H219.509C218.645 201.601 217.07 201.24 216.165 201.195C216.633 198.556 216.578 195.857 216.776 193.19C217.317 185.948 217.986 178.761 218.201 171.505C218.312 167.749 218.167 163.993 218.395 160.247C220.334 159.723 220.924 159.397 223.12 159.889C223.432 159.959 223.616 160.236 223.664 160.247V160.243Z" fill="#BE6632"/>
<path d="M204.202 165.515L202.978 175.539C203.994 184.012 205.153 192.503 206.027 200.99C206.082 201.521 206.415 203.422 205.895 203.595L196.293 203.422C196.335 202.482 196.238 201.521 196.293 200.585C196.293 200.553 196.488 200.356 196.505 200.096C197.077 190.98 197.476 181.883 198.08 172.754C198.004 172.258 194.975 168.633 194.396 167.919C194.181 167.652 194.115 167.308 193.657 167.34C194.753 166.441 195.846 165.983 197.306 165.921C197.476 166.247 198.389 167.832 198.527 167.947C199.124 168.446 198.85 166.465 199.131 166.122C200.296 166.126 203.13 165.834 204.199 165.515H204.202Z" fill="#BE6632"/>
<path d="M167.309 151.121C167.798 157.919 172.3 164.26 178.124 167.579C178.398 167.735 178.773 167.645 178.658 168.148C178.398 168.082 178.107 168.002 177.847 167.947C175.62 167.447 173.382 167.135 171.156 166.528C168.79 165.883 168.266 165.39 165.481 165.515C164.836 165.543 164.475 165.602 163.857 165.716C161.828 166.098 160.219 166.996 158.384 167.541C157.929 167.676 157.277 167.811 156.76 167.947C155.376 168.314 153.281 168.835 151.894 168.959C150.919 169.046 149.434 169.025 148.446 168.959C147.156 168.873 145.824 168.547 144.561 168.283C144.266 168.221 143.777 167.968 143.583 168.353C143.302 167.85 140.61 166.993 139.798 166.563C137.502 165.349 133.485 161.953 132.434 159.636C130.051 154.389 130.089 147.663 131.827 142.204C138.685 138.406 146.93 138.853 152.813 144.226C154.062 145.367 155.05 146.827 156.351 147.986C159.528 150.813 163.028 151.978 167.302 151.125L167.309 151.121Z" fill="#62B529"/>
<path d="M213.324 144.84C215.128 148.77 215.201 153.296 213.359 157.34L210.487 161.662C209.655 161.755 208.52 163.046 207.674 163.615C206.963 164.093 204.861 165.318 204.202 165.515C203.13 165.834 200.299 166.129 199.134 166.122C198.683 166.122 198.02 165.89 197.309 165.921C195.849 165.984 194.756 166.441 193.66 167.34C193.397 167.555 193.331 167.166 193.053 167.947C191.676 168.266 190.573 169.192 189.203 169.57C186.796 170.232 184.288 170.076 181.905 169.369C180.795 169.039 179.844 168.457 178.662 168.151C178.773 167.648 178.398 167.739 178.127 167.582C172.303 164.263 167.801 157.923 167.312 151.125C167.298 150.924 167.322 150.719 167.312 150.518C169.539 149.248 171.637 147.542 174.308 147.275C184.569 146.252 185.561 156.952 197.209 155.987C204.392 155.394 209.152 150.081 213.328 144.843L213.324 144.84Z" fill="#027D40"/>
<path d="M203.797 126.391C210.911 125.586 217.318 129.519 219.815 136.217C220.856 139.006 220.863 141.225 223.125 143.549C225.868 146.369 230 147.243 233.798 147.271C232.213 152.165 230.655 156.983 228.931 161.866C227.231 161.159 225.417 160.697 223.662 160.243C223.614 160.229 223.43 159.955 223.118 159.886C220.918 159.397 220.329 159.719 218.393 160.243C218.279 160.274 218.105 160.212 217.987 160.243L217.786 160.444C215.098 161.152 213.211 161.356 210.488 161.662L213.36 157.34C215.199 153.296 215.129 148.766 213.325 144.84C211.459 140.778 208.598 137.112 206.558 133.057C205.434 130.82 204.758 128.541 203.797 126.391Z" fill="#62B529"/>
<path d="M203.595 126.19L203.394 125.989C203.421 126.051 203.561 126.11 203.595 126.19Z" fill="#62B529"/>
<path d="M151.901 168.959C151.859 169.788 151.974 170.642 151.877 171.471C151.846 171.748 151.811 172.47 151.391 172.411C150.86 172.338 148.852 169.615 148.453 168.959C149.442 169.025 150.926 169.046 151.901 168.959Z" fill="#027D40"/>
<path d="M217.786 160.448L217.988 160.247C217.929 160.264 217.849 160.434 217.786 160.448Z" fill="#BE6632"/>
</svg>
