<svg width="170" height="54" viewBox="0 0 170 54" fill="none" xmlns="http://www.w3.org/2000/svg">
<path d="M2.86172 1.68689L2.78802 1.70055C2.82326 1.70055 2.85211 1.69719 2.86172 1.68689Z" fill="#20BB65"/>
<path d="M0.344424 2.26372C0.344424 2.26372 0.331483 2.26372 0.325012 2.26025H0.344424V2.26372Z" fill="#20BB65"/>
<path d="M0.537794 1.52118C0.444306 1.71115 0.09937 1.76988 0.241215 1.97022C0.215425 2.06693 0.299245 2.17058 0.344377 2.26384C0.618396 2.29838 0.350822 2.38818 0.582931 2.42963L0.428178 2.45729C0.505548 2.4711 0.560363 2.4918 0.479769 2.51252H0.434632C0.553911 2.53325 0.482997 2.56777 0.544248 2.57813H0.499111L0.521679 2.6127H0.457201C0.582927 2.6507 0.592601 2.69901 0.541021 2.74391L0.728004 2.72671C0.524908 2.83379 0.914967 2.83719 0.673186 2.93736H0.628069C1.12775 3.00299 0.302461 3.13424 0.779575 3.19987C0.721548 3.19296 0.682862 3.2137 0.63773 3.21715C0.695757 3.26206 0.727986 3.31039 1.09227 3.27585C1.09227 3.31039 0.979449 3.31727 0.840827 3.33454C1.00201 3.31727 1.06971 3.34148 1.08261 3.36911L1.01813 3.3622L1.07938 3.43472L1.37919 3.3864C1.29537 3.43821 1.01169 3.43821 1.08906 3.46929L1.3405 3.44163C1.29537 3.5038 0.921425 3.58329 0.744119 3.66274C0.663525 3.91833 1.33084 4.07377 0.924648 4.36045L0.737665 4.40186C0.46687 4.45367 1.1503 4.39154 0.898853 4.44335H1.02781C0.979454 4.46407 0.931098 4.48821 0.866623 4.48475C0.860175 4.50893 0.905309 4.50204 0.989127 4.5055L0.824713 4.56073C0.708658 4.67817 1.04714 4.69542 0.998788 4.80595C0.676413 4.99247 1.03103 5.1548 1.2438 5.23425C1.679 5.30678 0.657071 5.7869 1.15998 5.84907C1.12451 5.86634 1.21156 5.85598 1.2438 5.84907V6.02523C1.2438 6.02523 1.2728 6.23592 1.55649 6.27737C1.84018 6.32572 2.36888 6.17727 3.39726 5.57627L3.45528 5.56244C3.57456 5.44501 3.5939 5.38969 3.29087 5.42078C3.6487 5.31025 3.31345 5.34829 3.42305 5.29648L3.45206 5.28956C3.16514 5.32065 3.65838 5.13063 3.40048 5.15481C3.4295 5.1479 3.52943 5.12378 3.53588 5.13069C3.4843 5.10997 3.39404 5.08578 3.60358 5.03051C3.53266 4.96834 3.60358 4.8371 3.25864 4.86818L3.31666 4.85781C3.08455 4.88544 3.27475 4.83015 3.15225 4.82324C3.17804 4.81633 3.19417 4.80941 3.20384 4.80595C2.97173 4.82668 3.14902 4.72305 3.04909 4.71614L3.18771 4.68165L3.14259 4.62642L3.11679 4.65745C2.72994 4.73344 3.3489 4.55728 3.091 4.56419C3.13291 4.51238 2.26894 4.64362 2.44947 4.55727C2.2625 4.57109 2.74929 4.51586 2.601 4.51241C2.8041 4.47096 2.72994 4.502 2.89113 4.46055C2.78797 4.44673 3.08777 4.36736 2.94592 4.35354L3.1039 4.32242C2.80732 4.32588 3.29732 4.18769 3.01686 4.20496C2.87824 4.17732 3.48108 4.08412 3.16193 4.08757L3.37146 4.0288C3.4037 4.00117 3.10713 4.05995 3.20707 4.01505C3.34246 3.99433 3.31022 3.96318 3.43917 3.95628C3.64226 3.86647 3.12325 3.89071 3.46819 3.756C3.20384 3.78018 3.35535 3.71799 3.15548 3.73526C3.26831 3.71453 3.16515 3.65583 3.41983 3.66274C3.43917 3.66274 3.43916 3.66966 3.39403 3.67657L3.55199 3.65928C3.84213 3.57293 3.38114 3.60745 3.41983 3.55564C3.36825 3.57637 3.38436 3.59013 3.27798 3.59359L3.29409 3.55218L3.42628 3.54181L3.49719 3.47275L3.33601 3.50387C3.4166 3.46242 3.69062 3.41751 3.45851 3.41406C3.32634 3.41406 3.24251 3.46927 3.18771 3.44509C3.29409 3.38983 3.45529 3.31382 3.50042 3.25856C3.31667 3.28619 3.32312 3.27238 3.28443 3.25856L3.44239 3.2379C3.21673 3.21027 3.79057 3.17918 3.61004 3.14809L3.72286 3.14118L3.3876 3.16529C3.06522 3.15148 3.71641 3.10314 3.28121 3.09969C3.31022 3.11696 2.92982 3.14806 2.99752 3.11352L3.15225 3.10315C3.12001 3.09278 3.05233 3.09276 3.08456 3.0824C3.16838 3.0824 3.31022 3.06518 3.28121 3.04445L3.47462 3.03754L3.18771 3.02717C3.35212 2.98226 3.13936 2.95116 3.35535 2.92007C3.35535 2.92007 3.45529 2.84755 3.21673 2.85101C3.36502 2.85101 3.41982 2.8096 3.5939 2.80615C3.42627 2.80615 3.28443 2.76462 3.46174 2.73008H3.48108C3.65838 2.64719 3.22318 2.62653 3.43917 2.54364C3.25219 2.55745 3.35213 2.51601 3.11679 2.54364C2.87824 2.48837 3.59391 2.39161 2.8589 2.40543C2.81699 2.37434 3.02976 2.35709 3.06522 2.33982L3.1039 2.34674C3.04265 2.29147 3.03297 2.27417 3.04909 2.22927C2.97816 2.20855 2.63646 2.21894 2.71705 2.17749C2.85245 2.1844 2.82665 2.17056 2.82665 2.15329C2.84921 2.16365 2.89757 2.16364 2.98783 2.13946C2.94593 2.13946 2.92015 2.136 2.89758 2.13255C2.90725 2.13255 2.91691 2.13255 2.92981 2.13255C2.88145 2.10837 2.83956 2.11527 2.82021 2.12563C2.80087 2.12563 2.77185 2.12564 2.73639 2.13255C2.91048 2.10146 2.7235 2.06002 2.95561 2.04965C2.89758 1.97712 2.65579 1.92883 2.56552 1.86321C2.6848 1.85285 2.7912 1.8666 2.83956 1.88387L2.79442 1.83901C2.9685 1.83901 2.89435 1.86314 2.92981 1.87695C3.21028 1.82169 2.64936 1.76988 2.90403 1.70771L2.76862 1.69388H2.79119C2.72027 1.69388 2.62034 1.67667 2.59777 1.6663C2.74929 1.65594 2.94593 1.66627 2.93626 1.63519C3.08133 1.61101 2.86535 1.56609 2.78153 1.53501C2.75574 1.55228 2.67192 1.54537 2.62034 1.53847C2.6139 1.5212 2.76541 1.51434 2.70094 1.50398H2.90403C2.71383 1.50743 2.69771 1.46248 2.61389 1.45557C2.76541 1.44866 2.74284 1.47978 2.85567 1.48669C2.83633 1.42452 2.84599 1.4556 2.82665 1.39342C2.67513 1.35888 2.63323 1.39341 2.45593 1.37959C2.41724 1.34851 2.2754 1.31742 2.3979 1.28633L2.21737 1.29324C2.07875 1.23453 2.10131 1.20003 2.28506 1.16549C1.55649 0.930616 1.05682 0.878803 0.737665 0.902981C0.418514 0.923705 0.283125 1.01345 0.283125 1.01345C-0.119843 1.1896 0.4024 1.30358 0.541021 1.52118H0.537794Z" fill="#20BB65"/>
<path d="M7.33989 12.1338L7.30786 12.2093C7.33029 12.1818 7.3463 12.1544 7.33989 12.1338Z" fill="#20BB65"/>
<path d="M12.3398 15.5528C12.3398 15.5528 12.3467 15.5459 12.3536 15.5391C12.3467 15.5425 12.3433 15.5459 12.3398 15.5528Z" fill="#20BB65"/>
<path d="M6.46319 14.876C6.46319 14.876 6.45349 14.8829 6.44702 14.8864L6.46643 14.876H6.46319Z" fill="#20BB65"/>
<path d="M5.56359 13.7712C5.76669 14.0924 5.60872 14.4516 5.9859 14.5897C6.10518 14.7313 6.2986 14.8005 6.46301 14.8764C6.69512 14.7003 6.64353 15.0215 6.85952 14.8903L6.79504 15.0457C6.86919 15.0008 6.93045 14.9801 6.90789 15.0733L6.87886 15.1113C6.98847 15.0422 6.9917 15.1389 7.04651 15.1044L7.01748 15.1424L7.07873 15.1631L7.03362 15.2115C7.17546 15.1597 7.25282 15.208 7.28183 15.3047L7.38499 15.1389C7.39467 15.4256 7.66869 15.1251 7.64934 15.4325L7.62032 15.4705C8.05553 15.1493 7.67514 15.9506 8.10068 15.6501C8.0491 15.6881 8.05553 15.7434 8.02974 15.7813C8.1329 15.7848 8.22962 15.8159 8.43271 15.4878C8.48429 15.5293 8.41338 15.6225 8.34246 15.7538C8.4295 15.6087 8.51331 15.581 8.56167 15.6017L8.51008 15.6432L8.65838 15.6778L8.80023 15.3876C8.81634 15.5085 8.61647 15.733 8.7164 15.7088L8.8518 15.4809C8.91305 15.5845 8.76153 15.9645 8.75186 16.1924C9.06134 16.5378 9.77379 16.1855 9.89951 16.8004L9.82215 16.9868C9.69642 17.2493 10.1155 16.6587 10.0059 16.9074L10.1058 16.8141C10.0929 16.8659 10.0929 16.9315 10.0414 16.9764C10.0736 17.0075 10.0962 16.9661 10.1639 16.9039L10.122 17.0904C10.2058 17.3046 10.4895 17.0559 10.612 17.2079C10.6378 17.65 11.1439 17.5291 11.4276 17.4566C11.8886 17.201 11.7596 18.4444 12.2593 18.1232C12.2529 18.1646 12.3141 18.0921 12.327 18.061L12.5849 18.2303C12.5849 18.2303 12.9073 18.4099 13.2135 18.2441C13.523 18.0818 13.7938 17.5671 13.7584 16.22L13.7874 16.1648C13.7035 15.9541 13.6294 15.885 13.4102 16.1371C13.5456 15.7641 13.3102 16.0439 13.3264 15.9126L13.3425 15.885C13.1394 16.1233 13.2651 15.5707 13.0781 15.7813C13.0943 15.7537 13.1362 15.6571 13.1587 15.6571C13.0814 15.6743 12.9621 15.7158 13.0491 15.5016C12.8847 15.4844 12.7332 15.2909 12.4946 15.5776L12.5269 15.5223C12.3754 15.7226 12.4463 15.5223 12.3367 15.6086C12.3463 15.581 12.3496 15.5638 12.3528 15.5534C12.1981 15.7468 12.1755 15.5016 12.0852 15.5707L12.1465 15.4325L12.0207 15.4049L12.0498 15.4567C11.8596 15.8263 12.0756 15.1735 11.8821 15.3773C11.8305 15.2909 11.3567 16.0785 11.3663 15.847C11.2438 16.0025 11.5372 15.581 11.4147 15.6846C11.5082 15.4877 11.4985 15.5776 11.5598 15.4118C11.4598 15.474 11.5662 15.1631 11.4372 15.2563L11.5082 15.1044C11.2825 15.3323 11.4437 14.8143 11.2535 15.0457C11.102 15.1182 11.4211 14.5621 11.1794 14.8039L11.247 14.5794C11.2245 14.5241 11.0923 14.8108 11.0988 14.6865C11.1665 14.5587 11.0988 14.5518 11.1858 14.4447C11.1923 14.1856 10.8376 14.6139 10.8892 14.196C10.728 14.4274 10.7441 14.2374 10.6249 14.4101C10.6797 14.2996 10.5056 14.3135 10.7055 14.1235C10.7216 14.1097 10.7312 14.12 10.7055 14.1614L10.7925 14.0199C10.8731 13.6986 10.5797 14.0889 10.5314 14.0026C10.5249 14.0647 10.5604 14.0682 10.4862 14.158L10.4314 14.0958L10.512 13.9818L10.454 13.8472L10.3831 14.006C10.3799 13.8955 10.5088 13.6295 10.3347 13.8091C10.2412 13.9127 10.2638 14.0405 10.1864 14.0543C10.18 13.9093 10.1735 13.6917 10.122 13.595C10.0317 13.7677 10.0124 13.747 9.97045 13.7677L10.0543 13.6191C9.85117 13.7642 10.2122 13.2772 10.0349 13.3808L10.1026 13.2841L9.89951 13.5708C9.65129 13.8057 10.0414 13.2427 9.71899 13.5743C9.76734 13.5743 9.54168 13.9024 9.53846 13.8126L9.63516 13.6814C9.59326 13.6952 9.55135 13.7469 9.55457 13.7089C9.6126 13.6433 9.68675 13.5121 9.63839 13.5121L9.76735 13.3532L9.54814 13.5639C9.59327 13.3808 9.39661 13.5155 9.49977 13.3048C9.49977 13.3048 9.45787 13.1356 9.2999 13.329C9.40306 13.2116 9.38049 13.1218 9.49655 12.9802C9.37404 13.1114 9.21932 13.1736 9.29024 12.994L9.30636 12.9802C9.29668 12.7384 8.96463 13.0527 8.99364 12.7798C8.88726 12.9456 8.89372 12.8144 8.768 13.032C8.51977 13.1494 8.86471 12.4655 8.38437 13.0665C8.31345 13.0631 8.43271 12.8731 8.42949 12.8213L8.46496 12.7971C8.33924 12.7764 8.31021 12.7591 8.25541 12.69C8.17804 12.7246 7.96205 13.0078 7.95238 12.8869C8.05554 12.7902 8.01685 12.7902 7.99429 12.7729C8.0233 12.766 8.05553 12.728 8.08454 12.6279C8.05553 12.659 8.03297 12.6762 8.01363 12.69C8.02008 12.6797 8.0233 12.6727 8.03297 12.6624C7.96527 12.6727 7.94593 12.7143 7.95238 12.7419C7.93948 12.7592 7.92336 12.7833 7.90401 12.8179C7.97494 12.6383 7.79119 12.7349 7.93304 12.5381C7.79119 12.4863 7.55908 12.6175 7.41079 12.6106C7.47849 12.5035 7.56875 12.4344 7.62355 12.4206L7.53007 12.3999C7.6429 12.2582 7.63 12.3515 7.67191 12.3412C7.7783 12.0476 7.33665 12.4276 7.41724 12.1374L7.30763 12.2306L7.31731 12.2065C7.26895 12.2652 7.18514 12.3239 7.15612 12.3308C7.24316 12.1995 7.38823 12.0545 7.33665 12.02C7.40113 11.8714 7.19158 11.9889 7.09164 12.0096C7.09809 12.051 7.03361 12.1097 6.98848 12.1443C6.96269 12.127 7.05296 11.9958 6.99493 12.0303L7.13033 11.868C7.00782 12.0269 6.9369 11.9751 6.87243 12.0338C6.96269 11.9025 6.99171 11.9646 7.07553 11.8818C6.97882 11.8127 7.02717 11.8473 6.93046 11.7782C6.78216 11.8542 6.80795 11.937 6.66288 12.0545C6.59518 12.0441 6.45655 12.1132 6.49524 11.975L6.38564 12.1305C6.21156 12.1616 6.18254 12.0959 6.25991 11.9025C5.46364 12.1615 5.06068 12.4862 4.87693 12.7729C4.68995 13.0561 4.71895 13.2876 4.71895 13.2876C4.68026 13.8575 5.1864 13.5881 5.57325 13.7712H5.56359Z" fill="#20BB65"/>
<path d="M21.3116 18.8544L21.3185 18.9371C21.3254 18.9026 21.3288 18.8682 21.3116 18.8544Z" fill="#20BB65"/>
<path d="M27.3368 20.0984C27.3368 20.0984 27.3404 20.0877 27.3476 20.0804C27.3404 20.0877 27.3404 20.0912 27.3368 20.0984Z" fill="#20BB65"/>
<path d="M21.6742 21.7244C21.6742 21.7244 21.6667 21.7355 21.663 21.743L21.6779 21.7244H21.6742Z" fill="#20BB65"/>
<path d="M20.4766 21.1998C20.7796 21.3794 20.786 21.7662 21.16 21.704C21.3147 21.7731 21.5049 21.7316 21.6726 21.7247C21.808 21.4587 21.8821 21.7696 22.0208 21.552V21.7213C22.0691 21.6453 22.1175 21.6004 22.1303 21.6937L22.1175 21.7385C22.1884 21.628 22.2238 21.7109 22.2593 21.6556L22.2464 21.704L22.3077 21.6971L22.2851 21.7627C22.3915 21.6522 22.4753 21.6625 22.5365 21.7385L22.5688 21.5417C22.6784 21.7973 22.817 21.4035 22.9041 21.6937L22.8944 21.742C23.1716 21.2619 23.1071 22.1565 23.3812 21.704C23.3457 21.7593 23.3715 21.8076 23.3618 21.856C23.4553 21.818 23.552 21.8076 23.6262 21.4208C23.6874 21.438 23.652 21.552 23.6326 21.704C23.6649 21.5348 23.7293 21.476 23.7777 21.476L23.7422 21.5382L23.8905 21.5106L23.9228 21.1859C23.9776 21.293 23.868 21.5797 23.9518 21.5175L24.0001 21.2515C24.0904 21.3241 24.0743 21.7386 24.1388 21.9527C24.5224 22.1496 25.0704 21.5589 25.367 22.0977L25.3509 22.3016C25.309 22.5952 25.525 21.8905 25.4959 22.1634L25.5604 22.0391C25.5636 22.0943 25.5798 22.153 25.5475 22.2152C25.5862 22.2325 25.5959 22.1876 25.6378 22.1047L25.6507 22.2946C25.7861 22.4674 25.9795 22.1392 26.1375 22.2428C26.2793 22.6504 26.7145 22.3776 26.9627 22.2152C27.3335 21.8318 27.5205 23.058 27.9105 22.6055C27.9137 22.6469 27.9557 22.5606 27.9589 22.526L28.2426 22.6124C28.2426 22.6124 28.5875 22.6953 28.8422 22.4535C29.0969 22.2117 29.2516 21.6453 28.8938 20.35L28.9099 20.2878C28.7777 20.1082 28.6842 20.0599 28.5327 20.3638C28.5714 19.9666 28.4102 20.3016 28.3941 20.1704L28.4005 20.1393C28.2619 20.426 28.2426 19.8561 28.1136 20.1117C28.1201 20.0806 28.1394 19.9736 28.162 19.9701C28.0878 20.0081 27.9847 20.0806 28.0137 19.8526C27.8461 19.8872 27.643 19.7421 27.4882 20.0909L27.5043 20.0288C27.4109 20.2671 27.4238 20.053 27.3399 20.167C27.3399 20.1359 27.3399 20.1186 27.3399 20.1082C27.24 20.3396 27.1497 20.1152 27.0852 20.2084L27.1046 20.0565L26.9724 20.0703L27.0143 20.1117C26.9337 20.5262 26.9595 19.8319 26.8274 20.0875C26.75 20.0184 26.5211 20.9234 26.4631 20.7023C26.3889 20.8888 26.5501 20.3914 26.4631 20.5296C26.4953 20.312 26.5146 20.3984 26.5243 20.2222C26.4469 20.3155 26.4598 19.9804 26.3599 20.1151L26.3825 19.9459C26.2342 20.236 26.231 19.6903 26.1181 19.9701C25.9924 20.091 26.131 19.4554 25.9698 19.7663V19.528C25.9279 19.4831 25.886 19.8008 25.857 19.6834C25.8828 19.5383 25.8119 19.5556 25.8635 19.4243C25.7861 19.1791 25.5798 19.7007 25.4927 19.2897C25.4121 19.5625 25.367 19.3829 25.3058 19.5867C25.3219 19.4623 25.1575 19.5384 25.2896 19.2897C25.2993 19.2689 25.3122 19.2758 25.3025 19.3242L25.3412 19.1584C25.309 18.8268 25.1575 19.3 25.0801 19.2344C25.0962 19.2931 25.1317 19.2862 25.0897 19.3967L25.0156 19.3587L25.0575 19.2205L24.9544 19.1135L24.9415 19.2897C24.8996 19.1895 24.9318 18.8925 24.8254 19.1239C24.7706 19.2551 24.8383 19.3691 24.7674 19.4105C24.7126 19.2758 24.6288 19.0755 24.5417 19.0064C24.5159 19.2033 24.4901 19.1894 24.4579 19.224L24.4869 19.0547C24.3418 19.2689 24.5159 18.6748 24.3805 18.8406L24.4095 18.7232L24.3193 19.0686C24.1645 19.3829 24.3354 18.7093 24.1484 19.1411C24.1935 19.1204 24.1001 19.5176 24.0614 19.4347L24.1033 19.2758C24.0678 19.3035 24.0485 19.3691 24.0356 19.3345C24.0678 19.2516 24.0872 19.0997 24.042 19.1204L24.1065 18.9235L23.9743 19.2068C23.9486 19.0203 23.8132 19.2171 23.8325 18.9822C23.8325 18.9822 23.7261 18.8406 23.6487 19.0859C23.7035 18.9339 23.6455 18.8614 23.7003 18.6818C23.6326 18.851 23.5069 18.9754 23.5069 18.7785L23.5198 18.7577C23.4134 18.5332 23.2232 18.9649 23.1394 18.7024C23.1071 18.8993 23.0588 18.7785 23.0266 19.0306C22.8428 19.2448 22.8847 18.4676 22.6816 19.2274C22.6107 19.2551 22.6462 19.0306 22.6236 18.9822L22.6462 18.9443C22.5204 18.9788 22.485 18.9788 22.4044 18.9443C22.3464 19.0099 22.2657 19.3656 22.2077 19.262C22.2625 19.1273 22.2271 19.1445 22.1981 19.1376C22.2206 19.1204 22.2367 19.0686 22.2206 18.9649C22.2077 19.0064 22.1916 19.034 22.1787 19.0547C22.1787 19.0444 22.1787 19.0341 22.1852 19.0202C22.1271 19.0582 22.1271 19.1066 22.1433 19.1308C22.1368 19.1515 22.1336 19.1791 22.1336 19.2205C22.1239 19.0236 21.995 19.1999 22.0401 18.9546C21.8854 18.9754 21.7306 19.2033 21.592 19.2689C21.6049 19.1411 21.6565 19.0375 21.7016 18.996L21.6081 19.0202C21.6468 18.8406 21.679 18.927 21.7113 18.8993C21.6758 18.5816 21.4405 19.1377 21.3824 18.8406L21.3276 18.9753V18.9512C21.3083 19.0272 21.2599 19.1238 21.2374 19.1411C21.2567 18.9788 21.318 18.7785 21.26 18.775C21.2471 18.6127 21.1117 18.8164 21.0343 18.8855C21.0601 18.92 21.0311 19.0064 21.0053 19.0547C20.9762 19.0547 20.9956 18.8925 20.9569 18.9546L21.002 18.7439C20.9666 18.9477 20.8763 18.9374 20.8473 19.0237C20.8666 18.8614 20.9247 18.8994 20.9569 18.7854C20.8376 18.775 20.8957 18.7785 20.7764 18.7681C20.6765 18.9097 20.7409 18.9718 20.67 19.148C20.6055 19.1756 20.5185 19.3069 20.483 19.1653L20.4604 19.3587C20.3218 19.4762 20.267 19.4381 20.2412 19.2274C19.6739 19.8837 19.503 20.3915 19.4804 20.7369C19.4579 21.0823 19.5804 21.2654 19.5804 21.2654C19.7931 21.7662 20.0865 21.2653 20.4895 21.2135L20.4766 21.1998Z" fill="#20BB65"/>
<path d="M36.9018 21.3513L36.9211 21.434C36.9211 21.3961 36.9211 21.3651 36.9018 21.3513Z" fill="#20BB65"/>
<path d="M43.0624 21.7739C43.0624 21.7739 43.0662 21.7627 43.0699 21.7552C43.0662 21.7627 43.0624 21.7664 43.0624 21.7739Z" fill="#20BB65"/>
<path d="M37.6469 24.1315C37.6469 24.1315 37.6435 24.1418 37.64 24.1522L37.6504 24.1315H37.6469Z" fill="#20BB65"/>
<path d="M36.4085 23.8037C36.7309 23.9315 36.7889 24.3115 37.1435 24.1906C37.3047 24.2355 37.4852 24.163 37.6464 24.1319C37.7431 23.8486 37.856 24.1456 37.9624 23.9073L37.9849 24.0766C38.0204 23.9971 38.0623 23.9419 38.0881 24.0352L38.0816 24.0835C38.1364 23.9626 38.1848 24.042 38.2106 23.9798L38.2041 24.0282L38.2622 24.0109L38.2493 24.08C38.3395 23.9522 38.4233 23.9522 38.491 24.0179L38.4975 23.8175C38.6393 24.0524 38.7232 23.6448 38.8457 23.9211L38.8392 23.9695C39.052 23.4548 39.0971 24.3495 39.3131 23.8625C39.2873 23.9246 39.3131 23.9661 39.3131 24.0144C39.4002 23.9626 39.4936 23.9418 39.5194 23.5481C39.5807 23.5584 39.5613 23.6759 39.5581 23.8279C39.5678 23.6552 39.6258 23.5896 39.6742 23.5792L39.6484 23.6448L39.7902 23.5965L39.7838 23.2684C39.8515 23.3685 39.7773 23.6656 39.8515 23.593L39.8676 23.3236C39.9643 23.3858 39.9965 23.7968 40.0836 24.0006C40.4833 24.1456 40.9604 23.4859 41.3086 23.9867L41.315 24.1906C41.3054 24.4876 41.444 23.7588 41.444 24.0352L41.4956 23.9039C41.5052 23.9557 41.5278 24.0144 41.502 24.08C41.5407 24.0938 41.5472 24.0455 41.5794 23.9592L41.6116 24.1456C41.7631 24.2976 41.9211 23.9523 42.0855 24.0352C42.2693 24.422 42.669 24.1007 42.8979 23.9142C43.2267 23.4894 43.5298 24.688 43.8715 24.1975C43.8811 24.2389 43.9102 24.1457 43.9134 24.1146L44.2003 24.1733C44.2003 24.1733 45.5962 24.3564 44.6387 21.8522L44.6484 21.79C44.4969 21.6242 44.4002 21.5862 44.2777 21.904C44.2777 21.5068 44.1519 21.8556 44.1197 21.7244L44.1262 21.6933C44.0166 21.9938 43.9424 21.4274 43.836 21.6968C43.8425 21.6657 43.8489 21.5551 43.8682 21.5517C43.7973 21.6 43.7038 21.683 43.7071 21.4516C43.5426 21.5034 43.3267 21.3824 43.2042 21.7486L43.2138 21.6864C43.1429 21.9316 43.1365 21.7175 43.0655 21.8418C43.0655 21.8107 43.0591 21.7969 43.0623 21.7831C42.9849 22.0249 42.8753 21.8107 42.8173 21.9143V21.7589L42.6916 21.7866L42.7367 21.8211C42.698 22.2425 42.6529 21.5517 42.5465 21.8211C42.4627 21.7624 42.3241 22.6881 42.2467 22.4774C42.1919 22.6708 42.3015 22.1596 42.2306 22.3081C42.2403 22.0871 42.2693 22.1734 42.2596 21.9938C42.1919 22.0939 42.1693 21.7624 42.0823 21.9074L42.0888 21.7347C41.9695 22.0421 41.9114 21.4965 41.8276 21.7935C41.7148 21.9282 41.7857 21.2788 41.66 21.607L41.631 21.3721C41.5858 21.3307 41.5826 21.6553 41.5375 21.5379C41.5504 21.3928 41.4795 21.417 41.5181 21.2789C41.415 21.044 41.2635 21.5863 41.1345 21.1925C41.0862 21.4757 41.0185 21.2996 40.9798 21.5137C40.983 21.3894 40.825 21.4826 40.9282 21.2201C40.9379 21.1994 40.9508 21.2028 40.9475 21.2512L40.9669 21.082C40.8992 20.7573 40.7992 21.2478 40.7154 21.1925C40.738 21.2512 40.7734 21.2374 40.7444 21.3514L40.6671 21.3237L40.6929 21.1821L40.58 21.0923L40.5865 21.2685C40.5349 21.1752 40.5317 20.8747 40.4511 21.1199C40.4124 21.2581 40.493 21.3617 40.4253 21.4101C40.3544 21.2857 40.248 21.0957 40.1513 21.037C40.1513 21.2339 40.1223 21.227 40.09 21.265L40.0965 21.0923C39.9772 21.3237 40.0803 20.7124 39.9643 20.8954L39.9804 20.778L39.9288 21.1337C39.8128 21.4653 39.8998 20.7745 39.7644 21.2305C39.8096 21.2028 39.7612 21.6104 39.7129 21.531L39.7354 21.3652C39.7064 21.3997 39.6903 21.4654 39.6742 21.4308C39.6967 21.341 39.7 21.189 39.6548 21.2166L39.6967 21.0129L39.5968 21.3133C39.5484 21.1303 39.4356 21.3479 39.4259 21.1096C39.4259 21.1096 39.3034 20.9852 39.2551 21.2374C39.2905 21.0819 39.2228 21.0129 39.2551 20.8298C39.2099 21.006 39.1003 21.1475 39.0713 20.9507L39.081 20.93C38.9456 20.7228 38.8102 21.1787 38.6941 20.93C38.6877 21.1303 38.6232 21.0163 38.6232 21.2719C38.4685 21.5137 38.4105 20.7331 38.3041 21.5172C38.2396 21.5552 38.2428 21.3272 38.2138 21.2823L38.2331 21.2408C38.1106 21.2961 38.0752 21.2996 37.9914 21.2754C37.943 21.3479 37.9075 21.7141 37.8366 21.6173C37.8721 21.4757 37.8366 21.4999 37.8108 21.4964C37.8302 21.4757 37.8398 21.4239 37.8108 21.3203C37.8012 21.3652 37.7915 21.3928 37.7818 21.4135C37.7818 21.4032 37.7818 21.3928 37.7818 21.3789C37.7302 21.4273 37.7335 21.4722 37.756 21.493C37.756 21.5137 37.756 21.5448 37.756 21.5828C37.7206 21.3893 37.6142 21.5828 37.6271 21.3341C37.4756 21.379 37.3531 21.6277 37.2241 21.7141C37.2209 21.5828 37.2564 21.4723 37.2983 21.4274L37.208 21.4653C37.2241 21.2822 37.266 21.3652 37.295 21.3306C37.2144 21.0232 37.0597 21.6104 36.9598 21.3237L36.9243 21.4688L36.9178 21.4446C36.9114 21.5206 36.8759 21.6242 36.8566 21.6484C36.8534 21.486 36.8856 21.2789 36.8276 21.2823C36.7921 21.1234 36.6857 21.3479 36.618 21.4274C36.6503 21.4584 36.6309 21.5448 36.6116 21.6001C36.5826 21.6001 36.5761 21.4412 36.5471 21.5068L36.5632 21.2892C36.56 21.493 36.4665 21.5033 36.4504 21.5897C36.4472 21.4273 36.5084 21.455 36.5246 21.3341C36.4021 21.3444 36.4633 21.3376 36.344 21.3479C36.2667 21.5068 36.3376 21.5551 36.2924 21.7416C36.2312 21.7796 36.1635 21.9247 36.1119 21.7866V21.98C35.9991 22.1182 35.9346 22.0906 35.8798 21.8902C34.9514 23.3789 35.5284 24.0144 35.5284 24.0144C35.8089 24.4703 36.0184 23.9246 36.4053 23.8106L36.4085 23.8037Z" fill="#20BB65"/>
<path d="M52.7239 22.149L52.7463 22.228C52.7463 22.1902 52.7399 22.1593 52.7239 22.149Z" fill="#20BB65"/>
<path d="M58.9103 22.1954C58.9103 22.1954 58.9141 22.1842 58.9178 22.1768C58.9141 22.1842 58.9103 22.1879 58.9103 22.1954Z" fill="#20BB65"/>
<path d="M53.6304 24.8704C53.6304 24.8704 53.6269 24.8842 53.6234 24.8912L53.6304 24.8704Z" fill="#20BB65"/>
<path d="M52.3789 24.6362C52.7045 24.7363 52.7851 25.1128 53.13 24.9643C53.2912 24.9954 53.4685 24.9125 53.6265 24.8676C53.7071 24.5774 53.836 24.8676 53.9295 24.6223L53.9617 24.7881C53.994 24.7052 54.0295 24.65 54.0617 24.7398V24.7881C54.1068 24.6638 54.1584 24.7398 54.181 24.6776V24.726L54.2358 24.7052L54.2261 24.7743C54.3099 24.643 54.3905 24.6361 54.4614 24.6949V24.4945C54.6097 24.719 54.6742 24.3045 54.8096 24.5739V24.6223C54.9901 24.0973 55.0836 24.985 55.2738 24.4876C55.2512 24.5498 55.2835 24.5913 55.2803 24.6396C55.3641 24.5844 55.4543 24.5532 55.4608 24.1595C55.522 24.1664 55.5091 24.2838 55.5156 24.4358C55.5156 24.2631 55.5704 24.1906 55.6187 24.1837L55.5962 24.2493L55.7348 24.1906L55.7122 23.8659C55.7832 23.9592 55.7251 24.2631 55.796 24.1837V23.9143C55.8992 23.9695 55.954 24.3771 56.0475 24.5774C56.4505 24.6983 56.8953 24.0144 57.2661 24.4945L57.2822 24.6983C57.2854 24.9954 57.3886 24.2597 57.4015 24.536L57.4466 24.4012C57.4595 24.453 57.4853 24.5118 57.4627 24.5774C57.5047 24.5878 57.5046 24.5395 57.5337 24.4531L57.5756 24.6362C57.7335 24.7812 57.8722 24.4289 58.0398 24.5014C58.2397 24.8814 58.6233 24.5394 58.8425 24.3391C59.152 23.9004 59.5066 25.0851 59.8257 24.5809C59.8354 24.6223 59.8612 24.529 59.8612 24.4945L60.1513 24.5395C60.1513 24.5395 61.5504 24.6707 60.4931 22.2011L60.4995 22.1355C60.3415 21.9766 60.2448 21.942 60.1352 22.2632C60.1191 21.866 60.0063 22.2218 59.9708 22.0905V22.0595C59.8773 22.3634 59.7774 21.8038 59.6839 22.0767C59.6871 22.0456 59.6903 21.9351 59.7097 21.9282C59.642 21.9766 59.5485 22.0663 59.5453 21.8349C59.3841 21.8936 59.1617 21.7832 59.0553 22.1528L59.0617 22.0871C59.0005 22.3358 58.9843 22.1216 58.9199 22.2494C58.9166 22.2183 58.9134 22.2045 58.9134 22.1907C58.849 22.4359 58.7265 22.2252 58.6749 22.3323V22.1769L58.5459 22.2114L58.5943 22.2459C58.5749 22.6673 58.5008 21.98 58.4041 22.2529C58.317 22.1976 58.2235 23.1302 58.1333 22.923C58.0881 23.1199 58.172 22.6018 58.1075 22.7538C58.1075 22.5327 58.1397 22.6155 58.1236 22.4394C58.0591 22.543 58.0204 22.2114 57.9431 22.3599V22.1872C57.8367 22.5016 57.7529 21.9593 57.682 22.2563C57.5756 22.3979 57.6175 21.7451 57.5047 22.0802L57.466 21.8488C57.4208 21.8108 57.4305 22.132 57.3789 22.0215C57.3821 21.8764 57.3144 21.904 57.3467 21.7659C57.2306 21.5344 57.1081 22.0871 56.9566 21.7003C56.9211 21.9835 56.8438 21.8142 56.818 22.0284C56.818 21.904 56.6632 22.0076 56.7535 21.7382C56.76 21.7175 56.7729 21.721 56.7729 21.7693L56.7857 21.6001C56.7019 21.2789 56.6246 21.7727 56.5375 21.7244C56.5633 21.7796 56.5956 21.7659 56.573 21.8833L56.4924 21.8591L56.5117 21.7175L56.3925 21.6347L56.4086 21.8107C56.3505 21.7209 56.3344 21.4205 56.2635 21.6691C56.2313 21.8073 56.3151 21.9075 56.2538 21.9628C56.1765 21.8419 56.0604 21.6588 55.9605 21.607C55.9669 21.8039 55.9411 21.7969 55.9121 21.8384V21.6657C55.8025 21.904 55.8767 21.2857 55.7703 21.4757L55.7799 21.3549L55.7477 21.7141C55.6478 22.0526 55.6994 21.3583 55.5897 21.8211C55.6317 21.7935 55.6058 22.2011 55.5543 22.1251L55.5704 21.9593C55.5414 21.9939 55.5317 22.0629 55.5124 22.0284C55.5317 21.9386 55.5253 21.7866 55.4834 21.8142L55.5156 21.607L55.4318 21.9109C55.3738 21.7313 55.2738 21.9559 55.2512 21.721C55.2512 21.721 55.1223 21.6035 55.0868 21.8591C55.1159 21.7002 55.0449 21.6381 55.0675 21.4516C55.032 21.6312 54.9289 21.7762 54.8902 21.5863L54.8966 21.5655C54.7516 21.3686 54.6387 21.8315 54.5065 21.5897C54.5065 21.79 54.4421 21.6795 54.455 21.9351C54.3131 22.1873 54.21 21.4136 54.1487 22.2011C54.0842 22.2425 54.0778 22.0146 54.0456 21.9731L54.0617 21.9317C53.9424 21.9938 53.907 22.0007 53.8199 21.9834C53.7748 22.0594 53.7619 22.4255 53.6845 22.3357C53.7135 22.1907 53.6813 22.2184 53.649 22.2184C53.6684 22.1942 53.6748 22.1424 53.6394 22.0457C53.6329 22.0906 53.6233 22.1182 53.6168 22.1424C53.6168 22.132 53.6168 22.1216 53.6168 22.1078C53.5685 22.1596 53.5749 22.2046 53.5975 22.2253C53.5975 22.246 53.5975 22.2771 53.6039 22.3151C53.5555 22.1251 53.4621 22.3254 53.4588 22.0767C53.3105 22.132 53.2009 22.3911 53.0752 22.4843C53.0623 22.3565 53.0946 22.2425 53.13 22.1907L53.043 22.2356C53.0462 22.0491 53.0946 22.1285 53.1236 22.094C53.0269 21.7935 52.9044 22.391 52.7883 22.1147L52.7593 22.2598L52.7528 22.2356C52.7528 22.3116 52.7238 22.4187 52.7045 22.4428C52.6916 22.2805 52.7141 22.0698 52.6529 22.0802C52.6078 21.9247 52.5175 22.1561 52.453 22.2425C52.4853 22.2701 52.4724 22.3599 52.4595 22.4152C52.4305 22.4186 52.4143 22.2597 52.3918 22.3288V22.1113C52.4014 22.3151 52.3112 22.3323 52.2983 22.4221C52.2854 22.2598 52.3466 22.2839 52.3563 22.163C52.2338 22.1803 52.2951 22.1734 52.1758 22.1907C52.1081 22.353 52.1822 22.3979 52.15 22.5879C52.092 22.6293 52.0339 22.7814 51.9727 22.6501L51.9888 22.8436C51.8792 22.9921 51.8147 22.9678 51.747 22.771C50.9185 24.3356 51.5343 24.9193 51.5343 24.9193C51.8405 25.3511 52.0146 24.7882 52.3918 24.6431L52.3789 24.6362Z" fill="#20BB65"/>
<path d="M68.5977 22.1973L68.6233 22.2762C68.6233 22.2384 68.6169 22.2076 68.5977 22.1973Z" fill="#20BB65"/>
<path d="M74.7968 22.077C74.7968 22.077 74.8004 22.0663 74.804 22.0591C74.8004 22.0663 74.7968 22.0734 74.7968 22.077Z" fill="#20BB65"/>
<path d="M69.5781 24.8911C69.5781 24.8911 69.5747 24.905 69.5712 24.9119L69.5781 24.8911Z" fill="#20BB65"/>
<path d="M68.3236 24.6914C68.6524 24.7846 68.7427 25.1577 69.0844 24.9988C69.2456 25.0264 69.4196 24.9366 69.5776 24.8917C69.6485 24.5981 69.7872 24.8848 69.8742 24.6396L69.9097 24.8054C69.9387 24.7225 69.9741 24.6637 70.0064 24.7535V24.8019C70.0483 24.6741 70.1031 24.7501 70.1256 24.6879V24.7363L70.1805 24.7156L70.1708 24.7846C70.2481 24.6499 70.332 24.6396 70.4061 24.7017L70.3964 24.5014C70.5544 24.7224 70.606 24.308 70.751 24.5705V24.6188C70.9219 24.0869 71.0347 24.9746 71.212 24.4703C71.1895 24.5325 71.2217 24.5739 71.2217 24.6223C71.3055 24.5636 71.3958 24.5325 71.3926 24.1388C71.4538 24.1422 71.4442 24.2596 71.4538 24.4116C71.4538 24.2389 71.5054 24.1663 71.5506 24.156L71.528 24.2217L71.6634 24.1594L71.6311 23.8348C71.7053 23.928 71.6537 24.2319 71.7246 24.1525V23.8831C71.8213 23.9349 71.8858 24.3425 71.9857 24.5394C72.3919 24.6499 72.8175 23.9522 73.2011 24.4219L73.2205 24.6257C73.2301 24.9228 73.3172 24.1871 73.3365 24.46L73.3784 24.3252C73.3913 24.377 73.4171 24.4357 73.3978 24.5014C73.4397 24.5117 73.4396 24.4634 73.4654 24.3736L73.5106 24.5567C73.6718 24.6983 73.8039 24.339 73.9716 24.4081C74.1779 24.7811 74.5551 24.4289 74.7711 24.2251C75.0709 23.7795 75.4481 24.9504 75.7575 24.4392C75.7672 24.4807 75.793 24.3874 75.793 24.3529L76.0831 24.3909C76.0831 24.3909 77.4855 24.4841 76.3829 22.0456L76.3894 21.98C76.2282 21.8246 76.1283 21.7935 76.0251 22.1181C76.0025 21.7209 75.8962 22.0801 75.8575 21.9523V21.9212C75.7704 22.2286 75.6576 21.6691 75.5706 21.9454C75.5706 21.9143 75.5738 21.8038 75.5964 21.7969C75.5287 21.8487 75.4384 21.9385 75.4287 21.7071C75.2675 21.7693 75.0419 21.6657 74.9451 22.0387L74.9516 21.9731C74.8968 22.2252 74.8775 22.0111 74.813 22.1389C74.8098 22.1078 74.8033 22.0939 74.8033 22.0801C74.7421 22.3288 74.6163 22.1216 74.5647 22.2287L74.5583 22.0732L74.4326 22.1112L74.4809 22.1423C74.4713 22.5672 74.381 21.8798 74.2907 22.1527C74.2037 22.1009 74.1263 23.0335 74.0328 22.8297C73.9941 23.0266 74.0651 22.5085 74.0038 22.6604C73.9974 22.4394 74.0328 22.5222 74.0135 22.3461C73.9522 22.4531 73.9071 22.1216 73.8297 22.2735L73.8233 22.1008C73.7266 22.4152 73.6299 21.8763 73.5654 22.1768C73.4622 22.3219 73.488 21.6691 73.3848 22.0041L73.3397 21.7727C73.2914 21.7347 73.3107 22.0594 73.2559 21.9454C73.2559 21.8004 73.1882 21.828 73.2172 21.6898C73.0979 21.4619 72.9851 22.018 72.8239 21.6346C72.7949 21.9213 72.7143 21.752 72.6918 21.9662C72.6853 21.8418 72.537 21.9489 72.6208 21.6795C72.6273 21.6587 72.6402 21.6622 72.6402 21.7106L72.6498 21.5413C72.5564 21.2236 72.4919 21.7209 72.4048 21.6725C72.4306 21.7278 72.4661 21.714 72.4435 21.828L72.3629 21.8073L72.379 21.6656L72.2565 21.5827L72.2759 21.7589C72.2146 21.6691 72.1921 21.3686 72.1276 21.6208C72.0986 21.7589 72.1856 21.8556 72.1276 21.9143C72.047 21.7969 71.9277 21.6173 71.8246 21.5655C71.8375 21.7623 71.8084 21.7555 71.7827 21.7969L71.7762 21.6242C71.673 21.866 71.7311 21.2477 71.6279 21.4377L71.6344 21.3168L71.6118 21.676C71.5215 22.018 71.557 21.3203 71.4571 21.7866C71.499 21.7555 71.4829 22.1665 71.428 22.0905L71.4377 21.9247C71.4087 21.9592 71.4023 22.0283 71.3829 21.9972C71.399 21.9074 71.3894 21.7555 71.3475 21.7831L71.3732 21.5758L71.2991 21.8833C71.2346 21.7071 71.1411 21.9316 71.1121 21.6967C71.1121 21.6967 70.9799 21.5827 70.9509 21.8418C70.9767 21.6829 70.9026 21.6242 70.9219 21.4342C70.8897 21.6138 70.7897 21.7623 70.7478 21.5724L70.7543 21.5516C70.6028 21.3582 70.5028 21.8245 70.3642 21.5862C70.3739 21.7865 70.2997 21.6795 70.3223 21.9316C70.1869 22.1872 70.0644 21.417 70.0225 22.2045C69.9612 22.2494 69.9451 22.0214 69.9129 21.98L69.929 21.9385C69.8129 22.0041 69.7775 22.0145 69.6904 21.9972C69.6485 22.0732 69.6453 22.4428 69.5647 22.353C69.5873 22.2079 69.5583 22.2356 69.526 22.2356C69.5454 22.2114 69.5486 22.1596 69.5099 22.0629C69.5035 22.1078 69.497 22.1354 69.4906 22.1595C69.4906 22.1492 69.4906 22.1389 69.4906 22.125C69.4422 22.1769 69.4519 22.2217 69.4745 22.2424C69.4745 22.2631 69.4744 22.2942 69.4841 22.3322C69.4325 22.1457 69.3423 22.3461 69.3326 22.0974C69.1843 22.1561 69.0844 22.4186 68.9619 22.5153C68.9458 22.3875 68.9748 22.2736 69.0102 22.2218L68.9232 22.2701C68.9232 22.0836 68.9715 22.163 68.9973 22.125C68.8909 21.828 68.7878 22.4256 68.6621 22.1527L68.6395 22.2977L68.633 22.2735C68.633 22.3495 68.6073 22.4566 68.5911 22.4808C68.5718 22.3185 68.5911 22.1078 68.5299 22.1181C68.4815 21.9627 68.3945 22.1976 68.3332 22.2874C68.3655 22.315 68.3558 22.4048 68.3429 22.4601C68.3139 22.467 68.2946 22.3046 68.272 22.3737L68.2656 22.1561C68.2784 22.3599 68.1882 22.3772 68.1785 22.467C68.1592 22.3046 68.2236 22.3288 68.2301 22.2045C68.1108 22.2252 68.1688 22.2149 68.0495 22.2391C67.9851 22.4048 68.0624 22.4463 68.0334 22.6362C67.9754 22.6811 67.9238 22.8331 67.8561 22.7018L67.8787 22.8953C67.7723 23.0473 67.7078 23.0266 67.6337 22.8297C66.8503 24.4151 67.4854 24.9815 67.4854 24.9815C67.8045 25.4029 67.9593 24.8399 68.3332 24.6844L68.3236 24.6914Z" fill="#20BB65"/>
<path d="M84.5037 21.9176L84.5293 21.9965C84.5293 21.9588 84.5229 21.9279 84.5037 21.9176Z" fill="#20BB65"/>
<path d="M90.7123 21.7636C90.7123 21.7636 90.7161 21.7524 90.7198 21.745C90.7161 21.7524 90.7123 21.7599 90.7123 21.7636Z" fill="#20BB65"/>
<path d="M85.5066 24.6046C85.5066 24.6046 85.5032 24.6185 85.4997 24.6254L85.5066 24.6046Z" fill="#20BB65"/>
<path d="M84.249 24.4116C84.5778 24.5014 84.6713 24.8745 85.0098 24.7156C85.1742 24.7433 85.3451 24.6534 85.503 24.6051C85.574 24.3115 85.7126 24.5982 85.7964 24.3495L85.8351 24.5153C85.8641 24.4324 85.8996 24.3737 85.9318 24.4635V24.5118C85.9737 24.384 86.0285 24.4601 86.0478 24.3944V24.4428L86.1026 24.4186L86.093 24.4876C86.1704 24.3529 86.2542 24.3425 86.3251 24.4013L86.3154 24.201C86.4734 24.422 86.525 24.0041 86.67 24.2666V24.3149C86.8377 23.783 86.9569 24.6707 87.1278 24.163C87.1052 24.2251 87.1407 24.2666 87.1375 24.3149C87.2213 24.2562 87.3083 24.2251 87.3051 23.8314C87.3664 23.8348 87.3567 23.9523 87.3664 24.1043C87.3631 23.9316 87.4147 23.859 87.4631 23.8487L87.4437 23.9143L87.5791 23.8521L87.5469 23.5275C87.621 23.6207 87.5727 23.9247 87.6404 23.8452L87.6339 23.5758C87.7339 23.6276 87.8016 24.0351 87.9015 24.232C88.3077 24.3391 88.73 23.6414 89.1169 24.1112L89.1362 24.3149C89.1491 24.612 89.2329 23.8728 89.2523 24.1491L89.2942 24.0145C89.3071 24.0663 89.3329 24.125 89.3135 24.1906C89.3554 24.201 89.3554 24.1526 89.3812 24.0628L89.4296 24.2459C89.5907 24.384 89.7229 24.0283 89.8906 24.0974C90.1001 24.4704 90.4741 24.1146 90.6901 23.9108C90.9899 23.4618 91.3703 24.6327 91.6765 24.1216C91.6862 24.163 91.712 24.0697 91.712 24.0352L92.0021 24.0697C92.0021 24.0697 93.4044 24.1561 92.2955 21.721L92.3019 21.6553C92.1407 21.4999 92.0408 21.4689 91.9376 21.797C91.9119 21.3998 91.8087 21.759 91.7668 21.6312V21.6001C91.6797 21.9075 91.5669 21.348 91.4799 21.6243C91.4799 21.5932 91.4799 21.4826 91.5057 21.4757C91.438 21.5275 91.3477 21.6173 91.338 21.3859C91.1768 21.4515 90.9512 21.348 90.8544 21.7176L90.8609 21.6519C90.8061 21.904 90.7868 21.6899 90.7223 21.8177C90.7191 21.7866 90.7126 21.7728 90.7126 21.759C90.6514 22.0077 90.5256 21.8004 90.474 21.9075L90.4676 21.7555L90.3387 21.7936L90.387 21.8246C90.3774 22.2494 90.2871 21.5621 90.1968 21.8384C90.1098 21.7866 90.0356 22.7226 89.9421 22.5154C89.9035 22.7157 89.9744 22.1942 89.9131 22.3461C89.9067 22.1251 89.9421 22.208 89.9196 22.0319C89.8583 22.1389 89.8132 21.8074 89.7358 21.9593L89.7294 21.7866C89.6327 22.101 89.5327 21.5656 89.4715 21.8661C89.3683 22.0111 89.3909 21.3583 89.2877 21.6968L89.2426 21.4654C89.1942 21.4274 89.2136 21.752 89.162 21.6381C89.162 21.493 89.0943 21.5241 89.1233 21.3825C89.0008 21.1545 88.8912 21.7141 88.73 21.3272C88.701 21.6139 88.6204 21.4446 88.6011 21.6588C88.5946 21.5345 88.4463 21.6416 88.5269 21.3722C88.5334 21.3514 88.5463 21.3548 88.5463 21.4032L88.5527 21.234C88.4592 20.9162 88.3947 21.4136 88.3077 21.3653C88.3335 21.4205 88.3689 21.4067 88.3464 21.5207L88.2658 21.4999L88.2787 21.3583L88.1562 21.2789L88.1755 21.4551C88.1143 21.3653 88.0885 21.0682 88.0272 21.3169C87.9982 21.455 88.0885 21.5518 88.0272 21.6105C87.9466 21.493 87.8241 21.3134 87.7242 21.2616C87.7371 21.4585 87.7113 21.4516 87.6823 21.493L87.6758 21.3203C87.5727 21.5621 87.6307 20.9438 87.5276 21.1338L87.534 21.0129L87.5114 21.3722C87.4212 21.7141 87.4534 21.0163 87.3567 21.4826C87.3986 21.4516 87.3825 21.8626 87.3309 21.7866L87.3406 21.6208C87.3116 21.6554 87.3051 21.7279 87.2858 21.6934C87.3019 21.6036 87.289 21.4515 87.2503 21.4792L87.2761 21.272L87.202 21.5794C87.1375 21.4032 87.044 21.6277 87.015 21.3928C87.015 21.3928 86.8796 21.2824 86.8538 21.538C86.8764 21.3791 86.8022 21.3203 86.8216 21.1303C86.7893 21.3099 86.6926 21.462 86.6475 21.2685L86.6539 21.2478C86.4992 21.0544 86.4025 21.5207 86.2638 21.2858C86.2735 21.4862 86.1994 21.3791 86.2219 21.6312C86.0865 21.8868 85.9608 21.1165 85.9221 21.9075C85.8609 21.9524 85.8448 21.7244 85.8093 21.683L85.8222 21.6415C85.7061 21.7071 85.6707 21.7176 85.5836 21.7003C85.5417 21.7797 85.5417 22.1459 85.4611 22.0561C85.4837 21.911 85.4515 21.9386 85.4224 21.9386C85.4418 21.9144 85.445 21.8626 85.4063 21.7659C85.4031 21.8108 85.3934 21.8384 85.387 21.8626C85.387 21.8523 85.387 21.8419 85.387 21.828C85.3386 21.8799 85.3483 21.9248 85.3709 21.9455C85.3709 21.9662 85.3709 21.9973 85.3805 22.0353C85.3257 21.8488 85.2387 22.0492 85.229 21.8005C85.0807 21.8626 84.9808 22.1217 84.8615 22.2218C84.8454 22.094 84.8712 21.98 84.9066 21.9282L84.8196 21.9766C84.8196 21.7901 84.868 21.8695 84.8937 21.8315C84.7841 21.5345 84.6842 22.1355 84.5585 21.8626L84.5359 22.0111L84.5295 21.9869C84.5295 22.0629 84.5069 22.17 84.4875 22.1942C84.4682 22.0318 84.4811 21.8211 84.4231 21.835C84.3715 21.6795 84.2877 21.9144 84.2297 22.0042C84.2651 22.0318 84.2555 22.1216 84.2426 22.1769C84.2135 22.1838 84.191 22.0215 84.1716 22.0905L84.1652 21.873C84.1813 22.0768 84.091 22.0975 84.0814 22.1838C84.062 22.0215 84.1265 22.0456 84.1297 21.9213C84.0104 21.9455 84.0685 21.9317 83.9492 21.9559C83.8879 22.1217 83.9653 22.1596 83.9363 22.3531C83.8815 22.398 83.8267 22.5499 83.759 22.4187L83.7815 22.6121C83.6784 22.7641 83.6139 22.7434 83.5366 22.55C82.7661 24.1388 83.4076 24.7018 83.4076 24.7018C83.73 25.1232 83.8815 24.5568 84.2522 24.3979L84.249 24.4116Z" fill="#20BB65"/>
<path d="M100.432 21.6448L100.458 21.7237C100.458 21.686 100.451 21.6551 100.432 21.6448Z" fill="#20BB65"/>
<path d="M106.651 21.5873C106.651 21.5873 106.654 21.5762 106.658 21.5687C106.654 21.5762 106.651 21.5836 106.651 21.5873Z" fill="#20BB65"/>
<path d="M101.406 24.3489C101.406 24.3489 101.403 24.3628 101.399 24.3697L101.406 24.3489Z" fill="#20BB65"/>
<path d="M100.155 24.1353C100.484 24.232 100.574 24.605 100.912 24.453C101.073 24.4841 101.248 24.3943 101.406 24.3494C101.48 24.0558 101.612 24.346 101.702 24.0973L101.738 24.2631C101.767 24.1802 101.802 24.1215 101.834 24.2113V24.2596C101.876 24.1352 101.931 24.2078 101.954 24.1456V24.194L102.008 24.1732L101.999 24.2423C102.076 24.1076 102.16 24.1007 102.234 24.1594L102.228 23.9591C102.382 24.1836 102.437 23.7657 102.579 24.0317V24.08C102.75 23.5515 102.859 24.4392 103.04 23.9349C103.017 23.9971 103.05 24.0385 103.05 24.0869C103.133 24.0282 103.224 24.0006 103.224 23.6034C103.285 23.6068 103.275 23.7277 103.282 23.8797C103.282 23.707 103.333 23.6344 103.382 23.624L103.359 23.6897L103.495 23.6309L103.466 23.3063C103.54 23.3995 103.485 23.7035 103.556 23.624V23.3547C103.656 23.4065 103.714 23.8175 103.814 24.0144C104.217 24.1284 104.649 23.4375 105.026 23.9107L105.042 24.1146C105.048 24.4116 105.145 23.6759 105.158 23.9488L105.203 23.814C105.216 23.8658 105.242 23.9245 105.219 23.9902C105.261 24.0005 105.261 23.9522 105.29 23.8624L105.335 24.0455C105.496 24.1871 105.629 23.8313 105.8 23.9038C106.003 24.2769 106.38 23.9314 106.599 23.7277C106.908 23.2821 107.263 24.46 107.579 23.9522C107.589 23.9937 107.614 23.9004 107.614 23.8659L107.901 23.9073C107.901 23.9073 109.297 24.0143 108.243 21.5654L108.25 21.4998C108.092 21.3444 107.992 21.3099 107.882 21.6346C107.866 21.2374 107.753 21.5931 107.714 21.4653V21.4342C107.621 21.7416 107.521 21.1821 107.428 21.455C107.431 21.4239 107.434 21.3133 107.453 21.3064C107.386 21.3582 107.292 21.4445 107.289 21.2131C107.128 21.2753 106.902 21.1683 106.796 21.5379L106.802 21.4722C106.744 21.7209 106.725 21.5102 106.66 21.638C106.657 21.6069 106.651 21.5931 106.654 21.5793C106.589 21.8245 106.467 21.6172 106.415 21.7243V21.5689L106.283 21.6069L106.331 21.638C106.315 22.0628 106.235 21.372 106.141 21.6483C106.054 21.5965 105.964 22.5292 105.874 22.3219C105.832 22.5188 105.912 22.0007 105.848 22.1527C105.848 21.9316 105.877 22.0145 105.861 21.8383C105.796 21.9419 105.758 21.6138 105.68 21.7623V21.5896C105.577 21.904 105.484 21.3651 105.416 21.6656C105.313 21.8072 105.345 21.1544 105.235 21.4929L105.193 21.2615C105.145 21.2235 105.161 21.5482 105.11 21.4342C105.11 21.2892 105.045 21.3168 105.074 21.1786C104.955 20.9507 104.836 21.5033 104.681 21.1199C104.649 21.4031 104.571 21.2374 104.545 21.4515C104.542 21.3272 104.391 21.4308 104.475 21.1614C104.481 21.1406 104.494 21.1441 104.494 21.1925L104.504 21.0232C104.413 20.7055 104.342 21.1993 104.255 21.151C104.281 21.2062 104.317 21.1924 104.294 21.3064L104.213 21.2857L104.23 21.1441L104.107 21.0612L104.123 21.2373C104.065 21.1475 104.043 20.8471 103.975 21.0992C103.946 21.2374 104.033 21.3375 103.968 21.3927C103.888 21.2719 103.769 21.0922 103.669 21.0404C103.678 21.2373 103.653 21.2305 103.623 21.2719V21.0992C103.514 21.3375 103.578 20.7227 103.472 20.9127L103.482 20.7917L103.456 21.151C103.362 21.4929 103.401 20.7952 103.298 21.2615C103.34 21.2304 103.32 21.6414 103.269 21.5654L103.282 21.3997C103.253 21.4342 103.243 21.5033 103.224 21.4687C103.24 21.3789 103.23 21.227 103.188 21.2546L103.214 21.0473L103.137 21.3548C103.075 21.1786 102.979 21.3997 102.953 21.1683C102.953 21.1683 102.821 21.0543 102.792 21.3099C102.818 21.151 102.743 21.0888 102.763 20.9023C102.73 21.0819 102.627 21.2304 102.589 21.0404L102.595 21.0198C102.444 20.8229 102.34 21.2891 102.205 21.0508C102.211 21.2511 102.141 21.1406 102.16 21.3962C102.021 21.6483 101.902 20.8781 101.857 21.6691C101.792 21.7105 101.78 21.4861 101.747 21.4446L101.763 21.4031C101.644 21.4687 101.612 21.4757 101.522 21.4584C101.48 21.5344 101.473 21.9005 101.396 21.8141C101.422 21.6691 101.389 21.6967 101.36 21.6967C101.38 21.6726 101.383 21.6208 101.344 21.524C101.338 21.5689 101.331 21.5966 101.322 21.6208C101.322 21.6104 101.322 21.6 101.322 21.5862C101.273 21.638 101.283 21.6829 101.306 21.7037C101.306 21.7244 101.306 21.7555 101.315 21.7935C101.264 21.6069 101.173 21.8072 101.164 21.5551C101.015 21.6138 100.912 21.8729 100.79 21.9696C100.774 21.8418 100.803 21.7278 100.838 21.676L100.751 21.7243C100.751 21.5378 100.799 21.6173 100.828 21.5793C100.722 21.2788 100.616 21.8798 100.493 21.6035L100.471 21.7485L100.464 21.7243C100.464 21.8003 100.438 21.9074 100.422 21.9316C100.403 21.7693 100.422 21.5585 100.361 21.5689C100.313 21.4135 100.226 21.6483 100.164 21.7347C100.2 21.7623 100.187 21.8521 100.174 21.9074C100.145 21.9143 100.126 21.752 100.103 21.821L100.097 21.6035C100.11 21.8073 100.019 21.8245 100.01 21.9143C99.9903 21.752 100.055 21.7761 100.061 21.6553C99.9387 21.676 100 21.6656 99.8807 21.6864C99.8162 21.8522 99.8936 21.8936 99.8646 22.0835C99.8066 22.125 99.755 22.277 99.6873 22.1492L99.7099 22.3426C99.6035 22.4946 99.539 22.4704 99.4648 22.277C98.6847 23.8555 99.3198 24.4288 99.3198 24.4288C99.6357 24.8537 99.7937 24.2907 100.164 24.1388L100.155 24.1353Z" fill="#20BB65"/>
<path d="M116.383 21.7382L116.405 21.8171C116.405 21.7793 116.399 21.7485 116.383 21.7382Z" fill="#20BB65"/>
<path d="M122.611 21.957C122.611 21.957 122.615 21.9458 122.619 21.9384C122.615 21.9458 122.611 21.9495 122.611 21.957Z" fill="#20BB65"/>
<path d="M117.267 24.4836C117.267 24.4836 117.263 24.4974 117.26 24.5044L117.27 24.4836H117.267Z" fill="#20BB65"/>
<path d="M116.028 24.2147C116.354 24.3253 116.431 24.7018 116.773 24.5636C116.934 24.6016 117.108 24.5222 117.266 24.4807C117.35 24.1906 117.473 24.4841 117.569 24.2423L117.598 24.4081C117.631 24.3252 117.669 24.27 117.698 24.3598V24.4081C117.744 24.2838 117.795 24.3598 117.818 24.3011V24.3494L117.869 24.3287L117.856 24.3978C117.94 24.2666 118.021 24.263 118.092 24.3252V24.1249C118.24 24.3563 118.308 23.9419 118.44 24.2147V24.2631C118.63 23.7415 118.704 24.6327 118.901 24.1388C118.875 24.2009 118.907 24.2424 118.901 24.2907C118.988 24.2355 119.078 24.2112 119.091 23.8175C119.152 23.8244 119.136 23.9418 119.139 24.0938C119.146 23.9211 119.201 23.852 119.249 23.8417L119.226 23.9073L119.365 23.8555L119.349 23.5274C119.417 23.6241 119.352 23.9246 119.426 23.8486L119.436 23.5792C119.536 23.6379 119.578 24.0454 119.668 24.2492C120.065 24.3805 120.526 23.7104 120.88 24.1974L120.89 24.4012C120.887 24.6982 121.012 23.966 121.016 24.2423L121.064 24.1076C121.074 24.1595 121.096 24.2182 121.074 24.2838C121.112 24.2976 121.116 24.2492 121.148 24.1594L121.183 24.3459C121.335 24.4945 121.486 24.1457 121.651 24.2251C121.834 24.6085 122.228 24.2769 122.457 24.0869C122.785 23.6586 123.085 24.8502 123.421 24.3563C123.43 24.3978 123.459 24.3045 123.462 24.27L123.746 24.3217C123.746 24.3217 125.136 24.491 124.201 21.9972L124.21 21.9351C124.059 21.7727 123.962 21.7347 123.836 22.0525C123.836 21.6553 123.707 22.0076 123.678 21.8764L123.685 21.8452C123.572 22.1457 123.498 21.5827 123.392 21.8522C123.398 21.8211 123.404 21.7106 123.427 21.7071C123.356 21.7555 123.259 21.8384 123.266 21.6069C123.101 21.6622 122.879 21.5447 122.76 21.9109L122.769 21.8487C122.698 22.0939 122.692 21.8832 122.618 22.0076C122.618 21.9765 122.611 21.9627 122.611 21.9489C122.537 22.1941 122.421 21.9799 122.363 22.0836V21.9281L122.237 21.9593L122.283 21.9937C122.247 22.4151 122.199 21.7243 122.092 21.9937C122.009 21.9385 121.876 22.8642 121.796 22.6535C121.744 22.8504 121.847 22.3323 121.776 22.4843C121.783 22.2632 121.812 22.3461 121.802 22.1699C121.735 22.2735 121.709 21.9419 121.625 22.087V21.9143C121.515 22.2252 121.448 21.6795 121.367 21.9765C121.257 22.1147 121.319 21.4653 121.193 21.7969L121.161 21.562C121.116 21.524 121.116 21.8452 121.067 21.7312C121.077 21.5862 121.006 21.6103 121.041 21.4756C120.932 21.2408 120.79 21.79 120.651 21.3997C120.606 21.6829 120.535 21.5102 120.503 21.7243C120.503 21.6 120.348 21.6967 120.445 21.4308C120.455 21.4101 120.468 21.4135 120.464 21.4619L120.48 21.2926C120.403 20.9713 120.313 21.4618 120.229 21.41C120.252 21.4688 120.287 21.4549 120.261 21.5689L120.181 21.5413L120.203 21.3997L120.084 21.3133L120.094 21.4895C120.039 21.3962 120.029 21.0957 119.952 21.3444C119.916 21.4826 120 21.5828 119.936 21.6346C119.862 21.5103 119.749 21.3272 119.649 21.2685C119.649 21.4653 119.623 21.4584 119.594 21.4964V21.3237C119.481 21.5586 119.571 20.9437 119.459 21.1302L119.471 21.0094L119.43 21.3686C119.323 21.7071 119.391 21.0093 119.268 21.4722C119.31 21.4446 119.275 21.8522 119.226 21.7762L119.246 21.6104C119.217 21.6449 119.204 21.714 119.185 21.6795C119.204 21.5897 119.201 21.4376 119.159 21.4653L119.194 21.2581L119.104 21.562C119.049 21.3824 118.943 21.6 118.927 21.3652C118.927 21.3652 118.798 21.2442 118.759 21.4998C118.791 21.341 118.72 21.2788 118.746 21.0923C118.707 21.2719 118.601 21.4135 118.566 21.22L118.575 21.1994C118.43 20.9991 118.311 21.4584 118.182 21.2131C118.182 21.4135 118.114 21.3029 118.124 21.5585C117.976 21.8038 117.885 21.0301 117.811 21.8176C117.747 21.859 117.74 21.6311 117.708 21.5897L117.724 21.5482C117.605 21.607 117.569 21.6138 117.482 21.5931C117.437 21.6691 117.418 22.0352 117.344 21.942C117.373 21.7969 117.341 21.8245 117.312 21.821C117.331 21.8003 117.337 21.7451 117.302 21.6449C117.295 21.6898 117.286 21.7174 117.276 21.7381C117.276 21.7278 117.276 21.7175 117.276 21.7037C117.224 21.752 117.234 21.8003 117.257 21.821C117.257 21.8418 117.257 21.8729 117.263 21.9109C117.218 21.7209 117.121 21.9178 117.121 21.6691C116.973 21.7209 116.86 21.9765 116.734 22.0663C116.725 21.9385 116.757 21.8245 116.793 21.7762L116.705 21.821C116.712 21.6345 116.757 21.7175 116.786 21.6795C116.689 21.3755 116.564 21.9696 116.448 21.6898L116.419 21.8349L116.412 21.8107C116.412 21.8867 116.38 21.9938 116.361 22.0179C116.348 21.8556 116.37 21.6449 116.309 21.6553C116.264 21.4964 116.17 21.7278 116.106 21.8107C116.138 21.8383 116.125 21.9281 116.109 21.9834C116.08 21.9868 116.064 21.8246 116.041 21.8936V21.676C116.051 21.8832 115.961 21.8936 115.948 21.9834C115.935 21.821 115.996 21.8452 116.009 21.7243C115.887 21.7381 115.948 21.7313 115.825 21.7485C115.758 21.9109 115.832 21.9558 115.796 22.1458C115.738 22.1872 115.68 22.3357 115.616 22.201L115.632 22.3945C115.522 22.5395 115.458 22.5154 115.39 22.3185C114.565 23.859 115.181 24.46 115.181 24.46C115.484 24.8986 115.655 24.3425 116.032 24.2078L116.028 24.2147Z" fill="#20BB65"/>
<path d="M132.347 22.7155L132.363 22.7982C132.363 22.7603 132.363 22.7292 132.347 22.7155Z" fill="#20BB65"/>
<path d="M138.563 23.5595C138.563 23.5595 138.57 23.5483 138.574 23.5409C138.566 23.5483 138.566 23.5521 138.563 23.5595Z" fill="#20BB65"/>
<path d="M133.025 25.5162C133.025 25.5162 133.018 25.5266 133.015 25.537L133.025 25.5162Z" fill="#20BB65"/>
<path d="M131.815 25.1576C132.131 25.2888 132.18 25.6722 132.528 25.5582C132.683 25.6066 132.863 25.541 133.024 25.5133C133.127 25.2336 133.231 25.534 133.343 25.3026L133.359 25.4719C133.398 25.3924 133.44 25.3407 133.459 25.4339L133.453 25.4822C133.511 25.3648 133.553 25.4442 133.582 25.3855L133.575 25.4339L133.633 25.4201L133.617 25.4857C133.711 25.3648 133.791 25.3648 133.856 25.4339L133.872 25.2336C134.001 25.4753 134.101 25.0712 134.211 25.3509L134.204 25.3993C134.439 24.8951 134.436 25.7931 134.675 25.3199C134.646 25.3786 134.675 25.4235 134.665 25.4719C134.755 25.427 134.846 25.4097 134.894 25.0194C134.955 25.0332 134.929 25.1472 134.92 25.2992C134.939 25.1265 135 25.0643 135.049 25.0609L135.02 25.123L135.162 25.0851L135.174 24.7569C135.236 24.8605 135.145 25.1541 135.223 25.0851L135.255 24.8156C135.349 24.8813 135.355 25.2957 135.426 25.5064C135.806 25.6757 136.322 25.0574 136.628 25.5859L136.619 25.7896C136.586 26.0832 136.78 25.3717 136.757 25.6446L136.819 25.5168C136.825 25.5721 136.841 25.6308 136.812 25.693C136.851 25.7102 136.857 25.6619 136.899 25.579L136.915 25.7689C137.051 25.9347 137.234 25.6065 137.386 25.7033C137.531 26.1074 137.947 25.8276 138.192 25.6688C138.563 25.2854 138.727 26.5115 139.111 26.0659C139.114 26.1074 139.156 26.021 139.159 25.9865L139.433 26.0798C139.433 26.0798 139.768 26.1731 140.026 25.9416C140.281 25.7102 140.474 25.1506 140.152 23.8416L140.171 23.7794C140.039 23.5929 139.946 23.5411 139.784 23.8416C139.833 23.4478 139.662 23.7759 139.646 23.6412L139.655 23.6102C139.51 23.8934 139.497 23.32 139.362 23.5756C139.372 23.5445 139.391 23.4375 139.414 23.434C139.34 23.472 139.233 23.5411 139.262 23.3131C139.091 23.3442 138.882 23.1956 138.721 23.5445L138.737 23.4823C138.64 23.7172 138.656 23.5066 138.569 23.6206C138.569 23.5895 138.569 23.5721 138.569 23.5618C138.469 23.7932 138.376 23.5687 138.308 23.662L138.327 23.51L138.195 23.5238L138.237 23.5652C138.16 23.9797 138.179 23.2854 138.047 23.541C137.966 23.4754 137.744 24.3804 137.686 24.1593C137.615 24.3493 137.77 23.8485 137.686 23.9866C137.715 23.769 137.734 23.8554 137.744 23.6792C137.666 23.7725 137.673 23.4409 137.573 23.5756L137.592 23.4064C137.447 23.7 137.431 23.1508 137.321 23.4375C137.199 23.5618 137.321 22.9228 137.167 23.2371L137.157 22.9988C137.115 22.9539 137.086 23.2751 137.047 23.1577C137.07 23.0126 136.999 23.0333 137.047 22.8986C136.96 22.6534 136.767 23.1853 136.661 22.7777C136.59 23.054 136.535 22.8745 136.48 23.0817C136.493 22.9574 136.325 23.0402 136.448 22.7846C136.457 22.7639 136.47 22.7708 136.464 22.8192L136.496 22.6534C136.448 22.3253 136.312 22.8019 136.232 22.7432C136.251 22.8019 136.287 22.7916 136.248 22.9055L136.171 22.871L136.206 22.7328L136.096 22.6327L136.09 22.8088C136.042 22.7121 136.058 22.4116 135.961 22.65C135.913 22.7847 135.987 22.8917 135.919 22.94C135.855 22.8088 135.758 22.6154 135.664 22.5463C135.648 22.7432 135.623 22.7328 135.59 22.7708L135.606 22.5981C135.471 22.8192 135.613 22.2182 135.484 22.3909L135.507 22.2734L135.436 22.6258C135.3 22.9504 135.426 22.2631 135.265 22.7121C135.31 22.6879 135.239 23.0921 135.197 23.0092L135.229 22.8468C135.197 22.8779 135.178 22.947 135.165 22.909C135.194 22.8227 135.203 22.6706 135.158 22.6948L135.21 22.4911L135.094 22.7846C135.052 22.5981 134.929 22.8089 134.933 22.574C134.933 22.574 134.813 22.4427 134.752 22.6914C134.797 22.5359 134.73 22.4669 134.771 22.2838C134.717 22.4565 134.597 22.5912 134.578 22.3944L134.588 22.3736C134.459 22.1595 134.301 22.6085 134.191 22.3529C134.175 22.5532 134.117 22.4358 134.104 22.6914C133.937 22.9262 133.904 22.1457 133.772 22.9228C133.704 22.9574 133.717 22.7293 133.688 22.6844L133.708 22.6465C133.582 22.6949 133.546 22.6983 133.459 22.6707C133.408 22.7432 133.363 23.1059 133.292 23.0092C133.334 22.8676 133.298 22.8917 133.269 22.8883C133.292 22.8675 133.301 22.8157 133.272 22.7121C133.263 22.757 133.25 22.7846 133.24 22.8054C133.24 22.795 133.24 22.7846 133.24 22.7708C133.185 22.8157 133.189 22.8606 133.211 22.8848C133.208 22.9055 133.208 22.9366 133.211 22.9781C133.179 22.7846 133.066 22.9746 133.085 22.7259C132.931 22.7674 132.799 23.0092 132.666 23.0921C132.666 22.9608 132.705 22.8537 132.747 22.8054L132.653 22.8434C132.673 22.6603 132.715 22.7432 132.744 22.7086C132.67 22.3978 132.499 22.9815 132.405 22.6948L132.367 22.8365L132.36 22.8123C132.354 22.8883 132.315 22.9919 132.296 23.0126C132.296 22.8503 132.331 22.643 132.27 22.6465C132.238 22.4876 132.128 22.7086 132.057 22.7881C132.089 22.8192 132.07 22.9055 132.047 22.9608C132.018 22.9608 132.015 22.8019 131.986 22.8675L132.002 22.65C131.996 22.8537 131.902 22.8606 131.883 22.9504C131.883 22.7881 131.944 22.8192 131.96 22.6983C131.838 22.7052 131.899 22.7017 131.777 22.7086C131.696 22.8641 131.77 22.9159 131.722 23.1025C131.661 23.137 131.593 23.282 131.538 23.1473V23.3408C131.422 23.4789 131.358 23.4513 131.306 23.2475C130.374 24.7327 130.948 25.3717 130.948 25.3717C131.219 25.8276 131.428 25.2854 131.809 25.1749L131.815 25.1576Z" fill="#20BB65"/>
<path d="M148.147 26.0238V26.11C148.157 26.0755 148.161 26.041 148.147 26.0238Z" fill="#20BB65"/>
<path d="M153.998 28.8246C153.998 28.8246 154.005 28.8178 154.012 28.8143C154.005 28.8143 154.001 28.8212 153.998 28.8246Z" fill="#20BB65"/>
<path d="M148.2 28.9144C148.2 28.9144 148.193 28.9256 148.185 28.933L148.2 28.9144Z" fill="#20BB65"/>
<path d="M147.131 28.2862C147.405 28.4831 147.37 28.87 147.725 28.8389C147.863 28.9218 148.044 28.9011 148.202 28.9149C148.363 28.6662 148.389 28.984 148.55 28.7871L148.527 28.9529C148.582 28.8873 148.634 28.8458 148.63 28.9425L148.614 28.9874C148.698 28.8872 148.717 28.9771 148.759 28.9253L148.74 28.9702H148.798L148.766 29.0323C148.882 28.9391 148.959 28.9598 149.004 29.0427L149.069 28.8527C149.13 29.1187 149.327 28.756 149.359 29.0565L149.34 29.1014C149.685 28.6835 149.459 29.5435 149.801 29.1532C149.759 29.2015 149.772 29.2534 149.752 29.2949C149.846 29.2776 149.936 29.2845 150.084 28.9253C150.136 28.9563 150.084 29.06 150.033 29.2016C150.097 29.0427 150.171 28.9978 150.217 29.0081L150.171 29.06H150.316L150.416 28.7525C150.445 28.87 150.284 29.1221 150.374 29.0807L150.474 28.832C150.545 28.9218 150.439 29.3225 150.449 29.5435C150.752 29.8164 151.409 29.3916 151.532 29.996L151.461 30.1859C151.342 30.4519 151.735 29.8441 151.632 30.0962L151.728 29.996C151.716 30.0478 151.712 30.11 151.667 30.1584C151.696 30.186 151.719 30.1445 151.783 30.0789L151.741 30.262C151.812 30.4658 152.08 30.217 152.189 30.3621C152.186 30.7869 152.65 30.6764 152.928 30.6211C153.402 30.4104 153.092 31.5987 153.592 31.3465C153.579 31.388 153.647 31.3258 153.666 31.2947L153.866 31.495C153.866 31.495 153.93 31.5503 154.03 31.5952C154.13 31.6401 154.272 31.6747 154.43 31.6298C154.743 31.5331 155.171 31.1462 155.407 29.8026L155.449 29.7542C155.4 29.5193 155.329 29.4261 155.062 29.623C155.258 29.2845 154.972 29.5055 155.007 29.3743L155.026 29.3501C154.781 29.5401 154.984 29.0116 154.759 29.1808C154.778 29.1567 154.836 29.0668 154.859 29.0737C154.772 29.0737 154.646 29.091 154.759 28.8941C154.585 28.8423 154.433 28.6144 154.159 28.87L154.198 28.8182C154.024 28.9943 154.111 28.8044 153.992 28.8735C154.004 28.8458 154.008 28.8285 154.014 28.8182C153.837 28.9909 153.83 28.7422 153.73 28.8043L153.801 28.6697L153.669 28.6283L153.698 28.6835C153.485 29.0392 153.737 28.4002 153.524 28.5868C153.469 28.4901 152.963 29.2534 152.976 29.0254C152.847 29.1774 153.157 28.7629 153.031 28.8631C153.128 28.6697 153.121 28.7595 153.186 28.5971C153.082 28.6559 153.192 28.345 153.057 28.4348L153.131 28.2829C152.899 28.5039 153.057 27.9823 152.86 28.2102C152.702 28.2793 153.018 27.7232 152.77 27.965L152.831 27.7371C152.802 27.6784 152.676 27.972 152.676 27.8476C152.741 27.7198 152.667 27.7094 152.754 27.6023C152.741 27.3398 152.396 27.7681 152.412 27.3467C152.264 27.5851 152.26 27.3952 152.148 27.5748C152.196 27.4608 152.009 27.4815 152.202 27.2811C152.218 27.2639 152.228 27.2743 152.209 27.3192L152.286 27.174C152.331 26.8425 152.064 27.2535 151.999 27.1671C151.999 27.2293 152.041 27.2328 151.97 27.3261L151.903 27.2673L151.977 27.1465L151.896 27.0152L151.841 27.181C151.822 27.0704 151.919 26.7907 151.757 26.9876C151.674 27.1016 151.719 27.2293 151.638 27.25C151.609 27.105 151.567 26.884 151.49 26.7907C151.422 26.9772 151.4 26.9565 151.358 26.9807L151.419 26.8217C151.226 26.991 151.525 26.4591 151.351 26.5834L151.406 26.4763L151.245 26.7941C151.026 27.0636 151.329 26.4452 151.051 26.8217C151.103 26.8148 150.929 27.1775 150.91 27.0877L150.984 26.9426C150.942 26.9634 150.91 27.0221 150.903 26.9807C150.952 26.9047 151 26.763 150.951 26.7699L151.055 26.5903L150.864 26.8356C150.871 26.6456 150.697 26.8079 150.758 26.58C150.758 26.58 150.671 26.4177 150.552 26.6422C150.636 26.5075 150.587 26.4176 150.671 26.2553C150.574 26.4073 150.423 26.5005 150.452 26.3071L150.468 26.2899C150.391 26.0446 150.126 26.428 150.078 26.1551C150.017 26.3416 149.984 26.2139 149.913 26.4591C149.694 26.6387 149.843 25.8719 149.53 26.5903C149.456 26.6041 149.52 26.3866 149.501 26.3382L149.53 26.3036C149.394 26.3174 149.359 26.314 149.278 26.2622C149.211 26.3175 149.085 26.6595 149.04 26.5455C149.111 26.4177 149.072 26.4315 149.043 26.4211C149.069 26.4073 149.091 26.3589 149.085 26.2518C149.066 26.2933 149.049 26.314 149.033 26.3347C149.037 26.3244 149.037 26.314 149.043 26.3002C148.979 26.3313 148.972 26.3762 148.988 26.4038C148.979 26.4245 148.972 26.4522 148.966 26.4936C148.975 26.2967 148.824 26.4521 148.898 26.2138C148.737 26.2138 148.553 26.4211 148.408 26.466C148.434 26.3382 148.498 26.2415 148.547 26.207L148.447 26.2207C148.505 26.0446 148.527 26.1379 148.566 26.1137C148.556 25.7925 148.266 26.3175 148.234 26.017L148.166 26.1482V26.1241C148.144 26.1966 148.086 26.2864 148.06 26.3036C148.092 26.1447 148.173 25.9514 148.111 25.941C148.111 25.7787 147.957 25.9687 147.87 26.0308C147.895 26.0688 147.857 26.1483 147.828 26.2001C147.795 26.1932 147.828 26.0343 147.786 26.093L147.847 25.8857C147.799 26.086 147.705 26.0688 147.67 26.1517C147.699 25.9928 147.757 26.0343 147.799 25.9237C147.676 25.903 147.737 25.9133 147.615 25.8892C147.505 26.0239 147.567 26.0895 147.483 26.2588C147.415 26.2795 147.318 26.4038 147.293 26.2588L147.257 26.4487C147.112 26.5558 147.057 26.5143 147.041 26.3071C146.441 26.9323 146.261 27.4331 146.222 27.7785C146.184 28.1239 146.29 28.307 146.29 28.307C146.461 28.8113 146.764 28.3208 147.151 28.3001L147.131 28.2862Z" fill="#20BB65"/>
<path d="M160.203 36.5813L160.136 36.6191C160.168 36.6088 160.197 36.595 160.203 36.5813Z" fill="#20BB65"/>
<path d="M157.957 37.2343C157.918 37.4139 157.596 37.5659 157.776 37.666C157.77 37.7455 157.867 37.7973 157.928 37.856C158.199 37.8111 157.954 37.9493 158.186 37.9251L158.041 37.9838C158.118 37.9769 158.176 37.9769 158.099 38.0149L158.054 38.0253C158.173 38.0149 158.112 38.0563 158.17 38.0528L158.124 38.0632L158.15 38.0839L158.086 38.0978C158.215 38.1012 158.231 38.1392 158.182 38.1841L158.363 38.1357C158.176 38.2601 158.56 38.191 158.331 38.3153L158.286 38.3257C158.785 38.2981 157.983 38.5295 158.456 38.5122C158.398 38.5122 158.363 38.5365 158.318 38.5468C158.379 38.5744 158.411 38.6124 158.772 38.5364C158.772 38.5675 158.663 38.5848 158.524 38.6159C158.682 38.5848 158.753 38.5952 158.766 38.6159H158.701L158.766 38.6746L159.063 38.602C158.982 38.6539 158.698 38.6815 158.779 38.7022L159.027 38.6538C158.988 38.7125 158.618 38.8128 158.44 38.8922C158.363 39.096 159.027 39.2203 158.605 39.4621L158.418 39.4932C158.144 39.5278 158.83 39.4932 158.576 39.5312L158.705 39.5381C158.656 39.5484 158.605 39.5692 158.54 39.5657C158.531 39.5865 158.576 39.583 158.663 39.5865L158.495 39.6244C158.369 39.7142 158.705 39.7488 158.643 39.8352C158.302 39.9595 158.634 40.1183 158.824 40.2185C159.243 40.3601 158.147 40.5674 158.621 40.709C158.582 40.7159 158.669 40.7262 158.701 40.7262L158.663 40.8679C158.663 40.8679 158.634 41.0371 158.892 41.1545C159.15 41.2651 159.694 41.3549 160.845 41.0785L160.907 41.0855C161.055 40.9957 161.09 40.937 160.784 40.8714C161.155 40.8645 160.823 40.7954 160.942 40.7746H160.971C160.684 40.7228 161.21 40.6572 160.952 40.6054C160.981 40.6054 161.084 40.6054 161.09 40.6192C161.045 40.5812 160.961 40.526 161.177 40.519C161.119 40.4258 161.216 40.2841 160.868 40.2392H160.929C160.697 40.2151 160.894 40.1978 160.774 40.1633C160.803 40.1633 160.816 40.1564 160.829 40.1564C160.597 40.1287 160.787 40.0493 160.687 40.0251L160.829 40.0148L160.794 39.9422L160.765 39.9733C160.371 39.9871 161.01 39.9007 160.752 39.8627C160.797 39.8075 159.927 39.8213 160.117 39.7592C159.93 39.7488 160.417 39.7591 160.275 39.7315C160.481 39.7142 160.404 39.7384 160.568 39.7142C160.468 39.6866 160.774 39.6382 160.633 39.6037L160.794 39.5865C160.497 39.5554 160.997 39.4552 160.713 39.4413C160.574 39.393 161.184 39.3516 160.865 39.3205L161.077 39.2721C161.11 39.241 160.81 39.2825 160.913 39.2411C161.048 39.2273 161.016 39.1892 161.148 39.1927C161.355 39.096 160.832 39.0891 161.181 38.9474C160.913 38.9647 161.064 38.8956 160.865 38.9094C160.981 38.8921 160.871 38.8162 161.129 38.83C161.152 38.83 161.148 38.8404 161.103 38.8473L161.261 38.83C161.548 38.7333 161.087 38.7575 161.126 38.6988C161.077 38.7229 161.094 38.7402 160.984 38.7436L160.997 38.6919L161.129 38.6815L161.197 38.5951L161.035 38.6297C161.113 38.5814 161.387 38.5226 161.152 38.5192C161.019 38.5226 160.939 38.5882 160.881 38.5606C160.984 38.4949 161.142 38.3948 161.181 38.3257C161 38.3637 161.003 38.3464 160.965 38.3361L161.123 38.305C160.89 38.2808 161.467 38.2152 161.28 38.1841L161.39 38.1703L161.058 38.2186C160.736 38.2221 161.38 38.1219 160.942 38.1426C160.974 38.1634 160.597 38.2256 160.658 38.1807L160.813 38.1565C160.778 38.1461 160.713 38.1564 160.742 38.1357C160.826 38.1288 160.965 38.0943 160.936 38.077L161.129 38.0563L160.842 38.0667C161 37.9941 160.784 37.9838 160.994 37.9216C160.994 37.9216 161.084 37.818 160.845 37.8526C160.994 37.8353 161.042 37.78 161.213 37.7524C161.045 37.7696 160.897 37.742 161.068 37.6764H161.087C161.248 37.5417 160.81 37.5831 161.01 37.4484C160.829 37.5002 160.919 37.4312 160.691 37.5002C160.446 37.483 161.126 37.2239 160.407 37.3897C160.359 37.3655 160.562 37.2998 160.594 37.2722H160.633C160.558 37.217 160.545 37.1997 160.549 37.1445C160.475 37.141 160.143 37.2343 160.21 37.1652C160.346 37.141 160.317 37.1306 160.31 37.1133C160.333 37.1168 160.381 37.1065 160.465 37.0581C160.423 37.0685 160.397 37.0685 160.375 37.0719C160.384 37.0719 160.394 37.065 160.407 37.0616C160.352 37.0478 160.313 37.065 160.3 37.0823C160.281 37.0892 160.255 37.0961 160.22 37.1133C160.381 37.0339 160.188 37.0374 160.41 36.9648C160.336 36.8958 160.088 36.913 159.981 36.875C160.094 36.8301 160.201 36.8094 160.249 36.8163L160.194 36.7818C160.359 36.7265 160.297 36.7783 160.336 36.7818C160.584 36.6333 160.033 36.7507 160.255 36.5987L160.12 36.6298L160.139 36.6194C160.072 36.6436 159.972 36.6608 159.949 36.6608C160.088 36.5987 160.278 36.5434 160.259 36.5124C160.388 36.4364 160.165 36.4606 160.078 36.4537C160.059 36.4813 159.978 36.5054 159.927 36.5158C159.917 36.502 160.055 36.4398 159.991 36.4502L160.181 36.3777C160.004 36.4537 159.972 36.4087 159.891 36.4329C160.03 36.3707 160.023 36.4122 160.13 36.3742C160.088 36.3155 160.11 36.3431 160.068 36.2844C159.914 36.3051 159.891 36.3604 159.717 36.4087C159.669 36.3914 159.527 36.4156 159.63 36.3362L159.466 36.4156C159.317 36.4122 159.324 36.3742 159.478 36.2637C158.718 36.3431 158.25 36.54 157.966 36.692C157.683 36.8474 157.58 36.9648 157.58 36.9648C157.257 37.2515 157.77 37.1134 157.957 37.2343Z" fill="#20BB65"/>
<path d="M152.044 42.3658C152.128 42.4277 152.215 42.2833 152.189 42.3073C152.163 42.2489 152.07 42.3589 152.044 42.3658Z" fill="#00B14F"/>
<path d="M153.444 44.3418C153.424 44.4467 153.379 44.2649 153.444 44.3418Z" fill="#00B14F"/>
<path d="M154.146 45.4148C154.188 45.3907 154.223 45.2944 154.265 45.2428L154.162 45.2015C154.162 45.2635 154.198 45.3597 154.143 45.4148H154.146Z" fill="#00B14F"/>
<path d="M154.269 45.2428L154.42 45.3047C154.352 45.1947 154.304 45.2016 154.269 45.2428Z" fill="#00B14F"/>
<path d="M154.471 45.8682L154.333 45.8751L154.555 45.8819L154.471 45.8682Z" fill="#00B14F"/>
<path d="M154.704 46.1514C154.594 46.1652 154.63 46.3241 154.546 46.3102C154.617 46.3793 154.733 46.3966 154.836 46.4104C154.755 46.3724 154.713 46.293 154.707 46.1514H154.704Z" fill="#00B14F"/>
<path d="M154.994 46.4411C154.952 46.4239 154.894 46.4171 154.836 46.4067C154.878 46.4274 154.929 46.4411 154.994 46.4411Z" fill="#00B14F"/>
<path d="M154.504 45.7051L154.578 45.5674C154.578 45.5674 154.555 45.5365 154.546 45.5193C154.53 45.5468 154.482 45.6156 154.504 45.7016V45.7051Z" fill="#00B14F"/>
<path d="M154.581 45.5641C154.614 45.6227 154.639 45.6572 154.649 45.6744C154.639 45.6606 154.62 45.6296 154.585 45.5641H154.581Z" fill="#00B14F"/>
<path d="M154.539 45.509L154.55 45.5199C154.55 45.5199 154.561 45.4981 154.539 45.509Z" fill="#00B14F"/>
<path d="M154.459 45.2668L154.632 45.3356L154.565 45.1912C154.539 45.2187 154.514 45.2737 154.459 45.2668Z" fill="#00B14F"/>
<path d="M154.71 45.3707L154.633 45.3362L154.656 45.3913L154.71 45.3707Z" fill="#00B14F"/>
<path d="M154.939 46.1439C155.026 46.1577 155.071 46.2127 155.128 46.2712C155.096 46.1817 155.055 46.0992 155.003 46.0304C154.961 46.0476 154.878 46.0683 154.939 46.1439Z" fill="#00B14F"/>
<path d="M154.775 45.8546L154.792 45.862C154.792 45.862 154.792 45.836 154.775 45.8546Z" fill="#00B14F"/>
<path d="M155.607 46.9249C155.607 46.9249 155.616 46.9076 155.62 46.8972L155.6 46.9111L155.61 46.9249H155.607Z" fill="#00B14F"/>
<path d="M155.013 46.0024C154.994 45.9301 154.945 45.9232 154.891 45.9198C154.929 45.9508 154.968 45.9852 155.003 46.0299C155.023 46.023 155.032 46.0127 155.016 46.0024H155.013Z" fill="#00B14F"/>
<path d="M155.178 46.579C155.178 46.5308 155.178 46.486 155.168 46.4379C155.155 46.4929 155.142 46.5927 155.178 46.579Z" fill="#00B14F"/>
<path d="M154.773 45.9026H154.762C154.752 45.9373 154.762 45.9234 154.773 45.9026Z" fill="#00B14F"/>
<path d="M154.772 45.9025C154.807 45.9162 154.849 45.9162 154.89 45.9162C154.858 45.8922 154.823 45.8715 154.788 45.8578C154.788 45.8715 154.778 45.8887 154.772 45.899V45.9025Z" fill="#00B14F"/>
<path d="M155.458 46.6554L155.41 46.6139C155.436 46.6864 155.426 46.7624 155.403 46.9041C155.513 46.9455 155.565 46.9317 155.603 46.911L155.436 46.6519H155.465L155.458 46.6554Z" fill="#00B14F"/>
<path d="M155.568 46.9939L155.436 47.0664L155.681 47.0422L155.568 46.9939Z" fill="#00B14F"/>
<path d="M155.668 47.3184L155.777 47.3356L155.774 47.2426L155.668 47.3184Z" fill="#00B14F"/>
<path d="M161.59 51.7909C161.764 51.7633 162.028 51.7288 161.912 51.639L161.783 51.5734C161.725 51.6908 161.657 51.7564 161.593 51.7909H161.59Z" fill="#00B14F"/>
<path d="M157.766 49.8638C157.776 49.9743 157.802 50.0468 157.834 50.1021C157.834 49.9605 157.873 49.8085 157.766 49.8638Z" fill="#00B14F"/>
<path d="M168.143 42.9702C168.15 42.9187 168.127 42.8981 168.086 42.905C168.076 42.9565 168.089 42.9873 168.143 42.9702Z" fill="#00B14F"/>
<path d="M157.834 50.1055C157.834 50.2087 157.863 50.3084 157.991 50.3187C157.991 50.2981 157.991 50.2809 157.991 50.2568C157.934 50.219 157.879 50.1777 157.837 50.1055H157.834Z" fill="#00B14F"/>
<path d="M153.627 41.0986C153.656 41.0883 153.701 41.0883 153.746 41.0883C153.724 41.078 153.688 41.078 153.627 41.0986Z" fill="#00B14F"/>
<path d="M156.493 48.3269C156.474 48.3269 156.445 48.2785 156.493 48.3269Z" fill="#00B14F"/>
<path d="M156.48 48.2026C156.48 48.2337 156.487 48.2681 156.499 48.2991C156.499 48.2819 156.493 48.2509 156.48 48.2026Z" fill="#00B14F"/>
<path d="M156.439 48.2586C156.429 48.2341 156.423 48.2167 156.413 48.1992C156.39 48.2062 156.383 48.2237 156.439 48.2586Z" fill="#00B14F"/>
<path d="M156.554 48.3993C156.529 48.3683 156.512 48.3372 156.5 48.2993C156.5 48.3165 156.5 48.3268 156.49 48.3268C156.503 48.3406 156.522 48.3614 156.551 48.3993H156.554Z" fill="#00B14F"/>
<path d="M168.863 41.2404L168.972 41.1886C168.656 41.1506 168.321 41.275 168.028 41.3993C168.002 41.3648 168.128 41.3129 168.173 41.2888C167.812 41.1782 167.657 41.2024 167.015 41.458L167.125 41.2888C167.025 41.3371 166.903 41.2715 166.693 41.2128C166.49 41.1575 166.184 41.1126 165.897 41.2128C165.906 41.1921 165.926 41.161 165.974 41.1368C165.81 41.1852 165.655 41.1816 165.487 41.154C165.371 41.1264 165.265 41.0816 165.162 41.047C164.955 40.978 164.781 40.9641 164.707 41.2749L164.446 41.4269C164.785 41.4787 164.395 41.6963 164.533 41.7999C164.401 41.8344 164.191 41.61 164.353 41.5789L164.378 41.6099C164.44 41.2853 163.959 41.4925 163.969 41.2715C163.302 41.2818 162.654 41.0988 162.031 41.0781L162.102 41.3302L161.886 41.313C161.828 41.2542 161.812 41.1161 161.967 41.1265C161.886 40.9814 161.706 41.2439 161.703 41.2991C161.4 41.1955 161.822 41.0055 161.732 40.9986L161.606 41.0159L161.635 41.047C161.532 41.1506 161.522 41.2576 161.335 41.2438C161.216 41.192 161.277 41.0884 161.229 41.0781C161.229 41.0608 161.213 41.0504 161.158 41.0711L160.884 41.047L160.984 41.2301C160.894 41.275 160.626 41.2438 160.368 41.2576C160.107 41.2438 159.839 41.275 159.749 41.2301L159.849 41.047L159.575 41.0711C159.52 41.0539 159.504 41.0608 159.504 41.0781C159.459 41.0884 159.517 41.192 159.398 41.2438C159.211 41.2576 159.201 41.1472 159.098 41.047L159.127 41.0159L159.001 40.9986C158.908 41.0055 159.333 41.1955 159.03 41.2991C159.027 41.2439 158.846 40.9814 158.763 41.1265C158.872 41.1195 158.895 41.1851 158.875 41.2473C158.808 41.2266 158.734 41.2024 158.676 41.1437L158.695 41.0781C158.676 41.0781 158.656 41.0815 158.637 41.0815C158.627 41.0677 158.618 41.0574 158.611 41.0436C158.621 41.0574 158.624 41.0712 158.627 41.085C158.36 41.0988 158.089 41.1368 157.815 41.1748C157.547 41.1471 157.254 41.0229 156.954 41.0609C156.948 41.1127 156.993 41.1851 156.954 41.2611C156.935 41.2611 156.912 41.2611 156.893 41.2611L156.693 40.9986C156.606 41.0263 156.609 41.3475 156.454 41.1368C156.477 41.1886 156.509 41.2646 156.451 41.2853C156.3 41.2335 156.145 41.2059 155.99 41.192C155.906 40.9641 155.745 40.9814 155.561 41.0401C155.458 41.0746 155.352 41.1196 155.236 41.1472C155.068 41.1748 154.913 41.1783 154.749 41.1299C154.797 41.1541 154.817 41.1852 154.826 41.2059C154.649 41.1437 154.465 41.1402 154.301 41.1609C154.14 41.1195 153.975 41.0539 153.817 40.9503C153.937 41.0677 153.856 41.0815 153.766 41.085C153.817 41.1091 153.779 41.2093 153.775 41.2888C153.763 41.2922 153.75 41.2922 153.737 41.2957L153.408 41.0884C153.353 41.2715 153.137 41.1713 153.031 41.2369C152.866 41.2127 152.737 41.237 152.557 41.2888C152.602 41.3164 152.728 41.3648 152.702 41.3993C152.409 41.275 152.073 41.1506 151.757 41.1886L151.867 41.2404L151.419 41.2232L151.503 41.3474C152.006 41.5926 151.98 41.6893 152.012 41.8482C152.038 42.0001 152.128 42.2316 152.612 42.4146C152.434 42.425 152.621 42.753 152.647 42.9015C152.676 42.905 152.715 42.9188 152.766 42.9465C152.65 43.019 152.792 43.171 152.953 43.3022C153.121 43.4369 153.308 43.5508 153.363 43.6475C153.389 43.7926 153.266 43.7684 153.128 43.7304C153.343 43.8409 153.418 44.0343 153.485 44.2519C153.495 44.283 153.505 44.314 153.514 44.3451C153.501 44.3347 153.485 44.3244 153.469 44.3071C153.469 44.3244 153.466 44.3279 153.463 44.3382C153.476 44.3555 153.492 44.3762 153.514 44.4177C153.521 44.4108 153.524 44.4038 153.53 44.4004C153.547 44.4556 153.563 44.5074 153.579 44.5523C153.592 44.5869 153.605 44.6179 153.614 44.6421C153.618 44.649 153.624 44.649 153.63 44.6525C153.63 44.7077 153.659 44.7768 153.614 44.7699C153.724 44.8459 153.75 44.7941 153.772 44.6836C153.801 44.6629 153.834 44.6317 153.863 44.6041L153.914 44.6283C153.93 44.5938 153.966 44.5558 153.892 44.58C153.908 44.5662 153.924 44.5558 153.943 44.5489C153.962 44.5869 153.962 44.6214 153.953 44.649L153.911 44.6283C153.901 44.649 153.908 44.6629 153.946 44.6629C153.892 44.7941 153.64 44.8425 153.917 44.9426C153.911 44.8977 153.882 44.8321 153.921 44.8321C154.008 44.8908 154.398 44.7664 154.536 44.8113C154.478 44.8493 154.452 44.9218 154.32 44.8977C154.375 44.9046 154.443 44.9322 154.494 44.9288C154.552 45.0151 154.685 45.0427 154.788 45.0773C154.781 45.1222 154.775 45.1602 154.765 45.1843C154.788 45.1533 154.804 45.1187 154.823 45.0876C154.913 45.1187 154.962 45.1602 154.862 45.2672L154.73 45.3536C155.123 45.5228 154.781 45.5263 155.158 45.7162L155.175 45.6955C155.255 45.8509 155.462 45.7956 155.316 46.0304L155.255 46.0062C155.307 46.0891 155.339 46.1306 155.371 46.172C155.352 46.172 155.333 46.172 155.313 46.1616C155.516 46.3792 155.2 46.1444 155.268 46.3689C155.217 46.3378 155.178 46.2998 155.146 46.2653C155.165 46.3205 155.178 46.3758 155.187 46.431V46.4206C155.194 46.3965 155.2 46.3862 155.2 46.4069C155.2 46.4069 155.204 46.4069 155.207 46.4069C155.223 46.3965 155.239 46.3896 155.255 46.3827C155.284 46.4725 155.236 46.4173 155.207 46.4069C155.2 46.4104 155.194 46.4137 155.187 46.4172L155.423 46.6072C155.4 46.545 155.352 46.4829 155.255 46.3792C155.352 46.3447 155.445 46.3688 155.513 46.3343C155.52 46.3412 155.523 46.3481 155.532 46.3551C155.529 46.3896 155.565 46.5001 155.623 46.4898C155.545 46.5623 155.603 46.6762 155.684 46.7833C155.665 46.8213 155.645 46.8558 155.632 46.8904C155.661 46.8696 155.694 46.8489 155.748 46.8558C155.819 46.9318 155.89 46.9939 155.916 47.0216C155.835 46.8661 155.955 46.8696 156.048 46.8523C155.977 47.0457 156.006 47.1148 156.184 47.1425C156.119 47.2081 156.051 47.2772 156 47.3463C155.984 47.3255 155.974 47.3047 155.964 47.2806C155.89 47.4256 155.948 47.3704 155.945 47.4326C155.887 47.5397 155.874 47.6502 155.955 47.7676C155.958 47.7089 155.935 47.6397 155.993 47.6259C156.051 47.6121 156.045 47.7019 156.042 47.733C156.087 47.7226 156.087 47.6605 156.126 47.6156C156.135 47.6295 156.145 47.6432 156.155 47.657C156.142 47.7952 156.209 47.8504 156.29 47.9195C156.309 47.9817 156.325 48.0473 156.293 48.1785C156.342 48.1302 156.355 48.0438 156.422 48.1924C156.442 48.1854 156.471 48.182 156.487 48.182C156.487 48.1889 156.487 48.1889 156.487 48.1924V48.1785C156.487 48.1785 156.503 48.1785 156.487 48.1751C156.487 48.1267 156.496 48.0784 156.516 48.0439C156.535 48.0404 156.558 48.0404 156.577 48.0439C156.5 48.1958 157.002 48.1337 156.677 48.2925C156.77 48.3443 156.854 48.4168 156.938 48.4962C156.909 48.5998 156.899 48.6931 156.761 48.6102L156.874 48.776C156.88 48.9245 156.951 49.0764 157.057 49.1179C157.09 49.2146 157.325 49.2042 157.186 49.2146L157.444 49.408L157.418 49.4357C157.589 49.6981 157.986 49.7913 157.992 50.2541C158.082 50.3128 158.182 50.3715 158.253 50.5408L158.176 50.6512C158.289 50.7306 158.318 51.0588 158.453 51.0208C158.366 51.1969 158.437 51.3247 158.569 51.4732C158.776 51.7253 159.008 51.9532 159.117 52.1535L159.217 52.0051C159.375 52.2364 159.559 52.4056 159.772 52.5818L159.788 52.4712C159.823 52.5438 159.859 52.6232 159.897 52.7061C160.03 52.9928 160.197 53.3173 160.349 53.3312C160.349 53.3312 160.349 53.3312 160.349 53.3346C160.352 53.3346 160.355 53.3346 160.358 53.3346C160.362 53.3346 160.365 53.3346 160.368 53.3346C160.368 53.3346 160.368 53.3346 160.368 53.3312C160.52 53.3139 160.687 52.9893 160.819 52.7061C160.964 52.3988 161.071 52.1328 161.258 52.081C161.303 51.9291 161.361 51.8876 161.429 51.8565C161.422 51.8669 161.419 51.8772 161.416 51.8876C161.425 51.8807 161.435 51.8669 161.445 51.8497C161.49 51.8324 161.538 51.8151 161.59 51.7874C161.538 51.7978 161.493 51.8082 161.461 51.8255C161.513 51.7495 161.587 51.6217 161.641 51.487L161.78 51.5665C161.78 51.5665 161.79 51.5492 161.796 51.5388C161.922 51.4697 161.809 51.3972 161.683 51.3627C161.706 51.2901 161.716 51.2246 161.716 51.1624C161.97 51.2522 161.79 50.9206 162.057 51.0208C161.99 50.8861 162.238 50.6132 162.054 50.3922C162.083 50.4129 162.112 50.4061 162.086 50.4441C162.167 50.3888 162.251 50.3335 162.241 50.2161L162.418 50.3162L162.338 49.9709C162.509 49.9502 162.592 49.9571 162.634 50.1574C162.634 49.7602 162.715 49.9018 162.689 49.5426L162.779 49.6394C162.831 49.5634 162.786 49.332 162.902 49.3561C163.215 49.3561 163.54 48.5688 164.033 48.2994C163.679 48.1268 164.311 48.2165 164.098 48.0058C164.185 48.0404 164.269 48.0163 164.278 48.1371C164.372 47.8643 164.633 47.9092 164.552 47.5949C164.64 47.6294 164.62 47.7296 164.678 47.7434C164.678 47.7123 164.669 47.6225 164.727 47.6363C164.785 47.6501 164.762 47.7192 164.765 47.7779C164.92 47.55 164.723 47.3428 164.536 47.1528C164.714 47.1252 164.743 47.0561 164.672 46.8627C164.765 46.88 164.885 46.8765 164.804 47.0319C164.872 46.9629 165.252 46.6452 165.101 46.5002C165.159 46.5105 165.194 46.4034 165.191 46.3654C165.329 46.2031 165.355 46.1996 165.468 46.0166L165.407 46.0408C165.265 45.806 165.471 45.8612 165.549 45.7058L165.565 45.7265C165.939 45.5365 165.6 45.5332 165.993 45.3639L165.861 45.2776C165.626 45.0255 166.219 45.1359 166.258 44.8735H166.142C166.126 44.7043 166.7 44.9115 166.806 44.839C166.845 44.839 166.816 44.9045 166.809 44.9494C167.157 44.8251 166.677 44.7803 166.783 44.5558C166.896 44.5938 166.964 44.7872 167.077 44.6732C167.093 44.6732 167.102 44.6628 167.112 44.6456C167.122 44.6214 167.135 44.5903 167.148 44.5558C167.18 44.4694 167.209 44.359 167.244 44.2554C167.312 44.0378 167.386 43.8444 167.602 43.7339C167.464 43.7753 167.338 43.796 167.367 43.651C167.422 43.5508 167.609 43.4403 167.776 43.3056C167.941 43.1744 168.079 43.0259 167.963 42.9499C168.015 42.9223 168.053 42.9084 168.082 42.905C168.105 42.7565 168.295 42.4319 168.118 42.4181C168.601 42.2316 168.692 42.0036 168.718 41.8516C168.747 41.6928 168.724 41.5961 169.227 41.3509L169.311 41.2266L168.863 41.2438V41.2404ZM156.348 46.9352C156.351 46.9145 156.354 46.8869 156.358 46.8627C156.319 46.956 156.28 47.025 156.232 47.0216L156.164 46.7695C156.226 46.7729 156.296 46.7867 156.364 46.7764C156.364 46.804 156.361 46.8351 156.358 46.8627C156.371 46.8351 156.383 46.804 156.393 46.7729C156.413 46.7695 156.432 46.7592 156.451 46.7488L156.516 46.8351C156.474 46.9042 156.422 46.9491 156.348 46.9318V46.9352ZM157.18 47.7399C157.18 47.7399 157.173 47.7434 157.17 47.7468C157.167 47.7365 157.16 47.7226 157.157 47.7123L157.18 47.7434V47.7399ZM159.878 51.4145L159.907 51.4559C159.897 51.4905 159.885 51.525 159.875 51.5595C159.875 51.5112 159.875 51.4629 159.875 51.418L159.878 51.4145ZM160.803 51.4594L160.832 51.4214C160.832 51.4629 160.832 51.5043 160.832 51.5457C160.823 51.5181 160.813 51.487 160.806 51.4559L160.803 51.4594ZM154.565 44.8735C154.565 44.8735 154.565 44.87 154.565 44.8666C154.565 44.8666 154.565 44.8666 154.565 44.8735ZM157.035 48.845C157.035 48.845 157.041 48.845 157.044 48.845C157.064 48.9763 157.057 48.9279 157.035 48.845ZM160.387 53.2725C160.387 53.2725 160.394 53.2552 160.397 53.2448L160.384 53.2794C160.384 53.2794 160.368 53.3001 160.358 53.307C160.349 53.3001 160.339 53.2897 160.333 53.2794L160.32 53.2448C160.32 53.2448 160.326 53.2621 160.329 53.2725C160.304 53.2414 160.278 53.2 160.271 53.1413C160.278 53.1516 160.287 53.1619 160.294 53.1723C160.313 53.2034 160.329 53.2379 160.349 53.2656C160.352 53.2621 160.355 53.2552 160.358 53.2517C160.362 53.2552 160.365 53.2621 160.368 53.2656C160.387 53.2345 160.404 53.2034 160.423 53.1723C160.429 53.1619 160.439 53.1551 160.445 53.1413C160.439 53.2 160.413 53.2414 160.387 53.2725ZM161.197 41.1403L161.238 41.1851C161.142 41.2335 161.168 41.1886 161.197 41.1403ZM162.106 49.7395L162.209 49.6049L162.331 49.9329C162.283 49.8742 162.199 49.8086 162.106 49.743V49.7395ZM164.482 47.0216C164.436 47.025 164.398 46.956 164.356 46.8627C164.356 46.8903 164.359 46.9145 164.365 46.9352C164.32 46.9456 164.282 46.9284 164.249 46.9007L164.33 46.7971C164.34 46.8178 164.349 46.842 164.356 46.8627C164.356 46.8351 164.353 46.8005 164.349 46.7695L164.385 46.7211C164.459 46.7281 164.523 46.7315 164.559 46.7281L164.478 47.0216H164.482Z" fill="#00B14F"/>
<path d="M156.019 47.8052L156.138 47.8981C156.09 47.8465 156.103 47.8018 156.1 47.7571C156.074 47.7846 156.048 47.8396 156.019 47.8052Z" fill="#00B14F"/>
<path d="M156.708 48.4373C156.708 48.3754 156.561 48.5234 156.583 48.4649C156.419 48.5303 156.933 48.5956 156.708 48.4373Z" fill="#00B14F"/>
<path d="M153.146 40.905L153.015 40.8293L153.098 40.9498L153.146 40.905Z" fill="#00B14F"/>
<path d="M152.892 41.1635L152.863 40.9399L152.783 41.1429C152.812 41.1326 152.869 41.1154 152.892 41.1635Z" fill="#00B14F"/>
<path d="M152.567 42.9702C152.621 42.9839 152.634 42.9565 152.624 42.905C152.579 42.8981 152.557 42.9187 152.567 42.9702Z" fill="#00B14F"/>
</svg>
