<svg width="149" height="59" viewBox="0 0 149 59" fill="none" xmlns="http://www.w3.org/2000/svg">
<path d="M3.4654 0.517471L3.39392 0.541861C3.42966 0.534899 3.45891 0.527914 3.4654 0.517471Z" fill="#20BB65"/>
<path d="M4.30359 3.47977C4.30359 3.47977 4.31366 3.47976 4.32038 3.47617C4.31366 3.47617 4.31031 3.47617 4.30359 3.47977Z" fill="#20BB65"/>
<path d="M1.12629 0.701912C1.05807 0.910764 0.720202 1.02562 0.892388 1.2101C0.879393 1.31453 0.980106 1.40854 1.03534 1.49556C1.31148 1.48511 1.06133 1.62083 1.29849 1.62779L1.14904 1.68354C1.23026 1.68354 1.28548 1.69394 1.20751 1.73223L1.16202 1.7392C1.28223 1.7392 1.2205 1.78798 1.28223 1.78798L1.23676 1.79835L1.26274 1.82622L1.19778 1.83667C1.33098 1.85756 1.3472 1.90285 1.30172 1.96202L1.48367 1.91324C1.29849 2.05596 1.68509 1.99335 1.46093 2.13955L1.41544 2.14992C1.919 2.12555 1.12629 2.40756 1.61036 2.38667C1.54863 2.38667 1.5194 2.41796 1.47392 2.43189C1.53889 2.46669 1.57787 2.51192 1.93524 2.4075C1.93849 2.4423 1.83128 2.47017 1.69483 2.51542C1.85077 2.47017 1.92225 2.4806 1.94174 2.50497L1.87676 2.51194L1.95148 2.57465L2.24063 2.47021C2.1659 2.53635 1.88327 2.59201 1.96774 2.60941L2.2114 2.53284C2.17891 2.60246 1.81829 2.75561 1.65585 2.87048C1.62011 3.14894 2.3121 3.1698 1.96123 3.54226L1.78581 3.62239C1.5259 3.7303 2.19189 3.52834 1.95473 3.63276L2.08144 3.60846C2.03595 3.63282 1.99373 3.66762 1.92875 3.68154C1.92875 3.70939 1.97097 3.69198 2.05544 3.67457L1.90276 3.76508C1.81179 3.90779 2.14966 3.85553 2.12367 3.97736C1.84103 4.23495 2.22764 4.31851 2.44855 4.35332C2.89364 4.32896 1.98073 5.03559 2.49079 4.98686C2.4583 5.01123 2.54277 4.98336 2.57201 4.96595L2.61099 5.14C2.61099 5.14 2.68246 5.34189 2.96835 5.31752C3.25749 5.30012 3.74481 5.02166 4.63173 4.18973L4.68698 4.16186C4.78119 4.01914 4.78768 3.95996 4.49529 4.06438C4.82342 3.86946 4.50179 3.98783 4.6025 3.91125L4.63173 3.89731C4.35559 3.99477 4.80392 3.69547 4.55377 3.77902C4.57976 3.76509 4.67398 3.71631 4.68372 3.72327C4.6285 3.71631 4.53428 3.71636 4.72921 3.60846C4.64799 3.56321 4.69347 3.4205 4.35885 3.53189L4.41407 3.5075C4.1899 3.58756 4.36858 3.4901 4.24838 3.51098C4.27437 3.49706 4.28737 3.49007 4.29712 3.48311C4.07295 3.55621 4.22889 3.41353 4.12817 3.43441L4.26139 3.3717L4.20614 3.32649L4.18665 3.36133C3.81954 3.52493 4.39782 3.21157 4.14441 3.27771C4.1769 3.21853 3.34848 3.53882 3.51091 3.41351C3.32898 3.4692 3.79681 3.30909 3.65386 3.33694C3.84554 3.24992 3.78056 3.29862 3.93 3.22204C3.82604 3.23249 4.10543 3.08626 3.96248 3.10715L4.11193 3.04103C3.81954 3.11065 4.27762 2.86698 4.00472 2.94704C3.86177 2.94704 4.44006 2.73126 4.12817 2.80088L4.32637 2.69992C4.35236 2.66511 4.06971 2.78696 4.16067 2.72082C4.29063 2.67209 4.25489 2.65119 4.38159 2.61638C4.56677 2.48411 4.05671 2.61636 4.37834 2.41795C4.12168 2.49801 4.25812 2.40755 4.06645 2.46324C4.1769 2.42147 4.0632 2.38315 4.31336 2.3379C4.33285 2.33441 4.33284 2.34139 4.28736 2.35532L4.44007 2.30662C4.71296 2.16391 4.26138 2.29263 4.29387 2.23694C4.24838 2.26478 4.26463 2.27877 4.15742 2.30314L4.16716 2.25784L4.29712 2.2196L4.35559 2.13955L4.19966 2.20218C4.27113 2.14649 4.53753 2.04552 4.30362 2.09425C4.17367 2.1221 4.09895 2.19171 4.04047 2.17779C4.13793 2.10469 4.28412 1.99681 4.31986 1.93763C4.14118 2.00029 4.14442 1.98284 4.10543 1.98284L4.26139 1.93066C4.03072 1.94807 4.59925 1.80532 4.41407 1.81228L4.52454 1.78449L4.19641 1.87152C3.87478 1.92025 4.51154 1.74965 4.07945 1.8297C4.11194 1.84015 3.73832 1.94107 3.80004 1.89582L3.95275 1.85758C3.91701 1.8541 3.85202 1.86801 3.88126 1.85061C3.96573 1.83321 4.10219 1.79145 4.0697 1.77753L4.26139 1.73571L3.97549 1.78101C4.13143 1.70443 3.917 1.71831 4.12492 1.64521C4.12492 1.64521 4.21265 1.55475 3.97549 1.60697C4.12493 1.57912 4.17042 1.53037 4.34261 1.49556C4.17367 1.52688 4.03072 1.513 4.19966 1.44686H4.21915C4.38484 1.33199 3.94624 1.38769 4.15092 1.27282C3.96899 1.32155 4.05995 1.26235 3.82929 1.32848C3.58238 1.31456 4.28413 1.09874 3.55315 1.23798C3.50767 1.21709 3.71559 1.16487 3.75132 1.1405H3.79031C3.71883 1.09525 3.70908 1.08131 3.71882 1.03258C3.6441 1.02561 3.30623 1.09175 3.38096 1.03606C3.5174 1.02214 3.49142 1.01174 3.48817 0.994335C3.51091 0.997815 3.55964 0.994297 3.64736 0.956008C3.60512 0.962969 3.57912 0.962976 3.55638 0.962976C3.56613 0.962976 3.57589 0.959489 3.58888 0.956008C3.5369 0.942084 3.49466 0.956021 3.47842 0.969945C3.45892 0.973426 3.43293 0.980408 3.39394 0.99085C3.56288 0.931676 3.37121 0.921206 3.60187 0.875955C3.53689 0.8133 3.28675 0.806307 3.18929 0.757575C3.30624 0.729729 3.4167 0.726312 3.46543 0.736755L3.41669 0.701912C3.58887 0.674066 3.52065 0.708888 3.55638 0.715849C3.82603 0.618386 3.26401 0.656685 3.51091 0.55226L3.37445 0.562712L3.3972 0.555744C3.32572 0.566186 3.22501 0.569674 3.19902 0.562712C3.34847 0.531385 3.54665 0.510506 3.53041 0.48266C3.67011 0.437409 3.44918 0.426891 3.36472 0.406006C3.34197 0.426891 3.25751 0.43388 3.20228 0.43388C3.19578 0.419957 3.34522 0.388667 3.27699 0.385186L3.47842 0.353827C3.28674 0.385155 3.26725 0.343378 3.18278 0.346859C3.33223 0.319012 3.31599 0.353814 3.4297 0.33989C3.4037 0.280716 3.4167 0.312044 3.39071 0.252869C3.23477 0.238946 3.19903 0.284234 3.02034 0.291196C2.97811 0.26683 2.8319 0.256391 2.94886 0.207659L2.77018 0.238932C2.62398 0.200643 2.64349 0.162391 2.82217 0.103216C2.0652 -0.029056 1.55838 -0.0185829 1.24324 0.0475533C0.92811 0.110209 0.801412 0.221596 0.801412 0.221596C0.418055 0.461775 0.957351 0.503511 1.12304 0.708881L1.12629 0.701912Z" fill="#20BB65"/>
<path d="M10.3269 10.0411L10.3107 10.1246C10.3269 10.0933 10.3367 10.062 10.3269 10.0411Z" fill="#20BB65"/>
<path d="M16.2526 12.855C16.2526 12.855 16.2603 12.8474 16.2642 12.8397C16.2565 12.8436 16.2526 12.8512 16.2526 12.855Z" fill="#20BB65"/>
<path d="M9.99268 12.965C9.99268 12.965 9.98261 12.9722 9.97589 12.9794L9.99268 12.965Z" fill="#20BB65"/>
<path d="M8.85524 12.0252C9.12814 12.3071 9.03718 12.6969 9.44978 12.7666C9.59922 12.8884 9.8104 12.9197 9.98909 12.9685C10.1938 12.7527 10.2003 13.0834 10.3952 12.9128L10.3594 13.0799C10.4277 13.0207 10.4861 12.9929 10.4796 13.0903L10.4569 13.1321C10.5576 13.045 10.5771 13.1391 10.6258 13.0938L10.6031 13.1355L10.6681 13.146L10.6291 13.2017C10.7655 13.1251 10.8533 13.1634 10.8987 13.2574L10.9767 13.0729C11.0384 13.3583 11.2691 13.0137 11.3016 13.327L11.2788 13.3688C11.672 12.979 11.4185 13.8421 11.8019 13.4767C11.7532 13.5219 11.7727 13.5777 11.7499 13.6194C11.8571 13.609 11.9611 13.6264 12.117 13.2644C12.1755 13.2992 12.117 13.4035 12.0683 13.5463C12.1365 13.3861 12.2177 13.3479 12.2697 13.3618L12.221 13.414L12.3802 13.428L12.4777 13.1146C12.5134 13.2365 12.3445 13.4906 12.4452 13.4524L12.5459 13.2017C12.6271 13.2991 12.5329 13.7029 12.5589 13.9327C12.9325 14.2355 13.6212 13.7865 13.8422 14.3922L13.7902 14.5905C13.6959 14.8725 14.0468 14.2251 13.9689 14.4862L14.0598 14.3782C14.0533 14.4339 14.0598 14.4966 14.0176 14.5523C14.0566 14.5801 14.0728 14.5349 14.1345 14.4653L14.1183 14.6567C14.2352 14.8586 14.4951 14.5801 14.6446 14.7193C14.7323 15.1614 15.2424 14.9839 15.5283 14.8795C15.9799 14.5731 15.9993 15.8401 16.4802 15.4677C16.4802 15.5129 16.5354 15.4294 16.5452 15.3981L16.8343 15.5443C16.8343 15.5443 17.1949 15.694 17.497 15.5025C17.8024 15.3111 18.0396 14.7716 17.8414 13.4105L17.8674 13.3514C17.7537 13.146 17.6627 13.0834 17.4613 13.3549C17.5588 12.9685 17.3443 13.2713 17.3443 13.1321L17.3573 13.1008C17.1722 13.3618 17.2339 12.7875 17.0584 13.0172C17.0714 12.9894 17.1072 12.8849 17.1299 12.8849C17.0487 12.9093 16.9285 12.9615 16.9935 12.7388C16.8148 12.7388 16.6231 12.5542 16.4087 12.871L16.4347 12.8118C16.2982 13.0277 16.347 12.8188 16.243 12.9163C16.2495 12.885 16.2495 12.871 16.2528 12.8571C16.1131 13.0659 16.0546 12.8223 15.9701 12.9024L16.0156 12.7562L15.8759 12.7422L15.9116 12.7909C15.7622 13.1878 15.8986 12.5021 15.7199 12.7283C15.6517 12.6448 15.2619 13.4941 15.2391 13.2609C15.1319 13.4315 15.3821 12.972 15.2684 13.0903C15.3366 12.8815 15.3431 12.972 15.3853 12.7979C15.2879 12.871 15.3561 12.5438 15.2294 12.6552L15.2814 12.4916C15.0767 12.7492 15.1677 12.2027 15.002 12.4603C14.8525 12.5508 15.1059 11.9521 14.885 12.2236L14.924 11.9868C14.8915 11.9312 14.7941 12.241 14.7811 12.1157C14.833 11.9799 14.7583 11.9799 14.833 11.8616C14.8005 11.6005 14.4887 12.0704 14.4757 11.6422C14.3425 11.8929 14.3295 11.7014 14.2288 11.8929C14.2677 11.7745 14.0858 11.8094 14.2645 11.5935C14.2807 11.5761 14.2905 11.5865 14.2742 11.6318L14.3457 11.4787C14.3749 11.1445 14.1313 11.5761 14.0631 11.4926C14.0663 11.5552 14.1053 11.5552 14.0436 11.6562L13.9753 11.6005L14.0436 11.4752L13.9591 11.3464L13.9104 11.517C13.8876 11.4056 13.9786 11.1201 13.8227 11.322C13.7414 11.4369 13.7869 11.5657 13.7089 11.5901C13.6765 11.4439 13.6342 11.2246 13.5563 11.1341C13.4913 11.322 13.4685 11.3012 13.4263 11.329L13.488 11.1689C13.2963 11.3429 13.5953 10.8034 13.4231 10.9322L13.4783 10.8243L13.3158 11.141C13.0949 11.4125 13.4036 10.7895 13.1242 11.1689C13.1761 11.1619 12.9975 11.5274 12.9747 11.4334L13.0527 11.2872C13.0105 11.3046 12.9747 11.3673 12.9715 11.3255C13.0235 11.2524 13.0722 11.1097 13.0234 11.1131L13.1307 10.9356L12.9357 11.1793C12.9487 10.9879 12.7668 11.148 12.835 10.9218C12.835 10.9218 12.7571 10.7547 12.6271 10.9739C12.7148 10.8417 12.6726 10.7511 12.7668 10.591C12.6628 10.7407 12.5102 10.8243 12.5491 10.6328L12.5654 10.6154C12.5069 10.3683 12.2178 10.7373 12.195 10.4553C12.117 10.6398 12.0975 10.5041 12.0066 10.7442C11.7694 10.9009 11.9936 10.1525 11.6102 10.8347C11.5323 10.8417 11.62 10.6329 11.6102 10.5772L11.6427 10.5493C11.5063 10.5493 11.4705 10.5354 11.3991 10.4727C11.3243 10.518 11.1586 10.8417 11.1229 10.7199C11.2106 10.605 11.1684 10.6119 11.1424 10.5945C11.1684 10.5841 11.1976 10.5388 11.2074 10.4309C11.1814 10.4692 11.1619 10.4901 11.1457 10.504C11.1489 10.4936 11.1521 10.4866 11.1619 10.4727C11.0937 10.4936 11.0807 10.5389 11.0937 10.5667C11.0839 10.5876 11.0709 10.612 11.0612 10.6503C11.0969 10.4588 10.9247 10.5876 11.0319 10.3613C10.8727 10.3335 10.6583 10.504 10.4991 10.5214C10.5446 10.3996 10.6259 10.3161 10.6811 10.2917L10.5804 10.2847C10.6681 10.1211 10.6746 10.2186 10.7168 10.2012C10.7623 9.88445 10.3854 10.3474 10.4049 10.0376L10.314 10.1524L10.3204 10.1281C10.2847 10.1943 10.21 10.2708 10.1808 10.2847C10.2425 10.1351 10.3594 9.96103 10.301 9.93666C10.3334 9.77654 10.1418 9.92973 10.0443 9.96802C10.0606 10.0098 10.0086 10.0829 9.96634 10.1212C9.9371 10.1072 9.99883 9.96101 9.9436 10.0063L10.0476 9.81828C9.95984 10.0028 9.86887 9.96452 9.81689 10.0341C9.88187 9.88446 9.92734 9.94362 9.99232 9.84267C9.87536 9.79046 9.93385 9.81483 9.81689 9.76262C9.67719 9.86704 9.72593 9.94708 9.60248 10.0898C9.53101 10.0898 9.40429 10.1908 9.41079 10.0376L9.33282 10.2151C9.16064 10.2813 9.11516 10.2186 9.15089 10.0097C8.39392 10.4274 8.06255 10.8417 7.9391 11.1654C7.81564 11.4891 7.89361 11.7154 7.89361 11.7154C7.97808 12.2932 8.42966 11.9207 8.86174 12.0287L8.85524 12.0252Z" fill="#20BB65"/>
<path d="M26.2102 15.6314L26.2232 15.7149C26.2297 15.6766 26.2297 15.6453 26.2102 15.6314Z" fill="#20BB65"/>
<path d="M32.7435 16.7423C32.7435 16.7423 32.7507 16.7315 32.7543 16.7243C32.7471 16.7315 32.7471 16.7351 32.7435 16.7423Z" fill="#20BB65"/>
<path d="M26.7537 18.5134C26.7537 18.5134 26.7465 18.5243 26.7429 18.5315L26.7573 18.5134H26.7537Z" fill="#20BB65"/>
<path d="M25.4533 18.0296C25.7879 18.1967 25.8139 18.59 26.207 18.51C26.3759 18.5761 26.5773 18.5274 26.7528 18.5134C26.8827 18.2384 26.9769 18.5518 27.1134 18.329L27.1231 18.4996C27.1686 18.423 27.2173 18.3742 27.2368 18.4682L27.2271 18.5169C27.2953 18.4021 27.3408 18.4856 27.3733 18.4299L27.3635 18.4787L27.4253 18.4682L27.4025 18.5343C27.5097 18.4195 27.6007 18.4265 27.6657 18.4996L27.6917 18.2977C27.8216 18.5518 27.9483 18.1514 28.0555 18.4404L28.0458 18.4891C28.3187 17.9983 28.2895 18.8998 28.5623 18.4369C28.5299 18.496 28.5559 18.5414 28.5461 18.5901C28.6436 18.5483 28.7443 18.5379 28.806 18.1445C28.871 18.1619 28.8417 18.2767 28.8255 18.4299C28.8515 18.2593 28.9197 18.1967 28.9717 18.1967L28.9392 18.2593L29.0952 18.2281L29.1146 17.8973C29.1764 18.0052 29.0756 18.2977 29.1601 18.2316L29.1991 17.9635C29.2966 18.0366 29.2998 18.4543 29.3745 18.6701C29.7904 18.8581 30.3557 18.2524 30.6903 18.7884L30.6806 18.9938C30.6481 19.2897 30.8527 18.5762 30.83 18.8512L30.895 18.7223C30.9015 18.778 30.921 18.8372 30.8885 18.8998C30.9307 18.9173 30.9372 18.8685 30.9827 18.785L31.0022 18.9764C31.1549 19.147 31.3466 18.8163 31.5187 18.9138C31.6844 19.321 32.1393 19.0391 32.3992 18.8755C32.7858 18.4821 33.0197 19.7179 33.4226 19.2584C33.429 19.3002 33.468 19.2131 33.4713 19.1783L33.7767 19.2654C33.7767 19.2654 35.2581 19.5856 34.4167 16.9749L34.4329 16.9123C34.2835 16.7313 34.1828 16.6826 34.0301 16.9923C34.0593 16.5921 33.8969 16.9332 33.8741 16.7974L33.8806 16.766C33.7409 17.0584 33.7019 16.4807 33.5687 16.7417C33.5752 16.7104 33.5915 16.6024 33.6142 16.599C33.5362 16.6407 33.429 16.7139 33.4518 16.4807C33.2731 16.5155 33.0489 16.3762 32.893 16.7278L32.9092 16.6652C32.815 16.9053 32.8248 16.6895 32.737 16.8079C32.737 16.7765 32.737 16.7591 32.737 16.7487C32.6363 16.9854 32.5324 16.7591 32.4642 16.8531L32.4804 16.6999L32.3407 16.7139L32.3862 16.7557C32.3115 17.1769 32.318 16.4772 32.1848 16.7348C32.1003 16.6686 31.8826 17.5841 31.8144 17.3613C31.7429 17.5528 31.8989 17.0481 31.8079 17.1873C31.8339 16.968 31.8599 17.055 31.8631 16.8775C31.7819 16.9714 31.7851 16.6373 31.6812 16.773L31.7007 16.6025C31.5512 16.8983 31.5285 16.3449 31.418 16.6338C31.2881 16.7591 31.4148 16.1151 31.2523 16.4319L31.2394 16.1917C31.1939 16.1465 31.1646 16.4702 31.1257 16.3484C31.1484 16.2022 31.0737 16.2196 31.1257 16.0873C31.0347 15.8402 30.83 16.3693 30.7228 15.9585C30.6481 16.237 30.5896 16.0525 30.5311 16.2613C30.5441 16.136 30.3687 16.2161 30.5019 15.962C30.5116 15.9411 30.5246 15.9481 30.5181 15.9968L30.5539 15.8297C30.5084 15.4956 30.3622 15.9759 30.2777 15.9133C30.2972 15.9724 30.3362 15.9655 30.294 16.0768L30.2127 16.0386L30.2517 15.8993L30.138 15.795L30.1283 15.9725C30.0795 15.8715 30.1023 15.5686 29.9951 15.8088C29.9431 15.9411 30.0178 16.056 29.9463 16.0977C29.8814 15.9655 29.7839 15.7636 29.6864 15.694C29.6669 15.8924 29.641 15.8819 29.6052 15.9167L29.6279 15.7462C29.4785 15.9655 29.6442 15.3633 29.5045 15.5339L29.5337 15.4155L29.4493 15.7671C29.2966 16.0873 29.4493 15.4016 29.2673 15.8471C29.3161 15.8263 29.2316 16.2266 29.1861 16.143L29.2251 15.9795C29.1894 16.0073 29.1699 16.0769 29.1536 16.0386C29.1861 15.9516 29.1991 15.7984 29.1536 15.8193L29.2154 15.6174L29.0854 15.9063C29.0497 15.7183 28.9132 15.9202 28.923 15.6835C28.923 15.6835 28.8028 15.5443 28.7313 15.795C28.7833 15.6418 28.7183 15.5686 28.767 15.3842C28.702 15.5582 28.5753 15.6835 28.5623 15.4851L28.5753 15.4642C28.4486 15.2414 28.2635 15.6801 28.1628 15.419C28.1368 15.6174 28.0815 15.4956 28.0588 15.7531C27.8736 15.9759 27.8768 15.1893 27.6982 15.962C27.6234 15.9899 27.6494 15.7636 27.6234 15.7184L27.6462 15.6801C27.513 15.7218 27.474 15.7218 27.3863 15.6835C27.3278 15.7497 27.2596 16.1117 27.1913 16.0107C27.2433 15.8715 27.2043 15.8924 27.1719 15.8855C27.1946 15.8681 27.2109 15.8158 27.1849 15.7114C27.1719 15.7567 27.1589 15.781 27.1459 15.8019C27.1459 15.7915 27.1459 15.781 27.1524 15.7671C27.0939 15.8089 27.0939 15.8541 27.1134 15.8785C27.1069 15.8994 27.1069 15.9272 27.1069 15.969C27.0842 15.7706 26.9542 15.9516 26.9932 15.7045C26.8275 15.7323 26.6748 15.9655 26.5286 16.0351C26.5351 15.9063 26.5871 15.7984 26.6326 15.7566L26.5319 15.7845C26.5643 15.6 26.6033 15.6905 26.6358 15.6592C26.5806 15.3424 26.3597 15.9098 26.2817 15.6105L26.2297 15.7497V15.7253C26.2135 15.8019 26.1647 15.8993 26.142 15.9202C26.1517 15.7566 26.2102 15.5512 26.142 15.5477C26.1193 15.3841 25.9861 15.5965 25.9048 15.6696C25.9341 15.7044 25.9048 15.7914 25.8821 15.8437C25.8496 15.8437 25.8594 15.68 25.8236 15.7427L25.8594 15.5269C25.8334 15.7323 25.7359 15.7288 25.7099 15.8123C25.7196 15.6487 25.7846 15.687 25.8139 15.5652C25.6839 15.5582 25.7489 15.5652 25.6189 15.5547C25.5215 15.7044 25.5929 15.7601 25.528 15.9411C25.4597 15.969 25.3753 16.1082 25.3298 15.9655L25.3168 16.1604C25.1771 16.2857 25.1121 16.2475 25.0731 16.0386C24.5079 16.7243 24.3584 17.2464 24.3552 17.5945C24.3519 17.9426 24.4916 18.1236 24.4916 18.1236C24.7483 18.6179 25.0277 18.0993 25.4533 18.0331V18.0296Z" fill="#20BB65"/>
<path d="M43.0715 17.9878L43.091 18.0714C43.091 18.0331 43.091 18.0017 43.0715 17.9878Z" fill="#20BB65"/>
<path d="M49.6989 18.5244C49.6989 18.5244 49.7025 18.5136 49.7061 18.5064C49.7025 18.5136 49.6989 18.5173 49.6989 18.5244Z" fill="#20BB65"/>
<path d="M43.8656 20.7934C43.8656 20.7934 43.8581 20.8046 43.8544 20.8159L43.8656 20.7934Z" fill="#20BB65"/>
<path d="M42.5387 20.4593C42.8831 20.588 42.9448 20.971 43.3249 20.8491C43.4971 20.8944 43.6888 20.8247 43.8642 20.7934C43.9682 20.508 44.0884 20.8074 44.2054 20.5707L44.2281 20.7412C44.2671 20.6612 44.3126 20.6054 44.3386 20.6994L44.3321 20.7482C44.3905 20.6264 44.4425 20.7064 44.4718 20.6437L44.4653 20.6924L44.527 20.6751L44.5107 20.7447C44.6082 20.6194 44.6959 20.6159 44.7707 20.6855L44.7804 20.4836C44.9298 20.7238 45.0241 20.3096 45.154 20.5916L45.1475 20.6403C45.3782 20.1251 45.4204 21.0266 45.6543 20.5393C45.6251 20.5985 45.6543 20.6437 45.6511 20.6924C45.7453 20.6437 45.846 20.6194 45.8752 20.2261C45.9402 20.2365 45.9207 20.3548 45.9175 20.5079C45.9305 20.3339 45.9922 20.2678 46.0442 20.2608L46.0149 20.327L46.1676 20.2817V19.9511C46.2359 20.052 46.1546 20.3513 46.2326 20.2782L46.2521 20.0067C46.3561 20.0694 46.3886 20.4871 46.4763 20.6959C46.9019 20.8491 47.4217 20.1982 47.7888 20.7099V20.9153C47.779 21.2146 47.935 20.4837 47.9317 20.7621L47.9902 20.6298C48 20.6855 48.0227 20.7447 47.9935 20.8073C48.0357 20.8213 48.0422 20.7725 48.0779 20.6855L48.1104 20.8735C48.2728 21.0336 48.4418 20.6855 48.6172 20.776C48.8089 21.1728 49.241 20.8596 49.4879 20.6786C49.8485 20.2609 50.1539 21.4792 50.5275 20.9988C50.5373 21.0406 50.5698 20.9501 50.573 20.9153L50.8816 20.9849C50.8816 20.9849 52.3728 21.2286 51.3917 18.6632L51.4047 18.6004C51.2455 18.4264 51.1415 18.3846 51.0051 18.7014C51.0116 18.3011 50.8686 18.6492 50.8394 18.5169L50.8459 18.4856C50.7224 18.785 50.651 18.2106 50.534 18.4787C50.5405 18.4473 50.5503 18.3359 50.573 18.3324C50.4983 18.3777 50.3943 18.4578 50.4041 18.2246C50.2286 18.2698 49.9947 18.141 49.8583 18.5031L49.8713 18.4403C49.79 18.6875 49.7868 18.4716 49.7088 18.5935C49.7088 18.5622 49.7023 18.5483 49.7056 18.5343C49.6211 18.778 49.5042 18.5553 49.4392 18.6562L49.4457 18.4996L49.306 18.5239L49.3547 18.5622C49.306 18.9869 49.2702 18.2872 49.1533 18.5552C49.0656 18.4926 48.9031 19.4219 48.8219 19.2061C48.7634 19.401 48.8836 18.8859 48.8057 19.0321C48.8187 18.8093 48.8479 18.8963 48.8414 18.7188C48.7667 18.8198 48.7472 18.4821 48.653 18.6248L48.6627 18.4508C48.5328 18.7571 48.4743 18.2072 48.3801 18.4996C48.2566 18.6318 48.3411 17.9809 48.2014 18.3081L48.1721 18.0714C48.1267 18.0296 48.1169 18.3534 48.0682 18.235C48.0812 18.0888 48.0064 18.1132 48.0487 17.974C47.9415 17.7338 47.7725 18.2803 47.6361 17.8765C47.5809 18.1584 47.5094 17.9809 47.4672 18.1932C47.4704 18.0679 47.3015 18.1584 47.4152 17.8973C47.4249 17.8764 47.4379 17.8799 47.4347 17.9287L47.4574 17.7616C47.3859 17.4344 47.2755 17.9217 47.1845 17.866C47.2073 17.9252 47.2462 17.9113 47.2137 18.0261L47.1293 17.9948L47.1585 17.8521L47.0351 17.7581V17.9356C46.9831 17.8382 46.9831 17.5354 46.8954 17.7825C46.8531 17.9183 46.9376 18.0261 46.8661 18.0748C46.7914 17.946 46.6777 17.7546 46.577 17.692C46.5705 17.8904 46.5445 17.8834 46.512 17.9217L46.5217 17.7477C46.3885 17.9774 46.5088 17.3648 46.382 17.5458L46.4015 17.4274L46.3431 17.786C46.2131 18.1201 46.3171 17.424 46.1676 17.88C46.2131 17.8556 46.1579 18.2628 46.1092 18.1828L46.1351 18.0157C46.1026 18.047 46.0864 18.1166 46.0702 18.0818C46.0962 17.9948 46.0994 17.8417 46.0507 17.866L46.0962 17.6606L45.989 17.96C45.937 17.7755 45.8168 17.9913 45.807 17.7546C45.807 17.7546 45.6738 17.6259 45.6218 17.8835C45.6641 17.7268 45.5893 17.6571 45.6283 17.4727C45.5763 17.6502 45.4594 17.7894 45.4302 17.5945L45.4399 17.5736C45.297 17.3648 45.1443 17.8207 45.0208 17.5701C45.0111 17.772 44.9428 17.6571 44.9428 17.9147C44.7739 18.1549 44.7154 17.3717 44.5985 18.1584C44.527 18.1967 44.5335 17.9669 44.501 17.9217L44.5205 17.88C44.3873 17.9357 44.3516 17.9391 44.2606 17.9112C44.2086 17.9843 44.1696 18.3498 44.0917 18.2558C44.1306 18.1131 44.0917 18.1375 44.0624 18.1341C44.0852 18.1132 44.0949 18.061 44.0624 17.9565C44.0527 18.0018 44.0429 18.0296 44.0299 18.0505C44.0299 18.0401 44.0299 18.0296 44.0299 18.0157C43.9747 18.0644 43.978 18.1097 44.0007 18.1306C44.0007 18.1515 43.9974 18.1828 44.0007 18.2211C43.9617 18.0262 43.848 18.2211 43.861 17.9705C43.6985 18.0157 43.5654 18.2663 43.4257 18.3498C43.4224 18.2176 43.4614 18.1062 43.5036 18.061L43.4062 18.0992C43.4224 17.9147 43.4679 17.9983 43.5004 17.9635C43.4159 17.6537 43.247 18.2455 43.1398 17.9565L43.1008 18.1027L43.0943 18.0783C43.0878 18.1549 43.0488 18.2594 43.0293 18.2837C43.026 18.1201 43.0618 17.9112 42.9968 17.9147C42.9578 17.7546 42.8441 17.9809 42.7726 18.061C42.8051 18.0923 42.7856 18.1793 42.7661 18.235C42.7337 18.235 42.7304 18.0749 42.6979 18.141L42.7142 17.9217C42.7077 18.1271 42.6102 18.1376 42.5907 18.2246C42.5875 18.061 42.6524 18.0888 42.6719 17.967C42.542 17.9774 42.607 17.9705 42.477 17.9809C42.3925 18.141 42.4705 18.1897 42.4218 18.3777C42.3568 18.416 42.2853 18.5622 42.2268 18.4264L42.2334 18.6214C42.1067 18.7606 42.0384 18.7327 41.9799 18.5308C40.9858 20.0381 41.6096 20.6716 41.6096 20.6716C41.9085 21.1276 42.1326 20.5811 42.5485 20.4627L42.5387 20.4593Z" fill="#20BB65"/>
<path d="M60.0919 19.2688L60.1147 19.3524C60.1147 19.3141 60.1114 19.2828 60.0919 19.2688Z" fill="#20BB65"/>
<path d="M66.7551 19.621C66.7551 19.621 66.7587 19.6102 66.7623 19.603C66.7587 19.6102 66.7551 19.6138 66.7551 19.621Z" fill="#20BB65"/>
<path d="M60.9733 22.0535C60.9733 22.0535 60.9696 22.0647 60.9658 22.076L60.9771 22.0535H60.9733Z" fill="#20BB65"/>
<path d="M59.6403 21.7541C59.9879 21.8725 60.0626 22.2554 60.4363 22.1231C60.6084 22.1649 60.8001 22.0883 60.9723 22.0535C61.0698 21.7646 61.1965 22.0604 61.3037 21.8203L61.3329 21.9873C61.3687 21.9038 61.4109 21.8516 61.4401 21.9421V21.9908C61.4921 21.869 61.5441 21.9456 61.5701 21.883V21.9317L61.6253 21.9142L61.6123 21.9839C61.7065 21.8551 61.7943 21.8516 61.869 21.9177V21.7159C62.0282 21.9526 62.1094 21.5348 62.2458 21.8133V21.8621C62.4603 21.3399 62.522 22.2415 62.7461 21.7472C62.7169 21.8098 62.7526 21.8516 62.7461 21.9003C62.8404 21.8481 62.9378 21.8238 62.9606 21.427C63.0255 21.4374 63.0093 21.5558 63.0093 21.7089C63.019 21.5349 63.0775 21.4653 63.1295 21.4583L63.1035 21.5244L63.253 21.4722L63.24 21.1415C63.3147 21.239 63.24 21.5418 63.3179 21.4687L63.3309 21.1973C63.4349 21.2564 63.4771 21.6706 63.5713 21.8795C64.0002 22.0222 64.5005 21.3539 64.8839 21.8551L64.8904 22.0605C64.8839 22.3599 65.0236 21.6253 65.0268 21.9038L65.082 21.7716C65.0918 21.8273 65.1178 21.883 65.0918 21.9491C65.134 21.963 65.1373 21.9142 65.173 21.8272L65.2087 22.0152C65.3744 22.1684 65.5369 21.8203 65.7123 21.9038C65.9105 22.2936 66.3361 21.97 66.5797 21.782C66.9306 21.3539 67.2587 22.5652 67.6226 22.0744C67.6323 22.1161 67.6648 22.0221 67.6648 21.9908L67.9735 22.05C67.9735 22.05 69.4712 22.2519 68.4478 19.7144L68.4575 19.6517C68.2951 19.4846 68.1911 19.4429 68.0579 19.7631C68.0579 19.3628 67.9215 19.7144 67.889 19.5821L67.8955 19.5507C67.7785 19.8536 67.6941 19.2827 67.5836 19.5507C67.5901 19.5194 67.5966 19.408 67.6193 19.4046C67.5446 19.4498 67.4407 19.5333 67.4472 19.3001C67.2717 19.3523 67.0346 19.2305 66.9046 19.596L66.9143 19.5334C66.8396 19.7805 66.8299 19.5647 66.7519 19.69C66.7519 19.6587 66.7454 19.6448 66.7454 19.6309C66.6642 19.8745 66.5407 19.6587 66.4823 19.7596V19.603L66.3458 19.6309L66.3945 19.6656C66.3556 20.0903 66.3036 19.3941 66.1899 19.6656C66.0989 19.6065 65.9559 20.5394 65.8715 20.327C65.8162 20.522 65.9267 20.0068 65.852 20.1565C65.8617 19.9337 65.891 20.0207 65.8812 19.8397C65.8098 19.9406 65.7805 19.6065 65.6895 19.7527L65.6961 19.5786C65.5726 19.8884 65.5011 19.3384 65.4134 19.6378C65.2932 19.7735 65.3647 19.1192 65.2282 19.4533L65.1957 19.2166C65.147 19.1748 65.147 19.502 65.095 19.3837C65.1048 19.2375 65.0301 19.2618 65.069 19.1226C64.9553 18.8859 64.7961 19.4359 64.6532 19.0356C64.6012 19.321 64.5265 19.1435 64.4907 19.3594C64.4907 19.234 64.3251 19.328 64.4323 19.0634C64.442 19.0426 64.455 19.0461 64.4518 19.0948L64.4712 18.9242C64.3933 18.597 64.2893 19.0913 64.2016 19.0356C64.2276 19.0947 64.2633 19.0809 64.2341 19.1958L64.1496 19.1679L64.1756 19.0252L64.0522 18.9347L64.0619 19.1122C64.0034 19.0182 63.9969 18.7153 63.9125 18.9625C63.8735 19.1017 63.9612 19.2062 63.8897 19.2549C63.8118 19.1296 63.6948 18.9416 63.5876 18.8824C63.5876 19.0843 63.5583 19.0739 63.5259 19.1122L63.5324 18.9382C63.4057 19.1714 63.5096 18.5553 63.3862 18.7398L63.4024 18.6179L63.3537 18.9764C63.2335 19.3141 63.3179 18.6144 63.1782 19.0774C63.2237 19.0495 63.1782 19.4602 63.1295 19.3802L63.1522 19.2131C63.1198 19.2479 63.1068 19.3176 63.0873 19.2793C63.11 19.1888 63.11 19.0356 63.0613 19.0634L63.1035 18.8546L63.0028 19.1574C62.9476 18.973 62.8306 19.1922 62.8144 18.9555C62.8144 18.9555 62.6779 18.8337 62.6324 19.0878C62.6682 18.9277 62.5934 18.8651 62.6259 18.6771C62.5805 18.8546 62.4635 18.9973 62.431 18.8024L62.4408 18.7815C62.2913 18.5761 62.1516 19.0356 62.0217 18.7884C62.0184 18.9903 61.9469 18.8755 61.9534 19.133C61.791 19.3767 61.7098 18.597 61.6123 19.3871C61.5408 19.4254 61.5408 19.1957 61.5084 19.154L61.5278 19.1122C61.3979 19.1714 61.3589 19.1748 61.2679 19.1505C61.216 19.2236 61.19 19.5925 61.112 19.4986C61.1477 19.3524 61.112 19.3802 61.0795 19.3767C61.1022 19.3558 61.1088 19.3002 61.073 19.1992C61.0633 19.2445 61.0535 19.2723 61.0438 19.2932C61.0438 19.2827 61.0438 19.2723 61.0438 19.2584C60.9885 19.3071 60.9951 19.3524 61.0178 19.3733C61.0178 19.3942 61.0178 19.4254 61.021 19.4637C60.9755 19.2723 60.8684 19.4672 60.8749 19.2166C60.7124 19.2653 60.5857 19.5195 60.4493 19.61C60.4428 19.4812 60.4785 19.3663 60.5175 19.3175L60.42 19.3594C60.4298 19.1714 60.4785 19.2549 60.511 19.2201C60.4168 18.9138 60.2641 19.509 60.1504 19.2236L60.1146 19.3698L60.1081 19.3454C60.1049 19.422 60.0691 19.5264 60.0496 19.5507C60.0399 19.3871 60.0691 19.1783 60.0042 19.1818C59.9619 19.0217 59.8547 19.2514 59.7832 19.335C59.819 19.3628 59.8027 19.4533 59.7832 19.509C59.7508 19.5125 59.741 19.3489 59.7118 19.4185L59.7215 19.1992C59.7215 19.4081 59.6241 19.4185 59.6078 19.5055C59.5981 19.3419 59.6663 19.3698 59.6793 19.2479C59.5493 19.2619 59.6143 19.2549 59.4844 19.2688C59.4064 19.429 59.4844 19.4777 59.4421 19.6656C59.3771 19.7039 59.3122 19.8536 59.2472 19.7179L59.2602 19.9128C59.1367 20.0555 59.0685 20.0311 59.0035 19.8292C58.0646 21.3643 58.7079 21.9804 58.7079 21.9804C59.023 22.4295 59.2277 21.8725 59.6338 21.7437L59.6403 21.7541Z" fill="#20BB65"/>
<path d="M77.1806 20.2538L77.2033 20.3374C77.2033 20.2991 77.2001 20.2678 77.1806 20.2538Z" fill="#20BB65"/>
<path d="M83.8535 20.6513C83.8535 20.6513 83.8571 20.6405 83.8607 20.6333C83.8571 20.6405 83.8535 20.6441 83.8535 20.6513Z" fill="#20BB65"/>
<path d="M78.0587 23.042C78.0587 23.042 78.055 23.0533 78.0512 23.0646L78.0625 23.042H78.0587Z" fill="#20BB65"/>
<path d="M76.7288 22.7358C77.0765 22.8576 77.1479 23.2405 77.5216 23.1082C77.6937 23.15 77.8854 23.0734 78.0576 23.042C78.1551 22.7531 78.2818 23.0525 78.389 22.8123L78.4182 22.9829C78.4572 22.8993 78.4962 22.8472 78.5254 22.9377V22.9864C78.5774 22.8645 78.6294 22.9411 78.6554 22.8819V22.9307L78.7106 22.9133L78.6976 22.9829C78.7918 22.8541 78.8795 22.8506 78.9543 22.9168V22.7149C79.1135 22.9515 79.1979 22.5373 79.3311 22.8123V22.861C79.5456 22.3424 79.6073 23.244 79.8314 22.7497C79.8022 22.8123 79.8347 22.8541 79.8314 22.9028C79.9257 22.8506 80.0231 22.8262 80.0459 22.4294C80.1108 22.4398 80.0913 22.5582 80.0913 22.7114C80.1011 22.5373 80.1628 22.4677 80.2148 22.4608L80.1888 22.5269L80.3383 22.4782L80.3285 22.1475C80.4 22.2485 80.3285 22.5478 80.4065 22.4747L80.4195 22.2032C80.5234 22.2624 80.5657 22.68 80.6566 22.8854C81.0822 23.0281 81.589 22.3667 81.9659 22.8715L81.9724 23.0769C81.9627 23.3762 82.1088 22.6418 82.1088 22.9203L82.1641 22.7879C82.1738 22.8436 82.1998 22.8993 82.1706 22.9655C82.2128 22.9794 82.2161 22.9307 82.255 22.8437L82.2908 23.0316C82.4532 23.1882 82.6189 22.8367 82.7976 22.9237C82.9925 23.3171 83.4181 22.9933 83.6683 22.8088C84.0256 22.3842 84.3375 23.5955 84.7046 23.1082C84.7144 23.15 84.7469 23.0595 84.7501 23.0247L85.0555 23.0873C85.0555 23.0873 86.5499 23.2962 85.5623 20.7552L85.5753 20.6925C85.4161 20.5219 85.3122 20.4836 85.1725 20.8004C85.179 20.4001 85.036 20.7516 85.0035 20.6194L85.01 20.5881C84.8866 20.8909 84.8118 20.3201 84.6949 20.5881C84.7014 20.5568 84.7111 20.4453 84.7339 20.4418C84.6592 20.4871 84.5519 20.5706 84.5617 20.3374C84.383 20.3861 84.1491 20.2643 84.0159 20.6298L84.0289 20.5672C83.9509 20.8143 83.9444 20.5985 83.8664 20.7238C83.8664 20.6925 83.8599 20.6786 83.8632 20.6647C83.7787 20.9083 83.6585 20.689 83.5968 20.7934L83.6033 20.6368L83.4636 20.6647L83.5123 20.6994C83.4701 21.1241 83.4246 20.4244 83.3077 20.6959C83.2167 20.6368 83.064 21.5697 82.9828 21.3539C82.9243 21.5488 83.0413 21.0336 82.9633 21.1833C82.973 20.9605 83.0023 21.0475 82.9958 20.8665C82.921 20.9674 82.8983 20.6333 82.8041 20.776L82.8106 20.602C82.6839 20.9117 82.6189 20.3618 82.5279 20.6577C82.4077 20.7935 82.4825 20.139 82.346 20.4697L82.3135 20.233C82.2648 20.1913 82.2615 20.5185 82.2128 20.4001C82.2258 20.2539 82.1478 20.2783 82.1901 20.1391C82.0764 19.9024 81.9139 20.4488 81.771 20.0485C81.719 20.334 81.6443 20.1564 81.6053 20.3688C81.6053 20.2435 81.4396 20.3374 81.55 20.0729C81.5598 20.052 81.5728 20.0555 81.5695 20.1042L81.589 19.9337C81.5143 19.6065 81.4071 20.1008 81.3161 20.0451C81.3421 20.1042 81.3779 20.0903 81.3486 20.2052L81.2641 20.1773L81.2901 20.0346L81.1667 19.9441L81.1732 20.1216C81.1147 20.0277 81.1115 19.7248 81.0237 19.972C80.9848 20.1112 81.0692 20.2156 81.001 20.2643C80.923 20.139 80.8061 19.9476 80.7021 19.8884C80.7021 20.0869 80.6729 20.0799 80.6404 20.1181L80.6469 19.9441C80.5169 20.1773 80.6274 19.5612 80.5007 19.7457L80.5169 19.6274L80.465 19.9858C80.3415 20.3235 80.4292 19.6238 80.2895 20.0833C80.335 20.0555 80.2895 20.4662 80.2375 20.3862L80.2603 20.2191C80.2278 20.2539 80.2148 20.32 80.1953 20.2852C80.218 20.1947 80.218 20.0416 80.1726 20.0695L80.2148 19.8641L80.1108 20.1668C80.0556 19.9824 79.9386 20.2017 79.9224 19.965C79.9224 19.965 79.7859 19.8397 79.7405 20.0972C79.7794 19.9406 79.7015 19.871 79.7372 19.6865C79.6917 19.8641 79.5748 20.0067 79.539 19.8118L79.5488 19.791C79.3994 19.5821 79.2597 20.0451 79.1265 19.7945C79.1232 19.9963 79.0517 19.8815 79.055 20.1391C78.8925 20.3827 78.8113 19.5995 78.7139 20.3897C78.6424 20.428 78.6424 20.1982 78.6099 20.1565L78.6294 20.1147C78.4994 20.1704 78.4604 20.1774 78.3662 20.153C78.3143 20.2261 78.2883 20.5951 78.207 20.5011C78.2428 20.3549 78.2071 20.3827 78.1746 20.3792C78.1973 20.3583 78.2038 20.3026 78.1681 20.2017C78.1583 20.2469 78.1486 20.2748 78.1388 20.2957C78.1388 20.2852 78.1388 20.2748 78.1388 20.2608C78.0836 20.3096 78.0901 20.3548 78.1128 20.3757C78.1128 20.3966 78.1128 20.4279 78.1161 20.4697C78.0706 20.2783 77.9634 20.4697 77.9699 20.2191C77.8074 20.2678 77.6807 20.5184 77.5443 20.6089C77.5378 20.4766 77.5735 20.3653 77.6158 20.3166L77.5183 20.3583C77.528 20.1703 77.5768 20.2539 77.6093 20.2191C77.515 19.9093 77.3623 20.5045 77.2454 20.2191L77.2097 20.3653L77.2032 20.3409C77.1999 20.4175 77.1642 20.5219 77.1447 20.5463C77.1349 20.3827 77.1642 20.1738 77.0992 20.1773C77.057 20.0172 76.9498 20.247 76.8783 20.3305C76.914 20.3618 76.8978 20.4489 76.8783 20.5046C76.8458 20.5046 76.8361 20.3444 76.8068 20.4141L76.8165 20.1947C76.8165 20.4036 76.7191 20.4106 76.7028 20.5011C76.6931 20.3375 76.7613 20.3653 76.7743 20.2435C76.6444 20.2539 76.7093 20.2504 76.5794 20.2608C76.5014 20.421 76.5794 20.4697 76.5372 20.6577C76.4722 20.696 76.4072 20.8456 76.3422 20.7099L76.3552 20.9048C76.2318 21.0475 76.1636 21.0232 76.0986 20.8213C75.1629 22.3494 75.8062 22.9724 75.8062 22.9724C76.1213 23.4249 76.3227 22.868 76.7321 22.7427L76.7288 22.7358Z" fill="#20BB65"/>
<path d="M94.2855 21.5279L94.305 21.6115C94.305 21.5732 94.305 21.5418 94.2855 21.5279Z" fill="#20BB65"/>
<path d="M100.952 22.2282C100.952 22.2282 100.956 22.2173 100.963 22.2101C100.956 22.2173 100.956 22.221 100.952 22.2282Z" fill="#20BB65"/>
<path d="M95.0731 24.3578C95.0731 24.3578 95.0656 24.3691 95.0618 24.3803L95.0731 24.3578Z" fill="#20BB65"/>
<path d="M93.7592 23.9923C94.1003 24.128 94.162 24.5145 94.5356 24.3996C94.7045 24.4483 94.8962 24.3821 95.0684 24.3543C95.1756 24.0689 95.2893 24.3752 95.4063 24.1385L95.429 24.3091C95.468 24.229 95.5135 24.1768 95.5363 24.2708L95.5298 24.3195C95.5882 24.1977 95.6369 24.2812 95.6694 24.2186L95.663 24.2673L95.7247 24.2533L95.7085 24.323C95.8059 24.1977 95.8936 24.2011 95.9651 24.2673L95.9781 24.0654C96.1243 24.3091 96.2218 23.8983 96.3452 24.1803L96.3387 24.229C96.5759 23.7208 96.6019 24.6224 96.8455 24.142C96.8163 24.2012 96.8455 24.2464 96.839 24.2952C96.9332 24.2464 97.0339 24.229 97.0697 23.8322C97.1347 23.8461 97.1119 23.961 97.1054 24.1141C97.1217 23.9401 97.1834 23.874 97.2386 23.8705L97.2094 23.9331L97.3621 23.8914V23.5607C97.4336 23.6616 97.3458 23.961 97.427 23.8914L97.4531 23.6199C97.5538 23.686 97.5797 24.1002 97.6642 24.3126C98.0833 24.4762 98.6161 23.8357 98.967 24.3543V24.5597C98.941 24.8556 99.1197 24.1316 99.1067 24.41L99.1684 24.2812C99.1749 24.3369 99.1976 24.3961 99.1684 24.4587C99.2106 24.4761 99.2171 24.4274 99.2561 24.3404L99.2821 24.5283C99.4381 24.6919 99.62 24.3508 99.7889 24.4413C99.9644 24.8416 100.406 24.5388 100.66 24.3648C101.036 23.9575 101.29 25.1793 101.68 24.7094C101.686 24.7511 101.725 24.6606 101.728 24.6258L102.031 24.7024C102.031 24.7024 103.512 24.9774 102.654 22.3981L102.671 22.3354C102.518 22.1613 102.417 22.1126 102.261 22.4259C102.287 22.0256 102.128 22.3703 102.102 22.238L102.109 22.2066C101.972 22.5025 101.923 21.9282 101.793 22.1927C101.8 22.1614 101.816 22.0535 101.839 22.05C101.761 22.0918 101.65 22.1683 101.673 21.9386C101.491 21.9804 101.261 21.8481 101.111 22.2032L101.124 22.1405C101.033 22.3842 101.04 22.1683 100.952 22.2867C100.952 22.2554 100.949 22.2415 100.952 22.2275C100.858 22.4677 100.747 22.2449 100.679 22.3424L100.692 22.1892L100.552 22.2101L100.601 22.2484C100.539 22.6695 100.526 21.97 100.396 22.2345C100.309 22.1719 100.114 23.0942 100.039 22.8749C99.9709 23.0699 100.114 22.5582 100.029 22.7009C100.049 22.4781 100.075 22.5652 100.078 22.3877C100 22.4851 99.9903 22.1509 99.8929 22.2902L99.9059 22.1161C99.7629 22.419 99.7239 21.8656 99.62 22.1579C99.4933 22.2867 99.5973 21.6393 99.4446 21.963L99.4218 21.7262C99.3763 21.6845 99.3568 22.0083 99.3114 21.8899C99.3309 21.7437 99.2529 21.7646 99.2984 21.6289C99.1944 21.3852 99.0092 21.9282 98.8825 21.5209C98.8175 21.8029 98.7526 21.6218 98.7038 21.8342C98.7103 21.7089 98.5381 21.7959 98.6583 21.5349C98.6681 21.514 98.6811 21.5209 98.6778 21.5661L98.7071 21.3991C98.6454 21.0684 98.5187 21.5557 98.4277 21.4965C98.4504 21.5557 98.4894 21.5453 98.4537 21.6601L98.3692 21.6289L98.4017 21.4896L98.2815 21.3921V21.5696C98.2262 21.4722 98.236 21.1693 98.1385 21.413C98.0931 21.5488 98.1743 21.6567 98.1028 21.7054C98.0313 21.5766 97.9209 21.3817 97.8169 21.3155C97.8072 21.5139 97.7812 21.5035 97.7454 21.5418L97.7584 21.3678C97.622 21.594 97.7519 20.9849 97.6187 21.1624L97.6415 21.044L97.5765 21.4025C97.4401 21.7332 97.5538 21.0371 97.3978 21.493C97.4465 21.4687 97.3815 21.876 97.3361 21.7959L97.3653 21.6323C97.3328 21.6637 97.3133 21.7333 97.2971 21.695C97.3231 21.6079 97.3296 21.4547 97.2809 21.4791L97.3296 21.2738L97.2159 21.5696C97.1671 21.3851 97.0405 21.5975 97.0372 21.3573C97.0372 21.3573 96.9072 21.2285 96.8487 21.4791C96.891 21.3225 96.8195 21.2529 96.8585 21.0684C96.8065 21.2459 96.6831 21.3817 96.6571 21.1833L96.6668 21.1624C96.5239 20.9466 96.3679 21.4026 96.2445 21.1484C96.2315 21.3503 96.1665 21.232 96.1633 21.4896C95.9911 21.7263 95.9359 20.9396 95.8124 21.7262C95.7409 21.761 95.7474 21.5313 95.7182 21.4861L95.7377 21.4478C95.6045 21.5001 95.5687 21.5035 95.4745 21.4721C95.4193 21.5452 95.3803 21.9107 95.3056 21.8133C95.3446 21.6705 95.3056 21.695 95.2763 21.6915C95.2991 21.6706 95.3088 21.6184 95.2763 21.514C95.2666 21.5592 95.2536 21.5871 95.2439 21.6079C95.2439 21.5975 95.2439 21.587 95.2439 21.5731C95.1854 21.6184 95.1919 21.6671 95.2146 21.688C95.2146 21.7089 95.2114 21.7402 95.2146 21.782C95.1756 21.5871 95.0619 21.7785 95.0749 21.5279C94.9125 21.5697 94.776 21.8167 94.6363 21.9003C94.6331 21.768 94.6721 21.6567 94.7143 21.6114L94.6168 21.6497C94.6331 21.4652 94.6786 21.5488 94.7111 21.514C94.6266 21.2007 94.4544 21.7889 94.3472 21.5L94.3082 21.6427L94.3017 21.6184C94.2952 21.695 94.2562 21.7993 94.2367 21.8202C94.2302 21.6566 94.2692 21.4478 94.2043 21.4513C94.1653 21.2912 94.0515 21.5139 93.9768 21.594C94.0093 21.6253 93.9931 21.7124 93.9703 21.7681C93.9378 21.7681 93.9313 21.6044 93.9021 21.6741L93.9184 21.4548C93.9151 21.6637 93.8144 21.6671 93.7949 21.7541C93.7884 21.5905 93.8566 21.6218 93.8761 21.5C93.7462 21.507 93.8112 21.5 93.678 21.5105C93.5967 21.6671 93.6747 21.7193 93.626 21.9073C93.561 21.9421 93.4895 22.0883 93.431 21.9491L93.4375 22.144C93.3108 22.2832 93.2426 22.2519 93.1841 22.0465C92.2063 23.5329 92.8332 24.1872 92.8332 24.1872C93.1321 24.6537 93.3498 24.1072 93.7592 23.9992V23.9923Z" fill="#20BB65"/>
<path d="M111.348 23.8044L111.361 23.8879C111.368 23.8497 111.364 23.8183 111.348 23.8044Z" fill="#20BB65"/>
<path d="M117.946 25.246C117.946 25.246 117.954 25.2352 117.957 25.228C117.95 25.2316 117.946 25.2388 117.946 25.246Z" fill="#20BB65"/>
<path d="M111.898 26.683C111.898 26.683 111.891 26.6938 111.887 26.701L111.902 26.683H111.898Z" fill="#20BB65"/>
<path d="M110.627 26.2131C110.955 26.3732 110.984 26.7631 111.364 26.6796C111.53 26.7422 111.725 26.6935 111.897 26.6796C112.027 26.4046 112.115 26.7179 112.251 26.4951L112.258 26.6657C112.303 26.5891 112.352 26.5403 112.368 26.6378L112.358 26.6865C112.427 26.5716 112.469 26.6586 112.505 26.5994L112.495 26.6482L112.557 26.6378L112.534 26.7039C112.641 26.589 112.729 26.5995 112.794 26.6726L112.823 26.4742C112.943 26.7283 113.08 26.3314 113.177 26.6238L113.167 26.6726C113.45 26.1888 113.392 27.0903 113.674 26.6343C113.639 26.69 113.665 26.7387 113.655 26.7874C113.752 26.7491 113.853 26.7422 113.928 26.3523C113.989 26.3732 113.957 26.4846 113.937 26.6378C113.97 26.4672 114.038 26.4081 114.09 26.4081L114.054 26.4672L114.207 26.4393L114.24 26.1122C114.298 26.2201 114.184 26.509 114.272 26.4463L114.324 26.1783C114.418 26.2549 114.402 26.6726 114.464 26.8919C114.86 27.1007 115.451 26.5264 115.744 27.0868L115.718 27.2922C115.666 27.5846 115.916 26.8849 115.874 27.1599L115.948 27.038C115.948 27.0937 115.965 27.1564 115.929 27.2156C115.968 27.2365 115.981 27.1913 116.03 27.1077L116.036 27.2991C116.173 27.4801 116.387 27.1669 116.546 27.2783C116.673 27.6995 117.141 27.4592 117.41 27.3235C117.829 26.9719 117.927 28.225 118.366 27.8177C118.366 27.863 118.414 27.776 118.424 27.7447L118.71 27.8665C118.71 27.8665 119.061 27.9953 119.35 27.79C119.639 27.5811 119.879 27.0416 119.623 25.6875L119.646 25.6284C119.519 25.4265 119.421 25.3638 119.226 25.6492C119.304 25.2558 119.1 25.5726 119.09 25.4334L119.103 25.4021C118.931 25.6736 118.954 25.0958 118.791 25.3359C118.801 25.3046 118.83 25.2002 118.853 25.2002C118.768 25.2316 118.651 25.2907 118.7 25.0609C118.515 25.0749 118.301 24.9043 118.109 25.2385L118.132 25.1793C118.015 25.4056 118.044 25.1932 117.943 25.3011C117.943 25.2698 117.943 25.2524 117.95 25.242C117.826 25.4647 117.742 25.228 117.664 25.315L117.693 25.1619H117.55L117.592 25.2071C117.482 25.6178 117.547 24.9217 117.391 25.1654C117.31 25.0888 117.014 25.9799 116.965 25.7536C116.878 25.9381 117.076 25.4473 116.975 25.5796C117.021 25.3638 117.037 25.4508 117.056 25.2733C116.969 25.3603 116.995 25.0261 116.881 25.1514L116.913 24.9809C116.738 25.2628 116.757 24.7094 116.624 24.9844C116.484 25.0958 116.657 24.4658 116.471 24.7651V24.5249C116.432 24.4761 116.38 24.7964 116.348 24.6711C116.38 24.5284 116.303 24.5389 116.364 24.4101C116.286 24.156 116.046 24.6711 115.958 24.2499C115.864 24.5214 115.815 24.3369 115.747 24.5388C115.766 24.417 115.585 24.4797 115.731 24.236C115.744 24.2151 115.757 24.222 115.747 24.2708L115.792 24.1072C115.763 23.773 115.588 24.2394 115.503 24.1698C115.52 24.2325 115.559 24.2256 115.513 24.3335L115.432 24.2917L115.477 24.156L115.364 24.0446L115.347 24.2221C115.302 24.1177 115.338 23.8183 115.217 24.048C115.159 24.1768 115.23 24.2952 115.152 24.3335C115.091 24.1977 115 23.9888 114.902 23.9122C114.873 24.1107 114.847 24.0968 114.808 24.1281L114.837 23.9575C114.678 24.1664 114.867 23.5746 114.717 23.7382L114.75 23.6234L114.652 23.9715C114.486 24.2848 114.665 23.606 114.464 24.0411C114.516 24.0202 114.412 24.4205 114.373 24.3335L114.418 24.1733C114.382 24.2012 114.357 24.2673 114.344 24.2291C114.379 24.1455 114.399 23.9923 114.347 24.0097L114.415 23.8114L114.272 24.0933C114.24 23.9018 114.093 24.1002 114.11 23.8635C114.11 23.8635 113.989 23.7208 113.911 23.9645C113.97 23.8148 113.902 23.7382 113.96 23.5572C113.892 23.7278 113.755 23.8496 113.746 23.6512L113.759 23.6304C113.635 23.4041 113.437 23.8392 113.336 23.5711C113.307 23.7695 113.252 23.6477 113.223 23.9018C113.031 24.1211 113.044 23.3344 112.852 24.1037C112.778 24.1316 112.804 23.9053 112.778 23.8566L112.8 23.8183C112.664 23.8565 112.625 23.8565 112.534 23.8183C112.472 23.8844 112.404 24.2465 112.336 24.142C112.388 24.0028 112.349 24.0236 112.316 24.0167C112.339 23.9993 112.355 23.9471 112.332 23.8426C112.319 23.8879 112.306 23.9123 112.293 23.9331C112.293 23.9227 112.294 23.9123 112.3 23.8984C112.238 23.9402 112.242 23.9854 112.261 24.0097C112.255 24.0306 112.255 24.0585 112.255 24.1002C112.232 23.9018 112.102 24.0828 112.138 23.8322C111.969 23.86 111.813 24.0932 111.667 24.1629C111.673 24.0306 111.722 23.9262 111.77 23.8845L111.67 23.9122C111.702 23.7278 111.741 23.8183 111.777 23.787C111.715 23.4702 111.498 24.041 111.413 23.7417L111.361 23.881V23.8566C111.345 23.9332 111.299 24.0341 111.277 24.055C111.283 23.8914 111.338 23.686 111.273 23.6825C111.247 23.5189 111.117 23.7313 111.036 23.8079C111.069 23.8427 111.043 23.9297 111.017 23.9819C110.984 23.9819 110.991 23.8183 110.955 23.881L110.987 23.6651C110.968 23.8705 110.867 23.8705 110.841 23.9541C110.848 23.7905 110.913 23.8253 110.942 23.7069C110.809 23.7034 110.877 23.7069 110.744 23.7C110.65 23.8496 110.724 23.9053 110.659 24.0898C110.591 24.1211 110.51 24.2604 110.461 24.1176L110.451 24.3126C110.315 24.4414 110.25 24.4065 110.205 24.1977C109.116 25.6109 109.691 26.3036 109.691 26.3036C109.954 26.7875 110.211 26.2583 110.627 26.1818V26.2131Z" fill="#20BB65"/>
<path d="M128.005 28.8516L127.998 28.9386C128.012 28.9038 128.019 28.8725 128.005 28.8516Z" fill="#20BB65"/>
<path d="M133.957 32.573C133.957 32.573 133.967 32.5694 133.973 32.5622C133.967 32.5622 133.96 32.5694 133.957 32.573Z" fill="#20BB65"/>
<path d="M127.843 31.786C127.843 31.786 127.833 31.7968 127.829 31.8004L127.846 31.786H127.843Z" fill="#20BB65"/>
<path d="M126.757 31.0027C127.033 31.2394 126.965 31.6258 127.342 31.6433C127.482 31.7442 127.673 31.7511 127.839 31.7859C128.031 31.5562 128.034 31.8834 128.219 31.7024L128.18 31.8695C128.242 31.8103 128.3 31.7755 128.291 31.8695L128.268 31.9112C128.362 31.8207 128.378 31.9112 128.427 31.8695L128.404 31.9112L128.466 31.9182L128.427 31.9739C128.557 31.8939 128.638 31.9286 128.677 32.0191L128.759 31.8381C128.804 32.1166 129.038 31.7789 129.048 32.0852L129.025 32.1271C129.421 31.7511 129.119 32.59 129.509 32.2454C129.46 32.2872 129.47 32.3429 129.447 32.3846C129.548 32.3812 129.642 32.4021 129.827 32.0575C129.879 32.0957 129.814 32.1932 129.753 32.329C129.834 32.1758 129.915 32.1445 129.964 32.1619L129.912 32.2071L130.065 32.2315L130.195 31.9321C130.217 32.0539 130.026 32.2871 130.126 32.2593L130.253 32.0226C130.318 32.127 130.178 32.5169 130.169 32.7432C130.464 33.0634 131.195 32.7362 131.273 33.3697L131.182 33.5508C131.033 33.8049 131.501 33.2444 131.367 33.4845L131.475 33.3975C131.458 33.4497 131.449 33.5125 131.397 33.5542C131.426 33.589 131.452 33.5472 131.523 33.4915L131.462 33.6725C131.517 33.8918 131.822 33.683 131.923 33.8466C131.884 34.2817 132.381 34.2399 132.673 34.233C133.187 34.0937 132.764 35.2598 133.307 35.0858C133.287 35.1241 133.365 35.0718 133.388 35.0474L133.58 35.2877C133.58 35.2877 133.642 35.3538 133.745 35.4164C133.846 35.4791 133.989 35.5383 134.161 35.5209C134.496 35.4756 134.974 35.1485 135.334 33.8083L135.38 33.7665C135.35 33.5159 135.285 33.4114 134.99 33.5646C135.224 33.2513 134.905 33.4288 134.954 33.3035L134.977 33.2827C134.707 33.4359 134.964 32.9276 134.714 33.0669C134.736 33.046 134.805 32.9624 134.827 32.9764C134.736 32.9624 134.603 32.959 134.74 32.7745C134.561 32.6945 134.424 32.4334 134.116 32.6492L134.158 32.6039C133.96 32.757 134.067 32.5761 133.937 32.6283C133.95 32.6004 133.957 32.5865 133.963 32.5761C133.765 32.7258 133.775 32.4647 133.668 32.5135L133.752 32.3881L133.616 32.3255L133.642 32.3846C133.388 32.7118 133.703 32.1026 133.466 32.2558C133.417 32.1479 132.82 32.8441 132.855 32.6143C132.709 32.7466 133.066 32.3777 132.924 32.4577C133.044 32.2767 133.028 32.3637 133.109 32.2106C132.995 32.2524 133.138 31.9565 132.985 32.0226L133.076 31.8799C132.813 32.0679 133.021 31.5597 132.8 31.7615C132.628 31.8068 133.008 31.2881 132.725 31.4935L132.807 31.2708C132.784 31.2081 132.625 31.4866 132.638 31.3578C132.719 31.236 132.638 31.2151 132.738 31.1211C132.745 30.8496 132.348 31.2359 132.397 30.8078C132.222 31.0271 132.232 30.8357 132.102 30.9993C132.16 30.8914 131.962 30.8809 132.183 30.7103C132.202 30.6964 132.212 30.7104 132.186 30.7486L132.28 30.6128C132.355 30.2822 132.037 30.6581 131.981 30.5607C131.981 30.6268 132.017 30.6338 131.939 30.7208L131.874 30.6477L131.962 30.5363L131.887 30.3866L131.816 30.5467C131.803 30.4319 131.929 30.1604 131.741 30.3344C131.644 30.4354 131.679 30.5746 131.592 30.5816C131.575 30.4284 131.546 30.1986 131.475 30.0907C131.39 30.2682 131.367 30.2474 131.322 30.2648L131.4 30.1116C131.182 30.2543 131.54 29.7566 131.348 29.8575L131.413 29.7601L131.215 30.056C130.961 30.2961 131.332 29.7114 131.01 30.056C131.065 30.056 130.854 30.4006 130.838 30.3031L130.929 30.1639C130.883 30.1778 130.844 30.2334 130.841 30.1917C130.9 30.1221 130.961 29.9864 130.906 29.9864L131.029 29.8192L130.812 30.042C130.835 29.8506 130.636 29.9898 130.718 29.767C130.718 29.767 130.64 29.5895 130.493 29.7984C130.591 29.6731 130.545 29.5756 130.649 29.4224C130.536 29.5617 130.37 29.6348 130.412 29.4433L130.428 29.4294C130.367 29.1683 130.058 29.5199 130.026 29.2344C129.944 29.4154 129.922 29.2797 129.827 29.5199C129.584 29.6696 129.795 28.9177 129.412 29.5965C129.33 29.5999 129.415 29.3911 129.402 29.3354L129.434 29.3075C129.291 29.3006 129.252 29.2901 129.171 29.2275C129.096 29.2727 128.937 29.6034 128.895 29.4816C128.979 29.3632 128.937 29.3702 128.908 29.3563C128.937 29.3459 128.963 29.3006 128.967 29.1927C128.944 29.231 128.924 29.2519 128.905 29.2693C128.908 29.2588 128.911 29.2484 128.918 29.2344C128.846 29.2553 128.837 29.3006 128.853 29.3319C128.843 29.3528 128.833 29.3772 128.824 29.4189C128.85 29.2205 128.677 29.3563 128.772 29.1265C128.603 29.1022 128.391 29.2867 128.232 29.3145C128.268 29.1892 128.343 29.0987 128.398 29.0709H128.291C128.365 28.9003 128.382 28.9978 128.424 28.9769C128.437 28.6497 128.093 29.144 128.076 28.8307L127.995 28.9525V28.9282C127.969 28.9978 127.901 29.0813 127.872 29.0952C127.917 28.9386 128.018 28.7541 127.953 28.7332C127.966 28.5661 127.787 28.7402 127.69 28.7924C127.712 28.8341 127.667 28.9107 127.631 28.956C127.599 28.9455 127.644 28.7889 127.592 28.8446L127.673 28.6427C127.608 28.8376 127.511 28.8098 127.466 28.8864C127.508 28.7297 127.566 28.782 127.618 28.6706C127.488 28.6323 127.553 28.6496 127.423 28.6114C127.297 28.7332 127.358 28.8063 127.254 28.9699C127.183 28.9838 127.069 29.0953 127.053 28.9456L127.001 29.1335C126.839 29.224 126.783 29.1753 126.783 28.9629C126.101 29.5164 125.874 30.0002 125.805 30.3448C125.74 30.6859 125.838 30.8878 125.838 30.8878C125.981 31.4169 126.338 30.9644 126.751 30.9958L126.757 31.0027Z" fill="#20BB65"/>
<path d="M139.704 41.5289L139.635 41.5637C139.668 41.5533 139.697 41.5428 139.704 41.5289Z" fill="#20BB65"/>
<path d="M137.403 42.0162C137.355 42.1972 137.02 42.3294 137.196 42.4478C137.183 42.5313 137.28 42.5905 137.338 42.6567C137.615 42.6288 137.361 42.7541 137.595 42.7472L137.446 42.7993C137.527 42.7993 137.582 42.7994 137.501 42.8342L137.455 42.8446C137.576 42.8446 137.511 42.8794 137.572 42.8794L137.527 42.8864L137.553 42.9073L137.488 42.9177C137.618 42.9316 137.631 42.9699 137.582 43.0152L137.767 42.9734C137.572 43.0883 137.962 43.043 137.728 43.1579L137.683 43.1649C138.186 43.1649 137.371 43.3598 137.849 43.3668C137.79 43.3668 137.754 43.3876 137.709 43.3946C137.767 43.4259 137.803 43.4677 138.17 43.4085C138.17 43.4398 138.06 43.4503 137.917 43.4782C138.076 43.4538 138.147 43.4677 138.16 43.492H138.095L138.16 43.5513L138.463 43.492C138.381 43.5442 138.092 43.5582 138.173 43.5825L138.424 43.5443C138.381 43.6035 138.004 43.687 137.823 43.7601C137.738 43.9689 138.404 44.1186 137.975 44.3518L137.787 44.3762C137.511 44.404 138.203 44.3901 137.946 44.4215L138.076 44.4319C138.027 44.4424 137.975 44.4597 137.91 44.4527C137.901 44.4736 137.946 44.4702 138.03 44.4771L137.858 44.512C137.732 44.599 138.066 44.6442 138.004 44.7347C137.657 44.8565 137.988 45.0237 138.183 45.1316C138.602 45.2813 137.498 45.4796 137.972 45.6328C137.933 45.6363 138.021 45.6502 138.053 45.6502L138.014 45.7964C138.014 45.7964 137.985 45.9705 138.245 46.0888C138.505 46.2037 139.054 46.2906 140.214 46.0156L140.275 46.0226C140.425 45.9356 140.461 45.8765 140.152 45.8068C140.526 45.7999 140.191 45.7303 140.311 45.7129H140.34C140.051 45.6572 140.581 45.598 140.324 45.5458C140.353 45.5458 140.457 45.5458 140.464 45.5597C140.418 45.5214 140.334 45.4657 140.552 45.4622C140.493 45.3683 140.591 45.2325 140.243 45.1803H140.305C140.071 45.1559 140.269 45.1385 140.149 45.1037C140.178 45.1037 140.191 45.0967 140.204 45.0967C139.97 45.0654 140.165 44.9888 140.064 44.9644L140.207 44.9575L140.171 44.8844L140.142 44.9122C139.746 44.9192 140.389 44.8461 140.129 44.8043C140.178 44.7486 139.297 44.7487 139.489 44.686C139.301 44.6721 139.791 44.686 139.648 44.6616C139.856 44.6477 139.778 44.6721 139.944 44.6512C139.843 44.6199 140.152 44.5781 140.009 44.5433L140.171 44.5293C139.873 44.491 140.376 44.404 140.093 44.3831C139.957 44.3344 140.568 44.3031 140.249 44.2648L140.467 44.223C140.5 44.1917 140.197 44.223 140.301 44.1882C140.438 44.1778 140.409 44.1395 140.539 44.1465C140.75 44.056 140.223 44.0351 140.578 43.9063C140.308 43.9133 140.464 43.8506 140.262 43.8575C140.379 43.8436 140.272 43.7636 140.529 43.7879C140.548 43.7879 140.548 43.7984 140.503 43.8019L140.662 43.7914C140.954 43.7044 140.49 43.7148 140.529 43.6556C140.477 43.6765 140.493 43.6974 140.386 43.6939L140.402 43.6453L140.535 43.6383L140.604 43.5582L140.441 43.5895C140.522 43.5443 140.798 43.4955 140.561 43.4851C140.428 43.4851 140.344 43.5477 140.288 43.5164C140.396 43.4572 140.558 43.3633 140.597 43.2937C140.412 43.325 140.418 43.3076 140.379 43.2972L140.539 43.2728C140.308 43.2414 140.889 43.1962 140.701 43.1614L140.815 43.1509L140.477 43.1858C140.152 43.1788 140.805 43.1022 140.363 43.1092C140.392 43.1301 140.012 43.1753 140.077 43.1335L140.233 43.1162C140.197 43.1057 140.132 43.1092 140.165 43.0918C140.249 43.0918 140.389 43.0605 140.36 43.0396L140.555 43.0257H140.266C140.425 42.9595 140.21 42.9386 140.425 42.8864C140.425 42.8864 140.519 42.7889 140.279 42.8133C140.428 42.8028 140.48 42.7506 140.656 42.7297C140.487 42.7402 140.34 42.7054 140.513 42.6462H140.532C140.701 42.5209 140.256 42.5418 140.464 42.42C140.279 42.4618 140.373 42.3991 140.139 42.4582C139.892 42.4269 140.591 42.2077 139.86 42.3364C139.814 42.3086 140.022 42.2564 140.054 42.2285H140.093C140.022 42.1728 140.009 42.1554 140.015 42.0997C139.941 42.0892 139.603 42.1658 139.674 42.0997C139.811 42.0823 139.782 42.0719 139.778 42.0545C139.801 42.0614 139.853 42.0544 139.937 42.0092C139.895 42.0161 139.869 42.0162 139.847 42.0162C139.856 42.0162 139.866 42.0127 139.879 42.0092C139.827 41.9918 139.785 42.0092 139.769 42.0231C139.749 42.0266 139.723 42.0336 139.687 42.0475C139.853 41.9779 139.658 41.971 139.886 41.9118C139.814 41.8387 139.564 41.8387 139.46 41.7934C139.577 41.7551 139.684 41.7446 139.733 41.7516L139.678 41.7134C139.847 41.6681 139.782 41.7134 139.817 41.7238C140.077 41.5915 139.515 41.6751 139.749 41.5393L139.613 41.5602L139.635 41.5498C139.564 41.5707 139.466 41.581 139.44 41.5776C139.583 41.5253 139.778 41.4836 139.762 41.4523C139.895 41.3862 139.674 41.3931 139.583 41.3827C139.564 41.4071 139.479 41.4244 139.427 41.4314C139.418 41.4175 139.561 41.3653 139.496 41.3688L139.694 41.3095C139.509 41.3722 139.483 41.3235 139.398 41.3409C139.541 41.2887 139.531 41.3305 139.642 41.3026C139.606 41.24 139.622 41.2713 139.587 41.2087C139.427 41.2191 139.401 41.2712 139.226 41.306C139.181 41.2852 139.034 41.2991 139.145 41.226L138.973 41.2922C138.823 41.2783 138.833 41.2364 138.999 41.1425C138.229 41.1599 137.745 41.3131 137.446 41.4418C137.147 41.5741 137.04 41.689 137.04 41.689C136.695 41.957 137.222 41.863 137.403 42.0022V42.0162Z" fill="#20BB65"/>
<path d="M130.931 47.5229C131.016 47.5856 131.104 47.4394 131.078 47.4638C131.052 47.4046 130.957 47.516 130.931 47.5229Z" fill="#00B14F"/>
<path d="M132.342 49.5145C132.322 49.6213 132.276 49.4362 132.342 49.5145Z" fill="#00B14F"/>
<path d="M133.05 50.5965C133.092 50.5721 133.128 50.4747 133.17 50.4225L133.066 50.3807C133.066 50.4434 133.102 50.5408 133.046 50.5965H133.05Z" fill="#00B14F"/>
<path d="M133.173 50.4225L133.326 50.4852C133.258 50.3738 133.209 50.3808 133.173 50.4225Z" fill="#00B14F"/>
<path d="M133.378 51.0525L133.238 51.0595L133.462 51.0665L133.378 51.0525Z" fill="#00B14F"/>
<path d="M133.612 51.338C133.501 51.3519 133.537 51.512 133.453 51.4981C133.524 51.5677 133.641 51.5851 133.745 51.599C133.664 51.5608 133.622 51.4807 133.615 51.338H133.612Z" fill="#00B14F"/>
<path d="M133.904 51.6303C133.862 51.6129 133.803 51.606 133.745 51.5956C133.787 51.6164 133.839 51.6303 133.904 51.6303Z" fill="#00B14F"/>
<path d="M133.41 50.8889L133.485 50.7497C133.485 50.7497 133.462 50.7184 133.453 50.701C133.436 50.7288 133.388 50.7984 133.41 50.8855V50.8889Z" fill="#00B14F"/>
<path d="M133.488 50.7462C133.521 50.8053 133.547 50.8402 133.557 50.8576C133.547 50.8436 133.527 50.8123 133.492 50.7462H133.488Z" fill="#00B14F"/>
<path d="M133.446 50.6908L133.458 50.7024C133.458 50.7024 133.469 50.6793 133.446 50.6908Z" fill="#00B14F"/>
<path d="M133.365 50.4469L133.54 50.5165L133.472 50.3703C133.446 50.3981 133.42 50.4538 133.365 50.4469Z" fill="#00B14F"/>
<path d="M133.618 50.5513L133.54 50.5165L133.563 50.5721L133.618 50.5513Z" fill="#00B14F"/>
<path d="M133.849 51.331C133.937 51.3449 133.982 51.4006 134.041 51.4598C134.008 51.3693 133.966 51.2857 133.914 51.2161C133.872 51.2335 133.787 51.2544 133.849 51.331Z" fill="#00B14F"/>
<path d="M133.683 51.0388L133.7 51.046C133.7 51.046 133.7 51.0208 133.683 51.0388Z" fill="#00B14F"/>
<path d="M134.522 52.1186C134.522 52.1186 134.532 52.1006 134.535 52.0898L134.515 52.1042L134.525 52.1186H134.522Z" fill="#00B14F"/>
<path d="M133.924 51.1882C133.904 51.1151 133.855 51.1082 133.8 51.1047C133.839 51.136 133.878 51.1709 133.914 51.2161C133.933 51.2092 133.943 51.1987 133.927 51.1882H133.924Z" fill="#00B14F"/>
<path d="M134.089 51.7696C134.089 51.7209 134.089 51.6756 134.08 51.6268C134.067 51.6825 134.054 51.7835 134.089 51.7696Z" fill="#00B14F"/>
<path d="M133.681 51.0873H133.671C133.66 51.1248 133.671 51.1098 133.681 51.0873Z" fill="#00B14F"/>
<path d="M133.68 51.0873C133.716 51.1012 133.758 51.1012 133.8 51.1012C133.768 51.0769 133.732 51.056 133.696 51.0421C133.696 51.056 133.686 51.0734 133.68 51.0838V51.0873Z" fill="#00B14F"/>
<path d="M134.372 51.8462L134.323 51.8044C134.349 51.8774 134.339 51.9541 134.317 52.0968C134.427 52.1385 134.479 52.1246 134.518 52.1037L134.349 51.8427H134.378L134.372 51.8462Z" fill="#00B14F"/>
<path d="M134.482 52.1873L134.349 52.2604L134.596 52.236L134.482 52.1873Z" fill="#00B14F"/>
<path d="M134.583 52.5145L134.694 52.5319L134.69 52.4379L134.583 52.5145Z" fill="#00B14F"/>
<path d="M140.551 57.0221C140.727 56.9943 140.993 56.9595 140.876 56.869L140.746 56.8029C140.688 56.9212 140.619 56.9873 140.554 57.0221H140.551Z" fill="#00B14F"/>
<path d="M136.698 55.0799C136.708 55.1913 136.734 55.2643 136.766 55.32C136.766 55.1773 136.805 55.0242 136.698 55.0799Z" fill="#00B14F"/>
<path d="M147.157 48.1328C147.163 48.08 147.14 48.0589 147.098 48.066C147.088 48.1187 147.101 48.1503 147.157 48.1328Z" fill="#00B14F"/>
<path d="M136.766 55.3235C136.766 55.4279 136.795 55.5288 136.925 55.5393C136.925 55.5184 136.925 55.501 136.925 55.4767C136.867 55.4384 136.812 55.3966 136.769 55.3235H136.766Z" fill="#00B14F"/>
<path d="M132.527 46.2454C132.556 46.235 132.601 46.235 132.647 46.235C132.624 46.2245 132.588 46.2245 132.527 46.2454Z" fill="#00B14F"/>
<path d="M135.416 53.5316C135.396 53.5316 135.365 53.4812 135.416 53.5316Z" fill="#00B14F"/>
<path d="M135.402 53.4056C135.402 53.4369 135.408 53.4718 135.421 53.5031C135.421 53.4857 135.415 53.4543 135.402 53.4056Z" fill="#00B14F"/>
<path d="M135.36 53.4619C135.35 53.4373 135.344 53.4197 135.334 53.4021C135.311 53.4092 135.304 53.4267 135.36 53.4619Z" fill="#00B14F"/>
<path d="M135.477 53.604C135.451 53.5727 135.434 53.5414 135.421 53.5031C135.421 53.5205 135.421 53.5309 135.412 53.5309C135.425 53.5448 135.444 53.5658 135.473 53.604H135.477Z" fill="#00B14F"/>
<path d="M147.88 46.3881L147.991 46.336C147.673 46.2977 147.335 46.423 147.039 46.5483C147.013 46.5135 147.14 46.4613 147.185 46.4369C146.821 46.3255 146.665 46.3499 146.019 46.6075L146.129 46.4369C146.029 46.4856 145.905 46.4195 145.694 46.3603C145.489 46.3046 145.181 46.2594 144.892 46.3603C144.901 46.3395 144.921 46.3081 144.97 46.2838C144.804 46.3325 144.648 46.329 144.479 46.3011C144.362 46.2733 144.255 46.2281 144.151 46.1933C143.943 46.1237 143.768 46.1097 143.693 46.423L143.43 46.5761C143.771 46.6283 143.378 46.8476 143.517 46.9521C143.384 46.9869 143.173 46.7607 143.335 46.7293L143.361 46.7606C143.423 46.4334 142.939 46.6423 142.949 46.4195C142.276 46.4299 141.623 46.2454 140.996 46.2245L141.068 46.4786L140.85 46.4613C140.792 46.4021 140.775 46.2629 140.931 46.2733C140.85 46.1271 140.668 46.3917 140.665 46.4474C140.36 46.3429 140.785 46.1515 140.694 46.1445L140.567 46.1619L140.597 46.1933C140.493 46.2977 140.483 46.4055 140.295 46.3916C140.174 46.3394 140.236 46.235 140.187 46.2245C140.187 46.2071 140.171 46.1967 140.116 46.2176L139.84 46.1933L139.94 46.3778C139.849 46.423 139.58 46.3916 139.32 46.4056C139.057 46.3916 138.787 46.423 138.696 46.3778L138.797 46.1933L138.521 46.2176C138.465 46.2002 138.449 46.2071 138.449 46.2245C138.404 46.235 138.462 46.3394 138.342 46.3916C138.154 46.4055 138.144 46.2942 138.04 46.1933L138.069 46.1619L137.942 46.1445C137.848 46.1515 138.277 46.3429 137.972 46.4474C137.968 46.3917 137.786 46.1271 137.702 46.2733C137.812 46.2664 137.835 46.3324 137.816 46.3951C137.748 46.3742 137.673 46.3499 137.614 46.2907L137.634 46.2245C137.614 46.2245 137.595 46.228 137.575 46.228C137.566 46.2141 137.556 46.2037 137.549 46.1898C137.559 46.2037 137.562 46.2176 137.566 46.2315C137.296 46.2454 137.023 46.2837 136.747 46.322C136.477 46.2942 136.182 46.1689 135.879 46.2072C135.873 46.2594 135.918 46.3325 135.879 46.409C135.86 46.409 135.837 46.409 135.818 46.409L135.616 46.1445C135.529 46.1723 135.532 46.4961 135.376 46.2838C135.399 46.336 135.431 46.4125 135.373 46.4334C135.22 46.3812 135.064 46.3534 134.908 46.3394C134.824 46.1097 134.661 46.1271 134.476 46.1863C134.372 46.2211 134.265 46.2664 134.148 46.2942C133.979 46.3221 133.823 46.3255 133.657 46.2768C133.706 46.3012 133.725 46.3325 133.735 46.3534C133.557 46.2907 133.371 46.2872 133.206 46.3081C133.043 46.2663 132.878 46.2002 132.718 46.0958C132.839 46.2141 132.757 46.228 132.666 46.2315C132.718 46.2559 132.679 46.3569 132.676 46.4369C132.663 46.4404 132.65 46.4404 132.637 46.4439L132.306 46.235C132.251 46.4195 132.033 46.3185 131.926 46.3846C131.76 46.3603 131.63 46.3847 131.448 46.4369C131.494 46.4648 131.62 46.5135 131.594 46.5483C131.299 46.423 130.961 46.2977 130.642 46.336L130.753 46.3881L130.301 46.3708L130.386 46.4961C130.893 46.7432 130.867 46.8406 130.899 47.0008C130.925 47.1539 131.016 47.3872 131.503 47.5717C131.325 47.5821 131.513 47.9128 131.539 48.0624C131.568 48.0659 131.607 48.0799 131.659 48.1077C131.542 48.1808 131.685 48.334 131.848 48.4663C132.017 48.602 132.205 48.7169 132.26 48.8144C132.286 48.9606 132.163 48.9362 132.023 48.8979C132.241 49.0093 132.315 49.2042 132.384 49.4235C132.393 49.4548 132.403 49.4861 132.413 49.5174C132.4 49.507 132.384 49.4966 132.367 49.4792C132.367 49.4966 132.364 49.5001 132.361 49.5105C132.374 49.5279 132.39 49.5488 132.413 49.5906C132.419 49.5836 132.423 49.5766 132.429 49.5732C132.445 49.6289 132.462 49.681 132.478 49.7263C132.491 49.7611 132.504 49.7924 132.514 49.8168C132.517 49.8238 132.523 49.8238 132.53 49.8273C132.53 49.8829 132.559 49.9526 132.514 49.9456C132.624 50.0222 132.65 49.97 132.673 49.8586C132.702 49.8377 132.735 49.8063 132.764 49.7785L132.816 49.8029C132.832 49.7681 132.868 49.7298 132.793 49.7542C132.809 49.7402 132.826 49.7298 132.845 49.7228C132.865 49.7611 132.865 49.7959 132.855 49.8238L132.813 49.8029C132.803 49.8238 132.809 49.8377 132.848 49.8377C132.793 49.97 132.54 50.0187 132.819 50.1197C132.813 50.0744 132.783 50.0083 132.822 50.0083C132.91 50.0674 133.303 49.9421 133.443 49.9874C133.384 50.0257 133.358 50.0987 133.225 50.0744C133.28 50.0813 133.349 50.1092 133.401 50.1057C133.459 50.1928 133.592 50.2206 133.696 50.2554C133.69 50.3006 133.683 50.339 133.674 50.3633C133.696 50.332 133.712 50.2972 133.732 50.2658C133.823 50.2972 133.872 50.339 133.771 50.4469L133.638 50.5339C134.034 50.7044 133.69 50.7079 134.07 50.8994L134.086 50.8785C134.167 51.0351 134.375 50.9794 134.229 51.2161L134.167 51.1917C134.219 51.2753 134.252 51.317 134.284 51.3588C134.265 51.3588 134.245 51.3588 134.226 51.3483C134.43 51.5676 134.112 51.331 134.18 51.5572C134.128 51.5259 134.089 51.4876 134.057 51.4528C134.076 51.5085 134.089 51.5642 134.099 51.6199V51.6094C134.106 51.585 134.112 51.5747 134.112 51.5956C134.112 51.5956 134.115 51.5956 134.119 51.5956C134.135 51.5851 134.151 51.5781 134.167 51.5712C134.197 51.6617 134.148 51.606 134.119 51.5956C134.112 51.599 134.106 51.6024 134.099 51.6059L134.336 51.7974C134.314 51.7347 134.265 51.6721 134.167 51.5677C134.265 51.5329 134.359 51.5572 134.427 51.5224C134.434 51.5293 134.437 51.5363 134.447 51.5433C134.443 51.5781 134.479 51.6895 134.538 51.6791C134.46 51.7522 134.518 51.867 134.599 51.9749C134.58 52.0132 134.56 52.048 134.547 52.0828C134.577 52.062 134.609 52.041 134.664 52.048C134.736 52.1246 134.807 52.1872 134.833 52.2151C134.752 52.0584 134.872 52.0619 134.967 52.0445C134.895 52.2394 134.924 52.3091 135.103 52.3369C135.038 52.4031 134.97 52.4727 134.918 52.5423C134.902 52.5215 134.892 52.5005 134.882 52.4761C134.807 52.6223 134.866 52.5667 134.863 52.6294C134.804 52.7373 134.791 52.8486 134.872 52.967C134.876 52.9078 134.853 52.8381 134.911 52.8242C134.97 52.8103 134.963 52.9008 134.96 52.9321C135.006 52.9217 135.006 52.8591 135.045 52.8139C135.054 52.8278 135.064 52.8417 135.074 52.8556C135.061 52.9948 135.129 53.0505 135.21 53.1201C135.23 53.1828 135.246 53.2489 135.213 53.3812C135.262 53.3325 135.275 53.2455 135.343 53.3951C135.363 53.3882 135.392 53.3847 135.408 53.3847C135.408 53.3916 135.408 53.3916 135.408 53.3951V53.3812C135.408 53.3812 135.425 53.3812 135.408 53.3777C135.408 53.329 135.418 53.2803 135.438 53.2455C135.457 53.242 135.48 53.242 135.499 53.2455C135.421 53.3986 135.928 53.336 135.6 53.4961C135.694 53.5483 135.779 53.6213 135.863 53.7014C135.834 53.8058 135.824 53.8998 135.685 53.8163L135.798 53.9834C135.805 54.133 135.876 54.2862 135.983 54.328C136.016 54.4254 136.253 54.415 136.113 54.4254L136.373 54.6204L136.347 54.6483C136.519 54.9128 136.919 55.0068 136.926 55.4732C137.017 55.5324 137.117 55.5916 137.189 55.7621L137.111 55.8734C137.224 55.9535 137.254 56.2842 137.39 56.2459C137.302 56.4234 137.374 56.5523 137.507 56.7019C137.715 56.956 137.949 57.1858 138.059 57.3877L138.16 57.238C138.319 57.4712 138.504 57.6418 138.719 57.8193L138.735 57.7079C138.771 57.781 138.807 57.8611 138.846 57.9446C138.979 58.2335 139.148 58.5607 139.3 58.5746C139.3 58.5746 139.3 58.5746 139.3 58.5781C139.304 58.5781 139.307 58.5781 139.31 58.5781C139.313 58.5781 139.317 58.5781 139.32 58.5781C139.32 58.5781 139.32 58.5781 139.32 58.5746C139.473 58.5572 139.642 58.2301 139.775 57.9446C139.921 57.6348 140.028 57.3668 140.217 57.3146C140.262 57.1614 140.321 57.1196 140.389 57.0883C140.382 57.0987 140.379 57.1092 140.376 57.1196C140.386 57.1127 140.395 57.0988 140.405 57.0814C140.45 57.064 140.499 57.0465 140.551 57.0187C140.499 57.0291 140.454 57.0396 140.421 57.057C140.473 56.9804 140.548 56.8516 140.603 56.7159L140.743 56.7959C140.743 56.7959 140.753 56.7785 140.759 56.7681C140.886 56.6984 140.772 56.6253 140.645 56.5905C140.668 56.5174 140.678 56.4513 140.678 56.3887C140.935 56.4792 140.753 56.145 141.022 56.2459C140.954 56.1102 141.204 55.8352 141.019 55.6124C141.048 55.6333 141.078 55.6264 141.052 55.6646C141.133 55.609 141.217 55.5532 141.207 55.4349L141.386 55.5358L141.305 55.1877C141.477 55.1668 141.562 55.1738 141.604 55.3757C141.604 54.9754 141.685 55.1181 141.659 54.7561L141.75 54.8536C141.802 54.777 141.757 54.5438 141.873 54.5681C142.189 54.5681 142.517 53.7746 143.014 53.5031C142.656 53.329 143.293 53.4195 143.079 53.2071C143.166 53.242 143.251 53.2176 143.261 53.3395C143.355 53.0645 143.618 53.1097 143.537 52.7929C143.625 52.8278 143.605 52.9287 143.664 52.9426C143.664 52.9113 143.654 52.8208 143.712 52.8347C143.771 52.8486 143.748 52.9183 143.751 52.9774C143.907 52.7477 143.709 52.5388 143.521 52.3474C143.699 52.3195 143.729 52.2499 143.657 52.055C143.751 52.0724 143.871 52.0689 143.79 52.2255C143.858 52.1559 144.242 51.8357 144.089 51.6895C144.148 51.7 144.183 51.592 144.18 51.5537C144.32 51.3901 144.346 51.3867 144.459 51.2022L144.398 51.2266C144.255 50.9899 144.463 51.0456 144.541 50.8889L144.557 50.9098C144.934 50.7183 144.593 50.7149 144.989 50.5443L144.856 50.4573C144.619 50.2032 145.216 50.3145 145.255 50.05H145.138C145.122 49.8794 145.701 50.0883 145.808 50.0152C145.847 50.0152 145.818 50.0813 145.811 50.1266C146.162 50.0013 145.678 49.956 145.785 49.7298C145.899 49.7681 145.967 49.963 146.081 49.8482C146.097 49.8482 146.107 49.8377 146.116 49.8203C146.126 49.7959 146.139 49.7646 146.152 49.7298C146.185 49.6428 146.214 49.5314 146.25 49.427C146.318 49.2077 146.393 49.0128 146.61 48.9014C146.471 48.9432 146.344 48.964 146.373 48.8178C146.428 48.7169 146.617 48.6055 146.786 48.4698C146.951 48.3375 147.091 48.1878 146.974 48.1112C147.026 48.0834 147.065 48.0694 147.094 48.0659C147.117 47.9162 147.309 47.5891 147.13 47.5752C147.617 47.3872 147.708 47.1574 147.734 47.0042C147.764 46.8441 147.741 46.7467 148.248 46.4995L148.332 46.3743L147.88 46.3916V46.3881ZM135.269 52.1281C135.272 52.1072 135.275 52.0793 135.278 52.055C135.239 52.1489 135.2 52.2186 135.152 52.2151L135.083 51.961C135.145 51.9645 135.217 51.9784 135.285 51.9679C135.285 51.9958 135.282 52.0271 135.278 52.055C135.291 52.0271 135.304 51.9958 135.314 51.9645C135.334 51.961 135.353 51.9506 135.373 51.9402L135.438 52.0272C135.395 52.0968 135.343 52.1421 135.269 52.1247V52.1281ZM136.107 52.9391C136.107 52.9391 136.1 52.9426 136.097 52.9461C136.094 52.9356 136.087 52.9217 136.084 52.9112L136.107 52.9426V52.9391ZM138.826 56.6428L138.855 56.6845C138.846 56.7193 138.833 56.7541 138.823 56.789C138.823 56.7402 138.823 56.6915 138.823 56.6463L138.826 56.6428ZM139.759 56.688L139.788 56.6498C139.788 56.6915 139.788 56.7332 139.788 56.775C139.778 56.7472 139.768 56.7158 139.762 56.6845L139.759 56.688ZM133.472 50.05C133.472 50.05 133.472 50.0465 133.472 50.043C133.472 50.043 133.472 50.043 133.472 50.05ZM135.961 54.053C135.961 54.053 135.967 54.053 135.97 54.053C135.99 54.1852 135.983 54.1365 135.961 54.053ZM139.339 58.5154C139.339 58.5154 139.346 58.498 139.349 58.4876L139.336 58.5224C139.336 58.5224 139.32 58.5433 139.31 58.5503C139.3 58.5433 139.291 58.5329 139.284 58.5224L139.271 58.4876C139.271 58.4876 139.278 58.505 139.281 58.5154C139.255 58.4841 139.229 58.4424 139.222 58.3832C139.229 58.3937 139.239 58.404 139.245 58.4145C139.265 58.4458 139.281 58.4806 139.3 58.5085C139.304 58.505 139.307 58.498 139.31 58.4945C139.313 58.498 139.317 58.505 139.32 58.5085C139.339 58.4771 139.356 58.4458 139.375 58.4145C139.382 58.404 139.391 58.3971 139.398 58.3832C139.391 58.4424 139.365 58.4841 139.339 58.5154ZM140.155 46.2873L140.197 46.3325C140.1 46.3812 140.126 46.336 140.155 46.2873ZM141.071 54.9545L141.175 54.8188L141.298 55.1495C141.25 55.0903 141.165 55.0242 141.071 54.958V54.9545ZM143.465 52.2151C143.42 52.2186 143.381 52.1489 143.339 52.055C143.339 52.0828 143.342 52.1072 143.348 52.1281C143.303 52.1385 143.264 52.1211 143.231 52.0933L143.313 51.9889C143.322 52.0097 143.332 52.0341 143.339 52.055C143.339 52.0271 143.335 51.9923 143.332 51.961L143.368 51.9123C143.443 51.9192 143.508 51.9227 143.543 51.9193L143.462 52.2151H143.465Z" fill="#00B14F"/>
<path d="M134.937 53.0052L135.058 53.0992C135.009 53.047 135.022 53.0018 135.019 52.9565C134.993 52.9844 134.967 53.04 134.937 53.0052Z" fill="#00B14F"/>
<path d="M135.633 53.6423C135.633 53.5796 135.483 53.7293 135.506 53.6702C135.34 53.7363 135.86 53.8024 135.633 53.6423Z" fill="#00B14F"/>
<path d="M132.043 46.0505L131.909 45.9739L131.994 46.0958L132.043 46.0505Z" fill="#00B14F"/>
<path d="M131.786 46.3115L131.757 46.0853L131.675 46.2907C131.705 46.2803 131.763 46.2628 131.786 46.3115Z" fill="#00B14F"/>
<path d="M131.458 48.1328C131.514 48.1468 131.527 48.1187 131.517 48.066C131.471 48.0589 131.448 48.08 131.458 48.1328Z" fill="#00B14F"/>
</svg>
