<svg width="73" height="52" viewBox="0 0 73 52" fill="none" xmlns="http://www.w3.org/2000/svg">
<path d="M3.45783 2.38013L3.38672 2.4113C3.42227 2.40784 3.45137 2.39744 3.45783 2.38013Z" fill="#20BB65"/>
<path d="M5.23334 8.32911C5.23334 8.32911 5.24378 8.32911 5.25075 8.32538C5.24378 8.32538 5.23682 8.32538 5.23334 8.32911Z" fill="#20BB65"/>
<path d="M1.04507 3.74353C1.04507 3.74353 1.03114 3.73982 1.02417 3.73608L1.04507 3.74353Z" fill="#20BB65"/>
<path d="M1.10528 2.23063C1.03063 2.62351 0.699589 2.76605 0.87809 3.15893C0.865108 3.3571 0.978702 3.55527 1.04361 3.73954C1.32597 3.78474 1.07931 3.98988 1.32272 4.05594L1.17667 4.12548C1.26105 4.14634 1.31947 4.18111 1.24483 4.23326L1.19939 4.2402C1.32596 4.27149 1.26755 4.348 1.32921 4.3619L1.28377 4.36884L1.31622 4.43144H1.25131C1.39086 4.50445 1.41683 4.59831 1.37463 4.69566L1.55638 4.647C1.38437 4.87647 1.78358 4.85212 1.57262 5.07116L1.52718 5.0816C2.05619 5.16157 1.26429 5.49881 1.78032 5.58226C1.71541 5.57183 1.68945 5.62049 1.64401 5.63092C1.7219 5.71436 1.77708 5.80824 2.13083 5.70394C2.14381 5.77347 2.03346 5.79432 1.9004 5.84648C2.05618 5.7978 2.13733 5.83954 2.16005 5.88822L2.09189 5.88126L2.186 6.02031L2.4716 5.89516C2.40994 6.00294 2.1211 6.03075 2.21522 6.08637L2.45863 6.00642C2.44565 6.13158 2.09839 6.32281 1.95559 6.49665C1.97181 6.74698 2.18276 6.93819 2.35152 7.12941C2.51704 7.32411 2.6501 7.51883 2.53002 7.82131L2.36452 7.92213C2.11462 8.05425 2.78642 7.85607 2.55924 7.98471L2.69554 7.97429C2.65659 8.00906 2.61765 8.06119 2.55274 8.06815C2.56248 8.11682 2.60467 8.09596 2.69554 8.08901L2.55924 8.21417C2.51705 8.45059 2.88378 8.44016 2.9065 8.65224C2.70204 9.03817 3.19211 9.2885 3.48096 9.39628C3.74708 9.43453 3.68866 9.69876 3.6562 9.95952C3.6205 10.2203 3.59453 10.4915 3.89312 10.4984C3.86715 10.5332 3.95803 10.5019 3.984 10.4845L4.13977 10.787C4.13977 10.787 4.19171 10.8774 4.28907 10.9678C4.38968 11.0582 4.53248 11.1486 4.70773 11.1625C5.06473 11.1938 5.51584 10.8531 6.10003 9.65704L6.15196 9.62228C6.17468 9.39977 6.14871 9.30242 5.84039 9.40672C6.13248 9.15639 5.7982 9.27459 5.87609 9.17028L5.90206 9.1529C5.61646 9.25025 5.98645 8.84696 5.72681 8.92692C5.75277 8.91302 5.83716 8.85044 5.85339 8.86434C5.77874 8.83653 5.66189 8.8087 5.84039 8.67658C5.71057 8.57576 5.67812 8.33587 5.33735 8.44365L5.39252 8.41583C5.16534 8.49579 5.32436 8.37063 5.1913 8.37759C5.21402 8.3602 5.22376 8.3463 5.23349 8.33935C5.00307 8.41236 5.11018 8.19679 4.99983 8.20375L5.12316 8.12379C5.0907 8.0925 5.06473 8.0612 5.03552 8.02991L5.02903 8.08901C4.67527 8.28371 5.20104 7.86998 4.93492 7.92561C4.94141 7.82478 4.12678 8.18636 4.25336 8.00209C4.06837 8.05424 4.53897 7.88736 4.38318 7.89779C4.56493 7.79348 4.51301 7.85954 4.65256 7.76219C4.53573 7.75523 4.79537 7.56403 4.63634 7.56055L4.77914 7.48057C4.47407 7.52924 4.88948 7.20591 4.61037 7.27545C4.44485 7.24068 5.01605 6.99383 4.68501 7.03903L4.86675 6.90343C4.88298 6.84433 4.61037 6.99034 4.68826 6.89647C4.81483 6.83737 4.76291 6.78869 4.89597 6.76087C5.05175 6.56617 4.52923 6.67397 4.80834 6.38539C4.5487 6.46536 4.67204 6.32629 4.47407 6.38539C4.58117 6.33672 4.4416 6.2324 4.70448 6.21501C4.7272 6.21501 4.7272 6.22893 4.68501 6.24283L4.83756 6.1907C5.08746 5.996 4.63308 6.11073 4.64607 6.01338C4.60387 6.0551 4.62983 6.08291 4.51949 6.10378L4.51301 6.02031L4.64282 5.98556L4.67853 5.84648L4.52923 5.92298C4.58765 5.83606 4.85053 5.71784 4.61037 5.74218C4.47731 5.75956 4.41565 5.8743 4.35074 5.83258C4.43512 5.71784 4.56168 5.55096 4.58115 5.44318C4.4059 5.51271 4.4059 5.48491 4.36046 5.471L4.51301 5.41536C4.2696 5.38754 4.84079 5.26586 4.63957 5.22762L4.74992 5.1998L4.41888 5.27978C4.08784 5.28673 4.7272 5.13027 4.28258 5.16156C4.31828 5.19285 3.94505 5.28671 4.00022 5.21718L4.15275 5.18242C4.1138 5.16503 4.0489 5.17547 4.07486 5.14766C4.15924 5.14071 4.29555 5.08855 4.25985 5.05726L4.45459 5.02596L4.15925 5.03292C4.30529 4.92862 4.07811 4.89384 4.28582 4.80692C4.28582 4.80692 4.35722 4.65395 4.1203 4.68524C4.26959 4.67133 4.31179 4.58788 4.48704 4.56354C4.31503 4.57397 4.15925 4.5114 4.32802 4.42796H4.35074C4.50003 4.24717 4.0489 4.24716 4.24363 4.06636C4.06189 4.11156 4.14951 4.02117 3.91584 4.0907C3.65945 4.00031 4.35073 3.74651 3.61401 3.84038C3.56208 3.78476 3.77304 3.73259 3.80225 3.69434L3.84445 3.7013C3.76331 3.597 3.75357 3.56224 3.76006 3.47185C3.68217 3.44055 3.34139 3.48922 3.41279 3.39535C3.55235 3.39882 3.52314 3.37102 3.51665 3.33973C3.53937 3.35711 3.59129 3.35364 3.67568 3.30149C3.63348 3.30149 3.60751 3.298 3.58479 3.29453C3.59453 3.29453 3.60428 3.29104 3.61726 3.28757C3.56209 3.24584 3.52313 3.25975 3.50691 3.28757C3.48743 3.28757 3.45822 3.29452 3.42252 3.30843C3.59128 3.23194 3.39008 3.16589 3.62376 3.12765C3.54587 2.98858 3.29921 2.9086 3.19535 2.79039C3.31544 2.76257 3.42253 2.77996 3.47446 2.81125L3.42252 2.72781C3.59453 2.71042 3.52638 2.76953 3.56532 2.79039C3.83469 2.65479 3.26674 2.60265 3.51015 2.44967L3.3706 2.43575L3.39332 2.42533C3.32192 2.43228 3.21807 2.41142 3.19535 2.39751C3.34465 2.36622 3.54261 2.36969 3.52963 2.30711C3.67243 2.248 3.44849 2.175 3.3641 2.11589C3.34139 2.15066 3.257 2.14718 3.20183 2.13675C3.19534 2.10546 3.34463 2.07765 3.27972 2.05679L3.48418 2.03941C3.2927 2.06375 3.27324 1.96986 3.18886 1.96291C3.33815 1.9351 3.32192 2.00463 3.43551 2.00463C3.40955 1.88294 3.42253 1.94206 3.39657 1.82037C3.23754 1.76127 3.20508 1.84123 3.02333 1.82037C2.98114 1.76127 2.83185 1.7091 2.95517 1.63609L2.77343 1.66391C2.63063 1.55613 2.65012 1.48312 2.83186 1.40315C2.08541 0.989416 1.57911 0.926836 1.26105 0.992895C0.942997 1.05895 0.809928 1.25017 0.809928 1.25017C0.413982 1.6361 0.946238 1.82037 1.115 2.24801L1.10528 2.23063Z" fill="#20BB65"/>
<path d="M12.1884 14.9174L12.1722 15.0005C12.1884 14.9694 12.1981 14.9382 12.1884 14.9174Z" fill="#20BB65"/>
<path d="M17.8453 17.6332C17.8453 17.6332 17.8525 17.626 17.8597 17.6188C17.8525 17.6224 17.8489 17.6296 17.8453 17.6332Z" fill="#20BB65"/>
<path d="M11.8651 17.8206C11.8651 17.8206 11.8546 17.828 11.8477 17.8355L11.8651 17.8206Z" fill="#20BB65"/>
<path d="M10.7897 16.9517C11.0494 17.216 10.965 17.5985 11.3545 17.6471C11.494 17.7584 11.6952 17.7758 11.864 17.8175C12.0587 17.595 12.062 17.9218 12.2502 17.7445L12.2145 17.9114C12.2794 17.8523 12.3378 17.8175 12.3281 17.9149L12.3054 17.9566C12.4028 17.8662 12.419 17.9601 12.4677 17.9149L12.4449 17.9566L12.5066 17.9636L12.4677 18.0227C12.5975 17.9427 12.6819 17.974 12.7241 18.0644L12.8019 17.8801C12.8571 18.1583 13.081 17.8106 13.1038 18.1201L13.081 18.1618C13.4608 17.7654 13.2044 18.6242 13.5776 18.2522C13.5322 18.2974 13.5451 18.3496 13.5257 18.3948C13.6295 18.3808 13.7269 18.3947 13.8794 18.0366C13.9346 18.0714 13.8794 18.1722 13.8275 18.3148C13.8957 18.1548 13.9736 18.1166 14.0222 18.127L13.9768 18.1792L14.1293 18.1896L14.23 17.8766C14.2624 17.9949 14.0936 18.2487 14.191 18.2105L14.2948 17.9636C14.3695 18.0575 14.2689 18.4608 14.2851 18.6868C14.6324 18.9789 15.2977 18.5304 15.4859 19.1319L15.4275 19.3267C15.3269 19.6049 15.6839 18.9616 15.5995 19.2224L15.6904 19.1145C15.6839 19.1702 15.6904 19.2328 15.6417 19.285C15.6774 19.3128 15.6936 19.2676 15.7553 19.198L15.7326 19.3893C15.8365 19.5909 16.0928 19.3162 16.2291 19.4519C16.2941 19.89 16.7809 19.7196 17.06 19.6188C17.5046 19.3232 17.4592 20.575 17.933 20.2203C17.9298 20.2621 17.9849 20.1856 17.9979 20.1543L18.2641 20.3038C18.2641 20.3038 18.5951 20.4638 18.8937 20.2795C19.1955 20.0986 19.4519 19.5701 19.3383 18.2139L19.3643 18.1548C19.2637 17.9497 19.1825 17.8801 18.9748 18.1444C19.0884 17.7619 18.8645 18.0575 18.871 17.9219L18.8839 17.894C18.6924 18.1479 18.7801 17.5811 18.6016 17.8036C18.6146 17.7758 18.6535 17.6715 18.6762 17.675C18.5951 17.6958 18.4783 17.7445 18.5529 17.5254C18.3809 17.522 18.2056 17.3342 17.985 17.6437L18.0142 17.5845C17.8746 17.7967 17.9298 17.5915 17.8259 17.6854C17.8324 17.6541 17.8324 17.6402 17.8389 17.6263C17.6961 17.8314 17.6507 17.588 17.5663 17.668L17.615 17.522L17.4819 17.5046L17.5144 17.5533C17.3553 17.9427 17.5144 17.2681 17.3326 17.4872C17.2709 17.4037 16.8653 18.2383 16.849 18.0088C16.7387 18.1757 16.9951 17.7237 16.8815 17.8384C16.9561 17.6298 16.9594 17.7202 17.0048 17.5498C16.9107 17.6228 16.9853 17.2959 16.862 17.4072L16.9204 17.2438C16.716 17.4976 16.8198 16.9552 16.6543 17.209C16.505 17.2994 16.7711 16.7048 16.5504 16.9725L16.5959 16.7396C16.5667 16.6839 16.4628 16.9899 16.4563 16.8647C16.5115 16.7291 16.4369 16.7291 16.5147 16.6109C16.4888 16.3501 16.1772 16.8161 16.1772 16.3918C16.0409 16.6422 16.0344 16.451 15.9306 16.6387C15.9728 16.5205 15.7943 16.5553 15.976 16.3432C15.9922 16.3258 16.002 16.3362 15.9825 16.3779L16.0539 16.2249C16.0928 15.8946 15.8429 16.3223 15.7813 16.2388C15.7813 16.3014 15.8202 16.3014 15.7553 16.3988L15.6904 16.3432L15.7586 16.218L15.6807 16.0893L15.6287 16.2597C15.6093 16.1519 15.7034 15.8668 15.5476 16.0685C15.4665 16.1832 15.5086 16.3119 15.4308 16.3362C15.4048 16.1902 15.3659 15.9746 15.2945 15.8842C15.2263 16.0719 15.2068 16.0511 15.1646 16.0789L15.2263 15.9189C15.0381 16.0928 15.3366 15.5538 15.1679 15.6825L15.2231 15.5747L15.0608 15.8911C14.8433 16.1623 15.1517 15.5399 14.8758 15.9224C14.9245 15.9155 14.746 16.2771 14.7297 16.1867L14.8076 16.0406C14.7687 16.0615 14.733 16.1206 14.7297 16.0789C14.7817 16.0059 14.8336 15.8633 14.7817 15.8702L14.8888 15.6929L14.6973 15.9363C14.7103 15.7485 14.535 15.9085 14.6064 15.6825C14.6064 15.6825 14.535 15.519 14.4052 15.7381C14.4928 15.606 14.4506 15.5156 14.5448 15.3556C14.4441 15.5051 14.2916 15.5921 14.3338 15.4008L14.35 15.3834C14.2949 15.14 14.0125 15.5121 13.993 15.2339C13.9151 15.4182 13.8989 15.2861 13.808 15.526C13.5808 15.6894 13.7983 14.9418 13.4251 15.6268C13.3504 15.6338 13.4348 15.4252 13.4251 15.373L13.4543 15.3417C13.3212 15.3417 13.2888 15.3348 13.2174 15.2756C13.146 15.3243 12.9837 15.6477 12.9512 15.533C13.0356 15.4147 12.9967 15.4217 12.9707 15.4078C12.9967 15.3973 13.0259 15.3521 13.0324 15.2443C13.0097 15.2826 12.9902 15.3034 12.9707 15.3208C12.974 15.3104 12.9772 15.3035 12.9837 15.2895C12.9188 15.3104 12.9058 15.3556 12.9188 15.3869C12.909 15.4078 12.8993 15.4321 12.8863 15.4738C12.922 15.2791 12.7565 15.4147 12.8571 15.1887C12.7013 15.1679 12.4969 15.3452 12.3443 15.3695C12.3898 15.2478 12.4644 15.1609 12.5196 15.1331H12.4222C12.5066 14.9662 12.5131 15.06 12.552 15.0427C12.5942 14.7262 12.234 15.1991 12.2502 14.8931L12.1626 15.0079V14.9835C12.1334 15.0531 12.062 15.1296 12.0328 15.1435C12.0912 14.994 12.2015 14.8166 12.1463 14.7958C12.1756 14.6358 11.9938 14.7958 11.8997 14.841C11.9159 14.8827 11.8672 14.9557 11.8283 14.9974C11.7991 14.987 11.8575 14.834 11.8056 14.8827L11.9029 14.6914C11.8186 14.8792 11.7342 14.8445 11.6823 14.9175C11.7407 14.768 11.7861 14.8201 11.8478 14.7193C11.7342 14.6741 11.7926 14.6949 11.679 14.6497C11.5459 14.7575 11.5946 14.8375 11.4778 14.987C11.4096 14.994 11.2895 15.0948 11.2928 14.9488L11.2214 15.1296C11.0559 15.2026 11.0105 15.147 11.0429 14.9383C10.3192 15.4008 10.0108 15.832 9.89725 16.1589C9.78366 16.4857 9.8583 16.7013 9.8583 16.7013C9.94593 17.2577 10.3678 16.8648 10.78 16.9413L10.7897 16.9517Z" fill="#20BB65"/>
<path d="M27.163 20.9914V21.078C27.1768 21.0433 27.1768 21.0087 27.163 20.9914Z" fill="#20BB65"/>
<path d="M33.2255 22.9423C33.2255 22.9423 33.2327 22.9351 33.2363 22.9279C33.2291 22.9315 33.2255 22.9387 33.2255 22.9423Z" fill="#20BB65"/>
<path d="M27.3533 23.9049C27.3496 23.9124 27.3458 23.9161 27.3384 23.9236L27.3533 23.9049Z" fill="#20BB65"/>
<path d="M26.1928 23.2933C26.4849 23.4915 26.4687 23.881 26.8419 23.8428C26.9912 23.9228 27.1827 23.8949 27.3514 23.9019C27.504 23.6445 27.5559 23.9645 27.7084 23.7558L27.6955 23.9262C27.7474 23.8567 27.7993 23.8115 27.8058 23.9088L27.7896 23.954C27.8675 23.8462 27.8999 23.9367 27.9389 23.8845L27.9226 23.9297H27.9843L27.9551 23.9888C28.0687 23.888 28.1531 23.9053 28.205 23.9888L28.2537 23.7941C28.3445 24.0584 28.5133 23.6759 28.5782 23.9784L28.562 24.0236C28.88 23.5715 28.7372 24.4582 29.0521 24.034C29.0131 24.0862 29.0326 24.1349 29.0196 24.1835C29.117 24.1557 29.2143 24.1557 29.3214 23.7767C29.3799 23.801 29.3377 23.9123 29.302 24.0618C29.3474 23.8949 29.4188 23.8427 29.4707 23.8497L29.4318 23.9053L29.5811 23.8915L29.6427 23.5681C29.6882 23.6828 29.5519 23.9575 29.6427 23.9019L29.7174 23.6411C29.8018 23.7245 29.7466 24.1383 29.7855 24.3609C30.149 24.6008 30.7624 24.0757 30.9993 24.653L30.9604 24.8546C30.8857 25.1432 31.1811 24.4652 31.1194 24.7329L31.2005 24.6182C31.2005 24.6738 31.207 24.7364 31.1681 24.7921C31.2038 24.8164 31.22 24.7712 31.2719 24.6912L31.2655 24.8825C31.3823 25.0703 31.6127 24.7712 31.7555 24.8964C31.8496 25.3241 32.3137 25.112 32.5831 24.9868C33.005 24.6599 33.031 25.9083 33.4756 25.5223C33.4756 25.5675 33.5275 25.4841 33.534 25.4493L33.8034 25.5814C33.8034 25.5814 35.1373 26.1378 34.7738 23.4359L34.7998 23.3768C34.6894 23.1751 34.6018 23.1091 34.4071 23.3872C34.4979 22.9978 34.2935 23.3073 34.2902 23.1716L34.3032 23.1404C34.1247 23.4046 34.1799 22.8309 34.0144 23.0673C34.0273 23.0395 34.0598 22.9317 34.0825 22.9352C34.0014 22.963 33.8878 23.0187 33.9462 22.7926C33.771 22.7996 33.5827 22.6257 33.3783 22.9491L33.4042 22.89C33.2776 23.1126 33.3198 22.9004 33.2192 23.0013C33.2225 22.97 33.2225 22.956 33.229 22.9421C33.0991 23.1577 33.0342 22.9213 32.9563 23.0047L32.9953 22.8552L32.8622 22.8483L32.9012 22.8969C32.7681 23.3003 32.8784 22.6118 32.7129 22.8448C32.6415 22.7648 32.3008 23.6341 32.2683 23.4081C32.1709 23.5855 32.3949 23.1091 32.2878 23.2377C32.3462 23.0256 32.3559 23.1125 32.3884 22.9387C32.2975 23.0186 32.3494 22.6883 32.2326 22.8065L32.278 22.6396C32.0931 22.9108 32.1547 22.3615 32.0054 22.6292C31.8659 22.7335 32.0768 22.1146 31.8789 22.4032L31.9016 22.1667C31.8659 22.1145 31.7912 22.431 31.7718 22.3058C31.8139 22.1667 31.7393 22.1737 31.8074 22.0485C31.7555 21.7912 31.4861 22.2849 31.4407 21.8642C31.3304 22.1285 31.3012 21.9407 31.2168 22.1389C31.246 22.0172 31.0707 22.0694 31.2298 21.8399C31.2427 21.8225 31.2557 21.8294 31.2395 21.8746L31.2947 21.7147C31.2947 21.3809 31.0902 21.8329 31.0188 21.7564C31.0285 21.819 31.0675 21.8155 31.0123 21.9198L30.9409 21.8711L30.9961 21.739L30.902 21.6208L30.8695 21.7947C30.837 21.6903 30.8987 21.3948 30.7656 21.6138C30.6975 21.739 30.7559 21.8607 30.678 21.892C30.6326 21.7529 30.5677 21.5408 30.4833 21.4574C30.4379 21.6521 30.4152 21.6347 30.3762 21.666L30.4216 21.4991C30.2529 21.6938 30.4865 21.1235 30.3308 21.2731L30.373 21.1618L30.2464 21.4991C30.0581 21.7981 30.2951 21.1374 30.0614 21.5547C30.1101 21.5408 29.977 21.9268 29.9478 21.8364L30.0062 21.6799C29.9673 21.7042 29.9413 21.7668 29.9316 21.7286C29.9738 21.6486 30.0062 21.4991 29.9575 21.513L30.0419 21.3217L29.8796 21.5895C29.8699 21.3982 29.7109 21.5825 29.7531 21.3496C29.7531 21.3496 29.6557 21.1965 29.5551 21.433C29.6233 21.287 29.5713 21.207 29.6427 21.0331C29.5616 21.1965 29.422 21.3044 29.435 21.1062L29.448 21.0888C29.3571 20.8523 29.1235 21.2661 29.0586 20.9949C29.0099 21.1896 28.9709 21.0609 28.919 21.3148C28.7145 21.513 28.8151 20.7341 28.549 21.4782C28.4744 21.4991 28.5263 21.2765 28.5068 21.2279L28.5328 21.1931C28.3997 21.2174 28.364 21.2139 28.2829 21.1687C28.218 21.2278 28.1109 21.579 28.0589 21.4678C28.1239 21.3356 28.0849 21.353 28.0589 21.3426C28.0849 21.3252 28.1044 21.2765 28.0914 21.1687C28.0752 21.2105 28.0589 21.2348 28.0427 21.2557C28.0427 21.2452 28.046 21.2348 28.0524 21.2209C27.9908 21.2557 27.9875 21.3008 28.0038 21.3287C27.9973 21.3495 27.9908 21.3774 27.9875 21.4191C27.9875 21.2209 27.8447 21.3843 27.9064 21.1444C27.7474 21.1548 27.5721 21.3669 27.4261 21.4226C27.4488 21.2939 27.5072 21.1931 27.5559 21.1583L27.4585 21.1757C27.5104 20.9983 27.5364 21.0888 27.5721 21.061C27.5527 20.741 27.28 21.28 27.2378 20.9775L27.1729 21.1096V21.0853C27.1502 21.1583 27.095 21.2522 27.0723 21.2696C27.0983 21.1096 27.1762 20.9114 27.1145 20.901C27.1113 20.7375 26.962 20.9323 26.8776 20.9949C26.9036 21.0331 26.8679 21.1131 26.8386 21.1652C26.8094 21.1618 26.8354 21.0018 26.7932 21.061L26.8516 20.8488C26.8062 21.0505 26.7153 21.0366 26.6796 21.12C26.7056 20.9601 26.764 21.0018 26.803 20.8871C26.6796 20.8697 26.7413 20.8766 26.618 20.8592C26.5109 20.9983 26.5725 21.061 26.4914 21.2348C26.4232 21.2592 26.3291 21.3878 26.2999 21.2383L26.2674 21.4295C26.1214 21.5408 26.0662 21.4991 26.05 21.2869C24.8427 22.5492 25.2971 23.3038 25.2971 23.3038C25.4853 23.8149 25.7968 23.3246 26.2025 23.3003L26.1928 23.2933Z" fill="#20BB65"/>
<path d="M42.66 26.3038V26.3904C42.6704 26.3558 42.6739 26.3246 42.66 26.3038Z" fill="#20BB65"/>
<path d="M48.6025 28.8215C48.6025 28.8215 48.6097 28.8143 48.6169 28.8071C48.6097 28.8107 48.6061 28.8143 48.6025 28.8215Z" fill="#20BB65"/>
<path d="M42.688 29.2209C42.688 29.2209 42.6806 29.2321 42.6731 29.2395L42.688 29.2209Z" fill="#20BB65"/>
<path d="M41.573 28.5468C41.8521 28.7589 41.8131 29.1483 42.1831 29.131C42.3259 29.2214 42.5174 29.204 42.6829 29.2214C42.8517 28.9745 42.8809 29.2979 43.0464 29.0997L43.0237 29.2701C43.0788 29.204 43.134 29.1623 43.134 29.2596L43.1146 29.3048C43.1989 29.204 43.2216 29.2944 43.2671 29.2457L43.2476 29.2909H43.306L43.2736 29.3535C43.3937 29.2596 43.4748 29.284 43.5202 29.3674L43.5819 29.1762C43.6533 29.4474 43.8448 29.0788 43.887 29.3813L43.8675 29.4265C44.2148 28.9988 44.0071 29.8751 44.3511 29.4752C44.3089 29.5239 44.3251 29.5761 44.3056 29.6213C44.403 29.6004 44.4971 29.6073 44.6367 29.2387C44.6919 29.2665 44.6399 29.3744 44.5945 29.5204C44.6529 29.357 44.7276 29.3118 44.7762 29.3222L44.734 29.3743H44.8833L44.971 29.0579C45.0067 29.1762 44.8509 29.437 44.9418 29.3918L45.0359 29.1379C45.1105 29.2283 45.0261 29.6352 45.0456 29.8577C45.3799 30.1289 46.0322 29.6665 46.214 30.2646L46.1556 30.4593C46.0549 30.7374 46.4119 30.0942 46.3243 30.355L46.4152 30.2472C46.4087 30.3028 46.4119 30.3654 46.3665 30.4175C46.399 30.4454 46.4184 30.4001 46.4769 30.3306L46.4509 30.5184C46.545 30.7166 46.8014 30.4454 46.9312 30.5845C46.9799 31.0191 47.457 30.8592 47.7361 30.7687C48.1905 30.494 48.0671 31.7354 48.5475 31.412C48.541 31.4538 48.6026 31.3808 48.6156 31.3495L48.8623 31.5164C48.8623 31.5164 49.1706 31.7006 49.4789 31.5442C49.7872 31.3877 50.1053 30.8974 50.0955 29.5309L50.128 29.4752C50.0436 29.2561 49.9625 29.1796 49.732 29.4265C49.8716 29.0544 49.6249 29.3292 49.6412 29.1936L49.6574 29.1657C49.4464 29.4022 49.5698 28.8423 49.375 29.051C49.3913 29.0232 49.4335 28.9258 49.4562 28.9293C49.3718 28.9432 49.2517 28.9849 49.3361 28.7693C49.1608 28.7519 48.9888 28.5503 48.7487 28.8458L48.7811 28.7902C48.6318 28.9954 48.6935 28.7902 48.5832 28.8771C48.5896 28.8458 48.5929 28.8319 48.5994 28.818C48.4468 29.0162 48.4079 28.7693 48.3203 28.8458L48.3754 28.7033L48.2424 28.6789L48.2748 28.7311C48.0996 29.1136 48.2813 28.4425 48.0931 28.6546C48.0314 28.5676 47.5998 29.3917 47.5933 29.1588C47.4797 29.3222 47.7491 28.8771 47.6322 28.9919C47.7134 28.7867 47.7101 28.8771 47.7621 28.7067C47.6647 28.7763 47.7491 28.4529 47.6193 28.5572L47.6809 28.3973C47.47 28.6441 47.5803 28.1052 47.4083 28.3555C47.2558 28.4425 47.5284 27.8513 47.3012 28.1156L47.3466 27.8826C47.3142 27.827 47.2103 28.133 47.2038 28.0043C47.259 27.8687 47.1844 27.8687 47.2622 27.7505C47.233 27.4862 46.9182 27.9522 46.9085 27.5279C46.7754 27.7783 46.7625 27.587 46.6618 27.7783C46.7008 27.6601 46.519 27.6948 46.7008 27.4792C46.717 27.4619 46.7268 27.4723 46.7073 27.5175L46.7787 27.3645C46.8079 27.0307 46.5612 27.4618 46.4963 27.3784C46.5028 27.441 46.5385 27.441 46.4769 27.5419L46.4087 27.4862L46.4769 27.361L46.3892 27.2324L46.3438 27.4028C46.3178 27.295 46.4055 27.0063 46.2529 27.2115C46.175 27.3297 46.2237 27.4549 46.1426 27.4827C46.1101 27.3367 46.0582 27.1211 45.9803 27.0307C45.9186 27.2184 45.8959 27.2011 45.857 27.2289L45.9154 27.0654C45.7304 27.2462 46.0095 26.6969 45.8407 26.829L45.8927 26.7212L45.7401 27.0446C45.5292 27.3228 45.8148 26.6899 45.5519 27.0828C45.6038 27.0724 45.4383 27.4445 45.4156 27.3541L45.487 27.2045C45.448 27.2254 45.4156 27.288 45.4091 27.2463C45.4578 27.1698 45.5 27.0237 45.4513 27.0341L45.5487 26.8498L45.3669 27.1037C45.3669 26.9125 45.1981 27.0828 45.2533 26.8533C45.2533 26.8533 45.1657 26.6934 45.0488 26.9194C45.13 26.7803 45.0781 26.6934 45.1624 26.5265C45.0683 26.683 44.919 26.7803 44.9482 26.5821L44.9645 26.5647C44.8866 26.3213 44.6269 26.7143 44.5782 26.4395C44.5166 26.6308 44.4841 26.4987 44.416 26.7455C44.1985 26.9264 44.3446 26.1579 44.033 26.8812C43.9584 26.8951 44.0233 26.6795 44.0038 26.6273L44.033 26.5925C43.8967 26.6064 43.861 26.5995 43.7831 26.5508C43.715 26.6064 43.5884 26.9472 43.5397 26.836C43.6111 26.7073 43.5722 26.7212 43.543 26.7108C43.5689 26.6969 43.5916 26.6482 43.5884 26.5404C43.5689 26.5821 43.5527 26.603 43.5365 26.6239C43.5397 26.6134 43.5429 26.603 43.5462 26.589C43.4813 26.6203 43.4748 26.6656 43.491 26.6934C43.4813 26.7142 43.4748 26.7421 43.4683 26.7838C43.4813 26.5856 43.3287 26.742 43.4034 26.5021C43.2411 26.5021 43.0561 26.7038 42.9068 26.749C42.9361 26.6238 43.001 26.5265 43.0496 26.4917L42.949 26.5021C43.0107 26.3282 43.0334 26.4222 43.0691 26.3943C43.0691 26.071 42.764 26.596 42.7381 26.29L42.6667 26.4187V26.3943C42.644 26.4674 42.5823 26.5578 42.5563 26.5752C42.592 26.4152 42.6764 26.2239 42.6147 26.21C42.618 26.0431 42.459 26.2309 42.3713 26.29C42.3941 26.3283 42.3551 26.4082 42.3227 26.4569C42.2935 26.45 42.3259 26.2935 42.2805 26.3491L42.3486 26.1405C42.2934 26.3387 42.2026 26.3213 42.1636 26.4013C42.1993 26.2413 42.2545 26.2865 42.2999 26.1753C42.1766 26.1475 42.2383 26.1614 42.115 26.137C42.0014 26.2692 42.0598 26.3352 41.9689 26.5056C41.9007 26.5265 41.8001 26.6482 41.7774 26.4987L41.7352 26.6899C41.5859 26.7907 41.5308 26.749 41.5243 26.5369C40.265 27.7366 40.6869 28.5155 40.6869 28.5155C40.8492 29.0336 41.1803 28.5607 41.5827 28.5537L41.573 28.5468Z" fill="#20BB65"/>
<path d="M57.4721 33.845L57.4527 33.9282C57.4721 33.897 57.4818 33.8658 57.4721 33.845Z" fill="#20BB65"/>
<path d="M62.717 37.858C62.717 37.858 62.7275 37.8505 62.7345 37.8468C62.7275 37.8468 62.7205 37.8543 62.717 37.858Z" fill="#20BB65"/>
<path d="M56.9057 36.696C56.9057 36.696 56.8953 36.7035 56.8883 36.711L56.9057 36.696Z" fill="#20BB65"/>
<path d="M55.9732 35.7955C56.2036 36.0632 56.0835 36.4317 56.4438 36.4978C56.5638 36.616 56.7488 36.6438 56.9046 36.6994C57.1188 36.4978 57.0799 36.8177 57.2778 36.6647L57.2194 36.8246C57.2876 36.7725 57.3492 36.7447 57.3265 36.8385L57.3005 36.8768C57.4044 36.8003 57.4076 36.8907 57.4596 36.8524L57.4336 36.8906L57.492 36.9046L57.4466 36.9567C57.5829 36.8907 57.6543 36.9359 57.6835 37.0297L57.7841 36.8594C57.7939 37.1375 58.06 36.8281 58.034 37.134L58.0081 37.1723C58.4365 36.842 58.0438 37.6416 58.4624 37.3357C58.4105 37.3739 58.4138 37.4261 58.3878 37.4643C58.4884 37.4678 58.576 37.4991 58.7902 37.1758C58.8389 37.2175 58.7643 37.3079 58.6864 37.4365C58.7805 37.294 58.8616 37.2696 58.9071 37.2905L58.8519 37.3322L58.9947 37.3704L59.1505 37.0888C59.157 37.2105 58.9492 37.4261 59.0466 37.4052L59.1927 37.1827C59.2446 37.2905 59.0693 37.6591 59.0369 37.8816C59.2965 38.2258 60.03 37.9511 60.0592 38.5769L59.9553 38.7508C59.7898 38.9907 60.2864 38.4691 60.1436 38.6951L60.2572 38.6152C60.2377 38.6638 60.2247 38.7264 60.1695 38.7646C60.1955 38.7994 60.2247 38.7647 60.2993 38.709L60.228 38.8829C60.2701 39.1019 60.5817 38.9072 60.6726 39.0776C60.6109 39.5052 61.1042 39.4878 61.3931 39.4809C61.8994 39.3488 61.458 40.503 62 40.3292C61.9805 40.3674 62.0584 40.3153 62.0811 40.2875L62.2726 40.5204C62.2726 40.5204 62.516 40.7847 62.8503 40.7325C63.1846 40.6769 63.626 40.3083 63.983 38.9941L64.0284 38.9524C64.0024 38.716 63.9473 38.6152 63.6584 38.782C63.8921 38.4657 63.5805 38.6569 63.6324 38.5317L63.6552 38.5108C63.3923 38.6743 63.6552 38.1701 63.4118 38.3127C63.4345 38.2918 63.5026 38.2084 63.5221 38.2188C63.4377 38.2084 63.3111 38.2084 63.4475 38.0276C63.2819 37.958 63.1651 37.7112 62.86 37.9233L62.9055 37.8781C62.7075 38.0311 62.8211 37.8537 62.6913 37.9059C62.7075 37.8815 62.7107 37.8642 62.7205 37.8537C62.5225 37.9997 62.5452 37.7529 62.4414 37.7946L62.529 37.6729L62.4057 37.6104L62.4251 37.6694C62.1623 37.9893 62.503 37.3948 62.2661 37.5443C62.2272 37.44 61.6073 38.1145 61.656 37.8885C61.5067 38.0136 61.8734 37.6625 61.7339 37.7355C61.8604 37.5617 61.8377 37.6486 61.9286 37.4956C61.815 37.5338 61.9773 37.2453 61.8247 37.3114L61.9221 37.1723C61.656 37.3496 61.8961 36.8629 61.6657 37.0541C61.4969 37.0958 61.9026 36.6021 61.617 36.7933L61.7144 36.5778C61.6982 36.5152 61.5229 36.7829 61.5456 36.6577C61.6332 36.543 61.5586 36.5186 61.6624 36.4282C61.6949 36.164 61.2795 36.5256 61.3704 36.1119C61.1821 36.317 61.2113 36.1292 61.0718 36.2857C61.1399 36.1814 60.9549 36.164 61.1789 36.0076C61.1983 35.9937 61.2048 36.0076 61.1789 36.0458L61.2827 35.9172C61.3898 35.6008 61.0491 35.9519 61.0036 35.8546C60.9939 35.9172 61.0328 35.9276 60.9484 36.0076L60.8933 35.9345L60.9874 35.8303L60.9322 35.6842L60.8478 35.8372C60.8478 35.726 60.9971 35.4687 60.8024 35.6251C60.6986 35.719 60.718 35.8546 60.6336 35.8581C60.6336 35.7085 60.6336 35.4826 60.5785 35.3748C60.4779 35.5417 60.4584 35.5174 60.413 35.5347L60.5038 35.3922C60.2831 35.5173 60.6791 35.0584 60.4843 35.1419L60.559 35.0515L60.3383 35.3261C60.0722 35.5417 60.4876 34.9993 60.1436 35.3122C60.1955 35.3122 59.9521 35.6355 59.9521 35.5417L60.0527 35.413C60.0105 35.4234 59.9651 35.4721 59.9651 35.4339C60.0267 35.3713 60.1046 35.2427 60.0527 35.2392L60.189 35.0862L59.9553 35.2844C60.0008 35.1001 59.7963 35.2183 59.9002 35.0097C59.9002 35.0097 59.8482 34.8289 59.686 35.0236C59.7931 34.9089 59.7639 34.8115 59.8839 34.6725C59.7574 34.7976 59.5918 34.8567 59.66 34.6725L59.6795 34.6586C59.6535 34.4013 59.316 34.7177 59.3257 34.4361C59.2251 34.6064 59.2219 34.4708 59.1018 34.6933C58.8519 34.815 59.1537 34.1023 58.6993 34.7281C58.6214 34.7281 58.7318 34.5264 58.7253 34.4743L58.761 34.45C58.6247 34.4291 58.5922 34.4152 58.5241 34.3457C58.4462 34.3839 58.2515 34.6864 58.2288 34.5647C58.3261 34.4569 58.2839 34.4604 58.258 34.443C58.2872 34.4361 58.3196 34.3943 58.3358 34.2865C58.3066 34.3213 58.2872 34.3387 58.2677 34.3526C58.2742 34.3422 58.2774 34.3352 58.2839 34.3213C58.2158 34.3352 58.1995 34.377 58.2093 34.4083C58.1963 34.4256 58.1833 34.45 58.1703 34.4882C58.2223 34.3005 58.0405 34.4117 58.1638 34.1996C58.0048 34.1579 57.7809 34.3144 57.6251 34.3213C57.677 34.2031 57.7614 34.1232 57.8166 34.1023L57.716 34.0919C57.8101 33.9354 57.8133 34.0328 57.8555 34.0154C57.9172 33.699 57.518 34.1405 57.5505 33.8346L57.4563 33.9423L57.4628 33.918C57.4239 33.9841 57.346 34.0571 57.32 34.0675C57.3849 33.9215 57.5083 33.7511 57.4498 33.7233C57.4855 33.5634 57.2908 33.7094 57.1935 33.7477C57.2097 33.7894 57.1545 33.8589 57.1156 33.9006C57.0863 33.8867 57.1513 33.7407 57.0961 33.7859L57.2032 33.5981C57.1123 33.7789 57.0247 33.7407 56.9695 33.8102C57.0344 33.6607 57.0799 33.7198 57.1448 33.619C57.0279 33.5669 57.0864 33.5912 56.9695 33.5391C56.8332 33.6434 56.8786 33.7233 56.7586 33.8693C56.6872 33.8693 56.5638 33.9702 56.5703 33.8207L56.4924 33.998C56.3269 34.064 56.2815 34.0119 56.3139 33.7998C55.5837 34.2518 55.2916 34.6933 55.1748 35.0201C55.0612 35.347 55.1229 35.5556 55.1229 35.5556C55.1813 36.0945 55.5902 35.6981 55.9829 35.7816L55.9732 35.7955Z" fill="#20BB65"/>
<path d="M69.4123 45.2524L69.3638 45.3148C69.3897 45.2906 69.4123 45.2698 69.4123 45.2524Z" fill="#20BB65"/>
<path d="M71.8661 48.9765C71.8661 48.9765 71.8766 48.9765 71.8836 48.9691C71.8766 48.9691 71.8696 48.9691 71.8661 48.9765Z" fill="#20BB65"/>
<path d="M67.7749 47.4463C67.7749 47.4463 67.7645 47.45 67.7575 47.4537L67.7784 47.4463H67.7749Z" fill="#20BB65"/>
<path d="M67.4459 46.626C67.5043 46.8659 67.2609 47.1441 67.5076 47.2345C67.5465 47.3423 67.6796 47.3841 67.7737 47.4432C68.0236 47.3076 67.8581 47.5544 68.0755 47.4571L67.9652 47.5753C68.0398 47.5405 68.0983 47.5266 68.0398 47.5996L68.0041 47.6274C68.1177 47.5788 68.0788 47.6518 68.1372 47.6274L68.0983 47.6553L68.1372 47.6726L68.082 47.7074C68.2119 47.6727 68.2508 47.7144 68.2313 47.7909L68.3806 47.6692C68.2703 47.8882 68.6078 47.6761 68.4585 47.9126L68.4196 47.9404C68.8901 47.7283 68.2508 48.309 68.7019 48.1177C68.6467 48.1421 68.6273 48.1838 68.5883 48.2116C68.663 48.2255 68.7214 48.2603 69.0232 48.0308C69.0427 48.0691 68.9486 48.1317 68.835 48.2221C68.968 48.1212 69.0427 48.1108 69.0686 48.1317L69.0102 48.156L69.1076 48.2012L69.3478 47.9995C69.3023 48.0969 69.0492 48.2394 69.1368 48.2325L69.3445 48.076C69.3445 48.1664 69.0492 48.4342 68.9291 48.6046C68.9875 48.9001 69.682 48.7645 69.4484 49.2513L69.2958 49.373C69.0654 49.5399 69.6755 49.1888 69.4678 49.3522L69.5912 49.3035C69.5555 49.3383 69.5198 49.3869 69.4581 49.4113C69.4646 49.4426 69.5035 49.4148 69.5814 49.3835L69.4516 49.5087C69.3964 49.679 69.7242 49.5643 69.7275 49.7034C69.5003 50.0268 69.906 50.0616 70.1429 50.0824C70.6037 50.0303 69.7827 50.8648 70.2922 50.7883C70.263 50.8161 70.3474 50.7813 70.3733 50.764L70.435 50.9587C70.435 50.9587 70.5291 51.1812 70.8245 51.1708C71.1198 51.1569 71.6293 50.9239 72.4407 49.9642L72.4959 49.9364C72.5673 49.7555 72.5608 49.6756 72.2589 49.7729C72.5737 49.5573 72.246 49.6686 72.3368 49.5817L72.3628 49.5678C72.0837 49.6651 72.4959 49.3105 72.2427 49.3939C72.2687 49.38 72.3563 49.3244 72.3693 49.3348C72.3044 49.3174 72.2005 49.307 72.3855 49.1818C72.2784 49.1123 72.2817 48.9141 71.9506 49.0427L72.0058 49.0114C71.7851 49.1088 71.9474 48.9836 71.824 49.0114C71.8468 48.994 71.8565 48.9801 71.8695 48.9766C71.6488 49.067 71.7721 48.8793 71.6683 48.9036L71.7883 48.8202L71.7137 48.761L71.704 48.8097C71.3632 49.0288 71.8792 48.6081 71.6261 48.6985C71.6358 48.615 70.8634 49.067 70.9965 48.9001C70.8244 48.9801 71.2658 48.7472 71.1198 48.7924C71.2918 48.6707 71.2399 48.7367 71.3729 48.6289C71.2658 48.6463 71.5125 48.4411 71.3664 48.4759L71.4995 48.3785C71.2139 48.4863 71.6066 48.1351 71.3437 48.2603C71.1944 48.2742 71.717 47.937 71.4119 48.0552L71.5774 47.9022C71.5904 47.8535 71.3405 48.0378 71.4086 47.9439C71.5255 47.8639 71.4768 47.8396 71.5969 47.7805C71.7332 47.5788 71.2528 47.8152 71.4962 47.5023C71.2626 47.6414 71.3632 47.4988 71.1879 47.6031C71.2821 47.5301 71.1425 47.4953 71.3859 47.398C71.4054 47.391 71.4086 47.398 71.3697 47.4258L71.506 47.3388C71.7202 47.1059 71.308 47.3388 71.3113 47.2589C71.2788 47.3075 71.3015 47.318 71.2042 47.3701L71.1912 47.3076L71.308 47.238L71.3242 47.1163L71.1944 47.2276C71.2431 47.1407 71.467 46.9563 71.2464 47.0572C71.1263 47.1197 71.0841 47.2276 71.0159 47.2206C71.0776 47.1059 71.1717 46.9285 71.1717 46.8381C71.0224 46.9564 71.0159 46.9355 70.9737 46.9424L71.1068 46.8416C70.8796 46.9146 71.3827 46.6017 71.1944 46.6434L71.2918 46.5808L71.0029 46.772C70.7011 46.9111 71.2561 46.5356 70.8569 46.7373C70.8958 46.7442 70.5745 46.9702 70.6102 46.8937L70.7433 46.8068C70.7044 46.8068 70.6492 46.8451 70.6654 46.8138C70.7401 46.772 70.8537 46.6781 70.8147 46.6712L70.9867 46.5669L70.7206 46.6955C70.8309 46.5565 70.6232 46.626 70.792 46.473C70.792 46.473 70.8277 46.3269 70.62 46.4591C70.753 46.3826 70.7693 46.3026 70.9218 46.2052C70.7693 46.2887 70.6167 46.3165 70.7465 46.1774L70.766 46.1705C70.8536 45.9653 70.4577 46.174 70.5843 45.9549C70.435 46.0766 70.4902 45.9688 70.3019 46.1322C70.0553 46.1983 70.5908 45.6697 69.9741 46.1113C69.9157 46.1009 70.0845 45.9549 70.1007 45.9132L70.1396 45.8958C70.0423 45.8645 70.0228 45.8471 70.0001 45.7845C69.9254 45.8054 69.6463 46.021 69.6788 45.9236C69.7989 45.8506 69.7664 45.8471 69.7534 45.8297C69.7794 45.8297 69.8216 45.7984 69.88 45.7149C69.8443 45.7393 69.8183 45.7497 69.7989 45.7601C69.8086 45.7532 69.8151 45.7463 69.8248 45.7393C69.7664 45.7393 69.734 45.774 69.7307 45.7984C69.7145 45.8123 69.6918 45.8297 69.6658 45.8575C69.7859 45.7149 69.5977 45.781 69.7827 45.628C69.6788 45.5758 69.4419 45.6732 69.3186 45.6593C69.4094 45.5724 69.5068 45.5202 69.5587 45.5098L69.4873 45.4889C69.6269 45.3742 69.5879 45.4542 69.6269 45.4472C69.8054 45.2038 69.3153 45.5063 69.4678 45.2664L69.3478 45.3429L69.364 45.322C69.3056 45.3707 69.2179 45.4194 69.192 45.4229C69.3056 45.3151 69.4678 45.1934 69.4354 45.1655C69.5295 45.0404 69.3218 45.1342 69.2309 45.1516C69.2244 45.1864 69.153 45.2386 69.1076 45.2629C69.0914 45.249 69.2017 45.1377 69.1401 45.169L69.2991 45.0334C69.153 45.169 69.1011 45.1273 69.0329 45.176C69.1433 45.0647 69.1563 45.1169 69.2471 45.0438C69.1822 44.9882 69.2147 45.016 69.1465 44.9569C68.9972 45.023 69.0005 45.0925 68.8447 45.1933C68.7895 45.1864 68.6532 45.2525 68.7246 45.1308L68.5916 45.2629C68.4358 45.2977 68.426 45.2455 68.5396 45.0821C67.7964 45.3533 67.3875 45.6767 67.1636 45.9236C66.9396 46.1705 66.8974 46.3478 66.8974 46.3478C66.7124 46.786 67.1863 46.5182 67.4492 46.6295L67.4459 46.626Z" fill="#20BB65"/>
</svg>
