<svg width="85" height="123" viewBox="0 0 85 123" fill="none" xmlns="http://www.w3.org/2000/svg">
<path d="M83.9615 2.44446L83.8863 2.43042C83.919 2.44444 83.9485 2.45147 83.9615 2.44446Z" fill="#20BB65"/>
<path d="M82.6436 5.69281C82.6436 5.69281 82.6507 5.70042 82.6578 5.70422C82.6542 5.69662 82.6472 5.69661 82.6436 5.69281Z" fill="#20BB65"/>
<path d="M81.4016 1.97086C81.4016 1.97086 81.3913 1.96355 81.3845 1.9599L81.4016 1.97086Z" fill="#20BB65"/>
<path d="M81.8011 1.44764C81.6612 1.57314 81.3163 1.48598 81.3944 1.69862C81.3391 1.76485 81.3879 1.87641 81.4009 1.96704C81.6449 2.10997 81.3683 2.06815 81.5668 2.20062L81.4171 2.1553C81.4855 2.20061 81.5278 2.23894 81.4432 2.22151L81.4009 2.20406C81.5017 2.27378 81.4269 2.27031 81.479 2.30517L81.4367 2.28776L81.4464 2.32261L81.3879 2.29121C81.4887 2.37836 81.4822 2.42369 81.4171 2.43415L81.5928 2.50734C81.3683 2.49688 81.7197 2.68164 81.4627 2.64678L81.4204 2.62589C81.8466 2.91871 81.056 2.6154 81.4562 2.90125C81.4074 2.86639 81.3651 2.86642 81.3228 2.8455C81.3553 2.90825 81.3651 2.964 81.7067 3.12086C81.6904 3.14875 81.5896 3.09647 81.4594 3.03721C81.6091 3.10692 81.6612 3.16272 81.6612 3.18712L81.6091 3.14878L81.6319 3.23942L81.9182 3.35793C81.8238 3.35793 81.5733 3.20455 81.6254 3.27078L81.8564 3.38231C81.7913 3.4102 81.4269 3.27078 81.2382 3.23244C81.0593 3.37187 81.557 3.87385 81.0723 3.84248L80.8966 3.76231C80.6428 3.63333 81.2447 4.00283 81.0104 3.89128L81.1146 3.97145C81.0658 3.95402 81.0137 3.94005 80.9617 3.90171C80.9421 3.91565 80.9844 3.93657 81.0527 3.99235L80.8868 3.92962C80.7306 3.94008 81.0039 4.16316 80.9063 4.20847C80.5452 4.1283 80.7534 4.45947 80.8705 4.65817C81.1666 5.01374 80.1092 4.60936 80.4541 4.9963C80.4183 4.97887 80.4899 5.03814 80.5159 5.05557L80.4118 5.16366C80.4118 5.16366 80.3044 5.30657 80.4769 5.5471C80.6526 5.78414 81.0983 6.13622 82.237 6.49875L82.2858 6.5336C82.455 6.5336 82.5103 6.50225 82.2728 6.28612C82.6047 6.47436 82.3411 6.2408 82.455 6.28612L82.4811 6.30352C82.2533 6.10482 82.7413 6.33143 82.5429 6.14667C82.5689 6.1641 82.6567 6.21988 82.6567 6.23382C82.634 6.17456 82.5852 6.08393 82.7771 6.19548C82.7674 6.08393 82.917 6.02117 82.634 5.7911L82.686 5.82595C82.4941 5.67606 82.673 5.7702 82.5852 5.67608C82.6112 5.69002 82.6242 5.69349 82.6372 5.70046C82.4485 5.55057 82.6502 5.58894 82.5787 5.51225L82.7088 5.58195V5.50178L82.6698 5.50876C82.3216 5.30309 82.9138 5.58195 82.7088 5.40766C82.7739 5.38674 82.0158 4.91265 82.2077 4.96494C82.0516 4.85339 82.468 5.13228 82.3574 5.03119C82.5429 5.13228 82.4648 5.10786 82.6177 5.18106C82.5461 5.10089 82.8324 5.23334 82.7251 5.12527L82.8715 5.202C82.6307 5.00679 83.109 5.20545 82.8715 5.03464C82.7771 4.9196 83.3205 5.22639 83.0602 5.02072L83.2684 5.10089C83.3107 5.09392 83.0342 4.95798 83.1415 4.97889C83.2652 5.04513 83.2554 4.99633 83.366 5.07302C83.5872 5.11137 83.1448 4.80809 83.5092 4.89523C83.2749 4.7558 83.4376 4.78718 83.2619 4.6826C83.3693 4.73489 83.314 4.60939 83.5254 4.76975C83.5417 4.78369 83.5352 4.78718 83.4962 4.76975L83.6361 4.84643C83.9289 4.93706 83.5222 4.68606 83.584 4.66166C83.5287 4.6512 83.5352 4.6756 83.4409 4.61285L83.4799 4.58149L83.597 4.65119L83.6946 4.62332L83.5417 4.55707C83.6328 4.56404 83.8931 4.6791 83.6946 4.53966C83.5807 4.46646 83.4799 4.46995 83.4441 4.41417C83.5645 4.42463 83.7467 4.43508 83.815 4.40371C83.6426 4.32702 83.6556 4.31657 83.6263 4.2852L83.776 4.3549C83.5938 4.20152 84.1111 4.49085 83.9712 4.3549L84.072 4.40719L83.7695 4.24686C83.4962 4.05862 84.0883 4.36538 83.7109 4.11788C83.7272 4.15274 83.379 3.97495 83.4539 3.97843L83.5938 4.05162C83.571 4.02374 83.5124 3.98886 83.545 3.99235C83.6198 4.03766 83.7532 4.09346 83.7369 4.06209L83.9094 4.15971L83.6621 3.99584C83.828 4.03418 83.6556 3.89476 83.8638 3.97145C83.8638 3.97145 83.9907 3.94704 83.776 3.82852C83.9093 3.90521 83.9777 3.89128 84.1339 3.97494C83.9842 3.88431 83.8768 3.77274 84.0525 3.82852L84.0688 3.84248C84.2705 3.8355 83.8866 3.60194 84.1241 3.61937C83.9484 3.54617 84.059 3.54967 83.8313 3.46252C83.6393 3.2952 84.3356 3.52178 83.6556 3.20108C83.6295 3.15227 83.8313 3.22895 83.8736 3.22895L83.9061 3.25333C83.8736 3.16618 83.8736 3.14529 83.9061 3.10346C83.8475 3.05117 83.5254 2.9152 83.6198 2.90474C83.7434 2.97097 83.7239 2.94311 83.7304 2.92916C83.7467 2.94659 83.7922 2.97101 83.8866 2.98495C83.8475 2.96403 83.8248 2.95009 83.8052 2.93963C83.815 2.94312 83.8248 2.94657 83.8378 2.95355C83.802 2.90823 83.7597 2.89776 83.7369 2.90125C83.7174 2.89428 83.6914 2.88383 83.6556 2.87338C83.8313 2.91521 83.6719 2.79321 83.8931 2.88036C83.8703 2.77926 83.6621 2.63286 83.597 2.53525C83.7141 2.5736 83.8085 2.62937 83.8475 2.66423L83.8215 2.60146C83.9842 2.6677 83.9061 2.66421 83.9354 2.6921C84.2184 2.7409 83.7109 2.47252 83.9744 2.50389L83.8508 2.44112H83.8736C83.8053 2.42021 83.7174 2.36792 83.6979 2.35049C83.8443 2.3958 84.0265 2.47947 84.0297 2.44112C84.1761 2.46901 83.9842 2.34004 83.9191 2.2773C83.8898 2.28775 83.8118 2.2494 83.7629 2.225C83.7629 2.20757 83.9094 2.25288 83.8508 2.21453L84.046 2.28427C83.8606 2.22153 83.8638 2.16922 83.7857 2.13087C83.9321 2.17619 83.8996 2.20057 84.007 2.24589V2.13785C83.8768 2.0507 83.828 2.07509 83.6621 1.9984C83.6328 1.95309 83.5092 1.87641 83.6361 1.88338L83.4604 1.83109C83.3432 1.72651 83.3758 1.6986 83.5612 1.72649C82.9235 1.26635 82.4453 1.08161 82.1329 1.00492C81.8173 0.928232 81.6677 0.956114 81.6677 0.956114C81.2382 0.970058 81.7165 1.22455 81.7913 1.45811L81.8011 1.44764Z" fill="#20BB65"/>
<path d="M76.935 13.3755L76.8621 13.3329C76.8853 13.3613 76.9118 13.379 76.935 13.3755Z" fill="#20BB65"/>
<path d="M71.8157 17.6164C71.8157 17.6164 71.8157 17.6273 71.8193 17.6346C71.8193 17.6273 71.8193 17.62 71.8157 17.6164Z" fill="#20BB65"/>
<path d="M74.5232 12.0159C74.5232 12.0159 74.5196 12.0016 74.5161 11.9945L74.5232 12.0159Z" fill="#20BB65"/>
<path d="M75.567 11.3113C75.2676 11.4716 74.9716 11.252 74.8219 11.6006C74.6853 11.6877 74.6137 11.8724 74.5258 12.0153C74.6495 12.2907 74.3729 12.1582 74.4575 12.4057L74.3306 12.3011C74.3599 12.3848 74.3664 12.4545 74.2883 12.4057L74.2623 12.3674C74.3046 12.4963 74.22 12.4719 74.2428 12.5346L74.2135 12.4963L74.1842 12.5486L74.1517 12.4893C74.1712 12.6462 74.1126 12.7054 74.0215 12.7089L74.1452 12.8623C73.8947 12.7891 74.0964 13.1551 73.8328 13.0401L73.8068 13.0017C73.9793 13.535 73.3806 12.9006 73.5335 13.4165C73.514 13.3502 73.4652 13.3398 73.4392 13.3015C73.4066 13.4025 73.3546 13.4827 73.5823 13.7999C73.5303 13.8347 73.4717 13.7336 73.3774 13.6186C73.4782 13.758 73.4749 13.8487 73.4457 13.887L73.4261 13.8208L73.3513 13.9567L73.5595 14.2007C73.4489 14.1728 73.3188 13.894 73.309 14.002L73.4652 14.2181C73.3546 14.2391 73.0748 13.9497 72.8861 13.8521C72.5054 14.0125 72.5347 14.849 71.9686 14.6887L71.8449 14.5318C71.679 14.2913 71.9978 14.957 71.8384 14.741L71.8742 14.8803C71.8352 14.8455 71.7831 14.8142 71.7668 14.7444C71.7278 14.7584 71.7538 14.8002 71.7766 14.8908L71.6432 14.7653C71.4382 14.7444 71.5163 15.1208 71.3406 15.1592C70.9762 14.9675 70.8493 15.4764 70.768 15.7761C70.7355 16.3338 69.8375 15.5356 69.8277 16.1421C69.7984 16.1107 69.8212 16.2083 69.8408 16.2362L69.5772 16.3616C69.5772 16.3616 69.2681 16.5324 69.2161 16.8914C69.1673 17.2504 69.3657 17.8116 70.4361 18.568L70.4622 18.6272C70.6802 18.6725 70.7843 18.6446 70.7192 18.2996C70.9307 18.6307 70.8526 18.2577 70.9502 18.3484L70.9632 18.3797C70.8949 18.0591 71.2658 18.4808 71.2105 18.1915C71.2235 18.2194 71.2756 18.3135 71.2593 18.3344C71.2951 18.2508 71.3309 18.1218 71.4512 18.3135C71.5619 18.1637 71.8156 18.1183 71.718 17.7454L71.7441 17.8046C71.6692 17.5572 71.7929 17.728 71.7831 17.5781C71.8026 17.6025 71.8124 17.613 71.8189 17.6234C71.7473 17.3759 71.9621 17.477 71.9523 17.355L72.0336 17.484L72.1247 17.3759H72.0662C71.8612 17.0099 72.2874 17.5432 72.2256 17.2539C72.3297 17.2435 71.9165 16.407 72.0987 16.5255C72.0304 16.3338 72.2354 16.8183 72.2093 16.651C72.3264 16.8322 72.2581 16.7869 72.3622 16.9228C72.3622 16.7974 72.5705 17.0448 72.5575 16.874L72.6518 17.0169C72.5737 16.6928 72.9381 17.0832 72.834 16.7939C72.847 16.6092 73.1691 17.1703 73.0813 16.8217L73.2439 16.9856C73.3058 16.9856 73.1171 16.7276 73.2244 16.7869C73.3025 16.9089 73.3448 16.8426 73.3936 16.9751C73.6214 17.0901 73.4196 16.5534 73.7645 16.7695C73.6376 16.515 73.7971 16.6021 73.6994 16.4104C73.771 16.508 73.8426 16.3233 73.9174 16.6022C73.9239 16.6266 73.9109 16.63 73.8849 16.5917L73.9695 16.7381C74.22 16.9403 74.0085 16.4906 74.1094 16.4697C74.0573 16.4418 74.0346 16.4767 73.989 16.3651L74.0704 16.3303L74.1354 16.4558L74.2851 16.4418L74.1712 16.3094C74.2721 16.3443 74.4575 16.5708 74.3729 16.3233C74.3209 16.1909 74.194 16.17 74.2135 16.0828C74.3469 16.1281 74.5486 16.1944 74.6657 16.1665C74.5454 16.0131 74.5714 15.9992 74.5714 15.9504L74.6723 16.0863C74.6267 15.8214 74.9195 16.3617 74.9033 16.1386L74.9651 16.2397L74.7829 15.9329C74.669 15.5949 75.0301 16.1839 74.8512 15.7378C74.8317 15.7901 74.617 15.4485 74.7015 15.4729L74.7861 15.6158C74.7894 15.567 74.7568 15.5077 74.7926 15.5217C74.8317 15.6053 74.926 15.7203 74.9423 15.668L75.0399 15.8528L74.9293 15.553C75.0822 15.6506 75.0334 15.4067 75.1896 15.574C75.1896 15.574 75.3653 15.574 75.2416 15.3474C75.3132 15.4903 75.4075 15.4903 75.5019 15.6506C75.4238 15.4833 75.4206 15.2986 75.567 15.4206L75.5735 15.4415C75.8142 15.4903 75.6255 15.0477 75.8761 15.1383C75.7524 14.9884 75.8761 15.0198 75.7069 14.8351C75.6678 14.5423 76.2274 15.0546 75.7882 14.4098C75.8142 14.3296 75.9606 14.497 76.0095 14.5074L76.0225 14.5492C76.0778 14.4133 76.1006 14.3819 76.1819 14.3331C76.1689 14.2425 75.9509 13.9567 76.068 13.9672C76.1363 14.0961 76.1461 14.0543 76.1689 14.0299C76.1689 14.0613 76.1949 14.1066 76.286 14.1519C76.2632 14.1136 76.2535 14.0857 76.2437 14.0613C76.2502 14.0682 76.2567 14.0752 76.2665 14.0892C76.273 14.0125 76.2372 13.9846 76.2079 13.9881C76.1949 13.9707 76.1754 13.9497 76.1461 13.9253C76.3023 14.0299 76.2502 13.8103 76.4096 13.9951C76.491 13.8417 76.4096 13.5698 76.4454 13.406C76.5365 13.4931 76.5853 13.6012 76.5886 13.6639L76.6276 13.5629C76.7448 13.7023 76.6569 13.6814 76.6569 13.7302C76.9269 13.8766 76.6341 13.3433 76.9042 13.4583L76.8293 13.3293L76.8489 13.3433C76.8001 13.2875 76.7545 13.1864 76.7513 13.1551C76.8684 13.2631 76.9855 13.4339 77.0278 13.3816C77.1645 13.4618 77.0831 13.2213 77.0766 13.1098C77.0343 13.1167 76.9855 13.04 76.9595 12.9878C76.979 12.9599 77.0961 13.0679 77.0701 12.9982L77.2133 13.1551C77.0734 13.0122 77.1319 12.932 77.0831 12.8588C77.2002 12.9634 77.1384 12.9982 77.21 13.0923C77.2881 12.9843 77.249 13.04 77.3271 12.932C77.2686 12.7612 77.184 12.7891 77.0831 12.6253C77.0994 12.5521 77.0408 12.3987 77.1742 12.444L77.0343 12.3185C77.0181 12.1269 77.0766 12.0955 77.2588 12.1826C77.0311 11.3078 76.6992 10.9 76.4324 10.6978C76.1656 10.4957 75.9607 10.5061 75.9607 10.5061C75.4661 10.426 75.7232 10.9453 75.554 11.3252L75.567 11.3113Z" fill="#20BB65"/>
<path d="M62.9762 22.6744L62.9204 22.6111C62.9368 22.6462 62.9532 22.6709 62.9762 22.6744Z" fill="#20BB65"/>
<path d="M62.2799 20.255C61.9415 20.3108 61.717 20.004 61.4665 20.2968C61.3071 20.3386 61.1802 20.4955 61.0533 20.6071C61.0956 20.9103 60.8646 20.7012 60.8744 20.9661L60.78 20.8267C60.7833 20.9173 60.7702 20.987 60.7084 20.9173L60.6922 20.872C60.6987 21.008 60.6206 20.9591 60.6238 21.0289L60.6076 20.9835L60.5653 21.0289L60.549 20.9626C60.5262 21.1195 60.4514 21.1648 60.3636 21.1369L60.4449 21.3217C60.2171 21.1788 60.3213 21.5901 60.0902 21.4019L60.074 21.3566C60.1065 21.9213 59.6803 21.1404 59.6966 21.6842C59.6966 21.618 59.651 21.5936 59.6348 21.5448C59.5795 21.632 59.5046 21.6982 59.6478 22.0677C59.5892 22.0886 59.5567 21.9736 59.4916 21.8341C59.5567 21.9945 59.5307 22.0851 59.4916 22.113V22.0433L59.381 22.1548L59.5241 22.4477C59.4233 22.3919 59.3615 22.0851 59.3257 22.1897L59.4233 22.4407C59.3094 22.4337 59.1077 22.0782 58.945 21.9317C58.5285 21.991 58.3659 22.8137 57.8453 22.5208L57.7575 22.3361C57.6468 22.0607 57.816 22.7893 57.7054 22.5383L57.7119 22.6812C57.6826 22.6359 57.6371 22.5941 57.6338 22.5243C57.5915 22.5313 57.6078 22.5766 57.6111 22.6708L57.5069 22.5174C57.3085 22.4476 57.3052 22.8346 57.1198 22.8346C56.8009 22.5627 56.5634 23.0368 56.4268 23.3122C56.2869 23.849 55.5483 22.8799 55.4247 23.4795C55.4019 23.4446 55.4084 23.5422 55.4182 23.5736L55.1319 23.6468C55.1319 23.6468 53.7654 24.0791 55.5971 25.9859L55.6101 26.0486C55.8151 26.1358 55.9225 26.1288 55.916 25.7802C56.0656 26.1497 56.0526 25.7697 56.134 25.8743L56.1405 25.9057C56.1307 25.578 56.417 26.066 56.4138 25.7732C56.4203 25.8046 56.4561 25.9092 56.4365 25.9231C56.4853 25.8499 56.5439 25.7279 56.6252 25.9441C56.7586 25.822 57.0124 25.8325 56.9831 25.4455L56.9994 25.5083C56.9701 25.2504 57.0612 25.442 57.0807 25.2956C57.0937 25.3235 57.1035 25.334 57.1068 25.3479C57.084 25.09 57.2727 25.2364 57.2857 25.1179L57.341 25.2608L57.4516 25.1771L57.3931 25.1667C57.2629 24.7623 57.5785 25.3758 57.572 25.083C57.6729 25.0969 57.4354 24.1871 57.5915 24.344C57.5623 24.1418 57.6664 24.6612 57.6761 24.4939C57.7542 24.6996 57.6956 24.6368 57.7737 24.7937C57.7965 24.6717 57.9494 24.9645 57.9722 24.7937L58.034 24.954C58.021 24.6194 58.2943 25.0865 58.2553 24.7797C58.3041 24.6054 58.5025 25.2294 58.4863 24.8704L58.6099 25.0691C58.6685 25.0865 58.5416 24.7902 58.6294 24.8738C58.6782 25.0133 58.7335 24.9575 58.7531 25.1004C58.945 25.2678 58.8637 24.6995 59.15 24.9958C59.0816 24.717 59.2151 24.8425 59.163 24.6299C59.2118 24.7449 59.3192 24.5845 59.3322 24.8704C59.3322 24.8948 59.3192 24.8948 59.3029 24.8495L59.3517 25.0098C59.5502 25.2712 59.4428 24.7797 59.5404 24.7902C59.4949 24.7484 59.4688 24.7762 59.4493 24.6577L59.5339 24.6438L59.5697 24.7832L59.7128 24.8111L59.6348 24.6542C59.7226 24.7135 59.8495 24.9854 59.8235 24.724C59.8007 24.5811 59.6836 24.5253 59.7259 24.4486C59.843 24.5288 60.0219 24.6473 60.1358 24.6507C60.0545 24.4695 60.0837 24.466 60.0968 24.4172L60.1618 24.5776C60.1781 24.3091 60.3375 24.9122 60.3668 24.6926L60.4026 24.8076L60.2985 24.4625C60.2659 24.1035 60.4774 24.7727 60.4091 24.2952C60.3798 24.3405 60.2529 23.9501 60.3278 23.9989L60.3766 24.1593C60.3896 24.1139 60.3766 24.0442 60.4059 24.0686C60.4221 24.1593 60.4872 24.2987 60.5165 24.2533L60.5653 24.459L60.5295 24.1418C60.6531 24.2812 60.6629 24.0303 60.7735 24.2394C60.7735 24.2394 60.9427 24.2882 60.8744 24.0372C60.9069 24.1976 60.998 24.222 61.05 24.4033C61.0175 24.222 61.0565 24.0407 61.1672 24.2011V24.2255C61.3819 24.3405 61.3103 23.863 61.5283 24.0268C61.447 23.8455 61.5544 23.9152 61.4437 23.6851C61.4795 23.3923 61.8797 24.0547 61.6292 23.3017C61.6715 23.2355 61.7691 23.4412 61.8146 23.4621V23.5073C61.9025 23.3958 61.9318 23.3714 62.0229 23.3505C62.0359 23.2599 61.9025 22.9183 62.0098 22.9671C62.0424 23.1135 62.0619 23.0751 62.0879 23.0612C62.0782 23.0891 62.0944 23.1413 62.166 23.2145C62.153 23.1692 62.1497 23.1413 62.1497 23.1169C62.153 23.1274 62.1595 23.1344 62.166 23.1483C62.192 23.0786 62.166 23.0402 62.1367 23.0333C62.1302 23.0124 62.1172 22.988 62.0944 22.9531C62.2148 23.103 62.2246 22.8764 62.3254 23.1065C62.4426 22.988 62.4426 22.7021 62.5207 22.5557C62.5825 22.6672 62.602 22.7858 62.5857 22.8485L62.6508 22.7649C62.7224 22.9357 62.6443 22.8869 62.6345 22.9322C62.8493 23.1623 62.7191 22.5592 62.9404 22.7579L62.9078 22.6115L62.9241 22.6289C62.8948 22.5592 62.8785 22.4477 62.885 22.4163C62.9631 22.5557 63.0282 22.7579 63.0803 22.723C63.1844 22.845 63.1779 22.5906 63.2006 22.4825C63.1583 22.472 63.1323 22.3849 63.1258 22.3257C63.1518 22.3082 63.2299 22.4477 63.2267 22.371L63.3145 22.5697C63.2234 22.3884 63.3015 22.3291 63.2755 22.242C63.3535 22.3814 63.2852 22.3919 63.3275 22.5069C63.4316 22.4337 63.3796 22.4686 63.4837 22.3954C63.4804 22.2141 63.3926 22.2106 63.3438 22.0224C63.3796 21.9561 63.3731 21.7923 63.4837 21.8829L63.3893 21.7156C63.4284 21.5309 63.4967 21.5204 63.6399 21.6633C63.6952 20.7605 63.513 20.2515 63.3243 19.9657C63.1356 19.6798 62.9338 19.6206 62.9338 19.6206C62.4816 19.3731 62.5597 19.9587 62.2766 20.2655L62.2799 20.255Z" fill="#20BB65"/>
<path d="M47.7755 28.9378L47.7263 28.871C47.7394 28.9061 47.7526 28.9343 47.7755 28.9378Z" fill="#20BB65"/>
<path d="M47.3035 26.4556C46.9587 26.48 46.7602 26.1523 46.4772 26.4172C46.3112 26.4451 46.1713 26.588 46.0314 26.6891C46.0477 26.9959 45.833 26.7658 45.8199 27.0308L45.7353 26.8843C45.7321 26.975 45.7126 27.0412 45.6573 26.968L45.6443 26.9227C45.6377 27.0586 45.5662 27.0064 45.5629 27.0726L45.5499 27.0273L45.5043 27.0691L45.4913 26.9994C45.4555 27.1562 45.3775 27.1911 45.2896 27.1597L45.3579 27.348C45.14 27.1876 45.2115 27.6059 44.9968 27.4003L44.9838 27.3549C44.974 27.9231 44.6031 27.1109 44.5803 27.6547C44.5803 27.5885 44.538 27.5606 44.525 27.5118C44.46 27.5955 44.3851 27.6582 44.5023 28.0347C44.4404 28.0522 44.4177 27.9336 44.3624 27.7907C44.4144 27.9545 44.3851 28.0417 44.3428 28.0696V27.9963L44.229 28.1009L44.3558 28.4007C44.2582 28.338 44.2159 28.0277 44.1736 28.1288L44.2582 28.3868C44.1444 28.3728 43.9622 28.0033 43.8093 27.8465C43.383 27.8813 43.1748 28.6901 42.6673 28.3694L42.5892 28.1811C42.4916 27.9022 42.6217 28.6378 42.5241 28.3798V28.5262C42.4948 28.4809 42.4525 28.4356 42.4525 28.3624C42.4102 28.3624 42.4232 28.4112 42.4232 28.5088L42.3256 28.3484C42.1272 28.2682 42.1044 28.6552 41.9222 28.6482C41.6131 28.3624 41.3528 28.826 41.2032 29.0944C41.0405 29.6243 40.3377 28.6273 40.1881 29.2234C40.1653 29.1885 40.1685 29.2861 40.1783 29.3175L39.8887 29.3803C39.8887 29.3803 38.506 29.7672 40.2824 31.7333L40.2954 31.796C40.4939 31.8901 40.6013 31.8867 40.6078 31.5381C40.7477 31.9111 40.7444 31.5311 40.8193 31.6427L40.8257 31.674C40.8257 31.3463 41.0958 31.8483 41.0991 31.552C41.1056 31.5834 41.1381 31.6879 41.1186 31.7019C41.1674 31.6287 41.2292 31.5137 41.3073 31.7333C41.4439 31.6183 41.6944 31.6392 41.6814 31.2522L41.6945 31.315C41.6749 31.057 41.7563 31.2522 41.7823 31.1093C41.7953 31.1372 41.8051 31.1511 41.8083 31.1616C41.7953 30.9036 41.9775 31.057 41.9938 30.9385L42.0426 31.0849L42.1532 31.0047L42.0979 30.9908C41.984 30.5794 42.2736 31.2104 42.2768 30.9141C42.3777 30.935 42.1792 30.0112 42.3289 30.1785C42.3094 29.9729 42.3907 30.4993 42.407 30.3319C42.4753 30.5411 42.42 30.4749 42.4916 30.6352C42.5209 30.5132 42.6608 30.813 42.69 30.6422L42.7453 30.806C42.7453 30.4714 42.9991 30.9524 42.9731 30.6457C43.0317 30.4749 43.1976 31.1093 43.1976 30.7467L43.3082 30.9524C43.3635 30.9734 43.2529 30.6701 43.3375 30.7572C43.3798 30.8966 43.4351 30.8444 43.4481 30.9908C43.6303 31.1686 43.5782 30.5969 43.845 30.9106C43.7897 30.6283 43.9166 30.7607 43.8743 30.5481C43.9166 30.6666 44.0305 30.5132 44.0272 30.799C44.0272 30.8234 44.0142 30.8235 43.9979 30.7781L44.0402 30.942C44.2224 31.2139 44.1411 30.7189 44.2387 30.7328C44.1964 30.6875 44.1671 30.7154 44.1541 30.5969L44.2387 30.5899L44.2647 30.7328L44.4046 30.7677L44.3363 30.6039C44.4209 30.6701 44.5315 30.949 44.5185 30.684C44.5055 30.5411 44.3916 30.4783 44.4339 30.4016C44.5478 30.4888 44.717 30.6178 44.8276 30.6352C44.7593 30.4505 44.7853 30.447 44.8016 30.3982L44.8569 30.562C44.8862 30.2971 45.0098 30.9106 45.0553 30.691L45.0846 30.8095L45 30.4574C44.987 30.0984 45.1595 30.7781 45.1204 30.2971C45.0879 30.3389 44.9838 29.9415 45.0586 29.9938L45.0976 30.1576C45.1139 30.1123 45.1009 30.0426 45.1302 30.0705C45.1399 30.1611 45.1953 30.304 45.2278 30.2622L45.2636 30.4714L45.2473 30.1507C45.3612 30.3006 45.3872 30.0496 45.4816 30.2657C45.4816 30.2657 45.6442 30.3285 45.5954 30.074C45.6182 30.2343 45.7061 30.2692 45.7451 30.4539C45.7223 30.2692 45.7744 30.0914 45.872 30.2622V30.2866C46.0737 30.4226 46.0347 29.938 46.2364 30.1193C46.1681 29.9311 46.2722 30.0112 46.1746 29.7707C46.2299 29.4814 46.578 30.1751 46.3828 29.4047C46.4316 29.3419 46.5129 29.5546 46.5552 29.5825V29.6278C46.6463 29.5232 46.6789 29.5058 46.77 29.4918C46.7895 29.4047 46.6821 29.0491 46.7862 29.1084C46.8057 29.2548 46.8285 29.2199 46.8578 29.2095C46.8481 29.2374 46.8578 29.2896 46.9261 29.3698C46.9164 29.3245 46.9164 29.2966 46.9164 29.2722C46.9196 29.2827 46.9229 29.2896 46.9294 29.3071C46.9619 29.2408 46.9391 29.199 46.9099 29.1885C46.9034 29.1676 46.8936 29.1397 46.8741 29.1049C46.9814 29.2652 47.0075 29.0421 47.0888 29.2792C47.2124 29.1711 47.2352 28.8888 47.3263 28.7528C47.3784 28.8713 47.3849 28.9898 47.3686 29.0491L47.4369 28.9724C47.4922 29.1502 47.4207 29.0909 47.4077 29.1362C47.5996 29.3837 47.5215 28.7737 47.7232 28.9934L47.7037 28.8434L47.7168 28.8644C47.694 28.7912 47.6875 28.6796 47.6972 28.6517C47.7623 28.7981 47.8111 29.0073 47.8664 28.9759C47.9608 29.1084 47.9738 28.8539 48.0063 28.7493C47.964 28.7354 47.9477 28.6447 47.9445 28.5855C47.9705 28.5681 48.0389 28.718 48.0389 28.6413L48.1072 28.8469C48.0323 28.6552 48.1137 28.6064 48.0974 28.5192C48.1625 28.6656 48.0974 28.6691 48.1234 28.7877C48.2341 28.7249 48.1787 28.7563 48.2894 28.6935C48.3024 28.5157 48.2145 28.5018 48.1853 28.3066C48.2276 28.2473 48.2341 28.08 48.3382 28.1846L48.2601 28.0068C48.3187 27.8255 48.387 27.8256 48.5139 27.9859C48.8002 26.2011 48.0193 25.8734 48.0193 25.8734C47.5866 25.5771 47.6029 26.1697 47.2905 26.4486L47.3035 26.4556Z" fill="#20BB65"/>
<path d="M32.507 34.6853L32.4578 34.6185C32.4709 34.6536 32.4874 34.6818 32.507 34.6853Z" fill="#20BB65"/>
<path d="M31.9599 32.2205C31.6118 32.2553 31.4035 31.9382 31.127 32.2135C30.961 32.2484 30.8244 32.3983 30.6878 32.5064C30.7138 32.8096 30.4893 32.5935 30.486 32.8584L30.3949 32.7155C30.3949 32.8061 30.3787 32.8759 30.3201 32.8026L30.3071 32.7573C30.3071 32.8933 30.2323 32.8445 30.2323 32.9107L30.216 32.8654L30.1704 32.9072L30.1574 32.8375C30.1249 32.9944 30.0501 33.0362 29.959 33.0083L30.0338 33.1931C29.8093 33.0467 29.8972 33.458 29.6727 33.2663L29.6564 33.221C29.6727 33.7892 29.2627 32.9979 29.2627 33.5417C29.2627 33.4754 29.2172 33.4475 29.2009 33.4022C29.1391 33.4894 29.0642 33.5556 29.2009 33.9251C29.1391 33.946 29.1098 33.831 29.048 33.6916C29.1098 33.8519 29.0838 33.9425 29.0415 33.9704V33.8972L28.9308 34.0088L29.0708 34.3016C28.9699 34.2424 28.9113 33.9391 28.8755 34.0402L28.9731 34.2911C28.8593 34.2842 28.6576 33.9251 28.4949 33.7787C28.0654 33.8415 27.9027 34.6641 27.3724 34.3818L27.2813 34.2005C27.1674 33.9286 27.3431 34.6537 27.2292 34.4027L27.2358 34.5491C27.2032 34.5038 27.1577 34.462 27.1544 34.3923C27.1121 34.3992 27.1284 34.4445 27.1349 34.5421L27.0275 34.3888C26.8226 34.326 26.8258 34.7129 26.6404 34.7199C26.3085 34.4585 26.0775 34.9465 25.9474 35.2288C25.827 35.7726 25.0364 34.8489 24.9355 35.4554C24.9095 35.4206 24.9225 35.5217 24.9355 35.5531L24.6492 35.6472C24.6492 35.6472 24.3076 35.7831 24.2165 36.1387C24.1221 36.4943 24.2848 37.0659 25.2576 37.9479L25.2771 38.0107C25.4821 38.0839 25.5862 38.0699 25.5602 37.7248C25.7326 38.0838 25.6936 37.7039 25.7782 37.805L25.7879 37.8364C25.7587 37.5122 26.0677 37.9827 26.0482 37.6899C26.058 37.7213 26.097 37.8224 26.0808 37.8364C26.1231 37.7597 26.1751 37.6376 26.2694 37.8503C26.3931 37.7248 26.6404 37.7213 26.5981 37.3378L26.6143 37.4006C26.5753 37.1461 26.6696 37.3343 26.6827 37.1879C26.6989 37.2158 26.7087 37.2263 26.7119 37.2402C26.6794 36.9858 26.8714 37.1217 26.8779 37.0032L26.9397 37.1427L27.0438 37.0555L26.9885 37.045C26.8453 36.6476 27.1772 37.2472 27.1609 36.9544C27.2618 36.9683 26.995 36.0655 27.1609 36.2189C27.1284 36.0167 27.2455 36.5326 27.2488 36.3653C27.3334 36.5674 27.2715 36.5047 27.3529 36.6616C27.3724 36.5361 27.5318 36.8254 27.5481 36.6546L27.6132 36.8115C27.5904 36.4768 27.8735 36.9404 27.8279 36.6337C27.8735 36.4559 28.0817 37.0764 28.0589 36.7208L28.1825 36.9196C28.2411 36.9335 28.1077 36.6407 28.1988 36.7243C28.2509 36.8603 28.3029 36.8045 28.3257 36.9474C28.5176 37.1113 28.4298 36.5465 28.7129 36.8428C28.6413 36.564 28.7747 36.6895 28.7194 36.4803C28.7682 36.5954 28.8723 36.435 28.8886 36.7208C28.8886 36.7452 28.8755 36.7453 28.8593 36.6999L28.9113 36.8603C29.1065 37.1217 28.9959 36.6302 29.0968 36.6407C29.0512 36.5988 29.0252 36.6267 29.0057 36.5082L29.0903 36.4977L29.1261 36.6372L29.2692 36.665L29.1911 36.5082C29.279 36.5675 29.4059 36.8393 29.3766 36.5779C29.3538 36.435 29.2399 36.3792 29.279 36.3025C29.3961 36.3827 29.5685 36.5047 29.6824 36.5117C29.6043 36.3304 29.6304 36.3269 29.6434 36.2781L29.7084 36.4385C29.7247 36.1701 29.8776 36.7766 29.9102 36.557L29.9427 36.672L29.8418 36.3234C29.8093 35.9644 30.0143 36.6372 29.9525 36.1561C29.9232 36.2014 29.7995 35.8075 29.8744 35.8598L29.9199 36.0202C29.9329 35.9748 29.9199 35.9086 29.9492 35.933C29.9655 36.0236 30.0273 36.1631 30.0566 36.1178L30.1021 36.3234L30.0696 36.0062C30.19 36.1492 30.203 35.8981 30.3071 36.1073C30.3071 36.1073 30.4698 36.1631 30.408 35.9086C30.4372 36.069 30.5283 36.0968 30.5739 36.2816C30.5414 36.1003 30.5869 35.9191 30.691 36.0829V36.1073C30.8992 36.2328 30.8374 35.7553 31.0456 35.9226C30.9708 35.7378 31.0749 35.811 30.9708 35.5774C31.0164 35.2846 31.3873 35.9644 31.1628 35.2045C31.2083 35.1382 31.2962 35.3474 31.3417 35.3753V35.4206C31.4328 35.3125 31.4621 35.2916 31.55 35.2742C31.5662 35.1835 31.4458 34.8384 31.55 34.8907C31.576 35.0371 31.5955 34.9988 31.6248 34.9883C31.615 35.0162 31.6248 35.0685 31.6963 35.1452C31.6866 35.0999 31.6833 35.072 31.6833 35.0476C31.6866 35.0581 31.6931 35.065 31.6963 35.0825C31.7256 35.0162 31.7029 34.9744 31.6736 34.964C31.6671 34.943 31.654 34.9151 31.6345 34.8802C31.7451 35.0371 31.7647 34.8141 31.8558 35.0476C31.9762 34.9361 31.9892 34.6502 32.0705 34.5108C32.1258 34.6258 32.1388 34.7443 32.1226 34.8071L32.1909 34.7304C32.2527 34.9047 32.1779 34.8489 32.1649 34.8942C32.3633 35.1382 32.2657 34.5282 32.4739 34.7408L32.4479 34.5944L32.4642 34.6154C32.4382 34.5422 32.4284 34.4341 32.4382 34.4027C32.5097 34.5491 32.5618 34.7548 32.6138 34.7199C32.7115 34.8489 32.7147 34.5944 32.7473 34.4898C32.705 34.4759 32.6854 34.3887 32.6822 34.3295C32.7082 34.3121 32.7798 34.4585 32.7765 34.3853L32.8514 34.5909C32.7733 34.4027 32.8514 34.3504 32.8318 34.2633C32.9002 34.4097 32.8318 34.4132 32.8676 34.5282C32.975 34.462 32.9229 34.4968 33.0303 34.4306C33.0368 34.2493 32.9522 34.2424 32.9164 34.0471C32.9555 33.9844 32.9587 33.8206 33.0628 33.9182L32.9782 33.7439C33.0303 33.5626 33.0986 33.5591 33.232 33.716C33.476 31.9242 32.6854 31.6174 32.6854 31.6174C32.243 31.3351 32.2722 31.9277 31.9631 32.217L31.9599 32.2205Z" fill="#20BB65"/>
<path d="M18.0744 42.0463L18.0121 41.9936C18.0318 42.0252 18.0515 42.0498 18.0744 42.0463Z" fill="#20BB65"/>
<path d="M13.2195 46.0682C13.2195 46.0682 13.2232 46.0791 13.2269 46.0864C13.2269 46.0791 13.2232 46.0718 13.2195 46.0682Z" fill="#20BB65"/>
<path d="M15.8589 40.3385C15.8589 40.3385 15.8589 40.3243 15.8517 40.3171V40.3385H15.8589Z" fill="#20BB65"/>
<path d="M17.075 39.7526C16.7334 39.8641 16.4666 39.6061 16.2421 39.9407C16.0827 40.0174 15.9753 40.1987 15.8582 40.3381C15.9461 40.6309 15.676 40.474 15.7313 40.7354L15.6142 40.6204C15.6305 40.7111 15.6305 40.7807 15.5556 40.725L15.5329 40.6831C15.5589 40.8156 15.4743 40.7877 15.4906 40.8539L15.4678 40.8121L15.432 40.8644L15.4027 40.8017C15.4027 40.962 15.3377 41.0212 15.2433 41.0212L15.3572 41.1816C15.1034 41.0979 15.2791 41.4778 15.0156 41.3524L14.9895 41.3105C15.1294 41.8578 14.5503 41.2025 14.6739 41.7323C14.6577 41.666 14.6089 41.6556 14.5828 41.6138C14.5438 41.7183 14.4852 41.802 14.7065 42.1226C14.6512 42.1575 14.5958 42.0564 14.5015 41.9379C14.5991 42.0773 14.5958 42.1714 14.5601 42.2098L14.5405 42.1401L14.4592 42.2795L14.6674 42.5235C14.5536 42.4956 14.4267 42.2167 14.4136 42.3283L14.5698 42.5444C14.456 42.5688 14.1729 42.283 13.9777 42.1889C13.5677 42.3806 13.6198 43.2275 13.0341 43.1264L12.8975 42.9801C12.7121 42.757 13.0764 43.3948 12.8975 43.1927L12.9431 43.3286C12.9008 43.2973 12.8455 43.2728 12.8227 43.2066C12.7836 43.2275 12.8129 43.2659 12.8422 43.3565L12.6958 43.2484C12.4778 43.2589 12.5884 43.6283 12.4095 43.6981C12.0158 43.5691 11.9247 44.1163 11.8889 44.437C11.941 44.9946 10.8966 44.423 10.9877 45.0434C10.9519 45.0225 10.9942 45.1097 11.0169 45.1341L10.7729 45.3397C10.7729 45.3397 10.4931 45.6081 10.5289 45.981C10.5582 46.3575 10.9259 46.8036 12.1264 47.2428L12.1655 47.2916C12.3769 47.2811 12.468 47.2323 12.3216 46.9221C12.6014 47.1905 12.4388 46.8559 12.5494 46.9186L12.5689 46.943C12.4322 46.6537 12.8715 46.9744 12.7576 46.713C12.7771 46.7374 12.8454 46.8175 12.8357 46.8384C12.8487 46.7548 12.8552 46.6223 13.0114 46.7861C13.0829 46.6258 13.3075 46.5387 13.1448 46.1971L13.1806 46.2494C13.0602 46.0228 13.2098 46.1693 13.1773 46.0263C13.2001 46.0473 13.2131 46.0542 13.2196 46.0647C13.109 45.8381 13.3302 45.9009 13.3009 45.7858L13.4018 45.8974L13.4734 45.7789L13.4181 45.7893C13.161 45.4617 13.6588 45.9183 13.5515 45.6499C13.6491 45.629 13.1285 44.8622 13.327 44.9528C13.2359 44.7716 13.4994 45.2247 13.4539 45.0609C13.5938 45.2247 13.5189 45.1863 13.6393 45.3083C13.6198 45.1829 13.8573 45.4059 13.8215 45.2386L13.9289 45.3676C13.8117 45.0574 14.2119 45.4094 14.0785 45.1341C14.072 44.9528 14.4429 45.4791 14.3193 45.1445L14.4917 45.2944C14.5503 45.2944 14.3453 45.0539 14.4527 45.1027C14.5405 45.2177 14.5731 45.148 14.6349 45.277C14.8594 45.378 14.6186 44.8657 14.9667 45.0644C14.8236 44.8204 14.983 44.9005 14.8757 44.7158C14.9537 44.8099 15.0058 44.6287 15.1002 44.8971C15.1067 44.918 15.0936 44.9249 15.0676 44.8866L15.1587 45.026C15.4125 45.2212 15.1782 44.7855 15.2726 44.7646C15.2205 44.7367 15.201 44.7716 15.1522 44.6635L15.227 44.6287L15.2986 44.7507L15.4385 44.7367L15.3246 44.6078C15.4223 44.6391 15.6109 44.8657 15.5166 44.6252C15.458 44.4962 15.3344 44.4718 15.3507 44.3882C15.4808 44.4335 15.6793 44.5032 15.7866 44.4788C15.6663 44.3254 15.6923 44.315 15.689 44.2627L15.7899 44.3986C15.7378 44.1372 16.0372 44.6775 16.0079 44.4579L16.0697 44.559L15.8875 44.2522C15.7671 43.9176 16.1283 44.5067 15.9493 44.064C15.9331 44.1128 15.7183 43.7713 15.8029 43.7991L15.8875 43.942C15.8875 43.8967 15.8582 43.834 15.894 43.848C15.9298 43.9316 16.0241 44.0501 16.0404 44.0013L16.1348 44.186L16.0241 43.8898C16.1738 43.9943 16.125 43.7538 16.2747 43.9281C16.2747 43.9281 16.4406 43.9386 16.3235 43.712C16.3918 43.8584 16.4829 43.8619 16.5707 44.0292C16.4992 43.8619 16.4959 43.6771 16.6358 43.8131L16.6423 43.834C16.8701 43.9037 16.7009 43.4576 16.9351 43.5726C16.8213 43.4123 16.9351 43.4576 16.7855 43.2589C16.7627 42.9661 17.2703 43.5377 16.8863 42.8511C16.9156 42.7779 17.0458 42.9592 17.0946 42.9731L17.1043 43.0184C17.1661 42.8929 17.1889 42.865 17.2735 42.8302C17.2703 42.7396 17.0816 42.4294 17.1922 42.4573C17.2475 42.5932 17.2605 42.5514 17.2833 42.5339C17.28 42.5653 17.3028 42.6141 17.3874 42.6699C17.3679 42.628 17.3614 42.6002 17.3549 42.5758C17.3614 42.5862 17.3679 42.5932 17.3744 42.6036C17.3874 42.5304 17.3581 42.4991 17.3288 42.4956C17.3191 42.4747 17.3028 42.4537 17.2735 42.4224C17.4134 42.5513 17.3841 42.3283 17.5208 42.5339C17.6119 42.398 17.5663 42.1192 17.6216 41.9623C17.6997 42.0634 17.7355 42.1749 17.729 42.2377L17.7778 42.1471C17.8722 42.3039 17.7908 42.2656 17.7876 42.3143C18.0283 42.506 17.8136 41.9379 18.0544 42.0983L18.0023 41.9588L18.0218 41.9763C17.9828 41.91 17.9502 41.8055 17.9535 41.7741C18.0511 41.8996 18.1422 42.0913 18.1878 42.046C18.3049 42.1505 18.2626 41.9031 18.2724 41.7915C18.2301 41.788 18.1943 41.7044 18.178 41.6486C18.2008 41.6277 18.2951 41.7532 18.2821 41.6835L18.3927 41.8682C18.2789 41.7009 18.3472 41.6347 18.3146 41.551C18.409 41.68 18.3439 41.6974 18.3992 41.8054C18.4903 41.7183 18.4448 41.7636 18.5359 41.6765C18.5099 41.4987 18.422 41.5057 18.3537 41.3245C18.3797 41.2548 18.3537 41.0944 18.4741 41.1676L18.3602 41.0143C18.3797 40.8261 18.4448 40.8086 18.6042 40.9341C18.5619 40.0314 18.3439 39.5399 18.1292 39.2785C17.9112 39.0171 17.6997 38.9857 17.6997 38.9857C17.2084 38.801 17.3353 39.3831 17.0815 39.7351L17.075 39.7526Z" fill="#20BB65"/>
<path d="M7.81619 54.3322L7.73767 54.3251C7.77039 54.3392 7.79983 54.3462 7.81619 54.3322Z" fill="#20BB65"/>
<path d="M5.64551 60.5745C5.64551 60.5745 5.65614 60.582 5.65969 60.5858C5.65614 60.5782 5.64906 60.5745 5.64551 60.5745Z" fill="#20BB65"/>
<path d="M5.0863 54.2212C5.0863 54.2212 5.07609 54.2103 5.06927 54.2066L5.08289 54.2212H5.0863Z" fill="#20BB65"/>
<path d="M5.78845 53.025C5.56721 53.3178 5.2093 53.2585 5.19954 53.6698C5.10519 53.8232 5.1117 54.0393 5.08568 54.2171C5.31017 54.4088 5.00433 54.4331 5.18328 54.6213L5.02711 54.5935C5.08893 54.6562 5.12473 54.7154 5.03363 54.7154L4.99133 54.6946C5.08243 54.7887 4.99783 54.8131 5.04338 54.8619L5.00108 54.8409V54.9072L4.94252 54.8723C5.02711 55.0048 5.00108 55.0954 4.91974 55.1441L5.09868 55.2139C4.84165 55.2906 5.18328 55.5032 4.89697 55.5485L4.85467 55.5276C5.2516 55.9075 4.43172 55.6844 4.80262 56.0608C4.75707 56.0155 4.70827 56.0329 4.66598 56.012C4.6855 56.1201 4.67898 56.2246 5.02386 56.3675C4.99783 56.4303 4.89697 56.3745 4.76032 56.3292C4.91324 56.3919 4.95554 56.4721 4.94578 56.5244L4.89373 56.4791V56.6429L5.18979 56.73C5.08242 56.7719 4.8319 56.608 4.87744 56.7056L5.11497 56.7997C5.03037 56.8834 4.64971 56.7998 4.43823 56.8311C4.1877 57.2145 4.64645 57.9046 4.09335 58.1382L3.9079 58.0894C3.64111 57.9987 4.26254 58.3438 4.01201 58.2671L4.11613 58.3578C4.06407 58.3543 4.00551 58.3612 3.95345 58.3159C3.93068 58.3543 3.97296 58.3717 4.04128 58.4309L3.86234 58.417C3.68014 58.539 3.95345 58.7969 3.83307 58.9503C3.43289 59.0444 3.61508 59.5567 3.72896 59.8495C4.02828 60.3061 2.86026 60.3375 3.21815 60.8254C3.17585 60.8254 3.25395 60.8812 3.28648 60.8881L3.16284 61.1844C3.16284 61.1844 3.03594 61.5504 3.2279 61.8606C3.4166 62.1708 3.92742 62.4043 5.18653 62.1952L5.24184 62.2196C5.42729 62.1011 5.48586 62.0105 5.22232 61.8048C5.58671 61.8989 5.29715 61.6828 5.42404 61.6828L5.45333 61.6968C5.2028 61.5086 5.73964 61.5678 5.5184 61.3936C5.54443 61.4075 5.64529 61.4388 5.64204 61.4632C5.61601 61.3796 5.56394 61.2576 5.77542 61.3238C5.76892 61.1426 5.92834 60.9439 5.62901 60.7278L5.68434 60.7557C5.47936 60.6198 5.67457 60.6651 5.58022 60.5605C5.6095 60.5675 5.62251 60.5675 5.63552 60.571C5.4338 60.4281 5.6583 60.3688 5.58022 60.2817L5.72012 60.327L5.72663 60.1841L5.68108 60.2225C5.30692 60.0726 5.94786 60.205 5.73313 60.0272C5.80796 59.9575 5.00109 59.5672 5.21583 59.5393C5.05315 59.4312 5.49237 59.6822 5.37525 59.5672C5.57371 59.6369 5.48911 59.6404 5.65179 59.6822C5.57696 59.5846 5.88605 59.6474 5.77868 59.5219L5.93159 59.5742C5.68432 59.3685 6.19514 59.4522 5.95113 59.2883C5.86003 59.135 6.42939 59.3859 6.1626 59.1629L6.38383 59.1977C6.43264 59.1629 6.14307 59.0688 6.2602 59.0548C6.39034 59.1071 6.38708 59.0269 6.50096 59.1036C6.74172 59.0618 6.28948 58.7551 6.68641 58.7307C6.44565 58.6017 6.62136 58.5808 6.43916 58.4832C6.54978 58.5216 6.51073 58.3333 6.71896 58.5146C6.73523 58.5285 6.72871 58.5425 6.68641 58.525L6.83282 58.5947C7.14516 58.6157 6.73197 58.3752 6.80355 58.3055C6.74499 58.3124 6.74823 58.3508 6.65063 58.288L6.69944 58.2148L6.81982 58.281L6.93368 58.1904L6.77101 58.1451C6.87186 58.1172 7.14192 58.2009 6.94345 58.0475C6.82958 57.9674 6.71569 58.0196 6.68641 57.9395C6.81981 57.9011 7.02153 57.8489 7.10287 57.7652C6.92393 57.706 6.94019 57.6781 6.91416 57.6362L7.06709 57.6955C6.89465 57.5038 7.41521 57.7896 7.28507 57.6188L7.38593 57.6711L7.0801 57.5143C6.81331 57.2947 7.41196 57.5909 7.04105 57.3191C7.05081 57.3713 6.69944 57.2006 6.78403 57.1762L6.92393 57.2494C6.90441 57.2075 6.84585 57.1727 6.88163 57.1657C6.95321 57.2145 7.08986 57.2633 7.0801 57.211L7.25254 57.3156L7.01176 57.1274C7.19071 57.1274 7.02804 56.9531 7.24277 57.0123C7.24277 57.0123 7.38918 56.9217 7.1777 56.7997C7.30784 56.8834 7.38918 56.8346 7.54535 56.9252C7.39894 56.8241 7.30785 56.6708 7.49004 56.7022L7.50631 56.7161C7.73406 56.6429 7.3664 56.3606 7.62343 56.3187C7.44774 56.249 7.56812 56.2211 7.34037 56.141C7.17444 55.9075 7.88697 56.0887 7.21999 55.7367C7.20698 55.6565 7.40869 55.7332 7.4575 55.7158L7.48679 55.7471C7.47377 55.6042 7.48028 55.5694 7.53234 55.4892C7.48354 55.416 7.16793 55.2661 7.2753 55.2243C7.39243 55.308 7.37943 55.2627 7.39244 55.2348C7.40546 55.2627 7.44775 55.2905 7.54861 55.2871C7.51282 55.2627 7.49005 55.2452 7.47378 55.2278C7.48354 55.2313 7.49329 55.2348 7.50631 55.2418C7.48028 55.172 7.43799 55.1651 7.41196 55.179C7.39244 55.1686 7.36641 55.1616 7.33062 55.1511C7.51282 55.1755 7.37617 55.0047 7.59416 55.0953C7.60067 54.928 7.41846 54.7189 7.38267 54.5586C7.4998 54.597 7.58765 54.6701 7.61694 54.7259L7.61042 54.6213C7.76985 54.6945 7.68199 54.712 7.70477 54.7538C8.00409 54.7712 7.53234 54.4227 7.81865 54.4122L7.70151 54.3286H7.72429C7.65596 54.3007 7.57788 54.231 7.56161 54.2031C7.70802 54.2519 7.88047 54.353 7.89674 54.2902C8.04965 54.3077 7.88372 54.1264 7.83492 54.0288C7.79913 54.0497 7.72429 54.0044 7.68199 53.9661C7.6885 53.9347 7.83491 53.9835 7.78611 53.9312L7.97482 54.0184C7.79262 53.9452 7.81539 53.8511 7.74381 53.8023C7.89022 53.8511 7.84467 53.9068 7.94553 53.9626C7.97806 53.8336 7.9618 53.8999 7.99434 53.7709C7.88046 53.6385 7.81215 53.6977 7.65923 53.5897C7.64622 53.5165 7.53885 53.398 7.67875 53.3875L7.50305 53.3282C7.41846 53.1609 7.46401 53.1052 7.66247 53.1156C7.15492 52.3942 6.71569 52.1188 6.4001 52.0317C6.08125 51.9515 5.89255 52.0491 5.89255 52.0491C5.3915 52.192 5.80145 52.5893 5.77542 53.032L5.78845 53.025Z" fill="#20BB65"/>
<path d="M3.56699 70.7066L3.48846 70.7241C3.52445 70.7277 3.5539 70.7241 3.56699 70.7066Z" fill="#20BB65"/>
<path d="M3.37115 77.3115C3.37115 77.3115 3.38139 77.3115 3.38821 77.3188C3.38139 77.3151 3.37456 77.3115 3.37115 77.3115Z" fill="#20BB65"/>
<path d="M0.931542 71.4771C0.931542 71.4771 0.921551 71.47 0.91156 71.4664L0.931542 71.4771Z" fill="#20BB65"/>
<path d="M1.2726 70.0967C1.1392 70.4522 0.781314 70.5115 0.885427 70.9088C0.839877 71.09 0.904933 71.2922 0.930961 71.4735C1.19775 71.585 0.914698 71.707 1.13919 71.829L0.979772 71.8534C1.0546 71.8952 1.10666 71.9405 1.01881 71.9684L0.973259 71.9614C1.08713 72.0242 1.01232 72.0764 1.07088 72.1043L1.02533 72.0974L1.04159 72.1601L0.976516 72.1427C1.09364 72.2437 1.09689 72.3344 1.03508 72.411L1.22379 72.418C1.00255 72.5784 1.38973 72.669 1.12944 72.8084H1.08389C1.56866 73.0315 0.726004 73.0977 1.19126 73.3312C1.1327 73.3033 1.09365 73.3382 1.0481 73.3312C1.09691 73.4288 1.12293 73.5299 1.49058 73.5508C1.48407 73.617 1.37345 73.5996 1.22704 73.6031C1.38972 73.6101 1.45478 73.6728 1.46129 73.7251L1.39947 73.6972L1.44828 73.854L1.75737 73.8366C1.66627 73.9133 1.38322 73.8436 1.4548 73.9237L1.70856 73.9342C1.6565 74.0422 1.26933 74.0945 1.07737 74.1991C0.95374 74.6557 1.59795 75.1506 1.14896 75.5689L0.956995 75.5863C0.677191 75.5932 1.3702 75.7013 1.10992 75.7187L1.23679 75.7675C1.18799 75.7815 1.1327 75.8093 1.07088 75.7884C1.06112 75.8337 1.10667 75.8338 1.19126 75.8686L1.01881 75.9174C0.885418 76.0987 1.22053 76.2485 1.15546 76.4367C0.807328 76.6738 1.14244 77.0955 1.34091 77.329C1.76712 77.6497 0.680442 78.1132 1.17823 78.4409C1.13919 78.4548 1.23029 78.4792 1.26283 78.4757L1.24331 78.8033C1.24331 78.8033 1.24331 79.2007 1.52636 79.4168C1.80617 79.6364 2.36253 79.6573 3.46874 78.9881H3.53055C3.66395 78.8103 3.68997 78.7058 3.37763 78.6117C3.75178 78.5629 3.40692 78.4722 3.5273 78.4234H3.55657C3.26375 78.3433 3.78106 78.1969 3.51753 78.1167C3.54681 78.1167 3.65092 78.1167 3.65743 78.1376C3.60537 78.0679 3.51752 77.9773 3.73551 77.9564C3.67044 77.7891 3.7583 77.5486 3.40692 77.4545H3.46874C3.23123 77.4092 3.42968 77.3813 3.3093 77.315C3.33858 77.3116 3.35161 77.3046 3.36462 77.3046C3.13037 77.2454 3.32232 77.1059 3.21821 77.0536L3.36136 77.0432L3.32232 76.9073L3.29303 76.9596C2.89285 76.9561 3.54031 76.848 3.28002 76.7574C3.32883 76.6633 2.44711 76.5901 2.63907 76.489C2.45036 76.4472 2.94166 76.5239 2.79851 76.4576C3.00673 76.4507 2.92864 76.4855 3.09457 76.4646C2.99371 76.3984 3.3028 76.3496 3.1629 76.2694L3.32558 76.2625C3.02951 76.1579 3.53705 76.0568 3.25399 75.9871C3.1206 75.8756 3.73226 75.9069 3.41667 75.7954L3.63465 75.7501C3.67044 75.7013 3.36461 75.7152 3.47197 75.6595C3.60862 75.6595 3.58261 75.5898 3.71275 75.6211C3.92748 75.4991 3.40692 75.3702 3.77131 75.2099C3.50452 75.1715 3.66394 75.0913 3.46222 75.0635C3.57935 75.0635 3.48499 74.8997 3.73551 74.9938C3.75503 75.0007 3.75179 75.0147 3.70624 75.0147L3.86566 75.0286C4.16824 74.9415 3.70299 74.8578 3.75179 74.7672C3.69973 74.7951 3.71274 74.8299 3.60212 74.8021L3.6249 74.7184L3.75829 74.7393L3.83962 74.6138L3.67371 74.6278C3.7583 74.5685 4.04135 74.5546 3.8071 74.4779C3.67695 74.4431 3.58261 74.5302 3.53055 74.464C3.64768 74.3838 3.82011 74.2653 3.87217 74.1607C3.68672 74.1607 3.69322 74.1363 3.65743 74.105H3.8201C3.59886 73.9865 4.17799 74.0806 4.0023 73.9621L4.11619 73.976L3.77781 73.9342C3.45896 73.8192 4.11618 73.8958 3.68346 73.7634C3.70949 73.8087 3.32557 73.7669 3.39715 73.7181L3.55331 73.739C3.52078 73.7077 3.4557 73.6937 3.49149 73.6763C3.57608 73.6972 3.71926 73.6972 3.69323 73.6519L3.88843 73.6902L3.60538 73.5926C3.77456 73.5369 3.56959 73.4218 3.79083 73.4079C3.79083 73.4079 3.9047 73.2754 3.66394 73.2301C3.8136 73.2685 3.87216 73.1953 4.04785 73.2266C3.88192 73.1813 3.74853 73.0663 3.93073 73.035L3.95025 73.0454C4.14221 72.9025 3.71274 72.7596 3.947 72.6341C3.75829 72.6272 3.86566 72.5609 3.6249 72.5609C3.39715 72.3936 4.13244 72.3344 3.39389 72.2193C3.3581 72.1496 3.57283 72.1531 3.61513 72.1218L3.65417 72.1427C3.60211 72.0137 3.59887 71.9754 3.62164 71.8847C3.55332 71.8325 3.2117 71.7941 3.29955 71.7175C3.43294 71.7558 3.41016 71.7175 3.41341 71.6896C3.43293 71.7105 3.48174 71.721 3.57934 71.6896C3.53705 71.6791 3.51101 71.6686 3.49149 71.6582C3.50125 71.6582 3.51103 71.6582 3.52404 71.6582C3.48174 71.6024 3.43619 71.6059 3.41667 71.6303C3.39715 71.6303 3.36786 71.6268 3.32882 71.6303C3.51101 71.592 3.32883 71.477 3.56634 71.4944C3.52404 71.334 3.29304 71.1946 3.21495 71.0517C3.33858 71.0517 3.43945 71.0935 3.485 71.1354L3.44922 71.0378C3.62165 71.0587 3.54355 71.1005 3.57609 71.1354C3.86891 71.0552 3.31907 70.8775 3.58911 70.7764L3.45571 70.7345H3.47849C3.40691 70.7206 3.3093 70.6823 3.28978 70.6579C3.44269 70.6579 3.6379 70.6997 3.63465 70.637C3.78431 70.6056 3.5761 70.4836 3.50452 70.4069C3.47524 70.4383 3.3939 70.4174 3.34184 70.3965C3.34184 70.3651 3.49477 70.3651 3.42969 70.3303L3.63465 70.3546C3.44269 70.3442 3.43619 70.2431 3.35485 70.2222C3.50777 70.2222 3.4785 70.2884 3.59237 70.3128C3.58912 70.1804 3.59237 70.2466 3.58586 70.1176C3.43945 70.0305 3.39064 70.1037 3.21821 70.0479C3.18567 69.9817 3.04902 69.9015 3.17917 69.8493H2.99697C2.87008 69.7133 2.89936 69.6471 3.09457 69.5948C2.41458 69.0616 1.92005 68.9326 1.5947 68.95C1.26934 68.9639 1.11316 69.1208 1.11316 69.1208C0.670678 69.4171 1.17173 69.675 1.26609 70.1072L1.2726 70.0967Z" fill="#20BB65"/>
<path d="M4.97613 87.4612L4.90985 87.5109C4.94299 87.5002 4.9695 87.4825 4.97613 87.4612Z" fill="#20BB65"/>
<path d="M2.6456 87.8864C2.65862 88.2698 2.35278 88.4789 2.60005 88.8031C2.62933 88.9878 2.76274 89.1481 2.85709 89.305C3.1434 89.291 2.93192 89.5281 3.18245 89.542L3.04904 89.6326C3.13363 89.6361 3.1987 89.657 3.13038 89.7198L3.08808 89.7337C3.21497 89.7406 3.16617 89.8208 3.23124 89.8243L3.18894 89.8382L3.22798 89.8905L3.16292 89.9044C3.30933 89.9463 3.34512 90.0299 3.31909 90.1275L3.49477 90.0509C3.35487 90.2948 3.74204 90.2077 3.55985 90.4482L3.51755 90.4622C4.04788 90.4622 3.30606 90.8874 3.81687 90.8978C3.7518 90.8978 3.72904 90.9466 3.68674 90.964C3.76808 91.0303 3.82989 91.1139 4.17477 90.9675C4.19429 91.0337 4.08693 91.0651 3.95679 91.1313C4.10645 91.0651 4.19104 91.0965 4.22032 91.1383H4.15199L4.25611 91.2603L4.52939 91.1069C4.47734 91.2185 4.19103 91.2777 4.28538 91.3196L4.51964 91.215C4.51314 91.337 4.18127 91.5565 4.04788 91.7378C4.11295 92.2083 4.89055 92.3721 4.64654 92.9542L4.4806 93.0553C4.23008 93.1877 4.9003 92.9786 4.67255 93.1076L4.80921 93.0936C4.77017 93.1285 4.73113 93.1808 4.66606 93.1843C4.67582 93.2296 4.71486 93.2122 4.80596 93.2017L4.66931 93.3237C4.62051 93.5502 4.98164 93.5363 4.9979 93.735C4.77341 94.1044 5.24193 94.3414 5.51522 94.4634C6.02928 94.5645 5.22241 95.4742 5.80154 95.5474C5.77226 95.5788 5.86334 95.5578 5.89263 95.5404L6.00326 95.8436C6.00326 95.8436 6.15941 96.2026 6.50104 96.2723C6.84266 96.3455 7.35347 96.1155 8.09528 95.0071L8.15058 94.9828C8.20264 94.7597 8.18312 94.6516 7.86427 94.7074C8.18312 94.4983 7.83499 94.568 7.92609 94.4704L7.95538 94.4564C7.65605 94.5157 8.07251 94.1497 7.79921 94.195C7.8285 94.1846 7.91959 94.1323 7.9326 94.1497C7.86102 94.1114 7.74389 94.0661 7.9326 93.9511C7.80897 93.8291 7.79269 93.5712 7.43806 93.6444L7.49338 93.6199C7.25913 93.6792 7.42831 93.5642 7.29166 93.5607C7.31444 93.5433 7.32744 93.5328 7.3372 93.5258C7.10294 93.5781 7.22009 93.3655 7.10947 93.3655L7.23634 93.2923L7.14851 93.1877L7.14199 93.247C6.7776 93.4213 7.32093 93.0344 7.05088 93.0693C7.05739 92.9647 6.231 93.2923 6.36439 93.1111C6.17894 93.1564 6.65397 93.0065 6.4978 93.01C6.68325 92.9124 6.62793 92.9786 6.77108 92.8845C6.65396 92.8706 6.9175 92.6859 6.75482 92.6754L6.89798 92.5987C6.58889 92.6371 7.00859 92.3164 6.72553 92.3826C6.5596 92.3408 7.13223 92.0968 6.79712 92.1351L6.97932 91.9957C6.99233 91.9365 6.72229 92.0829 6.79712 91.9888C6.92401 91.9295 6.8687 91.8772 7.00209 91.8459C7.15176 91.6367 6.62793 91.7517 6.89798 91.445C6.64095 91.5287 6.75483 91.3858 6.55962 91.4485C6.66373 91.3927 6.51407 91.2882 6.78086 91.2638C6.80363 91.2638 6.80363 91.2777 6.76133 91.2952L6.91098 91.2359C7.15175 91.0233 6.69625 91.1522 6.70601 91.0477C6.66697 91.0965 6.693 91.1209 6.58563 91.1453L6.57262 91.0581L6.70277 91.0163L6.72879 90.8664L6.58237 90.9536C6.63768 90.8595 6.88821 90.7236 6.64745 90.7584C6.51405 90.7828 6.46526 90.9048 6.39043 90.8664C6.462 90.7444 6.57587 90.5562 6.58563 90.4412C6.41645 90.5284 6.4132 90.497 6.36765 90.4865L6.51732 90.4168C6.27005 90.4064 6.8329 90.2356 6.62793 90.2042L6.7353 90.1693L6.40995 90.2774C6.07809 90.3123 6.70276 90.0927 6.25702 90.1659C6.29932 90.1972 5.93168 90.3297 5.98048 90.2495L6.13015 90.2007C6.08785 90.1868 6.02603 90.2007 6.04881 90.1693C6.1334 90.1519 6.26354 90.0892 6.22449 90.0578L6.41646 90.009L6.12038 90.0439C6.25377 89.9184 6.02277 89.9045 6.22124 89.7929C6.22124 89.7929 6.27329 89.6222 6.03904 89.6849C6.1887 89.6535 6.21473 89.5594 6.38717 89.5106C6.21473 89.542 6.05206 89.4967 6.20823 89.3886H6.23101C6.35464 89.1725 5.90566 89.2318 6.07159 89.0157C5.8959 89.0924 5.96746 88.9843 5.74947 89.0889C5.47943 89.0366 6.12688 88.6602 5.40785 88.8798C5.34929 88.831 5.54776 88.7438 5.57379 88.695H5.61608C5.51848 88.6009 5.50221 88.566 5.48919 88.4754C5.4046 88.458 5.07925 88.5696 5.13131 88.4615C5.26796 88.4406 5.23542 88.4162 5.22566 88.3848C5.25168 88.3953 5.30049 88.3848 5.37533 88.3151C5.33303 88.3256 5.30699 88.3256 5.28422 88.3256C5.29398 88.3221 5.3005 88.3186 5.31676 88.3116C5.25495 88.2803 5.21915 88.3012 5.20613 88.3326C5.18661 88.3395 5.16059 88.35 5.12805 88.3709C5.28097 88.2594 5.07275 88.2315 5.29399 88.1443C5.19638 88.0154 4.92959 87.991 4.80596 87.8934C4.91658 87.8376 5.02719 87.8341 5.0825 87.8551L5.01419 87.7818C5.18012 87.7261 5.1248 87.7992 5.16709 87.8167C5.4046 87.618 4.83523 87.6912 5.04346 87.4856L4.90356 87.503L4.92308 87.4891C4.85475 87.5135 4.75064 87.517 4.72136 87.5065C4.86126 87.4403 5.05648 87.3949 5.03045 87.3392C5.15409 87.2451 4.91983 87.2242 4.82548 87.1858C4.80921 87.2277 4.72786 87.2451 4.67255 87.2451C4.65954 87.2172 4.79946 87.151 4.73113 87.1475L4.92634 87.0813C4.74414 87.1544 4.70509 87.0638 4.6205 87.0813C4.7604 87.0185 4.76041 87.0882 4.87103 87.0604C4.81897 86.9419 4.84499 87.0011 4.79293 86.8861C4.627 86.8687 4.61073 86.9558 4.42854 86.9802C4.37322 86.9349 4.22032 86.9209 4.32118 86.8164L4.15199 86.8931C3.98606 86.8234 3.98931 86.7502 4.14548 86.6212C3.32233 86.419 2.8213 86.5097 2.52848 86.663C2.23566 86.8164 2.15106 87.029 2.15106 87.029C1.85173 87.4925 2.41135 87.5169 2.66187 87.8759L2.6456 87.8864Z" fill="#20BB65"/>
<path d="M12.7387 102.079L12.699 102.154C12.7255 102.129 12.7454 102.1 12.7387 102.079Z" fill="#20BB65"/>
<path d="M17.1465 106.722C17.1465 106.722 17.1568 106.715 17.1636 106.711C17.1568 106.711 17.15 106.719 17.1465 106.722Z" fill="#20BB65"/>
<path d="M11.4892 104.683C11.4892 104.683 11.4792 104.686 11.4692 104.69L11.4892 104.683Z" fill="#20BB65"/>
<path d="M10.7698 103.48C10.926 103.825 10.7243 104.146 11.0691 104.334C11.1635 104.491 11.3457 104.578 11.4888 104.679C11.7459 104.543 11.6418 104.85 11.8728 104.756L11.7849 104.899C11.8663 104.868 11.9281 104.857 11.889 104.944L11.8532 104.976C11.9736 104.927 11.9574 105.021 12.0159 104.997L11.9801 105.028L12.0354 105.059L11.9801 105.098C12.1298 105.073 12.1949 105.132 12.2046 105.234L12.338 105.091C12.299 105.373 12.6211 105.129 12.543 105.429L12.5072 105.46C12.992 105.23 12.4714 105.938 12.9432 105.732C12.8846 105.76 12.8814 105.812 12.8456 105.847C12.9464 105.875 13.031 105.924 13.2946 105.645C13.3368 105.697 13.249 105.77 13.1547 105.885C13.2685 105.763 13.3564 105.753 13.3987 105.784L13.3369 105.816L13.4768 105.882L13.672 105.627C13.6622 105.749 13.4214 105.927 13.5256 105.924L13.7045 105.728C13.7435 105.843 13.5158 106.185 13.4572 106.405C13.6882 106.809 14.4593 106.638 14.4398 107.273L14.3227 107.436C14.1372 107.663 14.6838 107.189 14.5179 107.405L14.6383 107.339C14.6155 107.388 14.5992 107.45 14.5374 107.482C14.5602 107.52 14.5927 107.485 14.6741 107.44L14.5895 107.611C14.622 107.837 14.9506 107.677 15.0385 107.855C14.9604 108.29 15.4744 108.311 15.7705 108.318C16.2813 108.203 15.8486 109.367 16.4082 109.203C16.3919 109.242 16.47 109.189 16.4895 109.162L16.6978 109.399C16.6978 109.399 16.9645 109.667 17.3029 109.601C17.6445 109.535 18.0447 109.12 18.3538 107.799L18.3961 107.754C18.3668 107.523 18.3115 107.433 18.0317 107.611C18.2562 107.29 17.9569 107.489 18.0057 107.363L18.0285 107.339C17.7714 107.51 18.0285 107.008 17.7942 107.157C17.817 107.137 17.8821 107.053 17.9048 107.063C17.8235 107.056 17.6998 107.063 17.8365 106.879C17.6771 106.816 17.573 106.579 17.2671 106.788L17.3127 106.743C17.1142 106.893 17.2313 106.718 17.1045 106.767C17.1207 106.743 17.1272 106.725 17.1337 106.718C16.932 106.861 16.9678 106.617 16.8637 106.659L16.958 106.541L16.8409 106.478L16.8572 106.537C16.5806 106.847 16.9483 106.269 16.7108 106.408C16.6815 106.307 16.0275 106.945 16.0893 106.725C15.9332 106.844 16.3204 106.509 16.1772 106.579C16.3138 106.412 16.2878 106.495 16.3854 106.352C16.2715 106.387 16.4505 106.108 16.2976 106.164L16.4049 106.032C16.1316 106.195 16.4049 105.725 16.1674 105.899C16.0015 105.931 16.4407 105.471 16.1447 105.641L16.2618 105.439C16.252 105.376 16.0568 105.627 16.0893 105.505C16.1837 105.397 16.1154 105.373 16.226 105.289C16.2878 105.035 15.8453 105.356 15.982 104.958C15.7738 105.143 15.8258 104.962 15.6697 105.101C15.7477 105.007 15.5688 104.972 15.8063 104.84C15.8258 104.829 15.8323 104.84 15.7998 104.875L15.9169 104.76C16.0601 104.463 15.6892 104.77 15.6599 104.672C15.6404 104.732 15.6762 104.746 15.5851 104.815L15.5428 104.739L15.6469 104.648L15.6143 104.498L15.5102 104.638C15.5265 104.529 15.7087 104.296 15.4972 104.428C15.3833 104.509 15.3801 104.641 15.302 104.634C15.3248 104.488 15.3606 104.272 15.3248 104.16C15.2011 104.31 15.1849 104.285 15.1393 104.292L15.2499 104.167C15.0157 104.258 15.4744 103.867 15.2727 103.923L15.3573 103.843L15.1003 104.08C14.8075 104.251 15.302 103.787 14.9181 104.042C14.9669 104.052 14.6806 104.327 14.6936 104.233L14.814 104.125C14.7717 104.129 14.7164 104.17 14.7261 104.132C14.7977 104.08 14.892 103.968 14.8465 103.954L15.0059 103.829L14.7456 103.986C14.8237 103.811 14.6057 103.899 14.7456 103.714C14.7456 103.714 14.7326 103.533 14.5374 103.693C14.6643 103.602 14.6545 103.505 14.7944 103.386C14.648 103.487 14.4788 103.515 14.583 103.348L14.6025 103.337C14.635 103.086 14.2446 103.33 14.3162 103.062C14.1828 103.205 14.2088 103.076 14.0461 103.268C13.7761 103.337 14.2316 102.714 13.6557 103.219C13.5841 103.198 13.7305 103.034 13.737 102.978L13.7761 102.961C13.6525 102.912 13.6232 102.891 13.5776 102.811C13.4963 102.829 13.236 103.076 13.2458 102.951C13.3629 102.87 13.3238 102.863 13.3043 102.843C13.3336 102.843 13.3726 102.811 13.4149 102.714C13.3791 102.741 13.3564 102.752 13.3336 102.762C13.3401 102.755 13.3466 102.748 13.3564 102.738C13.288 102.734 13.262 102.773 13.262 102.804C13.2458 102.818 13.2262 102.839 13.2035 102.874C13.3011 102.707 13.0994 102.769 13.2685 102.595C13.1286 102.518 12.8781 102.609 12.7284 102.574C12.8098 102.477 12.9106 102.424 12.9692 102.417L12.8781 102.379C13.0083 102.257 12.9855 102.348 13.031 102.344C13.1742 102.062 12.6796 102.372 12.7935 102.093L12.6731 102.17L12.6861 102.149C12.6308 102.201 12.5397 102.25 12.5105 102.25C12.6146 102.128 12.774 102.003 12.7284 101.961C12.8065 101.821 12.5853 101.905 12.4812 101.912C12.4812 101.957 12.4128 102.006 12.364 102.034C12.3413 102.013 12.4454 101.891 12.3803 101.919L12.5332 101.772C12.3933 101.919 12.325 101.853 12.2534 101.905C12.3576 101.786 12.3836 101.853 12.4747 101.779C12.3803 101.696 12.4291 101.738 12.3348 101.654C12.1754 101.71 12.1949 101.797 12.0387 101.898C11.9704 101.881 11.824 101.933 11.876 101.793L11.7524 101.936C11.5734 101.947 11.5507 101.877 11.645 101.689C10.8186 101.867 10.3957 102.166 10.1842 102.435C9.97595 102.703 9.97596 102.933 9.97596 102.933C9.87836 103.484 10.3989 103.261 10.7601 103.48H10.7698Z" fill="#20BB65"/>
<path d="M25.0433 112.738L25.0269 112.822C25.0433 112.79 25.0531 112.759 25.0433 112.738Z" fill="#20BB65"/>
<path d="M30.6034 115.712C30.6034 115.712 30.6105 115.704 30.6176 115.697C30.6105 115.7 30.6069 115.708 30.6034 115.712Z" fill="#20BB65"/>
<path d="M24.6403 115.63C24.6403 115.63 24.6301 115.638 24.6233 115.645L24.6403 115.63Z" fill="#20BB65"/>
<path d="M23.6047 114.745C23.8552 115.014 23.7576 115.39 24.1415 115.446C24.2749 115.561 24.4734 115.582 24.6393 115.627C24.841 115.411 24.8313 115.735 25.0265 115.568L24.9842 115.732C25.0493 115.673 25.1078 115.645 25.0981 115.739L25.0753 115.781C25.1729 115.694 25.1859 115.788 25.238 115.746L25.2152 115.788L25.277 115.798L25.238 115.854C25.3714 115.781 25.4495 115.812 25.4918 115.906L25.5763 115.725C25.6186 116.007 25.8561 115.666 25.8659 115.976L25.8431 116.018C26.2368 115.638 25.944 116.485 26.3312 116.129C26.2824 116.175 26.2954 116.227 26.2726 116.269C26.3767 116.262 26.4711 116.279 26.6402 115.927C26.6956 115.962 26.6337 116.063 26.5752 116.203C26.65 116.046 26.7281 116.011 26.7769 116.025L26.7281 116.074L26.881 116.088L26.9949 115.781C27.0209 115.903 26.842 116.147 26.9396 116.112L27.0535 115.868C27.1218 115.966 27.0046 116.363 27.0112 116.593C27.343 116.9 28.0295 116.485 28.1889 117.095L28.1239 117.287C28.0132 117.562 28.3971 116.935 28.3028 117.193L28.3972 117.088C28.3874 117.14 28.3906 117.207 28.3418 117.255C28.3744 117.283 28.3972 117.241 28.459 117.172L28.4264 117.36C28.5208 117.566 28.7876 117.304 28.921 117.447C28.9665 117.886 29.4611 117.743 29.7441 117.653C30.1996 117.381 30.1053 118.629 30.5933 118.298C30.5868 118.339 30.6486 118.266 30.6584 118.231L30.9187 118.395C30.9187 118.395 31.244 118.569 31.5531 118.399C31.8622 118.228 32.1355 117.712 32.0737 116.349L32.1029 116.293C32.0118 116.084 31.9337 116.011 31.7158 116.269C31.8426 115.892 31.6117 116.178 31.6247 116.042L31.6409 116.014C31.4392 116.258 31.5498 115.697 31.3644 115.913C31.3807 115.885 31.4197 115.784 31.4425 115.788C31.3611 115.805 31.244 115.85 31.3253 115.631C31.1562 115.62 30.9902 115.425 30.756 115.722L30.7852 115.666C30.6356 115.871 30.7007 115.666 30.5933 115.756C30.6031 115.728 30.6031 115.711 30.6096 115.697C30.4566 115.896 30.4241 115.652 30.3363 115.725L30.3916 115.582L30.2614 115.561L30.294 115.613C30.115 115.997 30.307 115.328 30.1183 115.537C30.0597 115.45 29.6172 116.265 29.614 116.035C29.4969 116.199 29.7734 115.756 29.6563 115.868C29.7409 115.666 29.7376 115.753 29.7929 115.586C29.6953 115.652 29.7864 115.331 29.6563 115.436L29.7214 115.275C29.5066 115.516 29.6368 114.982 29.4578 115.226C29.3049 115.31 29.5977 114.728 29.3635 114.986L29.4188 114.756C29.3927 114.7 29.2756 115 29.2724 114.874C29.3342 114.742 29.2593 114.738 29.3439 114.623C29.3309 114.362 28.9991 114.812 29.0186 114.386C28.8722 114.63 28.8722 114.439 28.7616 114.623C28.8071 114.508 28.6282 114.533 28.8201 114.327C28.8364 114.31 28.8462 114.32 28.8266 114.365L28.9047 114.216C28.9568 113.884 28.69 114.299 28.6314 114.216C28.6314 114.278 28.6672 114.282 28.5989 114.376L28.5371 114.317L28.6119 114.195L28.5403 114.062L28.4818 114.23C28.4655 114.121 28.5728 113.839 28.4102 114.034C28.3256 114.146 28.3614 114.275 28.2833 114.296C28.2638 114.149 28.2345 113.93 28.1662 113.836C28.0913 114.02 28.0686 113.999 28.0295 114.024L28.0978 113.867C27.9026 114.031 28.2247 113.508 28.049 113.626L28.1076 113.522L27.9287 113.832C27.6977 114.094 28.036 113.487 27.7432 113.853C27.792 113.846 27.6 114.205 27.5838 114.111L27.6651 113.968C27.6261 113.986 27.587 114.045 27.5838 114.003C27.6358 113.93 27.6944 113.79 27.6456 113.794L27.7595 113.619L27.5577 113.857C27.5805 113.668 27.3983 113.818 27.4764 113.599C27.4764 113.599 27.4113 113.431 27.2714 113.647C27.3625 113.518 27.3267 113.428 27.4276 113.271C27.3202 113.414 27.1641 113.497 27.2129 113.306L27.2291 113.292C27.1836 113.041 26.8875 113.403 26.8745 113.125C26.7899 113.306 26.7769 113.173 26.6793 113.41C26.445 113.564 26.689 112.821 26.2921 113.494C26.2173 113.501 26.3084 113.292 26.2986 113.24L26.3312 113.212C26.1978 113.212 26.1652 113.198 26.0969 113.135C26.0221 113.18 25.8496 113.501 25.8203 113.382C25.9082 113.267 25.8692 113.274 25.8431 113.26C25.8692 113.25 25.8984 113.205 25.9115 113.1C25.8854 113.138 25.8659 113.156 25.8496 113.173C25.8561 113.163 25.8561 113.156 25.8659 113.142C25.8008 113.163 25.7878 113.205 25.7976 113.236C25.7878 113.253 25.7748 113.281 25.7618 113.32C25.8041 113.128 25.6316 113.257 25.7423 113.034C25.5861 113.006 25.3746 113.18 25.2217 113.198C25.2705 113.076 25.3486 112.992 25.4006 112.968L25.303 112.961C25.3909 112.797 25.3974 112.894 25.4364 112.877C25.4852 112.56 25.1111 113.023 25.1339 112.72L25.0428 112.835L25.0493 112.811C25.0135 112.877 24.9386 112.957 24.9126 112.968C24.9744 112.818 25.0883 112.643 25.033 112.619C25.0655 112.459 24.8801 112.616 24.7825 112.657C24.7987 112.699 24.7467 112.772 24.7076 112.814C24.6784 112.804 24.7402 112.654 24.6881 112.699L24.789 112.507C24.7011 112.692 24.6165 112.657 24.5645 112.727C24.6263 112.577 24.6719 112.633 24.7369 112.528C24.6231 112.48 24.6784 112.504 24.5645 112.455C24.4311 112.563 24.4766 112.64 24.3595 112.79C24.2912 112.797 24.1676 112.898 24.1741 112.748L24.0992 112.926C23.9333 112.996 23.8878 112.94 23.9203 112.731C23.1915 113.187 22.8889 113.623 22.7718 113.951C22.6547 114.278 22.7263 114.494 22.7263 114.494C22.8011 115.045 23.2208 114.655 23.6275 114.732L23.6047 114.745Z" fill="#20BB65"/>
<path d="M39.1248 118.949L39.1177 119.029C39.1283 118.994 39.1318 118.963 39.1248 118.949Z" fill="#20BB65"/>
<path d="M42.1633 119.706C42.1633 119.706 42.167 119.695 42.1706 119.687C42.167 119.695 42.1633 119.698 42.1633 119.706Z" fill="#20BB65"/>
<path d="M38.9429 121.723C38.9429 121.723 38.9392 121.734 38.9355 121.741L38.9465 121.723H38.9429Z" fill="#20BB65"/>
<path d="M38.3629 121.33C38.5028 121.472 38.4573 121.849 38.6655 121.751C38.7403 121.804 38.8477 121.744 38.9388 121.723C39.0462 121.448 39.0462 121.748 39.147 121.521L39.1243 121.689C39.16 121.612 39.1926 121.56 39.1861 121.654L39.1731 121.699C39.2251 121.584 39.2349 121.664 39.2609 121.605L39.2479 121.654L39.2804 121.64L39.2609 121.706C39.3325 121.588 39.3748 121.591 39.3976 121.661L39.4399 121.462C39.4659 121.703 39.5895 121.305 39.5993 121.584L39.5863 121.633C39.7977 121.138 39.6481 122.023 39.853 121.556C39.827 121.615 39.8335 121.657 39.8238 121.706C39.8791 121.661 39.9311 121.643 40.019 121.256C40.0483 121.27 40.019 121.385 39.9865 121.535C40.0255 121.364 40.0678 121.302 40.0938 121.298L40.0678 121.361L40.1491 121.323L40.2077 120.998C40.224 121.099 40.1296 121.389 40.1817 121.323L40.2402 121.058C40.2793 121.124 40.2174 121.532 40.224 121.741C40.4062 121.908 40.7738 121.284 40.8617 121.8L40.8258 122.002C40.7673 122.295 40.9723 121.584 40.9202 121.856L40.9723 121.727C40.969 121.779 40.969 121.838 40.943 121.901C40.9625 121.919 40.9723 121.87 41.0048 121.786L40.9885 121.974C41.0406 122.135 41.1838 121.8 41.2521 121.894C41.2781 122.288 41.5416 121.995 41.6946 121.821C41.9353 121.42 41.8898 122.626 42.15 122.163C42.15 122.204 42.1793 122.114 42.1858 122.082L42.3257 122.156C42.3257 122.156 42.4982 122.222 42.6608 121.971C42.8235 121.72 42.9667 121.148 42.9309 119.876L42.9472 119.813C42.8984 119.642 42.8561 119.597 42.7422 119.907C42.8073 119.513 42.6869 119.851 42.6934 119.723L42.6999 119.691C42.5958 119.984 42.6511 119.419 42.5535 119.681C42.56 119.649 42.5828 119.541 42.5958 119.538C42.5535 119.58 42.4917 119.656 42.534 119.426C42.4429 119.468 42.355 119.339 42.2314 119.691L42.2477 119.628C42.1696 119.869 42.2021 119.656 42.1468 119.775C42.1501 119.743 42.1533 119.729 42.1533 119.716C42.072 119.953 42.0524 119.733 42.0069 119.831L42.0362 119.677L41.9646 119.698L41.9809 119.736C41.8865 120.151 41.9874 119.465 41.8865 119.723C41.854 119.66 41.623 120.57 41.6197 120.353C41.5579 120.542 41.7043 120.04 41.6425 120.183C41.688 119.967 41.6848 120.05 41.7141 119.876C41.662 119.97 41.7076 119.642 41.6392 119.778L41.6718 119.607C41.5579 119.904 41.623 119.363 41.5286 119.649C41.4473 119.775 41.6002 119.14 41.4766 119.458L41.5058 119.224C41.4896 119.182 41.431 119.499 41.4278 119.384C41.4603 119.241 41.4213 119.262 41.4635 119.13C41.4538 118.889 41.2781 119.419 41.2846 119.022C41.2065 119.297 41.2065 119.123 41.148 119.329C41.174 119.207 41.0764 119.29 41.1772 119.036C41.187 119.015 41.1903 119.022 41.1772 119.067L41.2195 118.903C41.2456 118.579 41.1057 119.057 41.0731 118.997C41.0731 119.057 41.0926 119.046 41.0569 119.158L41.0211 119.126L41.0601 118.987L41.0211 118.889L40.9918 119.064C40.982 118.966 41.0373 118.67 40.9527 118.907C40.9072 119.039 40.9267 119.147 40.8844 119.193C40.8714 119.064 40.8551 118.872 40.8161 118.809C40.7771 119.004 40.764 118.994 40.7445 119.029L40.7803 118.858C40.6762 119.078 40.8454 118.482 40.751 118.656L40.7836 118.541L40.6892 118.889C40.5656 119.21 40.7445 118.534 40.5883 118.977C40.6144 118.952 40.5135 119.349 40.5038 119.269L40.5461 119.109C40.5233 119.14 40.5038 119.207 40.5038 119.172C40.533 119.085 40.5623 118.935 40.5363 118.959L40.5981 118.76L40.4907 119.05C40.5005 118.868 40.4029 119.074 40.4452 118.841C40.4452 118.841 40.4062 118.712 40.3346 118.959C40.3834 118.806 40.3606 118.736 40.4159 118.558C40.3574 118.729 40.276 118.861 40.2988 118.67L40.3085 118.649C40.2825 118.436 40.1231 118.879 40.1133 118.628C40.071 118.823 40.0613 118.708 40.0092 118.959C39.8823 119.189 40.0092 118.419 39.7977 119.182C39.7554 119.214 39.8042 118.99 39.7977 118.949L39.814 118.91C39.7424 118.959 39.7229 118.959 39.6839 118.931C39.6448 119.001 39.5537 119.356 39.5375 119.259C39.583 119.119 39.5635 119.14 39.5472 119.137C39.5635 119.116 39.5765 119.067 39.583 118.966C39.57 119.008 39.5602 119.036 39.5505 119.057C39.5505 119.046 39.5537 119.036 39.557 119.022C39.5212 119.064 39.5147 119.109 39.5212 119.133C39.5147 119.154 39.5082 119.182 39.5017 119.224C39.5212 119.032 39.4301 119.217 39.4854 118.973C39.4008 119.008 39.2869 119.248 39.2023 119.325C39.2284 119.196 39.2674 119.092 39.2967 119.046L39.2414 119.081C39.2869 118.9 39.2902 118.984 39.313 118.952C39.3357 118.645 39.1373 119.214 39.1438 118.928L39.095 119.067V119.043C39.0787 119.119 39.0397 119.217 39.0234 119.238C39.0559 119.078 39.1145 118.875 39.082 118.875C39.0982 118.719 38.9974 118.931 38.9453 119.008C38.9551 119.039 38.9291 119.126 38.9063 119.179C38.89 119.179 38.9226 119.022 38.8933 119.085L38.9453 118.872C38.8998 119.074 38.851 119.078 38.8249 119.161C38.8575 119.001 38.8835 119.032 38.916 118.914C38.851 118.914 38.8835 118.914 38.8217 118.917C38.7501 119.067 38.7761 119.119 38.7143 119.301C38.6753 119.336 38.6102 119.475 38.6102 119.336L38.5712 119.527C38.4801 119.656 38.454 119.625 38.4703 119.426C37.6764 120.838 37.8424 121.49 37.8424 121.49C37.8944 121.954 38.1189 121.431 38.3434 121.336L38.3629 121.33Z" fill="#20BB65"/>
</svg>
