<svg width="84" height="120" viewBox="0 0 84 120" fill="none" xmlns="http://www.w3.org/2000/svg">
<path d="M83.4382 2.59305L83.3643 2.57812C83.3964 2.59304 83.4253 2.60051 83.4382 2.59305Z" fill="#20BB65"/>
<path d="M82.0977 6.08594C82.0977 6.08594 82.1042 6.09249 82.1107 6.09577C82.1075 6.08922 82.1009 6.08921 82.0977 6.08594Z" fill="#20BB65"/>
<path d="M80.8981 2.07036C80.8981 2.07036 80.8889 2.06382 80.8828 2.06055L80.8981 2.07036Z" fill="#20BB65"/>
<path d="M81.296 1.51737C81.1571 1.6523 80.8147 1.55484 80.8922 1.78346C80.8373 1.85468 80.8857 1.97462 80.8987 2.07207C81.141 2.22574 80.8664 2.18078 81.0634 2.3232L80.9148 2.27447C80.9827 2.3232 81.0247 2.3644 80.9407 2.34566L80.8987 2.32695C80.9988 2.40191 80.9245 2.39813 80.9762 2.43561L80.9342 2.41315L80.9439 2.45062L80.8857 2.4169C80.9859 2.5106 80.9794 2.55929 80.9148 2.57053L81.0893 2.64927C80.8664 2.63428 81.2153 2.83668 80.96 2.79545L80.918 2.77294C81.3412 3.08777 80.5562 2.75796 80.9536 3.06905C80.9051 3.03157 80.8631 3.0278 80.8211 3.00532C80.8534 3.07278 80.8631 3.13277 81.1991 3.30517C81.1829 3.33516 81.0828 3.27519 80.9536 3.21147C81.1022 3.28643 81.1507 3.34638 81.1507 3.37636L81.099 3.33514L81.1216 3.43259L81.4059 3.56376C81.3122 3.56001 81.0634 3.3951 81.1183 3.46631L81.3477 3.58627C81.2831 3.61626 80.9213 3.45881 80.7339 3.41759C80.5562 3.56376 81.044 4.10721 80.5659 4.06598L80.3915 3.97603C80.1427 3.83361 80.7371 4.24214 80.5045 4.11471L80.6079 4.20095C80.5627 4.18221 80.5078 4.16719 80.4561 4.12221C80.4367 4.1372 80.4787 4.15969 80.5465 4.21966L80.385 4.14847C80.23 4.15597 80.4981 4.39956 80.4012 4.44453C80.0458 4.35083 80.2461 4.71065 80.3592 4.92429C80.6467 5.31408 79.6032 4.84935 79.9392 5.27287C79.9037 5.25413 79.9715 5.31782 80.0006 5.33656L79.8972 5.44902C79.8972 5.44902 79.7906 5.59518 79.9554 5.85753C80.1233 6.11615 80.5562 6.50968 81.6804 6.93321L81.7289 6.97443C81.9001 6.98193 81.955 6.94446 81.7224 6.70459C82.0455 6.91822 81.7903 6.65962 81.9034 6.71209L81.9292 6.73085C81.7095 6.50972 82.1877 6.76456 81.9938 6.56591C82.0197 6.58465 82.1069 6.64462 82.1069 6.65961C82.0843 6.5959 82.039 6.49846 82.2264 6.62214C82.2199 6.5022 82.3686 6.43472 82.094 6.18361L82.1456 6.22108C81.9583 6.05617 82.136 6.16113 82.0487 6.05619C82.0746 6.07118 82.0875 6.07491 82.0972 6.08241C81.9131 5.91749 82.1133 5.9625 82.0423 5.87629L82.1683 5.95499V5.86879L82.1327 5.87629C81.7903 5.64767 82.375 5.96248 82.1747 5.76759C82.2393 5.7451 81.4931 5.22411 81.6869 5.28033C81.5351 5.15664 81.9421 5.464 81.8323 5.35156C82.0164 5.464 81.9389 5.43775 82.0875 5.51645C82.0164 5.43025 82.3007 5.57646 82.1941 5.45652L82.3363 5.54272C82.1004 5.32908 82.5721 5.55022 82.3363 5.36282C82.2426 5.23539 82.7788 5.57644 82.5236 5.35156L82.7272 5.44151C82.7692 5.43402 82.4978 5.28411 82.6044 5.31034C82.7272 5.3853 82.7175 5.32909 82.8273 5.4153C83.047 5.46027 82.6108 5.12295 82.9727 5.22415C82.7401 5.07048 82.9016 5.10796 82.7272 4.99177C82.8338 5.04799 82.7788 4.91307 82.9856 5.08922C83.0017 5.10422 82.9953 5.10796 82.9565 5.08922L83.0954 5.17542C83.3862 5.27662 82.9856 4.99925 83.047 4.97676C82.9921 4.96552 82.9985 4.99175 82.9048 4.92429L82.9436 4.89057L83.0599 4.96551L83.1568 4.93554L83.005 4.86431C83.0954 4.8718 83.3539 4.99926 83.1568 4.84559C83.047 4.76314 82.9436 4.76689 82.9113 4.70692C83.0308 4.71816 83.2117 4.73315 83.2796 4.69942C83.1083 4.61321 83.1213 4.60198 83.0922 4.56825L83.2408 4.64319C83.0631 4.47453 83.5703 4.78936 83.4346 4.64319L83.5348 4.70317L83.2343 4.52702C82.9662 4.32088 83.5509 4.65446 83.1762 4.38835C83.1923 4.42583 82.8499 4.23092 82.9242 4.23467L83.0631 4.31711C83.0405 4.28338 82.9824 4.24963 83.0147 4.25338C83.089 4.30211 83.2182 4.36585 83.2053 4.32837L83.3765 4.43703L83.1342 4.25713C83.2989 4.29836 83.131 4.14846 83.3345 4.23467C83.3345 4.23467 83.4605 4.20842 83.2473 4.08099C83.3797 4.16344 83.4476 4.14847 83.6026 4.24217C83.4572 4.14472 83.3506 4.02477 83.5251 4.08099L83.5412 4.09599C83.7415 4.09225 83.3636 3.83363 83.5962 3.85612C83.4217 3.77741 83.5316 3.78117 83.3054 3.68372C83.1148 3.50007 83.8061 3.74744 83.1342 3.39887C83.1083 3.3464 83.3087 3.43259 83.3506 3.42884L83.3829 3.45506C83.3506 3.36136 83.3506 3.33889 83.3829 3.29392C83.3248 3.2377 83.0082 3.08775 83.0987 3.08026C83.2214 3.15147 83.202 3.12151 83.2085 3.10652C83.2247 3.12526 83.2699 3.15151 83.3636 3.1665C83.3248 3.14401 83.3022 3.12902 83.2828 3.11777C83.2925 3.12152 83.3022 3.12524 83.3151 3.13273C83.2796 3.08401 83.2376 3.0728 83.2182 3.07655C83.1988 3.06531 83.173 3.05778 83.1374 3.04654C83.3119 3.09151 83.1536 2.96034 83.3733 3.05404C83.3507 2.94535 83.1439 2.78793 83.0825 2.67924C83.1988 2.72047 83.2925 2.78044 83.3313 2.81792L83.3054 2.75043C83.4669 2.82164 83.3894 2.8179 83.4185 2.84788C83.6995 2.90035 83.1956 2.61179 83.4605 2.64552L83.3377 2.57804H83.3603C83.2925 2.55555 83.2053 2.49933 83.1859 2.48059C83.3313 2.52931 83.5122 2.61927 83.5154 2.58179C83.6608 2.61177 83.4702 2.47311 83.4056 2.40564C83.3765 2.41689 83.299 2.37565 83.2505 2.34566C83.2505 2.32692 83.3959 2.37564 83.3377 2.33441L83.5316 2.41315C83.3474 2.34568 83.3507 2.28944 83.2731 2.24821C83.4185 2.29694 83.3862 2.3232 83.4928 2.37193C83.496 2.29322 83.4928 2.33442 83.4992 2.25572C83.3668 2.15827 83.3151 2.18824 83.1536 2.10204C83.1245 2.05331 83.0018 1.97087 83.1277 1.97837L82.9533 1.92214C82.837 1.8097 82.8693 1.77974 83.0534 1.80973C82.4202 1.31499 81.9454 1.11632 81.6352 1.03387C81.3219 0.951409 81.1733 0.981388 81.1733 0.981388C80.7501 0.99638 81.2249 1.27001 81.296 1.52112V1.51737Z" fill="#20BB65"/>
<path d="M76.1611 13.8689L76.0977 13.8174C76.1199 13.8468 76.1421 13.8726 76.1611 13.8689Z" fill="#20BB65"/>
<path d="M73.9111 12.1457C73.9111 12.1457 73.9077 12.1309 73.9043 12.1235L73.9111 12.1457Z" fill="#20BB65"/>
<path d="M74.9638 11.5277C74.6634 11.6626 74.392 11.3927 74.224 11.745C74.0851 11.82 74.0044 12.0074 73.9107 12.1461C74.0108 12.4497 73.7524 12.2773 73.817 12.5509L73.7007 12.4234C73.7233 12.5171 73.7233 12.5884 73.6522 12.5284L73.6296 12.4834C73.6619 12.6258 73.5812 12.5884 73.5973 12.6596L73.5747 12.6146L73.5424 12.6671L73.5133 12.5996C73.5198 12.7682 73.4616 12.8245 73.3712 12.8132L73.481 12.9894C73.2419 12.8807 73.4132 13.293 73.1676 13.1356L73.145 13.0906C73.271 13.679 72.7412 12.9257 72.8478 13.4916C72.8349 13.4204 72.7897 13.4017 72.7671 13.3567C72.7283 13.4579 72.6701 13.5366 72.864 13.9001C72.8123 13.9301 72.7638 13.8139 72.6798 13.679C72.7638 13.8364 72.7574 13.9339 72.7218 13.9714L72.7057 13.8964L72.6217 14.0313L72.8026 14.3162C72.696 14.2712 72.5926 13.9601 72.5765 14.0726L72.7089 14.3237C72.5991 14.3311 72.3568 13.9901 72.1791 13.8552C71.7979 13.9713 71.7527 14.8596 71.2229 14.6123L71.1195 14.4286C70.9806 14.1513 71.2293 14.9009 71.0937 14.646L71.1163 14.7997C71.084 14.7547 71.0355 14.7135 71.0226 14.6385C70.9838 14.6498 71.0032 14.6947 71.0226 14.7959L70.9063 14.6423C70.7092 14.5898 70.7512 14.9983 70.5768 15.0171C70.244 14.7585 70.0728 15.2794 69.9662 15.583C69.879 16.1677 69.0939 15.1857 69.0261 15.8266C69.0003 15.7891 69.0132 15.8941 69.0261 15.9278L68.758 16.0215C68.758 16.0215 68.4414 16.1527 68.3574 16.5275C68.2734 16.9023 68.4026 17.5282 69.3556 18.4952L69.375 18.5627C69.5818 18.6451 69.6884 18.6301 69.6593 18.2553C69.8305 18.6414 69.795 18.2328 69.879 18.3415L69.8886 18.3753C69.8563 18.0267 70.173 18.5289 70.1471 18.2141C70.1568 18.2478 70.1988 18.3565 70.1794 18.3715C70.2214 18.2891 70.2699 18.1541 70.3668 18.379C70.4895 18.2366 70.7415 18.2253 70.6866 17.8131L70.706 17.8805C70.6575 17.6069 70.7609 17.8055 70.7674 17.6481C70.7835 17.6744 70.7932 17.6894 70.7997 17.7006C70.7544 17.427 70.9547 17.5657 70.958 17.4345L71.0258 17.5807L71.1259 17.4795L71.0678 17.472C70.9063 17.0522 71.2681 17.6781 71.2358 17.3633C71.3359 17.3671 71.0193 16.4188 71.1873 16.5725C71.1389 16.3588 71.2907 16.9023 71.2842 16.7224C71.3812 16.9323 71.3165 16.8723 71.407 17.0335C71.4167 16.8986 71.5976 17.1946 71.6008 17.011L71.6784 17.1759C71.6331 16.8199 71.9497 17.2883 71.8787 16.9623C71.9077 16.7674 72.1662 17.412 72.1145 17.0297L72.2566 17.2283C72.3148 17.2396 72.1597 16.936 72.2566 17.0147C72.318 17.1572 72.3665 17.0897 72.402 17.2396C72.612 17.3933 72.4666 16.7936 72.7832 17.071C72.6831 16.7824 72.8284 16.8985 72.7541 16.6812C72.8155 16.7973 72.9027 16.6099 72.948 16.9135C72.9512 16.9398 72.9383 16.9435 72.9157 16.8948L72.9835 17.0597C73.2096 17.3071 73.0449 16.8011 73.145 16.7936C73.0966 16.7561 73.074 16.7936 73.0384 16.6699L73.1192 16.6437L73.1709 16.7861H73.3163L73.2193 16.6362C73.313 16.6849 73.4746 16.9548 73.4164 16.6774C73.3776 16.5275 73.2549 16.49 73.2839 16.4001C73.4099 16.4638 73.6005 16.565 73.7168 16.55C73.6135 16.3701 73.6393 16.3626 73.6458 16.3064L73.733 16.4638C73.7104 16.1752 73.9494 16.7899 73.9527 16.5462L74.0044 16.6624L73.8525 16.3101C73.7685 15.9353 74.0722 16.6062 73.9365 16.1115C73.9139 16.1639 73.733 15.7742 73.8138 15.8116L73.8848 15.9728C73.8913 15.9241 73.8654 15.8528 73.901 15.8716C73.9301 15.9653 74.0108 16.1002 74.0367 16.0478L74.1142 16.2576L74.0334 15.9278C74.1756 16.0515 74.1497 15.7854 74.2886 15.984C74.2886 15.984 74.4631 16.0028 74.3597 15.7517C74.4179 15.9128 74.5116 15.9241 74.5859 16.1077C74.5245 15.9203 74.5374 15.7217 74.6699 15.8716V15.8978C74.9057 15.9765 74.7571 15.4856 74.9961 15.6092C74.8863 15.4331 75.0058 15.4855 74.8572 15.2644C74.8443 14.9458 75.3483 15.5605 74.9735 14.8222C75.0026 14.7397 75.135 14.9383 75.1835 14.9496L75.1932 14.9983C75.2578 14.8596 75.2836 14.8297 75.3676 14.7847C75.3644 14.6872 75.1706 14.3574 75.2836 14.3836C75.3418 14.5298 75.3547 14.4848 75.3773 14.4623C75.3773 14.4961 75.3999 14.5485 75.4839 14.6048C75.4646 14.5598 75.4549 14.5298 75.4484 14.5036C75.4549 14.5148 75.4613 14.5186 75.4678 14.5336C75.4807 14.4549 75.4484 14.4211 75.4193 14.4174C75.4096 14.3986 75.3903 14.3724 75.3644 14.3424C75.5098 14.4736 75.4743 14.2337 75.6164 14.4474C75.7069 14.2937 75.6519 13.9938 75.6972 13.8252C75.7812 13.9264 75.8199 14.0463 75.8199 14.1138L75.8651 14.0126C75.9685 14.1737 75.8845 14.14 75.8813 14.1925C76.1365 14.3799 75.8878 13.7802 76.143 13.9301L76.0816 13.784L76.101 13.799C76.0558 13.7315 76.0202 13.6228 76.0202 13.5891C76.1268 13.7165 76.2302 13.9114 76.2754 13.8589C76.4046 13.9564 76.3433 13.694 76.34 13.5741C76.298 13.5741 76.256 13.4916 76.2334 13.4316C76.2528 13.4054 76.3626 13.5291 76.34 13.4541L76.4692 13.6378C76.34 13.4729 76.4046 13.3904 76.3594 13.308C76.466 13.4316 76.4047 13.4617 76.466 13.5703C76.55 13.4654 76.508 13.5179 76.592 13.4092C76.5468 13.2218 76.4628 13.2442 76.3756 13.0606C76.3949 12.9819 76.3497 12.8132 76.4789 12.8769L76.3497 12.7308C76.3433 12.5284 76.4046 12.4984 76.5759 12.6071C76.4079 11.6551 76.1042 11.1903 75.8555 10.9505C75.6067 10.7106 75.4096 10.6994 75.4096 10.6994C74.9348 10.5569 75.1577 11.1341 74.9703 11.5164L74.9638 11.5277Z" fill="#20BB65"/>
<path d="M61.6782 21.6419L61.6338 21.5684C61.6433 21.6052 61.656 21.6383 61.6782 21.6419Z" fill="#20BB65"/>
<path d="M61.3111 18.9563C60.9816 18.9563 60.8039 18.5927 60.5261 18.8588C60.3678 18.8776 60.2289 19.02 60.0932 19.1137C60.0932 19.4435 59.8994 19.1812 59.8768 19.4623L59.8025 19.3011C59.796 19.3985 59.7734 19.4697 59.7249 19.3835L59.7152 19.3311C59.7023 19.4773 59.6377 19.4135 59.6312 19.4847L59.6215 19.4323L59.5731 19.4698L59.5666 19.3948C59.5246 19.556 59.4503 19.5897 59.3663 19.5485L59.4213 19.7583C59.221 19.5672 59.2662 20.0207 59.0724 19.7808L59.0627 19.7284C59.0207 20.3355 58.7138 19.4285 58.6621 20.0095C58.6685 19.9383 58.6298 19.9045 58.6201 19.852C58.5555 19.9345 58.4779 19.9945 58.5684 20.4068C58.5102 20.418 58.4941 20.2905 58.4489 20.1331C58.4876 20.313 58.4553 20.403 58.4133 20.4292L58.4198 20.3543L58.3035 20.4555L58.4036 20.789C58.3132 20.7103 58.2938 20.3768 58.2453 20.478L58.3067 20.7628C58.2001 20.7366 58.0483 20.3205 57.9126 20.1369C57.5056 20.1256 57.2439 20.9689 56.7819 20.5679L56.7205 20.358C56.6495 20.047 56.7205 20.849 56.643 20.5642L56.6301 20.7178C56.6075 20.6654 56.5687 20.6129 56.5752 20.5379C56.5332 20.5379 56.5428 20.5867 56.5364 20.6916L56.4556 20.5079C56.2747 20.3992 56.2198 20.8116 56.0453 20.7778C55.774 20.433 55.4865 20.894 55.3185 21.1601C55.1149 21.7073 54.5335 20.5455 54.3364 21.1601C54.317 21.1189 54.3105 21.2238 54.3202 21.2613L54.036 21.2875C54.036 21.2875 52.6694 21.5012 54.1749 23.8512L54.1813 23.9224C54.3655 24.0498 54.4688 24.0648 54.5108 23.69C54.6078 24.106 54.6433 23.7013 54.7047 23.8287V23.8624C54.7402 23.5139 54.9502 24.0835 54.9857 23.7687C54.9857 23.8024 55.0083 23.9186 54.9889 23.9299C55.0439 23.8586 55.115 23.7425 55.1666 23.9861C55.312 23.8811 55.5511 23.9374 55.5769 23.5213L55.5834 23.5926C55.5898 23.3115 55.6512 23.5326 55.6868 23.3827C55.6964 23.4126 55.7029 23.4276 55.7061 23.4426C55.7158 23.1653 55.8806 23.3527 55.9064 23.229L55.942 23.3902L56.0583 23.3189L56.0066 23.2965C55.9355 22.843 56.1552 23.5513 56.1875 23.2402C56.2844 23.274 56.1713 22.2658 56.3038 22.4607C56.3038 22.2395 56.3361 22.8092 56.3652 22.6331C56.4136 22.8654 56.3652 22.7867 56.4201 22.9704C56.4588 22.843 56.5687 23.1803 56.6107 23.0041L56.6494 23.184C56.6818 22.8279 56.882 23.3714 56.8853 23.0378C56.9563 22.8617 57.063 23.5588 57.0953 23.1728L57.1857 23.4052C57.2406 23.4314 57.1566 23.0941 57.2309 23.199C57.26 23.3527 57.3182 23.3039 57.3214 23.4614C57.4862 23.6712 57.4797 23.0528 57.7155 23.4201C57.6864 23.109 57.7963 23.2665 57.7737 23.0341C57.806 23.1653 57.9287 23.0116 57.9029 23.3189C57.9029 23.3452 57.8867 23.3452 57.877 23.2927L57.9029 23.4726C58.058 23.7837 58.0192 23.244 58.1129 23.2702C58.0741 23.2177 58.045 23.244 58.0418 23.1166H58.1258L58.142 23.274L58.2776 23.3264L58.2227 23.1465C58.3003 23.2252 58.3875 23.5363 58.3972 23.2515C58.3972 23.0978 58.2906 23.0191 58.3358 22.9404C58.4392 23.0454 58.5942 23.2027 58.7041 23.229C58.6491 23.0228 58.6782 23.0229 58.6944 22.9741L58.7364 23.154C58.7848 22.8729 58.8624 23.5401 58.9205 23.3115L58.9399 23.4389L58.885 23.0528C58.8979 22.6668 59.0174 23.4126 59.0142 22.8954C58.9819 22.9366 58.9076 22.5019 58.9754 22.5656L59.0013 22.7455C59.0207 22.7005 59.0142 22.6256 59.0401 22.6556C59.0433 22.753 59.0885 22.9104 59.1208 22.8692L59.1434 23.0941L59.1499 22.7493C59.25 22.9179 59.292 22.6555 59.3728 22.8954C59.3728 22.8954 59.5279 22.9779 59.4956 22.7005C59.5085 22.8767 59.5925 22.9179 59.6151 23.1203C59.6054 22.9217 59.6668 22.738 59.754 22.9254V22.9516C59.9446 23.1128 59.9349 22.5918 60.1223 22.8017C60.0674 22.5956 60.1643 22.6856 60.0835 22.4232C60.1546 22.1196 60.455 22.8917 60.3097 22.0484C60.3613 21.9847 60.4259 22.2208 60.4679 22.2508V22.2995C60.5616 22.1945 60.5939 22.1758 60.6812 22.1683C60.7038 22.0746 60.6198 21.6886 60.7167 21.756C60.7296 21.9172 60.7522 21.8797 60.7813 21.8685C60.7684 21.8984 60.7781 21.9547 60.8395 22.0446C60.833 21.9959 60.833 21.9659 60.8395 21.9359C60.8427 21.9472 60.8459 21.9584 60.8491 21.9734C60.8847 21.9059 60.8653 21.861 60.8362 21.846C60.833 21.8235 60.8233 21.7935 60.8071 21.7523C60.9041 21.9322 60.9396 21.6961 61.0074 21.9547C61.1334 21.846 61.169 21.5461 61.2627 21.4037C61.3079 21.5349 61.3111 21.6623 61.2885 21.726L61.3596 21.6511C61.4048 21.846 61.3402 21.7785 61.324 21.8272C61.5017 22.1083 61.4533 21.4487 61.6406 21.6961L61.6277 21.5349L61.6406 21.5574C61.6212 21.4749 61.618 21.3587 61.6309 21.325C61.6891 21.4862 61.7279 21.7148 61.7828 21.6848C61.87 21.831 61.8926 21.5611 61.9282 21.4487C61.8894 21.4299 61.8764 21.3363 61.8732 21.2725C61.8991 21.2575 61.9605 21.4187 61.9637 21.34L62.0251 21.5649C61.9605 21.355 62.0412 21.31 62.0283 21.2126C62.0864 21.3737 62.0218 21.3737 62.0444 21.5012C62.1543 21.4412 62.0994 21.4712 62.2092 21.4112C62.2286 21.2201 62.1446 21.2013 62.122 20.9914C62.164 20.9277 62.1769 20.7516 62.2738 20.8678L62.2027 20.6729C62.2641 20.4817 62.3287 20.4817 62.4515 20.6616C62.6163 19.7134 62.5032 19.1399 62.3546 18.8064C62.206 18.4728 62.0218 18.3753 62.0218 18.3753C61.618 18.0343 61.6212 18.6714 61.3111 18.945V18.9563Z" fill="#20BB65"/>
<path d="M46.2759 25.612L46.2373 25.5337C46.2437 25.5747 46.2566 25.6045 46.2759 25.612Z" fill="#20BB65"/>
<path d="M46.134 22.8951C45.798 22.8613 45.6494 22.4791 45.3457 22.7114C45.1842 22.7114 45.0291 22.8426 44.8837 22.9213C44.8611 23.2474 44.6834 22.9701 44.6382 23.2512L44.5768 23.0825C44.5607 23.1799 44.5381 23.2474 44.4896 23.1575L44.4832 23.105C44.4605 23.2474 44.3959 23.18 44.3862 23.2512L44.3798 23.1987L44.3281 23.2324V23.1575C44.2699 23.3149 44.1924 23.3411 44.1116 23.2924L44.1536 23.506C43.963 23.2999 43.9824 23.7534 43.7983 23.5023L43.7918 23.4498C43.7111 24.0495 43.4558 23.1237 43.3686 23.6972C43.3783 23.6259 43.3396 23.5885 43.3331 23.536C43.262 23.6147 43.178 23.6672 43.2459 24.087C43.1845 24.0945 43.1748 23.967 43.1425 23.8059C43.1716 23.9895 43.1328 24.0757 43.0908 24.0982L43.1005 24.0232L42.9777 24.1132L43.0617 24.4543C42.9745 24.3681 42.9745 24.0345 42.9196 24.1319L42.968 24.4205C42.8614 24.3831 42.7322 23.9633 42.603 23.7684C42.1895 23.7309 41.889 24.5555 41.44 24.1282L41.3883 23.9146C41.3302 23.5997 41.3657 24.4055 41.3011 24.1132L41.2817 24.2669C41.2591 24.2144 41.2268 24.1582 41.2332 24.0832C41.1912 24.0795 41.2009 24.1319 41.188 24.2331L41.1137 24.0457C40.9328 23.9258 40.865 24.3344 40.6873 24.2931C40.4256 23.9333 40.1187 24.383 39.941 24.6417C39.7214 25.1776 39.1657 23.997 38.9493 24.6004C38.9331 24.5592 38.9234 24.6642 38.9299 24.7016L38.6424 24.7166C38.6424 24.7166 37.2661 24.889 38.7328 27.2803V27.3515C38.9169 27.4864 39.0203 27.5014 39.0688 27.1341C39.156 27.5539 39.2012 27.1491 39.2594 27.2803V27.314C39.3014 26.9692 39.4984 27.5426 39.5404 27.2315C39.5404 27.2653 39.5598 27.3814 39.5404 27.3927C39.5986 27.3252 39.6697 27.2128 39.7181 27.4564C39.8635 27.359 40.1026 27.4264 40.1349 27.0104V27.0816C40.151 26.8043 40.2059 27.0254 40.2479 26.8755C40.2576 26.9055 40.2641 26.9242 40.2641 26.9354C40.2835 26.6581 40.4385 26.8568 40.4708 26.7331L40.4999 26.898L40.6162 26.8342L40.5645 26.808C40.5064 26.3545 40.7067 27.0704 40.7454 26.7593C40.8391 26.7968 40.7616 25.7848 40.8843 25.9872C40.8908 25.766 40.9037 26.3395 40.9393 26.1634C40.9813 26.3995 40.936 26.317 40.9813 26.5007C41.0233 26.377 41.1202 26.7181 41.1719 26.5457L41.2042 26.7293C41.2462 26.3733 41.4303 26.9317 41.4432 26.5981C41.5208 26.4257 41.6015 27.1266 41.6467 26.7443L41.7275 26.9842C41.7792 27.0141 41.7114 26.6731 41.7792 26.7818C41.8018 26.9392 41.8632 26.8942 41.8567 27.0479C42.0118 27.269 42.0312 26.6506 42.2476 27.0329C42.2315 26.7218 42.3349 26.8867 42.3219 26.6543C42.3478 26.7855 42.477 26.6431 42.4382 26.9504C42.435 26.9767 42.4221 26.9729 42.4124 26.9205L42.4318 27.1041C42.5739 27.4264 42.5545 26.883 42.6482 26.9167C42.6127 26.8642 42.5836 26.8867 42.5836 26.7555L42.6676 26.763L42.6773 26.9167L42.8097 26.9804L42.7613 26.7968C42.8356 26.8792 42.9067 27.1941 42.926 26.9167C42.9293 26.7631 42.8291 26.6768 42.8808 26.6056C42.9777 26.718 43.1231 26.8867 43.2297 26.9205C43.1845 26.7106 43.2136 26.7143 43.2329 26.6656L43.2652 26.8492C43.3266 26.5719 43.3686 27.2428 43.4397 27.0179L43.4526 27.1491L43.4171 26.7593C43.4494 26.377 43.5301 27.1303 43.5495 26.6094C43.514 26.6506 43.4655 26.2083 43.5269 26.2795L43.5431 26.4594C43.5657 26.4145 43.5625 26.3395 43.5851 26.3732C43.5851 26.4707 43.6174 26.6319 43.6529 26.5944L43.6626 26.823L43.6852 26.4819C43.7757 26.6581 43.8306 26.3995 43.8952 26.6431C43.8952 26.6431 44.0438 26.7368 44.0276 26.4594C44.0276 26.6356 44.1116 26.6843 44.1246 26.8867C44.1246 26.6881 44.1989 26.5082 44.2699 26.7068V26.7331C44.4444 26.9092 44.467 26.392 44.6382 26.6206C44.5962 26.4107 44.6867 26.5119 44.6253 26.2421C44.7158 25.9422 44.9613 26.7406 44.874 25.8898C44.929 25.8298 44.9774 26.0697 45.0162 26.1071L45.0097 26.1559C45.1131 26.0622 45.1454 26.0472 45.2326 26.0472C45.2617 25.9572 45.2036 25.5637 45.2972 25.6424C45.2972 25.8036 45.3231 25.7661 45.3522 25.7623C45.3393 25.7923 45.3425 25.8485 45.3974 25.946C45.3974 25.8972 45.3974 25.8673 45.4006 25.841C45.4006 25.8523 45.4071 25.8635 45.4071 25.8785C45.4459 25.8148 45.4297 25.7661 45.4071 25.7511C45.4071 25.7286 45.3974 25.6986 45.3845 25.6536C45.4652 25.8448 45.5202 25.6087 45.5686 25.8748C45.7011 25.7811 45.7592 25.485 45.8626 25.3538C45.8981 25.4887 45.8917 25.6161 45.8626 25.6761L45.9401 25.6087C45.9724 25.8073 45.9111 25.7323 45.8917 25.7773C46.0435 26.0734 46.0467 25.4138 46.2115 25.6799V25.5187L46.2212 25.5449C46.2083 25.4625 46.2147 25.3425 46.2276 25.3126C46.2729 25.4812 46.2922 25.7099 46.3472 25.6874C46.4215 25.8448 46.4635 25.5749 46.5119 25.47C46.4732 25.4475 46.4699 25.35 46.4732 25.2863C46.5022 25.2751 46.5475 25.4438 46.5572 25.365L46.5992 25.5974C46.5507 25.38 46.6379 25.3463 46.6315 25.2488C46.6767 25.4175 46.6089 25.4063 46.625 25.5374C46.7381 25.4887 46.6831 25.515 46.7962 25.4662C46.8318 25.2788 46.7478 25.2489 46.7445 25.039C46.793 24.9827 46.8188 24.8066 46.9061 24.934L46.8511 24.7316C46.9287 24.548 46.9933 24.5592 47.0999 24.7541C47.6006 22.9101 46.8899 22.4266 46.8899 22.4266C46.5119 22.0368 46.4506 22.6702 46.1146 22.9101L46.134 22.8951Z" fill="#20BB65"/>
<path d="M30.9246 29.1535L30.8828 29.0752C30.8925 29.1125 30.9053 29.146 30.9246 29.1535Z" fill="#20BB65"/>
<path d="M30.6726 26.448C30.3333 26.433 30.1653 26.0619 29.8681 26.313C29.7034 26.3243 29.5548 26.4667 29.4094 26.5566C29.4029 26.8864 29.2091 26.6203 29.1768 26.9014L29.1057 26.7365C29.096 26.834 29.0734 26.9015 29.0217 26.819L29.0121 26.7665C28.9959 26.9127 28.928 26.849 28.9216 26.9202L28.9119 26.8677L28.8634 26.9052L28.857 26.8302C28.8085 26.9914 28.731 27.0251 28.647 26.9839L28.6987 27.1938C28.4952 27.0027 28.5372 27.4561 28.3401 27.2163L28.3304 27.1638C28.2852 27.771 27.975 26.8677 27.9169 27.4486C27.9234 27.3774 27.8814 27.3437 27.8717 27.2913C27.8038 27.3775 27.7231 27.4337 27.82 27.846C27.7586 27.8572 27.7424 27.7298 27.6972 27.5761C27.7392 27.756 27.7069 27.8459 27.6617 27.8722L27.6681 27.7972L27.5518 27.9022L27.6585 28.2357C27.5648 28.1608 27.5422 27.8235 27.4969 27.9284L27.5648 28.2095C27.4549 28.1833 27.2966 27.7747 27.1545 27.5948C26.7345 27.5986 26.4922 28.4531 26.0077 28.0821L25.9398 27.8759C25.8558 27.5686 25.956 28.3669 25.8687 28.0858L25.8623 28.2395C25.8364 28.187 25.7977 28.1383 25.8009 28.0596C25.7589 28.0596 25.7718 28.1121 25.7654 28.2132L25.6749 28.0371C25.4843 27.9397 25.4455 28.3557 25.2679 28.3369C24.9706 28.0146 24.6993 28.5019 24.5475 28.7905C24.3795 29.3527 23.7011 28.2657 23.5428 28.9029C23.5201 28.8616 23.5234 28.9703 23.5331 29.0041L23.2455 29.0678C23.2455 29.0678 22.9031 29.169 22.7836 29.5401C22.6608 29.9074 22.7739 30.537 23.6364 31.5977L23.6494 31.6651C23.84 31.7663 23.9433 31.7701 23.9466 31.3953C24.0823 31.8001 24.079 31.3916 24.1501 31.5115L24.1565 31.5452C24.1565 31.1967 24.4118 31.7363 24.4182 31.4215C24.4247 31.4552 24.4538 31.5677 24.4376 31.5827C24.4861 31.5077 24.5442 31.384 24.6153 31.6202C24.7478 31.5002 24.9836 31.534 24.9739 31.1179L24.9868 31.1854C24.9706 30.9081 25.0482 31.1217 25.0708 30.968C25.0837 30.998 25.0902 31.013 25.0934 31.028C25.0837 30.7506 25.2582 30.9231 25.2743 30.7994L25.3196 30.9568L25.4294 30.8781L25.3745 30.8593C25.2743 30.417 25.5392 31.103 25.5489 30.7881C25.6426 30.8144 25.4714 29.8174 25.6135 30.001C25.6006 29.7799 25.6652 30.3496 25.6846 30.1697C25.746 30.3983 25.6943 30.3234 25.7557 30.4995C25.788 30.3683 25.914 30.6982 25.9463 30.5183L25.9947 30.6944C26.0044 30.3346 26.2338 30.8668 26.2176 30.5332C26.279 30.3533 26.4179 31.043 26.4309 30.6569L26.531 30.8856C26.5827 30.9081 26.4858 30.5782 26.5665 30.6794C26.6021 30.8331 26.657 30.7806 26.6667 30.9343C26.8347 31.1367 26.8056 30.522 27.0479 30.8781C27.0059 30.5707 27.1222 30.7244 27.0899 30.492C27.1254 30.6194 27.2417 30.4658 27.2288 30.7731C27.2288 30.7993 27.2126 30.7994 27.2029 30.7469L27.2353 30.9268C27.4 31.2341 27.3386 30.6944 27.4323 30.7206C27.3935 30.6682 27.3645 30.6944 27.358 30.567H27.4388L27.4582 30.7206L27.5906 30.7694L27.5292 30.5895C27.6068 30.6644 27.7005 30.9718 27.7005 30.6907C27.694 30.537 27.5874 30.4583 27.6326 30.3834C27.736 30.4845 27.8911 30.6382 27.9977 30.6645C27.9395 30.4583 27.9686 30.4583 27.9847 30.4096L28.03 30.5895C28.072 30.3084 28.1592 30.9755 28.2109 30.7431L28.2303 30.8706L28.1689 30.4845C28.1753 30.0985 28.3046 30.8443 28.2916 30.3234C28.2593 30.3646 28.1818 29.9336 28.2464 29.9935L28.2755 30.1697C28.2949 30.1247 28.2852 30.0498 28.311 30.0797C28.3175 30.1772 28.3595 30.3346 28.395 30.2934L28.4176 30.5183V30.1734C28.5178 30.3421 28.5565 30.0797 28.6373 30.3196C28.6373 30.3196 28.7892 30.4021 28.7568 30.1247C28.7698 30.3009 28.8538 30.3421 28.8764 30.5445C28.8667 30.3458 28.9248 30.1622 29.0088 30.3533V30.3796C29.193 30.5445 29.1833 30.0235 29.3674 30.2372C29.3157 30.0273 29.4062 30.1247 29.3319 29.8586C29.4062 29.555 29.6905 30.3346 29.558 29.4913C29.6097 29.4276 29.6711 29.6637 29.7098 29.6974V29.7462C29.8035 29.645 29.8326 29.6262 29.9198 29.6225C29.9424 29.5288 29.8681 29.1428 29.9618 29.214C29.9715 29.3751 29.9941 29.3376 30.0232 29.3301C30.0103 29.3601 30.0167 29.4163 30.0749 29.51C30.0684 29.4613 30.0717 29.4314 30.0749 29.4014C30.0749 29.4126 30.0814 29.4239 30.0846 29.4388C30.1201 29.3714 30.1007 29.3264 30.0749 29.3114C30.0717 29.2889 30.062 29.259 30.0458 29.2177C30.1363 29.4014 30.1783 29.1652 30.2397 29.4276C30.3656 29.3264 30.4109 29.0265 30.5046 28.8916C30.5466 29.0228 30.5433 29.1503 30.5207 29.214L30.5918 29.1427C30.6306 29.3376 30.5692 29.2702 30.5498 29.3151C30.7145 29.6037 30.6887 28.9441 30.8631 29.199L30.8567 29.0378L30.8696 29.0603C30.8535 28.9778 30.8567 28.8617 30.8696 28.8279C30.9213 28.9928 30.9504 29.2215 31.0053 29.1952C31.0828 29.3451 31.1184 29.079 31.1571 28.9703C31.1184 28.9516 31.1087 28.8542 31.1119 28.7905C31.141 28.7755 31.1894 28.9441 31.1991 28.8616L31.2476 29.0903C31.1927 28.8766 31.2766 28.8354 31.267 28.738C31.3186 28.9029 31.2508 28.8954 31.2702 29.0266C31.38 28.9741 31.3251 29.0003 31.435 28.9478C31.4608 28.7567 31.38 28.7342 31.3671 28.5243C31.4123 28.4643 31.435 28.2882 31.5222 28.4119L31.4608 28.2132C31.5319 28.0258 31.5965 28.0334 31.7095 28.2245C32.1457 26.3543 31.422 25.9082 31.422 25.9082C31.0279 25.5372 30.9859 26.1743 30.6564 26.4329L30.6726 26.448Z" fill="#20BB65"/>
<path d="M16.4772 35.2437L16.4199 35.1846C16.4358 35.2178 16.4581 35.2437 16.4772 35.2437Z" fill="#20BB65"/>
<path d="M11.8164 39.3667C11.8164 39.3667 11.8197 39.3773 11.8229 39.3844C11.8229 39.3773 11.8197 39.3702 11.8164 39.3667Z" fill="#20BB65"/>
<path d="M14.356 33.3024C14.356 33.3024 14.356 33.2877 14.3525 33.2803V33.3024H14.356Z" fill="#20BB65"/>
<path d="M15.5734 32.7332C15.2342 32.8344 14.979 32.5421 14.7464 32.8907C14.5849 32.9656 14.4751 33.1568 14.3555 33.2992C14.4331 33.614 14.1746 33.4341 14.2199 33.719L14.1068 33.5915C14.1229 33.689 14.1197 33.764 14.0486 33.704L14.026 33.659C14.0486 33.8052 13.9679 33.7677 13.9776 33.8427L13.955 33.7977L13.9162 33.8539L13.8903 33.7864C13.8903 33.9589 13.8225 34.0188 13.7288 34.0151L13.8386 34.1912C13.5899 34.0938 13.7579 34.5061 13.4994 34.3636L13.4768 34.3187C13.6093 34.9071 13.0439 34.1912 13.1602 34.7647C13.1441 34.6935 13.0956 34.6822 13.0698 34.6372C13.031 34.7459 12.9696 34.8359 13.1861 35.1844C13.1312 35.2219 13.0763 35.1095 12.9858 34.982C13.0827 35.132 13.0763 35.2332 13.044 35.2744L13.0246 35.1994L12.9438 35.3494L13.1473 35.6155C13.0375 35.5855 12.9115 35.2819 12.8986 35.4019L13.0504 35.6342C12.9406 35.6605 12.6595 35.3456 12.4657 35.2482C12.0586 35.4506 12.12 36.3576 11.5385 36.2526L11.4028 36.099C11.2155 35.8591 11.587 36.5412 11.4093 36.3276L11.4577 36.4738C11.4157 36.44 11.3608 36.4138 11.3382 36.3426C11.2995 36.365 11.3285 36.4063 11.3608 36.5037L11.2122 36.3875C10.999 36.4025 11.1121 36.7961 10.9376 36.8748C10.5435 36.7436 10.4692 37.3358 10.4466 37.6769C10.5177 38.2653 9.46451 37.6993 9.58081 38.3627C9.54527 38.3402 9.59051 38.4339 9.61636 38.4602L9.38698 38.6926C9.38698 38.6926 9.31914 38.7675 9.26099 38.8912C9.20284 39.0186 9.15115 39.1948 9.18022 39.3897C9.23191 39.7907 9.62282 40.233 10.8246 40.6453L10.8666 40.6977C11.0733 40.6752 11.1541 40.6228 10.9958 40.3042C11.2865 40.5778 11.1056 40.2292 11.2187 40.293L11.2381 40.3192C11.0862 40.0194 11.5353 40.3454 11.4061 40.0718C11.4254 40.0981 11.4998 40.1805 11.4901 40.203C11.4998 40.1131 11.4965 39.9744 11.658 40.143C11.7194 39.9744 11.9294 39.877 11.755 39.5209L11.7937 39.5771C11.6677 39.341 11.8196 39.4909 11.7808 39.341C11.8034 39.3597 11.8163 39.371 11.826 39.3785C11.7065 39.1386 11.9262 39.206 11.8906 39.0824L11.994 39.1985L12.0554 39.0749L12.0005 39.0861C11.7356 38.7413 12.2395 39.221 12.1265 38.9362C12.2202 38.9137 11.6871 38.1079 11.8842 38.2016C11.7905 38.0104 12.0619 38.4864 12.0102 38.3178C12.1523 38.4902 12.078 38.4527 12.2008 38.5801C12.1782 38.449 12.414 38.6813 12.3752 38.5052L12.4851 38.6401C12.3591 38.314 12.7597 38.6851 12.6208 38.3927C12.6078 38.2016 12.9858 38.7563 12.8533 38.404L13.0246 38.5651C13.0795 38.5651 12.8727 38.3065 12.9793 38.3627C13.0666 38.4864 13.0956 38.4152 13.1602 38.5501C13.3799 38.6588 13.1344 38.1154 13.4736 38.3328C13.3282 38.0704 13.4833 38.1604 13.3767 37.9617C13.4542 38.0629 13.5027 37.8718 13.5964 38.1604C13.6028 38.1829 13.5931 38.1903 13.5641 38.1491L13.6577 38.299C13.9097 38.5089 13.6707 38.0441 13.7611 38.0292C13.7094 37.9992 13.6933 38.0329 13.6416 37.9205L13.7127 37.8867L13.7837 38.0179L13.9194 38.0067L13.8064 37.868C13.9033 37.9055 14.0874 38.1491 13.9937 37.8905C13.9356 37.7518 13.816 37.7256 13.8322 37.6356C13.9614 37.6881 14.152 37.7668 14.2554 37.7443C14.1359 37.5794 14.1617 37.5682 14.1585 37.5157L14.2586 37.6619C14.2037 37.3845 14.5009 37.9655 14.4718 37.7331L14.5332 37.8418L14.3523 37.5119C14.2328 37.1521 14.5881 37.7893 14.4105 37.3171C14.3943 37.3695 14.1843 36.9985 14.2683 37.0285L14.3491 37.1821C14.3491 37.1334 14.32 37.066 14.3555 37.0847C14.3911 37.1747 14.4815 37.3021 14.4977 37.2496L14.5914 37.4482L14.4848 37.1297C14.6301 37.2459 14.5817 36.9873 14.727 37.1784C14.727 37.1784 14.8886 37.1971 14.7723 36.9497C14.8369 37.1071 14.9241 37.1147 15.0113 37.2946C14.9403 37.1147 14.9403 36.9198 15.0727 37.0659L15.0792 37.0884C15.2956 37.1747 15.1341 36.6911 15.3635 36.8223C15.2536 36.6462 15.3635 36.7024 15.2213 36.4812C15.2019 36.1701 15.6865 36.7999 15.3247 36.054C15.3538 35.9753 15.4798 36.1777 15.525 36.1964L15.5347 36.2452C15.5961 36.114 15.6187 36.0877 15.6994 36.054C15.6994 35.9566 15.5185 35.6192 15.6284 35.6529C15.6801 35.8029 15.693 35.7579 15.7156 35.7391C15.7124 35.7729 15.735 35.8254 15.8125 35.8928C15.7931 35.8478 15.7867 35.8178 15.7834 35.7916C15.7899 35.8029 15.7964 35.8103 15.8028 35.8253C15.8157 35.7504 15.7867 35.7129 15.7608 35.7092C15.7511 35.6867 15.735 35.6642 15.7091 35.6305C15.8448 35.7729 15.819 35.5368 15.945 35.7616C16.0354 35.623 15.9967 35.3194 16.0516 35.162C16.1259 35.2744 16.155 35.3981 16.1517 35.4618L16.2002 35.3681C16.2874 35.5405 16.2099 35.4955 16.2066 35.5442C16.436 35.7654 16.2389 35.1432 16.4715 35.3344L16.4231 35.1844L16.4392 35.2032C16.4037 35.132 16.3746 35.0158 16.3779 34.982C16.4683 35.1245 16.5523 35.3306 16.5975 35.2894C16.7106 35.4093 16.6718 35.1432 16.6847 35.0271C16.6428 35.0196 16.6105 34.9296 16.5975 34.8696C16.6202 34.8471 16.7106 34.9896 16.6977 34.9108L16.8011 35.1132C16.6977 34.9258 16.7655 34.8621 16.7332 34.7722C16.8204 34.9146 16.7591 34.9296 16.8075 35.0495C16.898 34.9633 16.8527 35.0083 16.9464 34.9221C16.927 34.7309 16.8431 34.7347 16.7817 34.536C16.8108 34.4648 16.7881 34.2887 16.9044 34.3786L16.8011 34.2062C16.8269 34.0076 16.8915 33.9926 17.0401 34.1387C17.0337 33.1718 16.8463 32.6283 16.6428 32.336C16.4425 32.0399 16.2357 31.9911 16.2357 31.9911C15.7576 31.7625 15.861 32.3922 15.5961 32.7557L15.5734 32.7332Z" fill="#20BB65"/>
<path d="M7.10154 48.4181L7.02441 48.4106C7.05655 48.4256 7.08547 48.433 7.10154 48.4181Z" fill="#20BB65"/>
<path d="M5.17773 55.0327C5.17773 55.0327 5.18682 55.0392 5.19287 55.0424C5.18985 55.036 5.18378 55.0327 5.17773 55.0327Z" fill="#20BB65"/>
<path d="M4.39806 48.3648C4.39806 48.3648 4.38891 48.3541 4.38281 48.3506L4.39806 48.3648Z" fill="#20BB65"/>
<path d="M5.05513 47.0875C4.84514 47.4023 4.48979 47.3499 4.49302 47.7809C4.4058 47.9458 4.41872 48.1707 4.39934 48.3618C4.62548 48.5567 4.32826 48.5905 4.50917 48.7854L4.35088 48.7591C4.41226 48.8266 4.45103 48.8866 4.36058 48.8866L4.31858 48.8678C4.41226 48.9653 4.32827 48.9952 4.37672 49.0439L4.33473 49.0252V49.0927L4.27658 49.0552C4.3638 49.1939 4.34443 49.2876 4.26366 49.3438L4.44134 49.4112C4.19259 49.4974 4.53825 49.7149 4.25396 49.7711L4.21196 49.7523C4.61578 50.1421 3.79846 49.9285 4.17967 50.3145C4.13121 50.2658 4.08599 50.2883 4.04399 50.2695C4.0666 50.382 4.06336 50.4944 4.40902 50.6368C4.38318 50.7006 4.28303 50.6481 4.14735 50.6031C4.29919 50.6631 4.34442 50.7493 4.33796 50.8055L4.28628 50.7568L4.29273 50.9292L4.58993 51.0154C4.48332 51.0604 4.23135 50.8955 4.27981 51.0004L4.51887 51.0941C4.43811 51.1841 4.06013 51.1053 3.85015 51.1466C3.61432 51.5588 4.09245 52.271 3.55618 52.5296L3.3688 52.4809C3.10067 52.3909 3.7274 52.7395 3.47865 52.6645L3.58524 52.7582C3.53355 52.7582 3.4754 52.7657 3.42371 52.7208C3.4011 52.762 3.44311 52.7807 3.51741 52.8407L3.33972 52.8295C3.16527 52.9644 3.4431 53.2267 3.33003 53.3917C2.93591 53.5004 3.13619 54.0363 3.25895 54.3436C3.57231 54.8159 2.4158 54.8796 2.78731 55.3818C2.74531 55.3818 2.82606 55.4381 2.85514 55.4456L2.74531 55.7604C2.74531 55.7604 2.63225 56.1502 2.83254 56.4687C3.03283 56.7911 3.54648 57.0197 4.78378 56.7611L4.83869 56.7873C5.01637 56.6561 5.07453 56.5587 4.80639 56.3525C5.17144 56.4425 4.87422 56.2214 5.00022 56.2176L5.0293 56.2289C4.77732 56.0377 5.30712 56.0827 5.08421 55.9066C5.11329 55.9178 5.21021 55.9515 5.21021 55.9777C5.18113 55.8915 5.12622 55.7641 5.3362 55.8241C5.32328 55.633 5.47511 55.4193 5.17144 55.2019L5.22636 55.2281C5.01637 55.0895 5.21343 55.1345 5.11651 55.0258C5.14559 55.0295 5.15852 55.0295 5.17144 55.0332C4.96792 54.8908 5.18759 54.8196 5.10683 54.7297L5.24574 54.7709V54.621L5.20697 54.6622C4.83223 54.516 5.47188 54.6397 5.25221 54.4561C5.32328 54.3811 4.51241 53.995 4.72239 53.9613C4.55764 53.8526 5.00022 54.1038 4.88069 53.9838C5.07775 54.0513 4.99698 54.0588 5.15851 54.0962C5.08098 53.995 5.38788 54.055 5.27804 53.9238L5.43312 53.9763C5.18113 53.7664 5.68832 53.8414 5.4428 53.6728C5.34588 53.5153 5.91769 53.7589 5.64956 53.534L5.86923 53.5641C5.91769 53.5266 5.62372 53.4366 5.74002 53.4179C5.86924 53.4703 5.86278 53.3879 5.97908 53.4628C6.21814 53.4141 5.75939 53.103 6.15029 53.0655C5.908 52.9344 6.07922 52.9081 5.89831 52.8107C6.01138 52.8482 5.96292 52.6533 6.17613 52.8369C6.19229 52.8519 6.18583 52.8632 6.14384 52.8482L6.29243 52.9157C6.60256 52.9306 6.18582 52.687 6.25366 52.612C6.19551 52.6195 6.19875 52.6608 6.10184 52.597L6.14705 52.5183L6.26981 52.5858L6.37966 52.4846L6.21813 52.4434C6.31505 52.4134 6.58642 52.4921 6.38613 52.3347C6.27306 52.256 6.15997 52.3122 6.12767 52.226C6.26012 52.1848 6.45719 52.121 6.53472 52.0348C6.35704 51.9749 6.36997 51.9486 6.34413 51.9074L6.49595 51.9637C6.31828 51.765 6.84163 52.0536 6.70595 51.8775L6.80933 51.9299L6.49919 51.7725C6.22782 51.5514 6.83193 51.8437 6.45396 51.5663C6.46688 51.6226 6.11152 51.4539 6.19552 51.424L6.33766 51.4989C6.31505 51.4577 6.2569 51.4202 6.29566 51.4127C6.36997 51.4614 6.50565 51.5101 6.49595 51.4539L6.6704 51.5589L6.42489 51.364C6.60257 51.364 6.43457 51.1803 6.65101 51.2366C6.65101 51.2366 6.79316 51.1391 6.57672 51.0154C6.70917 51.1016 6.78671 51.0454 6.945 51.1391C6.7964 51.0379 6.69948 50.8768 6.88362 50.9067L6.89977 50.9217C7.12268 50.8392 6.74794 50.5544 6.99992 50.5019C6.82224 50.4345 6.94176 50.4007 6.71239 50.322C6.53795 50.0784 7.2519 50.2546 6.57995 49.8985C6.5638 49.816 6.76731 49.891 6.81254 49.8723L6.84486 49.9023C6.82871 49.7523 6.83193 49.7149 6.88039 49.6287C6.8287 49.5537 6.51211 49.4038 6.61548 49.3551C6.73501 49.4375 6.72209 49.3925 6.73178 49.3626C6.7447 49.3925 6.78994 49.4187 6.89009 49.415C6.85132 49.3925 6.83192 49.3738 6.81254 49.3551C6.82223 49.3588 6.83194 49.3625 6.84486 49.3663C6.81578 49.2951 6.77379 49.2876 6.74795 49.3026C6.72856 49.2913 6.70272 49.2838 6.66718 49.2763C6.84809 49.2951 6.70594 49.1227 6.92562 49.2126C6.92562 49.0365 6.73825 48.8228 6.69948 48.6542C6.81578 48.6917 6.90623 48.7666 6.9353 48.8228L6.92562 48.7141C7.08715 48.7891 6.99992 48.8078 7.02253 48.8528C7.31974 48.864 6.83839 48.508 7.12268 48.493L7.00315 48.4068H7.02577C6.95793 48.3768 6.87716 48.3056 6.86101 48.2794C7.00638 48.3281 7.18405 48.4293 7.19698 48.3656C7.34881 48.3806 7.1776 48.1932 7.12591 48.092C7.09038 48.1145 7.01606 48.0695 6.97407 48.0283C6.98053 47.9945 7.1259 48.0433 7.07421 47.9908L7.26482 48.077C7.08391 48.0058 7.1033 47.9046 7.029 47.8559C7.17437 47.9046 7.13236 47.9608 7.23574 48.0208C7.26158 47.8858 7.24868 47.9533 7.27452 47.8183C7.15499 47.6834 7.0936 47.7471 6.93854 47.6347C6.92238 47.556 6.81255 47.4361 6.94824 47.4211L6.77378 47.3611C6.68332 47.1849 6.72856 47.1287 6.92562 47.1325C6.39904 46.3829 5.95323 46.1055 5.63664 46.0231C5.32005 45.9406 5.13589 46.0493 5.13589 46.0493C4.64485 46.2105 5.06482 46.6228 5.05513 47.0875Z" fill="#20BB65"/>
<path d="M3.47556 65.7256L3.39844 65.748C3.43379 65.748 3.4627 65.748 3.47556 65.7256Z" fill="#20BB65"/>
<path d="M0.887285 66.6353C0.887285 66.6353 0.877725 66.6284 0.868164 66.625L0.887285 66.6353Z" fill="#20BB65"/>
<path d="M1.17838 65.1707C1.05885 65.5493 0.706734 65.6243 0.823033 66.0403C0.784267 66.2314 0.855343 66.4413 0.887648 66.6324C1.15578 66.7374 0.881181 66.8798 1.10409 66.996L0.949029 67.0297C1.02656 67.0709 1.07825 67.1159 0.991028 67.1459H0.945795C1.06209 67.2021 0.987791 67.2584 1.04594 67.2883H1.00071L1.01686 67.3521L0.952263 67.3371C1.07502 67.4383 1.07824 67.5357 1.02009 67.6182H1.20747C0.994252 67.7943 1.38192 67.873 1.1267 68.0304H1.08147C1.56928 68.2478 0.739037 68.349 1.20423 68.5776C1.14608 68.5514 1.10732 68.5889 1.06209 68.5851C1.11378 68.6863 1.14286 68.7913 1.51114 68.7988C1.50468 68.87 1.39484 68.855 1.2527 68.8625C1.41423 68.8625 1.47883 68.9262 1.48852 68.9824L1.42714 68.9562L1.48206 69.1174L1.78573 69.0874C1.6985 69.1698 1.41422 69.1061 1.48852 69.1886H1.74051C1.69206 69.3047 1.30761 69.376 1.12347 69.4922C1.01686 69.9757 1.66943 70.4666 1.23977 70.9239L1.04917 70.9501C0.771349 70.9689 1.46268 71.0551 1.20747 71.0851L1.3367 71.13C1.28824 71.145 1.23655 71.1787 1.17194 71.1563C1.16225 71.205 1.20747 71.205 1.2947 71.235L1.12347 71.2949C0.99748 71.4898 1.33668 71.6323 1.27853 71.8347C0.939324 72.097 1.285 72.5243 1.49176 72.7642C1.92465 73.0827 0.861794 73.615 1.36253 73.9373C1.32376 73.9523 1.41422 73.9748 1.44652 73.971L1.43684 74.3158C1.43684 74.3158 1.44976 74.7318 1.73728 74.9455C2.02157 75.1666 2.57399 75.1629 3.65298 74.4095H3.71437C3.84036 74.2146 3.86297 74.1022 3.54961 74.0197C3.91789 73.956 3.57545 73.8698 3.69175 73.8136H3.72083C3.42685 73.7424 3.93727 73.5662 3.6756 73.495C3.70468 73.495 3.80805 73.4875 3.81451 73.51C3.76282 73.4425 3.67236 73.3488 3.88557 73.3189C3.8145 73.1465 3.89527 72.8878 3.54314 72.8054H3.60452C3.36869 72.7642 3.56575 72.7267 3.43976 72.663C3.46883 72.6555 3.48177 72.6517 3.49469 72.648C3.25886 72.5955 3.44622 72.4418 3.34285 72.3931L3.48499 72.3781L3.44299 72.2394L3.41393 72.2957C3.01657 72.3069 3.65622 72.1682 3.39455 72.0858C3.43977 71.9846 2.5643 71.9471 2.75167 71.8309C2.5643 71.7934 3.05534 71.8534 2.90673 71.7897C3.11349 71.7747 3.03918 71.8159 3.2007 71.7859C3.10056 71.7222 3.40423 71.6585 3.26208 71.5798L3.42361 71.5648C3.1264 71.4674 3.62713 71.3399 3.34285 71.28C3.20716 71.1675 3.81775 71.1788 3.49793 71.0701L3.71437 71.0138C3.74667 70.9614 3.44623 70.9876 3.54961 70.9276C3.68529 70.9276 3.65621 70.8489 3.78866 70.8789C3.99865 70.7402 3.47853 70.6278 3.83389 70.4442C3.56576 70.4142 3.72082 70.3242 3.52376 70.3017C3.64005 70.2943 3.53991 70.1293 3.7919 70.2193C3.81128 70.2268 3.80804 70.2418 3.76281 70.2418L3.92112 70.2493C4.21833 70.1443 3.75314 70.0768 3.79836 69.9794C3.74667 70.0094 3.75959 70.0468 3.65298 70.0244L3.67237 69.9344L3.80481 69.9494L3.87913 69.8145L3.71437 69.837C3.79836 69.7695 4.07617 69.7433 3.84358 69.6721C3.71435 69.6383 3.62391 69.7358 3.56899 69.6683C3.68206 69.5784 3.85005 69.4472 3.89851 69.3385C3.71437 69.3497 3.72081 69.3197 3.68205 69.2898H3.84358C3.62067 69.1661 4.19895 69.2448 4.01804 69.1249L4.1311 69.1361L3.79513 69.1024C3.47531 68.9937 4.12787 69.0462 3.69498 68.9262C3.72083 68.9712 3.33962 68.945 3.41069 68.8887L3.56575 68.9037C3.53345 68.87 3.46883 68.8588 3.50114 68.84C3.58513 68.8588 3.72728 68.8512 3.70143 68.8063L3.89527 68.84L3.61099 68.7501C3.77897 68.6826 3.57222 68.5739 3.78866 68.5477C3.78866 68.5477 3.89851 68.4052 3.65945 68.364C3.80806 68.3978 3.8662 68.319 4.04065 68.3453C3.87266 68.304 3.73698 68.1879 3.91789 68.1467L3.93727 68.1541C4.12464 67.9967 3.69175 67.8618 3.91789 67.7231C3.73052 67.7231 3.8339 67.6481 3.59484 67.6594C3.36547 67.4945 4.08911 67.4008 3.35578 67.3108C3.31701 67.2396 3.53022 67.2359 3.57222 67.2021L3.61099 67.2209C3.55607 67.0859 3.54961 67.0485 3.57222 66.951C3.50115 66.8985 3.16194 66.8686 3.24917 66.7861C3.38485 66.8236 3.359 66.7861 3.36223 66.7524C3.38161 66.7749 3.4333 66.7861 3.52699 66.7486C3.48499 66.7411 3.45914 66.7299 3.43976 66.7186C3.44945 66.7186 3.45915 66.7186 3.47208 66.7186C3.42685 66.6624 3.38485 66.6662 3.36546 66.6924C3.34608 66.6924 3.317 66.6924 3.28147 66.6924C3.45914 66.6475 3.27824 66.5313 3.51084 66.5425C3.46561 66.3738 3.22979 66.2389 3.14902 66.0927C3.26855 66.0852 3.37516 66.1265 3.41716 66.1715L3.37838 66.0702C3.5496 66.0852 3.4753 66.134 3.50761 66.1677C3.79512 66.074 3.2427 65.9053 3.50761 65.7929L3.37193 65.7517L3.39455 65.7442C3.32347 65.7367 3.22655 65.6992 3.20394 65.6767C3.35577 65.6692 3.5496 65.7067 3.54637 65.6392C3.69498 65.598 3.48499 65.4818 3.40746 65.4031C3.37839 65.4368 3.29762 65.4181 3.24593 65.3956C3.24593 65.3619 3.39455 65.3544 3.33317 65.3244L3.53669 65.3394C3.34609 65.3356 3.3364 65.2307 3.25564 65.2119C3.40747 65.2082 3.38162 65.2756 3.49469 65.2981C3.485 65.1595 3.49145 65.2307 3.48176 65.092C3.33315 65.0058 3.28794 65.0845 3.11349 65.032C3.07796 64.9646 2.94227 64.8859 3.06826 64.8259H2.88735C2.75813 64.6947 2.78396 64.6235 2.97456 64.5635C2.28 64.0276 1.78573 63.9114 1.46267 63.9414C1.13962 63.9713 0.991028 64.14 0.991028 64.14C0.561366 64.4661 1.06855 64.7172 1.17838 65.1707Z" fill="#20BB65"/>
<path d="M5.36032 83.2314L5.29688 83.2866C5.32859 83.2719 5.35397 83.2572 5.36032 83.2314Z" fill="#20BB65"/>
<path d="M3.0616 83.7862C3.08098 84.1872 2.78377 84.4233 3.03575 84.7531C3.06805 84.948 3.20374 85.1092 3.30066 85.2704C3.58171 85.2441 3.38142 85.5027 3.62694 85.5065L3.4945 85.6077C3.57849 85.6077 3.6431 85.6264 3.57526 85.6976L3.53326 85.7127C3.65926 85.7127 3.61403 85.8026 3.67541 85.8026L3.63341 85.8213L3.67217 85.8738L3.60756 85.8888C3.75293 85.9263 3.7917 86.0125 3.76585 86.1174L3.93708 86.0312C3.8014 86.2936 4.18582 86.1849 4.00814 86.4472L3.96615 86.466C4.48949 86.4398 3.76586 86.9232 4.27305 86.912C4.21167 86.912 4.18905 86.9682 4.14705 86.9869C4.23105 87.0544 4.29243 87.1406 4.63163 86.972C4.65102 87.0394 4.54442 87.0807 4.41843 87.1519C4.56703 87.0769 4.64779 87.1031 4.67687 87.1519H4.60904L4.71563 87.2793L4.98377 87.1069C4.93208 87.2268 4.65103 87.3018 4.74795 87.3393L4.9773 87.2193C4.97407 87.3505 4.64779 87.5941 4.51857 87.789C4.59288 88.28 5.36175 88.4224 5.12915 89.0446L4.96762 89.1608C4.7221 89.3107 5.38112 89.0596 5.15821 89.2058L5.29068 89.187C5.25191 89.2245 5.21638 89.2807 5.15177 89.2882C5.16146 89.3369 5.20022 89.3145 5.29068 89.3032L5.15498 89.4381C5.10975 89.678 5.46512 89.648 5.48773 89.8579C5.27129 90.2589 5.73648 90.4838 6.01108 90.6038C6.51827 90.6862 5.73648 91.6794 6.30828 91.7357C6.27921 91.7694 6.36967 91.7431 6.39551 91.7244L6.50857 92.043C6.50857 92.043 6.66688 92.414 7.00286 92.4778C7.34206 92.5415 7.8428 92.2754 8.55998 91.0798L8.61489 91.0498C8.66335 90.8099 8.64073 90.6975 8.32737 90.7724C8.64073 90.5363 8.29829 90.6263 8.38551 90.5176L8.4146 90.5026C8.12062 90.5775 8.52444 90.1727 8.25954 90.2327C8.28538 90.2177 8.37583 90.1615 8.39198 90.1802C8.32091 90.1428 8.20461 90.1016 8.39198 89.9704C8.26599 89.8467 8.24985 89.5731 7.89772 89.6668L7.95263 89.6405C7.72003 89.7118 7.88802 89.5843 7.75234 89.5881C7.77496 89.5693 7.78465 89.5543 7.79757 89.5506C7.56498 89.6143 7.68127 89.3857 7.5682 89.3894L7.69419 89.307L7.60696 89.1983L7.6005 89.262C7.24191 89.4606 7.77495 89.0334 7.50682 89.0783C7.51328 88.9659 6.69918 89.3444 6.83163 89.1495C6.64749 89.2058 7.11592 89.0259 6.96086 89.0371C7.14177 88.9247 7.09008 88.9996 7.229 88.8947C7.1127 88.8835 7.37114 88.681 7.21285 88.6773L7.35499 88.5873C7.04809 88.6398 7.46159 88.2838 7.18053 88.3662C7.01577 88.3287 7.57789 88.0477 7.24838 88.1039L7.42605 87.9502C7.43898 87.8865 7.17407 88.0551 7.24515 87.9502C7.36791 87.8827 7.31622 87.8302 7.44544 87.7928C7.59081 87.5679 7.07392 87.7103 7.33559 87.373C7.08038 87.4742 7.19345 87.3168 6.99962 87.3917C7.103 87.3318 6.95439 87.2268 7.21606 87.1893C7.23868 87.1893 7.23868 87.2006 7.19991 87.2231L7.34852 87.1556C7.58112 86.9195 7.1353 87.0769 7.14177 86.9682C7.10623 87.0207 7.13208 87.0469 7.02224 87.0769L7.00932 86.9869L7.1353 86.9382L7.15791 86.7808L7.01577 86.8783C7.06746 86.7771 7.31621 86.6234 7.07715 86.6684C6.94793 86.7021 6.89948 86.8333 6.82518 86.7921C6.89625 86.6571 7.00286 86.4585 7.00932 86.3348C6.84457 86.4322 6.83809 86.4023 6.79286 86.391L6.93824 86.3123C6.69272 86.3123 7.24515 86.1062 7.04485 86.0837L7.15147 86.0387L6.83163 86.1699C6.50211 86.2224 7.11592 85.9637 6.67657 86.0574C6.71856 86.0874 6.35998 86.2411 6.40198 86.1586L6.55057 86.0987C6.50858 86.0837 6.4472 86.1062 6.46981 86.0687C6.5538 86.0462 6.6798 85.975 6.64104 85.9413L6.82841 85.8813L6.53766 85.9338C6.66688 85.7951 6.44073 85.7914 6.63134 85.6677C6.63134 85.6677 6.67979 85.484 6.44719 85.5627C6.5958 85.5215 6.61843 85.424 6.78965 85.3641C6.62166 85.4053 6.45688 85.3641 6.60872 85.2442H6.63134C6.74764 85.0118 6.3083 85.0942 6.4666 84.8581C6.29538 84.9443 6.3632 84.8281 6.14999 84.948C5.88185 84.9068 6.51181 84.4795 5.80755 84.7419C5.7494 84.6932 5.94323 84.592 5.96585 84.5433H6.00785C5.91093 84.4458 5.89156 84.4121 5.87864 84.3146C5.79464 84.2996 5.47481 84.4308 5.52326 84.3146C5.65895 84.2846 5.62342 84.2622 5.61373 84.2322C5.63957 84.2434 5.68802 84.2322 5.76232 84.1497C5.72032 84.161 5.69449 84.1647 5.67188 84.1647C5.68157 84.161 5.68802 84.1535 5.70417 84.1497C5.64279 84.1197 5.60727 84.1422 5.59435 84.1759C5.57496 84.1834 5.54912 84.1947 5.51682 84.2172C5.66542 84.0935 5.45866 84.071 5.67511 83.9736C5.57496 83.8424 5.31006 83.8274 5.1873 83.7299C5.29713 83.67 5.40696 83.6587 5.46188 83.6775L5.39406 83.6025C5.55881 83.5351 5.50388 83.6175 5.54588 83.6325C5.77525 83.4151 5.21315 83.5163 5.41667 83.2877L5.27774 83.3139L5.29712 83.2989C5.22928 83.3252 5.12591 83.3364 5.10007 83.3252C5.23575 83.2502 5.42958 83.194 5.4005 83.134C5.52326 83.0291 5.29068 83.0178 5.19376 82.9841C5.18084 83.0291 5.09684 83.0478 5.04192 83.0553C5.029 83.0253 5.16467 82.9504 5.09683 82.9504L5.29068 82.8716C5.113 82.9541 5.071 82.8642 4.987 82.8829C5.12592 82.8079 5.1259 82.8829 5.23574 82.8492C5.18082 82.7292 5.2099 82.7892 5.15498 82.6693C4.99022 82.658 4.9773 82.7517 4.79639 82.7854C4.74148 82.7405 4.58965 82.7292 4.68657 82.6168L4.52181 82.703C4.35705 82.6393 4.35704 82.5606 4.50887 82.4182C3.68832 82.242 3.19406 82.3619 2.90654 82.5343C2.61902 82.7067 2.53825 82.9354 2.53825 82.9354C2.25397 83.4339 2.80639 83.4338 3.0616 83.8011V83.7862Z" fill="#20BB65"/>
<path d="M13.2046 98.3618L13.166 98.4401C13.1917 98.414 13.2078 98.3842 13.2046 98.3618Z" fill="#20BB65"/>
<path d="M17.5371 103.157C17.5371 103.157 17.5463 103.151 17.5524 103.147C17.5463 103.147 17.5432 103.154 17.5371 103.157Z" fill="#20BB65"/>
<path d="M11.9898 101.165C11.9898 101.165 11.9803 101.168 11.9707 101.172L11.9898 101.165Z" fill="#20BB65"/>
<path d="M11.2763 99.9133C11.4314 100.273 11.2343 100.622 11.5735 100.809C11.6672 100.974 11.8481 101.06 11.987 101.161C12.2358 101.008 12.1356 101.338 12.365 101.229L12.2778 101.383C12.3553 101.345 12.4199 101.334 12.3812 101.428L12.3488 101.461C12.4651 101.405 12.4522 101.506 12.5104 101.48L12.4781 101.514L12.533 101.544L12.4813 101.589C12.6267 101.555 12.6913 101.619 12.7042 101.727L12.8334 101.57C12.7947 101.87 13.1113 101.6 13.0337 101.922L13.0014 101.96C13.4763 101.701 12.9659 102.47 13.4279 102.233C13.3697 102.263 13.3665 102.32 13.3342 102.357C13.4311 102.383 13.5183 102.432 13.7735 102.128C13.8123 102.185 13.7283 102.263 13.6346 102.391C13.7477 102.256 13.8317 102.245 13.8737 102.275L13.8155 102.308L13.9544 102.372L14.145 102.095C14.1353 102.226 13.8995 102.421 14.0029 102.413L14.1773 102.2C14.2161 102.323 13.9932 102.691 13.935 102.927C14.1612 103.347 14.9171 103.144 14.901 103.819L14.7847 103.995C14.6038 104.239 15.1368 103.721 14.9785 103.954L15.0948 103.879C15.0722 103.931 15.056 103.999 14.9979 104.032C15.0205 104.074 15.0528 104.032 15.1303 103.984L15.0496 104.167C15.0819 104.407 15.4049 104.227 15.4889 104.415C15.4114 104.879 15.9154 104.891 16.2061 104.887C16.7068 104.752 16.2836 106.004 16.8328 105.813C16.8167 105.854 16.8942 105.794 16.9136 105.768L17.1171 106.015C17.1171 106.015 17.3788 106.296 17.7115 106.214C18.0443 106.135 18.4384 105.685 18.7421 104.269L18.7841 104.22C18.755 103.976 18.7001 103.879 18.4287 104.077C18.6484 103.729 18.3544 103.95 18.4029 103.815L18.4255 103.789C18.1735 103.98 18.4255 103.436 18.1961 103.601C18.2187 103.579 18.2833 103.485 18.3027 103.496C18.222 103.493 18.1024 103.496 18.2349 103.302C18.0798 103.238 17.9764 102.99 17.6792 103.223L17.7245 103.174C17.5306 103.339 17.6469 103.148 17.5209 103.208C17.5371 103.182 17.5436 103.163 17.55 103.155C17.353 103.313 17.3885 103.05 17.2851 103.099L17.3756 102.968L17.2593 102.904L17.2754 102.968C17.0073 103.305 17.3659 102.679 17.13 102.837C17.101 102.728 16.4613 103.429 16.5227 103.189C16.3709 103.32 16.7488 102.953 16.6067 103.032C16.7391 102.848 16.7133 102.942 16.8102 102.784C16.7004 102.822 16.8716 102.522 16.723 102.589L16.8264 102.447C16.5582 102.627 16.8264 102.121 16.5938 102.312C16.429 102.35 16.8619 101.847 16.5712 102.038L16.6842 101.817C16.6745 101.754 16.4807 102.023 16.5162 101.892C16.6099 101.776 16.5421 101.75 16.6519 101.66C16.7133 101.39 16.2804 101.742 16.4129 101.315C16.2093 101.518 16.261 101.323 16.1092 101.476C16.1835 101.375 16.0123 101.341 16.2449 101.195C16.2643 101.184 16.2707 101.195 16.2384 101.233L16.3515 101.105C16.4904 100.787 16.1286 101.124 16.0995 101.019C16.0833 101.083 16.1157 101.098 16.0252 101.173L15.9832 101.094L16.0866 100.993L16.0543 100.835L15.9541 100.989C15.9703 100.873 16.148 100.622 15.9412 100.768C15.8314 100.854 15.8281 100.997 15.7506 100.993C15.7732 100.839 15.8055 100.607 15.7732 100.487C15.6505 100.648 15.6375 100.622 15.5923 100.633L15.7021 100.494C15.4728 100.599 15.9218 100.168 15.7248 100.236L15.8088 100.149L15.5568 100.408C15.2692 100.599 15.7538 100.09 15.3759 100.371C15.4243 100.382 15.1433 100.682 15.1562 100.584L15.2725 100.464C15.2305 100.468 15.1788 100.517 15.1885 100.476C15.2596 100.419 15.3533 100.296 15.3048 100.284L15.4599 100.146L15.2046 100.322C15.2789 100.135 15.0657 100.232 15.2046 100.033C15.2046 100.033 15.1917 99.8421 15.0011 100.015C15.1239 99.9134 15.1142 99.8084 15.2531 99.681C15.1109 99.7934 14.943 99.8272 15.0431 99.6473L15.0625 99.636C15.0916 99.3699 14.7136 99.636 14.7814 99.3511C14.6522 99.5086 14.6781 99.3699 14.5198 99.5761C14.2549 99.6585 14.6975 98.9801 14.1353 99.5385C14.0643 99.5198 14.2096 99.3399 14.2161 99.2837L14.2549 99.265C14.1321 99.22 14.103 99.1975 14.0578 99.1113C13.977 99.1338 13.7218 99.4036 13.7315 99.2725C13.8478 99.1863 13.8091 99.1788 13.7897 99.1525C13.8187 99.1525 13.8575 99.1151 13.8995 99.0101C13.864 99.0401 13.8413 99.0513 13.8187 99.0626C13.8252 99.0551 13.8317 99.0476 13.8414 99.0363C13.7735 99.0363 13.7477 99.0738 13.7509 99.1076C13.7348 99.1226 13.7154 99.145 13.6928 99.1825C13.7864 99.0026 13.5894 99.0738 13.7574 98.8864C13.6217 98.8077 13.3729 98.9126 13.2243 98.8864C13.3051 98.7815 13.402 98.7215 13.4602 98.714L13.3697 98.6765C13.4989 98.5416 13.4763 98.6391 13.5183 98.6353C13.6572 98.328 13.1726 98.6765 13.2825 98.3767L13.1662 98.4629L13.1791 98.4404C13.1242 98.4966 13.0337 98.5529 13.0047 98.5529C13.1048 98.4217 13.2631 98.283 13.2179 98.2418C13.2954 98.0881 13.0757 98.1855 12.9756 98.1968C12.9756 98.2455 12.9077 98.3017 12.8593 98.328C12.8367 98.3055 12.9368 98.1743 12.8754 98.2043L13.024 98.0431C12.8884 98.2005 12.8205 98.1368 12.7494 98.193C12.8496 98.0619 12.8754 98.1331 12.9659 98.0506C12.8754 97.9644 12.9206 98.0056 12.827 97.9194C12.6719 97.9831 12.6913 98.0768 12.5362 98.1893C12.4684 98.1705 12.3262 98.2343 12.3779 98.0844L12.2552 98.238C12.0807 98.253 12.0549 98.1818 12.1486 97.9794C11.3377 98.1931 10.9242 98.5304 10.7174 98.8227C10.5139 99.1151 10.5171 99.3587 10.5171 99.3587C10.4235 99.9471 10.9339 99.6923 11.2892 99.9096L11.2763 99.9133Z" fill="#20BB65"/>
<path d="M25.2397 109.392L25.2236 109.481C25.2397 109.448 25.2493 109.414 25.2397 109.392Z" fill="#20BB65"/>
<path d="M30.6377 112.479C30.6377 112.479 30.6443 112.472 30.6508 112.465C30.6443 112.468 30.641 112.475 30.6377 112.479Z" fill="#20BB65"/>
<path d="M24.8317 112.491C24.8317 112.491 24.8225 112.498 24.8164 112.505L24.8317 112.491Z" fill="#20BB65"/>
<path d="M23.8286 111.565C24.0709 111.85 23.9772 112.251 24.3487 112.304C24.4779 112.424 24.6717 112.442 24.8333 112.487C25.0303 112.251 25.0206 112.6 25.208 112.416L25.166 112.592C25.2306 112.529 25.2888 112.495 25.2759 112.6L25.2532 112.645C25.3502 112.551 25.3631 112.652 25.4115 112.604L25.3889 112.648L25.4471 112.66L25.4083 112.72C25.5375 112.637 25.6151 112.675 25.6538 112.772L25.7346 112.577C25.7766 112.877 26.006 112.51 26.0156 112.84L25.993 112.885C26.3775 112.472 26.09 113.383 26.4679 112.997C26.4195 113.046 26.4324 113.102 26.4098 113.147C26.5099 113.136 26.6036 113.154 26.7716 112.776C26.8233 112.813 26.7651 112.922 26.707 113.072C26.7781 112.903 26.8588 112.862 26.904 112.877L26.8556 112.93L27.0042 112.945L27.1173 112.615C27.1431 112.742 26.9687 113.008 27.0624 112.971L27.1754 112.708C27.2433 112.813 27.127 113.241 27.1302 113.484C27.45 113.807 28.122 113.353 28.2738 114.005L28.2092 114.211C28.0994 114.507 28.4773 113.833 28.3836 114.106L28.4773 113.994C28.4676 114.05 28.4676 114.121 28.4224 114.174C28.4547 114.204 28.4741 114.159 28.5355 114.084L28.5032 114.286C28.5936 114.504 28.8553 114.223 28.9813 114.373C29.0233 114.841 29.5046 114.684 29.7825 114.582C30.2283 114.286 30.1281 115.624 30.6062 115.261C30.5998 115.306 30.6579 115.223 30.6709 115.19L30.9228 115.362C30.9228 115.362 31.2394 115.546 31.5366 115.362C31.8371 115.178 32.1052 114.616 32.0535 113.158L32.0826 113.098C31.9954 112.873 31.9211 112.798 31.7078 113.076C31.8338 112.667 31.6077 112.978 31.6174 112.832L31.6335 112.802C31.4365 113.068 31.5463 112.461 31.3654 112.697C31.3816 112.667 31.4203 112.558 31.443 112.562C31.3654 112.585 31.2491 112.63 31.3299 112.397C31.1651 112.386 31.0036 112.184 30.7742 112.502L30.8033 112.442C30.6579 112.663 30.7225 112.442 30.6159 112.54C30.6256 112.51 30.6256 112.491 30.6321 112.48C30.4835 112.697 30.4512 112.435 30.364 112.514L30.4189 112.36L30.2929 112.337L30.322 112.39C30.1475 112.802 30.3349 112.083 30.1507 112.311C30.0958 112.217 29.6597 113.102 29.6565 112.855C29.5434 113.031 29.8148 112.555 29.6985 112.675C29.7825 112.457 29.7792 112.551 29.8309 112.371C29.734 112.446 29.8245 112.101 29.6985 112.21L29.7631 112.038C29.5499 112.3 29.6823 111.723 29.5046 111.989C29.356 112.079 29.6435 111.453 29.4142 111.734L29.4691 111.487C29.4432 111.427 29.3269 111.753 29.3269 111.618C29.3883 111.475 29.3173 111.472 29.398 111.348C29.3883 111.067 29.0621 111.554 29.0814 111.101C28.9393 111.363 28.9393 111.161 28.8294 111.359C28.8747 111.235 28.7002 111.265 28.8876 111.044C28.9037 111.026 28.9134 111.037 28.8941 111.082L28.9716 110.921C29.0233 110.568 28.7616 111.014 28.7067 110.921C28.7067 110.988 28.7422 110.992 28.6744 111.093L28.613 111.029L28.6841 110.898L28.613 110.759L28.5549 110.939C28.5419 110.823 28.6453 110.52 28.487 110.733C28.403 110.853 28.4385 110.992 28.361 111.014C28.3416 110.861 28.3158 110.625 28.2512 110.523C28.1769 110.722 28.1575 110.7 28.1155 110.726L28.1833 110.557C27.9927 110.737 28.3061 110.171 28.1381 110.302L28.1963 110.19L28.0218 110.523C27.7957 110.804 28.1284 110.152 27.8409 110.55C27.8894 110.542 27.6988 110.928 27.6858 110.827L27.7666 110.673C27.7278 110.692 27.6891 110.756 27.6891 110.711C27.7407 110.632 27.7989 110.482 27.7504 110.486L27.8635 110.298L27.6665 110.553C27.6891 110.351 27.5114 110.516 27.5889 110.276C27.5889 110.276 27.5243 110.1 27.3886 110.328C27.4791 110.19 27.4436 110.092 27.5405 109.924C27.4339 110.081 27.2852 110.171 27.3337 109.965L27.3499 109.946C27.3079 109.68 27.0171 110.074 27.0042 109.774C26.9234 109.969 26.9105 109.826 26.8136 110.081C26.5842 110.25 26.8265 109.451 26.4356 110.179C26.3613 110.186 26.4518 109.961 26.4421 109.905L26.4744 109.875C26.3452 109.875 26.3129 109.864 26.245 109.8C26.1739 109.849 26.0027 110.197 25.9769 110.07C26.0641 109.946 26.0253 109.954 25.9995 109.939C26.0253 109.927 26.0544 109.879 26.0673 109.766C26.0415 109.807 26.0221 109.83 26.006 109.845C26.0124 109.834 26.0124 109.826 26.0221 109.811C25.9575 109.834 25.9446 109.882 25.9543 109.912C25.9446 109.935 25.9317 109.961 25.9187 110.002C25.9607 109.796 25.7927 109.939 25.8993 109.695C25.7475 109.669 25.5408 109.86 25.3922 109.882C25.4406 109.751 25.5149 109.661 25.5698 109.635H25.4761C25.5601 109.455 25.5666 109.556 25.6054 109.538C25.6538 109.197 25.2888 109.703 25.3114 109.376L25.2209 109.5L25.2274 109.474C25.1919 109.549 25.1208 109.631 25.0917 109.646C25.1531 109.485 25.2629 109.298 25.208 109.272C25.2403 109.099 25.0594 109.272 24.9657 109.317C24.9819 109.361 24.9302 109.44 24.8914 109.485C24.8623 109.474 24.9237 109.313 24.872 109.365L24.9722 109.159C24.885 109.358 24.8042 109.324 24.7525 109.399C24.8139 109.238 24.8559 109.294 24.9205 109.185C24.8107 109.137 24.8656 109.159 24.7525 109.11C24.6201 109.227 24.6653 109.309 24.549 109.47C24.4811 109.478 24.3616 109.59 24.3681 109.429L24.2938 109.62C24.1323 109.699 24.087 109.639 24.1193 109.414C23.4086 109.916 23.1082 110.388 22.9951 110.741C22.882 111.093 22.9499 111.322 22.9499 111.322C23.0209 111.91 23.4312 111.483 23.8286 111.558V111.565Z" fill="#20BB65"/>
<path d="M38.921 115.872L38.9141 115.957C38.9244 115.92 38.9278 115.886 38.921 115.872Z" fill="#20BB65"/>
<path d="M41.9385 116.684C41.9385 116.684 41.9417 116.673 41.945 116.666C41.9417 116.673 41.9385 116.677 41.9385 116.684Z" fill="#20BB65"/>
<path d="M38.7399 118.855C38.7399 118.855 38.7366 118.866 38.7334 118.873L38.7431 118.855H38.7399Z" fill="#20BB65"/>
<path d="M38.165 118.432C38.3039 118.585 38.2587 118.99 38.4654 118.885C38.5397 118.941 38.6463 118.878 38.7368 118.855C38.8434 118.559 38.8434 118.881 38.9436 118.638L38.9209 118.818C38.9565 118.735 38.9888 118.679 38.9823 118.78L38.9694 118.829C39.0211 118.705 39.0308 118.791 39.0566 118.728L39.0437 118.78L39.076 118.765L39.0566 118.836C39.1277 118.709 39.1697 118.713 39.1923 118.788L39.2343 118.574C39.2602 118.833 39.3829 118.405 39.3926 118.705L39.3797 118.758C39.5897 118.225 39.4411 119.177 39.6446 118.675C39.6187 118.739 39.6252 118.784 39.6155 118.836C39.6704 118.788 39.7221 118.769 39.8093 118.353C39.8384 118.368 39.8093 118.491 39.777 118.653C39.8158 118.469 39.8578 118.402 39.8836 118.398L39.8578 118.465L39.9386 118.424L39.9967 118.075C40.0129 118.184 39.9192 118.495 39.9709 118.424L40.029 118.139C40.0678 118.21 40.0064 118.649 40.0129 118.874C40.1938 119.054 40.5588 118.383 40.6461 118.937L40.6105 119.155C40.5524 119.47 40.7559 118.705 40.7042 118.997L40.7559 118.859C40.7527 118.915 40.7527 118.979 40.7268 119.046C40.7462 119.065 40.7559 119.012 40.7882 118.923L40.772 119.125C40.8237 119.297 40.9659 118.941 41.0337 119.039C41.0596 119.462 41.3212 119.147 41.4731 118.96C41.7121 118.529 41.6669 119.826 41.9253 119.327C41.9253 119.372 41.9544 119.275 41.9609 119.241L42.0998 119.32C42.0998 119.32 42.271 119.391 42.4325 119.121C42.5941 118.851 42.7362 118.237 42.7007 116.869L42.7168 116.801C42.6684 116.617 42.6264 116.569 42.5133 116.902C42.5779 116.479 42.4584 116.842 42.4648 116.704L42.4713 116.67C42.3679 116.985 42.4229 116.378 42.3259 116.659C42.3324 116.625 42.355 116.509 42.3679 116.505C42.3259 116.55 42.2645 116.632 42.3065 116.385C42.2161 116.43 42.1289 116.291 42.0061 116.67L42.0223 116.602C41.9447 116.861 41.977 116.632 41.9221 116.76C41.9253 116.726 41.9286 116.711 41.9286 116.696C41.8478 116.951 41.8284 116.715 41.7832 116.82L41.8123 116.655L41.7412 116.677L41.7574 116.719C41.6637 117.165 41.7638 116.426 41.6637 116.704C41.6314 116.636 41.402 117.614 41.3988 117.382C41.3374 117.588 41.4828 117.045 41.4214 117.198C41.4666 116.966 41.4634 117.056 41.4925 116.869C41.4408 116.97 41.486 116.617 41.4181 116.764L41.4505 116.58C41.3374 116.899 41.402 116.318 41.3083 116.625C41.2275 116.76 41.3794 116.078 41.2566 116.419L41.2857 116.168C41.2695 116.123 41.2114 116.464 41.2082 116.34C41.2405 116.186 41.2017 116.209 41.2437 116.067C41.234 115.808 41.0596 116.378 41.066 115.95C40.9885 116.246 40.9885 116.059 40.9303 116.28C40.9562 116.149 40.8593 116.239 40.9594 115.965C40.9691 115.943 40.9723 115.95 40.9594 115.999L41.0014 115.823C41.0272 115.474 40.8883 115.988 40.856 115.924C40.856 115.988 40.8754 115.977 40.8399 116.097L40.8043 116.063L40.8431 115.913L40.8043 115.808L40.7753 115.995C40.7656 115.89 40.8205 115.572 40.7365 115.827C40.6913 115.969 40.7107 116.085 40.6687 116.134C40.6557 115.995 40.6396 115.789 40.6008 115.722C40.5621 115.932 40.5491 115.92 40.5297 115.958L40.5653 115.774C40.4619 116.01 40.6299 115.369 40.5362 115.557L40.5685 115.433L40.4748 115.808C40.3521 116.153 40.5297 115.426 40.3747 115.902C40.4005 115.875 40.3004 116.303 40.2907 116.216L40.3327 116.044C40.3101 116.078 40.2907 116.149 40.2907 116.112C40.3198 116.018 40.3488 115.857 40.323 115.883L40.3844 115.669L40.2778 115.98C40.2875 115.785 40.1905 116.007 40.2325 115.755C40.2325 115.755 40.1938 115.617 40.1227 115.883C40.1712 115.718 40.1486 115.643 40.2035 115.452C40.1453 115.636 40.0645 115.778 40.0872 115.572L40.0969 115.549C40.071 115.321 39.9127 115.797 39.903 115.527C39.861 115.737 39.8513 115.613 39.7997 115.883C39.6737 116.13 39.7996 115.302 39.5897 116.123C39.5477 116.156 39.5961 115.917 39.5897 115.872L39.6058 115.83C39.5347 115.883 39.5154 115.883 39.4766 115.853C39.4378 115.928 39.3474 116.31 39.3312 116.205C39.3765 116.055 39.3571 116.078 39.3409 116.074C39.3571 116.052 39.37 115.999 39.3765 115.89C39.3635 115.935 39.3538 115.965 39.3441 115.988C39.3441 115.977 39.3474 115.965 39.3506 115.95C39.3151 115.995 39.3086 116.048 39.3151 116.07C39.3086 116.093 39.3022 116.123 39.2957 116.168C39.3151 115.962 39.2246 116.16 39.2795 115.898C39.1955 115.935 39.0825 116.194 38.9985 116.276C39.0243 116.138 39.0631 116.025 39.0922 115.977L39.0372 116.014C39.0825 115.819 39.0857 115.909 39.1083 115.875C39.1309 115.546 38.9339 116.156 38.9403 115.849L38.8919 115.999V115.973C38.8757 116.055 38.8369 116.16 38.8208 116.183C38.8531 116.01 38.9112 115.793 38.8789 115.793C38.8951 115.624 38.795 115.853 38.7433 115.935C38.753 115.969 38.7271 116.063 38.7045 116.119C38.6883 116.119 38.7207 115.95 38.6916 116.018L38.7433 115.789C38.698 116.007 38.6496 116.01 38.6237 116.1C38.656 115.928 38.6819 115.962 38.7142 115.834C38.6496 115.834 38.6819 115.834 38.6205 115.838C38.5494 115.999 38.5753 116.055 38.5139 116.25C38.4751 116.288 38.4105 116.438 38.4105 116.288L38.3717 116.494C38.2813 116.632 38.2554 116.599 38.2716 116.385C37.4833 117.903 37.6481 118.604 37.6481 118.604C37.6998 119.102 37.9227 118.54 38.1456 118.443L38.165 118.432Z" fill="#20BB65"/>
</svg>
