<svg width="111" height="108" viewBox="0 0 111 108" fill="none" xmlns="http://www.w3.org/2000/svg">
<path d="M2.61026 1.05371L2.54199 1.07257C2.57451 1.07257 2.6005 1.06503 2.61026 1.05371Z" fill="#20BB65"/>
<path d="M0.428542 1.03846C0.353762 1.23084 0.0286212 1.30626 0.171678 1.49487C0.15217 1.59294 0.233458 1.68347 0.278976 1.774C0.535827 1.79286 0.291985 1.89471 0.50657 1.92489L0.363512 1.95883C0.438292 1.97014 0.4903 1.98524 0.41227 2.01164H0.370001C0.480545 2.0305 0.418773 2.06824 0.474045 2.07578H0.431776L0.451283 2.10972H0.389508C0.509806 2.14367 0.51956 2.18894 0.47079 2.23798L0.646372 2.21535C0.457798 2.32474 0.821934 2.31719 0.597595 2.42281H0.555327C1.02351 2.47561 0.256213 2.62272 0.701639 2.67553C0.646367 2.66798 0.613863 2.69062 0.568345 2.69816C0.623617 2.73965 0.652877 2.78869 0.994262 2.7472C0.994262 2.78115 0.890208 2.78868 0.756905 2.81132C0.906464 2.79246 0.971494 2.81132 0.984499 2.8415H0.925978L0.984499 2.90562L1.26736 2.85283C1.18933 2.90564 0.922734 2.9094 0.994262 2.93958L1.22835 2.90939C1.18933 2.97352 0.834949 3.05274 0.669134 3.13196C0.594354 3.38091 1.2186 3.53179 0.831698 3.81092L0.656116 3.84864C0.399264 3.8939 1.04303 3.84863 0.805682 3.8939H0.925978C0.88046 3.91276 0.834952 3.93541 0.773177 3.93541C0.766675 3.96181 0.808933 3.95427 0.886964 3.95804L0.730909 4.01083C0.620365 4.12399 0.935733 4.14663 0.886964 4.25225C0.578092 4.42577 0.90648 4.58797 1.09831 4.6785C1.50472 4.7728 0.519565 5.18773 0.984499 5.27449C0.948735 5.28958 1.03326 5.28581 1.06253 5.27827L1.05278 5.44799C1.05278 5.44799 1.06254 5.65169 1.32265 5.71582C1.58275 5.78371 2.08993 5.69318 3.09458 5.16886L3.14987 5.16133C3.27016 5.04817 3.28967 4.99159 3.00355 4.99536C3.34494 4.9086 3.0263 4.91992 3.13359 4.87465H3.16286C2.89301 4.87465 3.36444 4.71999 3.12059 4.72376C3.14661 4.71999 3.2409 4.70114 3.25065 4.70868C3.20189 4.68227 3.11734 4.65209 3.31566 4.60683C3.25064 4.53516 3.32542 4.39935 2.99704 4.41067L3.05231 4.40314C2.83122 4.41446 3.0133 4.3692 2.89951 4.35788C2.92552 4.35034 2.93853 4.34655 2.94829 4.34278C2.73045 4.35032 2.89952 4.25226 2.80523 4.24095L2.93852 4.21454L2.89951 4.15417L2.87349 4.18436C2.5061 4.24471 3.09458 4.09005 2.85073 4.08628C2.88975 4.03347 2.07694 4.13533 2.24925 4.05234C2.07368 4.05989 2.52886 4.02215 2.39231 4.01083C2.58414 3.97688 2.5126 4.00329 2.66541 3.96935C2.57112 3.95049 2.85399 3.87882 2.71744 3.85996L2.86701 3.83356C2.58739 3.82601 3.04908 3.69776 2.78572 3.70907C2.65567 3.67512 3.22139 3.59591 2.92553 3.58836L3.12385 3.5318C3.15311 3.50162 2.87351 3.55443 2.96779 3.51294C3.09459 3.49408 3.06533 3.46012 3.18562 3.45635C3.37745 3.36205 2.88975 3.37714 3.21488 3.24511C2.96453 3.26775 3.10759 3.20362 2.92227 3.21871C3.02956 3.19985 2.93203 3.13572 3.16937 3.14326C3.18888 3.14326 3.18562 3.15082 3.14336 3.15836L3.28967 3.13949C3.56278 3.05273 3.1271 3.07914 3.16612 3.02633C3.11735 3.04519 3.13359 3.06404 3.0328 3.06781L3.04908 3.02255L3.17263 3.01502L3.23764 2.94335L3.08484 2.97351C3.15962 2.93202 3.41971 2.88298 3.19862 2.87921C3.07507 2.87921 2.99705 2.93957 2.94503 2.91317C3.04582 2.85659 3.19537 2.77359 3.23764 2.71324C3.06532 2.74342 3.07182 2.72833 3.0328 2.71324L3.18237 2.69061C2.96779 2.6642 3.50749 2.6265 3.33843 2.59255L3.44247 2.585L3.1271 2.61141C2.82473 2.60009 3.43597 2.54351 3.02306 2.53974C3.04907 2.5586 2.69468 2.59254 2.75645 2.55859L2.90276 2.54729C2.87025 2.53597 2.80847 2.53972 2.83773 2.52464C2.91577 2.52464 3.04907 2.50201 3.01981 2.48315L3.20188 2.47562L2.93201 2.46807C3.08483 2.41526 2.88651 2.38886 3.08809 2.35114C3.08809 2.35114 3.18237 2.27192 2.95803 2.27947C3.09784 2.27947 3.14661 2.23419 3.31243 2.22287C3.15312 2.22287 3.01981 2.18517 3.18562 2.14368H3.20513C3.37095 2.04937 2.96128 2.03805 3.16286 1.94375C2.99055 1.96638 3.08158 1.91735 2.8605 1.9513C2.63616 1.89849 3.30267 1.77024 2.6134 1.81551C2.57438 1.78533 2.77272 1.75892 2.80523 1.74006H2.84099C2.77921 1.68725 2.77272 1.66839 2.78572 1.62313C2.71745 1.60804 2.39881 1.63066 2.47034 1.58162C2.59714 1.58162 2.57438 1.57032 2.57113 1.55146C2.59063 1.559 2.63941 1.559 2.72395 1.52883C2.68493 1.52883 2.65892 1.52882 2.63941 1.52505C2.64917 1.52505 2.65566 1.52505 2.67192 1.52505C2.6264 1.50242 2.58738 1.50996 2.56787 1.52505C2.54836 1.52505 2.52236 1.52881 2.48985 1.53636C2.65241 1.49486 2.47359 1.46093 2.69142 1.4383C2.63615 1.36286 2.40532 1.32513 2.31754 1.26855C2.42808 1.25346 2.52886 1.26099 2.57438 1.27608L2.53211 1.23459C2.69468 1.22328 2.62641 1.25346 2.65892 1.26478C2.91577 1.18934 2.3923 1.17046 2.62639 1.08748H2.49635L2.51586 1.07617C2.44758 1.07995 2.35655 1.07616 2.33379 1.06485C2.47359 1.04599 2.65891 1.04223 2.64915 1.01206C2.78246 0.978107 2.57764 0.944158 2.49961 0.917753C2.47685 0.936614 2.39881 0.936606 2.34679 0.932833C2.34029 0.917745 2.48008 0.89889 2.42156 0.891346L2.6134 0.876243C2.43457 0.895104 2.41831 0.846083 2.34028 0.846083C2.48008 0.827223 2.46383 0.864935 2.56787 0.861163C2.54836 0.797038 2.55813 0.830987 2.53537 0.766861C2.38906 0.740457 2.35654 0.785733 2.18748 0.778189C2.14846 0.748012 2.01516 0.729152 2.12896 0.683887L1.95988 0.706518C1.82658 0.657482 1.84608 0.619743 2.01515 0.570706C1.31938 0.389647 0.847939 0.382105 0.552072 0.431142C0.256206 0.476407 0.132664 0.574482 0.132664 0.574482C-0.234731 0.778174 0.262721 0.846075 0.402526 1.04977L0.428542 1.03846Z" fill="#20BB65"/>
<path d="M5.50799 12.9121L5.45508 12.9735C5.48484 12.9543 5.50469 12.9313 5.50799 12.9121Z" fill="#20BB65"/>
<path d="M8.77148 18.1661C8.77148 18.1661 8.78112 18.1626 8.78755 18.1592C8.78112 18.1592 8.77791 18.1626 8.77148 18.1661Z" fill="#20BB65"/>
<path d="M3.45902 13.8327C3.53705 14.2099 3.29647 14.4815 3.57608 14.7493C3.6346 14.9266 3.78741 15.0549 3.90121 15.1869C4.15806 15.1077 4.01174 15.3906 4.23933 15.3453L4.13529 15.466C4.21332 15.451 4.2751 15.4547 4.22308 15.5339L4.18732 15.5566C4.30437 15.5339 4.27509 15.6245 4.33361 15.6131L4.29785 15.6358L4.34338 15.6773L4.28811 15.7037C4.42792 15.7112 4.47994 15.7829 4.47344 15.8847L4.61647 15.7678C4.53519 16.0394 4.87009 15.8621 4.74979 16.145L4.71403 16.1714C5.19197 16.0394 4.60673 16.6392 5.07166 16.526C5.01314 16.5411 5.00338 16.5939 4.96762 16.6203C5.0554 16.6656 5.12693 16.7334 5.40979 16.5071C5.43905 16.5675 5.34803 16.6241 5.24399 16.7221C5.36754 16.6203 5.44882 16.6278 5.48458 16.6656L5.42606 16.6844L5.54636 16.7749L5.76419 16.5599C5.73818 16.6806 5.49108 16.8089 5.58537 16.8278L5.77719 16.6693C5.79669 16.79 5.53984 17.088 5.45206 17.2955C5.60812 17.7406 6.33966 17.6991 6.24212 18.329L6.11208 18.4724C5.91375 18.6685 6.47622 18.2838 6.2974 18.4724L6.4177 18.4233C6.38844 18.4686 6.36567 18.5252 6.30715 18.5516C6.3234 18.5931 6.35917 18.5629 6.43721 18.5327L6.33967 18.6874C6.33967 18.9213 6.6648 18.8119 6.72332 19.0005C6.59977 19.4229 7.07445 19.521 7.34431 19.5663C7.8255 19.521 7.3053 20.6262 7.84176 20.5357C7.82226 20.5734 7.90028 20.5282 7.91979 20.5055L8.08886 20.7696C8.08886 20.7696 8.30994 21.0713 8.62857 21.0412C8.95045 21.0148 9.35035 20.6413 9.76652 19.3626L9.81204 19.3211C9.80879 19.091 9.76651 18.9967 9.49666 19.1438C9.734 18.8496 9.44138 19.0156 9.49666 18.8986L9.51942 18.8798C9.26582 19.0231 9.55519 18.5516 9.32435 18.6761C9.34711 18.6572 9.41862 18.5818 9.43488 18.5931C9.3601 18.578 9.24956 18.5667 9.39261 18.4045C9.25606 18.3215 9.18778 18.0801 8.88541 18.2498L8.93094 18.2121C8.73261 18.3366 8.86267 18.1782 8.73912 18.2121C8.75538 18.1895 8.76512 18.1744 8.77163 18.1668C8.5733 18.2838 8.63508 18.0461 8.53429 18.0763L8.63182 17.9707L8.53103 17.8952L8.53754 17.9556C8.24818 18.2234 8.65457 17.7029 8.42048 17.8123C8.40423 17.7066 7.73447 18.2536 7.81575 18.0424C7.65643 18.1367 8.05309 17.8613 7.91328 17.9103C8.05959 17.7632 8.02384 17.8424 8.13113 17.7142C8.02384 17.733 8.22215 17.4841 8.07585 17.518L8.18965 17.4049C7.9198 17.5294 8.2319 17.1031 7.99131 17.2427C7.83525 17.2502 8.29695 16.8579 8.00758 16.9862L8.14088 16.8051C8.14088 16.7448 7.92954 16.9598 7.97506 16.8466C8.07585 16.7561 8.01734 16.7184 8.13113 16.6542C8.22217 16.4166 7.77673 16.6655 7.9588 16.2959C7.74422 16.4468 7.819 16.277 7.65644 16.3902C7.74097 16.311 7.58491 16.2506 7.819 16.1563C7.83851 16.1488 7.84175 16.1639 7.80924 16.1903L7.93279 16.096C8.10511 15.8282 7.72471 16.0733 7.7117 15.9715C7.68569 16.0281 7.71497 16.0469 7.62068 16.0998L7.59466 16.0205L7.70196 15.9489L7.69545 15.798L7.58166 15.9187C7.61418 15.8131 7.8125 15.6169 7.60117 15.715C7.48738 15.7753 7.46461 15.9036 7.39308 15.8847C7.43535 15.7489 7.50037 15.5415 7.48736 15.4245C7.35081 15.549 7.3443 15.5226 7.29878 15.5226L7.4191 15.417C7.19476 15.4698 7.66945 15.1605 7.47762 15.1869L7.56865 15.1228L7.29878 15.3114C7.00617 15.4321 7.52638 15.0587 7.13947 15.2435C7.18174 15.2623 6.87938 15.4811 6.90539 15.3944L7.0322 15.3076C6.99318 15.3076 6.93791 15.3378 6.95091 15.3001C7.02244 15.2624 7.12973 15.168 7.08746 15.1492L7.25003 15.0511L6.98993 15.1605C7.08747 15.0058 6.87613 15.0511 7.0322 14.8965C7.0322 14.8965 7.04845 14.7192 6.84687 14.8399C6.97692 14.772 6.98342 14.6739 7.12973 14.5872C6.98342 14.6626 6.82411 14.6588 6.94441 14.5155H6.96391C7.03544 14.2741 6.64528 14.44 6.75257 14.1911C6.60951 14.3042 6.65504 14.1835 6.47622 14.342C6.21937 14.357 6.73957 13.8403 6.13158 14.2212C6.06981 14.1873 6.23237 14.0553 6.24863 14.0062L6.28764 13.9987C6.1836 13.927 6.16085 13.9006 6.13484 13.8139C6.05681 13.8139 5.7772 14.0025 5.80971 13.8856C5.93001 13.8327 5.89423 13.8177 5.88123 13.7912C5.90724 13.795 5.94951 13.7724 6.00478 13.6894C5.96902 13.7083 5.943 13.7158 5.9235 13.7196C5.93325 13.712 5.93651 13.7082 5.94951 13.7007C5.88774 13.6818 5.85848 13.7158 5.85523 13.746C5.83898 13.7573 5.81621 13.7724 5.7902 13.7988C5.90725 13.6554 5.71541 13.6781 5.90074 13.5423C5.79019 13.4404 5.5431 13.4782 5.4163 13.4103C5.50733 13.3311 5.60812 13.3009 5.66014 13.3084L5.58537 13.2518C5.72518 13.1613 5.68941 13.2443 5.72843 13.2518C5.9105 13.0066 5.40655 13.2066 5.56261 12.9576L5.43906 13.0067L5.45531 12.9878C5.39679 13.0255 5.3025 13.0519 5.27649 13.0481C5.39354 12.9538 5.56261 12.8671 5.52685 12.818C5.62439 12.7011 5.4098 12.7313 5.31551 12.7162C5.30901 12.7615 5.23422 12.7916 5.18545 12.8067C5.16919 12.7803 5.28625 12.686 5.22123 12.7011L5.38705 12.5955C5.23424 12.7049 5.1822 12.6295 5.11068 12.6596C5.22772 12.5653 5.23748 12.637 5.33502 12.588C5.26999 12.4861 5.3025 12.5351 5.23423 12.4333C5.08142 12.4522 5.07817 12.5427 4.91886 12.603C4.86034 12.5691 4.72053 12.588 4.79206 12.4672L4.65225 12.5766C4.48969 12.5427 4.48318 12.471 4.60348 12.3126C3.82317 12.2862 3.37774 12.471 3.13389 12.6823C2.89004 12.8897 2.84779 13.1198 2.84779 13.1198C2.65272 13.6404 3.16642 13.5498 3.45578 13.8554L3.45902 13.8327Z" fill="#20BB65"/>
<path d="M15.5136 24.7183L15.4941 24.8013C15.5104 24.7711 15.5202 24.7371 15.5136 24.7183Z" fill="#20BB65"/>
<path d="M20.502 27.8831C20.502 27.8831 20.5088 27.8756 20.5157 27.8682C20.5088 27.8719 20.5054 27.8756 20.502 27.8831Z" fill="#20BB65"/>
<path d="M15.0187 27.6001C15.0187 27.6001 15.0091 27.607 15.0059 27.6104L15.0219 27.6001H15.0187Z" fill="#20BB65"/>
<path d="M14.0991 26.6686C14.317 26.9516 14.2129 27.325 14.5641 27.3967C14.6844 27.5174 14.8664 27.5476 15.016 27.6004C15.2111 27.3891 15.1916 27.7173 15.3736 27.5551L15.3281 27.7173C15.3899 27.6607 15.4452 27.6343 15.4321 27.7286L15.4094 27.7701C15.5037 27.6871 15.5134 27.7814 15.559 27.7399L15.5362 27.7814L15.5915 27.7965L15.5524 27.8493C15.6792 27.7776 15.7508 27.8154 15.7833 27.9097L15.8678 27.7324C15.8971 28.0153 16.1279 27.6833 16.1279 27.9964L16.1052 28.0379C16.4823 27.6682 16.1832 28.5094 16.5506 28.1662C16.5051 28.2077 16.5148 28.2642 16.4921 28.3057C16.5864 28.302 16.6741 28.3246 16.8432 27.9738C16.892 28.0115 16.8335 28.1096 16.7749 28.2491C16.8497 28.0945 16.9245 28.0606 16.9668 28.0756L16.9212 28.1247L17.061 28.1473L17.1781 27.8455C17.1976 27.9662 17.0253 28.2076 17.1163 28.1737L17.2301 27.9323C17.2919 28.0341 17.1683 28.4302 17.1651 28.6565C17.461 28.9734 18.1047 28.5811 18.2315 29.1997L18.1632 29.3921C18.0494 29.6637 18.4266 29.0488 18.3291 29.3016L18.4201 29.1997C18.4103 29.2525 18.4103 29.3166 18.3648 29.3657C18.3941 29.3959 18.4136 29.3544 18.4753 29.2865L18.4396 29.4751C18.5209 29.6863 18.7745 29.4298 18.8915 29.5769C18.9175 30.0183 19.3792 29.89 19.6426 29.8108C20.0717 29.5505 19.9384 30.8029 20.4001 30.4822C20.3936 30.5237 20.4521 30.452 20.4619 30.4181L20.696 30.5878C20.696 30.5878 20.9886 30.7727 21.278 30.6105C21.5673 30.452 21.8372 29.939 21.8274 28.5698L21.8567 28.5132C21.7819 28.2982 21.7104 28.2228 21.5023 28.4755C21.6323 28.102 21.408 28.3812 21.4243 28.2454L21.4405 28.2152C21.2487 28.4566 21.369 27.8946 21.1902 28.1058C21.2064 28.0794 21.2454 27.9776 21.2682 27.9813C21.1934 27.9964 21.0829 28.0379 21.1642 27.8229C21.0081 27.804 20.8618 27.6041 20.6375 27.8983L20.6667 27.8418C20.5237 28.0417 20.5887 27.8418 20.4879 27.9248C20.4976 27.8946 20.4977 27.8795 20.5042 27.8682C20.3579 28.0643 20.3351 27.8154 20.2506 27.887L20.3058 27.7437L20.1855 27.7173L20.2115 27.7701C20.036 28.1473 20.2343 27.4834 20.0522 27.6909C20.0035 27.6004 19.5678 28.4076 19.571 28.1737C19.4572 28.3321 19.7271 27.8984 19.6165 28.0077C19.7011 27.8078 19.6946 27.8946 19.7499 27.7286C19.6556 27.7927 19.7499 27.4759 19.6296 27.574L19.6946 27.4155C19.4865 27.6532 19.6263 27.1175 19.454 27.3589C19.3109 27.4382 19.6003 26.8648 19.376 27.1137L19.4345 26.8837C19.4117 26.8271 19.2947 27.1251 19.2979 26.9968C19.3597 26.8648 19.2914 26.861 19.3727 26.7479C19.3727 26.4876 19.0508 26.9251 19.0801 26.5027C18.937 26.7441 18.9435 26.5517 18.8363 26.7328C18.885 26.6196 18.7192 26.6385 18.898 26.4386C18.9143 26.4235 18.9208 26.431 18.9013 26.4763L18.9793 26.3292C19.0378 26.001 18.7777 26.4084 18.729 26.3216C18.729 26.3857 18.7615 26.3895 18.6932 26.48L18.6379 26.4197L18.7094 26.299L18.6477 26.1632L18.5892 26.3292C18.5794 26.2198 18.6867 25.9406 18.5306 26.1292C18.4493 26.2386 18.4786 26.3707 18.4038 26.3857C18.3908 26.2386 18.3713 26.0199 18.3128 25.9218C18.238 26.1028 18.2185 26.084 18.1795 26.1028L18.2478 25.9482C18.0624 26.1066 18.3778 25.5936 18.212 25.7068L18.2705 25.6049L18.095 25.9105C17.8739 26.1632 18.2055 25.5672 17.9226 25.9256C17.9682 25.9218 17.7763 26.2726 17.7666 26.1783L17.8478 26.0387C17.8088 26.0538 17.7731 26.1104 17.7731 26.0727C17.8251 26.001 17.8836 25.8652 17.8381 25.8652L17.9486 25.6955L17.7536 25.9256C17.7828 25.737 17.6073 25.8841 17.6885 25.6615C17.6885 25.6615 17.6333 25.4918 17.5 25.703C17.591 25.5747 17.5585 25.4842 17.656 25.3296C17.552 25.4691 17.4057 25.5484 17.4577 25.3597L17.474 25.3446C17.4415 25.0957 17.1553 25.4465 17.1553 25.1636C17.0708 25.3409 17.0643 25.2089 16.9635 25.4427C16.7424 25.5898 16.996 24.8543 16.6059 25.5144C16.5376 25.5144 16.6286 25.3107 16.6221 25.2579L16.6514 25.2315C16.5311 25.2239 16.4986 25.2126 16.4401 25.1485C16.3718 25.19 16.1995 25.5069 16.1767 25.3862C16.2645 25.273 16.2255 25.2805 16.2027 25.2617C16.2287 25.2541 16.258 25.2089 16.271 25.1033C16.245 25.141 16.2255 25.1598 16.2092 25.1749C16.2157 25.1636 16.2157 25.1561 16.2255 25.1447C16.1637 25.1636 16.1507 25.2051 16.1572 25.2353C16.1474 25.2541 16.1344 25.2805 16.1214 25.3183C16.1669 25.1259 16.0044 25.2504 16.1149 25.0316C15.9751 24.9976 15.7703 25.1636 15.6305 25.1787C15.6792 25.0618 15.754 24.9788 15.8061 24.9561L15.7183 24.9486C15.806 24.7902 15.8061 24.8845 15.8451 24.8694C15.9036 24.5525 15.5394 25.0052 15.5752 24.6996L15.4874 24.809L15.4939 24.7826C15.4582 24.8505 15.3866 24.9222 15.3606 24.9335C15.4224 24.7864 15.5362 24.6166 15.4842 24.5902C15.5199 24.4318 15.3444 24.5789 15.2533 24.6166C15.2663 24.6581 15.2143 24.7298 15.1786 24.7675C15.1525 24.7562 15.2176 24.6091 15.1655 24.6544L15.2663 24.4658C15.1785 24.6468 15.1005 24.6091 15.0485 24.677C15.1135 24.5299 15.1493 24.5865 15.2143 24.4884C15.1135 24.4356 15.1623 24.462 15.0615 24.4092C14.9347 24.511 14.9705 24.5902 14.8567 24.7336C14.7916 24.7336 14.6746 24.8316 14.6876 24.6845L14.6096 24.8581C14.4535 24.9222 14.4145 24.8618 14.4568 24.6544C13.7642 25.0768 13.4619 25.4993 13.3416 25.8199C13.218 26.1406 13.2765 26.3593 13.2765 26.3593C13.3221 26.9176 13.7285 26.5442 14.0991 26.6422V26.6686Z" fill="#20BB65"/>
<path d="M28.7998 31.7227V31.8094C28.8103 31.7717 28.8137 31.7415 28.7998 31.7227Z" fill="#20BB65"/>
<path d="M34.3105 33.5559C34.3105 33.5559 34.3174 33.5485 34.3209 33.541C34.314 33.5447 34.314 33.5522 34.3105 33.5559Z" fill="#20BB65"/>
<path d="M28.9263 34.6538C28.9263 34.6538 28.9195 34.665 28.916 34.6724L28.9298 34.6538H28.9263Z" fill="#20BB65"/>
<path d="M27.8568 34.02C28.1266 34.2275 28.1039 34.616 28.4517 34.5858C28.5916 34.6688 28.7704 34.6424 28.9264 34.6537C29.0695 34.3972 29.115 34.7179 29.2613 34.5104L29.2483 34.6839C29.2971 34.6122 29.3458 34.5707 29.3491 34.665L29.3361 34.7103C29.4109 34.6047 29.4369 34.6914 29.4726 34.6386L29.4596 34.6839H29.5149L29.4889 34.7443C29.5962 34.6424 29.671 34.6575 29.723 34.7443L29.7685 34.5481C29.853 34.8159 30.0091 34.4312 30.0676 34.7329L30.0546 34.7782C30.3472 34.3218 30.2172 35.2158 30.5098 34.7857C30.474 34.8386 30.4936 34.8876 30.4805 34.9366C30.5716 34.9065 30.6594 34.9064 30.7569 34.5217C30.8122 34.5443 30.7699 34.6575 30.7406 34.8084C30.7829 34.6386 30.8479 34.5858 30.8934 34.5896L30.8577 34.6462L30.9975 34.6311L31.0528 34.3067C31.095 34.4198 30.9715 34.699 31.0528 34.6424L31.1178 34.3784C31.1958 34.4613 31.1503 34.8763 31.1893 35.1026C31.5307 35.3365 32.0867 34.7933 32.3175 35.3704L32.285 35.5741C32.2232 35.8646 32.4801 35.1743 32.4313 35.4459L32.5028 35.3251C32.5028 35.3817 32.5126 35.4421 32.4768 35.5024C32.5126 35.5251 32.5223 35.4798 32.5711 35.4006V35.593C32.6817 35.7778 32.8865 35.4723 33.0231 35.5892C33.1206 36.0154 33.5465 35.7854 33.7904 35.6458C34.1675 35.295 34.2358 36.5511 34.6357 36.1399C34.6357 36.1852 34.6812 36.0984 34.6877 36.0645L34.9413 36.1814C34.9413 36.1814 35.2567 36.3021 35.5103 36.0833C35.7671 35.8646 35.959 35.3101 35.7379 33.9634L35.7574 33.9031C35.6501 33.7069 35.5656 33.6504 35.3997 33.9408C35.468 33.5447 35.2924 33.8654 35.2859 33.7296L35.2957 33.6994C35.1429 33.9747 35.1721 33.3976 35.0291 33.6428C35.0388 33.6126 35.0648 33.507 35.0844 33.5032C35.0128 33.5334 34.912 33.5975 34.9576 33.3674C34.8015 33.3825 34.6227 33.2203 34.4471 33.556L34.4666 33.4957C34.3593 33.7258 34.3918 33.5108 34.3041 33.6164C34.3073 33.5862 34.304 33.5674 34.3105 33.556C34.2 33.7824 34.135 33.541 34.0634 33.6315L34.096 33.4806H33.9724L34.0082 33.5259C33.8976 33.937 33.9822 33.2392 33.8359 33.4844C33.7708 33.4089 33.4815 34.2991 33.4457 34.069C33.3612 34.2501 33.553 33.7635 33.462 33.8955C33.5107 33.6805 33.5205 33.7673 33.5465 33.59C33.4652 33.6768 33.5042 33.341 33.4002 33.4655L33.436 33.2958C33.2734 33.5749 33.3157 33.0204 33.1889 33.2958C33.0621 33.4052 33.2441 32.7752 33.0686 33.0732L33.0848 32.8356C33.0523 32.7866 32.9905 33.1034 32.9678 32.9789C33.0035 32.8356 32.9353 32.8469 32.997 32.7187C32.945 32.4622 32.7109 32.9676 32.6654 32.5451C32.5679 32.813 32.5386 32.6243 32.4671 32.828C32.4931 32.7073 32.3338 32.7639 32.4736 32.5263C32.4866 32.5074 32.4963 32.515 32.4833 32.5602L32.5321 32.398C32.5321 32.0623 32.35 32.5225 32.285 32.4508C32.2948 32.515 32.3273 32.5074 32.2817 32.6168L32.2167 32.5715L32.2655 32.4358L32.1777 32.3188L32.1517 32.4961C32.1224 32.3905 32.1745 32.0925 32.0574 32.315C31.9956 32.4433 32.0509 32.564 31.9826 32.5979C31.9404 32.4584 31.8819 32.2471 31.8038 32.1642C31.7648 32.3603 31.742 32.3452 31.7063 32.3754L31.7453 32.2056C31.5925 32.4056 31.8038 31.8247 31.664 31.9793L31.703 31.8662L31.5892 32.2094C31.4202 32.5112 31.6315 31.8473 31.4234 32.2698C31.4689 32.2547 31.3486 32.6432 31.3194 32.5565L31.3714 32.398C31.3389 32.4244 31.3129 32.4886 31.3031 32.4508C31.3389 32.3678 31.3714 32.217 31.3259 32.232L31.4006 32.0397L31.2544 32.3113C31.2446 32.1189 31.1015 32.3075 31.1405 32.0699C31.1405 32.0699 31.0528 31.919 30.9617 32.1566C31.0235 32.0095 30.9747 31.9303 31.0398 31.753C30.965 31.919 30.8382 32.0321 30.8512 31.8322L30.8642 31.8134C30.7829 31.5757 30.5716 31.9944 30.513 31.7228C30.4675 31.919 30.4318 31.7907 30.383 32.0434C30.1944 32.2434 30.2952 31.4625 30.0449 32.2094C29.9766 32.232 30.0254 32.0057 30.0091 31.9567L30.0319 31.9227C29.9116 31.9491 29.8791 31.9454 29.8075 31.9001C29.749 31.9605 29.6482 32.315 29.5994 32.2019C29.6612 32.0699 29.6254 32.0849 29.5994 32.0736C29.6222 32.0585 29.6417 32.0095 29.6319 31.9001C29.6157 31.9416 29.5994 31.968 29.5864 31.9869C29.5864 31.9756 29.5897 31.968 29.5962 31.9529C29.5409 31.9869 29.5344 32.0321 29.5507 32.0585C29.5442 32.0812 29.5377 32.1076 29.5344 32.1491C29.5377 31.9492 29.4044 32.1151 29.4661 31.8699C29.3198 31.8775 29.1605 32.0925 29.024 32.1453C29.0467 32.017 29.102 31.9152 29.1475 31.8775L29.0597 31.8926C29.1118 31.7153 29.1312 31.8058 29.167 31.7794C29.1573 31.455 28.9004 31.9982 28.8646 31.6926L28.8029 31.8247V31.7983C28.7834 31.8737 28.7313 31.9642 28.7086 31.9831C28.7379 31.8209 28.8094 31.6248 28.7541 31.6134C28.7541 31.4475 28.6143 31.6436 28.5363 31.7077C28.559 31.7455 28.5233 31.8284 28.4972 31.8775C28.468 31.8737 28.4973 31.7115 28.4582 31.7719L28.5168 31.5606C28.4712 31.7606 28.3867 31.7454 28.3542 31.8284C28.3835 31.6662 28.4322 31.7115 28.4745 31.5946C28.3639 31.5719 28.4192 31.5833 28.3087 31.5644C28.2079 31.7002 28.2632 31.7681 28.1819 31.9416C28.1201 31.9642 28.0291 32.0887 28.0063 31.9416L27.9705 32.134C27.834 32.2434 27.7852 32.1981 27.7755 31.9831C27.2032 32.6017 27.0114 33.0996 26.9659 33.4504C26.9204 33.7975 27.0212 33.9936 27.0212 33.9936C27.1837 34.5142 27.4893 34.0313 27.8632 34.0163L27.8568 34.02Z" fill="#20BB65"/>
<path d="M43.084 35.8491L43.0944 35.9359C43.1014 35.8982 43.1014 35.8642 43.084 35.8491Z" fill="#20BB65"/>
<path d="M48.7705 36.9469C48.7705 36.9469 48.7739 36.9357 48.7774 36.9282C48.7739 36.9357 48.7705 36.9394 48.7705 36.9469Z" fill="#20BB65"/>
<path d="M43.5308 38.7388C43.5308 38.7388 43.524 38.75 43.5205 38.7574L43.5308 38.7388Z" fill="#20BB65"/>
<path d="M42.405 38.271C42.6912 38.4332 42.7139 38.8255 43.052 38.7425C43.1983 38.8067 43.3707 38.7539 43.5267 38.7425C43.6438 38.4672 43.7218 38.7803 43.8421 38.5502L43.8486 38.7237C43.8909 38.6445 43.9331 38.5954 43.9461 38.6935L43.9364 38.7425C43.9982 38.6256 44.0339 38.7124 44.0664 38.652L44.0567 38.7011L44.112 38.6897L44.0925 38.7576C44.1867 38.6407 44.2648 38.6482 44.3233 38.7199L44.3493 38.52C44.4598 38.7727 44.5736 38.3691 44.6647 38.6596L44.6549 38.7086C44.8988 38.2145 44.8598 39.1198 45.1036 38.652C45.0743 38.7086 45.0971 38.7576 45.0873 38.8067C45.1751 38.7652 45.2629 38.7501 45.3214 38.3578C45.3767 38.3729 45.3507 38.4898 45.3344 38.6445C45.3605 38.4709 45.419 38.4106 45.4645 38.4068L45.4352 38.471L45.5718 38.437L45.5945 38.1051C45.6466 38.2107 45.5523 38.5049 45.6303 38.4408L45.6693 38.1692C45.7539 38.2408 45.7474 38.6595 45.8091 38.8783C46.1668 39.0669 46.6675 38.4559 46.9503 38.999L46.9373 39.2065C46.9016 39.5045 47.0966 38.784 47.0706 39.0632L47.1291 38.9349C47.1324 38.9915 47.1487 39.0518 47.1194 39.116C47.1552 39.1348 47.1617 39.0858 47.2039 39.0028L47.2169 39.1952C47.347 39.3649 47.5193 39.033 47.6656 39.1348C47.8022 39.546 48.2021 39.2631 48.4329 39.1009C48.7775 38.7086 48.9531 39.9496 49.314 39.4932C49.3173 39.5384 49.3563 39.4479 49.3595 39.414L49.6229 39.5007C49.6229 39.5007 50.9039 39.8364 50.2341 37.2035L50.2504 37.1394C50.1236 36.9584 50.039 36.9055 49.896 37.2149C49.9318 36.8112 49.7822 37.1545 49.766 37.0187L49.7724 36.9885C49.6456 37.279 49.6229 36.7019 49.5026 36.9621C49.5091 36.932 49.5253 36.8226 49.5481 36.8188C49.4798 36.8565 49.3823 36.932 49.4083 36.6981C49.2522 36.732 49.0604 36.5887 48.9141 36.9433L48.9304 36.8791C48.8426 37.1205 48.8556 36.9055 48.7775 37.0187C48.7775 36.9885 48.7775 36.9697 48.7775 36.9584C48.6865 37.196 48.5987 36.9659 48.537 37.064L48.5532 36.9093L48.4297 36.9244L48.4687 36.9659C48.3971 37.3884 48.4167 36.683 48.2931 36.9433C48.2216 36.8754 48.0103 37.7958 47.955 37.5732C47.8867 37.7656 48.033 37.2563 47.955 37.3997C47.9842 37.1771 48.0005 37.2677 48.0103 37.0866C47.9387 37.1809 47.9452 36.8414 47.8542 36.981L47.8737 36.8075C47.7371 37.1055 47.7306 36.5472 47.6266 36.8376C47.5096 36.9621 47.6331 36.3133 47.4868 36.634L47.4803 36.3925C47.4413 36.3473 47.4088 36.6717 47.3795 36.551C47.4023 36.4039 47.3372 36.4227 47.3828 36.2869C47.308 36.038 47.1194 36.5698 47.0316 36.1549C46.9601 36.434 46.9146 36.2492 46.8593 36.4604C46.8723 36.336 46.7195 36.4114 46.8365 36.1587C46.8463 36.136 46.8593 36.1436 46.8495 36.1926L46.882 36.0266C46.8463 35.6909 46.7097 36.1738 46.6382 36.1096C46.6545 36.17 46.687 36.1624 46.6512 36.2718L46.5797 36.2341L46.6155 36.0945L46.5179 35.9889L46.5082 36.17C46.4659 36.0681 46.4919 35.7664 46.3944 36.004C46.3456 36.1398 46.4106 36.253 46.3456 36.2945C46.2903 36.1587 46.209 35.9587 46.1245 35.8871C46.105 36.087 46.079 36.0757 46.0497 36.1096L46.0725 35.9361C45.9392 36.1549 46.092 35.5514 45.9684 35.7211L45.9945 35.6042L45.9164 35.9587C45.7799 36.2831 45.9229 35.5929 45.7571 36.038C45.7994 36.0153 45.7181 36.4189 45.6823 36.336L45.7181 36.1738C45.6856 36.2039 45.6661 36.2718 45.6563 36.2341C45.6856 36.1474 45.7018 35.9927 45.6563 36.0153L45.7116 35.8116L45.5945 36.1021C45.5653 35.9135 45.4417 36.1172 45.4547 35.8796C45.4547 35.8796 45.3507 35.74 45.2857 35.9927C45.3344 35.8381 45.2759 35.7626 45.3247 35.5815C45.2662 35.7551 45.1524 35.8833 45.1426 35.6834L45.1524 35.6645C45.0451 35.442 44.8793 35.8833 44.7915 35.623C44.7655 35.8229 44.7199 35.7022 44.6939 35.9587C44.5281 36.1851 44.5444 35.3929 44.3753 36.17C44.3103 36.2002 44.3363 35.9701 44.3135 35.9248L44.333 35.8871C44.216 35.9286 44.1835 35.9286 44.1055 35.8946C44.0534 35.9625 43.9884 36.3284 43.9299 36.2228C43.9754 36.0832 43.9429 36.1021 43.9169 36.0983C43.9364 36.0795 43.9527 36.0267 43.9299 35.921C43.9169 35.9663 43.9071 35.9927 43.8941 36.0116C43.8941 36.0002 43.8941 35.9927 43.8974 35.9739C43.8453 36.0153 43.8454 36.0644 43.8616 36.087C43.8584 36.1096 43.8551 36.136 43.8551 36.1813C43.8388 35.9852 43.7218 36.1662 43.7576 35.9173C43.6145 35.9474 43.4747 36.1851 43.3479 36.2568C43.3544 36.1247 43.3999 36.0191 43.4422 35.9739L43.3544 36.004C43.3837 35.8192 43.4162 35.906 43.4487 35.8758C43.4032 35.5551 43.2049 36.1323 43.1398 35.8343L43.0943 35.9739V35.9474C43.0781 36.0267 43.0358 36.1247 43.0163 36.1474C43.026 35.9814 43.0781 35.7777 43.0195 35.7739C43 35.608 42.883 35.823 42.8114 35.8984C42.8375 35.9324 42.8115 36.0191 42.7919 36.0719C42.7627 36.0719 42.7724 35.906 42.7399 35.9701L42.7724 35.7513C42.7497 35.9588 42.6651 35.955 42.6391 36.0417C42.6489 35.8758 42.7042 35.9135 42.7302 35.7928C42.6164 35.789 42.6749 35.7928 42.5611 35.7852C42.4766 35.9361 42.5383 35.9927 42.4798 36.1775C42.4213 36.2077 42.3433 36.3473 42.3075 36.2039L42.2945 36.4001C42.1709 36.5283 42.1157 36.4906 42.0832 36.2831C41.0883 37.6864 41.5695 38.388 41.5695 38.388C41.7873 38.8783 42.0344 38.354 42.4018 38.2786L42.405 38.271Z" fill="#20BB65"/>
<path d="M57.7227 38.354L57.7356 38.437C57.7389 38.3993 57.7357 38.3653 57.7227 38.354Z" fill="#20BB65"/>
<path d="M63.4736 39.0479C63.4736 39.0479 63.4771 39.0368 63.4805 39.0293C63.4771 39.0368 63.4736 39.0405 63.4736 39.0479Z" fill="#20BB65"/>
<path d="M58.334 41.1982C58.334 41.1982 58.3306 41.2094 58.3271 41.2169L58.3374 41.1982H58.334Z" fill="#20BB65"/>
<path d="M57.1892 40.8287C57.4851 40.9645 57.5273 41.353 57.8589 41.2399C58.0085 41.2889 58.1776 41.221 58.3304 41.1946C58.4312 40.9079 58.5255 41.2134 58.6328 40.9796L58.649 41.1493C58.6848 41.0701 58.7238 41.0173 58.7465 41.1078L58.74 41.1569C58.7953 41.0362 58.8376 41.1154 58.8636 41.055L58.8571 41.1041L58.9124 41.089L58.8961 41.1569C58.9839 41.0324 59.0619 41.0324 59.1237 41.1041L59.1367 40.9004C59.2603 41.1456 59.3546 40.7306 59.4586 41.0173L59.4521 41.0664C59.6699 40.5533 59.6764 41.4624 59.8975 40.9758C59.8715 41.0362 59.8975 41.0814 59.891 41.1305C59.9755 41.0814 60.0601 41.0626 60.0991 40.6665C60.1544 40.6778 60.1348 40.7985 60.1251 40.9494C60.1413 40.7759 60.1966 40.708 60.2422 40.7042L60.2161 40.7683L60.3494 40.7269L60.356 40.3949C60.4145 40.4968 60.3364 40.7985 60.4079 40.7269L60.434 40.4553C60.5218 40.5194 60.538 40.9381 60.6095 41.1531C60.9769 41.3153 61.4451 40.674 61.7507 41.1946V41.402C61.728 41.7 61.884 40.972 61.8743 41.2512L61.9263 41.1191C61.9328 41.1757 61.9523 41.2361 61.9263 41.3002C61.9621 41.3153 61.9686 41.2663 62.0043 41.1795L62.0271 41.3719C62.1637 41.5341 62.323 41.1908 62.4725 41.2851C62.6254 41.6887 63.0122 41.3832 63.2333 41.2059C63.5585 40.7948 63.7893 42.0282 64.1274 41.5529C64.1339 41.5982 64.1664 41.5039 64.1697 41.4699L64.433 41.5454C64.433 41.5454 65.7238 41.8245 64.9468 39.2218L64.9597 39.1577C64.8264 38.9804 64.7387 38.9351 64.6086 39.2482C64.6281 38.8446 64.4916 39.1916 64.4688 39.0558L64.4753 39.0219C64.3583 39.3199 64.3128 38.7427 64.2055 39.0068C64.212 38.9766 64.2217 38.8634 64.2445 38.8597C64.1762 38.9012 64.0852 38.9804 64.0982 38.7465C63.9421 38.788 63.7438 38.656 63.617 39.0143L63.63 38.9502C63.5519 39.1954 63.5552 38.9804 63.4837 39.1011C63.4837 39.0709 63.4804 39.0521 63.4837 39.0408C63.4024 39.2822 63.3081 39.0596 63.2496 39.1577L63.2593 39.003L63.139 39.0256L63.1813 39.0634C63.1293 39.4896 63.1163 38.7842 63.0058 39.0521C62.931 38.9879 62.7619 39.9196 62.6969 39.7009C62.6383 39.897 62.7619 39.3802 62.6871 39.5273C62.7066 39.3048 62.7261 39.3915 62.7294 39.2105C62.6611 39.3085 62.6546 38.9728 62.5668 39.1124L62.5798 38.9389C62.4563 39.2444 62.4238 38.6899 62.3327 38.9842C62.2222 39.1162 62.3132 38.4598 62.1832 38.788L62.1669 38.5504C62.1279 38.5089 62.1084 38.8333 62.0726 38.7126C62.0889 38.5654 62.0239 38.5881 62.0629 38.4485C61.9751 38.2033 61.8125 38.7503 61.7052 38.3391C61.6467 38.622 61.5914 38.441 61.5491 38.656C61.5556 38.5315 61.4061 38.6183 61.5134 38.3542C61.5231 38.3316 61.5329 38.3391 61.5297 38.3882L61.5557 38.2184C61.5036 37.8865 61.3898 38.3768 61.3151 38.3165C61.3346 38.3768 61.3671 38.3655 61.3346 38.4787L61.263 38.4448L61.2923 38.3014L61.1883 38.2033V38.3844C61.1395 38.2863 61.1492 37.9808 61.0647 38.226C61.0224 38.3618 61.094 38.4712 61.0322 38.5202C60.9704 38.3882 60.8794 38.192 60.7916 38.1279C60.7819 38.3278 60.7559 38.3203 60.7266 38.3542L60.7396 38.1807C60.6193 38.4108 60.7396 37.796 60.6225 37.9732L60.6421 37.8525L60.5803 38.2109C60.46 38.5428 60.5673 37.845 60.4242 38.3014C60.4665 38.275 60.4047 38.6862 60.3657 38.6032L60.395 38.4372C60.3657 38.4712 60.3494 38.539 60.3364 38.5013C60.3624 38.4146 60.3689 38.2599 60.3267 38.2826L60.3722 38.0751L60.2682 38.3731C60.2291 38.1883 60.1154 38.3995 60.1154 38.1619C60.1154 38.1619 60.0048 38.0298 59.9528 38.2863C59.9918 38.1279 59.93 38.06 59.969 37.8714C59.9203 38.0487 59.813 38.1845 59.7935 37.9883L59.8032 37.9657C59.6829 37.7507 59.5399 38.2071 59.4391 37.9506C59.4261 38.1543 59.3708 38.0336 59.361 38.2939C59.2082 38.5315 59.179 37.7431 59.0522 38.5315C58.9904 38.5655 59.0002 38.3354 58.9742 38.2901L58.9936 38.2486C58.8766 38.3014 58.8441 38.3052 58.7661 38.275C58.7173 38.3467 58.675 38.7163 58.61 38.6183C58.649 38.4749 58.6165 38.4976 58.5872 38.4938C58.6067 38.4712 58.6165 38.4183 58.5905 38.3165C58.5807 38.3618 58.571 38.3882 58.5612 38.4108C58.5612 38.3995 58.5612 38.3919 58.5612 38.3731C58.5092 38.4184 58.5125 38.4674 58.532 38.49C58.5287 38.5127 58.5287 38.5428 58.532 38.5843C58.5027 38.3882 58.3987 38.5843 58.4182 38.3278C58.2751 38.3693 58.1516 38.6183 58.028 38.7013C58.028 38.5692 58.067 38.4598 58.106 38.4108L58.0215 38.4485C58.041 38.2637 58.08 38.3467 58.106 38.3127C58.041 37.9996 57.8785 38.5881 57.7939 38.2976L57.7549 38.441V38.4146C57.7419 38.4938 57.7061 38.5956 57.6866 38.6183C57.6866 38.4523 57.7257 38.2448 57.6704 38.2448C57.6411 38.0826 57.5371 38.309 57.4688 38.3882C57.4981 38.4183 57.4786 38.5089 57.459 38.5655C57.4298 38.5655 57.4298 38.4033 57.4038 38.4712L57.4233 38.2524C57.4135 38.4598 57.329 38.4674 57.3095 38.5541C57.3095 38.3882 57.368 38.4183 57.3875 38.2976C57.2737 38.3052 57.329 38.2977 57.2152 38.309C57.1372 38.4674 57.2054 38.5164 57.1567 38.705C57.0981 38.7428 57.0331 38.8861 56.9844 38.7465V38.9427C56.8673 39.0822 56.812 39.0521 56.7665 38.8446C55.8627 40.3383 56.3861 40.9909 56.3861 40.9909C56.6332 41.4586 56.8445 40.9117 57.2054 40.8023L57.1892 40.8287Z" fill="#20BB65"/>
<path d="M72.4834 40.0742L72.4997 40.1572C72.4997 40.1195 72.4997 40.0855 72.4834 40.0742Z" fill="#20BB65"/>
<path d="M78.2646 40.6549C78.2646 40.6549 78.2681 40.6437 78.2715 40.6362C78.2681 40.6437 78.2646 40.6474 78.2646 40.6549Z" fill="#20BB65"/>
<path d="M73.1573 42.9067C73.1573 42.9067 73.1538 42.9179 73.1504 42.9254L73.1607 42.9067H73.1573Z" fill="#20BB65"/>
<path d="M72.0117 42.5638C72.3076 42.6958 72.3596 43.0806 72.688 42.9598C72.8375 43.0051 73.0034 42.9372 73.1562 42.9071C73.2505 42.6204 73.3512 42.9221 73.452 42.6845L73.4716 42.8542C73.5073 42.7713 73.5463 42.7184 73.5659 42.8128L73.5593 42.8618C73.6114 42.7411 73.6536 42.8203 73.6796 42.7599L73.6731 42.809L73.7252 42.7939L73.7121 42.8618C73.7967 42.7335 73.8747 42.7335 73.9365 42.8014L73.9462 42.5977C74.073 42.8392 74.1576 42.4242 74.2681 42.7071L74.2616 42.7562C74.4697 42.2394 74.4925 43.1485 74.7038 42.6581C74.6778 42.7184 74.7038 42.7637 74.6973 42.8128C74.7786 42.7637 74.8664 42.7411 74.8989 42.345C74.9541 42.3563 74.9346 42.4732 74.9314 42.6279C74.9444 42.4544 74.9996 42.3865 75.0452 42.379L75.0192 42.4431L75.1525 42.3978V42.0659C75.2143 42.1677 75.1395 42.4695 75.211 42.3978L75.2305 42.1262C75.3183 42.1904 75.341 42.609 75.4158 42.8203C75.7832 42.9749 76.2416 42.3224 76.5538 42.8391V43.0466C76.5343 43.3484 76.6838 42.6128 76.6773 42.892L76.7293 42.7599C76.7358 42.8127 76.7554 42.8731 76.7293 42.941C76.7651 42.9561 76.7716 42.907 76.8041 42.8203L76.8301 43.0089C76.9667 43.1673 77.1227 42.824 77.2723 42.9108C77.4283 43.3106 77.812 42.9976 78.0299 42.8165C78.3517 42.3978 78.5858 43.6275 78.9207 43.1447C78.9272 43.1862 78.9597 43.0956 78.963 43.0617L79.2263 43.1334C79.2263 43.1334 80.5171 43.3861 79.7335 40.8022L79.7465 40.7381C79.6132 40.5646 79.5222 40.5193 79.3954 40.8362C79.4116 40.4326 79.2784 40.7834 79.2556 40.6476L79.2621 40.6136C79.1483 40.9154 79.0995 40.3383 78.989 40.6061C78.9955 40.5759 79.0052 40.4627 79.0247 40.459C78.9565 40.5042 78.8654 40.5834 78.8784 40.3496C78.7224 40.3948 78.5208 40.2666 78.394 40.6287L78.407 40.5646C78.3322 40.8098 78.3322 40.5948 78.2607 40.7155C78.2607 40.6853 78.2574 40.6702 78.2607 40.6551C78.1794 40.8965 78.0819 40.674 78.0266 40.7758L78.0364 40.6212L77.9128 40.6438L77.9551 40.6815C77.9063 41.1078 77.8868 40.4024 77.7795 40.6702C77.7015 40.6061 77.5421 41.5416 77.4771 41.3228C77.4218 41.5189 77.5389 41.0021 77.4674 41.1493C77.4836 40.9267 77.5064 41.0135 77.5064 40.8324C77.4381 40.9305 77.4284 40.5948 77.3438 40.7381L77.3536 40.5646C77.2333 40.8701 77.1943 40.3156 77.1065 40.6136C76.996 40.7457 77.0837 40.0931 76.9537 40.4212L76.9342 40.1836C76.8952 40.1421 76.8789 40.4665 76.8399 40.3496C76.8561 40.2025 76.7878 40.2251 76.8269 40.0893C76.7358 39.8479 76.5798 40.3948 76.466 39.9875C76.4107 40.2704 76.3522 40.0931 76.3132 40.3081C76.3197 40.1836 76.1701 40.2741 76.2742 40.0101C76.2839 39.9875 76.2937 39.995 76.2904 40.044L76.3132 39.8743C76.2579 39.5424 76.1506 40.0365 76.0726 39.9761C76.0921 40.0365 76.1246 40.0252 76.0953 40.1383L76.0205 40.1082L76.0466 39.9648L75.9425 39.8705V40.0516C75.897 39.9535 75.9003 39.648 75.819 39.8969C75.78 40.0365 75.8515 40.1421 75.7897 40.1912C75.7247 40.0629 75.6304 39.8668 75.5426 39.8064C75.5361 40.0063 75.5101 39.9988 75.4809 40.0365L75.4906 39.863C75.3703 40.0931 75.4841 39.4782 75.3703 39.6593L75.3898 39.5386L75.3345 39.9007C75.2175 40.2364 75.315 39.5348 75.1785 39.995C75.2207 39.9686 75.1655 40.3798 75.1232 40.3005L75.1492 40.1346C75.12 40.1685 75.1037 40.2364 75.0907 40.1987C75.1134 40.1082 75.1199 39.9573 75.0777 39.9799L75.1199 39.7724L75.0224 40.0742C74.9802 39.8894 74.8696 40.1044 74.8664 39.8667C74.8664 39.8667 74.7526 39.7385 74.7038 39.995C74.7428 39.8366 74.6778 39.7687 74.7135 39.5801C74.668 39.7574 74.5607 39.8969 74.538 39.7008L74.5477 39.6781C74.4242 39.4669 74.2876 39.9233 74.1836 39.6706C74.1738 39.8743 74.1153 39.7574 74.112 40.0176C73.9625 40.259 73.917 39.4669 73.8064 40.2591C73.7447 40.2968 73.7512 40.0667 73.7252 40.0214L73.7414 39.9799C73.6276 40.0327 73.5919 40.0365 73.5138 40.0101C73.4683 40.0818 73.4326 40.4514 73.3643 40.3571C73.4 40.2138 73.3643 40.2364 73.3415 40.2326C73.361 40.21 73.3708 40.1572 73.3415 40.0553C73.3317 40.1006 73.322 40.127 73.3122 40.1496C73.3122 40.1383 73.3122 40.127 73.3122 40.1119C73.2635 40.161 73.2667 40.2062 73.2862 40.2289C73.2862 40.2515 73.283 40.2817 73.2862 40.3232C73.2537 40.127 73.1529 40.3232 73.1659 40.0704C73.0229 40.1157 72.9058 40.3647 72.7823 40.4514C72.7823 40.3194 72.8148 40.2062 72.8538 40.161L72.7693 40.1987C72.7855 40.0101 72.8245 40.0968 72.8538 40.0629C72.7823 39.7498 72.6295 40.342 72.5384 40.0553L72.5027 40.2025V40.1761C72.4929 40.2553 72.4571 40.3571 72.4409 40.3835C72.4376 40.2176 72.4702 40.0063 72.4149 40.0101C72.3824 39.8479 72.2816 40.0742 72.2166 40.1572C72.2458 40.1874 72.2296 40.2779 72.2101 40.3345C72.1808 40.3345 72.1775 40.1723 72.1515 40.2402L72.1645 40.0214C72.158 40.2289 72.0735 40.2364 72.0573 40.3269C72.054 40.161 72.1125 40.1912 72.1288 40.0704C72.015 40.078 72.0702 40.0742 71.9564 40.0818C71.8849 40.2402 71.9499 40.2892 71.9077 40.4816C71.8524 40.5193 71.7874 40.6664 71.7386 40.5269V40.723C71.6313 40.8626 71.5728 40.8362 71.5208 40.6287C70.6559 42.1413 71.1957 42.7863 71.1957 42.7863C71.4525 43.2503 71.6476 42.6958 72.0052 42.5789L72.0117 42.5638Z" fill="#20BB65"/>
<path d="M87.3096 41.813L87.3225 41.896C87.3258 41.8582 87.3226 41.8243 87.3096 41.813Z" fill="#20BB65"/>
<path d="M93.1104 42.9856C93.1104 42.9856 93.1172 42.9782 93.1207 42.9707C93.1138 42.9744 93.1138 42.9819 93.1104 42.9856Z" fill="#20BB65"/>
<path d="M87.8599 44.6758C87.8599 44.6758 87.8531 44.687 87.8496 44.6944L87.8599 44.6758Z" fill="#20BB65"/>
<path d="M86.744 44.2722C87.0333 44.4155 87.0691 44.8041 87.3942 44.7022C87.5373 44.755 87.7064 44.6947 87.8559 44.6758C87.96 44.3929 88.0445 44.7022 88.1583 44.4721L88.168 44.6419C88.207 44.5626 88.2461 44.5098 88.2623 44.6042L88.2558 44.6532C88.3143 44.5325 88.3501 44.6192 88.3794 44.5589L88.3729 44.6079L88.4249 44.5966L88.4086 44.6645C88.4997 44.5438 88.5745 44.5476 88.633 44.623L88.6557 44.4193C88.7663 44.6683 88.8736 44.2609 88.9646 44.5513L88.9549 44.6004C89.1889 44.1025 89.1564 45.0077 89.3938 44.5362C89.3645 44.5966 89.3873 44.6419 89.3808 44.6909C89.4653 44.6494 89.5498 44.6343 89.6084 44.2382C89.6636 44.2533 89.6344 44.3703 89.6214 44.5249C89.6474 44.3514 89.7059 44.2911 89.7514 44.2873L89.7221 44.3514L89.8555 44.3175L89.8782 43.9855C89.9302 44.0911 89.836 44.3854 89.9107 44.3212L89.9498 44.0496C90.0343 44.1213 90.0245 44.54 90.083 44.7588C90.4277 44.9474 90.9316 44.3476 91.1885 44.8984L91.169 45.102C91.1235 45.4 91.338 44.6871 91.3023 44.9625L91.3641 44.838C91.3641 44.8946 91.3803 44.9549 91.3478 45.0153C91.3803 45.0342 91.3901 44.9889 91.4323 44.9059L91.4388 45.0983C91.5526 45.2756 91.7412 44.9512 91.8745 45.0606C91.9818 45.4755 92.3785 45.2228 92.6125 45.0832C92.9799 44.7248 93.0287 45.9772 93.4091 45.5698C93.4091 45.6151 93.4546 45.5283 93.4611 45.4944L93.6952 45.6188C93.6952 45.6188 93.9813 45.7471 94.2382 45.5509C94.4885 45.3472 94.7584 44.8267 94.5958 43.4537L94.6186 43.3933C94.5113 43.1858 94.4235 43.1217 94.2414 43.4009C94.3227 43.0086 94.1309 43.3179 94.1277 43.1821L94.1374 43.1519C93.9749 43.4197 94.0106 42.8426 93.8578 43.084C93.8675 43.0538 93.8968 42.9482 93.9163 42.9482C93.8415 42.9784 93.7342 43.035 93.783 42.8086C93.6172 42.82 93.4254 42.654 93.2498 42.9859L93.2693 42.9256C93.162 43.1557 93.1913 42.9407 93.1002 43.0463C93.1002 43.0161 93.1002 42.9972 93.1067 42.9859C92.9962 43.2122 92.9247 42.9746 92.8531 43.0651L92.8824 42.9142H92.7556L92.7946 42.9633C92.6938 43.3782 92.7556 42.6766 92.6158 42.9218C92.5443 42.8464 92.2809 43.7479 92.2386 43.5215C92.1606 43.7064 92.3362 43.2123 92.2451 43.348C92.2842 43.1293 92.3004 43.2198 92.3167 43.0387C92.2386 43.1255 92.2614 42.7898 92.1639 42.918L92.1931 42.7483C92.0403 43.035 92.0566 42.4805 91.9363 42.7634C91.8127 42.8803 91.9623 42.2391 91.7997 42.5484V42.307C91.764 42.2579 91.7185 42.5823 91.6892 42.4578C91.7185 42.3145 91.6469 42.3258 91.7022 42.1938C91.6306 41.9411 91.4226 42.4654 91.3445 42.0467C91.2665 42.322 91.221 42.1372 91.1625 42.3447C91.1787 42.2202 91.0194 42.2919 91.1462 42.0429C91.156 42.024 91.169 42.0278 91.1592 42.0769L91.1982 41.9109C91.1657 41.5752 91.0194 42.0542 90.9446 41.9863C90.9609 42.0467 90.9934 42.0391 90.9544 42.1523L90.8829 42.1146L90.9219 41.975L90.8211 41.8694L90.8081 42.0467C90.7658 41.9448 90.7951 41.6431 90.691 41.8769C90.6423 42.009 90.7073 42.1259 90.639 42.1674C90.5838 42.0316 90.4992 41.8279 90.4147 41.7562C90.3919 41.9561 90.3692 41.9448 90.3366 41.9788L90.3594 41.8053C90.2228 42.024 90.3789 41.4205 90.2521 41.5902L90.2781 41.4733L90.1968 41.8279C90.057 42.1523 90.2001 41.462 90.031 41.9071C90.0733 41.8845 89.9952 42.2919 89.9562 42.2051L89.992 42.0429C89.9595 42.0731 89.94 42.141 89.927 42.1033C89.9562 42.0165 89.9692 41.8618 89.927 41.8845L89.9823 41.6808L89.862 41.9712C89.8295 41.7826 89.7059 41.9901 89.7156 41.7487C89.7156 41.7487 89.6084 41.6091 89.5434 41.8618C89.5921 41.7072 89.5303 41.6317 89.5759 41.4507C89.5173 41.6242 89.4035 41.7562 89.3905 41.5563L89.4003 41.5375C89.2865 41.3149 89.1239 41.7638 89.0296 41.5035C89.0101 41.7034 88.9581 41.5827 88.9386 41.843C88.776 42.0731 88.7695 41.2809 88.62 42.0618C88.5549 42.0957 88.5744 41.8656 88.5484 41.8166L88.568 41.7789C88.4477 41.8241 88.4151 41.8279 88.3371 41.794C88.2851 41.8656 88.2331 42.2315 88.1713 42.1297C88.2135 41.9863 88.1811 42.009 88.1518 42.0052C88.1713 41.9863 88.1843 41.9335 88.1616 41.8279C88.1518 41.8732 88.1388 41.8996 88.129 41.9222C88.129 41.9109 88.129 41.9033 88.1323 41.8845C88.0802 41.9297 88.0835 41.975 88.0998 41.9976C88.0965 42.0203 88.0933 42.0504 88.0965 42.0919C88.0737 41.8958 87.9632 42.0806 87.9892 41.8317C87.8429 41.8694 87.7129 42.1108 87.5893 42.19C87.5893 42.058 87.6316 41.9486 87.6706 41.9033L87.5828 41.9373C87.6056 41.7525 87.6413 41.8392 87.6706 41.8053C87.6088 41.4884 87.4365 42.0731 87.3552 41.7789L87.3129 41.9222V41.8958C87.2999 41.975 87.2609 42.0769 87.2414 42.0995C87.2414 41.9335 87.287 41.7261 87.2284 41.7261C87.2024 41.5639 87.0919 41.7864 87.0236 41.8618C87.0529 41.8958 87.0301 41.9825 87.0106 42.0391C86.9813 42.0391 86.9846 41.8769 86.9553 41.941L86.9781 41.7223C86.9651 41.9297 86.8805 41.9335 86.8578 42.0203C86.8578 41.8543 86.9163 41.8883 86.9391 41.7675C86.8253 41.7675 86.8805 41.7676 86.7667 41.7713C86.6887 41.926 86.7537 41.9788 86.7049 42.1674C86.6464 42.2013 86.5782 42.3484 86.5327 42.2051V42.4013C86.4156 42.537 86.3571 42.5069 86.3116 42.2994C85.4012 43.7743 85.9214 44.4419 85.9214 44.4419C86.162 44.9134 86.3701 44.3703 86.731 44.2722H86.744Z" fill="#20BB65"/>
<path d="M101.258 48.3989L101.229 48.4781C101.251 48.4517 101.264 48.4216 101.258 48.3989Z" fill="#20BB65"/>
<path d="M105.244 53.5889C105.244 53.5889 105.254 53.5889 105.26 53.5854C105.254 53.5854 105.247 53.5854 105.244 53.5889Z" fill="#20BB65"/>
<path d="M100.285 51.1035C100.285 51.1035 100.275 51.1069 100.269 51.1138L100.285 51.1035Z" fill="#20BB65"/>
<path d="M99.6024 50.0699C99.7682 50.3679 99.5992 50.7111 99.9081 50.8318C99.9958 50.9676 100.155 51.028 100.285 51.1034C100.51 50.945 100.422 51.2468 100.627 51.1336L100.545 51.2769C100.617 51.2392 100.672 51.2241 100.636 51.3109L100.607 51.3448C100.714 51.2882 100.698 51.3788 100.753 51.3524L100.721 51.3863L100.77 51.4127L100.721 51.4542C100.854 51.4165 100.913 51.4693 100.919 51.5674L101.039 51.4203C100.994 51.6956 101.29 51.4429 101.209 51.7371L101.176 51.7711C101.621 51.5334 101.118 52.2275 101.547 52.02C101.491 52.0464 101.485 52.0992 101.452 52.1294C101.54 52.152 101.612 52.2011 101.869 51.9333C101.901 51.9861 101.82 52.054 101.726 52.1671C101.836 52.0502 101.917 52.0427 101.953 52.0728L101.898 52.0992L102.018 52.1671L102.213 51.9257C102.197 52.0464 101.966 52.2086 102.057 52.2086L102.233 52.0276C102.259 52.1445 102.025 52.4651 101.95 52.6726C102.106 53.0573 102.821 52.9668 102.707 53.5741L102.577 53.7137C102.379 53.9061 102.935 53.5213 102.756 53.7061L102.873 53.6571C102.844 53.6986 102.818 53.7552 102.759 53.7816C102.772 53.8231 102.808 53.7929 102.886 53.7589L102.782 53.9098C102.769 54.1286 103.088 54.0192 103.13 54.204C102.971 54.6001 103.413 54.702 103.667 54.7774C104.148 54.7887 103.465 55.7619 103.985 55.7506C103.959 55.7808 104.04 55.7506 104.066 55.7355L104.17 56.0109C104.17 56.0109 104.31 56.3315 104.619 56.3805C104.925 56.4258 105.419 56.2296 106.079 55.0792L106.131 55.0528C106.17 54.8151 106.144 54.702 105.845 54.7736C106.131 54.5435 105.809 54.6265 105.884 54.5247L105.91 54.5096C105.634 54.585 105.994 54.1777 105.744 54.2418C105.77 54.2267 105.851 54.1701 105.868 54.1852C105.793 54.1475 105.679 54.1098 105.845 53.9777C105.712 53.857 105.669 53.5817 105.344 53.6986L105.393 53.6684C105.182 53.7552 105.325 53.6194 105.195 53.6307C105.214 53.6081 105.224 53.5967 105.234 53.5892C105.022 53.6722 105.104 53.4383 105 53.4534L105.107 53.3591L105.009 53.261V53.3252C104.704 53.559 105.146 53.08 104.899 53.1592C104.886 53.046 104.177 53.5251 104.275 53.3214C104.112 53.4044 104.522 53.1592 104.379 53.1969C104.531 53.0611 104.492 53.1403 104.606 53.0196C104.499 53.0272 104.707 52.7895 104.554 52.8121L104.671 52.7065C104.392 52.8084 104.717 52.3972 104.47 52.5217C104.31 52.5179 104.782 52.1445 104.486 52.2539L104.622 52.0691C104.622 52.0049 104.405 52.2162 104.453 52.103C104.557 52.0125 104.492 51.971 104.609 51.9106C104.694 51.6617 104.242 51.9069 104.411 51.5221C104.196 51.673 104.265 51.4957 104.105 51.6126C104.187 51.5296 104.021 51.4655 104.258 51.3675C104.278 51.3599 104.284 51.375 104.252 51.4052L104.372 51.3071C104.531 51.0242 104.151 51.2807 104.131 51.1713C104.109 51.2317 104.141 51.2505 104.05 51.3071L104.014 51.2203L104.122 51.1411L104.102 50.9827L103.995 51.111C104.018 51.0016 104.203 50.7828 103.995 50.8922C103.884 50.9601 103.875 51.0959 103.797 51.0808C103.826 50.9337 103.868 50.7149 103.839 50.5904C103.715 50.73 103.702 50.7036 103.657 50.7073L103.767 50.5904C103.543 50.6583 103.988 50.3037 103.797 50.3377L103.881 50.266L103.628 50.4848C103.345 50.6319 103.826 50.1981 103.452 50.4244C103.497 50.4395 103.218 50.6998 103.234 50.6055L103.351 50.5036C103.309 50.5036 103.257 50.5414 103.267 50.5036C103.335 50.4584 103.429 50.3452 103.384 50.3301L103.536 50.2132L103.286 50.3566C103.361 50.183 103.153 50.2547 103.286 50.0736C103.286 50.0736 103.273 49.8813 103.088 50.0359C103.208 49.9492 103.198 49.8435 103.332 49.7341C103.192 49.8322 103.033 49.8511 103.127 49.6813L103.146 49.6738C103.169 49.4135 102.802 49.6512 102.86 49.372C102.74 49.5191 102.759 49.3833 102.61 49.5795C102.359 49.6474 102.756 49.0061 102.233 49.5305C102.164 49.5116 102.294 49.3381 102.298 49.2815L102.333 49.2626C102.213 49.2136 102.184 49.191 102.135 49.1117C102.057 49.1344 101.83 49.3947 101.83 49.2702C101.937 49.1834 101.898 49.1796 101.875 49.157C101.901 49.157 101.94 49.1193 101.969 49.0174C101.937 49.0476 101.914 49.0589 101.895 49.0703C101.901 49.0627 101.904 49.0552 101.914 49.0439C101.849 49.0439 101.826 49.0816 101.83 49.1155C101.817 49.1306 101.8 49.1532 101.781 49.1872C101.859 49.0099 101.673 49.0853 101.82 48.8967C101.683 48.8251 101.452 48.9345 101.309 48.9156C101.378 48.81 101.465 48.7459 101.521 48.7345L101.43 48.7044C101.54 48.5686 101.527 48.6629 101.569 48.6553C101.673 48.3536 101.241 48.7157 101.316 48.4177L101.212 48.5082L101.222 48.4856C101.176 48.5459 101.095 48.6025 101.069 48.6101C101.15 48.4743 101.287 48.3309 101.238 48.2932C101.293 48.1386 101.095 48.2517 100.997 48.2706C101.007 48.3158 100.945 48.3762 100.903 48.4101C100.877 48.3913 100.958 48.2555 100.903 48.2932L101.026 48.1235C100.916 48.2894 100.841 48.2329 100.783 48.2932C100.864 48.1574 100.896 48.2216 100.971 48.1348C100.87 48.0594 100.922 48.0971 100.822 48.0254C100.682 48.1046 100.711 48.1914 100.581 48.3158C100.516 48.3083 100.389 48.3837 100.418 48.2366L100.324 48.3988C100.162 48.4403 100.129 48.3762 100.188 48.1763C99.4594 48.5082 99.1342 48.9081 98.9847 49.2098C98.8351 49.5154 98.8611 49.7304 98.8611 49.7304C98.8318 50.266 99.2578 49.9378 99.5959 50.0774L99.6024 50.0699Z" fill="#20BB65"/>
<path d="M108.94 63.5576L108.875 63.6029C108.908 63.5953 108.934 63.5802 108.94 63.5576Z" fill="#20BB65"/>
<path d="M109.509 70.4795C109.509 70.4795 109.518 70.4829 109.525 70.4864C109.518 70.4829 109.515 70.4795 109.509 70.4795Z" fill="#20BB65"/>
<path d="M106.784 65.085C106.784 65.085 106.774 65.085 106.765 65.0815H106.784V65.085Z" fill="#20BB65"/>
<path d="M106.755 63.7917C106.735 64.1425 106.427 64.3047 106.618 64.6102C106.618 64.7762 106.719 64.9346 106.784 65.0818C107.048 65.1044 106.817 65.2892 107.041 65.3383L106.904 65.3986C106.983 65.4175 107.035 65.4439 106.963 65.4892L106.921 65.4967C107.035 65.5231 106.979 65.5872 107.035 65.5985H106.992L107.018 65.6551H106.957C107.083 65.7155 107.1 65.7984 107.057 65.8814L107.23 65.8475C107.054 66.0361 107.421 66.0399 107.207 66.2172H107.165C107.646 66.3379 106.882 66.5491 107.337 66.6774C107.282 66.6623 107.249 66.7 107.207 66.7038C107.265 66.783 107.301 66.8735 107.643 66.832C107.643 66.8961 107.538 66.8961 107.408 66.9188C107.558 66.8999 107.626 66.949 107.639 66.998L107.581 66.9829L107.643 67.1187L107.925 67.0584C107.851 67.1451 107.581 67.1149 107.656 67.179L107.89 67.1527C107.851 67.2621 107.499 67.3601 107.334 67.4771C107.262 67.8958 107.883 68.3107 107.48 68.7256L107.304 68.7482C107.044 68.7633 107.691 68.8425 107.451 68.8652L107.571 68.9066C107.525 68.9217 107.477 68.9482 107.418 68.9293C107.408 68.9708 107.451 68.9708 107.529 68.9972L107.369 69.0462C107.246 69.2122 107.561 69.348 107.499 69.5215C107.171 69.729 107.473 70.1213 107.643 70.3551C108.026 70.6946 106.976 71.0152 107.405 71.3623C107.369 71.3698 107.447 71.4037 107.48 71.4037L107.428 71.698C107.428 71.698 107.379 72.0563 107.604 72.3053C107.828 72.5505 108.329 72.724 109.444 72.245L109.499 72.26C109.649 72.0978 109.688 71.9847 109.411 71.8413C109.759 71.8489 109.457 71.698 109.571 71.6678L109.6 71.6754C109.34 71.5471 109.834 71.4679 109.6 71.3472C109.626 71.3547 109.723 71.3623 109.727 71.3849C109.688 71.3057 109.613 71.1963 109.814 71.2039C109.769 71.019 109.873 70.7663 109.551 70.6381L109.606 70.6493C109.388 70.5739 109.577 70.5626 109.466 70.4834C109.493 70.4834 109.506 70.4758 109.519 70.4758C109.304 70.3966 109.489 70.2646 109.398 70.2043H109.532L109.502 70.0609L109.473 70.1137C109.102 70.0911 109.707 70.0081 109.466 69.9025C109.512 69.8044 108.699 69.7026 108.878 69.6045C108.706 69.5592 109.161 69.646 109.028 69.5743C109.219 69.5743 109.148 69.6083 109.304 69.5894C109.213 69.5215 109.502 69.4725 109.372 69.3857H109.522C109.245 69.2725 109.717 69.1631 109.454 69.0915C109.327 68.9783 109.899 69.001 109.603 68.8878L109.805 68.835C109.837 68.7822 109.554 68.8048 109.652 68.7445C109.779 68.7445 109.753 68.6653 109.876 68.6954C110.071 68.5521 109.584 68.4389 109.915 68.2465C109.665 68.2201 109.811 68.1258 109.623 68.107C109.73 68.0956 109.632 67.9297 109.873 68.0127C109.892 68.0202 109.889 68.0353 109.847 68.0353H109.993C110.27 67.9184 109.831 67.8656 109.87 67.7637C109.821 67.7977 109.837 67.8354 109.736 67.8165L109.753 67.7222L109.879 67.7335L109.944 67.5902L109.792 67.6204C109.866 67.5487 110.127 67.5034 109.905 67.4431C109.782 67.4204 109.704 67.5223 109.649 67.4582C109.749 67.3601 109.896 67.213 109.935 67.0923C109.762 67.1187 109.766 67.0923 109.73 67.0621L109.879 67.0433C109.662 66.9414 110.205 66.9641 110.029 66.8622H110.133H109.818C109.512 66.7868 110.123 66.7679 109.71 66.6924C109.74 66.7377 109.382 66.7528 109.444 66.6887H109.59C109.558 66.6585 109.496 66.6547 109.525 66.6283C109.606 66.6397 109.736 66.6132 109.707 66.568L109.892 66.5793L109.619 66.5227C109.769 66.436 109.564 66.3492 109.762 66.2926C109.762 66.2926 109.847 66.1304 109.623 66.1266C109.762 66.1379 109.808 66.0474 109.974 66.0474C109.814 66.0286 109.675 65.9343 109.834 65.8626L109.853 65.8702C110.003 65.674 109.587 65.6174 109.775 65.4288C109.603 65.4628 109.688 65.3684 109.47 65.4288C109.236 65.3119 109.879 65.0629 109.193 65.1308C109.148 65.0667 109.343 65.0177 109.372 64.9762L109.411 64.9875C109.336 64.8667 109.327 64.829 109.327 64.7272C109.252 64.6895 108.937 64.7461 108.998 64.6442C109.128 64.6442 109.099 64.6178 109.093 64.5839C109.115 64.599 109.164 64.599 109.239 64.5386C109.2 64.5386 109.174 64.5386 109.151 64.531C109.161 64.531 109.167 64.5235 109.18 64.5235C109.128 64.4782 109.089 64.4971 109.076 64.5235C109.057 64.5235 109.034 64.5348 108.998 64.5499C109.151 64.4594 108.963 64.3953 109.177 64.3424C109.099 64.1878 108.862 64.1237 108.754 64.0067C108.862 63.9652 108.966 63.9728 109.015 64.0067L108.956 63.92C109.115 63.8823 109.057 63.9539 109.096 63.9766C109.333 63.7993 108.797 63.8031 109.008 63.6107H108.878L108.898 63.5994C108.832 63.6144 108.735 63.6107 108.712 63.5956C108.846 63.5428 109.031 63.5164 109.011 63.4522C109.135 63.3655 108.917 63.3202 108.829 63.2712C108.813 63.3127 108.735 63.324 108.683 63.3202C108.673 63.2901 108.806 63.2335 108.741 63.2222L108.927 63.1693C108.754 63.2297 108.722 63.1354 108.644 63.143C108.777 63.0864 108.774 63.1618 108.878 63.143C108.833 63.0147 108.855 63.0788 108.813 62.9506C108.66 62.9204 108.641 63.0109 108.472 63.0222C108.423 62.9694 108.283 62.9468 108.381 62.8449L108.221 62.9128C108.068 62.8374 108.072 62.7619 108.221 62.6375C107.46 62.4149 106.999 62.5281 106.726 62.6752C106.453 62.8261 106.365 63.0147 106.365 63.0147C106.072 63.4296 106.583 63.4409 106.784 63.7842L106.755 63.7917Z" fill="#20BB65"/>
<path d="M107.676 81.0786H107.602C107.631 81.0891 107.66 81.0925 107.676 81.0786Z" fill="#20BB65"/>
<path d="M105.107 87.3096C105.107 87.3096 105.114 87.317 105.118 87.3245C105.118 87.317 105.111 87.3133 105.107 87.3096Z" fill="#20BB65"/>
<path d="M105.151 81.0369C105.151 81.0369 105.14 81.0257 105.137 81.022L105.151 81.0369Z" fill="#20BB65"/>
<path d="M105.725 79.9092C105.546 80.1959 105.211 80.1431 105.227 80.5241C105.149 80.6674 105.162 80.8635 105.149 81.0333C105.361 81.2181 105.081 81.2332 105.25 81.4143L105.104 81.3841C105.162 81.4445 105.195 81.501 105.11 81.4972L105.071 81.4746C105.156 81.5689 105.078 81.5878 105.12 81.633L105.081 81.6104V81.6708L105.026 81.633C105.104 81.7613 105.081 81.8443 105.006 81.8895L105.169 81.965C104.935 82.0216 105.247 82.2479 104.984 82.2705L104.945 82.2479C105.302 82.6364 104.554 82.3611 104.886 82.7458C104.844 82.6968 104.802 82.7119 104.763 82.6892C104.776 82.7948 104.766 82.8891 105.078 83.0627C105.049 83.1192 104.961 83.0551 104.837 82.9985C104.974 83.074 105.01 83.1532 105 83.206L104.954 83.157L104.948 83.3116L105.214 83.4285C105.11 83.4549 104.893 83.2701 104.928 83.372L105.14 83.4889C105.058 83.5606 104.714 83.4361 104.519 83.4361C104.268 83.7567 104.623 84.4847 104.093 84.6092L103.93 84.5262C103.699 84.3904 104.223 84.8318 104.005 84.7148L104.09 84.8205C104.044 84.8054 103.989 84.8016 103.946 84.7488C103.92 84.7789 103.956 84.8054 104.011 84.877L103.852 84.828C103.673 84.9034 103.888 85.2014 103.755 85.3183C103.381 85.3108 103.472 85.8276 103.517 86.1293C103.703 86.6461 102.656 86.3293 102.88 86.88C102.844 86.8649 102.9 86.9403 102.926 86.9592L102.753 87.1893C102.753 87.1893 102.561 87.476 102.652 87.823C102.747 88.1663 103.117 88.5925 104.291 88.8L104.333 88.8415C104.532 88.7849 104.613 88.7094 104.431 88.4265C104.73 88.6302 104.528 88.3285 104.642 88.3662L104.665 88.3888C104.489 88.1323 104.958 88.3398 104.802 88.1059C104.824 88.1248 104.902 88.1889 104.896 88.2115C104.896 88.121 104.876 87.9852 105.049 88.1059C105.084 87.9211 105.283 87.7589 105.058 87.4685L105.104 87.5099C104.948 87.3213 105.114 87.4156 105.052 87.2874C105.078 87.2987 105.091 87.3025 105.101 87.31C104.948 87.1214 105.162 87.1101 105.11 87.0082L105.227 87.0837L105.263 86.9441L105.214 86.9743C104.902 86.7404 105.462 87.0196 105.299 86.7895C105.38 86.7329 104.717 86.1746 104.915 86.1935C104.785 86.0539 105.143 86.3934 105.055 86.2538C105.224 86.3632 105.146 86.3519 105.286 86.4236C105.237 86.3104 105.507 86.4387 105.429 86.2878L105.562 86.3708C105.371 86.118 105.826 86.2953 105.627 86.0803C105.566 85.9106 106.05 86.2614 105.845 85.9898L106.044 86.0614C106.096 86.035 105.842 85.8917 105.949 85.8955C106.06 85.9709 106.07 85.8879 106.164 85.986C106.395 85.9785 106.021 85.5937 106.391 85.6239C106.187 85.4542 106.352 85.4579 106.196 85.3334C106.294 85.3863 106.281 85.1901 106.453 85.4013C106.466 85.4202 106.456 85.4315 106.421 85.4051L106.547 85.4956C106.837 85.556 106.482 85.2542 106.56 85.1901C106.505 85.1901 106.502 85.2316 106.421 85.1562L106.473 85.0845L106.577 85.1675L106.694 85.0845L106.547 85.0204C106.645 85.0015 106.886 85.1184 106.72 84.9374C106.626 84.8431 106.508 84.8846 106.495 84.7978C106.622 84.7752 106.817 84.7374 106.902 84.6545C106.743 84.5752 106.759 84.5526 106.739 84.5036L106.876 84.5753C106.733 84.3603 107.191 84.7035 107.087 84.5111L107.178 84.5753L106.908 84.3867C106.681 84.1415 107.211 84.4885 106.889 84.1792C106.895 84.2358 106.58 84.0321 106.661 84.0132L106.788 84.1C106.772 84.0547 106.723 84.017 106.756 84.0132C106.821 84.0698 106.944 84.1264 106.938 84.0736L107.09 84.1905L106.882 83.9755C107.048 83.9906 106.912 83.7944 107.107 83.8699C107.107 83.8699 107.253 83.7831 107.061 83.6436C107.178 83.7379 107.256 83.6888 107.396 83.7869C107.266 83.6737 107.191 83.5115 107.36 83.5493L107.373 83.5643C107.588 83.4889 107.26 83.1871 107.503 83.1456C107.341 83.0702 107.455 83.04 107.243 82.957C107.094 82.7156 107.757 82.9005 107.142 82.5383C107.133 82.4553 107.318 82.5346 107.364 82.5157L107.393 82.5459C107.386 82.3988 107.393 82.3611 107.438 82.2743C107.393 82.1989 107.1 82.0517 107.198 82.0065C107.308 82.0894 107.295 82.0442 107.308 82.014C107.321 82.0404 107.36 82.0668 107.455 82.0668C107.419 82.0442 107.399 82.0253 107.383 82.0065C107.393 82.0102 107.399 82.014 107.412 82.0178C107.39 81.9461 107.347 81.9386 107.325 81.9537C107.308 81.9424 107.282 81.9348 107.247 81.9273C107.419 81.9461 107.286 81.7764 107.49 81.8632C107.497 81.6859 107.325 81.4822 107.286 81.32C107.396 81.3539 107.477 81.4256 107.507 81.4784L107.497 81.369C107.646 81.4369 107.568 81.4595 107.588 81.501C107.868 81.501 107.416 81.1691 107.682 81.1427L107.572 81.0634H107.594C107.529 81.037 107.455 80.9729 107.438 80.9428C107.575 80.9805 107.744 81.0748 107.754 81.0069C107.897 81.0107 107.734 80.8371 107.682 80.7428C107.65 80.7692 107.578 80.7277 107.536 80.69C107.542 80.6561 107.679 80.6938 107.63 80.6447L107.809 80.7164C107.637 80.6599 107.653 80.558 107.581 80.5165C107.721 80.5542 107.682 80.6108 107.78 80.6636C107.802 80.5316 107.789 80.5957 107.812 80.4637C107.698 80.3392 107.64 80.4071 107.49 80.309C107.474 80.2336 107.367 80.128 107.494 80.1016L107.328 80.0601C107.237 79.9017 107.273 79.8413 107.458 79.83C106.925 79.1661 106.486 78.9624 106.187 78.9134C105.887 78.8643 105.722 78.97 105.722 78.97C105.279 79.1359 105.702 79.4754 105.712 79.8941L105.725 79.9092Z" fill="#20BB65"/>
<path d="M99.2486 95.6572L99.1836 95.6157C99.2064 95.6421 99.2291 95.661 99.2486 95.6572Z" fill="#20BB65"/>
<path d="M94.5957 99.9497C94.5957 99.9497 94.5957 99.9609 94.5991 99.9684C94.5991 99.9609 94.5991 99.9534 94.5957 99.9497Z" fill="#20BB65"/>
<path d="M96.9991 94.3218C96.9991 94.3218 96.9956 94.3107 96.9922 94.3032L96.9991 94.3218Z" fill="#20BB65"/>
<path d="M97.9516 93.6015C97.6785 93.7675 97.3988 93.5487 97.2688 93.8995C97.1452 93.99 97.0802 94.1748 97.0022 94.3182C97.1225 94.5935 96.8656 94.4653 96.9469 94.7105L96.8299 94.6086C96.8559 94.6916 96.8656 94.7633 96.7941 94.7142L96.7681 94.6765C96.8104 94.8048 96.7323 94.7821 96.7518 94.8463L96.7258 94.8085L96.6998 94.8614L96.6673 94.801C96.6901 94.9594 96.638 95.0198 96.5535 95.0198L96.6706 95.1706C96.4365 95.1027 96.6315 95.4611 96.3877 95.3517L96.3617 95.314C96.534 95.8458 95.9683 95.2159 96.1178 95.7327C96.0983 95.6686 96.0528 95.6573 96.0301 95.6195C96.004 95.7214 95.9585 95.8044 96.1731 96.1174C96.1276 96.1552 96.0691 96.0533 95.9813 95.9364C96.0756 96.0722 96.0756 96.1627 96.0495 96.2042L96.0301 96.1363L95.965 96.2721L96.1601 96.5135C96.0561 96.4871 95.9325 96.208 95.9228 96.3174L96.0691 96.5324C95.9683 96.555 95.7049 96.2683 95.5293 96.1703C95.1815 96.3325 95.227 97.1698 94.7035 97.0114L94.5865 96.853C94.4304 96.6116 94.736 97.2755 94.5865 97.0605L94.6223 97.2C94.5865 97.1623 94.5377 97.1321 94.5215 97.0642C94.4857 97.0793 94.5085 97.1208 94.5345 97.2113L94.4077 97.0869C94.2191 97.0643 94.2971 97.4414 94.1378 97.4829C93.8029 97.2906 93.6924 97.7998 93.6208 98.0978C93.5981 98.656 92.769 97.8488 92.7658 98.4562C92.7397 98.426 92.7625 98.5203 92.7788 98.5505L92.5382 98.6711C92.5382 98.6711 92.2553 98.8333 92.2098 99.1955C92.1675 99.5538 92.3431 100.123 93.325 100.893L93.3477 100.953C93.5493 101.002 93.6469 100.972 93.5883 100.629C93.7834 100.965 93.7119 100.587 93.8029 100.678L93.8159 100.708C93.7541 100.387 94.0956 100.81 94.0468 100.519C94.0598 100.55 94.1086 100.644 94.0923 100.663C94.1248 100.58 94.1573 100.448 94.2711 100.644C94.3751 100.493 94.6092 100.448 94.5149 100.071L94.541 100.131C94.4695 99.882 94.5832 100.052 94.5767 99.9046C94.593 99.9272 94.606 99.9386 94.6125 99.9499C94.5442 99.7009 94.7426 99.8028 94.7328 99.6821L94.8108 99.8103L94.8954 99.7009H94.8401C94.6483 99.335 95.0482 99.8669 94.9864 99.5764C95.0807 99.5651 94.6905 98.7277 94.8629 98.8484C94.7978 98.656 94.9929 99.1427 94.9669 98.9729C95.0774 99.154 95.0124 99.1087 95.1132 99.2445C95.1132 99.1162 95.3083 99.369 95.2953 99.1955L95.3831 99.335C95.305 99.0106 95.6464 99.3992 95.5489 99.1087C95.5586 98.9239 95.861 99.4859 95.7764 99.1351L95.9292 99.3011C95.9845 99.3011 95.809 99.0446 95.9098 99.1049C95.9813 99.2294 96.0203 99.1577 96.0691 99.2935C96.2804 99.4067 96.0853 98.871 96.4072 99.0823C96.2837 98.8258 96.4332 98.9126 96.3422 98.724C96.4104 98.822 96.4722 98.6372 96.547 98.9126C96.5535 98.9352 96.5405 98.9427 96.5145 98.9012L96.5958 99.0446C96.8331 99.2445 96.6283 98.7956 96.7226 98.773C96.6738 98.7466 96.6543 98.7805 96.6121 98.6711L96.6868 98.6334L96.7486 98.7617L96.8851 98.7466L96.7779 98.6145C96.8722 98.6485 97.0477 98.8748 96.9664 98.6259C96.9144 98.4939 96.7974 98.475 96.8169 98.3882C96.9404 98.4297 97.129 98.4976 97.233 98.4674C97.1192 98.3165 97.142 98.3015 97.142 98.2524L97.2363 98.3882C97.1875 98.1242 97.4704 98.6636 97.4476 98.4373L97.5062 98.5391L97.3338 98.2336C97.22 97.8979 97.5679 98.4825 97.3956 98.0374C97.3793 98.0902 97.1745 97.7508 97.2525 97.7734L97.3338 97.9129C97.3338 97.8639 97.3046 97.8036 97.3403 97.8186C97.3761 97.9016 97.4671 98.0148 97.4834 97.9658L97.5744 98.1506L97.4671 97.8526C97.6102 97.9507 97.5614 97.7055 97.7077 97.8715C97.7077 97.8715 97.8703 97.8677 97.75 97.6451C97.8183 97.7885 97.9061 97.7847 97.9938 97.9469C97.9191 97.7809 97.9125 97.5961 98.0491 97.713L98.0556 97.7357C98.2767 97.7772 98.0946 97.3396 98.3287 97.4263C98.2117 97.2755 98.3254 97.3094 98.1661 97.1246C98.1239 96.8304 98.6474 97.3396 98.2344 96.6946C98.2572 96.6154 98.3938 96.7813 98.4425 96.7889L98.4555 96.8304C98.5043 96.6946 98.5238 96.6644 98.5986 96.6116C98.5856 96.5211 98.3775 96.2381 98.4848 96.2457C98.5498 96.3739 98.5595 96.3325 98.5791 96.3098C98.5791 96.34 98.6051 96.3853 98.6896 96.4306C98.6669 96.3928 98.6571 96.3664 98.6506 96.34C98.6571 96.3475 98.6636 96.3551 98.6734 96.3664C98.6799 96.291 98.6473 96.2646 98.6181 96.2646C98.6051 96.2457 98.5888 96.2268 98.5596 96.2004C98.7059 96.306 98.6539 96.0835 98.8034 96.2683C98.8749 96.1137 98.7969 95.8421 98.8262 95.6761C98.9107 95.7629 98.9595 95.8685 98.9627 95.9326L98.9952 95.8308C99.1058 95.9703 99.0245 95.9477 99.0277 95.9968C99.2781 96.1401 99.0017 95.612 99.2488 95.7252L99.1805 95.5969L99.2001 95.6082C99.1545 95.5516 99.109 95.4536 99.1058 95.4196C99.2131 95.5252 99.3269 95.695 99.3626 95.6422C99.4894 95.7214 99.4114 95.48 99.4016 95.3706C99.3626 95.3781 99.3171 95.3027 99.2911 95.2499C99.3074 95.2235 99.4179 95.3291 99.3919 95.2574L99.5252 95.4158C99.3919 95.2763 99.4439 95.1933 99.3984 95.1178C99.5089 95.2234 99.4504 95.2536 99.5187 95.3517C99.5902 95.2423 99.5544 95.2989 99.626 95.1895C99.5707 95.0198 99.4927 95.0499 99.3984 94.884C99.4114 94.8085 99.3561 94.6576 99.4797 94.7029L99.3464 94.5785C99.3268 94.3898 99.3821 94.3559 99.5512 94.4389C99.3301 93.5675 99.018 93.1564 98.7709 92.9564C98.5206 92.7565 98.3352 92.7678 98.3352 92.7678C97.8768 92.6886 98.1206 93.2092 97.9678 93.5902L97.9516 93.6015Z" fill="#20BB65"/>
<path d="M86.2233 104.577L86.1777 104.509C86.1875 104.543 86.2037 104.573 86.2233 104.577Z" fill="#20BB65"/>
<path d="M80.4482 106.173C80.4482 106.173 80.4482 106.184 80.4482 106.192C80.4482 106.184 80.4517 106.18 80.4482 106.173Z" fill="#20BB65"/>
<path d="M85.8042 102.077C85.4953 102.092 85.323 101.756 85.0759 102.009C84.9296 102.028 84.806 102.163 84.6792 102.254C84.6857 102.559 84.5004 102.318 84.4841 102.582L84.4159 102.431C84.4094 102.522 84.3931 102.586 84.3443 102.51L84.3346 102.461C84.3248 102.597 84.2631 102.541 84.2566 102.609L84.2468 102.559L84.2045 102.597L84.198 102.525C84.159 102.676 84.0908 102.707 84.0127 102.669L84.0647 102.865C83.8794 102.688 83.9217 103.11 83.7428 102.888L83.7331 102.839C83.6941 103.404 83.4112 102.556 83.3592 103.095C83.3657 103.027 83.3299 102.997 83.3202 102.948C83.2584 103.027 83.1869 103.08 83.2682 103.465C83.2129 103.476 83.1999 103.355 83.1609 103.208C83.1967 103.378 83.1641 103.461 83.1251 103.484L83.1316 103.412L83.0211 103.502L83.1089 103.819C83.0243 103.744 83.0113 103.431 82.9658 103.525L83.0211 103.793C82.9203 103.766 82.787 103.374 82.6634 103.201C82.2895 103.178 82.0229 103.955 81.6068 103.559L81.558 103.359C81.5027 103.065 81.5385 103.816 81.48 103.544L81.4637 103.687C81.4442 103.638 81.4117 103.585 81.4214 103.514C81.3824 103.51 81.3922 103.559 81.3791 103.653L81.3109 103.476C81.1483 103.363 81.0833 103.744 80.9207 103.702C80.6867 103.363 80.4005 103.77 80.2282 104.008C80.0039 104.502 79.5454 103.367 79.3211 103.914C79.3081 103.872 79.2951 103.97 79.2984 104.004L79.035 103.997C79.035 103.997 78.7196 104.008 78.5473 104.313C78.3782 104.619 78.3327 105.219 78.9472 106.399V106.464C79.1098 106.603 79.2106 106.626 79.2821 106.286C79.3374 106.686 79.4089 106.309 79.4577 106.437V106.471C79.5162 106.15 79.6755 106.701 79.734 106.415C79.734 106.448 79.7438 106.558 79.7243 106.565C79.7828 106.505 79.8608 106.403 79.8933 106.633C80.0396 106.547 80.2705 106.622 80.3225 106.233V106.298C80.3485 106.037 80.3908 106.249 80.4363 106.109C80.4428 106.139 80.4493 106.154 80.4493 106.166C80.4785 105.909 80.6216 106.094 80.6574 105.981L80.6802 106.135L80.7972 106.079L80.7484 106.052C80.7062 105.626 80.8752 106.301 80.9273 106.011C81.0183 106.049 80.9663 105.098 81.0801 105.29C81.0898 105.083 81.0931 105.619 81.1288 105.456C81.1646 105.675 81.1223 105.6 81.1613 105.773C81.2036 105.656 81.2914 105.981 81.3434 105.815L81.3727 105.984C81.4214 105.653 81.5873 106.173 81.6068 105.86C81.6815 105.698 81.7531 106.354 81.8018 105.996L81.8799 106.218C81.9319 106.245 81.8669 105.928 81.9319 106.03C81.9514 106.177 82.0132 106.132 82.0067 106.279C82.1562 106.482 82.1757 105.905 82.3903 106.256C82.3741 105.966 82.4749 106.117 82.4619 105.898C82.4879 106.018 82.6114 105.883 82.5789 106.169C82.5789 106.192 82.5626 106.192 82.5561 106.143L82.5756 106.313C82.7154 106.611 82.6959 106.101 82.787 106.132C82.7512 106.083 82.7219 106.105 82.7219 105.984H82.8032L82.813 106.132L82.943 106.184L82.8943 106.015C82.9658 106.09 83.0438 106.381 83.0601 106.117C83.0601 105.973 82.9625 105.894 83.0113 105.826C83.1088 105.924 83.2552 106.079 83.3592 106.101C83.3104 105.909 83.3397 105.909 83.3592 105.86L83.395 106.03C83.447 105.766 83.5055 106.392 83.5706 106.177L83.5868 106.298L83.5413 105.935C83.5608 105.573 83.6616 106.275 83.6681 105.788C83.6356 105.83 83.5738 105.419 83.6356 105.479L83.6583 105.645C83.6778 105.604 83.6713 105.532 83.6973 105.562C83.6973 105.656 83.7396 105.803 83.7721 105.762L83.7884 105.973L83.8014 105.653C83.8957 105.811 83.9412 105.566 84.0127 105.788C84.0127 105.788 84.1623 105.864 84.133 105.604C84.1428 105.766 84.224 105.807 84.2435 105.996C84.237 105.811 84.2988 105.637 84.3801 105.815V105.837C84.5622 105.988 84.5557 105.498 84.7378 105.694C84.6857 105.502 84.7768 105.585 84.702 105.343C84.7703 105.057 85.0596 105.777 84.9198 104.989C84.9686 104.928 85.0336 105.147 85.0726 105.177V105.223C85.1637 105.124 85.1929 105.106 85.2775 105.094C85.3002 105.008 85.2157 104.645 85.31 104.71C85.323 104.86 85.3457 104.823 85.3717 104.815C85.3587 104.845 85.3685 104.898 85.427 104.981C85.4205 104.936 85.4205 104.906 85.4238 104.879C85.4238 104.891 85.4303 104.898 85.4335 104.913C85.466 104.849 85.4465 104.808 85.4205 104.793C85.4173 104.77 85.4075 104.743 85.3913 104.706C85.4856 104.872 85.5181 104.649 85.5863 104.887C85.7066 104.781 85.7359 104.498 85.8237 104.362C85.8692 104.483 85.8724 104.604 85.8529 104.664L85.9212 104.589C85.97 104.77 85.9049 104.71 85.8887 104.755C86.0642 105.011 86.0057 104.393 86.1878 104.619L86.1716 104.468L86.1846 104.491C86.1618 104.415 86.1586 104.306 86.1683 104.276C86.2268 104.427 86.2691 104.634 86.3211 104.604C86.4057 104.736 86.4252 104.483 86.4544 104.378C86.4154 104.363 86.4024 104.272 86.3992 104.212C86.4252 104.197 86.4837 104.344 86.4869 104.268L86.5487 104.476C86.4804 104.283 86.5584 104.234 86.5422 104.144C86.604 104.291 86.539 104.295 86.565 104.415C86.669 104.351 86.617 104.385 86.721 104.321C86.734 104.14 86.6527 104.129 86.6267 103.932C86.6657 103.872 86.6723 103.706 86.7666 103.808L86.6918 103.631C86.7438 103.45 86.8056 103.446 86.9259 103.608C87.0462 102.71 86.9161 102.186 86.7633 101.88C86.6105 101.575 86.4382 101.492 86.4382 101.492C86.0513 101.194 86.0805 101.786 85.8009 102.054L85.8042 102.077Z" fill="#20BB65"/>
<path d="M71.8078 106.452L71.8008 106.369C71.8008 106.407 71.8008 106.441 71.8078 106.452Z" fill="#20BB65"/>
<path d="M68.8135 106.067C68.8135 106.067 68.8135 106.079 68.8066 106.086C68.8066 106.079 68.8101 106.075 68.8135 106.067Z" fill="#20BB65"/>
<path d="M71.5669 103.668C71.5669 103.668 71.5669 103.657 71.5704 103.649L71.5635 103.668H71.5669Z" fill="#20BB65"/>
<path d="M72.1197 103.947C71.9766 103.834 71.9636 103.453 71.7978 103.589C71.7263 103.551 71.6418 103.631 71.5637 103.668C71.5052 103.959 71.4694 103.661 71.4077 103.906V103.736C71.3849 103.819 71.3621 103.876 71.3556 103.782L71.3621 103.732C71.3296 103.857 71.3134 103.778 71.2971 103.842L71.3036 103.793L71.2776 103.812L71.2874 103.744C71.2386 103.872 71.1996 103.88 71.1736 103.812L71.1573 104.015C71.1053 103.782 71.0435 104.196 71.0013 103.921L71.0078 103.872C70.8777 104.396 70.9135 103.491 70.7834 103.989C70.7997 103.929 70.7899 103.883 70.7932 103.834C70.7477 103.887 70.7054 103.914 70.6664 104.31C70.6371 104.302 70.6566 104.181 70.6664 104.027C70.6501 104.2 70.6176 104.268 70.5948 104.276L70.6111 104.212L70.5428 104.261L70.5233 104.589C70.5006 104.491 70.5558 104.189 70.5168 104.261L70.4908 104.532C70.4485 104.472 70.4648 104.057 70.442 103.849C70.2697 103.706 69.9933 104.37 69.8763 103.865L69.8926 103.661C69.9251 103.363 69.7918 104.095 69.8178 103.819L69.782 103.951C69.782 103.898 69.7787 103.838 69.795 103.774C69.7787 103.759 69.7723 103.808 69.7463 103.895V103.706C69.6942 103.551 69.5869 103.898 69.5187 103.812C69.4731 103.419 69.2586 103.736 69.1285 103.917C68.9269 104.336 68.9269 103.121 68.7123 103.604C68.7123 103.563 68.6896 103.653 68.6831 103.687L68.5563 103.619C68.5563 103.619 68.4035 103.559 68.2604 103.815C68.1206 104.072 67.984 104.649 68.0523 105.928L68.0393 105.992C68.0914 106.165 68.1336 106.207 68.2344 105.894C68.1856 106.294 68.2897 105.947 68.2897 106.079L68.2832 106.113C68.3742 105.815 68.3417 106.384 68.4262 106.12C68.4197 106.15 68.4035 106.26 68.3937 106.264C68.4327 106.218 68.4912 106.139 68.4587 106.373C68.5465 106.328 68.6408 106.456 68.7383 106.094L68.7254 106.158C68.7871 105.913 68.7676 106.128 68.8164 106.007C68.8164 106.037 68.8131 106.052 68.8131 106.067C68.8782 105.826 68.9074 106.045 68.9464 105.943L68.9269 106.098L68.9919 106.071L68.9725 106.033C69.0375 105.611 68.9854 106.309 69.0635 106.041C69.0992 106.101 69.2618 105.173 69.2781 105.388C69.3236 105.192 69.2195 105.709 69.2683 105.562C69.2423 105.784 69.2358 105.698 69.2228 105.875C69.2651 105.777 69.2423 106.109 69.3008 105.966L69.2813 106.139C69.3691 105.834 69.3464 106.38 69.4146 106.086C69.4829 105.95 69.3854 106.603 69.4796 106.275L69.4731 106.513C69.4926 106.554 69.5219 106.23 69.5349 106.347C69.5154 106.494 69.5512 106.467 69.5219 106.607C69.5512 106.848 69.6747 106.297 69.704 106.697C69.7528 106.414 69.7723 106.588 69.808 106.377C69.795 106.501 69.8795 106.407 69.808 106.675C69.8015 106.697 69.795 106.69 69.8015 106.641L69.7788 106.81C69.7853 107.139 69.8763 106.645 69.9121 106.701C69.9056 106.645 69.8861 106.656 69.9121 106.539L69.9478 106.569L69.9251 106.712L69.9738 106.803L69.9836 106.626C70.0031 106.72 69.9803 107.025 70.0389 106.777C70.0681 106.637 70.0389 106.535 70.0746 106.482C70.1007 106.611 70.1364 106.799 70.1819 106.86C70.1982 106.66 70.2112 106.667 70.2275 106.629L70.2112 106.803C70.2892 106.569 70.1917 107.188 70.2632 107.003L70.2469 107.124L70.299 106.761C70.3803 106.426 70.2892 107.124 70.3868 106.663C70.364 106.69 70.416 106.279 70.4323 106.358L70.4095 106.524C70.4258 106.49 70.4388 106.422 70.4453 106.456C70.429 106.546 70.416 106.697 70.4388 106.675L70.403 106.882L70.4713 106.58C70.4843 106.765 70.5526 106.546 70.5428 106.784C70.5428 106.784 70.5948 106.909 70.6371 106.652C70.6079 106.81 70.6371 106.878 70.6111 107.063C70.6436 106.882 70.7086 106.743 70.7086 106.939L70.7021 106.961C70.7574 107.169 70.8517 106.705 70.8972 106.954C70.9135 106.75 70.9362 106.867 70.9525 106.607C71.0403 106.362 71.0305 107.146 71.1216 106.35C71.1573 106.313 71.1411 106.543 71.1541 106.584L71.1443 106.626C71.2061 106.565 71.2256 106.562 71.2646 106.584C71.2939 106.509 71.3264 106.139 71.3556 106.233C71.3329 106.38 71.3491 106.354 71.3621 106.354C71.3524 106.377 71.3426 106.429 71.3556 106.531C71.3621 106.486 71.3687 106.46 71.3752 106.437C71.3752 106.448 71.3752 106.456 71.3752 106.475C71.4044 106.426 71.4012 106.38 71.3946 106.358C71.3946 106.335 71.3979 106.305 71.3979 106.264C71.4077 106.456 71.4662 106.256 71.4499 106.513C71.5247 106.46 71.5962 106.207 71.6645 106.113C71.6645 106.245 71.6385 106.358 71.619 106.407L71.6645 106.362C71.6515 106.55 71.632 106.467 71.6158 106.505C71.645 106.814 71.7426 106.214 71.7816 106.497L71.8043 106.35V106.377C71.8108 106.298 71.8336 106.192 71.8433 106.169C71.8401 106.331 71.8173 106.546 71.8433 106.539C71.8563 106.697 71.9148 106.467 71.9506 106.38C71.9376 106.35 71.9506 106.26 71.9571 106.203C71.9734 106.199 71.9701 106.362 71.9864 106.294L71.9734 106.513C71.9831 106.305 72.0254 106.294 72.0384 106.203C72.0384 106.365 72.0059 106.343 71.9961 106.463C72.0547 106.448 72.0254 106.456 72.0872 106.441C72.1294 106.279 72.0937 106.233 72.1229 106.041C72.1522 106 72.188 105.849 72.2107 105.984V105.788C72.2725 105.641 72.3018 105.664 72.3245 105.867C72.5619 105.087 72.6106 104.543 72.6009 104.196C72.5944 103.849 72.5293 103.699 72.5293 103.699C72.4123 103.253 72.305 103.819 72.1229 103.955L72.1197 103.947Z" fill="#20BB65"/>
</svg>
