<svg width="100" height="40" viewBox="0 0 100 40" fill="none" xmlns="http://www.w3.org/2000/svg">
<path d="M99.5427 3.46069L99.4674 3.43616C99.4969 3.4572 99.5231 3.47121 99.5427 3.46069Z" fill="#ACDE45"/>
<path d="M95.0021 8.49695C95.0021 8.49695 95.0055 8.50705 95.0088 8.5138C95.0088 8.50705 95.0088 8.50032 95.0021 8.49695Z" fill="#ACDE45"/>
<path d="M96.9305 2.61419C96.9305 2.61419 96.9237 2.60404 96.9203 2.59729L96.9305 2.61419Z" fill="#ACDE45"/>
<path d="M97.8207 1.74123C97.5588 1.95526 97.2249 1.79995 97.1463 2.16242C97.0284 2.27289 96.9892 2.46273 96.9303 2.61463C97.1005 2.85627 96.8059 2.78033 96.9303 3.00472L96.7895 2.92532C96.832 3.00127 96.8517 3.06684 96.7666 3.03232L96.7338 3.00126C96.796 3.11863 96.7109 3.11172 96.7404 3.16696L96.7076 3.1359L96.688 3.1946L96.6455 3.14281C96.6913 3.29125 96.6455 3.36027 96.5538 3.37753L96.7011 3.50526C96.4425 3.47764 96.7011 3.79524 96.4229 3.72965L96.3901 3.69514C96.6455 4.18534 95.9548 3.66408 96.1872 4.14048C96.1577 4.08179 96.1086 4.07833 96.0758 4.04381C96.0595 4.14737 96.0235 4.23366 96.2919 4.50292C96.2461 4.54435 96.1741 4.45462 96.0628 4.35796C96.1806 4.47533 96.1937 4.56508 96.1675 4.6065L96.1381 4.54435L96.0857 4.68935L96.3279 4.89301C96.2133 4.88266 96.0431 4.63413 96.0497 4.74114L96.233 4.92753C96.1283 4.9655 95.8107 4.72734 95.611 4.66175C95.2608 4.87233 95.4015 5.68357 94.8221 5.60417L94.6814 5.46608C94.485 5.25205 94.8876 5.85961 94.701 5.66974L94.7566 5.80092C94.7141 5.76985 94.6584 5.7457 94.6323 5.68356C94.5962 5.70427 94.6257 5.73881 94.6617 5.82511L94.5144 5.71807C94.3082 5.72153 94.4358 6.08054 94.2623 6.14268C93.8826 5.99769 93.8139 6.51208 93.7648 6.81241C93.791 7.36475 92.8187 6.67776 92.8711 7.27153C92.8384 7.24391 92.8711 7.33712 92.8907 7.36128L92.6419 7.50974C92.6419 7.50974 92.3506 7.70305 92.331 8.06207C92.3146 8.41764 92.5536 8.95615 93.6928 9.59479L93.7222 9.65004C93.9448 9.67075 94.0528 9.63277 93.9579 9.29792C94.2001 9.6017 94.0921 9.2427 94.1969 9.31865L94.2132 9.34625C94.1183 9.03901 94.5275 9.41184 94.4456 9.13222C94.462 9.15984 94.5242 9.24615 94.5079 9.26686C94.5373 9.18056 94.5602 9.04593 94.701 9.22544C94.7992 9.06319 95.0545 8.98725 94.917 8.63168L94.9498 8.68688C94.8483 8.45214 94.9891 8.60406 94.9662 8.45908C94.9858 8.47979 94.9989 8.49014 95.0087 8.5005C94.9138 8.26576 95.1364 8.33823 95.1167 8.22086L95.2117 8.33476L95.2935 8.2174L95.2346 8.22777C94.9891 7.89291 95.4768 8.36239 95.3819 8.08622C95.4866 8.06206 94.9792 7.29222 95.1789 7.38543C95.0905 7.20592 95.3491 7.65472 95.3033 7.49247C95.4408 7.65817 95.3655 7.61673 95.4866 7.73755C95.4703 7.61328 95.7092 7.83077 95.6798 7.66162L95.7911 7.78934C95.6765 7.48211 96.0857 7.81352 95.9482 7.5408C95.9417 7.35784 96.3279 7.86529 96.2002 7.53389L96.3836 7.67198C96.4458 7.66508 96.2297 7.43722 96.341 7.4821C96.4327 7.59257 96.4687 7.51661 96.5341 7.64434C96.7764 7.72374 96.5112 7.22318 96.8812 7.38543C96.7208 7.15414 96.8942 7.21628 96.7731 7.04022C96.8582 7.12652 96.9074 6.93323 97.0154 7.19559C97.0252 7.2163 97.0121 7.2232 96.9793 7.18868L97.0808 7.31986C97.3591 7.47866 97.0906 7.06787 97.1888 7.03335C97.1332 7.01264 97.1168 7.05061 97.0579 6.9505L97.1332 6.90217L97.2151 7.01607L97.3624 6.9781L97.2314 6.86761C97.3362 6.88487 97.5522 7.07822 97.4376 6.85038C97.3689 6.72955 97.238 6.72956 97.2478 6.6398C97.3885 6.66052 97.6013 6.69504 97.7126 6.64671C97.5718 6.51553 97.598 6.49825 97.5915 6.44992L97.7094 6.56728C97.6275 6.31528 97.9974 6.79858 97.9483 6.57765L98.0236 6.66741L97.801 6.39468C97.6406 6.08053 98.0858 6.59836 97.8435 6.19101C97.8337 6.24625 97.5686 5.94594 97.657 5.95629L97.7617 6.08056C97.7617 6.03223 97.7191 5.97699 97.7552 5.98735C97.8043 6.0633 97.9156 6.15994 97.9254 6.10471L98.0465 6.2704L97.8959 5.99426C98.0629 6.0633 97.9811 5.83198 98.1611 5.96662C98.1611 5.96662 98.3379 5.93212 98.1807 5.73535C98.2724 5.86308 98.3673 5.84236 98.4852 5.98735C98.3837 5.83891 98.3542 5.65592 98.5179 5.74913L98.5277 5.76986C98.7733 5.76986 98.5212 5.37286 98.7863 5.41083C98.639 5.28655 98.7667 5.2969 98.5735 5.14501C98.4917 4.86539 99.1268 5.25893 98.5899 4.71004C98.603 4.62719 98.7765 4.76528 98.8256 4.76183L98.8453 4.80326C98.8813 4.65827 98.8976 4.62376 98.9697 4.55817C98.9435 4.47187 98.6783 4.23713 98.7962 4.22332C98.8878 4.33724 98.8878 4.29236 98.9074 4.26475C98.9107 4.29582 98.9467 4.3338 99.0449 4.36142C99.0155 4.3269 98.9991 4.3027 98.9893 4.28198C98.9991 4.28889 99.0057 4.29236 99.0155 4.30272C99.0089 4.22677 98.9696 4.20605 98.9402 4.21296C98.9238 4.19915 98.9009 4.18188 98.8682 4.16462C99.0417 4.23712 98.9533 4.03346 99.1432 4.1819C99.1988 4.01275 99.0744 3.76417 99.0809 3.59847C99.1857 3.66406 99.2544 3.75728 99.2675 3.82287L99.2872 3.71587C99.4247 3.82979 99.3363 3.82632 99.3461 3.8712C99.6375 3.9575 99.2577 3.49836 99.5425 3.55359L99.4476 3.44314L99.4705 3.45005C99.4116 3.40518 99.3494 3.31884 99.3396 3.28777C99.4738 3.36717 99.6211 3.50874 99.6538 3.45005C99.8044 3.49838 99.68 3.28088 99.6538 3.17387C99.6113 3.18767 99.549 3.12553 99.5163 3.08065C99.5294 3.04958 99.6636 3.12901 99.6244 3.06687L99.7946 3.19114C99.6309 3.08413 99.6734 2.99092 99.6113 2.92878C99.7455 3.00473 99.6898 3.05304 99.7782 3.12899C99.8371 3.00471 99.8077 3.06684 99.8666 2.94602C99.7782 2.79412 99.6996 2.83901 99.572 2.70093C99.572 2.62498 99.4902 2.49037 99.6309 2.50418L99.4672 2.41442C99.4149 2.23491 99.4672 2.18657 99.6604 2.23145C99.2741 1.43401 98.8616 1.11296 98.5637 0.974871C98.2626 0.840238 98.0662 0.888568 98.0662 0.888568C97.5686 0.912732 97.9221 1.35806 97.8272 1.75505L97.8207 1.74123Z" fill="#ACDE45"/>
<path d="M86.3078 14.0826L86.2521 14.0205C86.2685 14.055 86.2848 14.0791 86.3078 14.0826Z" fill="#ACDE45"/>
<path d="M85.5874 11.6973C85.2503 11.756 85.0244 11.4556 84.7789 11.7387C84.6185 11.7801 84.4974 11.932 84.3697 12.0425C84.4123 12.3394 84.1798 12.1322 84.1929 12.3946L84.098 12.2565C84.1013 12.3463 84.0882 12.4119 84.0293 12.3428L84.0129 12.2979C84.0194 12.4326 83.9409 12.3842 83.9441 12.4533L83.9278 12.4084L83.8852 12.4498L83.8689 12.3842C83.8459 12.5396 83.7706 12.581 83.6822 12.5534L83.7608 12.7363C83.5349 12.5948 83.6332 12.9987 83.4073 12.8123L83.3909 12.7674C83.4171 13.3267 83.0014 12.5465 83.0112 13.085C83.0112 13.0194 82.9653 12.9953 82.949 12.9469C82.8901 13.0332 82.818 13.0988 82.9555 13.4613C82.8966 13.482 82.8639 13.3681 82.805 13.23C82.8672 13.3888 82.841 13.4751 82.8017 13.5062V13.4371L82.6904 13.5441L82.8311 13.8341C82.7297 13.7754 82.674 13.4751 82.638 13.5752L82.733 13.8237C82.6184 13.8134 82.422 13.4578 82.2616 13.3128C81.8458 13.3612 81.6658 14.169 81.1518 13.8652L81.07 13.6822C80.9652 13.4095 81.1158 14.131 81.0111 13.879V14.0205C80.9849 13.9757 80.9423 13.9308 80.9423 13.8617C80.8998 13.8652 80.9161 13.9101 80.9161 14.0067L80.8146 13.8514C80.6182 13.7754 80.6052 14.1586 80.4218 14.1517C80.1109 13.8721 79.8588 14.3312 79.7115 14.597C79.5511 15.1217 78.8506 14.131 78.7032 14.7144C78.6803 14.6764 78.6836 14.7765 78.6934 14.8076L78.4053 14.8628C78.4053 14.8628 78.0616 14.9526 77.934 15.2874C77.8063 15.6223 77.8849 16.2092 78.7655 17.1965L78.7785 17.2586C78.9815 17.3553 79.0895 17.3553 79.0993 17.0066C79.2335 17.3795 79.2401 16.9997 79.3154 17.1102L79.3219 17.1412C79.3252 16.8167 79.5936 17.3138 79.6035 17.0239C79.61 17.0549 79.6395 17.1585 79.6198 17.1723C79.6722 17.1033 79.7377 16.9859 79.8097 17.2034C79.9505 17.0895 80.2058 17.1102 80.196 16.7235L80.2091 16.7857C80.1894 16.5302 80.2713 16.7235 80.2974 16.5785C80.3105 16.6061 80.3203 16.62 80.3236 16.6303C80.3105 16.3749 80.4971 16.5267 80.5135 16.4094L80.5659 16.5544L80.6805 16.475L80.6248 16.4612C80.5069 16.0573 80.8016 16.6752 80.8081 16.3852C80.9096 16.4025 80.7001 15.4946 80.8539 15.6568C80.831 15.4566 80.9194 15.9744 80.9325 15.8053C81.0045 16.0124 80.9489 15.9468 81.0209 16.1056C81.0503 15.9848 81.1944 16.2782 81.2238 16.109L81.2828 16.2679C81.2828 15.9365 81.5446 16.4094 81.5119 16.1021C81.5676 15.9295 81.7476 16.5544 81.7443 16.1953L81.8622 16.3956C81.9211 16.4129 81.8 16.116 81.8884 16.2023C81.9342 16.3403 81.9898 16.2851 82.0062 16.4267C82.1961 16.5958 82.1306 16.0297 82.4121 16.3334C82.3499 16.0538 82.4809 16.1815 82.4351 15.9744C82.4809 16.0883 82.5922 15.933 82.5987 16.2161C82.5987 16.2402 82.5856 16.2402 82.5693 16.1953L82.6151 16.3576C82.8082 16.62 82.7133 16.1332 82.8148 16.1436C82.769 16.1022 82.7428 16.1298 82.7264 16.0124L82.8115 16.002L82.8442 16.1401L82.9915 16.1677L82.9163 16.0124C83.0046 16.0746 83.129 16.3438 83.1061 16.0849C83.0865 15.9434 82.9686 15.8881 83.0112 15.8122C83.129 15.8916 83.3058 16.0124 83.4237 16.0193C83.3451 15.8398 83.3746 15.8363 83.3877 15.7846L83.4498 15.9433C83.4695 15.6775 83.6201 16.2782 83.6561 16.0573L83.6888 16.1712L83.5906 15.826C83.5644 15.4704 83.7674 16.1367 83.7052 15.6603C83.6757 15.7052 83.5513 15.3185 83.6299 15.3669L83.6757 15.5257C83.6921 15.4808 83.6757 15.4117 83.7052 15.4359C83.7215 15.5257 83.7805 15.6637 83.8132 15.6189L83.859 15.8225L83.8296 15.5084C83.954 15.6465 83.9671 15.4014 84.0751 15.605C84.0751 15.605 84.2453 15.6568 84.1831 15.4048C84.2158 15.5636 84.3075 15.5878 84.3533 15.7707C84.3206 15.5912 84.3664 15.4117 84.4744 15.5705V15.5947C84.6938 15.7121 84.625 15.2357 84.8411 15.3979C84.7625 15.2184 84.8705 15.2875 84.7592 15.0596C84.7985 14.7697 85.1979 15.4255 84.9491 14.6799C84.9949 14.6143 85.0899 14.8145 85.1357 14.8387V14.8836C85.2274 14.7731 85.2568 14.7489 85.3485 14.7282C85.3616 14.6384 85.2274 14.3001 85.3387 14.3485C85.3714 14.4935 85.391 14.4555 85.4172 14.4417C85.4074 14.4728 85.4238 14.5211 85.4958 14.5936C85.4827 14.5487 85.4827 14.5211 85.4794 14.4969C85.4827 14.5073 85.4892 14.5142 85.4958 14.528C85.522 14.4589 85.4958 14.421 85.4663 14.4141C85.4598 14.3934 85.4467 14.3692 85.4238 14.3347C85.5449 14.4831 85.5547 14.2587 85.6562 14.4831C85.774 14.3623 85.774 14.0827 85.8526 13.9377C85.9148 14.0482 85.9344 14.1655 85.9181 14.2277L85.9835 14.1448C86.0555 14.314 85.977 14.2656 85.9672 14.3105C86.1832 14.5349 86.0523 13.9411 86.2782 14.1344L86.2454 13.9894L86.2618 14.0067C86.229 13.9377 86.2159 13.8272 86.2225 13.7996C86.3043 13.9377 86.3698 14.1379 86.4222 14.0999C86.5302 14.2173 86.5204 13.9687 86.5433 13.8583C86.5007 13.8479 86.4745 13.7651 86.4647 13.7064C86.4909 13.6857 86.5728 13.8238 86.5662 13.7513L86.6579 13.948C86.563 13.7685 86.6415 13.7098 86.6186 13.627C86.7005 13.7651 86.6317 13.7754 86.6742 13.8859C86.779 13.81 86.7266 13.8479 86.8314 13.772C86.8248 13.5924 86.7364 13.5925 86.6873 13.4061C86.7234 13.3405 86.7135 13.1782 86.8281 13.2645L86.7299 13.1023C86.7692 12.9193 86.8347 12.9055 86.9852 13.047C87.0278 12.1529 86.8346 11.6558 86.6382 11.3762C86.4418 11.1 86.2422 11.0414 86.2422 11.0414C85.7871 10.8032 85.8755 11.3797 85.5973 11.6834L85.5874 11.6973Z" fill="#ACDE45"/>
<path d="M70.6472 19.5268L70.6046 19.4542C70.6144 19.4888 70.6275 19.5199 70.6472 19.5268Z" fill="#ACDE45"/>
<path d="M64.398 20.9767C64.398 20.9767 64.398 20.9868 64.398 20.9935C64.398 20.9868 64.4014 20.9801 64.398 20.9767Z" fill="#ACDE45"/>
<path d="M70.3985 17.0376C70.0548 17.0238 69.8846 16.6821 69.5834 16.9133C69.4165 16.9237 69.2659 17.048 69.1186 17.1308C69.1055 17.4346 68.9123 17.186 68.8763 17.4449L68.8076 17.2931C68.7945 17.3828 68.7716 17.445 68.7225 17.3656L68.7159 17.3172C68.6963 17.4519 68.6308 17.3897 68.621 17.4553L68.6112 17.407L68.5621 17.4415V17.3725C68.5064 17.5209 68.4246 17.5485 68.3427 17.5071L68.3886 17.7004C68.1889 17.5174 68.2184 17.9352 68.0252 17.7108L68.0187 17.6624C67.9499 18.2182 67.6684 17.3759 67.5866 17.9076C67.5964 17.842 67.5571 17.8109 67.5473 17.7626C67.4753 17.8385 67.3935 17.8868 67.4687 18.27C67.4066 18.2769 67.3934 18.1595 67.3574 18.0146C67.3934 18.1837 67.3542 18.2631 67.3083 18.2873L67.3181 18.2182L67.1937 18.308L67.2854 18.6187C67.1938 18.5427 67.1872 18.2355 67.1348 18.3287L67.1905 18.5911C67.0792 18.5635 66.9384 18.1768 66.8042 18.0042C66.3787 17.98 66.0808 18.7499 65.6127 18.3667L65.557 18.1733C65.4948 17.8868 65.5374 18.6256 65.4719 18.3598L65.4523 18.5013C65.4293 18.453 65.3933 18.4012 65.4031 18.3322C65.3606 18.3322 65.3704 18.377 65.3573 18.4703L65.2787 18.3011C65.0922 18.1941 65.0234 18.5738 64.8434 18.5358C64.5717 18.2113 64.2574 18.629 64.0741 18.8707C63.845 19.3678 63.2754 18.2873 63.0528 18.8465C63.0364 18.8086 63.0266 18.9052 63.0298 18.9397L62.7352 18.957C62.7352 18.957 61.3113 19.1227 62.8073 21.3183V21.3838C62.9971 21.5046 63.1051 21.5185 63.1575 21.1802C63.2459 21.5668 63.295 21.194 63.3572 21.3113V21.3424C63.403 21.0214 63.606 21.553 63.6518 21.263C63.6518 21.2941 63.6715 21.4011 63.6518 21.4114C63.7107 21.3493 63.7893 21.2423 63.8351 21.4667C63.989 21.3735 64.2345 21.4322 64.2738 21.049V21.1145C64.2934 20.8591 64.3491 21.0628 64.3916 20.9247C64.4015 20.9523 64.408 20.9661 64.4113 20.9799C64.4309 20.7245 64.5946 20.904 64.6273 20.7901L64.6601 20.9385L64.7812 20.8764L64.7255 20.8556C64.6633 20.4379 64.8728 21.0938 64.9154 20.8073C65.0136 20.8418 64.9318 19.9098 65.0594 20.0927C65.066 19.8891 65.0823 20.4138 65.1183 20.2515C65.1609 20.4655 65.1151 20.3931 65.1642 20.5622C65.21 20.4483 65.3115 20.759 65.3606 20.5967L65.3966 20.7624C65.4391 20.4345 65.6323 20.9419 65.6454 20.6347C65.7239 20.4724 65.8123 21.118 65.8582 20.7659L65.9466 20.9834C66.0022 21.011 65.9269 20.6969 65.9989 20.797C66.0251 20.942 66.0873 20.8971 66.084 21.0386C66.2477 21.2354 66.2608 20.6693 66.4932 21.0145C66.4736 20.7279 66.5849 20.8764 66.5685 20.6623C66.598 20.7832 66.7289 20.6485 66.6929 20.9282C66.6897 20.9523 66.6765 20.9488 66.6667 20.904L66.6897 21.0697C66.8402 21.3631 66.8173 20.8626 66.9155 20.8902C66.8795 20.8419 66.8468 20.8626 66.8468 20.7452H66.9319L66.9417 20.8936L67.0792 20.9489L67.0268 20.7797C67.1054 20.8556 67.1839 21.1422 67.2036 20.8833C67.2036 20.7417 67.1021 20.6658 67.1512 20.5967C67.2527 20.6968 67.4098 20.8453 67.5211 20.8729C67.472 20.683 67.5015 20.683 67.5211 20.6382L67.5571 20.8039C67.6193 20.545 67.6717 21.1629 67.7404 20.9558L67.7535 21.0731L67.711 20.7176C67.7404 20.362 67.8354 21.0524 67.8484 20.576C67.8124 20.614 67.7535 20.2101 67.819 20.2722L67.8387 20.4379C67.8616 20.3965 67.855 20.3275 67.8812 20.3551C67.8812 20.4449 67.9205 20.5933 67.9565 20.5553L67.9696 20.7659L67.9892 20.4483C68.0874 20.6071 68.1398 20.3689 68.2118 20.5898C68.2118 20.5898 68.3689 20.6693 68.346 20.4138C68.3526 20.576 68.4377 20.6175 68.4541 20.8039C68.4541 20.6209 68.5228 20.4518 68.6046 20.6313V20.6554C68.7945 20.8108 68.8043 20.3344 68.9909 20.5346C68.9451 20.3413 69.0367 20.431 68.968 20.1859C69.0564 19.9063 69.3314 20.6313 69.2168 19.8511C69.2724 19.7959 69.3314 20.0133 69.3706 20.0444L69.3641 20.0893C69.4688 19.9995 69.5016 19.9823 69.5965 19.9788C69.626 19.8925 69.5539 19.5369 69.6522 19.6025C69.6587 19.751 69.6849 19.7165 69.7144 19.7096C69.7013 19.7372 69.7045 19.7889 69.7667 19.8752C69.7634 19.8304 69.7667 19.8027 69.7667 19.7751C69.7667 19.7855 69.7733 19.7959 69.7765 19.8097C69.8158 19.7475 69.7962 19.7061 69.77 19.6923C69.7667 19.6716 69.7569 19.6439 69.7438 19.606C69.8355 19.7751 69.8846 19.5577 69.9435 19.7993C70.081 19.7061 70.1301 19.4299 70.2316 19.3056C70.2741 19.4265 70.2676 19.5438 70.2447 19.6025L70.3232 19.5335C70.3625 19.713 70.297 19.6509 70.2774 19.6923C70.4476 19.9581 70.428 19.3471 70.608 19.5853L70.6015 19.4368L70.6146 19.4576C70.5982 19.3816 70.6015 19.2746 70.6146 19.2435C70.667 19.3954 70.6931 19.606 70.752 19.5784C70.8339 19.7165 70.8699 19.4679 70.9157 19.3678C70.8764 19.3505 70.8666 19.2608 70.8699 19.2021C70.8994 19.1883 70.9517 19.3402 70.9583 19.2677L71.0107 19.4782C70.955 19.2815 71.0401 19.2435 71.0336 19.1538C71.0859 19.3057 71.0172 19.2988 71.0336 19.4196C71.1514 19.3678 71.0925 19.3954 71.2103 19.3436C71.2398 19.1676 71.1514 19.1468 71.1416 18.9535C71.1907 18.8983 71.2104 18.7361 71.3053 18.8465L71.2398 18.6636C71.3118 18.4909 71.3806 18.4944 71.4984 18.6636C71.9338 16.934 71.1776 16.5405 71.1776 16.5405C70.775 16.2056 70.7422 16.7925 70.4051 17.0307L70.3985 17.0376Z" fill="#ACDE45"/>
<path d="M54.5514 22.7509L54.5154 22.6748C54.5219 22.7129 54.5318 22.7405 54.5514 22.7509Z" fill="#ACDE45"/>
<path d="M48.2534 23.7966C48.2534 23.7966 48.2534 23.8068 48.2501 23.8135C48.2501 23.8068 48.2534 23.8 48.2534 23.7966Z" fill="#ACDE45"/>
<path d="M53.1832 20.241C53.1832 20.241 53.1832 20.2272 53.1867 20.2203V20.241H53.1832Z" fill="#ACDE45"/>
<path d="M54.4827 20.2514C54.1357 20.21 53.9917 19.8544 53.6709 20.0581C53.5007 20.0547 53.3403 20.1686 53.1864 20.2376C53.1537 20.538 52.9769 20.2756 52.9213 20.5311L52.8623 20.3723C52.8427 20.4586 52.8165 20.5207 52.7707 20.4378L52.7641 20.3895C52.7347 20.5207 52.6725 20.4551 52.6594 20.5207L52.6528 20.4724L52.6005 20.5034V20.4344C52.5383 20.5794 52.4564 20.6001 52.3746 20.5518L52.4106 20.7485C52.2207 20.5518 52.224 20.9729 52.044 20.7313L52.0374 20.6829C51.9359 21.2318 51.7002 20.3722 51.5889 20.897C51.602 20.8314 51.5628 20.7969 51.5595 20.7485C51.4842 20.8176 51.3958 20.8625 51.4515 21.2525C51.3893 21.256 51.3827 21.1386 51.3533 20.9902C51.3795 21.1593 51.3336 21.2387 51.2878 21.2595L51.3009 21.1904L51.17 21.2698L51.2452 21.5874C51.1569 21.508 51.17 21.1973 51.111 21.2871L51.1503 21.5529C51.0423 21.5184 50.9212 21.1248 50.7935 20.9418C50.3679 20.8935 50.0275 21.6427 49.5758 21.2353L49.5299 21.0385C49.4808 20.7485 49.4874 21.4873 49.435 21.2215L49.4088 21.363C49.3892 21.3113 49.3531 21.2595 49.3662 21.1904C49.3237 21.187 49.3302 21.2353 49.3139 21.325L49.2451 21.149C49.0618 21.0351 48.9767 21.4079 48.7967 21.363C48.538 21.0247 48.2041 21.4286 48.011 21.6634C47.7622 22.1501 47.2319 21.0454 46.9864 21.5978C46.97 21.5598 46.9569 21.6564 46.9602 21.6875L46.6623 21.6944C46.6623 21.6944 45.2285 21.8118 46.646 24.0591V24.1247C46.8293 24.2525 46.934 24.2731 46.9995 23.9314C47.0715 24.3215 47.137 23.9521 47.1926 24.0729V24.104C47.2483 23.7864 47.4316 24.3215 47.4873 24.0384C47.4873 24.0695 47.5003 24.1799 47.4807 24.1868C47.5429 24.1247 47.6247 24.0246 47.6607 24.2525C47.8179 24.1661 48.0601 24.2352 48.1125 23.852V23.9176C48.1387 23.6621 48.1878 23.8693 48.2369 23.7312C48.2434 23.7622 48.2532 23.776 48.2532 23.7864C48.2827 23.5344 48.4398 23.7174 48.4759 23.6069L48.502 23.7588L48.6264 23.7035L48.5741 23.6794C48.5315 23.2582 48.7083 23.9245 48.7639 23.6414C48.8588 23.6794 48.8196 22.7473 48.9407 22.9337C48.9571 22.73 48.9472 23.2582 48.9931 23.096C49.0258 23.3134 48.9832 23.2375 49.0225 23.4067C49.0716 23.2927 49.16 23.6103 49.2189 23.4515L49.2451 23.6207C49.304 23.2962 49.471 23.814 49.4972 23.5068C49.5823 23.3514 49.6412 23.997 49.7034 23.6483L49.7787 23.8692C49.8311 23.9003 49.7722 23.5827 49.8409 23.6863C49.8573 23.8313 49.9227 23.7898 49.9129 23.9314C50.0635 24.1385 50.1093 23.5724 50.3188 23.9314C50.3123 23.6449 50.4138 23.8002 50.4105 23.5862C50.4334 23.707 50.5709 23.5793 50.5218 23.8589C50.5185 23.8831 50.5022 23.8796 50.4989 23.8313L50.512 24.0004C50.6462 24.3007 50.6495 23.8002 50.7444 23.8347C50.7117 23.7829 50.6789 23.8037 50.6855 23.6863L50.7706 23.6966V23.8382L50.9081 23.9003L50.8655 23.7312C50.9375 23.8106 51.003 24.104 51.0357 23.8451C51.0455 23.7035 50.9441 23.6207 50.9997 23.5551C51.0979 23.6621 51.242 23.8209 51.3533 23.8554C51.314 23.6621 51.3434 23.6656 51.3664 23.6207L51.3958 23.7898C51.4711 23.5378 51.4907 24.1558 51.5693 23.9521L51.5759 24.0729L51.5529 23.7139C51.602 23.3618 51.6577 24.0557 51.697 23.5827C51.6577 23.6172 51.6217 23.2133 51.6839 23.2789L51.6937 23.4446C51.7166 23.4067 51.7166 23.3342 51.7428 23.3652C51.7395 23.455 51.769 23.6034 51.8083 23.5689V23.7795L51.8476 23.4654C51.936 23.6311 52.0014 23.3963 52.0636 23.6207C52.0636 23.6207 52.2142 23.7104 52.2076 23.455C52.2044 23.6172 52.2862 23.6656 52.2928 23.852C52.3026 23.669 52.3811 23.5068 52.4532 23.6898V23.7139C52.6299 23.8831 52.6692 23.4067 52.8394 23.6207C52.8034 23.4239 52.8918 23.5206 52.8394 23.272C52.9442 22.9993 53.1733 23.7415 53.1079 22.9579C53.1668 22.9061 53.2126 23.1271 53.2519 23.1616L53.2421 23.2065C53.3534 23.1236 53.3861 23.1098 53.4778 23.1132C53.5105 23.0304 53.4647 22.6679 53.5563 22.7439C53.5531 22.8923 53.5792 22.8612 53.612 22.8543C53.5956 22.8785 53.5989 22.9337 53.6513 23.0235C53.6513 22.9786 53.6545 22.951 53.6578 22.9268C53.6578 22.9372 53.6611 22.9476 53.6644 22.9614C53.7069 22.9027 53.6906 22.8578 53.6644 22.844C53.6644 22.8232 53.6545 22.7956 53.6414 22.7542C53.72 22.9303 53.7855 22.7197 53.828 22.9648C53.9688 22.8819 54.0375 22.6127 54.1488 22.4953C54.1816 22.6196 54.1685 22.7369 54.1423 22.7922L54.2241 22.7301C54.2503 22.913 54.1881 22.844 54.1685 22.8854C54.3191 23.165 54.342 22.5574 54.5057 22.806V22.6576L54.522 22.6817C54.5089 22.6058 54.522 22.4988 54.5351 22.4711C54.5777 22.6265 54.5908 22.8371 54.6497 22.8164C54.7217 22.9613 54.7741 22.7162 54.8265 22.623C54.7872 22.6023 54.7872 22.5126 54.7905 22.4539C54.8199 22.4435 54.8625 22.5989 54.8756 22.5264L54.9116 22.7404C54.869 22.5402 54.9574 22.5091 54.9574 22.4194C55 22.5747 54.9312 22.5644 54.941 22.6852C55.0622 22.6438 55 22.6644 55.1211 22.6265C55.1604 22.4539 55.0785 22.4262 55.0818 22.2329C55.1342 22.1811 55.1669 22.0224 55.252 22.1398L55.2029 21.9533C55.288 21.7876 55.3568 21.798 55.4582 21.9809C56.0278 20.3032 55.3044 19.8372 55.3044 19.8372C54.9214 19.4678 54.8428 20.0478 54.4893 20.2583L54.4827 20.2514Z" fill="#ACDE45"/>
<path d="M38.4032 25.3365L38.3672 25.2604C38.3737 25.2984 38.3836 25.3261 38.4032 25.3365Z" fill="#ACDE45"/>
<path d="M32.1376 26.4445C32.1376 26.4445 32.1376 26.4546 32.1376 26.4613C32.1376 26.4546 32.1409 26.4478 32.1376 26.4445Z" fill="#ACDE45"/>
<path d="M37.0415 22.8369C37.0415 22.8369 37.0415 22.8232 37.045 22.8163V22.8369H37.0415Z" fill="#ACDE45"/>
<path d="M38.3444 22.8335C37.9974 22.7956 37.8534 22.44 37.5293 22.6506C37.3591 22.6506 37.1954 22.7645 37.0416 22.837C37.0088 23.1373 36.8288 22.8785 36.7764 23.1339L36.7175 22.9785C36.6978 23.0648 36.6717 23.127 36.6258 23.0442L36.6193 22.9958C36.5898 23.127 36.5276 23.0614 36.5145 23.127L36.508 23.0787L36.4556 23.1097V23.0407C36.3934 23.1857 36.3116 23.2098 36.2297 23.1615L36.2657 23.3583C36.0726 23.165 36.0792 23.5827 35.8958 23.3479L35.8893 23.2996C35.7878 23.8519 35.5489 22.9924 35.4408 23.5206C35.4539 23.455 35.4146 23.4204 35.4081 23.3721C35.3328 23.4446 35.2444 23.4894 35.3033 23.8761C35.2411 23.883 35.2346 23.7622 35.2019 23.6137C35.228 23.7829 35.1855 23.8623 35.1397 23.883L35.1528 23.814L35.0218 23.8968L35.1004 24.211C35.012 24.1316 35.0218 23.8243 34.9629 23.9141L35.0054 24.1799C34.8942 24.1454 34.773 23.7518 34.6421 23.5758C34.2133 23.5343 33.8794 24.2869 33.4211 23.883L33.372 23.6862C33.3163 23.3963 33.3359 24.135 33.277 23.8692L33.2541 24.0107C33.2345 23.9624 33.1985 23.9106 33.2083 23.8416C33.1657 23.8381 33.1723 23.8865 33.1559 23.9797L33.0839 23.8071C32.8973 23.6931 32.8187 24.066 32.6354 24.0245C32.3703 23.6897 32.0396 24.097 31.8498 24.3318C31.6108 24.8185 31.0543 23.7242 30.8154 24.2765C30.799 24.2386 30.7859 24.3352 30.7924 24.3663L30.4913 24.3767C30.4913 24.3767 29.0542 24.5078 30.5404 26.7344V26.8001C30.7302 26.9278 30.835 26.945 30.8906 26.6067C30.9725 26.9934 31.0281 26.624 31.087 26.7448V26.7759C31.1361 26.4583 31.3326 26.9899 31.3784 26.7068C31.3784 26.7379 31.3948 26.8449 31.3784 26.8553C31.4373 26.7931 31.5159 26.693 31.5617 26.9174C31.7156 26.8311 31.9611 26.8967 32.0036 26.5135V26.5791C32.0266 26.3237 32.0789 26.5308 32.1248 26.3927C32.1346 26.4203 32.1411 26.4376 32.1411 26.4479C32.1673 26.1959 32.3244 26.3789 32.3604 26.265L32.3899 26.4168L32.5143 26.3582L32.4619 26.334C32.4095 25.9163 32.6027 26.5791 32.6518 26.2926C32.7467 26.3305 32.6878 25.3985 32.8122 25.5849C32.8253 25.3812 32.8253 25.9094 32.8646 25.7471C32.9006 25.9646 32.8548 25.8887 32.9006 26.0578C32.9464 25.9439 33.0413 26.2615 33.097 26.1027L33.1265 26.2719C33.1788 25.9474 33.3556 26.4618 33.3752 26.1545C33.4571 25.9957 33.5258 26.6447 33.5847 26.296L33.6633 26.517C33.7157 26.5446 33.6535 26.2304 33.7222 26.334C33.7419 26.479 33.8073 26.4376 33.7975 26.5791C33.9514 26.7828 33.9874 26.2166 34.2034 26.5722C34.1936 26.2857 34.2984 26.441 34.2885 26.2235C34.3115 26.3444 34.4489 26.2167 34.4031 26.4963C34.3998 26.5204 34.3835 26.517 34.3769 26.4686L34.3933 26.6378C34.5308 26.9347 34.5275 26.4376 34.6225 26.4721C34.5864 26.4203 34.557 26.441 34.5603 26.3237L34.6454 26.3305L34.6519 26.4721L34.7861 26.5342L34.7436 26.3651C34.8156 26.4445 34.8843 26.7344 34.9138 26.4755C34.9236 26.334 34.8221 26.2512 34.8745 26.1856C34.9727 26.2891 35.12 26.4479 35.228 26.4825C35.1888 26.2891 35.215 26.2926 35.2379 26.2477L35.2673 26.4168C35.3393 26.1648 35.3655 26.7828 35.4441 26.5757L35.4539 26.6965L35.4277 26.3374C35.4736 25.9853 35.5358 26.6792 35.5718 26.2028C35.5325 26.2373 35.4932 25.8334 35.5587 25.899L35.5718 26.0648C35.5947 26.0268 35.5947 25.9543 35.6176 25.9853C35.6143 26.0751 35.6438 26.2236 35.6831 26.189V26.3996L35.7191 26.0854C35.8075 26.2512 35.8729 26.013 35.9319 26.2408C35.9319 26.2408 36.0824 26.3305 36.0726 26.0716C36.0726 26.2339 36.1512 26.2788 36.161 26.4686C36.1675 26.2857 36.2494 26.1234 36.3181 26.3064V26.3305C36.4949 26.4962 36.5309 26.0233 36.7011 26.2339C36.6651 26.0371 36.7535 26.1338 36.6978 25.8852C36.7993 25.6125 37.0317 26.3513 36.963 25.5676C37.0219 25.5158 37.0678 25.7368 37.1038 25.7713L37.094 25.8162C37.2053 25.7333 37.238 25.7195 37.3296 25.723C37.3624 25.6402 37.3165 25.2777 37.4082 25.3501C37.4049 25.4986 37.4311 25.4675 37.4639 25.4606C37.4475 25.4848 37.4508 25.54 37.5031 25.6298C37.5031 25.5849 37.5031 25.5573 37.5097 25.5331C37.5097 25.5435 37.513 25.5538 37.5162 25.5676C37.5588 25.5089 37.5424 25.4641 37.5162 25.4503C37.5162 25.4296 37.5064 25.4019 37.4933 25.3605C37.5719 25.5366 37.6341 25.3225 37.6766 25.5676C37.8174 25.4848 37.8861 25.2121 37.9974 25.0947C38.0302 25.219 38.0171 25.3363 37.9876 25.3916L38.0695 25.3295C38.0956 25.5124 38.0334 25.4434 38.0138 25.4848C38.1611 25.761 38.1873 25.1534 38.351 25.4019V25.2535L38.3674 25.2777C38.3543 25.2017 38.3673 25.0913 38.3837 25.0636C38.423 25.219 38.4361 25.4296 38.495 25.4088C38.567 25.5538 38.6194 25.3087 38.6718 25.2121C38.6325 25.1913 38.6325 25.1016 38.639 25.0429C38.6685 25.0325 38.7111 25.1879 38.7242 25.1154L38.7569 25.3295C38.7143 25.1292 38.806 25.0981 38.8027 25.0084C38.842 25.1637 38.7765 25.1534 38.7864 25.2742C38.9042 25.2328 38.8453 25.2535 38.9664 25.2121C39.0089 25.0394 38.9238 25.0118 38.9304 24.8185C38.9828 24.7667 39.0155 24.608 39.1006 24.7253L39.0515 24.5389C39.1399 24.3732 39.2054 24.3835 39.3068 24.5631C39.8895 22.8715 39.1726 22.4158 39.1726 22.4158C38.7929 22.0499 38.7078 22.6333 38.351 22.8474L38.3444 22.8335Z" fill="#ACDE45"/>
<path d="M22.4121 28.4194L22.3696 28.3468C22.3794 28.3814 22.3925 28.4125 22.4121 28.4194Z" fill="#ACDE45"/>
<path d="M22.1766 25.9302C21.823 25.9163 21.6528 25.5746 21.3418 25.8093C21.1716 25.8197 21.0145 25.9508 20.8639 26.0337C20.8541 26.3375 20.6544 26.0924 20.6184 26.3513L20.5464 26.1994C20.5333 26.2891 20.5103 26.3513 20.458 26.2754L20.4481 26.227C20.4318 26.3617 20.3598 26.303 20.3532 26.3686L20.3434 26.3202L20.291 26.3548L20.2845 26.2857C20.2354 26.4341 20.1535 26.4652 20.0651 26.4272L20.1175 26.6206C19.908 26.4445 19.9473 26.8622 19.7443 26.6447L19.7345 26.5964C19.6821 27.1556 19.3679 26.3237 19.3024 26.8622C19.309 26.7966 19.2664 26.7655 19.2566 26.7172C19.1846 26.7966 19.1027 26.8484 19.1977 27.2316C19.1355 27.242 19.1191 27.128 19.0733 26.983C19.1158 27.1487 19.0798 27.2316 19.034 27.2558L19.0405 27.1867L18.9161 27.2834L19.0209 27.5906C18.926 27.5216 18.9063 27.2143 18.8539 27.3075L18.9194 27.5664C18.8048 27.5423 18.6477 27.166 18.5004 27.0038C18.0618 27.0107 17.8032 27.7977 17.3056 27.456L17.2368 27.2661C17.1517 26.983 17.2467 27.7183 17.1615 27.4594L17.1517 27.601C17.1255 27.5526 17.083 27.5078 17.0895 27.4387C17.047 27.4387 17.0568 27.487 17.0535 27.5802L16.9619 27.418C16.7622 27.3317 16.7229 27.7114 16.5363 27.6976C16.2319 27.4042 15.9438 27.853 15.7834 28.1188C15.6033 28.64 14.9094 27.6389 14.7424 28.2292C14.7195 28.1947 14.7228 28.2914 14.7326 28.3224L14.4347 28.3846C14.4347 28.3846 14.0779 28.4813 13.9502 28.823C13.8193 29.1648 13.9306 29.7413 14.8177 30.7148L14.8308 30.7769C15.0305 30.8701 15.1352 30.8701 15.1418 30.5249C15.276 30.8943 15.2793 30.5215 15.3513 30.6285L15.3578 30.6595C15.3578 30.3385 15.623 30.8322 15.6295 30.5456C15.6361 30.5767 15.6655 30.6802 15.6459 30.694C15.695 30.625 15.7605 30.5111 15.8325 30.7286C15.97 30.6181 16.2155 30.6457 16.209 30.2625L16.2188 30.3247C16.2057 30.0692 16.281 30.266 16.3104 30.1245C16.3235 30.1521 16.3301 30.1659 16.3334 30.1762C16.3268 29.9208 16.5036 30.0796 16.5232 29.9622L16.569 30.1072L16.6836 30.0347L16.628 30.0174C16.5265 29.6101 16.7949 30.2419 16.808 29.9519C16.9062 29.976 16.7393 29.0577 16.8833 29.2269C16.8702 29.0232 16.9324 29.5445 16.9553 29.3788C17.0175 29.5894 16.9651 29.5203 17.0273 29.6826C17.0601 29.5618 17.1877 29.8655 17.2237 29.6998L17.2729 29.8621C17.2859 29.5307 17.5184 30.0209 17.5053 29.7137C17.5707 29.548 17.7082 30.1797 17.7246 29.8276L17.8261 30.0382C17.8817 30.0589 17.7835 29.7551 17.8621 29.8483C17.8981 29.9898 17.957 29.9415 17.9636 30.083C18.1371 30.2694 18.1109 29.7033 18.3597 30.0278C18.3204 29.7447 18.4382 29.8863 18.4088 29.6722C18.4448 29.7896 18.5659 29.6481 18.5495 29.9311C18.5495 29.9553 18.5332 29.9553 18.5233 29.907L18.5561 30.0727C18.723 30.3523 18.6674 29.8586 18.7623 29.8828C18.723 29.8379 18.6936 29.8621 18.687 29.7413H18.7721L18.7917 29.8828L18.9292 29.9277L18.8703 29.762C18.9489 29.831 19.0438 30.1141 19.0471 29.8552C19.0405 29.7137 18.9325 29.6411 18.9816 29.5721C19.0896 29.6653 19.2501 29.8069 19.3581 29.831C19.2992 29.6411 19.3286 29.6412 19.345 29.5963L19.3908 29.762C19.4366 29.5031 19.5217 30.1141 19.5774 29.9035L19.597 30.0209L19.5381 29.6653C19.5479 29.3098 19.6756 29.9967 19.6658 29.5169C19.6331 29.5549 19.5545 29.1579 19.6232 29.2166L19.6494 29.3788C19.669 29.3374 19.6625 29.2683 19.6887 29.296C19.6953 29.3857 19.7378 29.5307 19.7738 29.4927L19.7967 29.6998V29.3823C19.9047 29.5376 19.944 29.296 20.0259 29.5134C20.0259 29.5134 20.183 29.5894 20.1503 29.3339C20.1634 29.4962 20.2485 29.5342 20.2714 29.7206C20.2616 29.5376 20.327 29.3684 20.4121 29.5445V29.5687C20.602 29.7171 20.5987 29.2407 20.7853 29.4375C20.7329 29.2476 20.8279 29.3339 20.7526 29.0888C20.8312 28.8092 21.1192 29.5238 20.9883 28.7505C21.0407 28.6918 21.1028 28.9093 21.1454 28.9404L21.1389 28.9853C21.2403 28.8921 21.2731 28.8748 21.3647 28.8714C21.3909 28.7851 21.3156 28.4295 21.4138 28.495C21.4204 28.6435 21.4466 28.609 21.476 28.6021C21.4629 28.6297 21.4695 28.6815 21.5284 28.7678C21.5251 28.7229 21.5284 28.6953 21.5284 28.6677C21.5284 28.678 21.535 28.6884 21.5382 28.7022C21.5742 28.64 21.5579 28.5986 21.5284 28.5848C21.5251 28.5641 21.5153 28.5365 21.4989 28.4985C21.5906 28.6677 21.6364 28.4502 21.6986 28.6918C21.8328 28.5986 21.8787 28.3224 21.9802 28.1982C22.0227 28.319 22.0194 28.4364 21.9932 28.495L22.0685 28.4295C22.1078 28.609 22.0423 28.5468 22.0227 28.5883C22.1896 28.8541 22.17 28.2465 22.3501 28.4813L22.3435 28.3328L22.3566 28.3535C22.3402 28.2776 22.3435 28.1706 22.3566 28.1395C22.409 28.2914 22.4352 28.502 22.4941 28.4778C22.5759 28.6159 22.6119 28.3708 22.6545 28.2707C22.6152 28.2534 22.6054 28.1636 22.6087 28.105C22.6381 28.0911 22.6905 28.2431 22.6971 28.1706L22.7462 28.3811C22.6905 28.1844 22.7789 28.1464 22.7691 28.0566C22.8214 28.2085 22.7527 28.2016 22.7691 28.3224C22.8836 28.2741 22.828 28.2983 22.9426 28.25C22.972 28.0739 22.8869 28.0532 22.8771 27.8599C22.9262 27.8046 22.9491 27.6424 23.0408 27.7563L22.9786 27.5734C23.0539 27.4008 23.1226 27.4076 23.2339 27.5837C23.7086 25.8645 22.9589 25.4503 22.9589 25.4503C22.553 25.1085 22.5039 25.6954 22.1569 25.9336L22.1766 25.9302Z" fill="#ACDE45"/>
<path d="M7.3901 34.1635L7.33118 34.1084C7.35082 34.1394 7.37046 34.1635 7.3901 34.1635Z" fill="#ACDE45"/>
<path d="M2.70892 38.1923C2.70892 38.1923 2.71569 38.2024 2.71906 38.2091C2.71906 38.2024 2.7123 38.1956 2.70892 38.1923Z" fill="#ACDE45"/>
<path d="M5.19693 32.4237C5.19693 32.4237 5.19693 32.41 5.19348 32.4031V32.4237H5.19693Z" fill="#ACDE45"/>
<path d="M6.46033 31.8611C6.10679 31.9612 5.84491 31.6988 5.60267 32.0337C5.43572 32.1027 5.32115 32.2891 5.20003 32.4238C5.28187 32.7137 5.01017 32.5549 5.05927 32.8173L4.94141 32.7034C4.95778 32.7931 4.95451 32.8622 4.87922 32.8104L4.85632 32.769C4.88251 32.9036 4.79411 32.8725 4.80721 32.9416L4.78429 32.9001L4.74501 32.9554L4.71554 32.8932C4.71554 33.0555 4.64681 33.1142 4.54861 33.1107L4.66317 33.2695C4.40129 33.1901 4.58133 33.5664 4.3129 33.4422L4.28671 33.4007C4.42747 33.9462 3.83497 33.2972 3.96264 33.8288C3.94627 33.7632 3.8939 33.7528 3.86771 33.7148C3.82843 33.8184 3.76623 33.9047 3.99211 34.2189C3.93646 34.2569 3.87753 34.1567 3.7826 34.0428C3.88408 34.1774 3.87753 34.2706 3.84479 34.312L3.82515 34.243L3.74332 34.3846L3.9561 34.6193C3.84153 34.5951 3.7073 34.3224 3.69421 34.4329L3.8546 34.6435C3.74003 34.6746 3.4487 34.3984 3.24901 34.3155C2.83 34.5261 2.90857 35.365 2.30952 35.3132L2.16548 35.1785C1.9658 34.968 2.36518 35.579 2.17531 35.3926L2.22768 35.5237C2.18185 35.4961 2.1262 35.4754 2.10001 35.4098C2.06073 35.434 2.09019 35.4685 2.1262 35.5583L1.97234 35.4616C1.74974 35.4927 1.8807 35.8552 1.70393 35.9415C1.29474 35.8517 1.23581 36.4144 1.22599 36.7389C1.27509 37.0185 1.01976 37.0358 0.777517 37.0772C0.535277 37.1186 0.28649 37.1704 0.368328 37.4707C0.329046 37.4535 0.38142 37.5363 0.407608 37.557L0.185012 37.8022C0.185012 37.8022 0.119547 37.8781 0.0671705 38.0058C0.0147943 38.1336 -0.0244958 38.3062 0.0180598 38.4857C0.0966241 38.8585 0.535279 39.2141 1.78249 39.4592L1.82832 39.5006C2.03455 39.4592 2.11312 39.4039 1.9298 39.1243C2.24078 39.3453 2.03455 39.0449 2.1524 39.0898L2.17531 39.1105C2.00182 38.8481 2.47647 39.1071 2.32916 38.8654C2.35207 38.8861 2.43063 38.9551 2.42408 38.9759C2.42408 38.893 2.41754 38.7653 2.59103 38.9068C2.64014 38.7446 2.84964 38.641 2.65323 38.3234L2.69579 38.3717C2.55503 38.1646 2.7187 38.2889 2.6696 38.1577C2.69251 38.175 2.70888 38.1819 2.71543 38.1888C2.58122 37.9782 2.8071 38.0196 2.76454 37.9092L2.87583 38.0093L2.93475 37.8885L2.87911 37.9023C2.59431 37.6054 3.12789 38.0093 3.00022 37.7538C3.09188 37.7262 2.51575 37.0185 2.71871 37.091C2.61395 36.9219 2.91183 37.343 2.85291 37.1877C3.00349 37.3396 2.92495 37.3051 3.05589 37.4155C3.02643 37.2947 3.27848 37.4984 3.23265 37.3361L3.35049 37.4535C3.20973 37.1601 3.63202 37.4742 3.48144 37.2153C3.4618 37.0392 3.86443 37.5294 3.7204 37.2118L3.90372 37.3499C3.95937 37.3465 3.74005 37.1221 3.85135 37.167C3.94301 37.274 3.97245 37.2084 4.0412 37.3292C4.27034 37.419 3.99865 36.9288 4.35218 37.1083C4.19506 36.8736 4.35873 36.9495 4.24415 36.7734C4.32599 36.8632 4.36855 36.6837 4.4733 36.946C4.48312 36.9667 4.47004 36.9737 4.44058 36.9357L4.53878 37.0703C4.80066 37.2533 4.54205 36.8355 4.63698 36.8148C4.5846 36.7907 4.56823 36.8252 4.51258 36.7217L4.58461 36.6837L4.6599 36.8011L4.79738 36.7838L4.67954 36.6595C4.77774 36.6871 4.97416 36.9046 4.87268 36.6733C4.81049 36.5491 4.68608 36.5283 4.69918 36.4455C4.83012 36.4869 5.02653 36.549 5.13128 36.5283C5.00689 36.3799 5.0298 36.3695 5.02653 36.3212L5.13128 36.4524C5.06909 36.1969 5.38335 36.7217 5.34734 36.5076L5.40952 36.6077L5.21967 36.3108C5.09201 35.9829 5.46518 36.5594 5.27532 36.1279C5.25895 36.1762 5.03962 35.8413 5.12473 35.869L5.20984 36.007C5.20984 35.9622 5.18038 35.9 5.21312 35.9173C5.2524 36.0001 5.34734 36.1141 5.36043 36.0658L5.45863 36.2487L5.34407 35.9587C5.49465 36.0623 5.439 35.8241 5.59286 35.9933C5.59286 35.9933 5.75652 36.0036 5.63867 35.7827C5.70742 35.9276 5.79908 35.9311 5.88746 36.0934C5.81217 35.9277 5.8089 35.7481 5.94638 35.8793L5.95294 35.9001C6.17554 35.9726 6.00204 35.5307 6.24101 35.6446C6.12643 35.4858 6.241 35.5341 6.09042 35.3339C6.0675 35.0439 6.57162 35.6135 6.1919 34.9334C6.22136 34.861 6.34903 35.0439 6.39813 35.0577L6.40796 35.1026C6.47016 34.9783 6.49307 34.9541 6.57491 34.9196C6.57164 34.8299 6.38831 34.5227 6.49961 34.5503C6.55198 34.6849 6.56509 34.6469 6.59127 34.6297C6.588 34.6607 6.61092 34.7091 6.69275 34.7678C6.67311 34.7263 6.66655 34.6987 6.66001 34.6745C6.66655 34.6849 6.6731 34.6918 6.67965 34.7056C6.69274 34.6331 6.66329 34.6021 6.63383 34.5986C6.62401 34.5779 6.60763 34.5572 6.58144 34.5261C6.71893 34.6538 6.69274 34.4364 6.82696 34.64C6.91862 34.5088 6.87934 34.2327 6.93827 34.0808C7.01356 34.1809 7.04629 34.2948 7.03974 34.3569L7.08883 34.2706C7.18049 34.4294 7.09866 34.388 7.09539 34.4329C7.33108 34.6331 7.12813 34.0635 7.3671 34.2292L7.31798 34.0912L7.33435 34.1084C7.29507 34.0428 7.26888 33.9358 7.27215 33.9047C7.36381 34.0325 7.45219 34.2223 7.49802 34.1843C7.6126 34.2913 7.5766 34.0463 7.58969 33.9392C7.54714 33.9323 7.51439 33.8495 7.5013 33.7942C7.52422 33.7735 7.61587 33.9047 7.60278 33.8322L7.70753 34.0186C7.59951 33.8495 7.67154 33.7874 7.6388 33.7045C7.73046 33.8357 7.66498 33.8495 7.71409 33.9565C7.80902 33.8771 7.75991 33.9151 7.85485 33.8357C7.8352 33.6596 7.74681 33.6631 7.68462 33.4836C7.71408 33.418 7.69117 33.2557 7.81229 33.3351L7.70426 33.1798C7.73044 32.9934 7.79919 32.9795 7.95305 33.1142C7.95305 32.2201 7.75664 31.723 7.55041 31.4537C7.34418 31.1845 7.13139 31.1465 7.13139 31.1465C6.63709 30.9463 6.73858 31.5262 6.46688 31.868L6.46033 31.8611Z" fill="#ACDE45"/>
</svg>
