<svg width="96" height="11" viewBox="0 0 96 11" fill="none" xmlns="http://www.w3.org/2000/svg">
<g opacity="0.57">
<path d="M0.944336 9.29337C1.23809 9.4769 1.74257 9.49427 2.22151 9.52543C1.85432 9.34883 1.46159 9.2726 0.944336 9.29337Z" fill="#43C554"/>
<path d="M2.23027 9.52881H2.23601C2.23028 9.52881 2.22455 9.52881 2.22168 9.52881C2.22455 9.52881 2.2274 9.52881 2.23027 9.53211V9.52881Z" fill="#43C554"/>
<path d="M95.1496 1.18701C95.0314 1.19047 94.8941 1.19395 94.7568 1.19741C94.8877 1.20434 95.0218 1.20433 95.1496 1.18701Z" fill="#43C554"/>
<path d="M25.4312 10.0414L25.5047 9.7366C26.6413 9.72968 25.8367 10.0864 26.8872 10.0102C27.2991 9.57733 28.6338 10.0517 28.9946 9.82317C28.985 9.8578 29.5022 9.87166 29.4671 10.0067C29.6236 9.77124 29.9971 9.95136 30.3196 9.89249C30.4377 9.8267 30.2334 9.82318 30.144 9.75047L30.888 9.66736C31.1785 9.74354 31.2488 9.88203 30.9359 9.90627C32.8772 9.98938 42.2037 10.2041 44.2951 10.0863C44.0269 9.90974 43.3787 10.0309 43.1361 9.75047C43.6884 9.59464 43.9503 9.80585 44.193 9.63963C44.4069 10.0552 45.4095 9.73659 45.8277 10.159L45.9874 9.9236L46.262 10.0656C48.695 9.81977 46.8175 9.94437 48.9728 9.99977C50.2212 9.96168 50.8151 9.6362 51.508 9.7574C51.4058 9.7574 51.128 9.61201 51.4537 9.54968C51.508 9.75745 52.3158 9.40076 52.4722 9.60852C52.7883 9.58082 53.8133 9.6085 53.4684 9.32455C53.644 9.46653 54.5572 9.5219 54.0144 9.6431C54.3242 9.65002 54.6211 9.69165 54.8446 9.62932L54.4487 9.54968C55.4928 9.50813 56.0611 9.72621 56.738 9.46996L56.3517 9.35921C56.9743 9.3419 57.4979 9.31764 57.7406 9.59812L57.102 9.68469C58.1365 9.67777 58.7591 9.65699 59.6212 9.50809L59.3147 9.50116C60.4131 9.22067 66.1572 8.9852 67.1661 8.63546L66.7 8.42082L67.5685 8.23728C67.4663 8.23728 67.1502 8.94016 67.064 8.87091C68.9287 8.85013 78.6256 8.67357 80.3466 8.819C81.0427 8.93674 80.4711 9.16185 80.4648 9.19647C81.3109 9.11337 80.8288 8.96789 81.5472 8.98521C81.7419 9.0233 81.5057 9.15491 81.3971 9.18607C81.7132 9.16184 82.0038 9.2345 82.0293 9.13408C81.6366 9.05444 81.8026 8.7878 81.6366 8.6112L82.5625 8.632L82.521 8.80167C82.7285 8.80513 83.0447 8.33763 83.9515 8.42766C85.4841 8.50038 87.1476 8.4381 88.6898 8.47619C88.6674 8.57661 88.3418 8.6389 88.0193 8.69777C88.2268 8.70123 88.5397 8.67704 88.7313 8.74976C88.3577 8.5697 89.3763 8.62854 89.0857 8.55236C90.2128 8.13683 91.6752 8.51429 92.6714 8.23035C92.7576 7.85637 94.8011 1.82075 94.8011 1.37752C95.1108 1.38444 95.4173 1.39134 95.5131 1.42943C95.4333 1.32554 94.8266 1.27706 94.5009 1.33593L94.4467 1.57492C93.7027 1.65803 94.271 1.43291 93.5462 1.45022C93.5079 1.25631 94.1753 1.21476 94.7628 1.19398C94.2327 1.17321 93.7059 1.0312 93.4888 1.24242C92.9907 1.16278 93.543 1.00352 92.9459 0.92041C92.5181 0.979277 91.9593 1.16978 91.4676 1.05551L91.4772 1.02084C90.2862 0.820003 89.654 1.31866 88.562 1.12128L88.6802 1.05551C88.2938 0.944697 87.5371 1.0936 86.841 0.975869C87.039 1.01396 87.2114 1.15588 86.7931 1.18012C85.9949 1.05892 85.4489 1.18014 84.8646 1.03124L84.3059 1.22171C81.5248 1.18708 70.5411 1.46758 67.7473 1.49875L67.8558 1.46755C63.5996 1.56797 54.8606 1.5576 50.4639 1.82423C49.7838 1.63724 48.8451 1.68224 48.1362 1.63029C48.5322 1.70648 48.3948 1.84155 48.0883 1.83463C45.9267 1.81385 47.9415 1.9627 45.7543 2.04581C43.2351 2.22241 33.5956 2.03196 31.3605 1.87267C30.16 2.14969 28.6593 1.94191 27.4843 2.11851L27.6024 2.05274C26.338 2.15662 19.1858 1.90735 17.7171 2.00777L17.915 2.04581C16.6347 2.21895 16.8103 1.91772 15.7981 1.82423C15.9322 2.13242 14.8339 2.31247 14.4156 2.33325L14.4315 2.26401C13.7993 2.31595 12.3721 2.58598 11.328 2.631L11.3695 2.46132C10.501 2.64485 8.86625 2.56871 8.24043 2.58949C6.81319 2.52023 4.60687 2.22585 2.69749 2.45439L1.46182 1.9731L1.27982 2.02155C1.27982 2.02155 -0.702992 7.85984 1.81943 9.10297L1.77792 9.27264L2.27602 9.25185C2.8731 9.33495 3.15088 9.13755 3.10937 9.30722L2.28878 9.28651C2.88906 9.33499 2.47079 9.425 2.2409 9.52195C2.49314 9.53927 2.7358 9.55658 2.93696 9.60852C3.0551 9.54273 2.85075 9.53925 2.75496 9.50116C3.07745 9.44229 3.52766 9.28303 3.92359 9.35921C4.53982 9.37306 3.9619 9.63272 4.68031 9.65003C8.47033 9.77815 12.1422 9.97209 15.9737 9.93054C16.06 9.99979 15.9578 9.9998 15.846 10.031C16.9987 9.95825 18.0268 9.98245 19.0773 9.90627C19.3678 9.98245 19.4477 10.0864 19.5339 10.1557C19.3615 10.0137 25.3354 9.99635 25.4312 10.0344V10.0414Z" fill="#43C554"/>
</g>
</svg>
