<svg width="89" height="37" viewBox="0 0 89 37" fill="none" xmlns="http://www.w3.org/2000/svg">
<path d="M88.1044 2.90438L88.0306 2.89758C88.0595 2.91134 88.0884 2.91814 88.1044 2.90438Z" fill="#ACDE45"/>
<path d="M84.0027 7.90112C84.0027 7.90112 84.0027 7.91122 84.006 7.91793C84.006 7.91122 84.006 7.90448 84.0027 7.90112Z" fill="#ACDE45"/>
<path d="M85.6108 2.53931C85.6108 2.53931 85.6045 2.52987 85.5983 2.52673L85.6108 2.53931Z" fill="#ACDE45"/>
<path d="M86.2395 1.69223C86.0507 1.91201 85.7283 1.82266 85.725 2.13516C85.6371 2.23819 85.6403 2.40309 85.611 2.54046C85.7967 2.7362 85.5231 2.69155 85.6664 2.877L85.5296 2.81856C85.5785 2.88381 85.6045 2.93877 85.5231 2.91473L85.4873 2.88731C85.5589 2.98347 85.4808 2.98344 85.5166 3.03152L85.4808 3.00402L85.471 3.05558L85.4254 3.01433C85.484 3.13796 85.4482 3.20325 85.37 3.22385L85.5166 3.32689C85.2821 3.31659 85.5491 3.58785 85.2886 3.53977L85.2561 3.51227C85.5264 3.93811 84.862 3.49859 85.1095 3.91756C85.0802 3.86605 85.0346 3.86262 85.0021 3.83514C84.9988 3.92787 84.963 4.0034 85.2268 4.24035C85.1877 4.27813 85.116 4.1991 85.0118 4.11325C85.1258 4.21627 85.1421 4.29874 85.1226 4.33652L85.09 4.28152L85.0476 4.41206L85.2756 4.59408C85.1714 4.58721 85.0053 4.36395 85.0151 4.4601L85.1909 4.62494C85.0965 4.66615 84.8002 4.44981 84.6145 4.388C84.3117 4.57344 84.4485 5.3152 83.9209 5.22592L83.7906 5.09546C83.6148 4.89628 83.9763 5.45949 83.8069 5.28092L83.8558 5.40106C83.8167 5.37015 83.7678 5.34961 83.7451 5.28779C83.7125 5.30496 83.7385 5.33926 83.7711 5.41825L83.6376 5.31521C83.4552 5.31521 83.5594 5.64148 83.4031 5.68956C83.0644 5.53846 82.9863 5.99862 82.9309 6.27335C82.9309 6.77818 82.081 6.08448 82.094 6.62708C82.0647 6.59961 82.094 6.68546 82.107 6.71294L81.8693 6.82973C81.8693 6.82973 81.5925 6.9808 81.5502 7.31048C81.5144 7.63672 81.687 8.1587 82.6932 8.83523L82.716 8.89023C82.9212 8.92801 83.0254 8.90048 82.9602 8.58454C83.1621 8.88331 83.0872 8.54336 83.1784 8.61892L83.1914 8.64642C83.1231 8.35451 83.4813 8.72883 83.4259 8.4644C83.4389 8.49187 83.4911 8.57425 83.4748 8.59142C83.5073 8.51586 83.5399 8.39229 83.6571 8.564C83.7613 8.41977 84.0023 8.36136 83.8981 8.02137L83.9242 8.07285C83.846 7.84963 83.9665 8.00078 83.9567 7.86342C83.9763 7.88402 83.986 7.89084 83.9925 7.90115C83.9176 7.67792 84.1228 7.75348 84.1098 7.64358L84.1944 7.7535L84.2791 7.64702L84.2238 7.6539C84.0121 7.33452 84.442 7.78787 84.3703 7.52687C84.4713 7.5097 84.0316 6.77474 84.2107 6.86746C84.1358 6.69575 84.3573 7.12504 84.3247 6.97394C84.4485 7.13191 84.3768 7.09411 84.4875 7.20744C84.4778 7.09068 84.6927 7.30018 84.6699 7.14221L84.7676 7.26244C84.6699 6.97053 85.0444 7.29673 84.9272 7.03573C84.9272 6.86402 85.2724 7.3448 85.1616 7.03229L85.3277 7.16283C85.3863 7.15596 85.1877 6.94304 85.2951 6.98425C85.3766 7.08727 85.4124 7.01857 85.471 7.13533C85.6957 7.20745 85.4645 6.74385 85.8064 6.88808C85.6599 6.67173 85.8194 6.7267 85.712 6.56529C85.7901 6.64428 85.839 6.46224 85.9367 6.70606C85.9432 6.72667 85.9334 6.73353 85.9041 6.69919L85.9986 6.81942C86.2591 6.96365 86.0148 6.58245 86.1093 6.5481C86.0572 6.53093 86.0376 6.56528 85.9855 6.47256L86.0572 6.42444L86.1321 6.53092L86.2721 6.48975L86.1516 6.39015C86.2493 6.40388 86.4545 6.579 86.3437 6.36264C86.2786 6.24932 86.1549 6.25617 86.1646 6.17031C86.2949 6.18748 86.4968 6.20816 86.6043 6.16008C86.4707 6.04332 86.4935 6.02614 86.487 5.97806L86.601 6.08102C86.5196 5.84406 86.8745 6.28371 86.8257 6.07423L86.8973 6.15665L86.6824 5.91275C86.5261 5.62428 86.9527 6.08795 86.7215 5.71706C86.7117 5.76857 86.4577 5.50411 86.5424 5.50754L86.6433 5.61746C86.6401 5.57281 86.601 5.52473 86.6368 5.52817C86.6857 5.59685 86.7899 5.67928 86.7996 5.62777L86.9169 5.77542L86.7671 5.52473C86.9299 5.57967 86.842 5.36328 87.0178 5.48004C87.0178 5.48004 87.1839 5.432 87.0276 5.25685C87.1188 5.37018 87.21 5.34274 87.3239 5.46637C87.223 5.33244 87.1872 5.16067 87.3467 5.23279L87.3565 5.25342C87.5942 5.22938 87.3305 4.87219 87.5845 4.87906C87.4379 4.77604 87.5617 4.77263 87.3663 4.65244C87.2686 4.39831 87.8971 4.69023 87.3533 4.23692C87.3565 4.15793 87.5291 4.26097 87.5779 4.25067L87.6007 4.28496C87.6203 4.14072 87.6333 4.10639 87.6984 4.03427C87.6659 3.95528 87.3956 3.77333 87.5063 3.74585C87.6007 3.83858 87.5975 3.7973 87.6138 3.76983C87.6203 3.7973 87.6594 3.82828 87.7505 3.83858C87.718 3.81111 87.7017 3.79044 87.6887 3.77327C87.6984 3.7767 87.7049 3.78015 87.7147 3.79046C87.7017 3.71834 87.6626 3.70805 87.6366 3.71835C87.6203 3.70805 87.5975 3.69428 87.5649 3.68398C87.731 3.72175 87.6268 3.54323 87.8189 3.65312C87.8515 3.48485 87.7049 3.26847 87.6887 3.11394C87.7961 3.15515 87.871 3.2307 87.8906 3.28564C87.8906 3.2513 87.8971 3.21694 87.8971 3.1826C88.0404 3.26159 87.9557 3.27881 87.972 3.32002C88.2586 3.34406 87.8385 2.98347 88.1088 2.9766L88.0045 2.89419H88.0273C87.9655 2.86671 87.8938 2.79799 87.8841 2.77052C88.0208 2.8186 88.1772 2.91818 88.1967 2.85294C88.34 2.86324 88.1967 2.68809 88.1511 2.59194C88.1153 2.61597 88.0501 2.57136 88.0078 2.53702C88.0143 2.50611 88.1511 2.54728 88.1055 2.49921L88.2813 2.57475C88.112 2.51293 88.1348 2.4134 88.0664 2.37219C88.2032 2.4134 88.1609 2.46832 88.2553 2.51983C88.2879 2.38933 88.2716 2.45456 88.3009 2.32406C88.1934 2.20386 88.1283 2.2657 87.985 2.16954C87.972 2.09742 87.8678 1.99437 88.0013 1.97377L87.8352 1.92916C87.7505 1.77806 87.7864 1.72307 87.972 1.71277C87.4444 1.09118 86.9983 0.936684 86.6987 0.892039C86.3991 0.850829 86.2395 0.929768 86.2395 0.929768C85.8129 1.0431 86.233 1.33164 86.2363 1.68879L86.2395 1.69223Z" fill="#ACDE45"/>
<path d="M75.4862 12.2242L75.4413 12.1633C75.4509 12.1938 75.467 12.2208 75.4862 12.2242Z" fill="#ACDE45"/>
<path d="M75.0504 9.95466C74.7345 9.97526 74.5554 9.6731 74.2982 9.91006C74.1484 9.93409 74.0181 10.0611 73.8911 10.147C73.9009 10.4252 73.7088 10.2123 73.6957 10.4527L73.6208 10.3187C73.6143 10.4011 73.598 10.4629 73.5492 10.3908L73.5394 10.3496C73.5329 10.4733 73.4678 10.4217 73.4613 10.4835L73.4515 10.4389L73.4092 10.4732L73.3994 10.4114C73.3636 10.5522 73.2919 10.5831 73.2105 10.5522L73.2659 10.7273C73.0705 10.5728 73.1258 10.9575 72.9337 10.7617L72.9239 10.717C72.8979 11.2356 72.5853 10.4766 72.5462 10.9712C72.5494 10.9093 72.5104 10.8819 72.5006 10.8407C72.4387 10.9163 72.3671 10.9643 72.4615 11.3146C72.4062 11.3283 72.3866 11.2184 72.341 11.088C72.3834 11.2391 72.354 11.318 72.3117 11.3421V11.2768L72.2075 11.3661L72.3117 11.6478C72.2238 11.5859 72.1977 11.3009 72.1554 11.3902L72.2205 11.6306C72.1163 11.61 71.9665 11.2666 71.8298 11.1155C71.439 11.1223 71.2013 11.8435 70.7486 11.5172L70.6867 11.3421C70.6118 11.0811 70.6932 11.7576 70.6183 11.5172L70.6086 11.6478C70.5858 11.6031 70.5467 11.5584 70.5532 11.4966C70.5141 11.4966 70.5239 11.5413 70.5174 11.6271L70.436 11.4761C70.2569 11.3902 70.2145 11.7405 70.0452 11.7199C69.7749 11.4383 69.5079 11.8435 69.3548 12.077C69.1725 12.551 68.583 11.5928 68.4104 12.1251C68.3909 12.0907 68.3876 12.18 68.3974 12.2109L68.1239 12.2487C68.1239 12.2487 66.8213 12.5097 68.329 14.426L68.3355 14.4844C68.5146 14.584 68.6156 14.5874 68.6449 14.268C68.7491 14.6183 68.7719 14.268 68.837 14.3745V14.4053C68.8631 14.1066 69.0813 14.5805 69.1041 14.3127C69.1073 14.3402 69.1301 14.4397 69.1106 14.45C69.1627 14.3882 69.2278 14.2851 69.2832 14.4912C69.42 14.395 69.6512 14.4328 69.6642 14.0757L69.6707 14.1341C69.6707 13.8971 69.7326 14.0826 69.7651 13.9521C69.7749 13.9796 69.7847 13.9898 69.7847 14.0036C69.7879 13.7666 69.9475 13.9211 69.9736 13.8147L70.0126 13.9521L70.1234 13.8868L70.0712 13.8697C69.9898 13.4885 70.2211 14.0791 70.2439 13.8112C70.335 13.8353 70.2048 12.9836 70.335 13.145C70.3285 12.9561 70.3741 13.4403 70.3969 13.2892C70.449 13.485 70.4002 13.4197 70.4555 13.5708C70.4881 13.461 70.6021 13.746 70.6411 13.5915L70.6835 13.7426C70.7063 13.4369 70.9114 13.8937 70.9049 13.6087C70.97 13.4541 71.0873 14.0448 71.1101 13.7151L71.2045 13.9108C71.2566 13.9314 71.1687 13.6498 71.2436 13.7357C71.2761 13.8662 71.3315 13.8216 71.3348 13.9555C71.4976 14.1272 71.478 13.6052 71.7125 13.9074C71.6767 13.6464 71.7874 13.7769 71.7614 13.5777C71.7939 13.6876 71.9112 13.5537 71.8916 13.8181C71.8916 13.8387 71.8753 13.8388 71.8656 13.7976L71.8949 13.9486C72.0512 14.2096 72.0024 13.7495 72.0935 13.7735C72.0577 13.7288 72.0284 13.7528 72.0219 13.643H72.1033L72.1228 13.7735L72.2531 13.8147L72.1977 13.6636C72.2726 13.7288 72.3638 13.9898 72.3671 13.7494C72.3606 13.6189 72.2596 13.5537 72.3052 13.4884C72.4061 13.5743 72.5592 13.7013 72.6667 13.7185C72.6113 13.5468 72.6374 13.5434 72.6536 13.5022L72.6992 13.6533C72.7416 13.4129 72.8262 13.9761 72.8783 13.7804L72.8979 13.8902L72.836 13.564C72.8425 13.2343 72.9695 13.8662 72.9565 13.4232C72.9239 13.461 72.8458 13.0935 72.9109 13.145L72.9402 13.2961C72.9565 13.2583 72.95 13.1931 72.976 13.2171C72.9825 13.2995 73.0281 13.4335 73.0574 13.3957L73.0835 13.588V13.2961C73.1845 13.4369 73.217 13.2103 73.2984 13.4095C73.2984 13.4095 73.4482 13.4713 73.4124 13.2377C73.4287 13.3854 73.5101 13.4198 73.5394 13.5915C73.5264 13.4232 73.5817 13.2618 73.6697 13.4198V13.4404C73.8553 13.5709 73.8358 13.1278 74.0214 13.2961C73.966 13.121 74.0572 13.1965 73.9758 12.9767C74.0377 12.7123 74.3438 13.3579 74.1842 12.6471C74.2298 12.5887 74.3014 12.7879 74.3405 12.8119V12.8532C74.4284 12.7604 74.4577 12.7432 74.5457 12.7329C74.5652 12.6505 74.474 12.3277 74.5685 12.3826C74.5847 12.52 74.6075 12.4857 74.6336 12.4754C74.6238 12.5028 74.6336 12.5509 74.6922 12.623C74.6857 12.5818 74.6857 12.5543 74.6857 12.5337C74.6889 12.544 74.6922 12.5509 74.6955 12.5647C74.728 12.5028 74.7052 12.4685 74.6792 12.4582C74.6727 12.4376 74.6662 12.4135 74.6466 12.3792C74.7443 12.5303 74.7736 12.3242 74.8453 12.5406C74.9658 12.4444 74.9918 12.1835 75.0765 12.0598C75.1253 12.1697 75.1286 12.2762 75.1123 12.3312L75.1807 12.2624C75.2295 12.4238 75.1644 12.3724 75.1514 12.4136C75.3305 12.6437 75.2654 12.0839 75.451 12.283L75.4347 12.1457L75.4477 12.1629C75.4249 12.0942 75.4217 11.9946 75.4314 11.9671C75.4933 12.1011 75.5356 12.2933 75.5877 12.2624C75.6757 12.3826 75.6887 12.1491 75.7213 12.053C75.6822 12.0392 75.6659 11.9603 75.6659 11.9053C75.6919 11.8916 75.7538 12.0255 75.7538 11.9568L75.819 12.1457C75.7506 11.9706 75.8287 11.9259 75.8124 11.8469C75.8743 11.9808 75.8124 11.9842 75.8385 12.0907C75.9427 12.0323 75.8906 12.0632 75.9948 12.0048C76.0046 11.84 75.9264 11.8298 75.8971 11.6546C75.9362 11.5997 75.9427 11.4486 76.0404 11.5413L75.9655 11.3799C76.0176 11.215 76.0827 11.2116 76.2032 11.3558C76.327 10.5385 76.1967 10.0577 76.0469 9.78295C75.8938 9.50822 75.7148 9.43266 75.7148 9.43266C75.3175 9.16479 75.3435 9.70397 75.0602 9.95466H75.0504Z" fill="#ACDE45"/>
<path d="M60.7831 16.2761L60.7446 16.2083C60.751 16.2421 60.7639 16.2693 60.7831 16.2761Z" fill="#ACDE45"/>
<path d="M60.5981 13.9693C60.2789 13.9522 60.1291 13.6293 59.8426 13.8388C59.6863 13.8457 59.543 13.959 59.4062 14.0311C59.3899 14.3093 59.2141 14.0758 59.1782 14.3162L59.1164 14.1753C59.1033 14.2578 59.0805 14.3161 59.0349 14.2406L59.0284 14.196C59.0089 14.3196 58.947 14.2612 58.9373 14.323L58.9307 14.2784L58.8819 14.3093V14.244C58.8298 14.3814 58.7549 14.4054 58.6767 14.3642L58.7191 14.5428C58.5367 14.3711 58.5562 14.7592 58.3804 14.5428L58.3739 14.4981C58.3022 15.0133 58.0515 14.2269 57.9701 14.718C57.9799 14.6561 57.944 14.6252 57.9375 14.5805C57.8691 14.6492 57.791 14.6939 57.8594 15.0511C57.8007 15.0579 57.791 14.9481 57.7584 14.8141C57.7877 14.9687 57.7519 15.0442 57.7096 15.0648L57.7193 14.9996L57.6021 15.0786L57.6835 15.367C57.5988 15.2949 57.5988 15.0098 57.5467 15.0957L57.5923 15.3396C57.4914 15.3121 57.3644 14.9515 57.2406 14.7901C56.8466 14.7626 56.56 15.47 56.1302 15.1094L56.0813 14.9274C56.0259 14.6595 56.0585 15.3429 55.9999 15.0991L55.9804 15.2296C55.9608 15.185 55.9283 15.1369 55.9348 15.0717C55.8957 15.0717 55.9022 15.1129 55.8892 15.1987L55.8175 15.0408C55.6449 14.9412 55.5798 15.2881 55.4105 15.2537C55.163 14.9515 54.8667 15.3327 54.6941 15.5524C54.4759 16.0092 53.9613 15.003 53.7464 15.5181C53.7301 15.4804 53.7204 15.5731 53.7269 15.604L53.4533 15.6177C53.4533 15.6177 52.1312 15.7551 53.4957 17.8018V17.8602C53.6715 17.977 53.7692 17.9907 53.8213 17.6747C53.8995 18.0319 53.9483 17.6885 54.0037 17.7984V17.8293C54.0493 17.534 54.2316 18.025 54.2772 17.7606C54.2772 17.7915 54.2935 17.8911 54.2772 17.898C54.3326 17.8396 54.4075 17.7434 54.4466 17.9529C54.5898 17.8705 54.8178 17.9255 54.8569 17.5718V17.6301C54.8764 17.3932 54.9253 17.582 54.9676 17.455C54.9774 17.4825 54.9839 17.4962 54.9839 17.5065C55.0067 17.2695 55.1532 17.4378 55.1858 17.3313L55.2118 17.4687L55.3258 17.4137L55.277 17.3932C55.2249 17.0051 55.4105 17.6164 55.4528 17.3519C55.544 17.3828 55.4756 16.5209 55.5928 16.6926C55.6026 16.5037 55.6091 16.9914 55.6449 16.8403C55.684 17.0394 55.6384 16.9708 55.684 17.1288C55.7264 17.0223 55.8175 17.3141 55.8664 17.163L55.8957 17.3176C55.9413 17.0154 56.1106 17.4859 56.1269 17.2009C56.2018 17.0532 56.2767 17.6507 56.3223 17.3244L56.4005 17.5271C56.4493 17.5511 56.3842 17.2627 56.4526 17.3554C56.4721 17.4893 56.534 17.4481 56.5275 17.582C56.674 17.7674 56.6968 17.2421 56.9052 17.5649C56.8889 17.3005 56.9899 17.4378 56.9768 17.242C57.0029 17.3519 57.1267 17.2318 57.0908 17.4928C57.0876 17.5134 57.0745 17.5134 57.068 17.4687L57.0876 17.6233C57.2243 17.8946 57.2081 17.4344 57.2993 17.4619C57.2667 17.4172 57.2374 17.4378 57.2374 17.3279H57.3155L57.322 17.4653L57.449 17.5168L57.4034 17.3623C57.4751 17.4309 57.5435 17.6988 57.563 17.4619C57.5663 17.3314 57.4718 17.2592 57.5207 17.1974C57.6151 17.2901 57.7551 17.4309 57.8594 17.4584C57.817 17.2798 57.8431 17.2832 57.8594 17.2386L57.8919 17.3932C57.9505 17.1562 57.9929 17.7263 58.0613 17.534L58.0743 17.6439L58.0385 17.3142C58.071 16.988 58.1492 17.6267 58.1687 17.1837C58.1329 17.218 58.0841 16.8437 58.1459 16.902L58.1622 17.0532C58.1817 17.0154 58.1785 16.9502 58.2045 16.9777C58.2045 17.0635 58.2371 17.1974 58.2729 17.163L58.2827 17.3554L58.3055 17.0635C58.3934 17.2112 58.4455 16.9914 58.5107 17.1974C58.5107 17.1974 58.6539 17.273 58.6377 17.036C58.6377 17.1837 58.7191 17.2249 58.7321 17.4001C58.7321 17.2318 58.8005 17.0772 58.8721 17.242V17.2626C59.0447 17.4103 59.061 16.9673 59.2303 17.1562C59.188 16.9776 59.2759 17.06 59.2141 16.8334C59.2987 16.5792 59.543 17.2489 59.4485 16.5278C59.5006 16.4763 59.5527 16.6789 59.5886 16.7098L59.582 16.751C59.6797 16.6685 59.7123 16.6548 59.797 16.6514C59.823 16.5724 59.7644 16.2427 59.8556 16.3045C59.8556 16.4419 59.8816 16.411 59.9109 16.4041C59.8979 16.4281 59.9012 16.4796 59.9565 16.5586C59.9565 16.5174 59.9565 16.4899 59.9565 16.4659C59.9565 16.4762 59.9631 16.4831 59.9631 16.4968C59.9989 16.4385 59.9826 16.4007 59.9598 16.3869C59.9598 16.3663 59.95 16.3423 59.937 16.3079C60.0184 16.4659 60.0673 16.2667 60.1194 16.49C60.2464 16.4075 60.2985 16.1534 60.3962 16.0401C60.432 16.1534 60.4255 16.2633 60.4027 16.3148L60.4743 16.253C60.5069 16.4213 60.4483 16.3595 60.4287 16.3972C60.5818 16.6445 60.572 16.0813 60.7381 16.3045V16.1672L60.7446 16.1878C60.7316 16.1191 60.7348 16.0161 60.7479 15.992C60.7935 16.1328 60.8162 16.3285 60.8684 16.3045C60.94 16.435 60.9791 16.205 61.0214 16.1123C60.9856 16.0951 60.9791 16.0126 60.9823 15.9576C61.0084 15.9473 61.054 16.0882 61.0638 16.0195L61.1061 16.2152C61.0572 16.0332 61.1386 15.9989 61.1321 15.9165C61.1777 16.0573 61.1158 16.0504 61.1321 16.1637C61.2396 16.1191 61.1875 16.1431 61.295 16.0985C61.3243 15.9371 61.2461 15.9165 61.2396 15.7379C61.2852 15.6864 61.308 15.5387 61.3926 15.6417L61.3373 15.4735C61.4089 15.3155 61.4708 15.3224 61.575 15.4838C62.0147 13.8938 61.3243 13.5126 61.3243 13.5126C60.9563 13.1966 60.914 13.7358 60.5981 13.9521V13.9693Z" fill="#ACDE45"/>
<path d="M45.8425 19.0133L45.8104 18.9456C45.8136 18.9794 45.8233 19.0065 45.8425 19.0133Z" fill="#ACDE45"/>
<path d="M39.9946 19.8248C39.9946 19.8248 39.9946 19.8349 39.9912 19.8416C39.9912 19.8349 39.9946 19.8315 39.9946 19.8248Z" fill="#ACDE45"/>
<path d="M44.6252 16.6579C44.6252 16.6579 44.6252 16.6478 44.6285 16.6377V16.6579H44.6252Z" fill="#ACDE45"/>
<path d="M45.8236 16.7031C45.5045 16.6551 45.3775 16.3253 45.0746 16.5074C44.9183 16.5005 44.7652 16.6001 44.622 16.6619C44.5861 16.9366 44.4266 16.6928 44.3712 16.9263L44.3191 16.7787C44.2996 16.8577 44.2735 16.916 44.2345 16.837V16.7924C44.2019 16.9126 44.1465 16.8508 44.1302 16.9126V16.868L44.0781 16.8954V16.8302C44.0195 16.9606 43.9446 16.9813 43.8665 16.9332L43.8958 17.1152C43.7232 16.9298 43.7199 17.3178 43.5571 17.0912V17.0465C43.4496 17.5514 43.2477 16.7512 43.1338 17.2354C43.1468 17.1736 43.1142 17.1427 43.1077 17.098C43.0361 17.1598 42.9546 17.2011 43.0002 17.5582C42.9416 17.5582 42.9384 17.4518 42.9156 17.3144C42.9351 17.4724 42.8928 17.5445 42.8504 17.5617L42.8635 17.4964L42.743 17.5685L42.8049 17.8638C42.7267 17.7883 42.743 17.5032 42.6844 17.5822L42.7169 17.8295C42.616 17.7952 42.515 17.4277 42.3978 17.256C42.0038 17.201 41.6748 17.8844 41.2678 17.4998L41.2287 17.3179C41.1896 17.0466 41.1799 17.7334 41.1375 17.4827L41.1115 17.6132C41.0952 17.5651 41.0626 17.517 41.0757 17.4552C41.0366 17.4483 41.0398 17.493 41.0235 17.5789L40.9617 17.4174C40.7956 17.3075 40.7077 17.6475 40.5416 17.6028C40.3104 17.2835 39.9912 17.6475 39.8089 17.8604C39.5679 18.3034 39.1022 17.2697 38.8612 17.7745C38.8482 17.7368 38.8319 17.8261 38.8352 17.857H38.5584C38.5584 17.857 37.2297 17.9291 38.4965 20.0411V20.0995C38.6626 20.2231 38.7603 20.2437 38.8287 19.9312C38.8873 20.2918 38.9557 19.9519 39.0045 20.0652V20.096C39.0631 19.8041 39.2195 20.3021 39.2781 20.0411C39.2781 20.072 39.2878 20.1716 39.2683 20.1785C39.3269 20.1235 39.4051 20.0308 39.4344 20.2437C39.5809 20.1681 39.8056 20.2369 39.861 19.8866V19.945C39.8903 19.708 39.9294 19.9003 39.9782 19.7767C39.9847 19.8042 39.9912 19.8179 39.9912 19.8282C40.0238 19.5946 40.1638 19.7698 40.1997 19.6668L40.2192 19.8076L40.3364 19.7595L40.2876 19.7354C40.255 19.3474 40.4081 19.9656 40.4667 19.7046C40.5546 19.7424 40.5351 18.8769 40.6425 19.0555C40.6621 18.87 40.6425 19.3543 40.6849 19.2067C40.7109 19.4093 40.6719 19.3371 40.7077 19.4951C40.7565 19.392 40.8314 19.6874 40.8868 19.5432L40.9096 19.7012C40.9714 19.4024 41.1147 19.8831 41.1473 19.6015C41.2287 19.4573 41.271 20.0583 41.3362 19.7389L41.4013 19.945C41.4502 19.9724 41.4013 19.6805 41.4632 19.7767C41.4762 19.9106 41.5381 19.8763 41.5251 20.0068C41.6618 20.2025 41.7139 19.6805 41.9028 20.0136C41.9028 19.7492 41.994 19.8935 41.994 19.6943C42.0135 19.8076 42.1438 19.6943 42.0917 19.9518C42.0884 19.9724 42.0754 19.9724 42.0689 19.9278L42.0786 20.0823C42.1991 20.3639 42.2089 19.9003 42.2968 19.9347C42.2675 19.8866 42.235 19.9038 42.2447 19.7973L42.3229 19.8076V19.9415L42.4466 20.0033L42.4108 19.8454C42.4759 19.9209 42.5313 20.1922 42.5639 19.9553C42.5769 19.8248 42.4825 19.7458 42.5378 19.6874C42.6257 19.787 42.7593 19.9381 42.8602 19.9725C42.8276 19.7939 42.8537 19.7973 42.8765 19.7561L42.8993 19.914C42.9709 19.6805 42.9807 20.2541 43.0588 20.0686L43.0654 20.1785L43.0491 19.8454C43.1012 19.5225 43.1403 20.1648 43.1859 19.7252C43.15 19.7561 43.124 19.3818 43.1793 19.4436L43.1859 19.5981C43.2087 19.5638 43.2087 19.4985 43.2315 19.526C43.2249 19.6084 43.251 19.7492 43.2868 19.7183V19.9106L43.3226 19.6222C43.4008 19.7767 43.4659 19.5603 43.518 19.7698C43.518 19.7698 43.6548 19.8591 43.6548 19.6187C43.6483 19.7664 43.7232 19.8144 43.7264 19.9861C43.7362 19.8179 43.8144 19.6702 43.8762 19.8385V19.8591C44.0358 20.0205 44.0814 19.581 44.2377 19.7836C44.2084 19.6016 44.2898 19.6909 44.241 19.4608C44.3419 19.2135 44.5406 19.9038 44.495 19.1757C44.5503 19.1276 44.5861 19.3337 44.622 19.368L44.6122 19.4092C44.7164 19.3337 44.749 19.3234 44.8336 19.3302C44.8662 19.2547 44.8304 18.9181 44.9151 18.9903C44.9085 19.1276 44.9346 19.0967 44.9639 19.0933C44.9476 19.1173 44.9509 19.1654 44.9965 19.2513C44.9965 19.21 44.9997 19.1826 45.0062 19.162C45.0062 19.1723 45.0095 19.1792 45.0127 19.1963C45.0518 19.1414 45.0388 19.1036 45.0127 19.0864C45.0127 19.0658 45.0062 19.0418 44.9932 19.004C45.0648 19.1688 45.1267 18.9731 45.1625 19.2032C45.2961 19.1311 45.3645 18.8804 45.4687 18.7774C45.498 18.8941 45.485 19.0005 45.4556 19.052L45.5338 18.9971C45.5566 19.1654 45.498 19.1001 45.4784 19.1379C45.6119 19.3989 45.6445 18.8391 45.7911 19.0727L45.7976 18.9353L45.8073 18.9559C45.7976 18.8838 45.8106 18.7842 45.8236 18.7602C45.8594 18.9044 45.866 19.1002 45.9213 19.083C45.9864 19.2204 46.0385 18.9937 46.0874 18.9078C46.0516 18.8872 46.0516 18.8048 46.0581 18.7499C46.0874 18.7396 46.12 18.8872 46.1362 18.8185L46.1656 19.0178C46.1297 18.8323 46.2144 18.8048 46.2144 18.7224C46.2502 18.8666 46.1883 18.8563 46.1949 18.9662C46.3056 18.9319 46.2502 18.9491 46.3609 18.9147C46.4033 18.7567 46.3251 18.7292 46.3316 18.5507C46.3805 18.506 46.413 18.3584 46.4912 18.4717L46.4489 18.2965C46.5303 18.1454 46.5954 18.1592 46.6866 18.3275C47.2434 16.7855 46.5824 16.3425 46.5824 16.3425C46.2372 15.9922 46.1525 16.5246 45.8204 16.71L45.8236 16.7031Z" fill="#ACDE45"/>
<path d="M30.8854 21.0943L30.8533 21.0265C30.8598 21.0604 30.8694 21.0875 30.8854 21.0943Z" fill="#ACDE45"/>
<path d="M30.8306 18.7805C30.5082 18.7427 30.3747 18.4165 30.0719 18.6088C29.9123 18.6088 29.7625 18.7153 29.6192 18.7805C29.5899 19.0587 29.4238 18.8182 29.3717 19.0552L29.3164 18.911C29.3001 18.9934 29.274 19.0483 29.2317 18.9728L29.2252 18.9282C29.1991 19.0484 29.1405 18.9899 29.1275 19.0517L29.121 19.0071L29.0721 19.0346V18.9693C29.0135 19.1033 28.9386 19.1239 28.8605 19.0827L28.8963 19.2647C28.7172 19.0861 28.7237 19.4742 28.5511 19.2578L28.5446 19.2131C28.4567 19.7248 28.2254 18.935 28.1278 19.4227C28.1408 19.3608 28.1017 19.33 28.0984 19.2853C28.0268 19.3506 27.9486 19.3952 28.0073 19.7523C27.9486 19.7592 27.9421 19.6493 27.9096 19.512C27.9356 19.6699 27.8965 19.742 27.8542 19.7626L27.864 19.6974L27.7435 19.7764L27.8184 20.0683C27.737 19.9962 27.7402 19.7112 27.6849 19.797L27.7272 20.0408C27.623 20.0099 27.5058 19.6493 27.382 19.4879C26.9815 19.457 26.6851 20.1645 26.252 19.8073L26.2032 19.6253C26.1445 19.3574 26.1804 20.0443 26.1185 19.797L26.099 19.9275C26.0794 19.8828 26.0436 19.8348 26.0534 19.773C26.0143 19.773 26.0208 19.8141 26.0078 19.9L25.9361 19.742C25.7603 19.6459 25.6952 19.9928 25.5226 19.9618C25.2653 19.6631 24.9689 20.0545 24.7996 20.2812C24.5945 20.7448 24.0343 19.7626 23.8357 20.2881C23.8194 20.2537 23.8097 20.343 23.8194 20.3739L23.5394 20.4014C23.5394 20.4014 23.2039 20.4563 23.0574 20.7585C22.9109 21.0607 22.9597 21.5999 23.6892 22.5821L23.6957 22.6405C23.8715 22.747 23.9692 22.7538 24.005 22.4379C24.0995 22.7916 24.132 22.4448 24.1906 22.5547V22.5855C24.2232 22.2902 24.4251 22.771 24.4544 22.5031C24.4544 22.534 24.4772 22.6302 24.4577 22.6405C24.5098 22.5821 24.5782 22.4825 24.627 22.6886C24.7638 22.5993 24.9885 22.6474 25.0146 22.2937L25.0211 22.352C25.0276 22.1151 25.0829 22.3039 25.122 22.1734C25.1318 22.2009 25.1383 22.2146 25.1383 22.2249C25.1513 21.988 25.3044 22.1528 25.3337 22.0463L25.3663 22.1837L25.477 22.1254L25.4281 22.1048C25.3663 21.7201 25.5649 22.3245 25.6007 22.0566C25.6886 22.0875 25.6072 21.229 25.7277 21.3973C25.7342 21.2084 25.7505 21.6961 25.7831 21.545C25.8254 21.7441 25.7798 21.6755 25.8254 21.83C25.8645 21.7236 25.9589 22.0121 26.0045 21.861L26.0371 22.0155C26.0762 21.7133 26.252 22.1837 26.2618 21.8987C26.3334 21.751 26.4148 22.3452 26.4572 22.0223L26.5353 22.2249C26.5842 22.2489 26.5191 21.9605 26.5842 22.0532C26.607 22.1871 26.6656 22.146 26.6591 22.2765C26.8056 22.4619 26.8219 21.9365 27.0303 22.2593C27.014 21.9949 27.115 22.1322 27.102 21.9365C27.1247 22.0464 27.2485 21.9262 27.2127 22.1872C27.2094 22.2078 27.1964 22.2078 27.1899 22.1631L27.2094 22.3176C27.3429 22.5889 27.3267 22.1288 27.4146 22.1597C27.382 22.115 27.3527 22.1322 27.356 22.0223L27.4341 22.0292L27.4406 22.1597L27.5644 22.2147L27.5221 22.0566C27.5904 22.1288 27.6588 22.3966 27.6784 22.1562C27.6849 22.0257 27.5904 21.9502 27.636 21.8884C27.7272 21.9811 27.8672 22.1253 27.9682 22.1562C27.9291 21.9777 27.9552 21.9811 27.9747 21.9399L28.004 22.0945C28.0659 21.8575 28.0984 22.431 28.1668 22.2387L28.1766 22.3486L28.1473 22.0189C28.1831 21.6927 28.2515 22.3348 28.2776 21.8918C28.2417 21.9261 28.1994 21.5519 28.2613 21.6103L28.2743 21.7648C28.2938 21.727 28.2938 21.6618 28.3166 21.6927C28.3166 21.7785 28.3459 21.9124 28.3785 21.8815L28.385 22.0738L28.4111 21.782C28.4957 21.9331 28.5511 21.7133 28.6097 21.9227C28.6097 21.9227 28.7497 22.0052 28.7367 21.7648C28.7367 21.9125 28.8116 21.9571 28.8214 22.1288C28.8246 21.9606 28.8963 21.8094 28.9647 21.9742V21.9948C29.1275 22.1494 29.1568 21.7064 29.3164 21.9021C29.2805 21.7201 29.362 21.8094 29.3099 21.5793C29.401 21.3252 29.6192 22.0086 29.5508 21.284C29.6029 21.2359 29.6485 21.4385 29.6843 21.4728L29.6778 21.5141C29.7788 21.4351 29.8081 21.4248 29.8928 21.4248C29.9221 21.3493 29.8765 21.0127 29.9644 21.0814C29.9644 21.2188 29.9872 21.1879 30.0133 21.1844C30.0002 21.2085 30.0002 21.2565 30.0523 21.339C30.0523 21.2977 30.0523 21.2703 30.0589 21.2497C30.0589 21.26 30.0621 21.2668 30.0654 21.2805C30.1044 21.2256 30.0882 21.1844 30.0654 21.1707C30.0654 21.1501 30.0589 21.126 30.0458 21.0883C30.1207 21.2497 30.1761 21.0539 30.2184 21.2805C30.3487 21.205 30.4106 20.9508 30.5115 20.8444C30.5408 20.9611 30.531 21.0676 30.505 21.1191L30.5799 21.0642C30.6059 21.2325 30.5473 21.1706 30.5278 21.2084C30.6646 21.466 30.6874 20.9028 30.8372 21.1329V20.9955L30.8502 21.0161C30.8404 20.944 30.8502 20.8444 30.8632 20.8204C30.9023 20.9646 30.912 21.1603 30.9674 21.1397C31.0325 21.2737 31.0814 21.047 31.1302 20.9577C31.0944 20.9371 31.0944 20.8547 31.0977 20.7998C31.1237 20.7895 31.1628 20.9337 31.1758 20.8684L31.2084 21.0676C31.1693 20.8822 31.2507 20.8547 31.2507 20.7723C31.2898 20.9165 31.2247 20.9062 31.2344 21.0195C31.3452 20.9817 31.2898 21.0024 31.4005 20.9646C31.4396 20.8066 31.3615 20.7791 31.3647 20.6006C31.4136 20.5525 31.4429 20.4048 31.521 20.5147L31.4754 20.343C31.5568 20.1919 31.6187 20.2022 31.7132 20.3705C32.257 18.8182 31.5927 18.3855 31.5927 18.3855C31.241 18.0421 31.1595 18.5813 30.8274 18.7736L30.8306 18.7805Z" fill="#ACDE45"/>
<path d="M16.423 24.851L16.3781 24.7902C16.391 24.8206 16.4038 24.8476 16.423 24.851Z" fill="#ACDE45"/>
<path d="M15.9223 22.5994C15.5934 22.6338 15.398 22.3453 15.1342 22.5994C14.9779 22.6338 14.8476 22.7746 14.7174 22.8742C14.7434 23.1523 14.5285 22.9566 14.5285 23.2004L14.4438 23.0734C14.4438 23.1558 14.4308 23.2176 14.3722 23.1558L14.3591 23.1145C14.3591 23.2382 14.2875 23.1969 14.2875 23.2587L14.2745 23.2176L14.2322 23.2587L14.2191 23.197C14.1898 23.3412 14.1214 23.3824 14.0335 23.3584L14.1051 23.5266C13.8902 23.3996 13.9814 23.7739 13.7632 23.6056L13.7469 23.5644C13.7697 24.083 13.3724 23.3755 13.3822 23.8735C13.3822 23.8117 13.3366 23.7911 13.3203 23.7499C13.265 23.8323 13.1966 23.8941 13.3334 24.2272C13.278 24.2478 13.2454 24.1448 13.1836 24.0178C13.2454 24.162 13.2226 24.2444 13.1836 24.2753V24.21L13.0793 24.3165L13.2194 24.5775C13.1217 24.5294 13.0598 24.2513 13.0272 24.3474L13.1249 24.5741C13.0175 24.5741 12.8188 24.2547 12.6593 24.1276C12.2555 24.2066 12.135 24.969 11.6237 24.7458L11.5292 24.5844C11.4088 24.344 11.6074 24.9931 11.4902 24.7733L11.5032 24.9037C11.4706 24.866 11.4283 24.8316 11.4218 24.7664C11.3827 24.7767 11.399 24.8144 11.4088 24.9037L11.298 24.7733C11.1027 24.7286 11.1222 25.0823 10.9496 25.1029C10.624 24.89 10.4318 25.3536 10.3276 25.6249C10.2527 26.1298 9.44509 25.3605 9.39299 25.9271C9.36694 25.8996 9.38323 25.9889 9.39951 26.0164L9.13573 26.1332C9.13573 26.1332 8.82637 26.2946 8.77101 26.6277C8.71239 26.9642 8.92407 27.4587 9.89776 28.1662L9.92054 28.2212C10.1159 28.2658 10.2071 28.2452 10.155 27.9327C10.3439 28.2418 10.2755 27.9017 10.3634 27.9876L10.3732 28.0151C10.3178 27.7232 10.6402 28.1216 10.5979 27.8571C10.6077 27.8846 10.6533 27.9739 10.6402 27.9876C10.6728 27.9155 10.7086 27.7987 10.8128 27.9876C10.917 27.864 11.1417 27.8434 11.0734 27.4965L11.0929 27.5515C11.0375 27.3214 11.1385 27.4863 11.1417 27.3523C11.158 27.3764 11.1678 27.3866 11.171 27.3969C11.1222 27.1668 11.3078 27.2802 11.3078 27.1703L11.3729 27.2939L11.4641 27.2046H11.412C11.2525 26.8474 11.6009 27.3729 11.5651 27.1051C11.6563 27.1085 11.3567 26.3049 11.5162 26.4354C11.4739 26.2533 11.6139 26.717 11.6074 26.5625C11.6986 26.741 11.6367 26.6895 11.7214 26.8269C11.7312 26.7136 11.8972 26.9642 11.9005 26.8063L11.9721 26.947C11.9331 26.6448 12.2196 27.0501 12.1578 26.7719C12.1903 26.6105 12.415 27.1635 12.3759 26.8372L12.503 27.0089C12.5551 27.0192 12.4215 26.7582 12.5062 26.8303C12.5616 26.954 12.6072 26.899 12.6332 27.026C12.8188 27.1668 12.7048 26.6552 12.9816 26.9127C12.9002 26.6621 13.0305 26.7685 12.9686 26.5796C13.0175 26.6792 13.1054 26.5315 13.1347 26.7925C13.1347 26.8131 13.1249 26.8165 13.1054 26.7753L13.1608 26.9196C13.3529 27.1497 13.2291 26.7067 13.3203 26.7135C13.278 26.6758 13.2552 26.7032 13.2291 26.5967L13.304 26.5831L13.3431 26.7101L13.4734 26.7307L13.3952 26.59C13.4766 26.6415 13.6069 26.8818 13.5678 26.6449C13.5418 26.5144 13.4343 26.4697 13.4669 26.3976C13.5776 26.4663 13.7437 26.5693 13.8446 26.5728C13.7665 26.4114 13.7893 26.4045 13.799 26.3598L13.8642 26.5041C13.8674 26.2603 14.0335 26.8062 14.053 26.6036L14.0889 26.7067L13.9847 26.3942C13.9423 26.0679 14.154 26.6724 14.0791 26.2397C14.053 26.2809 13.926 25.9271 13.9977 25.9718L14.0465 26.116C14.0596 26.0748 14.0433 26.013 14.0693 26.0336C14.0856 26.116 14.1475 26.2396 14.1735 26.2019L14.2224 26.3873L14.18 26.0988C14.294 26.2259 14.2973 25.9992 14.4015 26.1847C14.4015 26.1847 14.5513 26.2293 14.4894 26.0026C14.522 26.1469 14.6034 26.171 14.6522 26.3358C14.6197 26.171 14.6522 26.0061 14.7532 26.1538V26.1744C14.9486 26.2842 14.8802 25.8481 15.0756 25.9992C15.0039 25.8309 15.0984 25.8962 14.9974 25.6867C15.0332 25.4189 15.3882 26.0336 15.1668 25.3433C15.2058 25.2849 15.2938 25.4738 15.3328 25.4944V25.5356C15.4143 25.4361 15.4403 25.4188 15.5217 25.4017C15.5347 25.3192 15.4208 25.0033 15.5184 25.0514C15.5445 25.1853 15.564 25.151 15.5868 25.1407C15.5771 25.1681 15.5901 25.2163 15.6552 25.285C15.6455 25.2437 15.6422 25.2163 15.6422 25.1957C15.6455 25.206 15.652 25.2128 15.6552 25.2265C15.6813 25.1647 15.6585 25.1304 15.6324 25.1201C15.6259 25.0995 15.6162 25.0755 15.5966 25.0446C15.7008 25.1888 15.7171 24.9827 15.8018 25.1957C15.9125 25.0926 15.919 24.8317 15.9972 24.7046C16.0493 24.8111 16.059 24.9174 16.046 24.9724L16.1079 24.9003C16.1665 25.0583 16.0981 25.0102 16.0851 25.0514C16.2707 25.2712 16.1763 24.7183 16.3684 24.914L16.3456 24.7801L16.3586 24.7972C16.3358 24.732 16.3261 24.629 16.3326 24.6016C16.3977 24.7355 16.4465 24.9243 16.4954 24.8934C16.5833 25.0102 16.5898 24.7801 16.6191 24.684C16.5801 24.6702 16.5638 24.5912 16.5573 24.5362C16.5833 24.5225 16.6452 24.6531 16.6452 24.5878L16.7136 24.7767C16.642 24.605 16.7136 24.5569 16.6973 24.4779C16.7624 24.6118 16.6973 24.6152 16.7299 24.7217C16.8308 24.6633 16.7787 24.6908 16.8797 24.6324C16.8862 24.4676 16.808 24.4573 16.7787 24.2821C16.8145 24.2272 16.8211 24.0761 16.9155 24.1654L16.8406 24.004C16.8894 23.8392 16.9546 23.8357 17.0751 23.98C17.1988 23.1626 17.0848 22.6784 16.935 22.4036C16.7852 22.1255 16.5963 22.0568 16.5963 22.0568C16.1828 21.7924 16.1958 22.3384 15.9027 22.6029L15.9223 22.5994Z" fill="#ACDE45"/>
<path d="M4.34811 32.5718L4.29034 32.5305C4.31281 32.5546 4.33527 32.5718 4.34811 32.5718Z" fill="#ACDE45"/>
<path d="M2.15045 35.3195C2.15045 35.3195 2.15674 35.3258 2.15988 35.332C2.15674 35.3258 2.15359 35.3226 2.15045 35.3195Z" fill="#ACDE45"/>
<path d="M2.27465 31.2389C2.27465 31.2389 2.26795 31.2289 2.26459 31.2222L2.27465 31.2389Z" fill="#ACDE45"/>
<path d="M2.94194 30.8137C2.74004 30.8961 2.47301 30.6936 2.41765 30.9477C2.32973 31.0027 2.31018 31.14 2.2711 31.2396C2.42416 31.4593 2.18645 31.3392 2.30368 31.5349L2.18319 31.4456C2.22227 31.5143 2.24506 31.5658 2.17341 31.5246L2.14412 31.4937C2.20599 31.5933 2.13433 31.5727 2.16689 31.6208L2.1376 31.5898L2.12782 31.6277L2.08874 31.5795C2.14085 31.6997 2.11153 31.7445 2.04315 31.741L2.17341 31.8646C1.965 31.7994 2.2125 32.0844 1.98129 31.9848L1.95197 31.9539C2.22226 32.3626 1.60354 31.8647 1.85754 32.2596C1.82498 32.2115 1.7859 32.2012 1.75333 32.1703C1.75659 32.2458 1.74031 32.3076 2.00083 32.548C1.97152 32.572 1.89988 32.4965 1.79567 32.4072C1.90965 32.5103 1.93569 32.5789 1.92592 32.6098L1.8901 32.5583L1.87708 32.6579L2.10178 32.8399C2.0106 32.8193 1.83149 32.6099 1.85754 32.6889L2.03665 32.8502C1.96175 32.864 1.66865 32.6476 1.49606 32.5755C1.25833 32.706 1.56119 33.3207 1.09552 33.2314L0.94897 33.1249C0.743811 32.9601 1.2095 33.4272 1.01736 33.2795L1.09552 33.379C1.05318 33.355 1.00433 33.3345 0.968508 33.2864C0.945712 33.3001 0.978278 33.3275 1.03038 33.3928L0.887096 33.3104C0.727528 33.3104 0.922923 33.5783 0.812203 33.6229C0.476784 33.5165 0.577732 33.9045 0.646119 34.1243C0.854534 34.5158 -0.11264 34.0796 0.141366 34.5123C0.108801 34.4952 0.167426 34.5605 0.190222 34.5776L0.0632138 34.7081C0.0632138 34.7081 -0.0768185 34.8798 0.0599541 35.1374C0.190214 35.3949 0.607042 35.7109 1.6654 36.068L1.711 36.1024C1.87382 36.1024 1.92592 36.0784 1.72402 35.8586C2.0171 36.0543 1.79241 35.8174 1.89662 35.8655L1.91942 35.8826C1.72728 35.6765 2.16365 35.9204 1.99431 35.7349C2.01711 35.7521 2.09526 35.8105 2.092 35.8242C2.07572 35.7658 2.04315 35.6765 2.20923 35.7967C2.21574 35.6902 2.35903 35.6422 2.13108 35.3949L2.17341 35.4327C2.01385 35.2713 2.17342 35.3777 2.10178 35.2781C2.12458 35.2919 2.13759 35.2988 2.14736 35.3056C1.9943 35.1408 2.17994 35.1957 2.12132 35.1167L2.23203 35.1992L2.24831 35.1202H2.20923C1.91615 34.8867 2.42743 35.2232 2.2646 35.0309C2.32973 35.0206 1.70773 34.4643 1.88358 34.533C1.75983 34.4025 2.09526 34.7287 2.01059 34.6154C2.16364 34.7356 2.09853 34.7081 2.22553 34.7974C2.17342 34.7081 2.41765 34.8763 2.3395 34.7561L2.45999 34.8523C2.27762 34.6291 2.68142 34.8935 2.4958 34.6909C2.43393 34.5638 2.8703 34.9485 2.67491 34.7081L2.84751 34.8215C2.88984 34.8215 2.66188 34.6428 2.75632 34.684C2.85727 34.7699 2.85728 34.7219 2.9452 34.8146C3.14059 34.8936 2.80518 34.5226 3.12106 34.6772C2.9387 34.4986 3.07872 34.5604 2.9452 34.4265C3.02987 34.4952 3.01358 34.3681 3.16338 34.5639C3.17641 34.5811 3.16991 34.5845 3.13734 34.5536L3.24805 34.6566C3.49229 34.8043 3.18292 34.4849 3.24805 34.4746C3.20246 34.454 3.19921 34.4746 3.13082 34.3991L3.17316 34.3784L3.26433 34.4712H3.36204L3.23829 34.3716C3.31971 34.399 3.52812 34.5673 3.38158 34.3887C3.30017 34.2926 3.20246 34.272 3.18944 34.2136C3.2969 34.2479 3.45974 34.3063 3.52813 34.296C3.39135 34.1827 3.40762 34.1758 3.39134 34.1381L3.50533 34.241C3.38484 34.0521 3.7691 34.4506 3.68117 34.2926L3.75606 34.3681L3.52813 34.1381C3.33599 33.8908 3.78212 34.3303 3.51183 34.0041C3.51508 34.0384 3.25458 33.7843 3.32296 33.805L3.42715 33.9114C3.41413 33.877 3.37181 33.8324 3.40112 33.8427C3.45322 33.9045 3.55742 33.9938 3.55416 33.9595L3.68117 34.0968L3.50857 33.8771C3.6486 33.9595 3.53462 33.7809 3.69745 33.9148C3.69745 33.9148 3.81794 33.9285 3.66163 33.7568C3.75607 33.8667 3.82121 33.8736 3.93519 33.9972C3.83098 33.8736 3.7691 33.7362 3.90913 33.8392L3.91889 33.8564C4.10125 33.9148 3.83747 33.5817 4.03938 33.6744C3.90912 33.5508 4.00355 33.592 3.83422 33.4375C3.7235 33.2211 4.26082 33.6572 3.7756 33.1387C3.7756 33.0837 3.92215 33.2245 3.96122 33.2348L3.98076 33.2692C3.98402 33.1799 3.9938 33.1593 4.03614 33.1352C4.00357 33.0665 3.77561 32.8331 3.86027 32.8537C3.94169 32.9567 3.93844 32.9258 3.94821 32.9155C3.95472 32.9395 3.98728 32.9739 4.06217 33.022C4.03612 32.991 4.02311 32.9704 4.01008 32.9532C4.01659 32.9601 4.02311 32.967 4.03288 32.9773C4.01985 32.9223 3.98728 32.8983 3.96774 32.8949C3.95472 32.8811 3.93518 32.864 3.90587 32.8399C4.04264 32.9395 3.95146 32.7713 4.11103 32.9292C4.13057 32.8296 4.01007 32.6202 3.99704 32.5068C4.08171 32.5858 4.14358 32.6716 4.15987 32.7163V32.651C4.28036 32.7712 4.21197 32.7404 4.225 32.7747C4.4497 32.9258 4.12406 32.493 4.34225 32.6201L4.26084 32.5137L4.27711 32.5274C4.22827 32.4759 4.17615 32.3969 4.16638 32.3728C4.27385 32.4724 4.39434 32.6167 4.41388 32.5858C4.52786 32.6682 4.42039 32.4793 4.39108 32.3969C4.36178 32.3935 4.30968 32.3282 4.28037 32.287C4.29014 32.2698 4.39435 32.3694 4.36179 32.3145L4.49529 32.4553C4.36503 32.3248 4.3911 32.2767 4.34225 32.2149C4.44646 32.3145 4.40737 32.3248 4.47902 32.4107C4.51484 32.3488 4.49529 32.3797 4.53111 32.3179C4.45621 32.184 4.40086 32.1874 4.29665 32.0466C4.29665 31.9951 4.225 31.8714 4.32921 31.9298L4.20546 31.8097C4.15987 31.6654 4.19895 31.6551 4.34549 31.7547C4.03612 31.0644 3.73978 30.6798 3.50857 30.4737C3.28061 30.2677 3.1243 30.2402 3.1243 30.2402C2.72701 30.0926 2.99405 30.5424 2.92566 30.8068L2.94194 30.8137Z" fill="#ACDE45"/>
</svg>
