<svg width="111" height="99" viewBox="0 0 111 99" fill="none" xmlns="http://www.w3.org/2000/svg">
<path d="M2.61013 0.598694L2.54187 0.616107C2.57438 0.616107 2.60038 0.609144 2.61013 0.598694Z" fill="#20BB65"/>
<path d="M0.428542 0.584752C0.353762 0.762412 0.0286212 0.832068 0.171678 1.00624C0.15217 1.09682 0.233458 1.18042 0.278976 1.26402C0.535827 1.28144 0.291985 1.3755 0.50657 1.40337L0.363512 1.43471C0.438292 1.44516 0.4903 1.4591 0.41227 1.48348H0.370001C0.480545 1.5009 0.418773 1.53575 0.474045 1.54272H0.431776L0.451283 1.57406H0.389508C0.509806 1.60541 0.51956 1.64722 0.47079 1.69251L0.646372 1.67161C0.457798 1.77263 0.821934 1.76566 0.597595 1.8632H0.555327C1.02351 1.91197 0.256213 2.04782 0.701639 2.09659C0.646367 2.08962 0.613863 2.11052 0.568345 2.11749C0.623617 2.15581 0.652877 2.20109 0.994262 2.16278C0.994262 2.19413 0.890208 2.20109 0.756905 2.22199C0.906464 2.20457 0.971494 2.222 0.984499 2.24986H0.925978L0.984499 2.30908L1.26736 2.26032C1.18933 2.30909 0.922734 2.31257 0.994262 2.34044L1.22835 2.31256C1.18933 2.37178 0.834949 2.44495 0.669134 2.5181C0.594354 2.74801 1.2186 2.88735 0.831698 3.14513L0.656116 3.17996C0.399264 3.22176 1.04303 3.17996 0.805682 3.22176H0.925978C0.88046 3.23918 0.834952 3.26009 0.773177 3.26009C0.766675 3.28448 0.808933 3.27751 0.886964 3.28099L0.730909 3.32975C0.620365 3.43425 0.935733 3.45516 0.886964 3.5527C0.578092 3.71294 0.90648 3.86273 1.09831 3.94634C1.50472 4.03342 0.519565 4.41662 0.984499 4.49674C0.948735 4.51067 1.03326 4.50719 1.06253 4.50022L1.05278 4.65697C1.05278 4.65697 1.06254 4.84508 1.32265 4.9043C1.58275 4.96701 2.08993 4.8834 3.09458 4.39919L3.14987 4.39224C3.27016 4.28773 3.28967 4.23548 3.00355 4.23896C3.34494 4.15884 3.0263 4.16929 3.13359 4.12749H3.16286C2.89301 4.12749 3.36444 3.98465 3.12059 3.98814C3.14661 3.98465 3.2409 3.96724 3.25065 3.97421C3.20189 3.94983 3.11734 3.92195 3.31566 3.88015C3.25064 3.81396 3.32542 3.68855 2.99704 3.699L3.05231 3.69205C2.83122 3.7025 3.0133 3.6607 2.89951 3.65024C2.92552 3.64328 2.93853 3.63978 2.94829 3.6363C2.73045 3.64326 2.89952 3.55271 2.80523 3.54226L2.93852 3.51787L2.89951 3.46212L2.87349 3.49C2.5061 3.54573 3.09458 3.4029 2.85073 3.39942C2.88975 3.35065 2.07694 3.44472 2.24925 3.36808C2.07368 3.37505 2.52886 3.3402 2.39231 3.32975C2.58414 3.29839 2.5126 3.32278 2.66541 3.29143C2.57112 3.27401 2.85399 3.20784 2.71744 3.19042L2.86701 3.16603C2.58739 3.15906 3.04908 3.04062 2.78572 3.05107C2.65567 3.01972 3.22139 2.94656 2.92553 2.93959L3.12385 2.88735C3.15311 2.85949 2.87351 2.90826 2.96779 2.86994C3.09459 2.85252 3.06533 2.82116 3.18562 2.81768C3.37745 2.73059 2.88975 2.74453 3.21488 2.6226C2.96453 2.6435 3.10759 2.58428 2.92227 2.59822C3.02956 2.5808 2.93203 2.52157 3.16937 2.52854C3.18888 2.52854 3.18562 2.53552 3.14336 2.54249L3.28967 2.52505C3.56278 2.44493 3.1271 2.46932 3.16612 2.42055C3.11735 2.43797 3.13359 2.45538 3.0328 2.45887L3.04908 2.41707L3.17263 2.41011L3.23764 2.34393L3.08484 2.37178C3.15962 2.33346 3.41971 2.28817 3.19862 2.28469C3.07507 2.28469 2.99705 2.34044 2.94503 2.31605C3.04582 2.2638 3.19537 2.18715 3.23764 2.13141C3.06532 2.15928 3.07182 2.14535 3.0328 2.13141L3.18237 2.11051C2.96779 2.08613 3.50749 2.05131 3.33843 2.01996L3.44247 2.01299L3.1271 2.03737C2.82473 2.02692 3.43597 1.97467 3.02306 1.97119C3.04907 1.9886 2.69468 2.01995 2.75645 1.9886L2.90276 1.97816C2.87025 1.96771 2.80847 1.97117 2.83773 1.95724C2.91577 1.95724 3.04907 1.93634 3.01981 1.91892L3.20188 1.91197L2.93201 1.905C3.08483 1.85623 2.88651 1.83185 3.08809 1.79701C3.08809 1.79701 3.18237 1.72386 2.95803 1.73082C3.09784 1.73082 3.14661 1.68901 3.31243 1.67856C3.15312 1.67856 3.01981 1.64374 3.18562 1.60542H3.20513C3.37095 1.51833 2.96128 1.50787 3.16286 1.42078C2.99055 1.44169 3.08158 1.39641 2.8605 1.42776C2.63616 1.37899 3.30267 1.26055 2.6134 1.30236C2.57438 1.27449 2.77272 1.2501 2.80523 1.23268H2.84099C2.77921 1.18391 2.77272 1.1665 2.78572 1.12469C2.71745 1.11076 2.39881 1.13164 2.47034 1.08636C2.59714 1.08636 2.57438 1.07592 2.57113 1.05851C2.59063 1.06547 2.63941 1.06547 2.72395 1.03761C2.68493 1.03761 2.65892 1.0376 2.63941 1.03412C2.64917 1.03412 2.65566 1.03412 2.67192 1.03412C2.6264 1.01322 2.58738 1.02018 2.56787 1.03412C2.54836 1.03412 2.52236 1.03759 2.48985 1.04456C2.65241 1.00624 2.47359 0.974906 2.69142 0.954004C2.63615 0.884334 2.40532 0.849495 2.31754 0.797242C2.42808 0.783308 2.52886 0.79026 2.57438 0.804194L2.53211 0.765881C2.69468 0.75543 2.62641 0.783304 2.65892 0.793755C2.91577 0.724084 2.3923 0.706656 2.62639 0.630018H2.49635L2.51586 0.619579C2.44758 0.623062 2.35655 0.619569 2.33379 0.609118C2.47359 0.5917 2.65891 0.588233 2.64915 0.560365C2.78246 0.529013 2.57764 0.497662 2.49961 0.473277C2.47685 0.490695 2.39881 0.490687 2.34679 0.487203C2.34029 0.473269 2.48008 0.455857 2.42156 0.44889L2.6134 0.434942C2.43457 0.45236 2.41831 0.407089 2.34028 0.407089C2.48008 0.389672 2.46383 0.424499 2.56787 0.421016C2.54836 0.361796 2.55813 0.393148 2.53537 0.333928C2.38906 0.309543 2.35654 0.351356 2.18748 0.344389C2.14846 0.31652 2.01516 0.299103 2.12896 0.257301L1.95988 0.278201C1.82658 0.232915 1.84608 0.198064 2.01515 0.152778C1.31938 -0.014431 0.847939 -0.0213963 0.552072 0.0238894C0.256206 0.0656917 0.132664 0.156265 0.132664 0.156265C-0.234731 0.344375 0.262721 0.407082 0.402526 0.595192L0.428542 0.584752Z" fill="#20BB65"/>
<path d="M5.50793 11.5508L5.45502 11.6075C5.48477 11.5898 5.50462 11.5686 5.50793 11.5508Z" fill="#20BB65"/>
<path d="M8.77124 16.4033C8.77124 16.4033 8.78088 16.3999 8.7873 16.3964C8.78088 16.3964 8.77767 16.3999 8.77124 16.4033Z" fill="#20BB65"/>
<path d="M3.45865 12.4008C3.53668 12.7492 3.2961 13 3.57571 13.2473C3.63424 13.411 3.78705 13.5295 3.90084 13.6514C4.15769 13.5782 4.01138 13.8395 4.23897 13.7977L4.13492 13.9092C4.21296 13.8953 4.27474 13.8987 4.22272 13.9719L4.18696 13.9928C4.304 13.9719 4.27472 14.0555 4.33325 14.045L4.29749 14.0659L4.34301 14.1043L4.28775 14.1286C4.42755 14.1356 4.47957 14.2018 4.47307 14.2959L4.61611 14.1879C4.53483 14.4387 4.86972 14.275 4.74942 14.5362L4.71366 14.5606C5.1916 14.4387 4.60636 14.9926 5.0713 14.8881C5.01277 14.902 5.00302 14.9508 4.96725 14.9752C5.05504 15.017 5.12656 15.0796 5.40942 14.8706C5.43868 14.9264 5.34766 14.9786 5.24362 15.0692C5.36717 14.9751 5.44845 14.9821 5.48422 15.017L5.42569 15.0344L5.54599 15.118L5.76382 14.9194C5.73781 15.0309 5.49072 15.1493 5.585 15.1667L5.77682 15.0204C5.79633 15.1319 5.53948 15.4071 5.45169 15.5987C5.60775 16.0098 6.33929 15.9714 6.24175 16.5532L6.11171 16.6856C5.91338 16.8667 6.47586 16.5114 6.29704 16.6856L6.41733 16.6403C6.38807 16.6821 6.3653 16.7343 6.30678 16.7587C6.32304 16.797 6.35881 16.7691 6.43684 16.7413L6.3393 16.8841C6.3393 17.1001 6.66443 16.9991 6.72295 17.1733C6.59941 17.5634 7.07408 17.654 7.34394 17.6958C7.82513 17.654 7.30493 18.6746 7.8414 18.591C7.82189 18.6259 7.89992 18.5841 7.91942 18.5632L8.0885 18.807C8.0885 18.807 8.30958 19.0857 8.6282 19.0578C8.95008 19.0334 9.34999 18.6886 9.76615 17.5077L9.81167 17.4693C9.80842 17.2568 9.76615 17.1698 9.49629 17.3056C9.73363 17.0339 9.44102 17.1872 9.49629 17.0792L9.51905 17.0618C9.26545 17.1942 9.55482 16.7587 9.32398 16.8737C9.34674 16.8562 9.41826 16.7866 9.43451 16.797C9.35974 16.7831 9.24919 16.7726 9.39225 16.6229C9.25569 16.5462 9.18742 16.3233 8.88505 16.48L8.93057 16.4452C8.73224 16.5601 8.8623 16.4138 8.73875 16.4452C8.75501 16.4243 8.76476 16.4104 8.77126 16.4034C8.57293 16.5114 8.63471 16.2919 8.53392 16.3198L8.63146 16.2222L8.53067 16.1526L8.53718 16.2083C8.24781 16.4556 8.65421 15.9749 8.42012 16.0759C8.40386 15.9784 7.7341 16.4835 7.81538 16.2884C7.65607 16.3755 8.05272 16.1212 7.91292 16.1665C8.05922 16.0307 8.02347 16.1038 8.13077 15.9854C8.02347 16.0028 8.22179 15.7729 8.07548 15.8042L8.18929 15.6997C7.91943 15.8147 8.23154 15.421 7.99094 15.5499C7.83488 15.5569 8.29658 15.1946 8.00722 15.313L8.14051 15.1458C8.14051 15.0901 7.92917 15.2887 7.97469 15.1842C8.07548 15.1006 8.01697 15.0657 8.13077 15.0065C8.2218 14.787 7.77637 15.0169 7.95844 14.6756C7.74385 14.8149 7.81864 14.6581 7.65607 14.7626C7.7406 14.6895 7.58454 14.6338 7.81864 14.5467C7.83814 14.5397 7.84138 14.5536 7.80887 14.578L7.93242 14.4909C8.10474 14.2436 7.72434 14.47 7.71134 14.376C7.68533 14.4282 7.7146 14.4457 7.62031 14.4944L7.5943 14.4213L7.70159 14.3551L7.69509 14.2157L7.5813 14.3272C7.61381 14.2297 7.81214 14.0485 7.6008 14.1391C7.48701 14.1948 7.46425 14.3133 7.39272 14.2959C7.43498 14.1705 7.5 13.9789 7.487 13.8709C7.35044 13.9858 7.34394 13.9614 7.29842 13.9614L7.41873 13.8639C7.1944 13.9127 7.66908 13.627 7.47725 13.6514L7.56828 13.5922L7.29842 13.7664C7.0058 13.8778 7.52601 13.533 7.13911 13.7037C7.18137 13.7211 6.87901 13.9231 6.90503 13.843L7.03183 13.7629C6.99281 13.7629 6.93754 13.7908 6.95055 13.7559C7.02208 13.7211 7.12936 13.634 7.0871 13.6166L7.24966 13.526L6.98956 13.627C7.0871 13.4842 6.87577 13.526 7.03183 13.3832C7.03183 13.3832 7.04808 13.2194 6.8465 13.3309C6.97656 13.2682 6.98306 13.1777 7.12936 13.0975C6.98306 13.1672 6.82374 13.1637 6.94404 13.0313H6.96355C7.03507 12.8084 6.64491 12.9617 6.7522 12.7318C6.60915 12.8363 6.65467 12.7248 6.47585 12.8711C6.219 12.885 6.73921 12.4078 6.13122 12.7596C6.06944 12.7283 6.232 12.6063 6.24826 12.5611L6.28727 12.5541C6.18323 12.4879 6.16048 12.4635 6.13447 12.3834C6.05644 12.3834 5.77683 12.5576 5.80934 12.4496C5.92964 12.4008 5.89387 12.3869 5.88086 12.3625C5.90687 12.366 5.94914 12.3451 6.00441 12.2685C5.96865 12.2859 5.94264 12.2928 5.92313 12.2963C5.93288 12.2894 5.93614 12.2859 5.94915 12.2789C5.88737 12.2615 5.85812 12.2928 5.85487 12.3207C5.83861 12.3311 5.81585 12.3451 5.78984 12.3695C5.90688 12.2371 5.71505 12.258 5.90037 12.1326C5.78983 12.0385 5.54273 12.0734 5.41593 12.0107C5.50697 11.9375 5.60776 11.9096 5.65978 11.9166L5.585 11.8644C5.72481 11.7807 5.68905 11.8574 5.72806 11.8644C5.91013 11.6379 5.40618 11.8226 5.56224 11.5926L5.43869 11.6379L5.45495 11.6205C5.39642 11.6554 5.30214 11.6797 5.27613 11.6762C5.39317 11.5892 5.56225 11.509 5.52648 11.4638C5.62402 11.3558 5.40943 11.3836 5.31514 11.3697C5.30864 11.4115 5.23385 11.4394 5.18508 11.4533C5.16883 11.4289 5.28589 11.3418 5.22086 11.3558L5.38668 11.2582C5.23387 11.3592 5.18184 11.2896 5.11031 11.3175C5.22736 11.2304 5.23711 11.2966 5.33465 11.2513C5.26962 11.1572 5.30214 11.2025 5.23386 11.1084C5.08105 11.1259 5.07781 11.2095 4.9185 11.2652C4.85997 11.2338 4.72016 11.2513 4.79169 11.1398L4.65189 11.2408C4.48932 11.2095 4.48281 11.1433 4.60311 10.997C3.8228 10.9726 3.37737 11.1433 3.13352 11.3384C2.88968 11.53 2.84743 11.7424 2.84743 11.7424C2.65235 12.2232 3.16605 12.1396 3.45542 12.4217L3.45865 12.4008Z" fill="#20BB65"/>
<path d="M15.5145 22.4543L15.495 22.5309C15.5113 22.5031 15.521 22.4717 15.5145 22.4543Z" fill="#20BB65"/>
<path d="M20.502 25.3768C20.502 25.3768 20.5089 25.3699 20.5158 25.363C20.5089 25.3664 20.5055 25.3699 20.502 25.3768Z" fill="#20BB65"/>
<path d="M15.0202 25.1157C15.0202 25.1157 15.0105 25.1226 15.0073 25.126L15.0234 25.1157H15.0202Z" fill="#20BB65"/>
<path d="M14.1003 24.2553C14.3181 24.5165 14.2141 24.8614 14.5652 24.9276C14.6855 25.0391 14.8676 25.0669 15.0172 25.1157C15.2122 24.9206 15.1927 25.2237 15.3748 25.0739L15.3293 25.2237C15.391 25.1714 15.4463 25.147 15.4333 25.2341L15.4105 25.2725C15.5048 25.1958 15.5146 25.2829 15.5601 25.2446L15.5374 25.2829L15.5926 25.2968L15.5536 25.3456C15.6804 25.2794 15.7519 25.3143 15.7845 25.4014L15.869 25.2376C15.8982 25.4989 16.1291 25.1923 16.1291 25.4815L16.1063 25.5198C16.4835 25.1784 16.1844 25.9552 16.5517 25.6382C16.5062 25.6766 16.516 25.7288 16.4932 25.7671C16.5875 25.7636 16.6753 25.7845 16.8444 25.4606C16.8931 25.4954 16.8346 25.586 16.7761 25.7149C16.8509 25.572 16.9257 25.5407 16.9679 25.5546L16.9224 25.5999L17.0622 25.6208L17.1792 25.3421C17.1988 25.4536 17.0264 25.6765 17.1175 25.6452L17.2313 25.4223C17.2931 25.5163 17.1695 25.8821 17.1662 26.0911C17.4621 26.3837 18.1059 26.0214 18.2327 26.5927L18.1644 26.7704C18.0506 27.0212 18.4278 26.4534 18.3302 26.6868L18.4212 26.5927C18.4115 26.6415 18.4115 26.7007 18.366 26.746C18.3952 26.7739 18.4147 26.7355 18.4765 26.6728L18.4407 26.847C18.522 27.0421 18.7756 26.8052 18.8927 26.9411C18.9187 27.3486 19.3804 27.2302 19.6437 27.157C20.0729 26.9167 19.9396 28.0732 20.4013 27.7771C20.3948 27.8154 20.4533 27.7492 20.4631 27.7179L20.6971 27.8746C20.6971 27.8746 20.9897 28.0453 21.2791 27.8955C21.5685 27.7492 21.8383 27.2755 21.8286 26.011L21.8578 25.9587C21.7831 25.7602 21.7115 25.6905 21.5035 25.9239C21.6335 25.579 21.4092 25.8368 21.4254 25.7114L21.4417 25.6835C21.2498 25.9065 21.3702 25.3874 21.1913 25.5825C21.2076 25.5581 21.2466 25.4641 21.2694 25.4675C21.1946 25.4815 21.084 25.5198 21.1653 25.3212C21.0093 25.3038 20.863 25.1192 20.6386 25.3909L20.6679 25.3387C20.5248 25.5233 20.5898 25.3386 20.4891 25.4153C20.4988 25.3874 20.4988 25.3735 20.5053 25.363C20.359 25.5442 20.3362 25.3143 20.2517 25.3805L20.307 25.2481L20.1867 25.2237L20.2127 25.2725C20.0371 25.6208 20.2355 25.0077 20.0534 25.1993C20.0046 25.1157 19.5689 25.8612 19.5722 25.6452C19.4584 25.7915 19.7283 25.3909 19.6177 25.4919C19.7022 25.3073 19.6958 25.3874 19.751 25.2341C19.6567 25.2934 19.751 25.0007 19.6307 25.0913L19.6957 24.945C19.4877 25.1645 19.6275 24.6698 19.4551 24.8928C19.3121 24.9659 19.6015 24.4364 19.3771 24.6663L19.4356 24.4538C19.4129 24.4016 19.2958 24.6768 19.2991 24.5583C19.3609 24.4364 19.2926 24.4329 19.3739 24.3284C19.3739 24.0881 19.052 24.4921 19.0813 24.102C18.9382 24.3249 18.9447 24.1473 18.8374 24.3145C18.8862 24.21 18.7204 24.2274 18.8992 24.0428C18.9154 24.0288 18.9219 24.0358 18.9024 24.0776L18.9805 23.9418C19.039 23.6387 18.7789 24.0149 18.7301 23.9348C18.7301 23.994 18.7626 23.9975 18.6944 24.0811L18.6391 24.0254L18.7106 23.9139L18.6488 23.7885L18.5903 23.9418C18.5806 23.8407 18.6879 23.5829 18.5318 23.7571C18.4505 23.8581 18.4798 23.9801 18.405 23.994C18.392 23.8581 18.3725 23.6561 18.3139 23.5655C18.2392 23.7327 18.2197 23.7153 18.1806 23.7327L18.2489 23.5899C18.0636 23.7362 18.379 23.2625 18.2132 23.367L18.2717 23.2729L18.0961 23.5551C17.875 23.7885 18.2067 23.2381 17.9238 23.569C17.9693 23.5655 17.7775 23.8895 17.7677 23.8024L17.849 23.6735C17.81 23.6875 17.7742 23.7397 17.7742 23.7049C17.8263 23.6387 17.8848 23.5133 17.8393 23.5133L17.9498 23.3565L17.7547 23.569C17.784 23.3948 17.6084 23.5307 17.6897 23.3252C17.6897 23.3252 17.6344 23.1684 17.5011 23.3635C17.5922 23.245 17.5597 23.1614 17.6572 23.0186C17.5532 23.1475 17.4068 23.2207 17.4589 23.0465L17.4751 23.0325C17.4426 22.8026 17.1565 23.1266 17.1565 22.8653C17.072 23.0291 17.0655 22.9071 16.9647 23.1231C16.7436 23.259 16.9972 22.5797 16.607 23.1893C16.5387 23.1893 16.6298 23.0012 16.6233 22.9524L16.6525 22.928C16.5322 22.9211 16.4997 22.9106 16.4412 22.8514C16.3729 22.8897 16.2006 23.1824 16.1779 23.0709C16.2656 22.9664 16.2266 22.9733 16.2039 22.9559C16.2299 22.949 16.2591 22.9072 16.2721 22.8096C16.2461 22.8445 16.2266 22.8619 16.2104 22.8758C16.2169 22.8654 16.2169 22.8584 16.2266 22.8479C16.1648 22.8653 16.1518 22.9037 16.1583 22.9315C16.1486 22.9489 16.1356 22.9733 16.1226 23.0082C16.1681 22.8305 16.0055 22.9455 16.1161 22.7434C15.9763 22.7121 15.7714 22.8654 15.6316 22.8793C15.6804 22.7713 15.7552 22.6947 15.8072 22.6738L15.7194 22.6668C15.8072 22.5205 15.8072 22.6076 15.8462 22.5936C15.9047 22.301 15.5406 22.719 15.5764 22.4369L15.4886 22.5379L15.4951 22.5135C15.4593 22.5762 15.3878 22.6424 15.3618 22.6529C15.4236 22.517 15.5374 22.3602 15.4853 22.3358C15.5211 22.1895 15.3455 22.3254 15.2545 22.3602C15.2675 22.3985 15.2155 22.4647 15.1797 22.4996C15.1537 22.4891 15.2187 22.3533 15.1667 22.3951L15.2675 22.2209C15.1797 22.3881 15.1017 22.3533 15.0497 22.416C15.1147 22.2801 15.1505 22.3324 15.2155 22.2418C15.1147 22.193 15.1634 22.2174 15.0627 22.1686C14.9359 22.2627 14.9716 22.3358 14.8578 22.4682C14.7928 22.4682 14.6758 22.5588 14.6888 22.4229L14.6107 22.5832C14.4547 22.6424 14.4157 22.5867 14.4579 22.3951C13.7654 22.7852 13.463 23.1754 13.3427 23.4715C13.2192 23.7676 13.2777 23.9696 13.2777 23.9696C13.3232 24.4852 13.7296 24.1403 14.1003 24.2309V24.2553Z" fill="#20BB65"/>
<path d="M28.7992 28.9232V29.0033C28.8096 28.9684 28.8131 28.9406 28.7992 28.9232Z" fill="#20BB65"/>
<path d="M34.3101 30.616C34.3101 30.616 34.317 30.6091 34.3204 30.6022C34.3135 30.6057 34.3135 30.6126 34.3101 30.616Z" fill="#20BB65"/>
<path d="M28.9264 31.6299C28.9264 31.6299 28.9195 31.6402 28.9161 31.6471L28.9298 31.6299H28.9264Z" fill="#20BB65"/>
<path d="M27.8564 31.0446C28.1262 31.2362 28.1035 31.595 28.4514 31.5671C28.5912 31.6438 28.77 31.6194 28.9261 31.6299C29.0691 31.393 29.1146 31.6891 29.2609 31.4975L29.2479 31.6577C29.2967 31.5915 29.3455 31.5532 29.3487 31.6403L29.3357 31.6821C29.4105 31.5846 29.4365 31.6647 29.4723 31.6159L29.4593 31.6577H29.5145L29.4885 31.7135C29.5958 31.6194 29.6706 31.6333 29.7226 31.7135L29.7681 31.5323C29.8527 31.7796 30.0087 31.4243 30.0673 31.703L30.0543 31.7448C30.3469 31.3233 30.2168 32.1489 30.5094 31.7518C30.4737 31.8005 30.4932 31.8458 30.4802 31.8911C30.5712 31.8633 30.659 31.8632 30.7565 31.5079C30.8118 31.5288 30.7695 31.6333 30.7403 31.7727C30.7825 31.6159 30.8476 31.5671 30.8931 31.5706L30.8573 31.6229L30.9971 31.609L31.0524 31.3094C31.0947 31.4139 30.9711 31.6717 31.0524 31.6194L31.1174 31.3756C31.1954 31.4522 31.1499 31.8354 31.189 32.0444C31.5303 32.2604 32.0863 31.7587 32.3171 32.2917L32.2846 32.4798C32.2229 32.7481 32.4797 32.1106 32.4309 32.3614L32.5025 32.2499C32.5025 32.3022 32.5122 32.3579 32.4765 32.4137C32.5122 32.4346 32.522 32.3927 32.5708 32.3196V32.4973C32.6813 32.6679 32.8861 32.3858 33.0227 32.4938C33.1202 32.8874 33.5461 32.6749 33.79 32.546C34.1671 32.2221 34.2354 33.3821 34.6353 33.0024C34.6353 33.0442 34.6808 32.964 34.6873 32.9327L34.9409 33.0407C34.9409 33.0407 35.2563 33.1522 35.5099 32.9501C35.7668 32.7481 35.9586 32.236 35.7375 30.9924L35.757 30.9366C35.6497 30.7555 35.5652 30.7032 35.3994 30.9715C35.4677 30.6057 35.2921 30.9018 35.2856 30.7764L35.2953 30.7485C35.1425 31.0028 35.1718 30.4698 35.0287 30.6963C35.0385 30.6684 35.0645 30.5709 35.084 30.5674C35.0125 30.5952 34.9117 30.6545 34.9572 30.442C34.8011 30.4559 34.6223 30.3061 34.4467 30.6161L34.4663 30.5604C34.359 30.7729 34.3915 30.5744 34.3037 30.6719C34.3069 30.644 34.3037 30.6266 34.3102 30.6161C34.1996 30.8252 34.1346 30.6022 34.0631 30.6858L34.0956 30.5465H33.9721L34.0078 30.5883C33.8973 30.968 33.9818 30.3235 33.8355 30.55C33.7705 30.4803 33.4811 31.3024 33.4453 31.0899C33.3608 31.2571 33.5526 30.8078 33.4616 30.9297C33.5104 30.7311 33.5201 30.8112 33.5461 30.6475C33.4649 30.7276 33.5039 30.4176 33.3998 30.5325L33.4356 30.3758C33.273 30.6336 33.3153 30.1215 33.1885 30.3758C33.0617 30.4768 33.2438 29.8951 33.0682 30.1703L33.0845 29.9508C33.0519 29.9055 32.9902 30.1981 32.9674 30.0832C33.0032 29.9508 32.9349 29.9613 32.9967 29.8428C32.9446 29.6059 32.7106 30.0727 32.665 29.6826C32.5675 29.9299 32.5382 29.7557 32.4667 29.9438C32.4927 29.8324 32.3334 29.8846 32.4732 29.6652C32.4862 29.6477 32.496 29.6547 32.483 29.6965L32.5317 29.5467C32.5317 29.2367 32.3497 29.6617 32.2846 29.5955C32.2944 29.6547 32.3269 29.6477 32.2814 29.7488L32.2164 29.707L32.2651 29.5816L32.1773 29.4736L32.1513 29.6373C32.1221 29.5397 32.1741 29.2646 32.057 29.4701C31.9953 29.5885 32.0505 29.7 31.9823 29.7313C31.94 29.6025 31.8815 29.4074 31.8035 29.3307C31.7644 29.5119 31.7417 29.4979 31.7059 29.5258L31.7449 29.369C31.5921 29.5537 31.8034 29.0172 31.6636 29.16L31.7027 29.0555L31.5889 29.3725C31.4198 29.6512 31.6311 29.0381 31.423 29.4283C31.4686 29.4143 31.3483 29.7731 31.319 29.693L31.371 29.5467C31.3385 29.5711 31.3125 29.6303 31.3027 29.5955C31.3385 29.5188 31.371 29.3795 31.3255 29.3934L31.4003 29.2158L31.254 29.4666C31.2442 29.2889 31.1012 29.4631 31.1402 29.2436C31.1402 29.2436 31.0524 29.1043 30.9614 29.3238C31.0231 29.1879 30.9744 29.1148 31.0394 28.951C30.9646 29.1043 30.8378 29.2088 30.8508 29.0242L30.8638 29.0068C30.7825 28.7873 30.5712 29.174 30.5127 28.9232C30.4672 29.1043 30.4314 28.9859 30.3826 29.2193C30.194 29.4039 30.2948 28.6828 30.0445 29.3725C29.9762 29.3934 30.025 29.1844 30.0087 29.1391L30.0315 29.1078C29.9112 29.1322 29.8787 29.1287 29.8072 29.0869C29.7486 29.1426 29.6478 29.4701 29.5991 29.3656C29.6608 29.2437 29.6251 29.2576 29.5991 29.2471C29.6218 29.2332 29.6413 29.1879 29.6316 29.0869C29.6153 29.1252 29.5991 29.1496 29.5861 29.167C29.5861 29.1566 29.5893 29.1496 29.5958 29.1357C29.5405 29.167 29.534 29.2088 29.5503 29.2332C29.5438 29.2541 29.5373 29.2785 29.534 29.3168C29.5373 29.1322 29.404 29.2855 29.4658 29.059C29.3195 29.066 29.1601 29.2645 29.0236 29.3133C29.0463 29.1949 29.1016 29.1008 29.1471 29.066L29.0594 29.0799C29.1114 28.9162 29.1309 28.9998 29.1666 28.9754C29.1569 28.6758 28.9 29.1775 28.8643 28.8953L28.8025 29.0172V28.9928C28.783 29.0625 28.731 29.1461 28.7082 29.1635C28.7375 29.0137 28.809 28.8326 28.7537 28.8221C28.7537 28.6689 28.6139 28.85 28.5359 28.9092C28.5587 28.9441 28.5229 29.0207 28.4969 29.066C28.4676 29.0625 28.4969 28.9127 28.4579 28.9685L28.5164 28.7734C28.4709 28.958 28.3863 28.9441 28.3538 29.0207C28.3831 28.8709 28.4319 28.9127 28.4741 28.8047C28.3636 28.7838 28.4189 28.7943 28.3083 28.7769C28.2075 28.9023 28.2628 28.965 28.1815 29.1252C28.1197 29.1461 28.0287 29.2611 28.0059 29.1252L27.9702 29.3029C27.8336 29.4039 27.7849 29.3621 27.7751 29.1635C27.2029 29.7348 27.0111 30.1947 26.9655 30.5186C26.92 30.8391 27.0208 31.0202 27.0208 31.0202C27.1834 31.501 27.489 31.0551 27.8629 31.0411L27.8564 31.0446Z" fill="#20BB65"/>
<path d="M43.0853 32.7342L43.0957 32.8143C43.1027 32.7794 43.1027 32.7481 43.0853 32.7342Z" fill="#20BB65"/>
<path d="M48.7718 33.7476C48.7718 33.7476 48.7752 33.7373 48.7787 33.7304C48.7752 33.7373 48.7718 33.7407 48.7718 33.7476Z" fill="#20BB65"/>
<path d="M43.5314 35.4025C43.5314 35.4025 43.5245 35.4129 43.5211 35.4197L43.5314 35.4025Z" fill="#20BB65"/>
<path d="M42.4059 34.9706C42.692 35.1204 42.7148 35.4826 43.0529 35.406C43.1992 35.4652 43.3715 35.4165 43.5276 35.406C43.6446 35.1517 43.7227 35.4408 43.843 35.2283L43.8495 35.3886C43.8917 35.3154 43.934 35.2701 43.947 35.3607L43.9372 35.406C43.999 35.298 44.0348 35.3781 44.0673 35.3224L44.0576 35.3677L44.1128 35.3572L44.0933 35.42C44.1876 35.312 44.2656 35.3189 44.3241 35.3851L44.3502 35.2005C44.4607 35.4339 44.5745 35.0611 44.6655 35.3294L44.6558 35.3747C44.8996 34.9183 44.8606 35.7544 45.1045 35.3224C45.0752 35.3747 45.098 35.4199 45.0882 35.4652C45.176 35.4269 45.2638 35.413 45.3223 35.0507C45.3776 35.0646 45.3516 35.1726 45.3353 35.3154C45.3613 35.1552 45.4198 35.0995 45.4653 35.096L45.4361 35.1552L45.5726 35.1238L45.5954 34.8173C45.6474 34.9148 45.5531 35.1865 45.6312 35.1273L45.6702 34.8765C45.7547 34.9427 45.7482 35.3294 45.81 35.5314C46.1676 35.7056 46.6683 35.1413 46.9512 35.6429L46.9382 35.8345C46.9024 36.1097 47.0975 35.4443 47.0715 35.7021L47.13 35.5837C47.1333 35.6359 47.1495 35.6917 47.1203 35.7509C47.156 35.7683 47.1625 35.723 47.2048 35.6464L47.2178 35.824C47.3478 35.9808 47.5202 35.6743 47.6665 35.7683C47.803 36.148 48.2029 35.8867 48.4338 35.7369C48.7784 35.3747 48.954 36.5207 49.3149 36.0992C49.3181 36.141 49.3571 36.0574 49.3604 36.0261L49.6237 36.1062C49.6237 36.1062 50.9048 36.4162 50.235 33.9847L50.2512 33.9255C50.1244 33.7583 50.0399 33.7095 49.8968 33.9952C49.9326 33.6224 49.7831 33.9394 49.7668 33.814L49.7733 33.7862C49.6465 34.0544 49.6238 33.5214 49.5035 33.7618C49.51 33.7339 49.5262 33.6329 49.549 33.6294C49.4807 33.6643 49.3831 33.7339 49.4092 33.5179C49.2531 33.5493 49.0613 33.4169 48.915 33.7444L48.9312 33.6851C48.8434 33.9081 48.8564 33.7095 48.7784 33.814C48.7784 33.7862 48.7784 33.7688 48.7784 33.7583C48.6874 33.9778 48.5996 33.7653 48.5378 33.8558L48.5541 33.713L48.4305 33.7269L48.4695 33.7653C48.398 34.1554 48.4175 33.504 48.294 33.7444C48.2224 33.6817 48.0111 34.5317 47.9558 34.3261C47.8876 34.5038 48.0339 34.0335 47.9558 34.1659C47.9851 33.9603 48.0014 34.0439 48.0111 33.8767C47.9396 33.9638 47.9461 33.6503 47.855 33.7792L47.8746 33.619C47.738 33.8942 47.7315 33.3786 47.6275 33.6468C47.5104 33.7618 47.634 33.1626 47.4877 33.4587L47.4811 33.2358C47.4421 33.194 47.4096 33.4936 47.3804 33.3821C47.4031 33.2462 47.3381 33.2636 47.3836 33.1382C47.3088 32.9083 47.1202 33.3995 47.0325 33.0163C46.9609 33.2741 46.9154 33.1034 46.8602 33.2985C46.8732 33.1835 46.7203 33.2532 46.8374 33.0198C46.8471 32.9989 46.8601 33.0059 46.8504 33.0511L46.8829 32.8979C46.8471 32.5878 46.7106 33.0337 46.6391 32.9745C46.6553 33.0303 46.6878 33.0233 46.6521 33.1243L46.5805 33.0895L46.6163 32.9606L46.5188 32.863L46.509 33.0302C46.4667 32.9362 46.4927 32.6575 46.3952 32.877C46.3464 33.0024 46.4115 33.1069 46.3464 33.1452C46.2912 33.0198 46.2099 32.8352 46.1254 32.769C46.1059 32.9536 46.0798 32.9432 46.0506 32.9745L46.0733 32.8143C45.94 33.0163 46.0928 32.4589 45.9693 32.6157L45.9953 32.5077L45.9173 32.8352C45.7807 33.1348 45.9238 32.4973 45.758 32.9083C45.8002 32.8874 45.719 33.2602 45.6832 33.1835L45.719 33.0337C45.6864 33.0616 45.6669 33.1243 45.6572 33.0895C45.6864 33.0094 45.7027 32.8665 45.6572 32.8874L45.7124 32.6993L45.5954 32.9675C45.5661 32.7934 45.4426 32.9815 45.4556 32.762C45.4556 32.762 45.3516 32.6331 45.2865 32.8665C45.3353 32.7237 45.2768 32.654 45.3255 32.4868C45.267 32.6471 45.1532 32.7655 45.1435 32.5809L45.1532 32.5635C45.0459 32.3579 44.8801 32.7655 44.7923 32.5251C44.7663 32.7098 44.7208 32.5983 44.6948 32.8352C44.529 33.0442 44.5452 32.3126 44.3762 33.0302C44.3111 33.0581 44.3372 32.8456 44.3144 32.8038L44.3339 32.769C44.2169 32.8073 44.1843 32.8073 44.1063 32.776C44.0543 32.8387 43.9893 33.1766 43.9307 33.079C43.9763 32.9501 43.9437 32.9675 43.9177 32.9641C43.9372 32.9466 43.9535 32.8979 43.9307 32.8003C43.9177 32.8421 43.908 32.8665 43.895 32.8839C43.895 32.8735 43.895 32.8665 43.8982 32.8491C43.8462 32.8874 43.8462 32.9327 43.8625 32.9536C43.8592 32.9745 43.856 32.9989 43.856 33.0407C43.8397 32.8596 43.7227 33.0268 43.7584 32.7969C43.6154 32.8247 43.4756 33.0442 43.3488 33.1104C43.3553 32.9885 43.4008 32.8909 43.4431 32.8491L43.3553 32.877C43.3845 32.7063 43.417 32.7864 43.4495 32.7585C43.404 32.4624 43.2057 32.9954 43.1407 32.7202L43.0952 32.8491V32.8247C43.0789 32.8979 43.0366 32.9884 43.0171 33.0093C43.0269 32.8561 43.0789 32.668 43.0204 32.6645C43.0009 32.5112 42.8838 32.7098 42.8123 32.7794C42.8383 32.8108 42.8123 32.8909 42.7928 32.9397C42.7635 32.9397 42.7733 32.7864 42.7408 32.8456L42.7733 32.6436C42.7505 32.8352 42.666 32.8317 42.64 32.9118C42.6497 32.7585 42.705 32.7934 42.731 32.6819C42.6172 32.6784 42.6757 32.6819 42.5619 32.6749C42.4774 32.8143 42.5392 32.8665 42.4807 33.0372C42.4221 33.0651 42.3441 33.194 42.3084 33.0616L42.2953 33.2428C42.1718 33.3612 42.1165 33.3263 42.084 33.1347C41.0891 34.4306 41.5703 35.0786 41.5703 35.0786C41.7881 35.5314 42.0352 35.0472 42.4026 34.9775L42.4059 34.9706Z" fill="#20BB65"/>
<path d="M57.7228 35.0472L57.7358 35.1238C57.7391 35.089 57.7358 35.0577 57.7228 35.0472Z" fill="#20BB65"/>
<path d="M63.4744 35.688C63.4744 35.688 63.4778 35.6776 63.4813 35.6707C63.4778 35.6776 63.4744 35.6811 63.4744 35.688Z" fill="#20BB65"/>
<path d="M58.3342 37.6738C58.3342 37.6738 58.3308 37.6841 58.3274 37.691L58.3377 37.6738H58.3342Z" fill="#20BB65"/>
<path d="M57.1896 37.3324C57.4854 37.4578 57.5277 37.8166 57.8593 37.7121C58.0089 37.7574 58.178 37.6947 58.3308 37.6703C58.4316 37.4056 58.5258 37.6877 58.6331 37.4717L58.6494 37.6285C58.6852 37.5553 58.7241 37.5066 58.7469 37.5902L58.7404 37.6355C58.7957 37.524 58.8379 37.5971 58.8639 37.5414L58.8575 37.5867L58.9127 37.5728L58.8965 37.6355C58.9843 37.5205 59.0623 37.5205 59.1241 37.5867L59.1371 37.3986C59.2606 37.625 59.3549 37.2418 59.459 37.5066L59.4525 37.5519C59.6703 37.0781 59.6768 37.9176 59.8979 37.4683C59.8719 37.524 59.8979 37.5658 59.8914 37.6111C59.9759 37.5658 60.0604 37.5484 60.0995 37.1826C60.1547 37.1931 60.1352 37.3045 60.1254 37.4439C60.1417 37.2836 60.197 37.2209 60.2425 37.2174L60.2165 37.2767L60.3498 37.2383L60.3563 36.9318C60.4148 37.0259 60.3368 37.3045 60.4083 37.2383L60.4343 36.9875C60.5221 37.0468 60.5384 37.4334 60.6099 37.632C60.9773 37.7818 61.4455 37.1896 61.7511 37.6703V37.8619C61.7283 38.1371 61.8844 37.4648 61.8746 37.7226L61.9267 37.6006C61.9332 37.6529 61.9527 37.7086 61.9267 37.7678C61.9624 37.7818 61.9689 37.7365 62.0047 37.6564L62.0275 37.834C62.164 37.9838 62.3233 37.6668 62.4729 37.7539C62.6257 38.1266 63.0126 37.8445 63.2337 37.6808C63.5588 37.3011 63.7897 38.4402 64.1278 38.0012C64.1343 38.043 64.1668 37.9559 64.1701 37.9246L64.4334 37.9943C64.4334 37.9943 65.7242 38.2521 64.9471 35.8484L64.9601 35.7892C64.8268 35.6255 64.739 35.5837 64.609 35.8728C64.6285 35.5001 64.492 35.8206 64.4692 35.6952L64.4757 35.6638C64.3586 35.939 64.3131 35.406 64.2058 35.6499C64.2123 35.622 64.2221 35.5175 64.2448 35.514C64.1766 35.5523 64.0855 35.6255 64.0985 35.4095C63.9425 35.4478 63.7441 35.3259 63.6173 35.6568L63.6303 35.5976C63.5523 35.824 63.5556 35.6255 63.4841 35.737C63.4841 35.7091 63.4808 35.6917 63.4841 35.6812C63.4028 35.9042 63.3085 35.6986 63.25 35.7892L63.2597 35.6464L63.1394 35.6673L63.1817 35.7021C63.1296 36.0958 63.1167 35.4443 63.0061 35.6917C62.9313 35.6324 62.7623 36.4929 62.6972 36.2908C62.6387 36.472 62.7622 35.9947 62.6875 36.1306C62.707 35.9251 62.7265 36.0052 62.7297 35.838C62.6615 35.9285 62.655 35.6185 62.5672 35.7474L62.5802 35.5872C62.4566 35.8693 62.4241 35.3572 62.3331 35.629C62.2225 35.7509 62.3136 35.1447 62.1835 35.4478L62.1673 35.2284C62.1282 35.19 62.1087 35.4896 62.073 35.3781C62.0892 35.2423 62.0242 35.2632 62.0632 35.1343C61.9755 34.9079 61.8129 35.413 61.7056 35.0333C61.6471 35.2945 61.5918 35.1273 61.5495 35.3259C61.556 35.2109 61.4065 35.2911 61.5138 35.0472C61.5235 35.0263 61.5333 35.0333 61.53 35.0786L61.556 34.9218C61.504 34.6152 61.3902 35.0681 61.3154 35.0124C61.3349 35.0681 61.3675 35.0577 61.335 35.1622L61.2634 35.1308L61.2927 34.9984L61.1886 34.9079V35.0751C61.1399 34.9845 61.1496 34.7023 61.0651 34.9288C61.0228 35.0542 61.0943 35.1552 61.0326 35.2005C60.9708 35.0786 60.8798 34.8974 60.792 34.8382C60.7822 35.0228 60.7562 35.0159 60.727 35.0472L60.7399 34.887C60.6196 35.0995 60.74 34.5317 60.6229 34.6954L60.6424 34.5839L60.5806 34.9148C60.4603 35.2214 60.5676 34.5769 60.4246 34.9984C60.4668 34.9741 60.4051 35.3538 60.366 35.2771L60.3953 35.1238C60.3661 35.1552 60.3498 35.2179 60.3368 35.1831C60.3628 35.1029 60.3693 34.9601 60.327 34.981L60.3725 34.7894L60.2685 35.0646C60.2295 34.8939 60.1157 35.089 60.1157 34.8696C60.1157 34.8696 60.0052 34.7476 59.9532 34.9845C59.9922 34.8382 59.9304 34.7755 59.9694 34.6013C59.9206 34.765 59.8134 34.8905 59.7939 34.7093L59.8036 34.6884C59.6833 34.4898 59.5402 34.9114 59.4394 34.6745C59.4264 34.8626 59.3712 34.7511 59.3614 34.9915C59.2086 35.2109 59.1793 34.4829 59.0525 35.2109C58.9908 35.2423 59.0005 35.0298 58.9745 34.988L58.994 34.9497C58.877 34.9984 58.8445 35.0019 58.7664 34.9741C58.7177 35.0402 58.6754 35.3816 58.6104 35.2911C58.6494 35.1587 58.6169 35.1796 58.5876 35.1761C58.6071 35.1552 58.6169 35.1064 58.5909 35.0124C58.5811 35.0542 58.5714 35.0786 58.5616 35.0995C58.5616 35.089 58.5616 35.0821 58.5616 35.0646C58.5096 35.1064 58.5128 35.1517 58.5324 35.1726C58.5291 35.1935 58.5291 35.2214 58.5324 35.2597C58.5031 35.0786 58.399 35.2597 58.4185 35.0228C58.2755 35.0612 58.1519 35.2911 58.0284 35.3677C58.0284 35.2458 58.0674 35.1447 58.1064 35.0995L58.0219 35.1343C58.0414 34.9636 58.0804 35.0402 58.1064 35.0089C58.0414 34.7198 57.8788 35.2632 57.7943 34.995L57.7553 35.1273V35.1029C57.7423 35.1761 57.7065 35.2702 57.687 35.2911C57.687 35.1378 57.726 34.9462 57.6708 34.9462C57.6415 34.7964 57.5375 35.0054 57.4692 35.0786C57.4984 35.1064 57.4789 35.19 57.4594 35.2423C57.4301 35.2423 57.4301 35.0925 57.4041 35.1552L57.4237 34.9532C57.4139 35.1448 57.3294 35.1517 57.3099 35.2318C57.3099 35.0786 57.3684 35.1064 57.3879 34.995C57.2741 35.0019 57.3294 34.995 57.2156 35.0054C57.1375 35.1517 57.2058 35.197 57.157 35.3712C57.0985 35.406 57.0335 35.5384 56.9847 35.4095V35.5907C56.8677 35.7195 56.8124 35.6917 56.7669 35.5001C55.863 36.8795 56.3865 37.4822 56.3865 37.4822C56.6336 37.9142 56.8449 37.409 57.2058 37.308L57.1896 37.3324Z" fill="#20BB65"/>
<path d="M72.4834 36.6357L72.4997 36.7123C72.4997 36.6775 72.4997 36.6461 72.4834 36.6357Z" fill="#20BB65"/>
<path d="M78.2643 37.1719C78.2643 37.1719 78.2677 37.1616 78.2712 37.1547C78.2677 37.1616 78.2643 37.1651 78.2643 37.1719Z" fill="#20BB65"/>
<path d="M73.1569 39.2518C73.1569 39.2518 73.1535 39.2621 73.15 39.269L73.1604 39.2518H73.1569Z" fill="#20BB65"/>
<path d="M72.0121 38.9348C72.308 39.0567 72.36 39.412 72.6883 39.3006C72.8379 39.3424 73.0037 39.2797 73.1566 39.2518C73.2508 38.9871 73.3516 39.2657 73.4524 39.0463L73.4719 39.203C73.5077 39.1264 73.5467 39.0776 73.5662 39.1647L73.5597 39.21C73.6117 39.0985 73.654 39.1717 73.68 39.116L73.6735 39.1612L73.7255 39.1473L73.7125 39.21C73.797 39.0916 73.8751 39.0916 73.9369 39.1543L73.9466 38.9662C74.0734 39.1891 74.1579 38.8059 74.2685 39.0672L74.262 39.1125C74.4701 38.6352 74.4928 39.4748 74.7042 39.0219C74.6782 39.0776 74.7042 39.1194 74.6977 39.1647C74.7789 39.1194 74.8667 39.0985 74.8992 38.7328C74.9545 38.7432 74.935 38.8512 74.9317 38.994C74.9447 38.8338 75 38.7711 75.0455 38.7641L75.0195 38.8233L75.1528 38.7815V38.475C75.2146 38.569 75.1398 38.8477 75.2113 38.7815L75.2309 38.5307C75.3187 38.59 75.3414 38.9766 75.4162 39.1717C75.7836 39.3145 76.242 38.7119 76.5541 39.1891V39.3807C76.5346 39.6594 76.6842 38.9801 76.6777 39.2379L76.7297 39.116C76.7362 39.1647 76.7557 39.2205 76.7297 39.2832C76.7655 39.2971 76.772 39.2518 76.8045 39.1717L76.8305 39.3459C76.967 39.4922 77.1231 39.1752 77.2727 39.2553C77.4287 39.6245 77.8124 39.3354 78.0302 39.1682C78.3521 38.7815 78.5862 39.9172 78.9211 39.4713C78.9276 39.5096 78.9601 39.426 78.9633 39.3946L79.2267 39.4608C79.2267 39.4608 80.5175 39.6942 79.7339 37.308L79.7469 37.2488C79.6136 37.0886 79.5225 37.0467 79.3957 37.3394C79.412 36.9666 79.2787 37.2906 79.256 37.1652L79.2625 37.1338C79.1487 37.4125 79.0999 36.8795 78.9893 37.1269C78.9958 37.099 79.0056 36.9945 79.0251 36.991C78.9568 37.0328 78.8658 37.106 78.8788 36.89C78.7227 36.9318 78.5212 36.8133 78.3944 37.1478L78.4074 37.0886C78.3326 37.315 78.3326 37.1164 78.2611 37.2279C78.2611 37.2 78.2578 37.1861 78.2611 37.1722C78.1798 37.3951 78.0822 37.1896 78.027 37.2836L78.0367 37.1408L77.9132 37.1617L77.9555 37.1965C77.9067 37.5902 77.8872 36.9387 77.7799 37.1861C77.7018 37.1269 77.5425 37.9908 77.4775 37.7887C77.4222 37.9699 77.5393 37.4926 77.4678 37.6285C77.484 37.423 77.5068 37.5031 77.5068 37.3359C77.4385 37.4265 77.4287 37.1164 77.3442 37.2488L77.3539 37.0886C77.2336 37.3707 77.1947 36.8586 77.1069 37.1338C76.9963 37.2558 77.0841 36.6531 76.954 36.9562L76.9345 36.7367C76.8955 36.6984 76.8793 36.998 76.8402 36.89C76.8565 36.7541 76.7882 36.775 76.8272 36.6496C76.7362 36.4267 76.5801 36.9318 76.4663 36.5556C76.4111 36.8168 76.3526 36.6531 76.3135 36.8517C76.32 36.7367 76.1705 36.8203 76.2745 36.5765C76.2843 36.5556 76.294 36.5625 76.2908 36.6078L76.3135 36.4511C76.2583 36.1445 76.151 36.6009 76.0729 36.5451C76.0925 36.6009 76.1249 36.5904 76.0957 36.6949L76.0209 36.667L76.0469 36.5347L75.9429 36.4476V36.6148C75.8974 36.5242 75.9006 36.242 75.8193 36.472C75.7803 36.6009 75.8519 36.6984 75.7901 36.7437C75.7251 36.6252 75.6308 36.4441 75.543 36.3884C75.5365 36.573 75.5105 36.566 75.4812 36.6008L75.491 36.4406C75.3707 36.6531 75.4845 36.0853 75.3707 36.2525L75.3902 36.141L75.3349 36.4754C75.2179 36.7855 75.3154 36.1375 75.1788 36.5625C75.2211 36.5382 75.1658 36.9179 75.1236 36.8447L75.1496 36.6914C75.1203 36.7228 75.1041 36.7855 75.0911 36.7506C75.1138 36.667 75.1203 36.5277 75.078 36.5486L75.1203 36.357L75.0228 36.6357C74.9805 36.465 74.87 36.6635 74.8667 36.4441C74.8667 36.4441 74.7529 36.3257 74.7042 36.5625C74.7432 36.4162 74.6781 36.3535 74.7139 36.1794C74.6684 36.3431 74.5611 36.472 74.5383 36.2908L74.5481 36.2699C74.4246 36.0748 74.288 36.4964 74.1839 36.263C74.1742 36.4511 74.1157 36.3431 74.1124 36.5834C73.9629 36.8064 73.9174 36.0748 73.8068 36.8064C73.745 36.8412 73.7515 36.6287 73.7255 36.5869L73.7418 36.5486C73.628 36.5974 73.5922 36.6008 73.5142 36.5765C73.4687 36.6426 73.4329 36.984 73.3646 36.897C73.4004 36.7646 73.3646 36.7855 73.3419 36.782C73.3614 36.7611 73.3711 36.7123 73.3419 36.6183C73.3321 36.6601 73.3224 36.6844 73.3126 36.7054C73.3126 36.6949 73.3126 36.6845 73.3126 36.6705C73.2638 36.7158 73.2671 36.7576 73.2866 36.7785C73.2866 36.7994 73.2834 36.8273 73.2866 36.8656C73.2541 36.6845 73.1533 36.8656 73.1663 36.6322C73.0233 36.674 72.9062 36.9039 72.7826 36.984C72.7826 36.8621 72.8152 36.7576 72.8542 36.7158L72.7696 36.7506C72.7859 36.5765 72.8249 36.6566 72.8542 36.6252C72.7826 36.3361 72.6298 36.883 72.5388 36.6183L72.503 36.7541V36.7297C72.4933 36.8029 72.4575 36.897 72.4412 36.9213C72.438 36.7681 72.4705 36.573 72.4153 36.5765C72.3827 36.4267 72.282 36.6357 72.2169 36.7123C72.2462 36.7402 72.2299 36.8238 72.2104 36.8761C72.1812 36.8761 72.1779 36.7263 72.1519 36.789L72.1649 36.5869C72.1584 36.7785 72.0739 36.7855 72.0576 36.8691C72.0544 36.7158 72.1129 36.7437 72.1291 36.6322C72.0153 36.6392 72.0706 36.6357 71.9568 36.6426C71.8853 36.789 71.9503 36.8342 71.908 37.0119C71.8528 37.0467 71.7878 37.1826 71.739 37.0537V37.2349C71.6317 37.3637 71.5732 37.3394 71.5211 37.1478C70.6563 38.5447 71.196 39.1403 71.196 39.1403C71.4529 39.5688 71.6479 39.0567 72.0056 38.9487L72.0121 38.9348Z" fill="#20BB65"/>
<path d="M87.3094 38.2416L87.3224 38.3182C87.3256 38.2834 87.3224 38.252 87.3094 38.2416Z" fill="#20BB65"/>
<path d="M93.1096 39.3248C93.1096 39.3248 93.1165 39.3179 93.1199 39.311C93.113 39.3145 93.113 39.3214 93.1096 39.3248Z" fill="#20BB65"/>
<path d="M87.8593 40.8856C87.8593 40.8856 87.8524 40.8959 87.8489 40.9028L87.8593 40.8856Z" fill="#20BB65"/>
<path d="M86.7437 40.5129C87.033 40.6452 87.0688 41.004 87.3939 40.91C87.537 40.9587 87.706 40.903 87.8556 40.8856C87.9597 40.6243 88.0442 40.91 88.158 40.6975L88.1677 40.8542C88.2067 40.7811 88.2458 40.7323 88.262 40.8194L88.2555 40.8647C88.314 40.7532 88.3498 40.8333 88.3791 40.7776L88.3726 40.8229L88.4246 40.8124L88.4083 40.8751C88.4993 40.7637 88.5741 40.7672 88.6327 40.8368L88.6554 40.6487C88.766 40.8786 88.8733 40.5024 88.9643 40.7706L88.9545 40.8159C89.1886 40.3561 89.1561 41.1921 89.3935 40.7567C89.3642 40.8124 89.387 40.8542 89.3805 40.8995C89.465 40.8612 89.5495 40.8473 89.6081 40.4815C89.6633 40.4954 89.6341 40.6034 89.6211 40.7463C89.6471 40.586 89.7056 40.5303 89.7511 40.5268L89.7218 40.586L89.8552 40.5547L89.8779 40.2481C89.9299 40.3457 89.8357 40.6174 89.9104 40.5582L89.9495 40.3073C90.034 40.3735 90.0242 40.7602 90.0827 40.9622C90.4274 41.1364 90.9313 40.5825 91.1882 41.0911L91.1687 41.2792C91.1232 41.5544 91.3377 40.896 91.302 41.1503L91.3638 41.0354C91.3638 41.0876 91.38 41.1434 91.3475 41.1991C91.38 41.2165 91.3898 41.1747 91.432 41.0981L91.4385 41.2758C91.5523 41.4395 91.7409 41.1399 91.8742 41.2409C91.9815 41.6241 92.3781 41.3907 92.6122 41.2618C92.9796 40.9309 93.0284 42.0874 93.4088 41.7112C93.4088 41.753 93.4543 41.6729 93.4608 41.6415L93.6949 41.7565C93.6949 41.7565 93.981 41.8749 94.2379 41.6938C94.4882 41.5057 94.7581 41.0249 94.5955 39.7569L94.6183 39.7012C94.511 39.5096 94.4232 39.4504 94.2411 39.7082C94.3224 39.3459 94.1306 39.6315 94.1273 39.5061L94.1371 39.4783C93.9745 39.7256 94.0103 39.1926 93.8575 39.4156C93.8672 39.3877 93.8965 39.2901 93.916 39.2901C93.8412 39.318 93.7339 39.3703 93.7827 39.1613C93.6169 39.1717 93.425 39.0184 93.2495 39.325L93.269 39.2692C93.1617 39.4817 93.191 39.2832 93.0999 39.3807C93.0999 39.3529 93.0999 39.3354 93.1064 39.325C92.9959 39.534 92.9244 39.3145 92.8528 39.3981L92.8821 39.2588H92.7553L92.7943 39.3041C92.6935 39.6873 92.7553 39.0393 92.6155 39.2658C92.544 39.1961 92.2806 40.0286 92.2383 39.8196C92.1603 39.9903 92.3359 39.534 92.2448 39.6594C92.2839 39.4574 92.3001 39.541 92.3164 39.3738C92.2383 39.4539 92.2611 39.1438 92.1636 39.2623L92.1928 39.1055C92.04 39.3703 92.0563 38.8582 91.936 39.1195C91.8124 39.2274 91.962 38.6352 91.7994 38.9209V38.6979C91.7637 38.6527 91.7181 38.9523 91.6889 38.8373C91.7181 38.7049 91.6466 38.7154 91.7019 38.5934C91.6303 38.36 91.4223 38.8443 91.3442 38.4576C91.2662 38.7119 91.2207 38.5412 91.1622 38.7328C91.1784 38.6178 91.0191 38.684 91.1459 38.4541C91.1557 38.4367 91.1687 38.4402 91.1589 38.4855L91.1979 38.3322C91.1654 38.0221 91.0191 38.4646 90.9443 38.4019C90.9606 38.4576 90.9931 38.4506 90.9541 38.5551L90.8826 38.5203L90.9216 38.3914L90.8208 38.2939L90.8078 38.4576C90.7655 38.3635 90.7948 38.0848 90.6907 38.3008C90.642 38.4227 90.707 38.5307 90.6387 38.5691C90.5835 38.4437 90.4989 38.2555 90.4144 38.1893C90.3916 38.374 90.3689 38.3635 90.3363 38.3949L90.3591 38.2346C90.2225 38.4367 90.3786 37.8793 90.2518 38.0361L90.2778 37.9281L90.1965 38.2555C90.0567 38.5551 90.1998 37.9176 90.0307 38.3287C90.073 38.3078 89.9949 38.684 89.9559 38.6039L89.9917 38.4541C89.9592 38.482 89.9397 38.5447 89.9267 38.5098C89.9559 38.4297 89.9689 38.2869 89.9267 38.3078L89.982 38.1197L89.8617 38.3879C89.8292 38.2137 89.7056 38.4053 89.7153 38.1824C89.7153 38.1824 89.6081 38.0535 89.543 38.2869C89.5918 38.1441 89.53 38.0744 89.5756 37.9072C89.517 38.0674 89.4032 38.1894 89.3902 38.0047L89.4 37.9873C89.2862 37.7818 89.1236 38.1963 89.0293 37.956C89.0098 38.1406 88.9578 38.0291 88.9383 38.2695C88.7757 38.482 88.7692 37.7504 88.6197 38.4715C88.5546 38.5029 88.5741 38.2904 88.5481 38.2451L88.5677 38.2102C88.4474 38.252 88.4148 38.2555 88.3368 38.2242C88.2848 38.2904 88.2327 38.6283 88.171 38.5342C88.2132 38.4018 88.1807 38.4228 88.1515 38.4193C88.171 38.4019 88.184 38.3531 88.1613 38.2555C88.1515 38.2973 88.1385 38.3217 88.1287 38.3426C88.1287 38.3322 88.1287 38.3252 88.132 38.3078C88.0799 38.3496 88.0832 38.3914 88.0995 38.4123C88.0962 38.4332 88.0929 38.4611 88.0962 38.4994C88.0734 38.3182 87.9629 38.4889 87.9889 38.259C87.8426 38.2939 87.7126 38.5168 87.589 38.59C87.589 38.468 87.6313 38.367 87.6703 38.3252L87.5825 38.3566C87.6053 38.1859 87.641 38.266 87.6703 38.2346C87.6085 37.942 87.4362 38.482 87.3549 38.2102L87.3126 38.3426V38.3182C87.2996 38.3914 87.2606 38.4855 87.2411 38.5064C87.2411 38.3531 87.2867 38.1615 87.2281 38.1615C87.2021 38.0117 87.0916 38.2172 87.0233 38.2869C87.0526 38.3182 87.0298 38.3984 87.0103 38.4506C86.981 38.4506 86.9843 38.3008 86.955 38.36L86.9778 38.158C86.9648 38.3496 86.8802 38.3531 86.8575 38.4332C86.8575 38.2799 86.916 38.3113 86.9388 38.1998C86.825 38.1998 86.8802 38.1998 86.7664 38.2033C86.6884 38.3461 86.7534 38.3949 86.7046 38.5691C86.6461 38.6004 86.5779 38.7363 86.5324 38.6039V38.785C86.4153 38.9104 86.3568 38.8826 86.3112 38.691C85.4009 40.053 85.9211 40.6696 85.9211 40.6696C86.1617 41.105 86.3698 40.6034 86.7307 40.5129H86.7437Z" fill="#20BB65"/>
<path d="M101.257 44.3238L101.228 44.397C101.251 44.3726 101.264 44.3447 101.257 44.3238Z" fill="#20BB65"/>
<path d="M105.243 49.1171C105.243 49.1171 105.253 49.1171 105.259 49.1137C105.253 49.1137 105.247 49.1136 105.243 49.1171Z" fill="#20BB65"/>
<path d="M100.285 46.8215C100.285 46.8215 100.275 46.8249 100.269 46.8318L100.285 46.8215Z" fill="#20BB65"/>
<path d="M99.6024 45.867C99.7682 46.1422 99.5992 46.4592 99.9081 46.5707C99.9958 46.6961 100.155 46.7518 100.285 46.8215C100.51 46.6752 100.422 46.9539 100.627 46.8494L100.545 46.9817C100.617 46.9469 100.672 46.933 100.636 47.0131L100.607 47.0444C100.714 46.9922 100.698 47.0758 100.753 47.0514L100.721 47.0828L100.77 47.1071L100.721 47.1455C100.854 47.1106 100.913 47.1594 100.919 47.25L101.039 47.1141C100.994 47.3684 101.29 47.135 101.209 47.4067L101.176 47.4381C101.621 47.2186 101.118 47.8596 101.547 47.668C101.491 47.6924 101.485 47.7411 101.452 47.769C101.54 47.7899 101.612 47.8352 101.869 47.5879C101.901 47.6366 101.82 47.6993 101.726 47.8038C101.836 47.6959 101.917 47.6889 101.953 47.7168L101.898 47.7411L102.018 47.8038L102.213 47.5809C102.197 47.6924 101.966 47.8422 102.057 47.8422L102.233 47.675C102.259 47.7829 102.025 48.079 101.95 48.2706C102.106 48.6259 102.821 48.5423 102.707 49.1032L102.577 49.2321C102.379 49.4097 102.935 49.0544 102.756 49.2251L102.873 49.1798C102.844 49.2182 102.818 49.2704 102.759 49.2948C102.772 49.3331 102.808 49.3052 102.886 49.2739L102.782 49.4132C102.769 49.6153 103.088 49.5142 103.13 49.6849C102.971 50.0507 103.413 50.1448 103.667 50.2144C104.148 50.2249 103.465 51.1236 103.985 51.1132C103.959 51.1411 104.04 51.1132 104.066 51.0992L104.17 51.3536C104.17 51.3536 104.31 51.6496 104.619 51.6949C104.925 51.7367 105.419 51.5556 106.079 50.4931L106.131 50.4687C106.17 50.2493 106.144 50.1448 105.845 50.2109C106.131 49.9985 105.809 50.0751 105.884 49.981L105.91 49.9671C105.634 50.0368 105.994 49.6606 105.744 49.7198C105.77 49.7058 105.851 49.6536 105.868 49.6675C105.793 49.6327 105.679 49.5979 105.845 49.4759C105.712 49.3645 105.669 49.1102 105.344 49.2182L105.393 49.1903C105.182 49.2704 105.325 49.145 105.195 49.1555C105.214 49.1346 105.224 49.1241 105.234 49.1171C105.022 49.1938 105.104 48.9778 105 48.9917L105.107 48.9046L105.009 48.8141V48.8733C104.704 49.0893 105.146 48.6469 104.899 48.72C104.886 48.6155 104.177 49.0579 104.275 48.8698C104.112 48.9464 104.522 48.72 104.379 48.7548C104.531 48.6294 104.492 48.7026 104.606 48.5911C104.499 48.5981 104.707 48.3786 104.554 48.3995L104.671 48.302C104.392 48.396 104.717 48.0163 104.47 48.1313C104.31 48.1278 104.782 47.7829 104.486 47.884L104.622 47.7133C104.622 47.6541 104.405 47.8491 104.453 47.7446C104.557 47.661 104.492 47.6227 104.609 47.567C104.694 47.3371 104.242 47.5635 104.411 47.2082C104.196 47.3475 104.265 47.1838 104.105 47.2918C104.187 47.2151 104.021 47.1559 104.258 47.0653C104.278 47.0584 104.284 47.0723 104.252 47.1002L104.372 47.0096C104.531 46.7483 104.151 46.9852 104.131 46.8842C104.109 46.9399 104.141 46.9573 104.05 47.0096L104.014 46.9295L104.122 46.8563L104.102 46.71L103.995 46.8285C104.018 46.7274 104.203 46.5254 103.995 46.6264C103.884 46.6891 103.875 46.8145 103.797 46.8006C103.826 46.6647 103.868 46.4627 103.839 46.3477C103.715 46.4766 103.702 46.4522 103.657 46.4557L103.767 46.3477C103.543 46.4104 103.988 46.083 103.797 46.1143L103.881 46.0481L103.628 46.2502C103.345 46.386 103.826 45.9855 103.452 46.1945C103.497 46.2084 103.218 46.4488 103.234 46.3617L103.351 46.2676C103.309 46.2676 103.257 46.3024 103.267 46.2676C103.335 46.2258 103.429 46.1213 103.384 46.1074L103.536 45.9994L103.286 46.1318C103.361 45.9715 103.153 46.0377 103.286 45.8705C103.286 45.8705 103.273 45.6928 103.088 45.8356C103.208 45.7555 103.198 45.658 103.332 45.557C103.192 45.6475 103.033 45.665 103.127 45.5082L103.146 45.5012C103.169 45.2609 102.802 45.4803 102.86 45.2225C102.74 45.3584 102.759 45.233 102.61 45.4141C102.359 45.4768 102.756 44.8847 102.233 45.3689C102.164 45.3515 102.294 45.1912 102.298 45.1389L102.333 45.1215C102.213 45.0762 102.184 45.0553 102.135 44.9822C102.057 45.0031 101.83 45.2435 101.83 45.1285C101.937 45.0484 101.898 45.0449 101.875 45.024C101.901 45.024 101.94 44.9891 101.969 44.8951C101.937 44.923 101.914 44.9334 101.895 44.9439C101.901 44.9369 101.904 44.9299 101.914 44.9195C101.849 44.9195 101.826 44.9543 101.83 44.9857C101.817 44.9996 101.8 45.0205 101.781 45.0519C101.859 44.8881 101.673 44.9578 101.82 44.7836C101.683 44.7174 101.452 44.8185 101.309 44.8011C101.378 44.7035 101.465 44.6443 101.521 44.6338L101.43 44.606C101.54 44.4806 101.527 44.5677 101.569 44.5607C101.673 44.282 101.241 44.6164 101.316 44.3412L101.212 44.4248L101.222 44.4039C101.176 44.4597 101.095 44.5119 101.069 44.5189C101.15 44.3935 101.287 44.2611 101.238 44.2263C101.293 44.0834 101.095 44.1879 100.997 44.2054C101.007 44.2472 100.945 44.3029 100.903 44.3343C100.877 44.3168 100.958 44.1914 100.903 44.2263L101.026 44.0695C100.916 44.2228 100.841 44.1705 100.783 44.2263C100.864 44.1009 100.896 44.1601 100.971 44.08C100.87 44.0103 100.922 44.0451 100.822 43.9789C100.682 44.0521 100.711 44.1322 100.581 44.2472C100.516 44.2402 100.389 44.3099 100.418 44.174L100.324 44.3238C100.162 44.3621 100.129 44.3029 100.188 44.1183C99.4594 44.4248 99.1342 44.7941 98.9847 45.0728C98.8351 45.3549 98.8611 45.5535 98.8611 45.5535C98.8318 46.0481 99.2578 45.7451 99.5959 45.874L99.6024 45.867Z" fill="#20BB65"/>
<path d="M108.94 58.3241L108.875 58.3659C108.908 58.3589 108.934 58.345 108.94 58.3241Z" fill="#20BB65"/>
<path d="M109.509 64.7163C109.509 64.7163 109.519 64.7198 109.525 64.7232C109.519 64.7198 109.516 64.7163 109.509 64.7163Z" fill="#20BB65"/>
<path d="M106.784 59.7348C106.784 59.7348 106.775 59.7348 106.765 59.7314H106.784V59.7348Z" fill="#20BB65"/>
<path d="M106.755 58.5401C106.736 58.864 106.427 59.0138 106.619 59.296C106.619 59.4492 106.719 59.5956 106.784 59.7314C107.048 59.7523 106.817 59.923 107.041 59.9683L106.905 60.0241C106.983 60.0415 107.035 60.0659 106.963 60.1077L106.921 60.1146C107.035 60.139 106.98 60.1982 107.035 60.2087H106.993L107.019 60.2609H106.957C107.084 60.3167 107.1 60.3933 107.058 60.4699L107.23 60.4386C107.054 60.6128 107.422 60.6162 107.207 60.78H107.165C107.646 60.8914 106.882 61.0865 107.337 61.205C107.282 61.191 107.249 61.2259 107.207 61.2293C107.266 61.3025 107.301 61.3861 107.643 61.3478C107.643 61.407 107.539 61.407 107.409 61.4279C107.558 61.4105 107.627 61.4558 107.64 61.5011L107.581 61.4871L107.643 61.6125L107.926 61.5568C107.851 61.6369 107.581 61.6091 107.656 61.6683L107.89 61.6439C107.851 61.7449 107.5 61.8355 107.334 61.9435C107.262 62.3302 107.883 62.7133 107.48 63.0965L107.305 63.1174C107.045 63.1314 107.692 63.2045 107.451 63.2254L107.571 63.2637C107.526 63.2776 107.477 63.302 107.419 63.2846C107.409 63.3229 107.451 63.3229 107.529 63.3473L107.37 63.3926C107.246 63.5459 107.562 63.6713 107.5 63.8315C107.171 64.0231 107.474 64.3854 107.643 64.6014C108.026 64.9149 106.976 65.211 107.405 65.5315C107.37 65.5385 107.448 65.5698 107.48 65.5698L107.428 65.8415C107.428 65.8415 107.379 66.1725 107.604 66.4024C107.828 66.6288 108.329 66.7891 109.444 66.3467L109.499 66.3606C109.649 66.2108 109.688 66.1063 109.412 65.9739C109.759 65.9809 109.457 65.8415 109.571 65.8137L109.6 65.8206C109.34 65.7022 109.834 65.6291 109.6 65.5176C109.626 65.5245 109.724 65.5315 109.727 65.5524C109.688 65.4793 109.613 65.3782 109.815 65.3852C109.769 65.2145 109.873 64.9811 109.551 64.8627L109.607 64.8731C109.389 64.8034 109.577 64.793 109.467 64.7198C109.493 64.7198 109.506 64.7129 109.519 64.7129C109.304 64.6397 109.49 64.5178 109.399 64.4621H109.532L109.503 64.3297L109.473 64.3785C109.103 64.3576 109.707 64.2809 109.467 64.1834C109.512 64.0928 108.7 63.9988 108.878 63.9082C108.706 63.8664 109.161 63.9465 109.028 63.8803C109.22 63.8803 109.148 63.9117 109.304 63.8942C109.213 63.8315 109.503 63.7862 109.373 63.7061H109.522C109.246 63.6016 109.717 63.5006 109.454 63.4344C109.327 63.3299 109.899 63.3508 109.603 63.2463L109.805 63.1975C109.837 63.1488 109.555 63.1697 109.652 63.1139C109.779 63.1139 109.753 63.0408 109.876 63.0687C110.072 62.9363 109.584 62.8318 109.915 62.6541C109.665 62.6297 109.811 62.5426 109.623 62.5252C109.73 62.5148 109.633 62.3615 109.873 62.4381C109.893 62.4451 109.889 62.459 109.847 62.459H109.994C110.27 62.351 109.831 62.3023 109.87 62.2082C109.821 62.2396 109.837 62.2744 109.737 62.257L109.753 62.1699L109.88 62.1803L109.945 62.048L109.792 62.0759C109.867 62.0097 110.127 61.9678 109.906 61.9121C109.782 61.8912 109.704 61.9853 109.649 61.926C109.75 61.8355 109.896 61.6996 109.935 61.5882C109.763 61.6125 109.766 61.5881 109.73 61.5603L109.88 61.5429C109.662 61.4488 110.205 61.4697 110.029 61.3757H110.133H109.818C109.512 61.306 110.124 61.2886 109.711 61.2189C109.74 61.2607 109.382 61.2746 109.444 61.2154H109.59C109.558 61.1875 109.496 61.1841 109.525 61.1597C109.607 61.1701 109.737 61.1457 109.707 61.1039L109.893 61.1144L109.62 61.0621C109.769 60.982 109.564 60.9019 109.763 60.8497C109.763 60.8497 109.847 60.6998 109.623 60.6964C109.763 60.7068 109.808 60.6232 109.974 60.6232C109.815 60.6058 109.675 60.5187 109.834 60.4525L109.854 60.4595C110.003 60.2784 109.587 60.2261 109.776 60.0519C109.603 60.0833 109.688 59.9962 109.47 60.0519C109.236 59.9439 109.88 59.714 109.194 59.7767C109.148 59.7175 109.343 59.6722 109.373 59.6339L109.412 59.6443C109.337 59.5329 109.327 59.498 109.327 59.404C109.252 59.3691 108.937 59.4214 108.999 59.3274C109.129 59.3274 109.099 59.303 109.093 59.2716C109.116 59.2855 109.164 59.2855 109.239 59.2298C109.2 59.2298 109.174 59.2298 109.151 59.2228C109.161 59.2228 109.168 59.2159 109.181 59.2159C109.129 59.1741 109.09 59.1915 109.077 59.2159C109.057 59.2159 109.034 59.2263 108.999 59.2403C109.151 59.1567 108.963 59.0974 109.177 59.0487C109.099 58.9058 108.862 58.8466 108.755 58.7386C108.862 58.7003 108.966 58.7073 109.015 58.7386L108.956 58.6585C109.116 58.6237 109.057 58.6899 109.096 58.7108C109.333 58.547 108.797 58.5505 109.008 58.3729H108.878L108.898 58.3624C108.833 58.3763 108.735 58.3729 108.713 58.3589C108.846 58.3102 109.031 58.2858 109.012 58.2266C109.135 58.1464 108.917 58.1046 108.83 58.0594C108.813 58.0977 108.735 58.1081 108.683 58.1046C108.674 58.0768 108.807 58.0245 108.742 58.0141L108.927 57.9653C108.755 58.021 108.722 57.934 108.644 57.9409C108.778 57.8887 108.774 57.9583 108.878 57.9409C108.833 57.8225 108.856 57.8817 108.813 57.7633C108.66 57.7354 108.641 57.819 108.472 57.8294C108.423 57.7807 108.283 57.7598 108.381 57.6657L108.222 57.7284C108.069 57.6587 108.072 57.5891 108.222 57.4741C107.461 57.2686 106.999 57.3731 106.726 57.5089C106.453 57.6483 106.365 57.8225 106.365 57.8225C106.072 58.2056 106.583 58.2161 106.784 58.5331L106.755 58.5401Z" fill="#20BB65"/>
<path d="M107.676 74.505H107.601C107.63 74.5155 107.659 74.519 107.676 74.505Z" fill="#20BB65"/>
<path d="M105.107 80.2598C105.107 80.2598 105.114 80.2667 105.117 80.2736C105.117 80.2667 105.11 80.2633 105.107 80.2598Z" fill="#20BB65"/>
<path d="M105.15 74.4666C105.15 74.4666 105.14 74.4562 105.136 74.4528L105.15 74.4666Z" fill="#20BB65"/>
<path d="M105.725 73.4251C105.546 73.6899 105.211 73.6411 105.227 73.993C105.149 74.1253 105.162 74.3065 105.149 74.4632C105.36 74.6339 105.081 74.6479 105.25 74.8151L105.104 74.7872C105.162 74.843 105.195 74.8952 105.11 74.8917L105.071 74.8708C105.156 74.9579 105.078 74.9753 105.12 75.0171L105.081 74.9962V75.052L105.026 75.0171C105.104 75.1355 105.081 75.2122 105.006 75.254L105.169 75.3236C104.934 75.3759 105.247 75.5849 104.983 75.6058L104.944 75.5849C105.302 75.9437 104.554 75.6894 104.886 76.0448C104.843 75.9995 104.801 76.0134 104.762 75.9925C104.775 76.09 104.765 76.1771 105.078 76.3374C105.048 76.3896 104.96 76.3304 104.837 76.2781C104.973 76.3478 105.009 76.421 104.999 76.4697L104.954 76.4245L104.948 76.5673L105.214 76.6753C105.11 76.6996 104.892 76.529 104.928 76.623L105.139 76.731C105.058 76.7972 104.713 76.6822 104.518 76.6822C104.268 76.9783 104.622 77.6506 104.092 77.7656L103.93 77.689C103.699 77.5636 104.222 77.9711 104.005 77.8631L104.089 77.9607C104.044 77.9468 103.988 77.9433 103.946 77.8945C103.92 77.9224 103.956 77.9468 104.011 78.013L103.852 77.9677C103.673 78.0373 103.888 78.3125 103.754 78.4205C103.38 78.4135 103.471 78.8908 103.517 79.1695C103.702 79.6467 102.655 79.3541 102.88 79.8627C102.844 79.8488 102.899 79.9184 102.925 79.9358L102.753 80.1484C102.753 80.1484 102.561 80.4131 102.652 80.7336C102.746 81.0506 103.117 81.4442 104.291 81.6358L104.333 81.6741C104.531 81.6219 104.613 81.5522 104.431 81.2909C104.73 81.479 104.528 81.2004 104.642 81.2352L104.665 81.2561C104.489 81.0192 104.957 81.2108 104.801 80.9948C104.824 81.0122 104.902 81.0715 104.895 81.0924C104.895 81.0088 104.876 80.8834 105.048 80.9948C105.084 80.8241 105.282 80.6744 105.058 80.4061L105.104 80.4444C104.947 80.2703 105.113 80.3573 105.052 80.2389C105.078 80.2493 105.091 80.2528 105.1 80.2598C104.947 80.0856 105.162 80.0752 105.11 79.9811L105.227 80.0508L105.263 79.9219L105.214 79.9498C104.902 79.7338 105.461 79.9916 105.299 79.7791C105.38 79.7268 104.717 79.2113 104.915 79.2287C104.785 79.0998 105.143 79.4133 105.055 79.2844C105.224 79.3854 105.146 79.375 105.286 79.4412C105.237 79.3367 105.507 79.4551 105.429 79.3158L105.562 79.3924C105.37 79.159 105.825 79.3227 105.627 79.1242C105.565 78.9674 106.05 79.2914 105.845 79.0406L106.043 79.1067C106.095 79.0824 105.842 78.95 105.949 78.9535C106.059 79.0232 106.069 78.9465 106.163 79.0371C106.394 79.0301 106.02 78.6748 106.391 78.7027C106.186 78.5459 106.352 78.5494 106.196 78.4344C106.294 78.4832 106.28 78.3021 106.453 78.4971C106.466 78.5145 106.456 78.525 106.42 78.5006L106.547 78.5842C106.836 78.64 106.482 78.3613 106.56 78.3021C106.505 78.3021 106.502 78.3404 106.42 78.2707L106.472 78.2045L106.576 78.2812L106.693 78.2045L106.547 78.1453C106.645 78.1279 106.885 78.2359 106.719 78.0687C106.625 77.9816 106.508 78.0199 106.495 77.9398C106.622 77.9189 106.817 77.884 106.901 77.8074C106.742 77.7342 106.758 77.7134 106.739 77.6681L106.875 77.7343C106.732 77.5357 107.191 77.8527 107.087 77.675L107.178 77.7343L106.908 77.5601C106.68 77.3337 107.21 77.6541 106.889 77.3685C106.895 77.4207 106.58 77.2326 106.661 77.2152L106.788 77.2953C106.771 77.2535 106.723 77.2187 106.755 77.2152C106.82 77.2675 106.944 77.3197 106.937 77.271L107.09 77.3789L106.882 77.1804C107.048 77.1943 106.911 77.0132 107.106 77.0828C107.106 77.0828 107.253 77.0027 107.061 76.8738C107.178 76.9609 107.256 76.9156 107.396 77.0062C107.266 76.9017 107.191 76.7519 107.36 76.7868L107.373 76.8007C107.588 76.731 107.259 76.4523 107.503 76.414C107.34 76.3443 107.454 76.3165 107.243 76.2398C107.093 76.0169 107.757 76.1876 107.142 75.8532C107.132 75.7765 107.318 75.8497 107.363 75.8323L107.392 75.8601C107.386 75.7243 107.392 75.6894 107.438 75.6093C107.392 75.5397 107.1 75.4038 107.197 75.362C107.308 75.4386 107.295 75.3968 107.308 75.3689C107.321 75.3933 107.36 75.4177 107.454 75.4177C107.418 75.3968 107.399 75.3794 107.383 75.362C107.392 75.3654 107.399 75.3689 107.412 75.3724C107.389 75.3062 107.347 75.2993 107.324 75.3132C107.308 75.3028 107.282 75.2958 107.246 75.2888C107.418 75.3062 107.285 75.1495 107.49 75.2296C107.496 75.0659 107.324 74.8778 107.285 74.728C107.396 74.7593 107.477 74.8255 107.506 74.8743L107.496 74.7733C107.646 74.836 107.568 74.8569 107.588 74.8952C107.867 74.8952 107.415 74.5886 107.682 74.5643L107.571 74.4911H107.594C107.529 74.4667 107.454 74.4075 107.438 74.3796C107.575 74.4145 107.744 74.5016 107.753 74.4389C107.896 74.4423 107.734 74.2821 107.682 74.195C107.649 74.2194 107.578 74.1811 107.536 74.1462C107.542 74.1149 107.679 74.1497 107.63 74.1044L107.809 74.1706C107.636 74.1184 107.653 74.0243 107.581 73.986C107.721 74.0208 107.682 74.0731 107.779 74.1219C107.802 73.9999 107.789 74.0591 107.812 73.9372C107.698 73.8223 107.64 73.8849 107.49 73.7944C107.474 73.7247 107.366 73.6272 107.493 73.6028L107.327 73.5645C107.236 73.4182 107.272 73.3625 107.457 73.352C106.924 72.7389 106.485 72.5508 106.186 72.5055C105.887 72.4602 105.721 72.5578 105.721 72.5578C105.279 72.711 105.702 73.0245 105.712 73.4112L105.725 73.4251Z" fill="#20BB65"/>
<path d="M99.2479 87.9688L99.1829 87.9305C99.2056 87.9549 99.2284 87.9723 99.2479 87.9688Z" fill="#20BB65"/>
<path d="M94.5953 91.9331C94.5953 91.9331 94.5953 91.9434 94.5987 91.9503C94.5987 91.9434 94.5987 91.9365 94.5953 91.9331Z" fill="#20BB65"/>
<path d="M96.9985 86.7354C96.9985 86.7354 96.9951 86.7251 96.9916 86.7182L96.9985 86.7354Z" fill="#20BB65"/>
<path d="M97.9508 86.0703C97.6777 86.2236 97.398 86.0215 97.268 86.3455C97.1444 86.4291 97.0794 86.5998 97.0014 86.7322C97.1217 86.9865 96.8648 86.868 96.9461 87.0945L96.8291 87.0004C96.8551 87.0771 96.8648 87.1432 96.7933 87.098L96.7673 87.0631C96.8096 87.1816 96.7315 87.1607 96.751 87.2199L96.725 87.1851L96.699 87.2338L96.6665 87.1781C96.6893 87.3244 96.6373 87.3801 96.5527 87.3801L96.6698 87.5195C96.4357 87.4568 96.6307 87.7877 96.3869 87.6867L96.3609 87.6518C96.5332 88.143 95.9675 87.5613 96.1171 88.0385C96.0975 87.9793 96.052 87.9689 96.0293 87.934C96.0033 88.0281 95.9577 88.1047 96.1723 88.3938C96.1268 88.4287 96.0683 88.3346 95.9805 88.2266C96.0748 88.352 96.0748 88.4356 96.0488 88.4739L96.0293 88.4113L95.9643 88.5367L96.1593 88.7596C96.0553 88.7352 95.9317 88.4774 95.922 88.5785L96.0683 88.777C95.9675 88.7979 95.7041 88.5332 95.5286 88.4426C95.1807 88.5924 95.2262 89.3657 94.7028 89.2194L94.5857 89.0731C94.4296 88.8502 94.7352 89.4633 94.5857 89.2647L94.6215 89.3936C94.5857 89.3588 94.5369 89.3309 94.5207 89.2682C94.4849 89.2821 94.5077 89.3204 94.5337 89.4041L94.4069 89.2891C94.2183 89.2682 94.2963 89.6165 94.137 89.6549C93.8022 89.4772 93.6916 89.9475 93.6201 90.2227C93.5973 90.7382 92.7682 89.9928 92.765 90.5536C92.739 90.5258 92.7617 90.6128 92.778 90.6407L92.5374 90.7522C92.5374 90.7522 92.2545 90.902 92.209 91.2364C92.1667 91.5673 92.3423 92.0933 93.3242 92.804L93.347 92.8597C93.5485 92.905 93.6461 92.8771 93.5875 92.5601C93.7826 92.8702 93.7111 92.5218 93.8021 92.6054L93.8151 92.6333C93.7533 92.3372 94.0948 92.7273 94.046 92.4591C94.059 92.487 94.1078 92.5741 94.0915 92.5915C94.124 92.5148 94.1565 92.3929 94.2703 92.574C94.3743 92.4347 94.6084 92.3929 94.5142 92.0445L94.5402 92.1003C94.4687 91.8704 94.5825 92.0271 94.5759 91.8913C94.5922 91.9122 94.6052 91.9226 94.6117 91.9331C94.5434 91.7032 94.7418 91.7972 94.732 91.6858L94.81 91.8042L94.8946 91.7032H94.8393C94.6475 91.3653 95.0474 91.8565 94.9856 91.5882C95.0799 91.5778 94.6897 90.8044 94.8621 90.9159C94.797 90.7382 94.9921 91.1876 94.9661 91.0309C95.0766 91.1981 95.0116 91.1563 95.1124 91.2817C95.1124 91.1632 95.3075 91.3966 95.2945 91.2364L95.3823 91.3653C95.3042 91.0657 95.6456 91.4245 95.5481 91.1563C95.5578 90.9856 95.8602 91.5046 95.7757 91.1806L95.9285 91.3339C95.9837 91.3339 95.8082 91.097 95.909 91.1528C95.9805 91.2677 96.0195 91.2016 96.0683 91.327C96.2796 91.4315 96.0845 90.9368 96.4064 91.1319C96.2829 90.895 96.4324 90.9751 96.3414 90.8009C96.4097 90.8915 96.4714 90.7208 96.5462 90.9751C96.5527 90.996 96.5397 91.003 96.5137 90.9647L96.595 91.097C96.8323 91.2817 96.6275 90.8671 96.7218 90.8462C96.673 90.8218 96.6535 90.8532 96.6113 90.7522L96.686 90.7173L96.7478 90.8358L96.8844 90.8218L96.7771 90.6999C96.8714 90.7313 97.0469 90.9403 96.9656 90.7104C96.9136 90.5884 96.7966 90.571 96.8161 90.4909C96.9396 90.5292 97.1282 90.5919 97.2322 90.564C97.1184 90.4247 97.1412 90.4108 97.1412 90.3655L97.2355 90.4909C97.1867 90.2471 97.4696 90.7452 97.4468 90.5362L97.5054 90.6303L97.333 90.3481C97.2192 90.038 97.5671 90.578 97.3948 90.1669C97.3785 90.2157 97.1737 89.9022 97.2518 89.9231L97.333 90.052C97.333 90.0067 97.3038 89.951 97.3395 89.9649C97.3753 90.0415 97.4663 90.146 97.4826 90.1008L97.5736 90.2714L97.4663 89.9962C97.6094 90.0868 97.5606 89.8604 97.7069 90.0137C97.7069 90.0137 97.8695 90.0102 97.7492 89.8047C97.8175 89.937 97.9053 89.9335 97.9931 90.0833C97.9183 89.93 97.9117 89.7594 98.0483 89.8673L98.0548 89.8883C98.2759 89.9266 98.0938 89.5225 98.3279 89.6026C98.2109 89.4633 98.3247 89.4946 98.1653 89.3239C98.1231 89.0522 98.6466 89.5225 98.2336 88.9268C98.2564 88.8537 98.393 89.0069 98.4417 89.0139L98.4547 89.0522C98.5035 88.9268 98.523 88.899 98.5978 88.8502C98.5848 88.7666 98.3767 88.5053 98.484 88.5122C98.549 88.6307 98.5588 88.5924 98.5783 88.5715C98.5783 88.5994 98.6043 88.6412 98.6888 88.683C98.6661 88.6481 98.6563 88.6237 98.6498 88.5993C98.6563 88.6063 98.6628 88.6133 98.6726 88.6237C98.6791 88.5541 98.6465 88.5297 98.6173 88.5297C98.6043 88.5123 98.588 88.4948 98.5588 88.4704C98.7051 88.568 98.6531 88.3625 98.8026 88.5332C98.8741 88.3903 98.7961 88.1396 98.8254 87.9863C98.9099 88.0664 98.9587 88.1639 98.9619 88.2231L98.9944 88.1291C99.105 88.258 99.0237 88.2371 99.0269 88.2824C99.2773 88.4147 99.0009 87.9271 99.248 88.0316L99.1797 87.9131L99.1993 87.9236C99.1537 87.8713 99.1082 87.7807 99.105 87.7494C99.2123 87.8469 99.3261 88.0037 99.3618 87.9549C99.4886 88.028 99.4106 87.8051 99.4008 87.7041C99.3618 87.7111 99.3163 87.6414 99.2903 87.5926C99.3066 87.5683 99.4171 87.6658 99.3911 87.5996L99.5244 87.7459C99.3911 87.617 99.4431 87.5404 99.3976 87.4707C99.5081 87.5682 99.4496 87.5961 99.5179 87.6867C99.5894 87.5856 99.5536 87.6379 99.6252 87.5369C99.5699 87.3801 99.4919 87.408 99.3976 87.2547C99.4106 87.185 99.3553 87.0457 99.4789 87.0875L99.3456 86.9726C99.3261 86.7984 99.3813 86.767 99.5504 86.8437C99.3293 86.039 99.0172 85.6593 98.7701 85.4746C98.5198 85.29 98.3344 85.3005 98.3344 85.3005C97.876 85.2273 98.1198 85.708 97.967 86.0599L97.9508 86.0703Z" fill="#20BB65"/>
<path d="M86.2237 96.2074L86.1782 96.1447C86.1879 96.176 86.2042 96.2039 86.2237 96.2074Z" fill="#20BB65"/>
<path d="M80.4492 97.6809C80.4492 97.6809 80.4492 97.6912 80.4492 97.6981C80.4492 97.6912 80.4527 97.6878 80.4492 97.6809Z" fill="#20BB65"/>
<path d="M85.8042 93.8978C85.4953 93.9117 85.323 93.6017 85.0759 93.8351C84.9296 93.8525 84.806 93.9779 84.6792 94.0615C84.6857 94.3437 84.5004 94.1207 84.4841 94.3646L84.4159 94.2252C84.4094 94.3088 84.3931 94.3681 84.3443 94.2984L84.3346 94.2531C84.3248 94.3785 84.2631 94.3263 84.2566 94.389L84.2468 94.3437L84.2045 94.3785L84.198 94.3123C84.159 94.4517 84.0908 94.4795 84.0127 94.4447L84.0647 94.6258C83.8794 94.4621 83.9217 94.8523 83.7428 94.6468L83.7331 94.6015C83.6941 95.124 83.4112 94.3402 83.3592 94.8383C83.3657 94.7756 83.3299 94.7478 83.3202 94.7025C83.2584 94.7756 83.1869 94.8244 83.2682 95.1797C83.2129 95.1902 83.1999 95.0787 83.1609 94.9429C83.1967 95.0996 83.1641 95.1762 83.1251 95.1971L83.1316 95.1309L83.0211 95.2146L83.1089 95.5072C83.0243 95.4375 83.0113 95.1484 82.9658 95.2355L83.0211 95.4828C82.9203 95.4584 82.787 95.0961 82.6634 94.9359C82.2895 94.915 82.0229 95.6326 81.6068 95.2668L81.558 95.0822C81.5027 94.8105 81.5385 95.5037 81.48 95.2529L81.4637 95.3853C81.4442 95.34 81.4117 95.2912 81.4214 95.225C81.3824 95.2215 81.3922 95.2668 81.3791 95.3539L81.3109 95.1902C81.1483 95.0857 81.0833 95.4375 80.9207 95.3992C80.6867 95.0857 80.4005 95.4619 80.2282 95.6814C80.0039 96.1377 79.5454 95.0892 79.3211 95.5943C79.3081 95.556 79.2951 95.6465 79.2984 95.6779L79.035 95.6709C79.035 95.6709 78.7196 95.6813 78.5473 95.9635C78.3782 96.2457 78.3327 96.7996 78.9472 97.8899V97.9491C79.1098 98.078 79.2106 98.0989 79.2821 97.7854C79.3374 98.1547 79.4089 97.8063 79.4577 97.9247V97.9561C79.5162 97.66 79.6755 98.1686 79.734 97.9038C79.734 97.9352 79.7438 98.0362 79.7243 98.0432C79.7828 97.9875 79.8608 97.8934 79.8933 98.1059C80.0396 98.0258 80.2705 98.0954 80.3225 97.7366V97.7958C80.3485 97.5555 80.3908 97.7506 80.4363 97.6217C80.4428 97.6495 80.4493 97.6635 80.4493 97.6739C80.4785 97.437 80.6216 97.6077 80.6574 97.5032L80.6802 97.6461L80.7972 97.5938L80.7484 97.5694C80.7062 97.1758 80.8752 97.7993 80.9273 97.5311C81.0183 97.5659 80.9663 96.6881 81.0801 96.8658C81.0898 96.6742 81.0931 97.1688 81.1288 97.019C81.1646 97.2211 81.1223 97.1514 81.1613 97.3116C81.2036 97.2036 81.2914 97.5033 81.3434 97.35L81.3727 97.5067C81.4214 97.2002 81.5873 97.6809 81.6068 97.3918C81.6815 97.242 81.7531 97.8481 81.8018 97.5172L81.8799 97.7227C81.9319 97.7471 81.8669 97.4545 81.9319 97.5485C81.9514 97.6844 82.0132 97.6426 82.0067 97.7784C82.1562 97.9666 82.1757 97.4336 82.3903 97.7575C82.3741 97.4893 82.4749 97.6287 82.4619 97.4266C82.4879 97.5381 82.6114 97.4127 82.5789 97.6774C82.5789 97.6983 82.5626 97.6983 82.5561 97.653L82.5756 97.8098C82.7154 98.085 82.6959 97.6147 82.787 97.6426C82.7512 97.5973 82.7219 97.6182 82.7219 97.5067H82.8032L82.813 97.6426L82.943 97.6914L82.8943 97.5346C82.9658 97.6042 83.0438 97.8725 83.0601 97.6286C83.0601 97.4963 82.9625 97.4231 83.0113 97.3604C83.1088 97.451 83.2552 97.5938 83.3592 97.6147C83.3104 97.437 83.3397 97.4371 83.3592 97.3918L83.395 97.5485C83.447 97.3047 83.5055 97.8829 83.5706 97.6844L83.5868 97.7958L83.5413 97.4614C83.5608 97.127 83.6616 97.7749 83.6681 97.3256C83.6356 97.3639 83.5738 96.9842 83.6356 97.0399L83.6583 97.1932C83.6778 97.1549 83.6713 97.0887 83.6973 97.1166C83.6973 97.2037 83.7396 97.3395 83.7721 97.3012L83.7884 97.4963L83.8014 97.2002C83.8957 97.3465 83.9412 97.12 84.0127 97.3256C84.0127 97.3256 84.1623 97.3952 84.133 97.1549C84.1428 97.3047 84.224 97.343 84.2435 97.5172C84.237 97.3465 84.2988 97.1863 84.3801 97.35V97.3709C84.5622 97.5102 84.5557 97.0573 84.7378 97.2385C84.6857 97.0608 84.7768 97.1375 84.702 96.9145C84.7703 96.6498 85.0596 97.3151 84.9198 96.5871C84.9686 96.5313 85.0336 96.7334 85.0726 96.7612V96.803C85.1637 96.7125 85.1929 96.6951 85.2775 96.6846C85.3002 96.6045 85.2157 96.2701 85.31 96.3293C85.323 96.4686 85.3457 96.4338 85.3717 96.4268C85.3587 96.4547 85.3685 96.5035 85.427 96.5801C85.4205 96.5383 85.4205 96.5104 85.4238 96.486C85.4238 96.4965 85.4303 96.5035 85.4335 96.5174C85.466 96.4582 85.4465 96.4199 85.4205 96.4059C85.4173 96.385 85.4075 96.3606 85.3913 96.3258C85.4856 96.4791 85.5181 96.2735 85.5863 96.493C85.7066 96.3955 85.7359 96.1342 85.8237 96.0088C85.8692 96.1203 85.8724 96.2318 85.8529 96.2875L85.9212 96.2178C85.97 96.385 85.9049 96.3293 85.8887 96.3711C86.0642 96.608 86.0057 96.0367 86.1878 96.2457L86.1716 96.1063L86.1846 96.1273C86.1618 96.0576 86.1586 95.9565 86.1683 95.9287C86.2268 96.068 86.2691 96.2596 86.3211 96.2317C86.4057 96.3537 86.4252 96.1203 86.4544 96.0227C86.4154 96.0088 86.4024 95.9252 86.3992 95.8695C86.4252 95.8556 86.4837 95.9914 86.4869 95.9217L86.5487 96.1133C86.4804 95.9357 86.5584 95.8904 86.5422 95.8068C86.604 95.9426 86.539 95.9461 86.565 96.0576C86.669 95.9983 86.617 96.0297 86.721 95.9705C86.734 95.8033 86.6527 95.7928 86.6267 95.6117C86.6657 95.5559 86.6723 95.4027 86.7666 95.4967L86.6918 95.333C86.7438 95.1658 86.8056 95.1623 86.9259 95.3121C87.0462 94.483 86.9161 93.9988 86.7633 93.7167C86.6105 93.4345 86.4382 93.3578 86.4382 93.3578C86.0513 93.0826 86.0805 93.6295 85.8009 93.8769L85.8042 93.8978Z" fill="#20BB65"/>
<path d="M71.8077 97.9387L71.8007 97.862C71.8007 97.8969 71.8007 97.9282 71.8077 97.9387Z" fill="#20BB65"/>
<path d="M68.8131 97.5833C68.8131 97.5833 68.8131 97.5937 68.8062 97.6006C68.8062 97.5937 68.8097 97.5902 68.8131 97.5833Z" fill="#20BB65"/>
<path d="M71.5669 95.3676C71.5669 95.3676 71.5669 95.3573 71.5704 95.3504L71.5635 95.3676H71.5669Z" fill="#20BB65"/>
<path d="M72.1193 95.6256C71.9762 95.5211 71.9632 95.1693 71.7974 95.2947C71.7259 95.2598 71.6413 95.333 71.5633 95.3678C71.5048 95.6361 71.469 95.3609 71.4072 95.5873V95.4305C71.3845 95.5072 71.3617 95.5594 71.3552 95.4723L71.3617 95.4271C71.3292 95.542 71.313 95.4688 71.2967 95.5281L71.3032 95.4828L71.2772 95.5002L71.2869 95.4375C71.2382 95.5559 71.1992 95.5629 71.1732 95.5002L71.1569 95.6883C71.1049 95.4723 71.0431 95.8555 71.0008 95.6012L71.0073 95.5559C70.8773 96.0402 70.913 95.2041 70.783 95.6639C70.7992 95.6082 70.7895 95.5664 70.7927 95.5211C70.7472 95.5699 70.705 95.5942 70.6659 95.96C70.6367 95.953 70.6562 95.8416 70.6659 95.6987C70.6497 95.859 70.6172 95.9217 70.5944 95.9287L70.6107 95.8695L70.5424 95.9147L70.5229 96.2178C70.5001 96.1273 70.5554 95.8485 70.5164 95.9147L70.4904 96.1656C70.4481 96.1098 70.4644 95.7266 70.4416 95.535C70.2693 95.4027 69.9929 96.0158 69.8759 95.549L69.8921 95.3608C69.9246 95.0857 69.7913 95.7615 69.8174 95.5072L69.7816 95.6291C69.7816 95.5803 69.7783 95.5246 69.7946 95.4654C69.7783 95.4514 69.7718 95.4967 69.7458 95.5768V95.4026C69.6938 95.2598 69.5865 95.5803 69.5182 95.5002C69.4727 95.1379 69.2581 95.4305 69.1281 95.5977C68.9265 95.9844 68.9265 94.8627 68.7119 95.3086C68.7119 95.2703 68.6892 95.3539 68.6827 95.3853L68.5559 95.3225C68.5559 95.3225 68.403 95.2668 68.26 95.5037C68.1202 95.7406 67.9836 96.2735 68.0519 97.4544L68.0389 97.5137C68.0909 97.6739 68.1332 97.7122 68.234 97.4231C68.1852 97.7924 68.2893 97.4719 68.2893 97.5938L68.2828 97.6251C68.3738 97.3499 68.3413 97.876 68.4258 97.6321C68.4193 97.66 68.403 97.761 68.3933 97.7645C68.4323 97.7227 68.4908 97.6495 68.4583 97.8655C68.5461 97.8237 68.6404 97.9422 68.7379 97.6077L68.7249 97.6669C68.7867 97.4405 68.7672 97.6391 68.816 97.5276C68.816 97.5555 68.8127 97.5694 68.8127 97.5833C68.8777 97.3604 68.907 97.5625 68.946 97.4684L68.9265 97.6112L68.9915 97.5868L68.972 97.552C69.0371 97.1618 68.985 97.8063 69.063 97.559C69.0988 97.6147 69.2614 96.7578 69.2776 96.9563C69.3232 96.7752 69.2191 97.2524 69.2679 97.1166C69.2419 97.3221 69.2354 97.2419 69.2224 97.4057C69.2647 97.3151 69.2419 97.6216 69.3004 97.4893L69.2809 97.6495C69.3687 97.3674 69.3459 97.8725 69.4142 97.6008C69.4825 97.4754 69.3849 98.078 69.4792 97.7749L69.4727 97.9944C69.4922 98.0327 69.5215 97.7331 69.5345 97.8411C69.515 97.977 69.5507 97.9526 69.5215 98.0815C69.5507 98.3044 69.6743 97.7958 69.7036 98.1651C69.7523 97.9038 69.7718 98.0641 69.8076 97.869C69.7946 97.984 69.8791 97.8968 69.8076 98.1442C69.8011 98.1651 69.7946 98.1581 69.8011 98.1128L69.7783 98.2696C69.7848 98.5726 69.8759 98.1163 69.9117 98.1686C69.9052 98.1163 69.8856 98.1268 69.9117 98.0188L69.9474 98.0467L69.9246 98.179L69.9734 98.2626L69.9832 98.0989C70.0027 98.186 69.9799 98.4682 70.0384 98.2382C70.0677 98.1093 70.0385 98.0153 70.0742 97.9665C70.1002 98.085 70.136 98.2591 70.1815 98.3149C70.1978 98.1302 70.2108 98.1372 70.227 98.1024L70.2108 98.2626C70.2888 98.0467 70.1913 98.6179 70.2628 98.4472L70.2465 98.5587L70.2985 98.2243C70.3798 97.9143 70.2888 98.5587 70.3863 98.1338C70.3636 98.1581 70.4156 97.7784 70.4319 97.8516L70.4091 98.0048C70.4253 97.9735 70.4383 97.9108 70.4448 97.9421C70.4286 98.0258 70.4156 98.1651 70.4384 98.1442L70.4026 98.3358L70.4709 98.0571C70.4839 98.2278 70.5521 98.0258 70.5424 98.2452C70.5424 98.2452 70.5944 98.3602 70.6367 98.1233C70.6074 98.2696 70.6367 98.3323 70.6107 98.503C70.6432 98.3358 70.7082 98.2069 70.7082 98.388L70.7017 98.4089C70.757 98.6005 70.8512 98.172 70.8968 98.402C70.913 98.2138 70.9358 98.3219 70.9521 98.0815C71.0398 97.8551 71.0301 98.5796 71.1211 97.8446C71.1569 97.8098 71.1406 98.0223 71.1536 98.0606L71.1439 98.0989C71.2056 98.0432 71.2251 98.0397 71.2642 98.0606C71.2934 97.9909 71.3259 97.6495 71.3552 97.7366C71.3324 97.8725 71.3487 97.8481 71.3617 97.8481C71.352 97.869 71.3422 97.9177 71.3552 98.0118C71.3617 97.97 71.3682 97.9456 71.3747 97.9247C71.3747 97.9352 71.3747 97.9422 71.3747 97.9596C71.404 97.9143 71.4007 97.8725 71.3942 97.8516C71.3942 97.8307 71.3975 97.8028 71.3975 97.7645C71.4072 97.9421 71.4658 97.7575 71.4495 97.9944C71.5243 97.9456 71.5958 97.7122 71.6641 97.6251C71.6641 97.7471 71.6381 97.8516 71.6186 97.8969L71.6641 97.8551C71.6511 98.0292 71.6316 97.9526 71.6153 97.9874C71.6446 98.2731 71.7421 97.7192 71.7811 97.9805L71.8039 97.8446V97.869C71.8104 97.7959 71.8331 97.6983 71.8429 97.6774C71.8397 97.8272 71.8169 98.0257 71.8429 98.0188C71.8559 98.1651 71.9144 97.9526 71.9502 97.8725C71.9372 97.8446 71.9502 97.761 71.9567 97.7087C71.9729 97.7053 71.9697 97.855 71.986 97.7923L71.973 97.9944C71.9827 97.8028 72.025 97.7923 72.038 97.7087C72.038 97.8585 72.0055 97.8376 71.9957 97.9491C72.0542 97.9352 72.025 97.9421 72.0867 97.9282C72.129 97.7784 72.0932 97.7366 72.1225 97.559C72.1518 97.5207 72.1875 97.3813 72.2103 97.5067V97.3256C72.2721 97.1897 72.3013 97.2106 72.3241 97.3987C72.5614 96.6776 72.6102 96.176 72.6004 95.8555C72.5939 95.535 72.5289 95.3957 72.5289 95.3957C72.4119 94.9846 72.3046 95.5072 72.1225 95.6326L72.1193 95.6256Z" fill="#20BB65"/>
</svg>
