<svg width="177" height="108" viewBox="0 0 177 108" fill="none" xmlns="http://www.w3.org/2000/svg">
<path d="M2.97353 1.45605L2.89258 1.48771C2.93129 1.48771 2.96298 1.47717 2.97353 1.45605Z" fill="#20BB65"/>
<path d="M0.335767 2.71512C0.335767 2.71512 0.322168 2.71171 0.315369 2.70831L0.335767 2.71512Z" fill="#20BB65"/>
<path d="M0.454993 1.25082C0.371511 1.63345 0.00628503 1.75866 0.183686 2.14825C0.162815 2.33956 0.274126 2.53436 0.336738 2.71523C0.639363 2.77437 0.364565 2.95874 0.618491 3.03527L0.458475 3.09437C0.545436 3.1222 0.608049 3.15701 0.524567 3.20223H0.475863C0.608044 3.24397 0.541955 3.31353 0.608046 3.33093H0.559364L0.587176 3.397H0.517603C0.660219 3.47004 0.681096 3.56396 0.632397 3.6544L0.830671 3.61962C0.628922 3.82833 1.05678 3.83531 0.816765 4.03358H0.768062C1.32809 4.1588 0.45501 4.41968 0.994169 4.5449C0.928079 4.53099 0.893276 4.57272 0.844578 4.57968C0.917625 4.66664 0.966338 4.76406 1.3594 4.69101C1.36636 4.76058 1.24809 4.771 1.09852 4.80578C1.26896 4.77448 1.35244 4.81968 1.37331 4.87185L1.30373 4.86145L1.3907 5.00404L1.70725 4.91015C1.63072 5.00755 1.31765 5.00754 1.41157 5.07015L1.67941 5.01448C1.65159 5.13623 1.262 5.28579 1.08807 5.43884C1.07068 5.93278 1.86724 6.24584 1.52288 6.785L1.33157 6.85807C1.04634 6.94851 1.78724 6.8546 1.52636 6.94504L1.67245 6.95548C1.62375 6.98331 1.57854 7.02851 1.50549 7.02503C1.50549 7.07373 1.55418 7.05982 1.65158 7.06677L1.4881 7.16766C1.40462 7.39028 1.7942 7.4355 1.78376 7.64072C1.49853 7.98161 1.97161 8.29814 2.25336 8.45815C2.78905 8.62164 1.84986 9.45648 2.46554 9.60257C2.43076 9.6304 2.53162 9.61997 2.56293 9.60605L2.66382 9.92953C2.66382 9.92953 2.69859 10.0269 2.78207 10.1347C2.86556 10.2426 2.99426 10.3643 3.17514 10.413C3.54038 10.5209 4.08997 10.3017 4.95262 9.25821L5.01525 9.23732C5.08482 9.02166 5.07786 8.91732 4.7335 8.95211C5.09178 8.76775 4.7161 8.81296 4.81698 8.726L4.84827 8.71555C4.52478 8.75034 4.99786 8.42684 4.70915 8.45119C4.74045 8.44075 4.84132 8.39902 4.85523 8.41641C4.78219 8.37119 4.66392 8.319 4.8761 8.22508C4.75436 8.09638 4.76828 7.84593 4.38565 7.88072L4.44826 7.86335C4.19086 7.89813 4.38564 7.80422 4.24303 7.78335C4.27085 7.76944 4.28478 7.75898 4.29521 7.7555C4.03781 7.77985 4.19085 7.58853 4.0691 7.57461L4.21519 7.51899L4.13868 7.40417L4.12477 7.46332C3.71779 7.58854 4.3439 7.27895 4.05172 7.27895C4.07259 7.17808 3.15428 7.39026 3.31777 7.23025C3.11254 7.24764 3.63779 7.16764 3.47082 7.15025C3.67953 7.0772 3.61344 7.13634 3.77693 7.06329C3.65518 7.03198 3.96128 6.88938 3.79431 6.85807L3.95779 6.80241C3.62386 6.79545 4.1178 6.54503 3.80822 6.5659C3.63778 6.50328 4.27782 6.35022 3.92301 6.33631L4.13519 6.22846C4.15954 6.1728 3.84997 6.27368 3.94388 6.19368C4.0865 6.15542 4.0378 6.09627 4.18042 6.08931C4.37173 5.91539 3.79779 5.94325 4.13519 5.68932C3.84996 5.72758 3.99605 5.60931 3.78039 5.63714C3.90213 5.60235 3.763 5.47712 4.04475 5.49799C4.0691 5.49799 4.06562 5.51537 4.0204 5.5258L4.18738 5.49451C4.47957 5.33102 3.97866 5.37973 4.00301 5.28233C3.95431 5.32059 3.97867 5.35188 3.85692 5.35536V5.2684L4.00301 5.25103L4.0552 5.11189L3.88476 5.16756C3.9578 5.08755 4.24999 5.00059 3.98911 4.99015C3.84649 4.99015 3.76648 5.09796 3.70039 5.04926C3.80126 4.9449 3.95432 4.78839 3.98562 4.67708C3.79083 4.72578 3.79431 4.69795 3.74909 4.67708L3.91953 4.63882C3.66213 4.57969 4.28477 4.52403 4.07607 4.45794L4.1978 4.44401L3.83605 4.48575C3.48125 4.45445 4.18041 4.36752 3.70039 4.34665C3.73865 4.38491 3.32819 4.43707 3.39428 4.37098L3.56124 4.35357C3.5195 4.3327 3.44994 4.3327 3.48124 4.30835C3.57168 4.30835 3.72127 4.27358 3.68648 4.23531L3.89866 4.22487L3.58213 4.20054C3.74562 4.10662 3.50907 4.04748 3.73516 3.98139C3.73516 3.98139 3.82561 3.82833 3.56821 3.84225C3.73169 3.84225 3.7804 3.75876 3.96824 3.7518C3.78388 3.74833 3.62038 3.66834 3.80474 3.59877H3.82909C4.00301 3.42485 3.51951 3.3866 3.74213 3.21615C3.54386 3.25094 3.64473 3.16398 3.3908 3.21615C3.11948 3.10484 3.8778 2.89264 3.08124 2.93786C3.02906 2.87873 3.25515 2.83698 3.29342 2.79871L3.33864 2.80916C3.25863 2.69437 3.24818 2.6596 3.25862 2.56569C3.17862 2.52742 2.8099 2.55871 2.88991 2.4648C3.03948 2.47871 3.00818 2.4474 3.0047 2.41609C3.02905 2.43349 3.0847 2.4335 3.17862 2.3848C3.1334 2.3848 3.10559 2.37783 3.08124 2.37087C3.09167 2.37087 3.1021 2.36739 3.11601 2.36739C3.06036 2.32217 3.01513 2.3326 2.99774 2.36043C2.97687 2.36043 2.94558 2.3674 2.90731 2.37784C3.09167 2.30827 2.87947 2.22826 3.12992 2.20043C3.05687 2.05434 2.79252 1.96041 2.68469 1.83866C2.81339 1.81431 2.92817 1.83869 2.98383 1.87L2.93164 1.78304C3.11948 1.7726 3.04297 1.82824 3.08124 1.85259C3.37343 1.72388 2.76469 1.64736 3.03253 1.50474L2.88296 1.48733L2.90731 1.47693C2.83079 1.48041 2.72294 1.4595 2.69511 1.44211C2.85512 1.41428 3.06732 1.42473 3.05688 1.36211C3.20994 1.30298 2.9734 1.223 2.88296 1.16386C2.85861 1.20212 2.76817 1.19166 2.70904 1.18123C2.70208 1.14992 2.86209 1.12558 2.79252 1.10123L3.01166 1.09079C2.80644 1.11166 2.78555 1.01774 2.69511 1.00731C2.85512 0.982957 2.83773 1.05253 2.95948 1.05601C2.93513 0.930786 2.94557 0.993427 2.92122 0.868203C2.75425 0.805591 2.71598 0.885588 2.52119 0.861239C2.47597 0.802105 2.31946 0.746437 2.45164 0.673389L2.25683 0.701202C2.10377 0.589891 2.12465 0.516841 2.32292 0.436836C1.52287 0.0159447 0.983727 -0.0431685 0.639361 0.0229219C0.298474 0.0890124 0.155852 0.27336 0.155852 0.27336C-0.271997 0.645553 0.298477 0.829931 0.468921 1.25082H0.454993Z" fill="#20BB65"/>
<path d="M10.1333 15.8325L10.1017 15.9134C10.1263 15.8853 10.1404 15.8536 10.1333 15.8325Z" fill="#20BB65"/>
<path d="M15.6525 19.3182C15.6525 19.3182 15.6596 19.3111 15.6668 19.304C15.6596 19.3075 15.656 19.3111 15.6525 19.3182Z" fill="#20BB65"/>
<path d="M9.26114 18.6256C9.26114 18.6256 9.25094 18.6324 9.24414 18.6358L9.26454 18.6256H9.26114Z" fill="#20BB65"/>
<path d="M8.26728 17.5404C8.49338 17.8604 8.33685 18.2187 8.74383 18.3509C8.87601 18.4935 9.08819 18.5491 9.26211 18.6257C9.50908 18.4448 9.4604 18.7683 9.68998 18.6291L9.62389 18.7857C9.70389 18.7404 9.76997 18.7161 9.74562 18.8135L9.71431 18.8518C9.83257 18.7822 9.83606 18.8796 9.89519 18.8413L9.8639 18.8796L9.92999 18.9005L9.88129 18.9492C10.0343 18.8935 10.1178 18.9422 10.1491 19.0396L10.2604 18.8692C10.2778 19.1579 10.57 18.8518 10.5491 19.1648L10.5213 19.2031C10.9874 18.8761 10.5874 19.6831 11.0431 19.3805C10.9874 19.4188 10.9944 19.4744 10.9666 19.5127C11.0779 19.5196 11.1822 19.551 11.3979 19.217C11.4535 19.2588 11.377 19.3526 11.304 19.4848C11.3979 19.3387 11.4883 19.3109 11.5405 19.3318L11.4848 19.3735L11.6483 19.4083L11.7979 19.1161C11.8153 19.2379 11.5996 19.464 11.711 19.4396L11.857 19.2101C11.9231 19.3144 11.7596 19.7005 11.7492 19.9301C12.0866 20.2744 12.8588 19.9231 12.9945 20.5493L12.911 20.7371C12.7719 21.0015 13.231 20.4101 13.1093 20.6571L13.2171 20.5632C13.2032 20.6154 13.2032 20.6814 13.1476 20.7267C13.1823 20.758 13.2067 20.7162 13.2797 20.6536L13.2345 20.8414C13.325 21.0571 13.631 20.8136 13.7667 20.9666C13.7945 21.4119 14.3406 21.3006 14.6537 21.2241C15.1546 20.9771 15.012 22.2224 15.5546 21.9093C15.5477 21.9511 15.6137 21.878 15.6277 21.8467L15.906 22.0206C15.906 22.0206 16.2573 22.205 16.5912 22.045C16.9286 21.885 17.2243 21.3701 17.193 20.0101L17.2243 19.9545C17.1338 19.7423 17.0538 19.6692 16.8138 19.9196C16.9599 19.5474 16.706 19.8257 16.7234 19.6901L16.7408 19.6622C16.5181 19.9022 16.6573 19.3422 16.4521 19.5544C16.4695 19.5266 16.5182 19.4292 16.539 19.4327C16.4521 19.4501 16.3268 19.4883 16.4208 19.2726C16.2399 19.2553 16.0764 19.057 15.812 19.3457L15.8468 19.2901C15.6798 19.4883 15.7564 19.2901 15.6381 19.3701C15.6485 19.3422 15.652 19.3248 15.6555 19.3144C15.4851 19.5057 15.4607 19.2587 15.3633 19.3318L15.4294 19.1927L15.2903 19.1648L15.3216 19.217C15.1129 19.5892 15.3494 18.9352 15.1372 19.1335C15.0816 19.0431 14.5633 19.8327 14.5737 19.6031C14.4415 19.7597 14.7616 19.3353 14.6259 19.4396C14.7268 19.2413 14.7198 19.3318 14.7859 19.1648C14.6781 19.2275 14.7928 18.9144 14.6502 19.0083L14.7268 18.8553C14.4798 19.0848 14.6572 18.5596 14.4485 18.7891C14.2815 18.8622 14.6294 18.3022 14.365 18.5457L14.438 18.3196C14.4137 18.2639 14.2676 18.5526 14.2746 18.4274C14.3476 18.2987 14.2746 18.2917 14.3685 18.1839C14.3754 17.9265 13.9893 18.3474 14.045 17.9265C13.8711 18.1561 13.885 17.9682 13.7563 18.1422C13.8154 18.0308 13.6241 18.0448 13.8398 17.8535C13.8572 17.8395 13.8676 17.85 13.8398 17.8917L13.9337 17.7491C14.0171 17.4256 13.7006 17.8187 13.6484 17.7282C13.6415 17.7909 13.6797 17.7978 13.5997 17.8848L13.5406 17.8222L13.6276 17.7073L13.5649 17.5717L13.4884 17.7317C13.4815 17.6204 13.6206 17.3525 13.4328 17.5334C13.3319 17.6378 13.3597 17.7665 13.2728 17.7804C13.2658 17.6343 13.2554 17.4186 13.1962 17.3143C13.0988 17.4882 13.078 17.4673 13.0328 17.4847L13.1232 17.3352C12.9006 17.4778 13.2936 16.9908 13.0988 17.0951L13.1719 16.9978L12.9527 17.2865C12.6849 17.523 13.1023 16.956 12.7545 17.29C12.8067 17.29 12.5667 17.6204 12.5597 17.5299L12.6606 17.3978C12.6153 17.4117 12.5701 17.4639 12.5701 17.4256C12.6327 17.3595 12.7093 17.2273 12.6571 17.2273L12.7962 17.0673L12.5597 17.2795C12.6049 17.0951 12.3962 17.2238 12.504 17.0151C12.504 17.0151 12.4553 16.8447 12.2849 17.0395C12.3962 16.9212 12.3684 16.8308 12.4936 16.6847C12.3649 16.8169 12.191 16.8795 12.2675 16.6986L12.2849 16.6847C12.271 16.4343 11.9162 16.7543 11.9405 16.4795C11.8292 16.6465 11.8327 16.5143 11.697 16.7369C11.4292 16.8586 11.7909 16.1629 11.2796 16.7717C11.1996 16.7682 11.3248 16.5734 11.3248 16.5212L11.3631 16.4969C11.224 16.476 11.1926 16.4621 11.13 16.3925C11.0466 16.4273 10.817 16.716 10.8065 16.5977C10.9179 16.4969 10.8726 16.4969 10.8483 16.4795C10.8796 16.4725 10.9144 16.4343 10.9422 16.3299C10.9109 16.3612 10.8865 16.3786 10.8657 16.3925C10.8726 16.3821 10.8761 16.3751 10.8866 16.3647C10.8135 16.3751 10.7926 16.4168 10.7996 16.4482C10.7857 16.4655 10.7683 16.4899 10.7509 16.5247C10.8239 16.3403 10.6257 16.4412 10.7753 16.2395C10.6187 16.1908 10.3683 16.3264 10.2048 16.3229C10.2743 16.2116 10.3683 16.1421 10.4309 16.1282L10.33 16.1073C10.4483 15.9612 10.4378 16.0586 10.4831 16.0447C10.5874 15.7421 10.1213 16.1351 10.1978 15.8394L10.083 15.9368L10.0935 15.9125C10.0448 15.9716 9.95433 16.0377 9.92303 16.0447C10.0135 15.909 10.163 15.756 10.1074 15.7247C10.17 15.5716 9.94738 15.6968 9.84303 15.7177C9.85347 15.7629 9.78388 15.822 9.73518 15.8568C9.70735 15.8394 9.79779 15.7038 9.73518 15.742L9.87432 15.5751C9.7491 15.7385 9.66562 15.6898 9.59953 15.749C9.69345 15.6133 9.72824 15.6759 9.8152 15.589C9.70736 15.5229 9.75953 15.5542 9.6517 15.4881C9.49169 15.5681 9.523 15.6516 9.37343 15.7768C9.30038 15.7699 9.1543 15.8429 9.18908 15.7003L9.07777 15.8603C8.88993 15.8986 8.85515 15.8325 8.9282 15.6342C8.07598 15.9264 7.66202 16.2812 7.47419 16.5769C7.28635 16.8725 7.32462 17.1021 7.32462 17.1021C7.30723 17.6726 7.83247 17.3804 8.25684 17.5474L8.26728 17.5404Z" fill="#20BB65"/>
<path d="M25.4313 22.7197L25.4384 22.8042C25.4454 22.769 25.4489 22.7338 25.4313 22.7197Z" fill="#20BB65"/>
<path d="M32.0118 23.8919C32.0118 23.8919 32.0153 23.8816 32.0188 23.8746C32.0118 23.8816 32.0118 23.885 32.0118 23.8919Z" fill="#20BB65"/>
<path d="M25.8562 25.6104C25.8562 25.6104 25.8493 25.6208 25.8458 25.6277L25.8597 25.6104H25.8562Z" fill="#20BB65"/>
<path d="M24.5374 25.0851C24.8713 25.266 24.8817 25.6556 25.2887 25.5895C25.4591 25.6591 25.6678 25.6173 25.8522 25.6104C25.9948 25.3425 26.0818 25.6556 26.2314 25.433V25.6034C26.287 25.5269 26.3357 25.4816 26.3531 25.5756L26.3427 25.6208C26.4192 25.506 26.4609 25.593 26.4992 25.5373L26.4888 25.586L26.5549 25.579L26.5305 25.6452C26.6453 25.5339 26.7357 25.5408 26.8053 25.6173L26.8401 25.4191C26.9653 25.673 27.1079 25.2764 27.2088 25.5686L27.1984 25.6173C27.494 25.1338 27.4349 26.0312 27.7306 25.5756C27.6923 25.6312 27.7236 25.6799 27.7097 25.7286C27.814 25.6904 27.9149 25.6799 27.9914 25.2904C28.0575 25.3077 28.0227 25.4225 28.0054 25.5756C28.0367 25.4051 28.1062 25.3425 28.1619 25.3425L28.1271 25.4051L28.2871 25.3738L28.3149 25.0468C28.3776 25.1547 28.2628 25.4434 28.3532 25.3808L28.4019 25.1129C28.5028 25.186 28.4923 25.6034 28.5654 25.8191C28.9898 26.0139 29.5811 25.4086 29.915 25.9478L29.9011 26.153C29.8628 26.4487 30.0855 25.7356 30.0576 26.0104L30.1272 25.8817C30.1342 25.9373 30.1516 25.9965 30.1168 26.0591C30.1585 26.0765 30.169 26.0278 30.2142 25.9443L30.2351 26.1356C30.3881 26.306 30.5933 25.9756 30.7672 26.073C30.9342 26.48 31.4038 26.1982 31.6717 26.0278C32.0682 25.6347 32.3047 26.8626 32.7186 26.4C32.7256 26.4417 32.7674 26.3513 32.7708 26.32L33.0839 26.4C33.0839 26.4 33.4665 26.473 33.7378 26.2226C34.0091 25.9721 34.1587 25.3947 33.7309 24.1007L33.7448 24.0381C33.5952 23.8607 33.4909 23.8155 33.3378 24.1251C33.3691 23.7251 33.2022 24.0659 33.1813 23.9338L33.1882 23.9025C33.0456 24.1946 33.0074 23.6207 32.8752 23.885C32.8821 23.8537 32.8995 23.7459 32.9239 23.7424C32.8439 23.7842 32.736 23.8572 32.7604 23.6276C32.5795 23.6659 32.3534 23.5268 32.1934 23.8816L32.2108 23.819C32.1134 24.059 32.1238 23.8433 32.0369 23.9616C32.0369 23.9303 32.0369 23.9129 32.0369 23.9025C31.936 24.139 31.8316 23.9129 31.7621 24.0103L31.7795 23.8572L31.6369 23.8746L31.6821 23.9129C31.6055 24.3338 31.616 23.6346 31.4768 23.892C31.3934 23.8259 31.1603 24.7408 31.0942 24.5216C31.0177 24.7129 31.1812 24.2086 31.0907 24.3477C31.122 24.1286 31.1429 24.2155 31.1499 24.0381C31.0664 24.132 31.0733 23.7981 30.9655 23.9338L30.9864 23.7633C30.8299 24.059 30.8159 23.5059 30.6977 23.7946C30.5655 23.9198 30.7012 23.2763 30.5342 23.5929L30.5237 23.3563C30.4785 23.3111 30.4438 23.6346 30.4055 23.5129C30.4333 23.3668 30.3533 23.3876 30.4055 23.252C30.3185 23.005 30.1029 23.5337 30.002 23.1233C29.9185 23.4016 29.8663 23.2172 29.8037 23.4259C29.8211 23.3007 29.6437 23.3772 29.7794 23.1268C29.7898 23.1059 29.8037 23.1128 29.7968 23.1615L29.835 22.9946C29.7968 22.6641 29.6368 23.1407 29.5533 23.0746C29.5707 23.1337 29.6089 23.1268 29.5672 23.2381L29.4872 23.1998L29.5289 23.0607L29.4176 22.9563L29.4037 23.1337C29.355 23.0328 29.3863 22.7337 29.275 22.9667C29.2193 23.0989 29.2924 23.2137 29.2193 23.2555C29.1567 23.1233 29.0628 22.9215 28.9689 22.8485C28.9445 23.0467 28.9167 23.0328 28.8784 23.0676L28.9063 22.8972C28.7498 23.1128 28.9341 22.5146 28.788 22.6815L28.8193 22.5633L28.7254 22.9146C28.5619 23.2346 28.7358 22.5528 28.5376 22.9911C28.5863 22.9702 28.4889 23.3702 28.4471 23.2868L28.4923 23.1233C28.4541 23.1511 28.4332 23.2207 28.4193 23.1824C28.4541 23.0954 28.4749 22.9459 28.4228 22.9633L28.4923 22.7615L28.3532 23.0467C28.3219 22.8589 28.1758 23.0607 28.1932 22.8241C28.1932 22.8241 28.0749 22.685 27.9949 22.932C28.0541 22.7789 27.988 22.7058 28.0471 22.525C27.9775 22.6954 27.8419 22.8206 27.8384 22.6224L27.8523 22.6015C27.734 22.3754 27.5323 22.8137 27.4384 22.5493C27.4036 22.7476 27.3514 22.6258 27.3201 22.8798C27.1218 23.0989 27.1601 22.3128 26.9444 23.0815C26.8679 23.1094 26.9027 22.8832 26.8783 22.8346L26.9027 22.7963C26.7636 22.8346 26.7288 22.8346 26.6383 22.7963C26.5757 22.8624 26.4922 23.2207 26.4261 23.1163C26.4853 22.9772 26.4435 22.9981 26.4122 22.9911C26.4366 22.9737 26.454 22.9215 26.4331 22.8172C26.4192 22.8589 26.4018 22.8868 26.3914 22.9076C26.3914 22.8972 26.3914 22.8867 26.3983 22.8728C26.3357 22.9111 26.3357 22.9598 26.3531 22.9841C26.3461 23.005 26.3427 23.0328 26.3427 23.0746C26.3288 22.8763 26.1896 23.0537 26.2383 22.8067C26.0713 22.8276 25.9044 23.0607 25.7513 23.1233C25.7652 22.9946 25.8209 22.8867 25.8696 22.8485L25.7687 22.8728C25.8105 22.6919 25.8452 22.7789 25.88 22.7511C25.8383 22.4311 25.5878 22.9911 25.5217 22.692L25.4626 22.8311V22.8067C25.4417 22.8833 25.3896 22.9807 25.3652 22.9981C25.3826 22.8346 25.4522 22.6328 25.3861 22.6293C25.3722 22.4658 25.2261 22.6711 25.1426 22.7407C25.1704 22.7755 25.1426 22.8624 25.1113 22.9111C25.08 22.9111 25.0974 22.7476 25.0556 22.8102L25.1043 22.5946C25.0696 22.7998 24.9687 22.7928 24.9374 22.8763C24.9582 22.7128 25.0209 22.7511 25.0556 22.6363C24.9235 22.6259 24.9895 22.6293 24.8574 22.6189C24.7495 22.7615 24.8191 22.8242 24.7426 23.0016C24.673 23.0294 24.5756 23.1615 24.5408 23.0189L24.5165 23.2137C24.3669 23.332 24.3043 23.2937 24.2765 23.0815C23.6608 23.7425 23.4764 24.2538 23.4521 24.6016C23.4277 24.9495 23.5634 25.1338 23.5634 25.1338C23.7999 25.6382 24.1165 25.1338 24.5582 25.0817L24.5374 25.0851Z" fill="#20BB65"/>
<path d="M42.4766 24.7616L42.5012 24.8425C42.5012 24.8038 42.4977 24.7722 42.4766 24.7616Z" fill="#20BB65"/>
<path d="M49.2003 24.7406C49.2003 24.7406 49.2003 24.7302 49.2072 24.7233C49.2037 24.7302 49.2003 24.7372 49.2003 24.7406Z" fill="#20BB65"/>
<path d="M43.4396 27.5165C43.4396 27.5165 43.4362 27.5301 43.4328 27.5369L43.443 27.5165H43.4396Z" fill="#20BB65"/>
<path d="M42.0631 27.2557C42.4214 27.3635 42.5084 27.7461 42.8875 27.6035C43.0649 27.6383 43.2597 27.5583 43.4371 27.52C43.5275 27.2278 43.6667 27.52 43.771 27.28L43.8058 27.447C43.8406 27.3635 43.8823 27.3078 43.9137 27.3983V27.447C43.9624 27.3217 44.018 27.3983 44.0458 27.3357V27.3844L44.105 27.3635L44.0945 27.4331C44.185 27.3009 44.2754 27.2974 44.3554 27.36V27.1583C44.5189 27.3878 44.5885 26.9739 44.7415 27.2383V27.287C44.9433 26.7513 45.0442 27.6452 45.2529 27.1374C45.2285 27.2 45.2633 27.2417 45.2598 27.2904C45.3537 27.2313 45.4546 27.2 45.4581 26.8035C45.5242 26.8069 45.5103 26.9287 45.5207 27.0783C45.5207 26.9043 45.5798 26.8313 45.6355 26.8209L45.6111 26.8869L45.7642 26.8243L45.7364 26.4973C45.8164 26.5913 45.7538 26.8974 45.8303 26.8174V26.5461C45.9416 26.5982 46.0042 27.0087 46.112 27.207C46.5608 27.3183 47.0373 26.6191 47.4547 27.0921L47.4756 27.2974C47.486 27.5966 47.5869 26.8557 47.6043 27.1304L47.653 26.9948C47.6669 27.047 47.6947 27.1061 47.6739 27.1722C47.7191 27.1826 47.7191 27.1339 47.7504 27.0435L47.7991 27.2278C47.9765 27.3704 48.1226 27.0087 48.3104 27.0817C48.54 27.4574 48.9539 27.1061 49.1905 26.8974C49.5174 26.4487 49.9453 27.6313 50.2792 27.1165C50.2931 27.1583 50.3175 27.0643 50.3175 27.0296L50.6375 27.0678C50.6375 27.0678 51.0236 27.0922 51.2532 26.8069C51.4828 26.5252 51.5454 25.9338 50.9262 24.7059L50.9332 24.6399C50.7558 24.4833 50.6479 24.452 50.5401 24.779C50.5088 24.379 50.3975 24.7408 50.3557 24.6086V24.5772C50.2618 24.8868 50.1366 24.3233 50.0427 24.6016C50.0427 24.5703 50.0427 24.459 50.067 24.452C49.994 24.5042 49.8966 24.5946 49.8862 24.3616C49.7122 24.4242 49.4687 24.3199 49.3644 24.6921L49.3713 24.6259C49.3122 24.8764 49.2879 24.6642 49.2218 24.7929C49.2183 24.7616 49.2113 24.7477 49.2113 24.7338C49.1453 24.9842 49.0096 24.7755 48.9539 24.8833L48.947 24.7268L48.8078 24.7651L48.86 24.7964C48.8496 25.2242 48.7487 24.532 48.6548 24.8068C48.5609 24.7547 48.4774 25.6938 48.3765 25.4886C48.3313 25.6869 48.4148 25.1651 48.3452 25.3181C48.3382 25.0955 48.3765 25.179 48.3556 25.0016C48.2895 25.1095 48.2408 24.7755 48.1574 24.9286L48.1504 24.7546C48.0426 25.0712 47.9417 24.5285 47.8686 24.8312C47.7573 24.9738 47.7886 24.3198 47.6739 24.6572L47.6252 24.4242C47.573 24.3859 47.5904 24.7129 47.5347 24.5981C47.5347 24.452 47.4617 24.4799 47.4965 24.3407C47.3678 24.1112 47.2425 24.6712 47.0721 24.2851C47.0373 24.5738 46.9538 24.4033 46.926 24.619C46.9225 24.4938 46.759 24.6016 46.8529 24.3268C46.8599 24.3059 46.8738 24.3094 46.8738 24.3581L46.8843 24.1877C46.7903 23.8676 46.7138 24.3651 46.6164 24.3198C46.6442 24.3755 46.6825 24.3616 46.6582 24.4764L46.5712 24.4555L46.5886 24.3129L46.4599 24.2294L46.4773 24.4068C46.4147 24.3164 46.3903 24.0137 46.3208 24.2677C46.2894 24.4068 46.3799 24.5042 46.3138 24.5634C46.2303 24.4451 46.1016 24.2642 45.9938 24.212C46.0042 24.4103 45.9729 24.4033 45.9451 24.4451V24.2711C45.8268 24.5146 45.9033 23.892 45.7885 24.0833L45.799 23.9615L45.7677 24.3233C45.6633 24.6677 45.7155 23.9651 45.5972 24.4347C45.6425 24.4033 45.6146 24.8173 45.559 24.7408L45.5729 24.5738C45.5416 24.6085 45.5311 24.6781 45.5103 24.6468C45.5311 24.5564 45.5207 24.4033 45.4755 24.4312L45.5068 24.2224L45.4163 24.532C45.3503 24.3546 45.2459 24.5807 45.2181 24.3442C45.2181 24.3442 45.0755 24.2294 45.0407 24.4903C45.072 24.3303 44.992 24.2677 45.0198 24.0798C44.9815 24.2607 44.8702 24.4103 44.8285 24.219L44.8355 24.1981C44.6789 24.0033 44.5537 24.4694 44.4146 24.2259C44.4146 24.4277 44.3415 24.3164 44.3554 24.5738C44.1989 24.8242 44.0911 24.0416 44.0215 24.8346C43.9519 24.8764 43.945 24.6468 43.9102 24.6051L43.9276 24.5634C43.7989 24.626 43.7606 24.6294 43.6667 24.6086C43.618 24.6851 43.6006 25.0538 43.5171 24.9599C43.5484 24.8138 43.5136 24.8416 43.4823 24.8381C43.5032 24.8173 43.5102 24.7616 43.4719 24.6607C43.465 24.7059 43.4545 24.7338 43.4476 24.7581C43.4476 24.7477 43.4476 24.7373 43.4476 24.7233C43.3919 24.772 43.4023 24.8207 43.4267 24.8416C43.4267 24.8625 43.4267 24.8938 43.4336 24.932C43.3849 24.7407 43.2806 24.939 43.2806 24.6886C43.1206 24.7408 42.9988 24.9981 42.8597 25.092C42.8493 24.9633 42.884 24.8486 42.9223 24.7999L42.8249 24.8451C42.8319 24.6573 42.884 24.7407 42.9119 24.7025C42.8075 24.3964 42.6719 24.9947 42.5466 24.7164L42.5153 24.8625L42.5084 24.8381C42.5084 24.9146 42.4736 25.0225 42.4527 25.0468C42.4388 24.8833 42.4666 24.6712 42.4005 24.6816C42.3553 24.5251 42.251 24.7546 42.1814 24.8416C42.2162 24.8694 42.2023 24.9599 42.1814 25.0155C42.1501 25.019 42.1362 24.859 42.1083 24.9251V24.7059C42.1188 24.9112 42.0214 24.9251 42.004 25.0155C41.9901 24.852 42.0597 24.8764 42.0736 24.7546C41.9414 24.772 42.0075 24.7616 41.8753 24.779C41.7988 24.9425 41.8788 24.9877 41.8405 25.179C41.7779 25.2207 41.7118 25.3703 41.6457 25.2382L41.6596 25.433C41.5379 25.5791 41.4683 25.5547 41.3987 25.3564C40.4596 26.9148 41.1205 27.5131 41.1205 27.5131C41.4509 27.9548 41.6527 27.3913 42.0701 27.2557H42.0631Z" fill="#20BB65"/>
<path d="M59.7219 24.1807L59.7571 24.2582C59.7535 24.2195 59.743 24.1878 59.7219 24.1807Z" fill="#20BB65"/>
<path d="M66.4317 23.4293C66.4317 23.4293 66.4317 23.4189 66.4351 23.412C66.4317 23.4189 66.4317 23.4258 66.4317 23.4293Z" fill="#20BB65"/>
<path d="M61.0161 26.7999C61.0161 26.7999 61.0161 26.8135 61.0127 26.8203L61.0195 26.7999H61.0161Z" fill="#20BB65"/>
<path d="M59.6242 26.7095C59.9929 26.7756 60.1251 27.1409 60.4834 26.9531C60.6643 26.967 60.8452 26.8626 61.0156 26.8C61.0713 26.5008 61.2452 26.7722 61.3182 26.5182L61.3739 26.6817C61.3982 26.5948 61.433 26.5321 61.4748 26.6191V26.6678C61.5165 26.5356 61.5791 26.6052 61.5965 26.5426V26.5913L61.6591 26.5635V26.633C61.7287 26.4904 61.8191 26.473 61.9061 26.5252L61.8782 26.3234C62.0696 26.5321 62.0904 26.1078 62.2713 26.3582V26.4069C62.4139 25.8573 62.6192 26.7339 62.7652 26.2121C62.7479 26.2782 62.7861 26.313 62.7896 26.3617C62.8766 26.2956 62.9705 26.2539 62.9287 25.8608C62.9948 25.8608 62.9948 25.9791 63.0227 26.1287C63.0053 25.9547 63.054 25.8782 63.1062 25.8608L63.0887 25.9304L63.2314 25.8539L63.1653 25.5303C63.2557 25.6173 63.2279 25.9269 63.2975 25.8399L63.2661 25.5686C63.3809 25.6103 63.4888 26.0139 63.6175 26.2017C64.0731 26.2678 64.4697 25.5269 64.9358 25.9547L64.9776 26.1565C65.0193 26.4521 65.0401 25.7043 65.0888 25.9756L65.1202 25.833C65.141 25.8851 65.1758 25.9373 65.1584 26.0069C65.2036 26.0138 65.2002 25.9652 65.221 25.8713L65.2906 26.0486C65.4819 26.1704 65.5898 25.7982 65.7811 25.8504C66.0454 26.2017 66.4211 25.8051 66.6333 25.5756C66.915 25.0921 67.4507 26.2226 67.729 25.673C67.7464 25.7147 67.7638 25.6138 67.7568 25.5825H68.0768C68.0768 25.5825 69.6108 25.5025 68.1429 23.1998V23.1337C67.9516 22.998 67.8403 22.9772 67.7638 23.3181C67.6942 22.9215 67.6177 23.2937 67.562 23.172V23.1406C67.4959 23.4607 67.3151 22.9146 67.249 23.1998C67.249 23.1685 67.2385 23.0572 67.2594 23.0502C67.1933 23.1093 67.1029 23.2102 67.0681 22.9807C66.9011 23.0641 66.6437 22.9876 66.5776 23.3702V23.3042C66.5428 23.5616 66.5011 23.3528 66.442 23.485C66.435 23.4537 66.4281 23.4398 66.4281 23.4259C66.3898 23.6798 66.2298 23.4885 66.188 23.5998L66.1672 23.4468L66.0315 23.4989L66.0872 23.5267C66.1219 23.9511 65.9515 23.2729 65.8819 23.5616C65.7811 23.5198 65.795 24.4625 65.6732 24.2677C65.6489 24.4729 65.6732 23.9407 65.6245 24.1007C65.5967 23.8816 65.6419 23.9581 65.6002 23.7842C65.5445 23.8955 65.461 23.572 65.395 23.732L65.3706 23.5616C65.2976 23.8885 65.1376 23.3598 65.0993 23.6694C65.0019 23.8259 64.9636 23.1685 64.8836 23.5163L64.8106 23.2902C64.7549 23.2589 64.8106 23.579 64.7375 23.4746C64.7236 23.3285 64.6541 23.3667 64.6715 23.2241C64.5184 23.0085 64.4523 23.579 64.2401 23.2102C64.2366 23.499 64.1323 23.3389 64.1288 23.5581C64.1114 23.4329 63.9584 23.5581 64.021 23.2763C64.0279 23.252 64.0418 23.2555 64.0453 23.3042L64.0384 23.1337C63.9062 22.8241 63.8853 23.3285 63.7844 23.2902C63.8192 23.3424 63.854 23.325 63.8436 23.4433L63.7531 23.4294V23.2833L63.6175 23.2137L63.6557 23.3876C63.5827 23.3042 63.527 23.0085 63.4818 23.2659C63.4644 23.4085 63.5688 23.4955 63.5062 23.5581C63.4088 23.4468 63.2592 23.2798 63.1444 23.2381C63.1757 23.4363 63.1444 23.4329 63.1201 23.4746L63.0992 23.3042C63.0087 23.5546 63.0157 22.9285 62.9218 23.1337V23.0119L62.9287 23.3737C62.8627 23.725 62.8348 23.0224 62.7687 23.5024C62.8105 23.4676 62.8313 23.8781 62.7687 23.812V23.645C62.7374 23.6833 62.734 23.7529 62.7096 23.7216C62.72 23.6311 62.6922 23.4781 62.6505 23.5129L62.6574 23.3007L62.6053 23.6172C62.5183 23.4467 62.4383 23.6798 62.3861 23.4502C62.3861 23.4502 62.2331 23.3494 62.2261 23.6103C62.2365 23.4468 62.153 23.3946 62.1565 23.2068C62.1391 23.3911 62.0452 23.5511 61.9826 23.3633L61.9896 23.3424C61.8087 23.1615 61.7426 23.6381 61.5721 23.4155C61.6 23.6137 61.513 23.5129 61.5548 23.7668C61.4295 24.0346 61.2278 23.2728 61.2521 24.0694C61.1895 24.1181 61.1512 23.892 61.113 23.8537L61.1234 23.812C61.0017 23.8885 60.9669 23.899 60.8695 23.892C60.8312 23.9755 60.8591 24.3407 60.7651 24.2607C60.7791 24.1112 60.7478 24.1424 60.713 24.1459C60.7304 24.1216 60.7338 24.0659 60.6817 23.972C60.6817 24.0172 60.6747 24.0451 60.6678 24.0694C60.6678 24.059 60.6643 24.0485 60.6643 24.0346C60.6156 24.0903 60.6295 24.1355 60.6573 24.1529C60.6573 24.1738 60.6643 24.2051 60.6747 24.2433C60.6017 24.059 60.5217 24.2712 60.4904 24.0207C60.3373 24.0938 60.2469 24.3651 60.1216 24.4729C60.0938 24.3442 60.1147 24.2294 60.1495 24.1738L60.059 24.2294C60.0416 24.045 60.1043 24.1181 60.1286 24.0764C59.9895 23.7877 59.9234 24.3964 59.7668 24.1355L59.7529 24.2851L59.7425 24.2607C59.7494 24.3373 59.7286 24.4451 59.7112 24.4729C59.6764 24.3129 59.6799 24.1007 59.6138 24.1146C59.5477 23.9651 59.4746 24.2051 59.4155 24.299C59.4538 24.3233 59.4503 24.4138 59.4399 24.4729C59.4085 24.4799 59.3738 24.3199 59.3564 24.3929L59.332 24.1738C59.3633 24.379 59.2659 24.4033 59.2625 24.4938C59.2277 24.3338 59.3007 24.3511 59.2972 24.2259C59.1685 24.2572 59.2312 24.2433 59.1025 24.2746C59.0468 24.4451 59.1338 24.4799 59.1164 24.6747C59.0572 24.7234 59.012 24.8799 58.9285 24.7547L58.9668 24.946C58.8624 25.106 58.7929 25.0886 58.6955 24.9008C57.9615 26.553 58.6955 27.0748 58.6955 27.0748C59.0781 27.4748 59.2068 26.8939 59.6034 26.7061L59.6242 26.7095Z" fill="#20BB65"/>
<path d="M76.924 22.0172L76.9627 22.0946C76.9557 22.0559 76.9451 22.0277 76.924 22.0172Z" fill="#20BB65"/>
<path d="M83.6268 20.9805C83.6268 20.9805 83.6268 20.9701 83.6302 20.9631C83.6268 20.9701 83.6268 20.977 83.6268 20.9805Z" fill="#20BB65"/>
<path d="M78.3567 24.5599C78.3567 24.5667 78.3567 24.5735 78.3533 24.5803L78.3601 24.5599H78.3567Z" fill="#20BB65"/>
<path d="M76.9724 24.5425C77.3412 24.5877 77.4907 24.946 77.8351 24.7373C78.016 24.7408 78.1899 24.626 78.3534 24.5564C78.3916 24.2538 78.5795 24.5182 78.6386 24.2608L78.7012 24.4208C78.7221 24.3338 78.7534 24.2712 78.7986 24.3546V24.4033C78.8334 24.2712 78.903 24.3373 78.9169 24.2712V24.3199L78.9795 24.2886V24.3581C79.0456 24.212 79.1325 24.1912 79.223 24.2399L79.1882 24.0416C79.39 24.2399 79.39 23.8155 79.5813 24.059V24.1077C79.6995 23.5511 79.943 24.4207 80.0648 23.892C80.0509 23.9581 80.0891 23.9929 80.0961 24.0416C80.1796 23.972 80.27 23.9268 80.2144 23.5337C80.2804 23.5303 80.2874 23.6485 80.3187 23.7981C80.2909 23.6277 80.3396 23.5476 80.3883 23.5268L80.3744 23.5964L80.5135 23.5164L80.437 23.1963C80.5309 23.2763 80.517 23.5894 80.5796 23.499L80.5379 23.2311C80.6561 23.2694 80.7778 23.6659 80.9135 23.8468C81.3692 23.8955 81.7344 23.1407 82.2145 23.5511L82.2631 23.7494C82.3153 24.0416 82.3084 23.2972 82.3675 23.5651L82.3953 23.4224C82.4162 23.4746 82.4545 23.5268 82.4406 23.5964C82.4858 23.5998 82.4788 23.5511 82.4997 23.4572L82.5727 23.6346C82.7675 23.7529 82.8614 23.3737 83.0528 23.419C83.3276 23.7598 83.6858 23.3564 83.8945 23.1198C84.1624 22.6294 84.7259 23.7459 84.9903 23.1894C85.0076 23.2311 85.0216 23.1302 85.0181 23.0989H85.3346C85.3346 23.0989 86.8616 22.9807 85.3485 20.7092V20.6432C85.1537 20.511 85.039 20.4936 84.9694 20.8345C84.8929 20.4414 84.8233 20.8136 84.7641 20.6919V20.6605C84.705 20.9806 84.5102 20.4379 84.4511 20.7266C84.4511 20.6953 84.4372 20.584 84.458 20.5771C84.392 20.6397 84.305 20.7406 84.2667 20.511C84.0998 20.5979 83.8424 20.5284 83.7832 20.911V20.8449C83.7554 21.1023 83.7032 20.8936 83.651 21.0328C83.6441 21.0014 83.6337 20.9875 83.6337 20.9771C83.6023 21.2345 83.4354 21.0467 83.3971 21.158L83.3693 21.0049L83.2371 21.0606L83.2928 21.0849C83.338 21.5093 83.1501 20.838 83.0875 21.1232C82.9867 21.0849 83.0284 22.0276 82.8997 21.8363C82.8823 22.0415 82.8927 21.5093 82.8475 21.6728C82.8127 21.4536 82.858 21.5301 82.8162 21.3562C82.7641 21.471 82.6701 21.1475 82.6075 21.311L82.5797 21.1406C82.5171 21.471 82.3397 20.9458 82.3119 21.2554C82.2214 21.4119 82.1588 20.7579 82.0927 21.1128L82.0127 20.8866C81.9571 20.8553 82.0197 21.1754 81.9466 21.071C81.9292 20.9249 81.8596 20.9667 81.8701 20.8206C81.7101 20.6119 81.6614 21.1823 81.4388 20.8206C81.4457 21.1093 81.3344 20.9528 81.3414 21.1719C81.317 21.0502 81.1709 21.1788 81.2231 20.8936C81.2266 20.8693 81.244 20.8727 81.2474 20.9214L81.2335 20.751C81.0909 20.4484 81.0874 20.9527 80.9866 20.9179C81.0213 20.9701 81.0561 20.9493 81.0492 21.0675L80.9587 21.0571V20.911L80.8126 20.8484L80.8579 21.0223C80.7813 20.9423 80.7118 20.6467 80.6805 20.9075C80.67 21.0502 80.7779 21.1336 80.7187 21.1997C80.6144 21.0919 80.4613 20.9319 80.3431 20.8971C80.3813 21.0919 80.3535 21.0884 80.3291 21.1336L80.3013 20.9632C80.2213 21.2171 80.2039 20.5945 80.117 20.7997L80.11 20.6779L80.1343 21.0397C80.0822 21.3945 80.0265 20.6919 79.9813 21.1719C80.023 21.1371 80.0578 21.5475 79.9917 21.4814L79.9813 21.3145C79.9569 21.3527 79.957 21.4258 79.9291 21.3945C79.9326 21.304 79.9013 21.151 79.863 21.1893V20.9771L79.8213 21.2936C79.7274 21.1267 79.6578 21.3632 79.5952 21.1371C79.5952 21.1371 79.4352 21.0432 79.4421 21.3041C79.4456 21.1406 79.3587 21.0919 79.3552 20.9041C79.3447 21.0884 79.2578 21.2519 79.1847 21.0675V21.0432C79.0004 20.8728 78.9517 21.3527 78.7743 21.1371C78.8091 21.3354 78.7186 21.238 78.7743 21.4884C78.663 21.7632 78.4229 21.0119 78.4856 21.805C78.4229 21.8571 78.3777 21.6345 78.336 21.5963L78.3464 21.551C78.2281 21.6345 78.1934 21.6484 78.096 21.645C78.0612 21.7284 78.1064 22.0937 78.009 22.0206C78.016 21.871 77.9847 21.9024 77.9534 21.9093C77.9708 21.885 77.9673 21.8293 77.9116 21.7389C77.9116 21.7841 77.9081 21.8119 77.9012 21.8363C77.9012 21.8258 77.8977 21.8154 77.8942 21.8015C77.849 21.8606 77.8664 21.9058 77.8942 21.9197C77.8942 21.9406 77.9012 21.9684 77.9151 22.0102C77.8316 21.8328 77.762 22.045 77.7203 21.798C77.5707 21.878 77.4942 22.1528 77.3759 22.2711C77.3412 22.1458 77.3551 22.0276 77.3864 21.9719L77.2994 22.0345C77.2716 21.8502 77.3377 21.9197 77.362 21.878C77.2055 21.5962 77.1742 22.2085 77.0037 21.958L76.9968 22.1076L76.9864 22.0833C76.9968 22.1598 76.9864 22.2711 76.969 22.2989C76.9272 22.1424 76.9133 21.9267 76.8507 21.9476C76.7776 21.8015 76.715 22.0484 76.6629 22.1424C76.7046 22.1632 76.7046 22.2537 76.6976 22.3128C76.6663 22.3232 76.6246 22.1667 76.6072 22.2398L76.5724 22.0241C76.6142 22.2259 76.5202 22.2572 76.5202 22.3476C76.4785 22.1911 76.5516 22.2015 76.5411 22.0798C76.4124 22.118 76.4785 22.1006 76.3498 22.1389C76.3046 22.3128 76.3915 22.3406 76.3881 22.5354C76.3324 22.5876 76.2941 22.7476 76.2037 22.6259L76.2559 22.8137C76.162 22.9807 76.0889 22.9702 75.9846 22.7859C75.3584 24.4833 76.1237 24.953 76.1237 24.953C76.5272 25.3286 76.6176 24.7408 77.0003 24.532L76.9724 24.5425Z" fill="#20BB65"/>
<path d="M94.1396 19.5022L94.1784 19.5796C94.1713 19.5409 94.1608 19.5128 94.1396 19.5022Z" fill="#20BB65"/>
<path d="M100.894 18.643C100.894 18.643 100.894 18.6326 100.897 18.6257C100.894 18.6326 100.894 18.6395 100.894 18.643Z" fill="#20BB65"/>
<path d="M95.5298 22.0797C95.5298 22.0797 95.5298 22.0933 95.5264 22.1001L95.5332 22.0797H95.5298Z" fill="#20BB65"/>
<path d="M94.1529 22.0276C94.5216 22.0798 94.6642 22.445 95.0121 22.2467C95.1895 22.2572 95.3669 22.1459 95.5304 22.0798C95.5721 21.7771 95.753 22.0484 95.8191 21.791L95.8782 21.9511C95.8991 21.8641 95.9304 21.8015 95.9756 21.8884V21.9371C96.0139 21.805 96.08 21.8745 96.0939 21.8084V21.8571L96.1565 21.8293V21.8989C96.2226 21.7563 96.313 21.7354 96.3965 21.7876L96.3652 21.5893C96.56 21.791 96.5704 21.3701 96.7548 21.6171V21.6658C96.8835 21.1127 97.1061 21.9893 97.2417 21.4641C97.2244 21.5302 97.2661 21.5649 97.2696 21.6136C97.3531 21.5441 97.447 21.5023 97.3983 21.1093C97.4644 21.1093 97.4679 21.2275 97.4957 21.3771C97.4748 21.2032 97.5235 21.1267 97.5722 21.1093L97.5583 21.1788L97.7009 21.1023L97.6313 20.7788C97.7218 20.8623 97.7009 21.1719 97.767 21.0849L97.7322 20.8136C97.847 20.8519 97.9618 21.2553 98.0905 21.4397C98.5392 21.5023 98.9288 20.7545 99.3914 21.1788L99.4332 21.3806C99.4749 21.6763 99.4958 20.9284 99.541 21.1997L99.5723 21.0571C99.5932 21.1093 99.628 21.1614 99.6106 21.231C99.6558 21.238 99.6523 21.1893 99.6732 21.0953L99.7428 21.2727C99.9306 21.3945 100.038 21.0223 100.226 21.071C100.487 21.4189 100.859 21.0223 101.072 20.7927C101.357 20.3092 101.872 21.4432 102.157 20.8936C102.171 20.9354 102.192 20.8345 102.188 20.8032H102.505C102.505 20.8032 104.032 20.7336 102.623 18.417V18.3508C102.435 18.2152 102.324 18.1943 102.24 18.5352C102.178 18.1387 102.094 18.5109 102.042 18.3891V18.3578C101.969 18.6778 101.798 18.1282 101.729 18.417C101.729 18.3857 101.719 18.2743 101.743 18.2674C101.673 18.3265 101.583 18.4274 101.552 18.1978C101.381 18.2813 101.124 18.2048 101.054 18.5874V18.5213C101.019 18.7787 100.974 18.57 100.918 18.7057C100.912 18.6743 100.905 18.6605 100.905 18.6465C100.863 18.9005 100.706 18.7092 100.661 18.824L100.64 18.6709L100.505 18.7231L100.56 18.7509C100.588 19.1752 100.425 18.4969 100.355 18.7857C100.254 18.7439 100.261 19.6901 100.143 19.4953C100.118 19.7005 100.146 19.1683 100.094 19.3283C100.066 19.1092 100.111 19.1857 100.073 19.0118C100.018 19.1265 99.9341 18.7996 99.868 18.9596L99.8436 18.7891C99.7706 19.1161 99.6106 18.5874 99.5688 18.897C99.4714 19.0535 99.4332 18.3961 99.3532 18.7474L99.2801 18.5213C99.2245 18.49 99.2801 18.81 99.2071 18.7057C99.1932 18.5596 99.1236 18.5978 99.1375 18.4552C98.9845 18.243 98.9149 18.8135 98.7027 18.4448C98.7027 18.7335 98.5949 18.5735 98.5949 18.7926C98.574 18.6674 98.4244 18.7926 98.487 18.5109C98.494 18.4865 98.5079 18.49 98.5114 18.5387L98.5044 18.3683C98.3722 18.0622 98.3514 18.5665 98.2505 18.5283C98.2853 18.5804 98.3201 18.5596 98.3096 18.6813L98.2192 18.6709V18.5248L98.0801 18.4587L98.1183 18.6326C98.0418 18.5491 97.9861 18.2535 97.9409 18.5109C97.9235 18.6535 98.0314 18.7404 97.9688 18.8031C97.8679 18.6952 97.7183 18.5283 97.6 18.49C97.6348 18.6883 97.6035 18.6848 97.5792 18.7265L97.5548 18.5561C97.4679 18.81 97.4644 18.1839 97.3739 18.3891V18.2674L97.3844 18.6291C97.3218 18.9839 97.2835 18.2778 97.2244 18.7578C97.2661 18.7231 97.2939 19.1335 97.2244 19.0674L97.2174 18.9005C97.1896 18.9387 97.1896 19.0118 97.1652 18.977C97.1722 18.8865 97.1444 18.7335 97.1026 18.7683V18.5561L97.0574 18.8726C96.967 18.7022 96.8904 18.9387 96.8348 18.7091C96.8348 18.7091 96.6748 18.6117 96.6748 18.8726C96.6852 18.7091 96.5982 18.6605 96.5948 18.4691C96.5809 18.6535 96.4869 18.8135 96.4208 18.6291L96.4278 18.6048C96.24 18.4274 96.1843 18.9074 96.0069 18.6883C96.0382 18.8866 95.9478 18.7892 95.9999 19.0396C95.8817 19.3109 95.6591 18.5561 95.7043 19.3492C95.6417 19.4014 95.5999 19.1752 95.5582 19.137L95.5686 19.0918C95.4469 19.1718 95.4121 19.1857 95.3147 19.1787C95.2764 19.2622 95.3147 19.6275 95.2208 19.5509C95.2312 19.4014 95.1964 19.4327 95.1651 19.4362C95.1825 19.4118 95.1825 19.3561 95.1269 19.2657C95.1269 19.3109 95.1199 19.3387 95.1164 19.3631C95.1164 19.3527 95.1129 19.3422 95.1095 19.3283C95.0642 19.3874 95.0782 19.4292 95.106 19.4466C95.106 19.4674 95.113 19.4987 95.1269 19.537C95.0469 19.3561 94.9738 19.5683 94.9355 19.3213C94.7825 19.3979 94.7025 19.6727 94.5808 19.784C94.5494 19.6588 94.5634 19.5405 94.5981 19.4848L94.5112 19.544C94.4868 19.3596 94.5529 19.4327 94.5773 19.3909C94.4242 19.1057 94.3825 19.7179 94.2155 19.4605L94.2086 19.6101L94.1981 19.5857C94.2085 19.6622 94.1946 19.7701 94.1772 19.7979C94.1355 19.6379 94.1285 19.4257 94.0659 19.4431C93.9929 19.2935 93.9303 19.5405 93.8711 19.6344C93.9129 19.6588 93.9129 19.7492 93.9025 19.8049C93.8711 19.8153 93.8294 19.6553 93.8155 19.7283L93.7842 19.5127C93.8259 19.7144 93.7285 19.7457 93.7285 19.8361C93.6868 19.6761 93.7598 19.69 93.7529 19.5683C93.6242 19.6031 93.6868 19.5857 93.5581 19.624C93.5094 19.7979 93.5998 19.8292 93.5929 20.024C93.5372 20.0727 93.4955 20.2327 93.4085 20.111L93.4572 20.3023C93.3633 20.4658 93.2902 20.4518 93.1824 20.2675C92.5354 21.9441 93.2972 22.4346 93.2972 22.4346C93.6937 22.8207 93.7911 22.2363 94.1738 22.038L94.1529 22.0276Z" fill="#20BB65"/>
<path d="M111.52 17.7248L111.551 17.8057C111.551 17.767 111.541 17.7353 111.52 17.7248Z" fill="#20BB65"/>
<path d="M118.35 17.4917C118.35 17.4917 118.354 17.4813 118.357 17.4744C118.354 17.4813 118.35 17.4882 118.35 17.4917Z" fill="#20BB65"/>
<path d="M112.697 20.3962C112.697 20.3962 112.694 20.4098 112.69 20.4166L112.697 20.3962Z" fill="#20BB65"/>
<path d="M111.335 20.2467C111.696 20.3232 111.808 20.6954 112.166 20.5249C112.343 20.5458 112.524 20.4519 112.695 20.3962C112.761 20.0971 112.921 20.3823 113.004 20.1319L113.049 20.2954C113.077 20.2084 113.116 20.1493 113.154 20.2397V20.2884C113.199 20.1597 113.258 20.2328 113.279 20.1702V20.2189L113.338 20.1945L113.331 20.264C113.411 20.1249 113.502 20.1145 113.582 20.1736L113.568 19.9719C113.745 20.191 113.79 19.7701 113.95 20.031V20.0797C114.121 19.5406 114.267 20.431 114.444 19.9197C114.423 19.9823 114.458 20.0241 114.458 20.0728C114.549 20.0101 114.643 19.9788 114.632 19.5823C114.698 19.5823 114.691 19.704 114.705 19.8571C114.698 19.6832 114.754 19.6101 114.806 19.5962L114.785 19.6658L114.931 19.6032L114.893 19.2762C114.977 19.3666 114.924 19.6762 114.997 19.5927L114.987 19.3214C115.098 19.3701 115.175 19.7806 115.286 19.9788C115.724 20.0832 116.18 19.3805 116.598 19.8501L116.618 20.0553C116.632 20.3545 116.723 19.6136 116.744 19.8884L116.789 19.7527C116.803 19.8049 116.831 19.864 116.81 19.9301C116.855 19.9406 116.855 19.8919 116.883 19.8014L116.931 19.9858C117.105 20.1284 117.248 19.7666 117.432 19.8362C117.655 20.2119 118.062 19.8605 118.298 19.6588C118.632 19.2101 119.018 20.3997 119.359 19.8919C119.37 19.9336 119.398 19.8397 119.398 19.8049L119.711 19.8501C119.711 19.8501 120.086 19.8814 120.326 19.6032C120.563 19.3249 120.671 18.737 120.1 17.4952L120.107 17.4291C119.933 17.2691 119.825 17.2344 119.704 17.5613C119.686 17.1613 119.561 17.5196 119.523 17.3874V17.3561C119.419 17.6622 119.311 17.0987 119.206 17.3735C119.21 17.3422 119.213 17.2308 119.238 17.2239C119.161 17.2761 119.06 17.3631 119.057 17.13C118.879 17.1926 118.629 17.0813 118.514 17.457L118.521 17.3909C118.455 17.6413 118.438 17.4291 118.365 17.5578C118.361 17.5265 118.354 17.5126 118.358 17.4987C118.288 17.7491 118.152 17.537 118.093 17.6448V17.4882L117.947 17.5265L117.999 17.5578C117.985 17.9822 117.891 17.29 117.791 17.5682C117.693 17.5161 117.606 18.4553 117.505 18.2466C117.46 18.4448 117.544 17.9231 117.474 18.0761C117.471 17.8535 117.505 17.937 117.484 17.7596C117.415 17.8639 117.366 17.5335 117.283 17.6831L117.276 17.5091C117.168 17.8257 117.06 17.283 116.991 17.5857C116.876 17.7318 116.904 17.0743 116.789 17.4152L116.737 17.1821C116.684 17.1439 116.705 17.4709 116.646 17.3561C116.646 17.21 116.573 17.2413 116.604 17.0987C116.469 16.8691 116.347 17.4326 116.17 17.0465C116.138 17.3352 116.048 17.1648 116.027 17.3804C116.02 17.2552 115.857 17.363 115.944 17.0917C115.951 17.0708 115.964 17.0743 115.968 17.123L115.975 16.9526C115.871 16.6326 115.801 17.1335 115.704 17.0848C115.735 17.1404 115.77 17.123 115.749 17.2413L115.658 17.2204L115.672 17.0778L115.537 16.9978L115.561 17.1752C115.495 17.0848 115.464 16.7856 115.394 17.0396C115.366 17.1822 115.464 17.2761 115.394 17.3352C115.304 17.217 115.168 17.0396 115.057 16.9874C115.074 17.1856 115.043 17.1787 115.015 17.2204L115.004 17.0465C114.893 17.29 114.949 16.6674 114.837 16.8622L114.844 16.7404L114.823 17.1021C114.73 17.45 114.754 16.7439 114.653 17.217C114.698 17.1857 114.688 17.5996 114.629 17.5231L114.639 17.3561C114.608 17.3909 114.601 17.4639 114.58 17.4291C114.597 17.3387 114.58 17.1857 114.535 17.217L114.559 17.0082L114.483 17.3178C114.41 17.1404 114.309 17.37 114.274 17.1334C114.274 17.1334 114.124 17.0221 114.1 17.283C114.124 17.123 114.041 17.0639 114.058 16.876C114.027 17.0604 113.923 17.21 113.87 17.0187L113.877 16.9978C113.703 16.8065 113.606 17.2795 113.446 17.0465C113.46 17.2482 113.38 17.1404 113.408 17.3978C113.265 17.6587 113.105 16.8865 113.084 17.6831C113.018 17.7283 112.994 17.5022 112.956 17.4604L112.969 17.4187C112.841 17.4883 112.806 17.4987 112.705 17.4848C112.66 17.5648 112.67 17.9335 112.58 17.85C112.601 17.7004 112.566 17.7318 112.535 17.7318C112.556 17.7074 112.559 17.6552 112.51 17.5578C112.507 17.6031 112.5 17.6309 112.489 17.6552C112.489 17.6448 112.489 17.6343 112.489 17.6204C112.437 17.6761 112.451 17.7213 112.476 17.7387C112.476 17.7596 112.476 17.7909 112.489 17.8291C112.423 17.6413 112.333 17.85 112.316 17.5996C112.156 17.6657 112.055 17.93 111.922 18.0379C111.902 17.9092 111.926 17.7943 111.964 17.7422L111.87 17.7944C111.86 17.6065 111.919 17.6831 111.947 17.6448C111.818 17.3491 111.728 17.9579 111.578 17.69L111.557 17.8396L111.547 17.8152C111.55 17.8918 111.526 17.9996 111.509 18.0274C111.481 17.8674 111.488 17.6517 111.425 17.6657C111.362 17.5126 111.279 17.7526 111.216 17.8431C111.255 17.8674 111.248 17.9578 111.234 18.017C111.202 18.0239 111.171 17.8639 111.15 17.9335L111.133 17.7144C111.157 17.9196 111.06 17.9405 111.053 18.0309C111.025 17.8709 111.095 17.8883 111.098 17.7665C110.966 17.7944 111.032 17.7805 110.9 17.8083C110.837 17.9787 110.924 18.0135 110.9 18.2083C110.841 18.2535 110.788 18.4101 110.708 18.2848L110.743 18.4762C110.635 18.6327 110.566 18.6153 110.472 18.424C109.703 20.0588 110.423 20.5945 110.423 20.5945C110.789 21.0015 110.928 20.4276 111.321 20.2536L111.335 20.2467Z" fill="#20BB65"/>
<path d="M129.047 18.0065L129.064 18.091C129.064 18.0523 129.064 18.0206 129.047 18.0065Z" fill="#20BB65"/>
<path d="M135.851 18.9177C135.851 18.9177 135.858 18.9074 135.861 18.9005C135.854 18.9074 135.854 18.9108 135.851 18.9177Z" fill="#20BB65"/>
<path d="M129.795 20.824C129.795 20.824 129.788 20.8342 129.785 20.8444L129.795 20.824Z" fill="#20BB65"/>
<path d="M128.48 20.4693C128.821 20.6015 128.877 20.9876 129.256 20.8693C129.426 20.918 129.618 20.8519 129.792 20.8241C129.903 20.5389 130.014 20.8449 130.136 20.6119L130.153 20.7824C130.195 20.7023 130.24 20.6501 130.265 20.7441L130.258 20.7928C130.32 20.6745 130.369 20.7545 130.4 20.6954L130.393 20.7441L130.456 20.7302L130.439 20.7962C130.54 20.6745 130.63 20.6745 130.7 20.7441L130.717 20.5423C130.856 20.7858 130.967 20.3788 131.082 20.6641L131.075 20.7128C131.333 20.2084 131.326 21.1128 131.587 20.6362C131.555 20.6954 131.587 20.7406 131.576 20.7893C131.674 20.7441 131.774 20.7267 131.827 20.3336C131.893 20.3475 131.865 20.4623 131.851 20.6154C131.875 20.4414 131.941 20.3788 131.994 20.3754L131.962 20.4379L132.115 20.3997L132.133 20.0693C132.199 20.1736 132.098 20.4693 132.185 20.3997L132.22 20.1319C132.321 20.2015 132.327 20.6154 132.401 20.8276C132.811 21.005 133.381 20.3893 133.708 20.9249L133.695 21.1302C133.656 21.4259 133.875 20.7128 133.844 20.9876L133.914 20.8589C133.917 20.9145 133.938 20.9737 133.903 21.0363C133.945 21.0537 133.952 21.0049 133.997 20.9215L134.015 21.1128C134.161 21.2832 134.362 20.9528 134.529 21.0536C134.679 21.4641 135.142 21.1893 135.409 21.0328C135.816 20.6536 135.98 21.892 136.404 21.4537C136.404 21.4989 136.453 21.4085 136.46 21.3772L136.756 21.478C136.756 21.478 137.117 21.5789 137.403 21.3528C137.684 21.1232 137.903 20.5667 137.576 19.2379L137.597 19.1753C137.458 18.984 137.354 18.9283 137.173 19.2275C137.232 18.8309 137.041 19.1579 137.023 19.0257L137.034 18.9944C136.87 19.2762 136.867 18.7022 136.714 18.9527C136.724 18.9214 136.745 18.8135 136.769 18.8135C136.686 18.8483 136.568 18.9179 136.606 18.6883C136.418 18.7162 136.192 18.5631 136.011 18.9075L136.032 18.8448C135.924 19.0814 135.942 18.8657 135.848 18.9805C135.848 18.9492 135.848 18.9318 135.848 18.9214C135.733 19.1544 135.635 18.9214 135.562 19.0188L135.587 18.8657L135.441 18.8761L135.486 18.9179C135.395 19.3353 135.427 18.6361 135.277 18.8901C135.19 18.8205 134.936 19.7319 134.874 19.5092C134.794 19.6971 134.968 19.1962 134.874 19.3353C134.908 19.1162 134.929 19.2031 134.94 19.0257C134.853 19.1196 134.863 18.7822 134.755 18.9179L134.78 18.7474C134.616 19.0396 134.606 18.4901 134.484 18.7753C134.348 18.897 134.491 18.257 134.317 18.57L134.307 18.33C134.262 18.2848 134.223 18.6083 134.185 18.4865C134.213 18.3405 134.133 18.3578 134.185 18.2257C134.091 17.9787 133.872 18.5074 133.764 18.097C133.684 18.3752 133.625 18.1944 133.566 18.4031C133.58 18.2778 133.399 18.3579 133.535 18.1039C133.545 18.0831 133.559 18.09 133.552 18.1387L133.59 17.9717C133.541 17.6378 133.388 18.1213 133.298 18.0587C133.319 18.1178 133.357 18.1109 133.315 18.2222L133.228 18.1874L133.267 18.0483L133.145 17.9474L133.138 18.1248C133.086 18.0239 133.107 17.7248 132.999 17.9613C132.947 18.097 133.027 18.2048 132.95 18.25C132.881 18.1179 132.776 17.9196 132.672 17.85C132.654 18.0483 132.627 18.0378 132.588 18.0726L132.609 17.9022C132.46 18.1248 132.62 17.5196 132.474 17.6935L132.501 17.5752L132.421 17.93C132.268 18.257 132.414 17.5648 132.234 18.0135C132.282 17.9891 132.206 18.3961 132.157 18.3126L132.195 18.1491C132.161 18.1805 132.14 18.2466 132.122 18.2118C132.154 18.1248 132.164 17.9718 132.115 17.9926L132.174 17.7909L132.046 18.0831C132.001 17.8952 131.865 18.1039 131.868 17.8674C131.868 17.8674 131.736 17.7352 131.67 17.9857C131.719 17.8291 131.646 17.7596 131.694 17.5752C131.632 17.7491 131.503 17.8848 131.482 17.6865L131.493 17.6656C131.35 17.45 131.176 17.8987 131.058 17.6448C131.04 17.8465 130.974 17.7283 130.964 17.9857C130.783 18.2187 130.745 17.4326 130.599 18.2153C130.526 18.25 130.54 18.0204 130.508 17.9752L130.529 17.937C130.39 17.9857 130.352 17.9891 130.258 17.9613C130.202 18.0343 130.153 18.3996 130.077 18.2987C130.122 18.1561 130.084 18.1804 130.049 18.177C130.073 18.1561 130.084 18.104 130.053 17.9996C130.042 18.0448 130.028 18.0691 130.018 18.0935C130.018 18.083 130.018 18.0726 130.018 18.0587C129.959 18.1039 129.962 18.1492 129.987 18.1735C129.983 18.1944 129.983 18.2257 129.987 18.2674C129.952 18.0726 129.83 18.2639 129.851 18.0135C129.68 18.0552 129.538 18.2987 129.395 18.3822C129.395 18.25 129.437 18.1422 129.482 18.0935L129.381 18.1318C129.402 17.9474 129.447 18.0309 129.482 17.9961C129.399 17.6831 129.218 18.2709 129.11 17.9822L129.068 18.1248L129.061 18.1004C129.054 18.177 129.013 18.2814 128.992 18.3022C128.992 18.1387 129.03 17.93 128.964 17.9335C128.926 17.7735 128.807 17.9961 128.731 18.0761C128.766 18.1074 128.745 18.1944 128.724 18.25C128.689 18.25 128.686 18.09 128.654 18.1561L128.672 17.937C128.665 18.1422 128.564 18.1492 128.543 18.2396C128.539 18.0761 128.609 18.1039 128.626 17.9857C128.491 17.9926 128.56 17.9892 128.425 17.9961C128.338 18.1526 128.418 18.2048 128.366 18.3927C128.299 18.4309 128.226 18.577 128.164 18.4378V18.6327C128.039 18.7718 127.972 18.744 127.91 18.5422C127.405 19.2936 127.319 19.8292 127.353 20.1771C127.388 20.5249 127.541 20.6849 127.541 20.6849C127.84 21.1406 128.059 20.5945 128.473 20.4797L128.48 20.4693Z" fill="#20BB65"/>
<path d="M146.254 21.5859V21.6739C146.264 21.6387 146.268 21.6035 146.254 21.5859Z" fill="#20BB65"/>
<path d="M152.701 24.0038C152.701 24.0038 152.708 23.9966 152.715 23.9895C152.708 23.9931 152.705 23.9966 152.701 24.0038Z" fill="#20BB65"/>
<path d="M146.369 24.5007C146.369 24.5007 146.362 24.5111 146.355 24.518L146.369 24.5007Z" fill="#20BB65"/>
<path d="M145.169 23.8677C145.472 24.0729 145.44 24.459 145.833 24.4312C145.987 24.5147 146.192 24.4903 146.366 24.5008C146.536 24.2468 146.578 24.5668 146.748 24.3651L146.727 24.5355C146.787 24.466 146.842 24.4243 146.842 24.5217L146.825 24.5669C146.912 24.4625 146.94 24.5529 146.985 24.5008L146.967 24.546H147.03L146.999 24.6051C147.124 24.5043 147.211 24.5251 147.263 24.6051L147.326 24.4138C147.406 24.6782 147.607 24.306 147.66 24.6051L147.642 24.6504C148.004 24.2155 147.799 25.0921 148.157 24.6886C148.112 24.7408 148.129 24.7895 148.112 24.8347C148.216 24.8138 148.317 24.8173 148.456 24.4486C148.515 24.4764 148.463 24.5843 148.418 24.7303C148.481 24.5669 148.557 24.5216 148.609 24.5286L148.564 24.5842H148.724L148.815 24.2642C148.853 24.379 148.689 24.6469 148.79 24.5982L148.888 24.3442C148.971 24.4347 148.881 24.8416 148.905 25.0643C149.263 25.3286 149.955 24.859 150.15 25.4573L150.088 25.6521C149.98 25.9304 150.359 25.2869 150.268 25.5478L150.362 25.4399C150.355 25.4956 150.359 25.5582 150.31 25.6104C150.345 25.6382 150.366 25.593 150.428 25.5234L150.401 25.7113C150.502 25.9095 150.776 25.6347 150.912 25.7739C150.961 26.2052 151.469 26.0487 151.768 25.9582C152.255 25.6869 152.112 26.9253 152.627 26.6052C152.62 26.647 152.686 26.5739 152.7 26.5426L152.961 26.713C152.961 26.713 153.284 26.8974 153.618 26.7478C153.949 26.5948 154.3 26.1113 154.31 24.7442L154.345 24.6886C154.255 24.4695 154.168 24.3895 153.921 24.6329C154.074 24.2607 153.81 24.5355 153.827 24.3999L153.844 24.3721C153.618 24.6051 153.754 24.0451 153.542 24.2538C153.559 24.226 153.608 24.1286 153.632 24.1321C153.542 24.146 153.413 24.1842 153.503 23.9685C153.316 23.9477 153.128 23.746 152.87 24.0381L152.905 23.9825C152.742 24.1842 152.811 23.9825 152.693 24.0694C152.703 24.0416 152.703 24.0242 152.71 24.0138C152.543 24.212 152.505 23.9651 152.408 24.0381L152.467 23.8955L152.321 23.8712L152.356 23.9233C152.168 24.306 152.363 23.6346 152.157 23.8468C152.091 23.7598 151.629 24.5807 151.618 24.3512C151.496 24.5147 151.785 24.0694 151.66 24.1842C151.747 23.979 151.747 24.0694 151.799 23.899C151.695 23.9686 151.782 23.645 151.646 23.7494L151.712 23.5894C151.486 23.8364 151.604 23.2972 151.416 23.5442C151.253 23.6311 151.542 23.0398 151.302 23.3042L151.347 23.0711C151.312 23.0155 151.201 23.3216 151.194 23.1963C151.253 23.0607 151.173 23.0607 151.256 22.9424C151.222 22.6781 150.888 23.1442 150.874 22.7198C150.731 22.9702 150.714 22.7824 150.609 22.9702C150.651 22.852 150.456 22.8868 150.648 22.6711C150.665 22.6537 150.675 22.6641 150.658 22.7094L150.731 22.5563C150.759 22.2224 150.498 22.6537 150.428 22.5702C150.435 22.6328 150.477 22.6328 150.408 22.7337L150.331 22.6781L150.401 22.5528L150.307 22.4241L150.258 22.5946C150.23 22.4867 150.317 22.1945 150.157 22.4032C150.074 22.5215 150.129 22.6467 150.042 22.6746C150.004 22.532 149.948 22.3128 149.862 22.2224C149.799 22.4137 149.775 22.3963 149.729 22.4207L149.788 22.2572C149.59 22.4381 149.882 21.885 149.705 22.0206L149.757 21.9128L149.597 22.2398C149.375 22.5215 149.67 21.8815 149.392 22.278C149.448 22.2676 149.277 22.6433 149.249 22.5528L149.322 22.3998C149.281 22.4206 149.246 22.4832 149.239 22.445C149.288 22.3685 149.333 22.2224 149.281 22.2328L149.385 22.0484L149.194 22.3059C149.194 22.1146 149.013 22.285 149.068 22.0554C149.068 22.0554 148.971 21.8954 148.849 22.125C148.933 21.9859 148.877 21.8989 148.964 21.7319C148.867 21.8885 148.707 21.9893 148.731 21.791L148.745 21.7737C148.654 21.5337 148.383 21.9371 148.321 21.6623C148.258 21.8537 148.22 21.725 148.154 21.9754C147.924 22.1667 148.06 21.3945 147.743 22.125C147.663 22.1424 147.726 21.9232 147.705 21.8745L147.736 21.8397C147.59 21.8606 147.552 21.8537 147.465 21.805C147.392 21.8641 147.267 22.2085 147.211 22.0971C147.284 21.9684 147.242 21.9824 147.211 21.9719C147.239 21.958 147.263 21.9093 147.253 21.8015C147.232 21.8432 147.214 21.8676 147.197 21.885C147.197 21.8745 147.201 21.8641 147.207 21.8502C147.138 21.8815 147.134 21.9267 147.152 21.9546C147.145 21.9754 147.134 22.0033 147.131 22.045C147.138 21.8467 146.978 22.0067 147.051 21.7667C146.877 21.7667 146.682 21.9789 146.522 22.0311C146.55 21.9024 146.616 21.805 146.668 21.7702L146.56 21.7841C146.62 21.6067 146.647 21.7006 146.686 21.6728C146.672 21.3493 146.366 21.8815 146.324 21.5789L146.251 21.711V21.6867C146.227 21.7598 146.164 21.8537 146.14 21.8711C146.171 21.7111 146.258 21.5163 146.192 21.5023C146.192 21.3354 146.025 21.5302 145.931 21.5893C145.959 21.6276 145.917 21.7076 145.886 21.7597C145.851 21.7528 145.886 21.5928 145.837 21.6519L145.9 21.4432C145.847 21.6449 145.75 21.6276 145.708 21.7076C145.74 21.5475 145.799 21.5893 145.844 21.478C145.712 21.4537 145.778 21.4675 145.646 21.4432C145.527 21.5789 145.593 21.645 145.503 21.8154C145.43 21.8363 145.326 21.9615 145.298 21.8154L145.259 22.0067C145.103 22.1145 145.044 22.0693 145.026 21.8571C144.376 22.4763 144.178 22.9807 144.136 23.3285C144.094 23.6764 144.209 23.8677 144.209 23.8677C144.397 24.386 144.731 23.899 145.155 23.8816L145.169 23.8677Z" fill="#20BB65"/>
<path d="M162.083 29.3428L162.058 29.4272C162.08 29.3956 162.094 29.3674 162.083 29.3428Z" fill="#20BB65"/>
<path d="M167.427 33.7813C167.427 33.7813 167.437 33.7778 167.444 33.7744C167.437 33.7744 167.43 33.7778 167.427 33.7813Z" fill="#20BB65"/>
<path d="M161.315 32.1534C161.315 32.1534 161.305 32.1603 161.298 32.1638L161.315 32.1534Z" fill="#20BB65"/>
<path d="M160.376 31.2038C160.605 31.482 160.456 31.8438 160.838 31.9273C160.957 32.0525 161.155 32.0908 161.315 32.1534C161.555 31.9655 161.492 32.2821 161.715 32.1429L161.642 32.2995C161.719 32.2508 161.785 32.2299 161.753 32.3203L161.722 32.3586C161.837 32.289 161.833 32.3795 161.892 32.3447L161.861 32.383L161.92 32.4003L161.872 32.449C162.021 32.3934 162.094 32.4421 162.119 32.536L162.237 32.3725C162.226 32.6508 162.532 32.3586 162.484 32.6612L162.452 32.6995C162.932 32.3968 162.452 33.1691 162.922 32.8943C162.863 32.9291 162.863 32.9812 162.832 33.0195C162.936 33.0299 163.03 33.0682 163.284 32.7621C163.333 32.8073 163.246 32.8908 163.155 33.016C163.266 32.8804 163.353 32.863 163.402 32.8873L163.343 32.9256L163.493 32.9743L163.68 32.7029C163.68 32.8247 163.44 33.023 163.548 33.0091L163.722 32.8004C163.771 32.9117 163.555 33.2665 163.503 33.4856C163.75 33.8474 164.557 33.6317 164.533 34.2578L164.407 34.4213C164.213 34.6474 164.786 34.1674 164.609 34.3831L164.734 34.3135C164.706 34.3622 164.689 34.4213 164.626 34.4561C164.651 34.4944 164.682 34.4561 164.769 34.4144L164.679 34.5813C164.703 34.8005 165.054 34.6335 165.134 34.8109C165.026 35.2318 165.555 35.2561 165.861 35.277C166.414 35.1935 165.827 36.2962 166.421 36.1779C166.397 36.2162 166.487 36.171 166.512 36.1466L166.689 36.3971C166.689 36.3971 166.915 36.6858 167.277 36.6684C167.635 36.6475 168.154 36.3414 168.668 35.0683L168.721 35.03C168.721 34.79 168.665 34.6822 168.341 34.8179C168.62 34.5292 168.272 34.6822 168.338 34.5639L168.366 34.5431C168.067 34.6752 168.397 34.2022 168.126 34.3169C168.15 34.2996 168.234 34.223 168.254 34.237C168.164 34.2161 168.028 34.2057 168.192 34.0387C168.021 33.9517 167.917 33.6909 167.573 33.8717L167.625 33.8334C167.399 33.9656 167.538 33.7987 167.395 33.8369C167.413 33.8126 167.42 33.7987 167.43 33.7882C167.204 33.9134 167.253 33.6665 167.138 33.7013L167.242 33.5865L167.114 33.51L167.127 33.5726C166.818 33.8647 167.235 33.3047 166.967 33.43C166.933 33.3221 166.213 33.9343 166.286 33.7152C166.115 33.8265 166.54 33.5099 166.383 33.5726C166.533 33.4091 166.505 33.496 166.613 33.3534C166.491 33.3812 166.686 33.1099 166.519 33.1586L166.634 33.0299C166.334 33.183 166.634 32.7169 166.369 32.8873C166.185 32.9117 166.658 32.456 166.341 32.6229L166.463 32.4177C166.449 32.3551 166.24 32.6056 166.275 32.4804C166.376 32.3725 166.3 32.3447 166.418 32.2612C166.474 32.0003 165.997 32.3238 166.129 31.9168C165.91 32.1046 165.959 31.9168 165.795 32.0629C165.875 31.9655 165.677 31.9307 165.931 31.7916C165.952 31.7812 165.959 31.7916 165.927 31.8299L166.049 31.7116C166.185 31.402 165.795 31.7255 165.754 31.6246C165.74 31.6872 165.778 31.7012 165.68 31.7707L165.625 31.6942L165.733 31.5968L165.684 31.4438L165.583 31.5899C165.593 31.4785 165.771 31.2316 165.548 31.3742C165.43 31.4577 165.44 31.5968 165.35 31.5933C165.36 31.4438 165.378 31.2177 165.322 31.1029C165.2 31.2629 165.183 31.2385 165.134 31.249L165.242 31.1133C164.995 31.2211 165.451 30.7933 165.239 30.8629L165.326 30.7759L165.068 31.0333C164.766 31.2281 165.253 30.7203 164.863 31.002C164.919 31.009 164.637 31.3116 164.64 31.2142L164.759 31.0959C164.71 31.1029 164.658 31.1516 164.665 31.1098C164.738 31.0507 164.828 30.9289 164.773 30.922L164.929 30.7794L164.665 30.9602C164.724 30.7759 164.498 30.8837 164.623 30.682C164.623 30.682 164.578 30.4976 164.39 30.6785C164.515 30.5707 164.487 30.4733 164.623 30.3411C164.48 30.4594 164.3 30.5011 164.383 30.3237L164.404 30.3133C164.393 30.0524 164.007 30.3481 164.035 30.0628C163.917 30.2263 163.92 30.0907 163.778 30.3063C163.499 30.4107 163.868 29.7184 163.343 30.3133C163.259 30.3028 163.388 30.115 163.385 30.0593L163.423 30.035C163.277 30.0072 163.242 29.9898 163.176 29.9133C163.089 29.9446 162.863 30.2367 162.846 30.1115C162.957 30.0106 162.912 30.0107 162.884 29.9933C162.915 29.9863 162.953 29.948 162.974 29.8437C162.943 29.875 162.919 29.8924 162.898 29.9063C162.905 29.8959 162.908 29.8889 162.919 29.875C162.842 29.8854 162.825 29.9272 162.832 29.9585C162.818 29.9759 162.8 30.0002 162.783 30.0385C162.849 29.8541 162.647 29.955 162.793 29.7463C162.626 29.6941 162.379 29.8332 162.209 29.8332C162.272 29.7184 162.365 29.6454 162.428 29.628L162.32 29.6106C162.432 29.4611 162.428 29.555 162.473 29.5445C162.557 29.2315 162.105 29.6489 162.153 29.3463L162.045 29.4506L162.052 29.4263C162.007 29.4889 161.92 29.5584 161.889 29.5689C161.969 29.4262 162.108 29.2628 162.045 29.2349C162.094 29.0749 161.875 29.2106 161.771 29.2419C161.785 29.2871 161.725 29.3532 161.677 29.3915C161.645 29.3776 161.722 29.2315 161.663 29.2767L161.785 29.0958C161.677 29.2732 161.586 29.228 161.524 29.2941C161.6 29.1515 161.645 29.2106 161.722 29.1132C161.6 29.0541 161.659 29.0819 161.538 29.0228C161.385 29.1167 161.43 29.2002 161.294 29.3393C161.218 29.3393 161.082 29.4297 161.096 29.2802L161.005 29.4541C160.825 29.5132 160.779 29.4541 160.821 29.2489C160.014 29.6593 159.684 30.0906 159.544 30.4107C159.405 30.7307 159.461 30.9429 159.461 30.9429C159.492 31.482 159.951 31.1098 160.362 31.2107L160.376 31.2038Z" fill="#20BB65"/>
<path d="M173.783 42.6443L173.72 42.7041C173.755 42.6866 173.78 42.6655 173.783 42.6443Z" fill="#20BB65"/>
<path d="M171.387 43.4513C171.449 43.7992 171.143 44.0427 171.432 44.2931C171.47 44.4566 171.623 44.5853 171.731 44.714C172.034 44.6688 171.818 44.9088 172.082 44.8984L171.943 44.9958C172.034 44.9923 172.1 45.0062 172.03 45.0688L171.985 45.0862C172.121 45.0827 172.072 45.1592 172.138 45.1558L172.093 45.1732L172.134 45.2184L172.065 45.2358C172.221 45.2601 172.26 45.3366 172.232 45.4306L172.416 45.3506C172.267 45.5836 172.677 45.4862 172.482 45.7193L172.437 45.7367C173.004 45.7193 172.201 46.1367 172.74 46.1367C172.674 46.1367 172.646 46.1819 172.601 46.1958C172.684 46.2584 172.747 46.335 173.119 46.2028C173.136 46.2654 173.021 46.2932 172.879 46.3523C173.042 46.2932 173.129 46.321 173.157 46.3662H173.088L173.192 46.4845L173.491 46.3489C173.428 46.4532 173.119 46.4984 173.22 46.5437L173.477 46.4532C173.46 46.5715 173.091 46.7628 172.934 46.9228C172.955 47.3541 173.752 47.5907 173.404 48.1055L173.213 48.1785C172.928 48.2655 173.668 48.1611 173.404 48.2516L173.547 48.2585C173.498 48.2864 173.449 48.3281 173.38 48.3211C173.38 48.3664 173.428 48.3524 173.522 48.3594L173.355 48.4533C173.258 48.6516 173.644 48.6933 173.616 48.8846C173.3 49.1803 173.735 49.4794 173.978 49.6638C174.489 49.8899 173.397 50.4986 173.961 50.7178C173.922 50.7352 174.02 50.7456 174.055 50.7387L174.068 51.0448C174.068 51.0448 174.103 51.41 174.416 51.5909C174.729 51.7683 175.331 51.7926 176.455 51.0065H176.521C176.649 50.8013 176.663 50.683 176.319 50.6204C176.709 50.5299 176.333 50.4673 176.455 50.4047H176.486C176.162 50.3525 176.698 50.1334 176.406 50.0812C176.437 50.0812 176.545 50.0604 176.559 50.0812C176.493 50.0152 176.385 49.9316 176.615 49.8795C176.517 49.7125 176.573 49.4342 176.183 49.3994L176.249 49.3925C175.989 49.3821 176.194 49.316 176.051 49.2707C176.079 49.2603 176.093 49.2499 176.107 49.2499C175.849 49.2325 176.023 49.0516 175.905 49.0203L176.055 48.982L175.989 48.8499L175.968 48.909C175.55 48.989 176.204 48.742 175.909 48.7038C175.936 48.5959 175.001 48.7246 175.178 48.5785C174.973 48.5785 175.502 48.5403 175.338 48.509C175.554 48.4533 175.481 48.509 175.648 48.4464C175.529 48.4046 175.839 48.2759 175.672 48.2307L175.839 48.182C175.505 48.1507 176.002 47.9141 175.689 47.9176C175.522 47.8411 176.162 47.7055 175.804 47.6741L176.016 47.5663C176.037 47.5037 175.731 47.6081 175.825 47.5211C175.968 47.4863 175.919 47.4167 176.062 47.4133C176.246 47.2185 175.672 47.2428 175.995 46.9645C175.71 47.0097 175.849 46.8776 175.634 46.9124C175.752 46.8706 175.602 46.7384 175.891 46.7523C175.916 46.7523 175.915 46.7698 175.867 46.7837L176.034 46.7454C176.312 46.5541 175.808 46.6202 175.829 46.5124C175.783 46.5576 175.811 46.5889 175.689 46.5993L175.682 46.5054L175.825 46.4811L175.863 46.3245L175.7 46.3975C175.766 46.3071 176.044 46.1889 175.783 46.1958C175.641 46.2062 175.575 46.3315 175.502 46.2793C175.589 46.1575 175.717 45.9697 175.731 45.8445C175.547 45.9175 175.543 45.8862 175.495 45.8689L175.658 45.8097C175.39 45.7714 176.002 45.6427 175.783 45.5906L175.902 45.5627L175.55 45.6497C175.192 45.6601 175.87 45.4758 175.387 45.514C175.429 45.5488 175.035 45.6636 175.088 45.5836L175.251 45.5419C175.206 45.5245 175.136 45.5349 175.161 45.5036C175.251 45.4932 175.394 45.4305 175.349 45.3957L175.557 45.354L175.237 45.3714C175.383 45.2427 175.133 45.2184 175.342 45.1071C175.342 45.1071 175.397 44.9227 175.143 44.9818C175.303 44.954 175.331 44.8531 175.516 44.8114C175.331 44.8392 175.154 44.7836 175.317 44.6688H175.342C175.463 44.4357 174.983 44.4949 175.15 44.2618C174.966 44.3418 175.039 44.227 174.806 44.3418C174.514 44.2896 175.178 43.8757 174.423 44.1261C174.357 44.0775 174.562 43.9766 174.587 43.9279H174.632C174.521 43.827 174.496 43.7957 174.475 43.6948C174.385 43.6774 174.044 43.82 174.089 43.7017C174.235 43.6704 174.197 43.6461 174.183 43.6183C174.215 43.6287 174.267 43.6113 174.336 43.5348C174.291 43.5487 174.263 43.5487 174.239 43.5522C174.249 43.5487 174.256 43.5417 174.27 43.5348C174.201 43.5035 174.162 43.5348 174.155 43.5626C174.135 43.5696 174.11 43.5835 174.075 43.6079C174.225 43.4792 173.999 43.4652 174.225 43.3574C174.103 43.2287 173.821 43.2252 173.672 43.1417C173.783 43.0722 173.901 43.0548 173.964 43.0687L173.881 42.9991C174.051 42.9226 174.002 43.0061 174.048 43.0165C174.27 42.7834 173.672 42.9261 173.863 42.6826L173.717 42.7208L173.735 42.7034C173.665 42.7382 173.557 42.7556 173.526 42.7487C173.665 42.6617 173.863 42.5886 173.825 42.5295C173.943 42.4112 173.686 42.4252 173.578 42.4008C173.571 42.446 173.484 42.4739 173.425 42.4878C173.404 42.4599 173.543 42.3695 173.467 42.38L173.661 42.2791C173.481 42.3834 173.421 42.3 173.338 42.3278C173.474 42.2373 173.488 42.3138 173.599 42.2651C173.519 42.1504 173.561 42.2095 173.481 42.0947C173.3 42.1051 173.303 42.1991 173.115 42.2547C173.049 42.2165 172.886 42.2304 172.969 42.1052L172.806 42.213C172.618 42.1782 172.604 42.1052 172.74 41.9452C171.835 41.9278 171.341 42.1539 171.07 42.373C170.795 42.5921 170.743 42.8008 170.743 42.8008C170.513 43.2843 171.091 43.1661 171.4 43.4478L171.387 43.4513Z" fill="#20BB65"/>
<path d="M176.657 60.1373L176.572 60.1549C176.611 60.1585 176.643 60.1549 176.657 60.1373Z" fill="#20BB65"/>
<path d="M175.278 66.9725C175.278 66.9725 175.289 66.9796 175.293 66.9832C175.289 66.9761 175.282 66.9725 175.278 66.9725Z" fill="#20BB65"/>
<path d="M173.828 60.8327C173.828 60.8327 173.818 60.826 173.808 60.8226L173.828 60.8327Z" fill="#20BB65"/>
<path d="M174.197 59.5634C174.068 59.8973 173.678 59.9425 173.793 60.3112C173.741 60.4747 173.804 60.6625 173.828 60.833C174.11 60.9513 173.8 61.0487 174.033 61.1739L173.863 61.1843C173.943 61.2295 173.992 61.2748 173.898 61.2922L173.849 61.2817C173.967 61.3478 173.884 61.3896 173.943 61.4244L173.894 61.4139L173.908 61.4731L173.842 61.4522C173.964 61.5565 173.957 61.6435 173.884 61.7061L174.085 61.7339C173.835 61.8557 174.239 61.9844 173.95 62.0853L173.901 62.0748C174.395 62.3531 173.491 62.2974 173.953 62.5792C173.894 62.5444 173.849 62.5688 173.8 62.5583C173.842 62.6557 173.852 62.7531 174.242 62.8331C174.225 62.8957 174.11 62.8609 173.957 62.8401C174.127 62.8748 174.186 62.941 174.186 62.9931L174.124 62.9584L174.152 63.1114L174.479 63.1496C174.371 63.2053 174.082 63.0905 174.145 63.1775L174.412 63.2331C174.339 63.327 173.922 63.3062 173.706 63.3618C173.505 63.7479 174.072 64.3567 173.512 64.628L173.31 64.5932C173.018 64.5271 173.71 64.8089 173.438 64.7532L173.557 64.8332C173.501 64.8332 173.438 64.8437 173.379 64.8054C173.358 64.8437 173.404 64.8576 173.484 64.9098H173.292C173.108 65.0315 173.421 65.2611 173.299 65.4141C172.878 65.515 173.101 65.9915 173.226 66.2733C173.557 66.722 172.308 66.715 172.687 67.1846C172.645 67.1812 172.725 67.2368 172.757 67.2508L172.618 67.5221C172.618 67.5221 172.468 67.856 172.649 68.1691C172.833 68.4786 173.345 68.7917 174.712 68.663L174.771 68.6943C174.983 68.583 175.052 68.4856 174.785 68.2595C175.171 68.3743 174.872 68.1342 175.007 68.1377L175.039 68.1517C174.781 67.9499 175.355 68.0229 175.129 67.8351C175.157 67.849 175.261 67.8873 175.261 67.9117C175.237 67.8212 175.185 67.696 175.407 67.7621C175.407 67.5673 175.588 67.3586 175.268 67.1325L175.327 67.1603C175.108 67.0212 175.317 67.0664 175.216 66.9586C175.247 66.9621 175.261 66.962 175.275 66.969C175.059 66.8264 175.299 66.7568 175.216 66.6698L175.366 66.7116L175.372 66.562L175.324 66.6038C174.92 66.4646 175.613 66.5759 175.376 66.3985C175.456 66.3185 174.579 65.9637 174.806 65.9254C174.628 65.8246 175.105 66.0542 174.976 65.9429C175.192 66.002 175.101 66.0124 175.275 66.0437C175.192 65.9463 175.526 65.995 175.404 65.8698L175.571 65.9116C175.296 65.7168 175.846 65.762 175.574 65.6089C175.466 65.4594 176.093 65.6646 175.797 65.4593L176.037 65.4733C176.086 65.4315 175.769 65.3654 175.894 65.3376C176.037 65.3793 176.026 65.2958 176.155 65.3619C176.413 65.2889 175.901 65.0211 176.322 64.9445C176.054 64.8402 176.239 64.795 176.037 64.715C176.159 64.7393 176.099 64.548 176.34 64.708C176.36 64.7219 176.35 64.7358 176.305 64.7219L176.468 64.7741C176.806 64.7497 176.336 64.555 176.409 64.4715C176.346 64.4889 176.353 64.5306 176.246 64.4784L176.287 64.395L176.423 64.4471L176.534 64.3323L176.357 64.3114C176.461 64.2662 176.76 64.3114 176.531 64.1793C176.402 64.1166 176.284 64.1897 176.246 64.1097C176.385 64.0506 176.59 63.9567 176.663 63.8523C176.465 63.821 176.479 63.7932 176.444 63.7549L176.614 63.7862C176.402 63.6193 176.997 63.821 176.833 63.661L176.948 63.6958L176.6 63.5914C176.287 63.4175 176.966 63.6054 176.531 63.3932C176.552 63.4453 176.152 63.341 176.239 63.2992L176.399 63.3445C176.371 63.3062 176.305 63.2818 176.343 63.2679C176.426 63.3027 176.579 63.3236 176.562 63.2714L176.76 63.3445L176.475 63.1984C176.663 63.1636 176.465 63.014 176.701 63.0279C176.701 63.0279 176.844 62.8992 176.593 62.8192C176.746 62.8783 176.819 62.8053 177 62.8644C176.83 62.7949 176.705 62.6557 176.903 62.6418L176.924 62.6557C177.146 62.5201 176.705 62.3218 176.969 62.2105C176.771 62.1861 176.893 62.1235 176.635 62.1026C176.413 61.9078 177.195 61.8974 176.42 61.7235C176.388 61.647 176.618 61.6678 176.663 61.6365L176.701 61.6609C176.656 61.5182 176.656 61.48 176.687 61.3826C176.618 61.3235 176.256 61.2643 176.353 61.1878C176.496 61.2365 176.472 61.1983 176.479 61.1635C176.499 61.1878 176.552 61.2017 176.656 61.1704C176.611 61.1565 176.586 61.1461 176.562 61.1322C176.573 61.1322 176.583 61.1321 176.597 61.1356C176.552 61.073 176.506 61.0765 176.482 61.1008C176.461 61.0974 176.43 61.0939 176.392 61.1008C176.586 61.0695 176.399 60.9408 176.649 60.9652C176.611 60.7913 176.371 60.6417 176.287 60.4956C176.42 60.4956 176.527 60.5408 176.573 60.586L176.538 60.4817C176.722 60.5026 176.639 60.5513 176.673 60.586C176.986 60.5026 176.402 60.3113 176.691 60.2069L176.548 60.1617L176.573 60.1547C176.496 60.1478 176.392 60.106 176.371 60.0817C176.534 60.0817 176.743 60.1234 176.739 60.0538C176.903 60.0156 176.677 59.8938 176.597 59.8173C176.566 59.8521 176.479 59.8312 176.423 59.8104C176.423 59.7756 176.583 59.7721 176.517 59.7408L176.736 59.7582C176.531 59.7512 176.52 59.6503 176.433 59.6295C176.597 59.626 176.569 59.6956 176.687 59.7129C176.68 59.5773 176.684 59.6434 176.677 59.5077C176.52 59.4208 176.468 59.5042 176.28 59.4521C176.242 59.386 176.096 59.3129 176.235 59.2503L176.04 59.2573C175.901 59.1286 175.926 59.059 176.127 58.9964C175.369 58.5025 174.83 58.4329 174.482 58.4712C174.134 58.5094 173.978 58.6624 173.978 58.6624C173.525 58.9546 174.079 59.1599 174.193 59.5669L174.197 59.5634Z" fill="#20BB65"/>
<path d="M170.337 76.7055L170.256 76.6774C170.288 76.6985 170.316 76.7125 170.337 76.7055Z" fill="#20BB65"/>
<path d="M165.677 81.8429C165.677 81.8429 165.68 81.8533 165.684 81.8602C165.684 81.8533 165.68 81.8464 165.677 81.8429Z" fill="#20BB65"/>
<path d="M167.559 75.8147C167.559 75.8147 167.553 75.8043 167.549 75.7974L167.559 75.8147Z" fill="#20BB65"/>
<path d="M168.537 74.9278C168.248 75.1399 167.9 74.98 167.8 75.3522C167.671 75.4635 167.629 75.6582 167.556 75.8148C167.733 76.0617 167.42 75.9852 167.553 76.2148L167.403 76.1348C167.448 76.2148 167.466 76.2774 167.375 76.2461L167.34 76.2148C167.407 76.3331 167.313 76.3261 167.347 76.3852L167.313 76.3505L167.292 76.4096L167.247 76.3574C167.295 76.507 167.246 76.58 167.149 76.5974L167.306 76.7226C167.031 76.6983 167.306 77.0183 167.006 76.9557L166.972 76.9209C167.246 77.4148 166.506 76.9035 166.756 77.3836C166.725 77.3244 166.673 77.3209 166.638 77.2862C166.62 77.3905 166.579 77.4809 166.874 77.7488C166.826 77.794 166.746 77.7036 166.627 77.6097C166.756 77.7279 166.77 77.8184 166.746 77.8636L166.711 77.801L166.655 77.9505L166.916 78.1523C166.794 78.1453 166.606 77.8949 166.617 78.0062L166.819 78.1905C166.704 78.2323 166.359 77.9992 166.144 77.9401C165.772 78.1732 165.946 78.9906 165.323 78.9419L165.166 78.8097C164.947 78.6045 165.403 79.1993 165.198 79.0149L165.26 79.1436C165.212 79.1158 165.152 79.095 165.121 79.0323C165.083 79.0532 165.118 79.0915 165.159 79.175L164.996 79.0776C164.773 79.095 164.923 79.4498 164.745 79.5263C164.328 79.408 164.279 79.9333 164.252 80.2463C164.314 80.7994 163.229 80.1941 163.326 80.7924C163.288 80.7681 163.333 80.8585 163.358 80.8829L163.1 81.0603C163.1 81.0603 162.805 81.2864 162.815 81.6516C162.829 82.0134 163.142 82.5247 164.405 83.0534L164.443 83.1056C164.679 83.1056 164.787 83.0569 164.655 82.7334C164.94 83.0186 164.791 82.6673 164.906 82.7334L164.926 82.7612C164.798 82.4621 165.264 82.7995 165.152 82.5282C165.17 82.556 165.243 82.636 165.232 82.6569C165.253 82.5699 165.271 82.4343 165.431 82.6012C165.521 82.4343 165.779 82.3369 165.608 81.989L165.646 82.0412C165.521 81.8151 165.681 81.9542 165.646 81.8116C165.671 81.8325 165.685 81.8394 165.692 81.8499C165.573 81.6203 165.817 81.676 165.782 81.5612L165.893 81.669L165.97 81.5438L165.907 81.5577C165.626 81.2377 166.172 81.6759 166.053 81.4046C166.161 81.3768 165.577 80.6359 165.792 80.7159C165.688 80.542 165.991 80.9768 165.932 80.8168C166.088 80.9733 166.005 80.9385 166.144 81.0533C166.119 80.9281 166.384 81.1333 166.342 80.9663L166.467 81.0881C166.325 80.7855 166.78 81.0985 166.62 80.8342C166.603 80.6498 167.041 81.1438 166.885 80.8168L167.083 80.949C167.146 80.9385 166.906 80.7194 167.027 80.7576C167.128 80.8655 167.163 80.789 167.24 80.9107C167.497 80.9768 167.194 80.4933 167.594 80.6394C167.413 80.4133 167.594 80.4689 167.462 80.2985C167.556 80.382 167.598 80.1872 167.727 80.4446C167.737 80.4654 167.727 80.4724 167.688 80.4411L167.803 80.5663C168.102 80.7159 167.803 80.3124 167.904 80.2776C167.841 80.2602 167.827 80.2985 167.761 80.1976L167.841 80.1489L167.932 80.2602L168.085 80.2185L167.942 80.1107C168.054 80.1246 168.29 80.3159 168.158 80.0863C168.078 79.9646 167.942 79.968 167.949 79.8811C168.099 79.8985 168.321 79.9263 168.436 79.8811C168.283 79.7524 168.307 79.735 168.3 79.6863L168.429 79.8011C168.335 79.5506 168.739 80.0272 168.68 79.808L168.763 79.8985L168.516 79.6306C168.335 79.3176 168.822 79.8289 168.554 79.4254C168.544 79.4811 168.259 79.1854 168.353 79.1923L168.467 79.3141C168.464 79.2654 168.419 79.2132 168.457 79.2202C168.513 79.2932 168.631 79.3906 168.641 79.335L168.774 79.4984L168.607 79.2271C168.787 79.2967 168.694 79.0636 168.888 79.1993C168.888 79.1993 169.076 79.1645 168.902 78.9662C169.003 79.0949 169.104 79.0741 169.229 79.2167C169.118 79.0671 169.083 78.8828 169.257 78.9767L169.267 78.9976C169.528 78.9976 169.257 78.6045 169.535 78.6428C169.379 78.5175 169.514 78.528 169.306 78.3749C169.212 78.0932 169.89 78.4932 169.32 77.9401C169.334 77.8601 169.518 77.9958 169.57 77.9923L169.591 78.0305C169.626 77.8879 169.647 77.8497 169.723 77.7871C169.695 77.7001 169.414 77.4601 169.539 77.4461C169.633 77.5609 169.636 77.5157 169.657 77.4914C169.661 77.5227 169.699 77.561 169.803 77.5888C169.772 77.554 169.758 77.5297 169.744 77.5088C169.754 77.5157 169.761 77.5192 169.772 77.5296C169.768 77.4531 169.727 77.4323 169.692 77.4392C169.674 77.4253 169.65 77.4079 169.615 77.387C169.8 77.4636 169.706 77.2548 169.907 77.4079C169.967 77.2409 169.834 76.987 169.845 76.8166C169.956 76.8861 170.026 76.9801 170.04 77.0427L170.064 76.9383C170.21 77.0531 170.113 77.0496 170.123 77.0948C170.433 77.1887 170.036 76.7227 170.339 76.7818L170.238 76.6705L170.262 76.6774C170.2 76.6287 170.134 76.5418 170.127 76.5105C170.266 76.594 170.422 76.74 170.457 76.6809C170.614 76.7331 170.488 76.5104 170.461 76.4026C170.415 76.4165 170.353 76.3505 170.314 76.3053C170.332 76.2739 170.471 76.3574 170.433 76.2948L170.61 76.4235C170.436 76.3087 170.485 76.2183 170.419 76.1557C170.561 76.2357 170.499 76.2809 170.593 76.3609C170.659 76.2391 170.624 76.2983 170.69 76.1766C170.6 76.02 170.516 76.0652 170.381 75.9226C170.381 75.8461 170.297 75.7069 170.447 75.7243L170.276 75.6269C170.224 75.4426 170.283 75.4008 170.488 75.4495C170.099 74.6321 169.671 74.2947 169.358 74.1486C169.041 74.0025 168.829 74.0512 168.829 74.0512C168.293 74.0616 168.655 74.5243 168.544 74.9312L168.537 74.9278Z" fill="#20BB65"/>
<path d="M157.295 88.5813L157.224 88.5285C157.246 88.5602 157.27 88.5813 157.295 88.5813Z" fill="#20BB65"/>
<path d="M151.541 92.3096C151.541 92.3096 151.541 92.3199 151.544 92.3268C151.544 92.3199 151.544 92.313 151.541 92.3096Z" fill="#20BB65"/>
<path d="M154.894 86.921C154.894 86.921 154.891 86.9074 154.888 86.9006V86.921H154.894Z" fill="#20BB65"/>
<path d="M156.123 86.3405C155.778 86.4623 155.486 86.2049 155.274 86.5388C155.114 86.6118 155.009 86.7892 154.895 86.9214C154.992 87.2101 154.714 87.0502 154.769 87.3076L154.644 87.1893C154.665 87.2762 154.665 87.3458 154.585 87.2901L154.561 87.2484C154.592 87.3806 154.502 87.3493 154.519 87.4154L154.495 87.3736L154.456 87.4258L154.425 87.3632C154.425 87.5232 154.359 87.5788 154.262 87.5719L154.38 87.7354C154.116 87.638 154.296 88.0241 154.022 87.8815L153.997 87.8397C154.129 88.3893 153.545 87.7006 153.66 88.2328C153.646 88.1667 153.594 88.1528 153.569 88.1076C153.524 88.205 153.462 88.2815 153.674 88.6154C153.615 88.6467 153.562 88.5389 153.472 88.4172C153.566 88.5633 153.559 88.6537 153.521 88.692L153.503 88.6224L153.409 88.7511L153.611 89.012C153.493 88.9737 153.378 88.685 153.357 88.7928L153.503 89.0224C153.382 89.0363 153.107 88.7233 152.912 88.612C152.484 88.7476 152.453 89.5825 151.855 89.3911L151.733 89.2276C151.569 88.9772 151.868 89.6625 151.712 89.4364L151.743 89.5755C151.705 89.5372 151.649 89.5024 151.635 89.4329C151.594 89.4468 151.618 89.4885 151.635 89.5824L151.5 89.4502C151.277 89.4189 151.34 89.7981 151.145 89.8294C150.762 89.6172 150.592 90.1251 150.491 90.4207C150.428 90.9738 149.496 90.1459 149.461 90.7547C149.43 90.7234 149.454 90.8208 149.472 90.8486L149.18 90.9668C149.18 90.9668 148.839 91.1269 148.773 91.4886C148.707 91.8469 148.912 92.4104 150.028 93.1965L150.053 93.2557C150.282 93.3079 150.397 93.2835 150.338 92.9391C150.554 93.2765 150.484 92.9044 150.581 92.9948L150.595 93.0261C150.533 92.7061 150.915 93.1374 150.863 92.8487C150.877 92.8765 150.929 92.9739 150.912 92.9913C150.95 92.9113 150.995 92.7826 151.117 92.9809C151.242 92.8383 151.51 92.8035 151.42 92.4243L151.444 92.4835C151.371 92.233 151.496 92.407 151.496 92.2609C151.514 92.2852 151.528 92.2956 151.535 92.3061C151.468 92.0556 151.691 92.1669 151.688 92.0452L151.771 92.1774L151.875 92.073H151.813C151.611 91.6973 152.042 92.2469 151.987 91.9582C152.098 91.9548 151.698 91.099 151.889 91.2277C151.827 91.0329 152.021 91.5269 152.001 91.3599C152.119 91.5477 152.046 91.4956 152.15 91.6382C152.154 91.513 152.366 91.7739 152.362 91.5999L152.456 91.746C152.387 91.419 152.755 91.8295 152.662 91.5338C152.686 91.353 152.995 91.9304 152.922 91.5791L153.086 91.753C153.148 91.7565 152.968 91.4886 153.075 91.5547C153.149 91.6834 153.197 91.6173 153.242 91.753C153.475 91.8817 153.295 91.3356 153.646 91.5756C153.524 91.3112 153.688 91.4121 153.597 91.2138C153.667 91.3182 153.754 91.1408 153.816 91.4225C153.82 91.4469 153.806 91.4504 153.782 91.4086L153.862 91.5582C154.116 91.7773 153.917 91.3147 154.025 91.3043C153.969 91.273 153.945 91.3043 153.907 91.193L153.994 91.1651L154.053 91.2973H154.209L154.098 91.1547C154.202 91.1964 154.383 91.4399 154.31 91.186C154.265 91.0503 154.129 91.019 154.157 90.9321C154.296 90.9877 154.505 91.0712 154.627 91.0538C154.512 90.8903 154.54 90.8799 154.543 90.8312L154.641 90.9738C154.609 90.706 154.884 91.2695 154.877 91.0469L154.933 91.1547L154.763 90.8347C154.665 90.4903 155.006 91.106 154.849 90.6469C154.825 90.6956 154.623 90.3373 154.714 90.3686L154.794 90.5182C154.801 90.4729 154.773 90.4068 154.808 90.4242C154.843 90.5112 154.933 90.6329 154.954 90.5842L155.041 90.7756L154.947 90.4695C155.103 90.5842 155.069 90.3338 155.222 90.5182C155.222 90.5182 155.406 90.5355 155.295 90.299C155.357 90.4486 155.458 90.4555 155.542 90.626C155.476 90.452 155.486 90.2677 155.632 90.4033V90.4277C155.886 90.5008 155.726 90.0451 155.983 90.1633C155.865 89.9999 155.994 90.0485 155.834 89.8433C155.82 89.5476 156.359 90.1216 155.963 89.4294C155.997 89.3564 156.136 89.5372 156.189 89.5511L156.199 89.5964C156.272 89.4677 156.3 89.4398 156.39 89.4015C156.39 89.3111 156.185 89.0015 156.307 89.0259C156.366 89.1615 156.38 89.1198 156.408 89.1024C156.404 89.1337 156.429 89.1824 156.519 89.2381C156.498 89.1963 156.491 89.1685 156.484 89.1441C156.491 89.1546 156.498 89.1616 156.505 89.172C156.519 89.0989 156.488 89.0676 156.457 89.0641C156.446 89.0433 156.429 89.0224 156.397 88.9946C156.55 89.1198 156.519 88.8937 156.669 89.0989C156.77 88.9598 156.721 88.6781 156.777 88.5215C156.863 88.6189 156.902 88.7337 156.898 88.7963L156.95 88.7024C157.055 88.8554 156.964 88.8207 156.961 88.8694C157.229 89.0537 156.985 88.4867 157.253 88.6363L157.19 88.5006L157.211 88.5146C157.166 88.452 157.131 88.3476 157.131 88.3163C157.239 88.438 157.344 88.6259 157.392 88.5772C157.524 88.6746 157.469 88.4276 157.476 88.3163C157.43 88.3163 157.389 88.2363 157.368 88.1772C157.392 88.1528 157.5 88.2745 157.483 88.2015L157.611 88.3789C157.483 88.2189 157.552 88.1458 157.514 88.0658C157.622 88.1876 157.552 88.2084 157.615 88.3163C157.712 88.2224 157.664 88.2676 157.761 88.1772C157.723 87.9998 157.632 88.0171 157.549 87.8397C157.577 87.7702 157.535 87.6102 157.67 87.6762L157.538 87.5301C157.545 87.3388 157.615 87.318 157.796 87.4293C157.688 86.5319 157.403 86.0692 157.152 85.8257C156.902 85.5857 156.679 85.5649 156.679 85.5649C156.157 85.4118 156.345 85.9718 156.105 86.3266L156.123 86.3405Z" fill="#20BB65"/>
<path d="M142.032 97.2427L141.972 97.1794C141.989 97.2146 142.007 97.2392 142.032 97.2427Z" fill="#20BB65"/>
<path d="M141.276 94.828C140.914 94.8871 140.67 94.581 140.403 94.8732C140.232 94.9184 140.097 95.0715 139.961 95.1828C140.006 95.4854 139.759 95.2767 139.77 95.5411L139.669 95.4054C139.672 95.4958 139.662 95.5654 139.592 95.4958L139.575 95.4506C139.582 95.5863 139.498 95.5411 139.502 95.6072L139.484 95.562L139.439 95.6072L139.422 95.5411C139.397 95.6976 139.317 95.7428 139.223 95.7185L139.31 95.8994C139.067 95.7602 139.178 96.1672 138.931 95.9828L138.914 95.9376C138.949 96.5011 138.493 95.722 138.51 96.2646C138.51 96.1985 138.458 96.1742 138.441 96.1289C138.382 96.2194 138.302 96.282 138.458 96.6507C138.396 96.6716 138.361 96.5568 138.291 96.4211C138.361 96.5811 138.333 96.6681 138.291 96.6994V96.6298L138.173 96.7412L138.326 97.0333C138.218 96.9776 138.152 96.6715 138.114 96.7759L138.222 97.0264C138.1 97.0195 137.881 96.6646 137.707 96.5185C137.262 96.5777 137.088 97.3986 136.531 97.1099L136.437 96.9255C136.319 96.6507 136.5 97.3777 136.382 97.1272L136.388 97.2699C136.357 97.2247 136.308 97.1829 136.305 97.1134C136.26 97.1203 136.277 97.1655 136.281 97.2594L136.169 97.1064C135.957 97.0368 135.954 97.4229 135.755 97.4229C135.415 97.1516 135.161 97.6247 135.011 97.896C134.858 98.4317 134.075 97.4612 133.936 98.056C133.912 98.0212 133.919 98.1186 133.929 98.1499L133.623 98.2195C133.623 98.2195 133.258 98.3239 133.136 98.6682C133.014 99.0126 133.122 99.6004 134.096 100.56L134.11 100.623C134.329 100.71 134.444 100.707 134.444 100.359C134.601 100.727 134.594 100.348 134.677 100.456L134.684 100.487C134.677 100.16 134.98 100.651 134.98 100.355C134.987 100.387 135.025 100.491 135.004 100.505C135.056 100.432 135.119 100.31 135.209 100.529C135.355 100.407 135.627 100.421 135.599 100.032L135.616 100.094C135.588 99.8369 135.682 100.028 135.703 99.8822C135.717 99.91 135.728 99.9204 135.731 99.9343C135.707 99.6769 135.908 99.8231 135.926 99.7048L135.985 99.8474L136.103 99.7639L136.041 99.7535C135.902 99.35 136.235 99.9656 136.232 99.67C136.34 99.6839 136.089 98.7761 136.256 98.9326C136.228 98.7308 136.336 99.2491 136.347 99.0821C136.43 99.2874 136.368 99.2247 136.448 99.3812C136.472 99.2595 136.635 99.5517 136.663 99.3812L136.729 99.5413C136.715 99.2074 137.011 99.6735 136.969 99.3674C137.025 99.1935 137.234 99.8161 137.22 99.4578L137.352 99.656C137.415 99.6734 137.279 99.3778 137.376 99.4613C137.429 99.6005 137.488 99.5448 137.509 99.6874C137.717 99.8543 137.63 99.2839 137.933 99.583C137.86 99.3047 138.003 99.4299 137.947 99.2178C137.999 99.3325 138.114 99.1726 138.128 99.4578C138.128 99.4822 138.114 99.4822 138.096 99.4369L138.149 99.5969C138.361 99.8578 138.246 99.3674 138.354 99.3744C138.305 99.3326 138.277 99.3604 138.256 99.2421L138.347 99.2282L138.385 99.3674L138.542 99.3952L138.458 99.2387C138.552 99.2978 138.691 99.5691 138.663 99.3082C138.639 99.1656 138.514 99.1099 138.556 99.0334C138.681 99.1099 138.872 99.2317 138.997 99.2352C138.91 99.0543 138.942 99.0508 138.952 99.0021L139.022 99.1621C139.039 98.8943 139.21 99.4961 139.244 99.2735L139.283 99.3882L139.171 99.0438C139.136 98.6856 139.363 99.3534 139.29 98.8769C139.258 98.9221 139.119 98.5326 139.203 98.5813L139.255 98.7413C139.269 98.696 139.255 98.6265 139.286 98.6508C139.303 98.7413 139.373 98.8769 139.404 98.8352L139.456 99.0404L139.418 98.7238C139.55 98.863 139.561 98.6125 139.679 98.8178C139.679 98.8178 139.86 98.8664 139.787 98.616C139.822 98.776 139.923 98.8004 139.975 98.9812C139.937 98.8004 139.982 98.6195 140.1 98.7795V98.8038C140.333 98.9186 140.253 98.4421 140.486 98.6021C140.399 98.4212 140.514 98.4908 140.396 98.2612C140.434 97.969 140.862 98.6265 140.594 97.8786C140.639 97.8125 140.744 98.0143 140.796 98.0386V98.0838C140.89 97.9725 140.921 97.9481 141.018 97.9273C141.032 97.8368 140.89 97.496 141.004 97.5447C141.039 97.6908 141.06 97.6524 141.088 97.6385C141.077 97.6698 141.095 97.7186 141.175 97.7916C141.161 97.7464 141.157 97.7186 141.157 97.6942C141.161 97.7047 141.168 97.7116 141.175 97.7255C141.203 97.6559 141.175 97.6177 141.144 97.6108C141.137 97.5899 141.123 97.5655 141.098 97.5308C141.227 97.6803 141.237 97.4542 141.345 97.6803C141.47 97.5586 141.471 97.2768 141.551 97.1307C141.617 97.242 141.637 97.3603 141.62 97.4229L141.69 97.3394C141.766 97.5099 141.683 97.4612 141.672 97.5064C141.902 97.7325 141.763 97.1342 141.999 97.329L141.964 97.1829L141.982 97.2003C141.951 97.1308 141.933 97.0194 141.94 96.9881C142.024 97.1272 142.097 97.329 142.152 97.2907C142.267 97.4124 142.257 97.1585 142.281 97.0472C142.236 97.0368 142.208 96.9498 142.201 96.8907C142.229 96.8733 142.316 97.0125 142.309 96.936L142.403 97.1342C142.305 96.9533 142.389 96.8942 142.361 96.8072C142.448 96.9464 142.371 96.9568 142.417 97.0716C142.528 96.9985 142.472 97.0333 142.584 96.9603C142.577 96.7794 142.483 96.7794 142.434 96.5881C142.472 96.522 142.462 96.3585 142.584 96.4489L142.479 96.282C142.521 96.0941 142.594 96.0872 142.751 96.2298C142.806 95.3254 142.615 94.821 142.41 94.5358C142.204 94.254 141.992 94.1949 141.992 94.1949C141.505 93.9514 141.589 94.5358 141.286 94.8419L141.276 94.828Z" fill="#20BB65"/>
<path d="M125.566 103.264L125.517 103.194C125.527 103.229 125.541 103.26 125.566 103.264Z" fill="#20BB65"/>
<path d="M125.196 100.762C124.827 100.762 124.636 100.425 124.326 100.672C124.149 100.689 123.992 100.821 123.839 100.908C123.839 101.214 123.624 100.971 123.596 101.232L123.516 101.079C123.505 101.169 123.481 101.235 123.429 101.155L123.419 101.107C123.405 101.242 123.332 101.183 123.321 101.249L123.311 101.2L123.259 101.235L123.252 101.166C123.203 101.319 123.119 101.346 123.029 101.308L123.085 101.503C122.865 101.326 122.911 101.747 122.698 101.527L122.688 101.479C122.636 102.042 122.305 101.2 122.239 101.74C122.246 101.673 122.205 101.642 122.194 101.593C122.121 101.673 122.034 101.726 122.128 102.108C122.062 102.119 122.045 102 121.999 101.854C122.041 102.021 122.003 102.108 121.958 102.129L121.965 102.06L121.836 102.154L121.944 102.463C121.843 102.39 121.829 102.08 121.773 102.174L121.839 102.439C121.721 102.414 121.561 102.028 121.411 101.858C120.963 101.847 120.664 102.633 120.156 102.258L120.093 102.063C120.017 101.774 120.083 102.519 120.006 102.254L119.992 102.397C119.968 102.348 119.926 102.3 119.937 102.227C119.891 102.227 119.902 102.272 119.891 102.369L119.804 102.199C119.606 102.098 119.54 102.48 119.349 102.449C119.053 102.129 118.73 102.557 118.542 102.804C118.309 103.312 117.683 102.23 117.456 102.797C117.436 102.759 117.429 102.856 117.436 102.891L117.123 102.912C117.123 102.912 116.747 102.957 116.573 103.281C116.399 103.601 116.416 104.199 117.23 105.294V105.361C117.436 105.482 117.554 105.493 117.606 105.148C117.703 105.538 117.756 105.159 117.822 105.281V105.312C117.867 104.988 118.09 105.517 118.135 105.228C118.135 105.26 118.159 105.368 118.135 105.381C118.197 105.315 118.281 105.208 118.333 105.434C118.497 105.336 118.761 105.392 118.796 105.002L118.803 105.068C118.813 104.808 118.876 105.013 118.921 104.874C118.931 104.901 118.938 104.915 118.942 104.929C118.959 104.672 119.137 104.846 119.168 104.731L119.206 104.881L119.335 104.815L119.276 104.794C119.203 104.373 119.439 105.034 119.477 104.741C119.582 104.773 119.477 103.834 119.617 104.018C119.617 103.813 119.648 104.345 119.683 104.178C119.735 104.394 119.683 104.321 119.738 104.491C119.784 104.373 119.898 104.686 119.951 104.522L119.992 104.689C120.031 104.355 120.25 104.863 120.253 104.554C120.333 104.39 120.444 105.037 120.486 104.679L120.584 104.898C120.643 104.922 120.556 104.609 120.636 104.707C120.667 104.853 120.733 104.804 120.733 104.95C120.911 105.145 120.914 104.571 121.171 104.912C121.14 104.623 121.265 104.769 121.241 104.554C121.276 104.675 121.411 104.533 121.384 104.821C121.384 104.846 121.366 104.846 121.356 104.797L121.384 104.964C121.554 105.253 121.516 104.752 121.62 104.776C121.578 104.728 121.547 104.752 121.544 104.634H121.638L121.651 104.78L121.801 104.828L121.742 104.661C121.825 104.735 121.919 105.023 121.933 104.759C121.933 104.616 121.818 104.543 121.871 104.47C121.985 104.568 122.156 104.714 122.274 104.738C122.215 104.547 122.246 104.547 122.267 104.498L122.312 104.665C122.368 104.404 122.445 105.023 122.514 104.811L122.532 104.929L122.476 104.571C122.497 104.213 122.618 104.905 122.618 104.421C122.58 104.46 122.504 104.056 122.577 104.115L122.605 104.282C122.625 104.241 122.618 104.171 122.65 104.199C122.653 104.289 122.698 104.439 122.737 104.397L122.758 104.606L122.768 104.286C122.879 104.442 122.928 104.199 123.012 104.421C123.012 104.421 123.182 104.498 123.151 104.237C123.161 104.401 123.255 104.439 123.279 104.627C123.272 104.442 123.342 104.268 123.436 104.446V104.47C123.645 104.62 123.641 104.136 123.843 104.331C123.784 104.14 123.888 104.223 123.805 103.98C123.888 103.694 124.208 104.415 124.059 103.632C124.114 103.573 124.187 103.792 124.232 103.82L124.226 103.865C124.337 103.768 124.368 103.75 124.469 103.743C124.497 103.656 124.406 103.298 124.514 103.361C124.525 103.51 124.553 103.475 124.584 103.465C124.57 103.493 124.577 103.545 124.643 103.628C124.636 103.583 124.639 103.552 124.643 103.528C124.643 103.538 124.65 103.548 124.653 103.562C124.692 103.5 124.671 103.458 124.643 103.444C124.639 103.423 124.629 103.395 124.612 103.357C124.716 103.524 124.758 103.305 124.831 103.545C124.973 103.444 125.015 103.166 125.12 103.034C125.168 103.155 125.168 103.274 125.144 103.333L125.224 103.26C125.273 103.441 125.199 103.378 125.182 103.423C125.373 103.684 125.328 103.068 125.533 103.301L125.52 103.152L125.533 103.173C125.513 103.096 125.513 102.988 125.526 102.957C125.589 103.107 125.627 103.319 125.687 103.291C125.78 103.427 125.808 103.176 125.85 103.072C125.808 103.054 125.794 102.964 125.794 102.905C125.826 102.891 125.888 103.04 125.892 102.967L125.954 103.176C125.885 102.981 125.975 102.94 125.965 102.849C126.027 102.999 125.954 102.999 125.979 103.117C126.1 103.061 126.041 103.089 126.163 103.034C126.187 102.856 126.093 102.839 126.073 102.644C126.121 102.585 126.139 102.421 126.243 102.529L126.166 102.348C126.236 102.171 126.309 102.171 126.441 102.341C126.64 101.458 126.528 100.926 126.372 100.616C126.215 100.303 126.013 100.213 126.013 100.213C125.568 99.8925 125.561 100.487 125.213 100.741L125.196 100.762Z" fill="#20BB65"/>
<path d="M108.371 106.683L108.336 106.606C108.34 106.645 108.35 106.676 108.371 106.683Z" fill="#20BB65"/>
<path d="M101.555 107.333C101.555 107.333 101.555 107.343 101.548 107.35C101.551 107.343 101.555 107.336 101.555 107.333Z" fill="#20BB65"/>
<path d="M107.024 104.094C107.024 104.094 107.024 104.08 107.027 104.074L107.021 104.094H107.024Z" fill="#20BB65"/>
<path d="M108.387 104.157C108.022 104.102 107.886 103.74 107.542 103.935C107.364 103.924 107.191 104.032 107.024 104.095C106.975 104.397 106.801 104.122 106.731 104.38L106.676 104.22C106.651 104.307 106.62 104.369 106.578 104.282V104.234C106.54 104.366 106.477 104.296 106.46 104.362V104.314L106.401 104.341V104.272C106.331 104.415 106.244 104.432 106.161 104.38L106.189 104.582C105.997 104.373 105.98 104.797 105.803 104.547V104.498C105.663 105.048 105.465 104.168 105.316 104.689C105.333 104.623 105.295 104.588 105.291 104.536C105.208 104.602 105.114 104.641 105.149 105.037C105.083 105.037 105.083 104.919 105.062 104.766C105.079 104.94 105.027 105.016 104.978 105.03L104.996 104.961L104.853 105.034L104.912 105.357C104.825 105.27 104.856 104.961 104.787 105.048L104.811 105.319C104.696 105.277 104.596 104.87 104.474 104.682C104.029 104.606 103.618 105.333 103.173 104.888L103.138 104.686C103.107 104.39 103.058 105.135 103.023 104.86L102.985 104.999C102.968 104.947 102.936 104.891 102.954 104.822C102.909 104.815 102.912 104.863 102.888 104.954L102.829 104.773C102.648 104.641 102.526 105.009 102.338 104.95C102.095 104.588 101.708 104.961 101.486 105.18C101.18 105.646 100.724 104.481 100.415 105.009C100.401 104.968 100.376 105.065 100.38 105.1L100.067 105.072C100.067 105.072 99.6875 105.062 99.4649 105.35C99.2458 105.642 99.1692 106.234 99.8093 107.441V107.507C99.9867 107.656 100.098 107.688 100.202 107.354C100.241 107.754 100.348 107.389 100.394 107.514V107.545C100.481 107.232 100.623 107.789 100.71 107.51C100.71 107.542 100.71 107.653 100.689 107.66C100.762 107.604 100.86 107.51 100.877 107.743C101.051 107.674 101.308 107.764 101.399 107.389V107.455C101.444 107.201 101.475 107.413 101.542 107.281C101.548 107.312 101.552 107.326 101.552 107.34C101.608 107.086 101.757 107.288 101.806 107.18L101.82 107.333L101.959 107.288L101.903 107.256C101.893 106.829 102.029 107.517 102.112 107.236C102.213 107.284 102.248 106.338 102.359 106.54C102.394 106.338 102.338 106.867 102.401 106.707C102.418 106.929 102.376 106.85 102.408 107.023C102.47 106.912 102.536 107.243 102.613 107.086L102.627 107.26C102.717 106.936 102.853 107.472 102.905 107.166C103.009 107.016 103.02 107.674 103.114 107.326L103.176 107.556C103.232 107.59 103.19 107.267 103.256 107.375C103.263 107.521 103.336 107.486 103.316 107.629C103.462 107.848 103.552 107.281 103.754 107.656C103.768 107.368 103.869 107.531 103.876 107.316C103.889 107.441 104.049 107.323 103.973 107.601C103.966 107.625 103.952 107.622 103.949 107.573V107.743C104.074 108.056 104.112 107.552 104.213 107.594C104.178 107.542 104.143 107.559 104.157 107.441L104.248 107.455L104.241 107.601L104.38 107.674L104.345 107.5C104.418 107.583 104.467 107.883 104.519 107.625C104.54 107.483 104.436 107.392 104.502 107.333C104.599 107.444 104.745 107.615 104.86 107.66C104.832 107.462 104.86 107.465 104.888 107.423L104.905 107.597C105.003 107.347 104.982 107.973 105.083 107.771V107.893V107.531C105.156 107.18 105.173 107.883 105.246 107.406C105.201 107.441 105.19 107.027 105.253 107.096V107.263C105.281 107.225 105.288 107.156 105.312 107.187C105.302 107.277 105.326 107.43 105.368 107.396L105.357 107.608L105.417 107.295C105.5 107.465 105.587 107.232 105.636 107.465C105.636 107.465 105.792 107.566 105.799 107.305C105.785 107.469 105.872 107.521 105.869 107.709C105.89 107.524 105.987 107.364 106.05 107.552L106.043 107.573C106.227 107.754 106.297 107.274 106.47 107.5C106.443 107.302 106.533 107.403 106.488 107.149C106.613 106.881 106.822 107.639 106.794 106.843C106.86 106.794 106.895 107.02 106.937 107.055L106.926 107.1C107.048 107.02 107.086 107.01 107.184 107.016C107.222 106.933 107.191 106.568 107.284 106.644C107.274 106.794 107.305 106.763 107.337 106.759C107.319 106.783 107.319 106.839 107.371 106.933C107.371 106.888 107.378 106.86 107.385 106.836C107.385 106.846 107.389 106.856 107.392 106.87C107.441 106.811 107.427 106.77 107.399 106.752C107.399 106.731 107.392 106.7 107.382 106.662C107.458 106.843 107.535 106.63 107.57 106.881C107.726 106.804 107.81 106.533 107.935 106.422C107.966 106.547 107.949 106.665 107.914 106.721L108.004 106.662C108.025 106.846 107.963 106.776 107.938 106.815C108.088 107.1 108.137 106.488 108.304 106.745L108.314 106.596L108.325 106.62C108.314 106.543 108.331 106.432 108.349 106.408C108.387 106.568 108.394 106.78 108.457 106.763C108.526 106.912 108.596 106.665 108.651 106.571C108.61 106.55 108.613 106.456 108.62 106.397C108.651 106.387 108.69 106.547 108.707 106.474L108.738 106.689C108.7 106.488 108.798 106.456 108.798 106.366C108.836 106.526 108.763 106.512 108.77 106.634C108.898 106.596 108.836 106.616 108.965 106.578C109.013 106.404 108.926 106.373 108.937 106.178C108.992 106.129 109.034 105.969 109.121 106.091L109.072 105.9C109.17 105.736 109.243 105.747 109.344 105.935C109.674 105.093 109.643 104.55 109.538 104.22C109.431 103.889 109.243 103.768 109.243 103.768C108.853 103.385 108.752 103.969 108.373 104.171L108.387 104.157Z" fill="#20BB65"/>
</svg>
