<svg width="90" height="10" viewBox="0 0 90 10" fill="none" xmlns="http://www.w3.org/2000/svg">
<g opacity="0.57">
<path d="M0.44812 8.37302C0.723253 8.55655 1.19576 8.57392 1.64435 8.60509C1.30043 8.42848 0.932593 8.35225 0.44812 8.37302Z" fill="#43C554"/>
<path d="M1.65288 8.60852H1.65862C1.65288 8.60852 1.64715 8.60852 1.64429 8.60852C1.64715 8.60852 1.65001 8.60852 1.65288 8.61182V8.60852Z" fill="#43C554"/>
<path d="M88.6819 0.266663C88.5713 0.270125 88.4427 0.273598 88.3141 0.277061C88.4367 0.283987 88.5623 0.283976 88.6819 0.266663Z" fill="#43C554"/>
<path d="M23.3827 9.12096L23.4514 8.81619C24.5161 8.80926 23.7625 9.16594 24.7464 9.08976C25.1321 8.65692 26.3822 9.1313 26.7202 8.90276C26.7112 8.93739 27.1957 8.95125 27.1628 9.0863C27.3093 8.85083 27.6592 9.03095 27.9612 8.97208C28.0719 8.90629 27.8805 8.90277 27.7968 8.83006L28.4935 8.74695C28.7657 8.82313 28.8315 8.96162 28.5384 8.98586C30.3567 9.06897 39.0921 9.28367 41.051 9.16593C40.7997 8.98933 40.1927 9.11054 39.9654 8.83006C40.4827 8.67423 40.728 8.88544 40.9553 8.71922C41.1556 9.13475 42.0947 8.81618 42.4864 9.23864L42.636 9.00319L42.8932 9.14522C45.172 8.89936 43.4135 9.02396 45.4321 9.07936C46.6015 9.04127 47.1577 8.71579 47.8067 8.83699C47.711 8.83699 47.4508 8.6916 47.7558 8.62927C47.8067 8.83704 48.5633 8.48035 48.7098 8.68811C49.0059 8.66041 49.9658 8.68809 49.6429 8.40414C49.8073 8.54611 50.6627 8.60149 50.1543 8.72269C50.4444 8.72961 50.7225 8.77124 50.9318 8.70891L50.561 8.62927C51.5389 8.58772 52.0712 8.8058 52.7052 8.54955L52.3434 8.4388C52.9265 8.42149 53.417 8.39723 53.6442 8.67771L53.0461 8.76428C54.0151 8.75736 54.5982 8.73658 55.4057 8.58768L55.1186 8.58075C56.1474 8.30026 61.5274 8.06479 62.4724 7.71505L62.0358 7.50041L62.8492 7.31687C62.7535 7.31687 62.4575 8.01975 62.3767 7.9505C64.1232 7.92972 73.2056 7.75315 74.8175 7.89859C75.4694 8.01633 74.9341 8.24144 74.9282 8.27606C75.7207 8.19296 75.2691 8.04748 75.942 8.0648C76.1244 8.10289 75.9031 8.2345 75.8014 8.26566C76.0975 8.24143 76.3696 8.31409 76.3935 8.21367C76.0257 8.13403 76.1812 7.86739 76.0257 7.69079L76.8929 7.71159L76.8541 7.88126C77.0485 7.88472 77.3446 7.41722 78.1939 7.50725C79.6293 7.57997 81.1874 7.51769 82.6319 7.55578C82.6109 7.6562 82.3059 7.71849 82.0039 7.77736C82.1982 7.78082 82.4913 7.75663 82.6708 7.82935C82.3209 7.64929 83.2748 7.70813 83.0027 7.63195C84.0584 7.21642 85.428 7.59388 86.3611 7.30994C86.4419 6.93596 88.3558 0.900343 88.3558 0.457109C88.6459 0.464034 88.933 0.470926 89.0227 0.509017C88.948 0.405134 88.3797 0.356648 88.0747 0.415515L88.0239 0.65451C87.3271 0.737617 87.8594 0.5125 87.1805 0.529813C87.1446 0.335899 87.7697 0.294349 88.3199 0.273572C87.8235 0.252795 87.3301 0.110785 87.1267 0.322014C86.6602 0.24237 87.1775 0.0831064 86.6183 0C86.2176 0.058867 85.6942 0.249367 85.2337 0.135095L85.2426 0.100434C84.1272 -0.100407 83.535 0.398245 82.5122 0.200868L82.6229 0.135095C82.261 0.0242867 81.5523 0.173192 80.9003 0.0554584C81.0857 0.0935488 81.2472 0.235468 80.8555 0.259708C80.1078 0.138511 79.5964 0.259731 79.0492 0.110832L78.5258 0.301301C75.921 0.266674 65.6335 0.547175 63.0167 0.57834L63.1184 0.547144C59.132 0.647564 50.9468 0.637186 46.8288 0.903819C46.1918 0.71683 45.3125 0.761826 44.6486 0.709884C45.0195 0.786065 44.8908 0.921143 44.6038 0.914218C42.5791 0.893441 44.4662 1.04229 42.4177 1.1254C40.0581 1.302 31.0295 1.11155 28.9361 0.952261C27.8117 1.22928 26.4061 1.0215 25.3056 1.1981L25.4162 1.13233C24.232 1.23621 17.5331 0.986936 16.1574 1.08736L16.3429 1.1254C15.1436 1.29854 15.3081 0.997314 14.3601 0.903819C14.4857 1.21201 13.457 1.39206 13.0652 1.41284L13.0802 1.3436C12.488 1.39554 11.1512 1.66557 10.1733 1.71059L10.2122 1.54091C9.39875 1.72444 7.86758 1.6483 7.28143 1.66908C5.94464 1.59982 3.87816 1.30544 2.0898 1.53398L0.932452 1.05269L0.761987 1.10114C0.761987 1.10114 -1.09516 6.93943 1.26739 8.18256L1.22852 8.35223L1.69504 8.33144C2.25428 8.41454 2.51446 8.21714 2.47558 8.38681L1.707 8.3661C2.26923 8.41458 1.87747 8.50459 1.66215 8.60154C1.89841 8.61886 2.12569 8.63617 2.31409 8.68811C2.42475 8.62232 2.23335 8.61884 2.14363 8.58075C2.44568 8.52188 2.86736 8.36262 3.23819 8.4388C3.81537 8.45265 3.27407 8.71231 3.94695 8.72962C7.49676 8.85774 10.9359 9.05168 14.5246 9.01013C14.6053 9.07938 14.5096 9.07939 14.405 9.11056C15.4846 9.03784 16.4475 9.06204 17.4314 8.98586C17.7036 9.06204 17.7784 9.166 17.8591 9.23526C17.6976 9.09328 23.293 9.07594 23.3827 9.11403V9.12096Z" fill="#43C554"/>
</g>
</svg>
