<svg width="43" height="67" viewBox="0 0 43 67" fill="none" xmlns="http://www.w3.org/2000/svg">
<path d="M0.632202 55.1924C0.716932 55.2545 0.804944 55.1095 0.778873 55.1337C0.752803 55.075 0.658273 55.1855 0.632202 55.1924Z" fill="white"/>
<path d="M2.04773 57.1556C2.02751 57.2639 1.98033 57.0762 2.04773 57.1556Z" fill="white"/>
<path d="M2.75686 58.2267C2.79923 58.2026 2.83507 58.1064 2.87744 58.0548L2.77317 58.0135C2.77317 58.0754 2.809 58.1717 2.7536 58.2267H2.75686Z" fill="white"/>
<path d="M2.88062 58.0551L3.03381 58.1172C2.96537 58.0067 2.91646 58.0136 2.88062 58.0551Z" fill="white"/>
<path d="M3.08597 58.6736L2.94586 58.6841L3.1707 58.6876L3.08597 58.6736Z" fill="white"/>
<path d="M3.32057 58.9553C3.20977 58.969 3.24562 59.1268 3.16089 59.1131C3.23258 59.1817 3.34991 59.1988 3.45419 59.2125C3.37272 59.1748 3.33035 59.0959 3.32383 58.9553H3.32057Z" fill="white"/>
<path d="M3.61409 59.2477C3.57172 59.2303 3.51307 59.2232 3.45441 59.2128C3.49677 59.2337 3.54891 59.2477 3.61409 59.2477Z" fill="white"/>
<path d="M3.11869 58.5152L3.19368 58.3779C3.19368 58.3779 3.17083 58.347 3.16106 58.3298C3.14476 58.3573 3.09588 58.426 3.11869 58.5118V58.5152Z" fill="white"/>
<path d="M3.19696 58.3745C3.22976 58.4337 3.25599 58.4686 3.26583 58.486C3.25599 58.472 3.23629 58.4407 3.2002 58.3745H3.19696Z" fill="white"/>
<path d="M3.15466 58.3198L3.16593 58.3319C3.16593 58.3319 3.17727 58.3077 3.15466 58.3198Z" fill="white"/>
<path d="M3.07306 58.0792L3.24901 58.148L3.18059 58.0034C3.15452 58.0309 3.12846 58.0861 3.07306 58.0792Z" fill="white"/>
<path d="M3.32945 58.1828L3.24921 58.1477L3.27264 58.204L3.32945 58.1828Z" fill="white"/>
<path d="M3.55876 58.9516C3.64675 58.9653 3.69236 59.0202 3.75102 59.0785C3.71844 58.9894 3.67607 58.9071 3.62392 58.8385C3.58156 58.8556 3.49685 58.8762 3.55876 58.9516Z" fill="white"/>
<path d="M3.39258 58.6644L3.41144 58.6725C3.41144 58.6725 3.41147 58.6442 3.39258 58.6644Z" fill="white"/>
<path d="M4.23381 59.7306C4.23381 59.7306 4.24424 59.7121 4.24771 59.7009L4.22687 59.7158L4.23729 59.7306H4.23381Z" fill="white"/>
<path d="M3.63354 58.8115C3.61399 58.7389 3.5651 58.732 3.5097 58.7285C3.54881 58.7597 3.58791 58.7943 3.62376 58.8392C3.64331 58.8323 3.6531 58.8219 3.6368 58.8115H3.63354Z" fill="white"/>
<path d="M3.80004 59.385C3.80004 59.3369 3.80003 59.2922 3.79025 59.244C3.77722 59.2991 3.76419 59.3988 3.80004 59.385Z" fill="white"/>
<path d="M3.39055 58.7112H3.37977C3.36899 58.7497 3.37978 58.7343 3.39055 58.7112Z" fill="white"/>
<path d="M3.3894 58.711C3.42525 58.7248 3.46761 58.7248 3.50998 58.7248C3.47739 58.7008 3.44152 58.6802 3.40567 58.6665C3.40567 58.6802 3.39592 58.6973 3.3894 58.7076V58.711Z" fill="white"/>
<path d="M4.08337 59.4603L4.03448 59.4191C4.06055 59.4911 4.05077 59.5665 4.02795 59.7071C4.13875 59.7483 4.19089 59.7346 4.23 59.714L4.06053 59.4568H4.08989L4.08337 59.4603Z" fill="white"/>
<path d="M4.19731 59.7972L4.06042 59.8695L4.31136 59.8454L4.19731 59.7972Z" fill="white"/>
<path d="M4.29517 60.1206L4.40595 60.1379L4.40269 60.0447L4.29517 60.1206Z" fill="white"/>
<path d="M10.2816 64.5707C10.4576 64.5432 10.7248 64.5089 10.6075 64.4195L10.4771 64.3542C10.4185 64.4711 10.3501 64.5363 10.2849 64.5707H10.2816Z" fill="white"/>
<path d="M6.41681 62.6531C6.42659 62.7629 6.45268 62.8349 6.48527 62.8898C6.48527 62.7492 6.52435 62.5983 6.41681 62.6531Z" fill="white"/>
<path d="M16.9087 55.7955C16.9153 55.7425 16.8919 55.7213 16.8484 55.7284C16.8384 55.7814 16.8518 55.8132 16.9087 55.7955Z" fill="white"/>
<path d="M6.48511 62.8937C6.48511 62.9968 6.51443 63.0964 6.64479 63.1067C6.64479 63.0861 6.64479 63.0689 6.64479 63.0449C6.58613 63.0071 6.53073 62.9658 6.48837 62.8937H6.48511Z" fill="white"/>
<path d="M2.2323 53.9275C2.26163 53.917 2.30725 53.917 2.35287 53.917C2.33006 53.9066 2.29422 53.9066 2.2323 53.9275Z" fill="white"/>
<path d="M5.13108 61.1255C5.11026 61.1255 5.07904 61.0735 5.13108 61.1255Z" fill="white"/>
<path d="M5.11963 61.0001C5.11963 61.0314 5.12621 61.0661 5.13933 61.0974C5.13933 61.0801 5.13275 61.0488 5.11963 61.0001Z" fill="white"/>
<path d="M5.07405 61.0553C5.06421 61.0311 5.05767 61.0139 5.04783 60.9966C5.02486 61.0035 5.01829 61.0207 5.07405 61.0553Z" fill="white"/>
<path d="M5.19179 61.1973C5.16555 61.166 5.14913 61.1347 5.13601 61.0964C5.13601 61.1138 5.136 61.1243 5.12616 61.1243C5.13928 61.1382 5.15898 61.1591 5.18851 61.1973H5.19179Z" fill="white"/>
<path d="M17.6335 54.0719L17.7443 54.0204C17.4249 53.9826 17.086 54.1063 16.7895 54.23C16.7634 54.1957 16.8905 54.1442 16.9361 54.1201C16.5711 54.0101 16.4147 54.0342 15.7662 54.2885L15.877 54.1201C15.776 54.1682 15.6521 54.1029 15.4403 54.0445C15.235 53.9895 14.9254 53.9449 14.6354 54.0445C14.6452 54.0239 14.6647 53.9929 14.7136 53.9688C14.5474 54.0169 14.391 54.0135 14.2215 53.986C14.1042 53.9585 13.9967 53.9138 13.8924 53.8795C13.6838 53.8107 13.5078 53.7971 13.4329 54.1063L13.1689 54.2575C13.5111 54.3091 13.1168 54.5256 13.2569 54.6287C13.1233 54.6631 12.9115 54.4397 13.0744 54.4087L13.1005 54.4397C13.1624 54.1166 12.6768 54.3229 12.6866 54.1029C12.012 54.1132 11.357 53.9311 10.7281 53.9104L10.7997 54.1613L10.5814 54.1441C10.5227 54.0857 10.5064 53.9483 10.6629 53.9586C10.5814 53.8143 10.3989 54.0754 10.3957 54.1304C10.0893 54.0273 10.5162 53.8383 10.425 53.8314L10.2979 53.8486L10.3272 53.8795C10.2229 53.9826 10.2132 54.0891 10.0241 54.0754C9.90357 54.0238 9.9655 53.9207 9.91662 53.9104C9.91662 53.8933 9.90029 53.8829 9.84489 53.9036L9.5679 53.8795L9.66895 54.0616C9.5777 54.1063 9.3072 54.0754 9.0465 54.0891C8.78253 54.0754 8.51204 54.1063 8.42079 54.0616L8.52183 53.8795L8.24484 53.9036C8.18944 53.8864 8.17312 53.8933 8.17312 53.9104C8.12749 53.9207 8.18617 54.0238 8.06559 54.0754C7.87658 54.0891 7.86678 53.9791 7.7625 53.8795L7.79186 53.8486L7.66476 53.8314C7.57025 53.8383 8.00041 54.0273 7.69408 54.1304C7.69082 54.0754 7.50834 53.8143 7.42361 53.9586C7.53441 53.9517 7.55721 54.017 7.53766 54.0788C7.46923 54.0582 7.39427 54.0341 7.33562 53.9757L7.35515 53.9104C7.3356 53.9104 7.31606 53.9139 7.29651 53.9139C7.28674 53.9001 7.27697 53.8899 7.27046 53.8761C7.28023 53.8899 7.28347 53.9036 7.28673 53.9173C7.01624 53.9311 6.7425 53.9689 6.4655 54.0067C6.19501 53.9792 5.89849 53.8554 5.59542 53.8932C5.5889 53.9448 5.63452 54.017 5.59542 54.0926C5.57586 54.0926 5.55303 54.0926 5.53348 54.0926L5.33143 53.8314C5.24344 53.8589 5.24671 54.1785 5.09028 53.9688C5.11309 54.0204 5.14568 54.096 5.08702 54.1167C4.93385 54.0651 4.77745 54.0376 4.62103 54.0239C4.5363 53.7971 4.37333 53.8143 4.18758 53.8727C4.0833 53.907 3.97575 53.9517 3.85844 53.9792C3.68898 54.0066 3.53255 54.0101 3.36635 53.962C3.41523 53.9861 3.43478 54.017 3.44456 54.0376C3.26532 53.9758 3.07957 53.9723 2.91337 53.9929C2.75043 53.9517 2.58423 53.8864 2.42455 53.7833C2.54512 53.9002 2.46368 53.9139 2.37243 53.9173C2.42457 53.9414 2.38548 54.0411 2.38222 54.1201C2.36918 54.1235 2.35611 54.1236 2.34308 54.127L2.01071 53.9208C1.95531 54.1029 1.73695 54.0032 1.62941 54.0685C1.46321 54.0445 1.33287 54.0686 1.15037 54.1201C1.196 54.1476 1.32308 54.1957 1.29701 54.23C1.00045 54.1063 0.661557 53.9826 0.342192 54.0204L0.452981 54.0719L0 54.0547L0.0847326 54.1785C0.593109 54.4225 0.567024 54.5187 0.599612 54.6768C0.625683 54.828 0.716925 55.0583 1.20575 55.2405C1.02651 55.2508 1.21556 55.5772 1.24163 55.725C1.27096 55.7284 1.31006 55.7421 1.36221 55.7696C1.24489 55.8418 1.38826 55.993 1.5512 56.1236C1.72066 56.2576 1.90968 56.371 1.96508 56.4673C1.99115 56.6116 1.86732 56.5875 1.72719 56.5497C1.94553 56.6597 2.02048 56.8522 2.08892 57.0687C2.09869 57.0996 2.10846 57.1305 2.11824 57.1615C2.1052 57.1512 2.0889 57.1409 2.07261 57.1237C2.07261 57.1409 2.06934 57.1443 2.06608 57.1546C2.07912 57.1718 2.09542 57.1924 2.11824 57.2336C2.12475 57.2268 2.12803 57.2199 2.13455 57.2165C2.15084 57.2715 2.1671 57.323 2.1834 57.3677C2.19643 57.4021 2.2095 57.433 2.21928 57.4571C2.22254 57.4639 2.22903 57.4639 2.23555 57.4674C2.23555 57.5224 2.2649 57.591 2.21928 57.5842C2.33008 57.6598 2.35615 57.6082 2.37896 57.4983C2.40829 57.4776 2.44084 57.4467 2.47017 57.4192L2.52233 57.4433C2.53862 57.4089 2.57449 57.3712 2.49953 57.3952C2.51583 57.3815 2.53209 57.3711 2.55164 57.3643C2.5712 57.4021 2.57121 57.4364 2.56143 57.4639L2.51906 57.4433C2.50929 57.4639 2.5158 57.4777 2.55491 57.4777C2.49951 57.6083 2.24533 57.6563 2.52559 57.756C2.51907 57.7113 2.48974 57.6461 2.52885 57.6461C2.61684 57.7045 3.01117 57.5808 3.1513 57.6255C3.09264 57.6633 3.06655 57.7354 2.93294 57.7114C2.98834 57.7182 3.05679 57.7458 3.10893 57.7423C3.16759 57.8282 3.30117 57.8557 3.40546 57.8901C3.39894 57.9348 3.39244 57.9726 3.38266 57.9966C3.40547 57.9657 3.42178 57.9313 3.44134 57.9004C3.53258 57.9313 3.58147 57.9726 3.48044 58.0791L3.34682 58.165C3.7444 58.3334 3.39895 58.3368 3.78023 58.5258L3.79654 58.5052C3.87801 58.6599 4.08655 58.6049 3.93991 58.8386L3.87801 58.8145C3.93015 58.897 3.96273 58.9382 3.99532 58.9795C3.97577 58.9795 3.9562 58.9795 3.93665 58.9691C4.14195 59.1856 3.82258 58.952 3.89102 59.1754C3.83888 59.1444 3.79981 59.1066 3.76722 59.0723C3.78677 59.1272 3.79977 59.1822 3.80955 59.2372V59.2269C3.81606 59.2028 3.82259 59.1925 3.82259 59.2131C3.82259 59.2131 3.82586 59.2131 3.82912 59.2131C3.84541 59.2028 3.86171 59.196 3.87801 59.1891C3.90734 59.2785 3.85845 59.2234 3.82912 59.2131C3.8226 59.2166 3.81606 59.22 3.80955 59.2234L4.04747 59.4125C4.02466 59.3506 3.97577 59.2888 3.87801 59.1857C3.97577 59.1513 4.07026 59.1753 4.13869 59.141C4.14521 59.1478 4.14849 59.1547 4.15826 59.1616C4.155 59.196 4.19086 59.3059 4.24952 59.2956C4.17131 59.3678 4.22995 59.4812 4.31142 59.5878C4.29186 59.6256 4.2723 59.6599 4.25927 59.6943C4.28859 59.6737 4.32122 59.653 4.37662 59.6599C4.44831 59.7355 4.51997 59.7974 4.54604 59.8249C4.46457 59.6702 4.58516 59.6737 4.67967 59.6565C4.60797 59.8489 4.63732 59.9177 4.81655 59.9452C4.75138 60.0105 4.68292 60.0792 4.63078 60.148C4.61448 60.1273 4.60471 60.1067 4.59493 60.0826C4.51998 60.2269 4.57866 60.172 4.5754 60.2339C4.51674 60.3404 4.50368 60.4504 4.58515 60.5672C4.58841 60.5088 4.56559 60.44 4.62425 60.4263C4.68291 60.4125 4.6764 60.5019 4.67314 60.5328C4.71877 60.5225 4.71877 60.4606 4.75788 60.4159C4.76765 60.4297 4.77742 60.4435 4.78719 60.4572C4.77416 60.5947 4.84261 60.6497 4.92408 60.7184C4.94363 60.7803 4.95993 60.8456 4.92734 60.9762C4.97622 60.9281 4.98927 60.8421 5.0577 60.9899C5.07725 60.983 5.10657 60.9796 5.12286 60.9796C5.12286 60.9865 5.12286 60.9865 5.12286 60.9899V60.9762C5.12286 60.9762 5.13916 60.9762 5.12286 60.9727C5.12286 60.9246 5.13267 60.8765 5.15222 60.8421C5.17177 60.8387 5.19457 60.8387 5.21412 60.8421C5.13591 60.9933 5.6443 60.9315 5.31516 61.0896C5.40967 61.1411 5.49438 61.2133 5.57911 61.2923C5.54978 61.3954 5.53998 61.4882 5.39985 61.4057L5.51394 61.5707C5.52046 61.7185 5.59214 61.8697 5.69968 61.9109C5.73227 62.0071 5.97017 61.9968 5.83004 62.0072L6.09072 62.1996L6.06467 62.2271C6.23738 62.4882 6.63823 62.5811 6.64475 63.0416C6.73599 63.1 6.837 63.1585 6.90869 63.3268L6.83048 63.4368C6.94454 63.5158 6.97387 63.8423 7.11074 63.8045C7.02275 63.9798 7.09448 64.1069 7.22809 64.2547C7.43665 64.5056 7.67127 64.7324 7.78207 64.9317L7.88308 64.784C8.04276 65.0142 8.22854 65.1826 8.44362 65.3579L8.45989 65.2479C8.49574 65.32 8.53162 65.3991 8.57072 65.4815C8.70433 65.7668 8.87376 66.0898 9.02693 66.1036C9.02693 66.1036 9.02693 66.1036 9.02693 66.107C9.03019 66.107 9.03345 66.107 9.03671 66.107C9.03997 66.107 9.04324 66.107 9.0465 66.107C9.0465 66.107 9.0465 66.107 9.0465 66.1036C9.19966 66.0864 9.36913 65.7633 9.50274 65.4815C9.64939 65.1757 9.75693 64.9111 9.94594 64.8596C9.99156 64.7084 10.0502 64.6671 10.1187 64.6361C10.1121 64.6464 10.1089 64.6568 10.1056 64.6671C10.1154 64.6602 10.1252 64.6464 10.1349 64.6293C10.1806 64.6121 10.2295 64.5949 10.2816 64.5674C10.2295 64.5777 10.1838 64.5881 10.1512 64.6053C10.2034 64.5297 10.2783 64.4025 10.3337 64.2685L10.4739 64.3475C10.4739 64.3475 10.4836 64.3303 10.4901 64.32C10.6172 64.2513 10.5032 64.1791 10.3761 64.1447C10.3989 64.0726 10.4087 64.0072 10.4087 63.9454C10.6661 64.0347 10.4836 63.7048 10.7541 63.8045C10.6857 63.6705 10.9366 63.399 10.7509 63.179C10.7802 63.1996 10.8095 63.1928 10.7834 63.2306C10.8649 63.1756 10.9496 63.1206 10.9399 63.0037L11.1191 63.1034L11.0376 62.7598C11.2104 62.7391 11.2951 62.746 11.3375 62.9453C11.3375 62.5501 11.4189 62.691 11.3928 62.3336L11.4841 62.4298C11.5362 62.3542 11.4906 62.124 11.6079 62.148C11.924 62.148 12.2532 61.3645 12.7518 61.0964C12.3933 60.9246 13.032 61.014 12.8169 60.8043C12.9049 60.8387 12.9897 60.8146 12.9995 60.9349C13.094 60.6634 13.3579 60.7081 13.2764 60.3954C13.3644 60.4298 13.3449 60.5294 13.4035 60.5431C13.4035 60.5122 13.3938 60.4228 13.4524 60.4366C13.5111 60.4503 13.4883 60.5191 13.4915 60.5775C13.648 60.3507 13.4491 60.1445 13.2601 59.9555C13.4394 59.928 13.4687 59.8592 13.397 59.6668C13.4915 59.684 13.6121 59.6805 13.5306 59.8352C13.5991 59.7664 13.9836 59.4503 13.8304 59.3059C13.8891 59.3162 13.9249 59.2097 13.9217 59.1719C14.0618 59.0104 14.0879 59.007 14.2019 58.8248L14.14 58.8489C13.9967 58.6152 14.2052 58.6702 14.2834 58.5156L14.2997 58.5361C14.6777 58.3471 14.3356 58.3437 14.7331 58.1753L14.5995 58.0893C14.3617 57.8385 14.9613 57.9485 15.0004 57.6873H14.8831C14.8668 57.5189 15.4468 57.7251 15.5544 57.653C15.5935 57.653 15.5641 57.7182 15.5576 57.7629C15.9096 57.6392 15.424 57.5945 15.5316 57.3711C15.6456 57.4089 15.714 57.6013 15.8281 57.4879C15.8444 57.4879 15.8542 57.4777 15.864 57.4605C15.8737 57.4364 15.8868 57.4055 15.8998 57.3711C15.9324 57.2852 15.9617 57.1752 15.9976 57.0721C16.066 56.8556 16.1409 56.6632 16.3593 56.5532C16.2192 56.5944 16.0921 56.615 16.1214 56.4707C16.1768 56.371 16.3658 56.2611 16.5353 56.127C16.7015 55.9965 16.8416 55.8487 16.7243 55.7731C16.7764 55.7456 16.8155 55.7319 16.8448 55.7284C16.8677 55.5807 17.06 55.2576 16.8807 55.2439C17.3695 55.0583 17.4608 54.8314 17.4869 54.6802C17.5162 54.5222 17.4934 54.4259 18.0017 54.1819L18.0865 54.0582L17.6335 54.0754V54.0719ZM4.98275 59.7389C4.98601 59.7183 4.98924 59.6908 4.9925 59.6668C4.9534 59.7596 4.91432 59.8283 4.86544 59.8249L4.79698 59.574C4.8589 59.5774 4.93059 59.5912 4.99902 59.5809C4.99902 59.6084 4.99576 59.6393 4.9925 59.6668C5.00554 59.6393 5.01861 59.6084 5.02838 59.5774C5.04794 59.574 5.06747 59.5637 5.08702 59.5534L5.15222 59.6393C5.10986 59.708 5.05771 59.7527 4.98275 59.7355V59.7389ZM5.82352 60.5397C5.82352 60.5397 5.81699 60.5431 5.81373 60.5466C5.81047 60.5363 5.80398 60.5225 5.80072 60.5122L5.82352 60.5431V60.5397ZM8.55115 64.1962L8.58047 64.2375C8.57069 64.2719 8.55767 64.3063 8.54789 64.3406C8.54789 64.2925 8.54789 64.2444 8.54789 64.1997L8.55115 64.1962ZM9.48643 64.241L9.51575 64.2031C9.51575 64.2444 9.51575 64.2856 9.51575 64.3269C9.50597 64.2994 9.49621 64.2684 9.48969 64.2375L9.48643 64.241ZM3.18062 57.6873C3.18062 57.6873 3.18062 57.6838 3.18062 57.6804C3.18062 57.6804 3.18062 57.6804 3.18062 57.6873ZM5.67689 61.6394C5.67689 61.6394 5.68337 61.6394 5.68663 61.6394C5.70618 61.77 5.6997 61.7219 5.67689 61.6394ZM9.06603 66.0452C9.06603 66.0452 9.07256 66.028 9.07582 66.0177L9.06281 66.0521C9.06281 66.0521 9.04649 66.0726 9.03671 66.0795C9.02694 66.0726 9.01717 66.0624 9.01066 66.0521L8.99761 66.0177C8.99761 66.0177 9.00414 66.0349 9.00739 66.0452C8.98132 66.0143 8.95524 65.973 8.94872 65.9146C8.95524 65.9249 8.96503 65.9352 8.97155 65.9455C8.99111 65.9764 9.00737 66.0108 9.02693 66.0383C9.03019 66.0349 9.03345 66.028 9.03671 66.0245C9.03997 66.028 9.04324 66.0349 9.0465 66.0383C9.06605 66.0074 9.08236 65.9764 9.10191 65.9455C9.10843 65.9352 9.11819 65.9283 9.12471 65.9146C9.11819 65.973 9.0921 66.0143 9.06603 66.0452ZM9.884 53.9723L9.92637 54.017C9.8286 54.0651 9.85467 54.0204 9.884 53.9723ZM10.803 62.5295L10.9073 62.3954L11.0311 62.722C10.9822 62.6636 10.8975 62.5983 10.803 62.533V62.5295ZM13.2048 59.8249C13.1591 59.8283 13.12 59.7596 13.0777 59.6668C13.0777 59.6943 13.0809 59.7183 13.0874 59.7389C13.0418 59.7493 13.0027 59.7321 12.9701 59.7046L13.0516 59.6015C13.0614 59.6221 13.0711 59.6462 13.0777 59.6668C13.0777 59.6393 13.0744 59.6049 13.0711 59.574L13.107 59.5259C13.1819 59.5328 13.2471 59.5362 13.283 59.5328L13.2015 59.8249H13.2048Z" fill="#A0D92A"/>
<path d="M4.65027 60.6014L4.77084 60.6942C4.72196 60.6427 4.735 60.598 4.73174 60.5533C4.70567 60.5808 4.6796 60.6358 4.65027 60.6014Z" fill="white"/>
<path d="M5.34774 61.2338C5.34774 61.1721 5.19783 61.3196 5.22064 61.2613C5.05444 61.3264 5.57585 61.3915 5.34774 61.2338Z" fill="white"/>
<path d="M1.74666 53.7383L1.61304 53.6628L1.69777 53.7829L1.74666 53.7383Z" fill="white"/>
<path d="M1.48902 53.9959L1.45971 53.7726L1.37823 53.9753C1.40756 53.965 1.46621 53.9478 1.48902 53.9959Z" fill="white"/>
<path d="M1.16031 55.7954C1.21716 55.8095 1.23051 55.7813 1.22048 55.7284C1.17367 55.7213 1.15028 55.7425 1.16031 55.7954Z" fill="white"/>
<path d="M13.3385 1.79443L13.3686 1.8758C13.3686 1.83688 13.3586 1.80505 13.3385 1.79443Z" fill="#ACDE45"/>
<path d="M19.8984 1.79748C19.8984 1.79748 19.9024 1.78532 19.9065 1.77722C19.9024 1.78532 19.8984 1.78939 19.8984 1.79748Z" fill="#ACDE45"/>
<path d="M14.3987 4.51636C14.3987 4.51636 14.3948 4.53177 14.391 4.53947L14.3987 4.51636Z" fill="#ACDE45"/>
<path d="M13.1037 4.33395C13.4458 4.42331 13.5469 4.79794 13.889 4.63298C14.0552 4.66047 14.2312 4.56766 14.3942 4.51611C14.4659 4.21712 14.6092 4.50923 14.694 4.25836L14.7331 4.42675C14.7624 4.34083 14.7983 4.28244 14.8341 4.37179V4.41987C14.8765 4.29272 14.9319 4.36837 14.9547 4.30308V4.35115L15.0101 4.32707L15.0003 4.39579C15.0818 4.25833 15.1665 4.24802 15.2415 4.30987L15.2317 4.10717C15.3946 4.33398 15.45 3.90783 15.5967 4.17932V4.2274C15.7726 3.68785 15.8867 4.5917 16.0724 4.07965C16.0496 4.14494 16.0822 4.18273 16.0822 4.23428C16.1669 4.17586 16.2615 4.14495 16.2615 3.7463C16.3234 3.75318 16.3136 3.87004 16.3201 4.02469C16.3201 3.84942 16.3755 3.77725 16.4244 3.76694L16.4016 3.83566L16.545 3.77726L16.5189 3.44728C16.5938 3.5435 16.5385 3.84943 16.6101 3.77038V3.49544C16.7144 3.55042 16.7731 3.96624 16.8741 4.169C17.288 4.28929 17.7475 3.59509 18.1255 4.08653L18.1386 4.29276C18.1386 4.59518 18.2559 3.84944 18.2624 4.12781L18.3112 3.99029C18.3243 4.04528 18.3471 4.10371 18.3243 4.169C18.3667 4.18275 18.3667 4.13124 18.3992 4.04189L18.4383 4.23084C18.598 4.37861 18.748 4.02468 18.9174 4.10373C19.113 4.49207 19.5138 4.15522 19.7484 3.96277C20.0873 3.52976 20.3969 4.74292 20.7424 4.25148C20.7489 4.29616 20.7815 4.19993 20.7847 4.16556L21.078 4.2274C21.078 4.2274 21.4332 4.28243 21.6744 4.01437C21.9123 3.74975 22.0556 3.1621 21.5766 1.8768L21.5896 1.81152C21.4332 1.63969 21.3289 1.59839 21.1921 1.918C21.1986 1.51247 21.0585 1.86644 21.0259 1.73584L21.0324 1.70153C20.9118 2.00395 20.8368 1.43003 20.7228 1.70153C20.7293 1.6706 20.7358 1.56065 20.7586 1.55378C20.6837 1.59845 20.5827 1.68435 20.5892 1.45066C20.4132 1.50221 20.1786 1.38188 20.0515 1.7496L20.0613 1.68433C19.9863 1.9352 19.9798 1.71868 19.9048 1.8424C19.9048 1.81147 19.8983 1.79431 19.8983 1.784C19.8201 2.03144 19.6995 1.8149 19.6376 1.918V1.76336L19.504 1.79432L19.5529 1.82864C19.5203 2.25822 19.4616 1.55371 19.3508 1.82864C19.2596 1.77022 19.1357 2.71528 19.0477 2.50221C18.9956 2.70153 19.0966 2.17573 19.0249 2.33037C19.0282 2.10699 19.0608 2.1895 19.0477 2.01079C18.9793 2.11389 18.9467 1.7771 18.8587 1.92832V1.75304C18.7447 2.06921 18.6632 1.5159 18.585 1.81832C18.471 1.95922 18.5231 1.29946 18.3992 1.63625L18.3601 1.39906C18.3113 1.36126 18.3178 1.68774 18.2657 1.57089C18.2722 1.42312 18.1972 1.45061 18.233 1.30971C18.1125 1.07258 17.9756 1.63276 17.8159 1.23755C17.7768 1.52623 17.6953 1.35438 17.666 1.57089C17.666 1.44374 17.4998 1.54688 17.5976 1.27539C17.6074 1.25477 17.6204 1.25815 17.6172 1.30627L17.6302 1.13443C17.5422 0.807954 17.4575 1.30974 17.3662 1.25819C17.3923 1.31661 17.4281 1.29942 17.4053 1.4197L17.3206 1.39562L17.3401 1.25131L17.213 1.16539L17.2293 1.34411C17.1674 1.25132 17.1479 0.94892 17.0762 1.19979C17.0436 1.3407 17.1348 1.44031 17.0664 1.4953C16.9849 1.37158 16.8578 1.18942 16.7536 1.13443C16.7633 1.3372 16.734 1.32695 16.7047 1.36819V1.19291C16.5873 1.43691 16.6623 0.807991 16.5482 1.00044L16.558 0.880127L16.5287 1.24443C16.4277 1.59153 16.4733 0.883607 16.3625 1.35443C16.4081 1.3235 16.382 1.73929 16.3299 1.66369L16.3429 1.4953C16.3136 1.52966 16.3038 1.60182 16.281 1.56745C16.3006 1.4781 16.2908 1.32349 16.2452 1.35099L16.2745 1.14131L16.1898 1.45066C16.1246 1.26852 16.0203 1.49875 15.9942 1.25819C15.9942 1.25819 15.8541 1.14132 15.8215 1.4025C15.8476 1.24098 15.7726 1.17914 15.7922 0.990123C15.7563 1.17226 15.6521 1.32344 15.6064 1.12755L15.613 1.107C15.4533 0.907674 15.3425 1.38188 15.1991 1.14131C15.2089 1.34408 15.1307 1.23411 15.1535 1.49186C15.0101 1.7496 14.8765 0.96951 14.8374 1.77024C14.7722 1.81492 14.7559 1.5847 14.7201 1.54346L14.7363 1.50218C14.6125 1.57091 14.5766 1.57776 14.4821 1.56057C14.4365 1.63961 14.4365 2.01079 14.3518 1.92488C14.3746 1.7771 14.342 1.80464 14.3127 1.80464C14.3323 1.78059 14.3355 1.7256 14.2931 1.62937C14.2899 1.67405 14.2801 1.70499 14.2736 1.72561C14.2736 1.7153 14.2736 1.70495 14.2736 1.68777C14.2215 1.74275 14.2345 1.78746 14.2573 1.80808C14.2573 1.83214 14.2573 1.85956 14.2671 1.9008C14.2084 1.71178 14.1172 1.918 14.1041 1.66369C13.951 1.72555 13.8434 1.9936 13.7163 2.09327C13.6968 1.96267 13.7261 1.84587 13.7619 1.79432L13.6707 1.84584C13.6674 1.65682 13.7196 1.73589 13.7489 1.69809C13.6316 1.39566 13.5306 2.00733 13.3937 1.7324L13.3709 1.88024L13.3611 1.85616C13.3611 1.9352 13.3383 2.04178 13.3187 2.06927C13.2959 1.90775 13.309 1.69122 13.2471 1.70497C13.1917 1.55032 13.1069 1.78745 13.045 1.88024C13.0809 1.90773 13.0743 1.99709 13.058 2.05551C13.0254 2.06238 13.0026 1.90086 12.9798 1.96959L12.9701 1.7496C12.9896 1.9558 12.8951 1.97648 12.8853 2.06927C12.8625 1.90775 12.9309 1.92492 12.9342 1.8012C12.8071 1.82526 12.8723 1.8149 12.7452 1.83896C12.6833 2.00735 12.7647 2.04865 12.7387 2.2411C12.68 2.28578 12.6279 2.44385 12.5529 2.31326L12.5822 2.50909C12.4747 2.66373 12.4095 2.64658 12.3248 2.45069C11.9402 3.26861 11.9207 3.81502 11.9957 4.15868C12.0706 4.50235 12.2368 4.63986 12.2368 4.63986C12.5757 5.05913 12.7191 4.48171 13.1004 4.31331L13.1037 4.33395Z" fill="#ACDE45"/>
<path d="M30.1349 3.32361L30.1421 3.41215C30.1528 3.37319 30.1528 3.34132 30.1349 3.32361Z" fill="#ACDE45"/>
<path d="M36.385 6.04719C36.385 6.04719 36.3963 6.03908 36.4039 6.03503C36.3963 6.03503 36.3926 6.04314 36.385 6.04719Z" fill="#ACDE45"/>
<path d="M30.3682 6.25171C30.3682 6.25171 30.3606 6.26387 30.3531 6.27197L30.3682 6.25171Z" fill="#ACDE45"/>
<path d="M29.2286 5.6878C29.5252 5.8665 29.5089 6.26516 29.8707 6.20673C30.0173 6.2789 30.1998 6.25146 30.3627 6.25489C30.5159 5.99371 30.5615 6.3099 30.7147 6.1037L30.6984 6.27553C30.7505 6.20336 30.8027 6.16211 30.8059 6.25833L30.7896 6.30297C30.8711 6.19643 30.8972 6.2858 30.9363 6.23081L30.92 6.27553H30.9787L30.9493 6.33737C31.0634 6.23427 31.1448 6.25489 31.1937 6.33737L31.2491 6.14146C31.3241 6.40951 31.5098 6.0315 31.5554 6.33393L31.5392 6.37856C31.8781 5.93524 31.6793 6.81848 32.0149 6.40952C31.9726 6.46107 31.9889 6.5126 31.9693 6.55728C32.0671 6.53322 32.1583 6.54013 32.2985 6.16554C32.3539 6.19303 32.3017 6.29959 32.2561 6.44736C32.3148 6.28241 32.3897 6.2377 32.4386 6.24457L32.393 6.29953H32.5429L32.6341 5.97995C32.67 6.09679 32.507 6.3614 32.6015 6.31673L32.6993 6.06242C32.7742 6.15521 32.6797 6.56077 32.6928 6.78759C33.0089 7.05221 33.6802 6.60889 33.8106 7.2206L33.7389 7.41299C33.6183 7.68449 34.0191 7.06245 33.9116 7.31676L34.0093 7.21372C33.9963 7.26871 33.9963 7.33057 33.9474 7.38212C33.9768 7.40961 33.9996 7.36837 34.0648 7.29964L34.0191 7.48515C34.0908 7.69135 34.3678 7.43705 34.4786 7.58482C34.4689 8.02128 34.9479 7.901 35.2314 7.85289C35.4693 7.74979 35.5182 7.99384 35.554 8.24127C35.5899 8.48871 35.6257 8.71546 35.8897 8.60205C35.8734 8.64329 35.9483 8.58147 35.9679 8.55398L36.1602 8.76365C36.1602 8.76365 36.2221 8.82201 36.3231 8.87012C36.4241 8.92167 36.5643 8.96296 36.7305 8.92516C36.8967 8.88736 37.0922 8.77396 37.291 8.5059C37.4865 8.23784 37.6918 7.81514 37.8352 7.13125L37.8808 7.08653C37.8417 6.83909 37.7668 6.73944 37.4767 6.92158C37.6951 6.58823 37.3855 6.79442 37.4278 6.66383L37.4507 6.63975C37.19 6.82189 37.4181 6.28585 37.1736 6.4508C37.1932 6.42675 37.2584 6.33738 37.2812 6.34769C37.19 6.34425 37.0563 6.35454 37.1769 6.15866C36.9944 6.0968 36.8348 5.85283 36.5415 6.1037L36.5806 6.0521C36.3948 6.22737 36.4893 6.03497 36.3622 6.1037C36.3752 6.07621 36.3785 6.05897 36.385 6.04866C36.1993 6.22049 36.1895 5.9628 36.0885 6.02123L36.1634 5.88715L36.0233 5.84251L36.0526 5.90091C35.8278 6.25832 36.0918 5.61222 35.8669 5.79779C35.8082 5.69813 35.277 6.46794 35.2933 6.23425C35.1597 6.38546 35.4791 5.96964 35.3487 6.0693C35.4497 5.87341 35.4432 5.96275 35.5084 5.79779C35.4009 5.85278 35.5149 5.54005 35.3715 5.6294L35.4465 5.47477C35.2053 5.69815 35.3618 5.16548 35.1597 5.39918C34.9968 5.47134 35.3194 4.90087 35.0619 5.14487L35.1206 4.91112C35.0913 4.85269 34.9642 5.1517 34.9609 5.02111C35.0294 4.89052 34.9446 4.88022 35.0359 4.77025C35.0131 4.49875 34.6611 4.94207 34.6676 4.50906C34.5177 4.75306 34.508 4.56059 34.3939 4.74617C34.4395 4.62932 34.244 4.65342 34.4428 4.44722C34.459 4.43004 34.4721 4.4403 34.4493 4.48498L34.5275 4.33379C34.5666 3.997 34.2929 4.41626 34.2244 4.33035C34.2277 4.39564 34.27 4.39907 34.2016 4.4953L34.1299 4.43346L34.2016 4.30971L34.1104 4.17228L34.0582 4.34411C34.0322 4.2307 34.1267 3.94199 33.9637 4.14476C33.879 4.2616 33.9311 4.3922 33.8464 4.41282C33.8106 4.26505 33.7584 4.04172 33.6737 3.94893C33.6118 4.13794 33.5857 4.1207 33.5434 4.14476L33.602 3.98324C33.4065 4.15851 33.6998 3.60867 33.5205 3.73926L33.5727 3.62926L33.413 3.95581C33.1914 4.23761 33.4847 3.59835 33.2109 3.99012C33.2631 3.97981 33.0969 4.35786 33.0708 4.26507L33.1425 4.11388C33.1001 4.1345 33.0675 4.19632 33.0578 4.15508C33.1066 4.07603 33.1523 3.93174 33.0969 3.93861L33.1979 3.75302L33.0089 4.00732C33.0089 3.81144 32.8297 3.98327 32.8851 3.74958C32.8851 3.74958 32.7873 3.5846 32.67 3.81829C32.7514 3.67739 32.696 3.59151 32.7775 3.41967C32.683 3.57776 32.5298 3.68083 32.5494 3.48151L32.5657 3.46431C32.4712 3.21687 32.2137 3.62244 32.1486 3.34064C32.0932 3.53653 32.0541 3.40591 31.9922 3.65678C31.7738 3.84923 31.8846 3.06566 31.5978 3.80797C31.5196 3.82516 31.575 3.60178 31.5522 3.55023L31.5815 3.51591C31.4381 3.53653 31.4023 3.52963 31.3143 3.48495C31.2459 3.54337 31.1351 3.89739 31.0797 3.78742C31.1481 3.65339 31.1057 3.67053 31.0764 3.66022C31.1025 3.64304 31.122 3.59492 31.109 3.48495C31.0894 3.52619 31.0732 3.55025 31.0601 3.57087C31.0601 3.56056 31.0634 3.55021 31.0699 3.53647C31.0047 3.57083 31.0015 3.61897 31.0178 3.64302C31.0112 3.66364 31.0047 3.69114 31.0015 3.73582C31.0015 3.53649 30.8515 3.70143 30.9135 3.45743C30.744 3.4643 30.5648 3.68427 30.4149 3.7427C30.4344 3.61211 30.4931 3.50899 30.5419 3.47119L30.4377 3.49183C30.4866 3.30969 30.5159 3.40245 30.555 3.37495C30.5224 3.05191 30.2552 3.60178 30.1998 3.29592L30.1379 3.43343V3.40591C30.1183 3.48152 30.0629 3.57776 30.0369 3.59495C30.0597 3.42999 30.1314 3.23063 30.0662 3.22032C30.0531 3.05537 29.9065 3.25815 29.8185 3.32688C29.8478 3.36468 29.8152 3.44716 29.7859 3.49871C29.7533 3.49871 29.7729 3.33374 29.7338 3.39559L29.7827 3.17913C29.7468 3.38532 29.649 3.37495 29.6165 3.46087C29.636 3.29591 29.6979 3.33717 29.7338 3.22032C29.6034 3.20658 29.6686 3.21343 29.5382 3.19968C29.434 3.34402 29.5024 3.40592 29.4275 3.58463C29.359 3.61212 29.2677 3.74616 29.2286 3.59839L29.2058 3.79421C29.0625 3.9145 29.0038 3.87674 28.9712 3.6671C28.3911 4.34412 28.2445 4.86993 28.2315 5.22046C28.2184 5.571 28.339 5.75316 28.339 5.75316C28.5475 6.24803 28.8278 5.72903 29.2254 5.68092L29.2286 5.6878Z" fill="#ACDE45"/>
<path d="M42.0635 15.5236L41.9866 15.5629C42.0234 15.5593 42.0534 15.5486 42.0635 15.5236Z" fill="#ACDE45"/>
<path d="M41.26 22.6992C41.26 22.6992 41.2706 22.7068 41.2741 22.7144C41.2706 22.7068 41.2635 22.703 41.26 22.6992Z" fill="#ACDE45"/>
<path d="M39.5151 16.6998C39.5151 16.6998 39.5007 16.696 39.4935 16.6921L39.5151 16.6998Z" fill="#ACDE45"/>
<path d="M39.6469 15.4721C39.5883 15.802 39.2363 15.912 39.3992 16.2247C39.3797 16.3794 39.4644 16.5443 39.5133 16.6955C39.7936 16.7642 39.5198 16.8983 39.7544 16.9842L39.5948 17.0186C39.6762 17.0495 39.7284 17.0872 39.6404 17.1147H39.5948C39.7153 17.1594 39.6404 17.211 39.7023 17.2316H39.6567L39.6762 17.2831L39.6111 17.2729C39.7382 17.3554 39.7414 17.4378 39.6795 17.51H39.8718C39.6502 17.6578 40.0477 17.7368 39.7805 17.864L39.7349 17.8571C40.2335 18.0771 39.3699 18.1079 39.8359 18.3348C39.7773 18.3073 39.7349 18.3348 39.6893 18.3279C39.7382 18.4172 39.7577 18.5135 40.1325 18.5582C40.1194 18.6201 40.0086 18.5959 39.862 18.5856C40.0282 18.6062 40.0901 18.6682 40.0934 18.7197L40.0314 18.6887L40.0705 18.8365L40.3834 18.8503C40.2857 18.9156 40.0021 18.8194 40.0673 18.9019L40.3247 18.9362C40.2596 19.0358 39.862 19.0427 39.6599 19.1114C39.4937 19.4929 40.0705 20.0737 39.5459 20.3555L39.3504 20.328C39.0701 20.2696 39.7414 20.5273 39.4807 20.4792L39.598 20.5514C39.5459 20.5514 39.4872 20.5652 39.4286 20.5274C39.409 20.5652 39.4547 20.5755 39.5329 20.627H39.3504C39.1809 20.7473 39.4807 20.9672 39.3732 21.115C38.9756 21.2112 39.1939 21.6649 39.308 21.9467C39.4644 22.1666 39.2396 22.2731 39.0277 22.3659C38.8127 22.4621 38.6073 22.5515 38.7735 22.7921C38.7312 22.7852 38.8061 22.8471 38.8355 22.8609L38.6888 23.1083C38.6888 23.1083 38.5292 23.4106 38.6758 23.7337C38.8257 24.043 39.2689 24.4485 40.592 24.4348L40.6441 24.4692C40.8559 24.3695 40.9374 24.2698 40.6995 24.019C41.058 24.1633 40.794 23.8952 40.9244 23.9055L40.9505 23.9227C40.7191 23.6959 41.2633 23.8025 41.058 23.5928C41.084 23.61 41.1818 23.6512 41.1786 23.6787C41.1623 23.5825 41.1199 23.4485 41.3317 23.5275C41.3447 23.3248 41.5305 23.1013 41.2307 22.8642L41.2861 22.8952C41.0808 22.7474 41.2796 22.799 41.1883 22.6821C41.2177 22.689 41.234 22.6889 41.2438 22.6924C41.0417 22.5412 41.2731 22.4725 41.1949 22.3797L41.3382 22.4244L41.348 22.2697L41.3024 22.3144C40.9178 22.1701 41.5794 22.2834 41.3545 22.0979C41.4328 22.0119 40.5952 21.658 40.8103 21.6168C40.6376 21.5171 41.0971 21.7439 40.9765 21.634C41.1818 21.6889 41.0971 21.7027 41.2633 21.7336C41.1851 21.6374 41.5044 21.6786 41.3871 21.5515L41.5468 21.5927C41.2828 21.4002 41.8108 21.4312 41.5468 21.28C41.4393 21.1288 42.0421 21.3178 41.7554 21.115H41.9835C42.0291 21.0738 41.7228 21.0153 41.8434 20.9809C41.9802 21.0153 41.9705 20.9294 42.091 20.9947C42.3355 20.9054 41.8401 20.651 42.2377 20.5479C41.9737 20.4551 42.1497 20.3968 41.9542 20.328C42.0715 20.3452 42.003 20.1527 42.2409 20.3005C42.2605 20.3142 42.254 20.328 42.2084 20.3177L42.3648 20.3624C42.6841 20.3177 42.2312 20.1424 42.2931 20.0531C42.2344 20.0737 42.2442 20.115 42.1367 20.0703L42.1725 19.9809L42.3061 20.0256L42.4071 19.8984L42.2377 19.8881C42.3354 19.8331 42.6222 19.8572 42.3973 19.7404C42.2703 19.6854 42.1627 19.7678 42.1204 19.6888C42.2507 19.6166 42.4397 19.5032 42.5049 19.3898C42.3126 19.3726 42.3257 19.3417 42.2898 19.3039L42.456 19.3246C42.2442 19.1665 42.8243 19.3279 42.6581 19.1767L42.7721 19.2042L42.4332 19.1252C42.1203 18.9706 42.7819 19.1046 42.3485 18.9259C42.3713 18.9774 41.9835 18.9052 42.0617 18.8537L42.2181 18.8881C42.1888 18.8503 42.1236 18.8331 42.1595 18.8125C42.2442 18.8434 42.3908 18.8503 42.368 18.7953L42.5636 18.8503L42.28 18.7231C42.456 18.6682 42.254 18.5307 42.4788 18.5238C42.4788 18.5238 42.6027 18.376 42.3582 18.3176C42.5082 18.3622 42.5733 18.2798 42.7525 18.3176C42.5831 18.2591 42.4495 18.1286 42.6352 18.0942L42.6548 18.1045C42.8569 17.9361 42.4169 17.7814 42.6515 17.6302C42.4593 17.6302 42.5668 17.5478 42.3224 17.5581C42.0878 17.3862 42.8308 17.266 42.0715 17.1904C42.0324 17.1148 42.2507 17.1045 42.2898 17.0667L42.3289 17.0839C42.2703 16.943 42.2605 16.9017 42.2768 16.7952C42.2018 16.7436 41.8499 16.7402 41.9346 16.6474C42.0748 16.6749 42.0487 16.6371 42.0487 16.6027C42.0715 16.6233 42.1236 16.6302 42.2149 16.5821C42.1725 16.5753 42.1432 16.5684 42.1204 16.5581C42.1301 16.5581 42.1399 16.5581 42.1562 16.5581C42.1041 16.4996 42.0617 16.5134 42.0421 16.5409C42.0193 16.5409 41.9933 16.5409 41.9542 16.5512C42.1334 16.4859 41.9379 16.3862 42.1758 16.369C42.1171 16.1938 41.8597 16.0838 41.7586 15.9498C41.8825 15.9257 41.9933 15.9497 42.0421 15.991L41.99 15.8914C42.1692 15.8811 42.0943 15.9429 42.1334 15.9738C42.4137 15.8295 41.8303 15.7435 42.0813 15.5751L41.9378 15.558L41.9607 15.5477C41.8857 15.5546 41.7814 15.5339 41.7586 15.5133C41.9118 15.4789 42.1138 15.4789 42.1008 15.4067C42.2442 15.3346 42.0096 15.2521 41.9183 15.1903C41.8955 15.2315 41.8108 15.2315 41.7521 15.2212C41.7423 15.1868 41.8955 15.1456 41.8271 15.1284L42.0356 15.0975C41.8401 15.1353 41.814 15.0322 41.7261 15.0322C41.8792 14.991 41.8662 15.0665 41.9835 15.0631C41.9444 14.9222 41.9639 14.9944 41.9248 14.8535C41.7586 14.8019 41.7293 14.8981 41.5435 14.8878C41.4947 14.8294 41.3415 14.7917 41.4555 14.6954L41.2763 14.7504C41.1134 14.6542 41.1231 14.5854 41.2959 14.4686C40.4714 14.1764 39.9565 14.2761 39.6502 14.4067C39.3406 14.5373 39.233 14.7091 39.233 14.7091C38.8811 15.0734 39.4383 15.1147 39.6241 15.4618L39.6469 15.4721Z" fill="#ACDE45"/>
<path d="M34.4508 31.2647L34.3873 31.2084C34.4074 31.24 34.4274 31.2647 34.4508 31.2647Z" fill="#ACDE45"/>
<path d="M32.2893 29.417C32.2893 29.417 32.2893 29.4016 32.2855 29.3939V29.417H32.2893Z" fill="#ACDE45"/>
<path d="M33.4455 28.9473C33.1229 29.0435 32.8654 28.7616 32.6569 29.0709C32.507 29.1259 32.4027 29.2909 32.2886 29.4112C32.3603 29.7067 32.1094 29.5177 32.1452 29.7789L32.0409 29.6483C32.054 29.7377 32.0475 29.8063 31.979 29.7411L31.9595 29.6964C31.9758 29.8304 31.8976 29.7892 31.9074 29.8579L31.8878 29.8133L31.8487 29.8614L31.8259 29.7961C31.8161 29.9542 31.7444 30.0023 31.6532 29.9817L31.7477 30.1604C31.5098 30.0332 31.6434 30.4353 31.4022 30.2634L31.3827 30.2188C31.4479 30.7824 30.9786 30.0195 31.0274 30.5625C31.0209 30.4937 30.9753 30.4731 30.9558 30.4284C30.9036 30.5212 30.8352 30.5899 30.9981 30.9508C30.9395 30.9748 30.9004 30.8614 30.8319 30.724C30.9036 30.8821 30.8841 30.9714 30.845 31.0024L30.8384 30.9302L30.7374 31.047L30.8939 31.3357C30.7896 31.2841 30.7146 30.9783 30.682 31.0848L30.7928 31.3323C30.6788 31.3323 30.4571 30.9817 30.2877 30.8374C29.8738 30.9096 29.7304 31.7378 29.196 31.4526L29.1048 31.2704C28.9875 30.9955 29.1732 31.724 29.0559 31.4731L29.0656 31.6175C29.033 31.5728 28.9874 31.5315 28.9842 31.4594C28.9418 31.4662 28.9581 31.511 28.9646 31.6072L28.8538 31.4526C28.6518 31.3838 28.655 31.7756 28.466 31.7756C28.1369 31.5075 27.9022 31.9852 27.7621 32.2636C27.622 32.8066 26.8627 31.834 26.7356 32.4388C26.7095 32.4045 26.7193 32.5041 26.7291 32.5351L26.4358 32.6107C26.4358 32.6107 25.0345 33.054 26.9181 34.9614L26.9344 35.0232C27.1429 35.1091 27.2537 35.1022 27.2472 34.7517C27.4036 35.1228 27.3874 34.7379 27.4688 34.8445L27.4754 34.8754C27.4623 34.5455 27.7589 35.0369 27.7556 34.7414C27.7621 34.7723 27.798 34.8754 27.7817 34.8926C27.8306 34.8169 27.8892 34.6967 27.9772 34.9132C28.1141 34.7895 28.3748 34.7998 28.3454 34.408L28.3617 34.4699C28.3324 34.2087 28.4237 34.4046 28.4432 34.2568C28.4563 34.2843 28.466 34.298 28.4725 34.3083C28.4465 34.0506 28.642 34.195 28.6551 34.0747L28.7137 34.219L28.8277 34.1331L28.7691 34.1228C28.6322 33.7172 28.9581 34.3324 28.9516 34.0368C29.0559 34.0506 28.8049 33.1365 28.9679 33.2911C28.9386 33.0884 29.0494 33.6107 29.0559 33.4389C29.1374 33.6451 29.0787 33.5798 29.1569 33.7413C29.1797 33.6176 29.3394 33.9097 29.3622 33.7379L29.4274 33.8994C29.4111 33.5626 29.6979 34.03 29.6555 33.7207C29.7044 33.542 29.9129 34.1675 29.8966 33.8066L30.0237 34.006C30.0824 34.0197 29.9488 33.7241 30.0433 33.8066C30.0954 33.9441 30.1508 33.8857 30.1736 34.03C30.3757 34.1916 30.2844 33.6211 30.5842 33.9132C30.5093 33.6314 30.6494 33.7551 30.5908 33.5454C30.6429 33.6588 30.7505 33.4939 30.77 33.7825C30.77 33.8066 30.757 33.8101 30.7374 33.762L30.7928 33.9235C31.0046 34.1812 30.8841 33.6897 30.9883 33.6932C30.9395 33.6519 30.9134 33.6829 30.8906 33.5661L30.9786 33.5489L31.0177 33.6897L31.1676 33.7104L31.0829 33.5557C31.1774 33.6107 31.3142 33.8788 31.2816 33.6176C31.2556 33.4732 31.1317 33.4252 31.1709 33.3427C31.2947 33.4149 31.4837 33.5317 31.6043 33.5282C31.5163 33.3495 31.5456 33.3427 31.5554 33.2946L31.6271 33.4526C31.6336 33.1811 31.8193 33.7826 31.8454 33.5557L31.8845 33.6692L31.7639 33.3255C31.7183 32.9647 31.9628 33.6279 31.8748 33.1502C31.8454 33.1984 31.6988 32.8134 31.7803 32.8547L31.8356 33.0127C31.8487 32.9681 31.8291 32.8993 31.8617 32.9199C31.8813 33.0093 31.953 33.1468 31.9823 33.0986L32.0409 33.3014L31.9921 32.9819C32.1257 33.1124 32.1289 32.8616 32.2495 33.0609C32.2495 33.0609 32.4288 33.0987 32.3473 32.8512C32.3896 33.0093 32.4874 33.0265 32.5461 33.2086C32.5037 33.0265 32.5395 32.841 32.6601 32.9956V33.0196C32.8948 33.1193 32.7937 32.6416 33.0316 32.7859C32.9371 32.6107 33.0545 32.6691 32.9241 32.4492C32.9437 32.1502 33.4032 32.7825 33.0936 32.0471C33.1327 31.9749 33.25 32.1708 33.2989 32.1914V32.236C33.3869 32.1123 33.4162 32.0883 33.5107 32.0573C33.5172 31.9645 33.3542 31.6347 33.4683 31.6725C33.5107 31.8168 33.5302 31.7756 33.5596 31.7584C33.553 31.7893 33.5726 31.8408 33.6541 31.9061C33.6378 31.8615 33.6345 31.834 33.628 31.8099C33.6345 31.8202 33.6378 31.8271 33.6476 31.8409C33.6704 31.7687 33.641 31.7309 33.6084 31.7274C33.5987 31.7068 33.5824 31.6828 33.5596 31.6518C33.6964 31.7893 33.6867 31.5591 33.8105 31.779C33.9213 31.6416 33.8985 31.3563 33.9636 31.2016C34.0386 31.3047 34.0679 31.4216 34.0582 31.4869L34.1168 31.3941C34.2081 31.5556 34.1233 31.5178 34.1168 31.5659C34.3612 31.7652 34.169 31.1776 34.4199 31.346L34.371 31.2051L34.3906 31.2223C34.3515 31.157 34.3221 31.047 34.3286 31.0161C34.4264 31.1467 34.5144 31.3391 34.5665 31.2944C34.6904 31.401 34.6545 31.1466 34.6643 31.0332C34.6187 31.0332 34.5828 30.9473 34.5665 30.8889C34.5926 30.8649 34.6904 30.992 34.6741 30.9199L34.7881 31.1055C34.6708 30.9371 34.7458 30.8683 34.7099 30.7824C34.811 30.9095 34.7393 30.9301 34.7947 31.0401C34.8957 30.9473 34.8435 30.992 34.9446 30.8992C34.9185 30.7205 34.8273 30.7308 34.7523 30.5487C34.7816 30.4765 34.7523 30.315 34.8794 30.3872L34.7588 30.236C34.7751 30.0435 34.8403 30.0229 35.0098 30.1398C34.9283 29.229 34.648 28.7686 34.4134 28.5211C34.1755 28.2737 33.9734 28.2427 33.9734 28.2427C33.4976 28.064 33.6769 28.6242 33.4455 28.961V28.9473Z" fill="#ACDE45"/>
<path d="M19.1992 38.3717L19.139 38.3119C19.1558 38.3471 19.1758 38.3717 19.1992 38.3717Z" fill="#ACDE45"/>
<path d="M14.2313 42.1986C14.2313 42.1986 14.2353 42.2108 14.2434 42.2189C14.2434 42.2108 14.2394 42.2027 14.2313 42.1986Z" fill="#ACDE45"/>
<path d="M17.0574 36.4792C17.0574 36.4792 17.0574 36.4638 17.0535 36.4561V36.4792H17.0574Z" fill="#ACDE45"/>
<path d="M18.3669 35.9785C18.0052 36.061 17.751 35.7791 17.4871 36.1022C17.3144 36.1675 17.1872 36.3462 17.0569 36.4768C17.1253 36.7758 16.8581 36.6039 16.8939 36.872L16.7799 36.7483C16.7929 36.8411 16.7864 36.9099 16.7115 36.8514L16.6886 36.8067C16.7082 36.9442 16.6202 36.9098 16.63 36.9785L16.6072 36.9339L16.5648 36.9854L16.5387 36.9202C16.529 37.0817 16.4573 37.1401 16.3562 37.1332L16.4638 37.3016C16.2031 37.2053 16.366 37.5972 16.0955 37.4563L16.0727 37.415C16.1868 37.9752 15.623 37.2913 15.7208 37.8343C15.7077 37.7655 15.6556 37.7553 15.6328 37.7106C15.5872 37.8137 15.5187 37.8962 15.7338 38.2261C15.6752 38.2605 15.6198 38.1539 15.5318 38.0336C15.6263 38.178 15.6198 38.2742 15.5807 38.3154L15.5644 38.2466L15.4731 38.3876L15.6784 38.6385C15.5611 38.6075 15.4405 38.3223 15.4242 38.4322L15.5741 38.6557C15.4568 38.6763 15.1733 38.3807 14.9712 38.2845C14.5345 38.4769 14.5704 39.3361 13.961 39.2468L13.8209 39.1024C13.6286 38.879 14.0066 39.5217 13.8209 39.3224L13.8698 39.4598C13.8274 39.4289 13.7688 39.4048 13.7459 39.3361C13.7036 39.3602 13.7329 39.3979 13.7655 39.4873L13.6123 39.3807C13.3842 39.3979 13.495 39.7691 13.3158 39.855C12.9019 39.7382 12.8139 40.3121 12.7878 40.6386C12.8204 40.9204 12.5662 40.9341 12.3153 40.9616C12.0644 40.9891 11.8069 41.0269 11.8786 41.3396C11.8395 41.3224 11.8917 41.4083 11.9145 41.429L11.6733 41.6662C11.6733 41.6662 11.6016 41.7383 11.5462 41.8654C11.4876 41.9926 11.4387 42.1645 11.4713 42.35C11.5332 42.7315 11.9601 43.1198 13.218 43.436L13.2636 43.4807C13.4754 43.4498 13.5569 43.3948 13.3842 43.1026C13.6905 43.3466 13.495 43.027 13.6156 43.082L13.6384 43.1061C13.4722 42.8277 13.948 43.1198 13.8046 42.8655C13.8241 42.8896 13.9024 42.9651 13.8958 42.9858C13.9024 42.8998 13.8958 42.7727 14.0686 42.9239C14.1305 42.7624 14.3455 42.6696 14.1565 42.3328L14.1957 42.3844C14.0621 42.1678 14.2217 42.3019 14.1794 42.1644C14.2022 42.1816 14.2152 42.1919 14.225 42.1988C14.0979 41.9754 14.3293 42.0339 14.2901 41.9205L14.3977 42.0269L14.4596 41.9067L14.4042 41.917C14.1305 41.5974 14.6486 42.0372 14.5313 41.7726C14.6291 41.752 14.0751 40.9994 14.2804 41.0853C14.1826 40.9066 14.4629 41.3534 14.4107 41.1919C14.5574 41.3534 14.4791 41.3156 14.6062 41.4358C14.5834 41.3121 14.8279 41.5286 14.7888 41.3637L14.9028 41.4909C14.7725 41.1816 15.1896 41.5286 15.0462 41.2571C15.0332 41.075 15.421 41.5974 15.2906 41.2675L15.4666 41.4187C15.5252 41.4187 15.3134 41.1781 15.4209 41.2297C15.5089 41.3465 15.5415 41.2744 15.6067 41.405C15.8348 41.5081 15.5839 40.996 15.9359 41.2022C15.7892 40.9547 15.9489 41.0406 15.8381 40.8516C15.9163 40.9479 15.9685 40.7657 16.063 41.0372C16.0695 41.0613 16.0597 41.0647 16.0303 41.0269L16.1249 41.1678C16.3791 41.3671 16.1412 40.9307 16.2389 40.9135C16.1868 40.886 16.1672 40.917 16.1183 40.8104L16.1933 40.7795L16.265 40.9032L16.4051 40.8964L16.2911 40.7657C16.3888 40.8035 16.5778 41.0338 16.4833 40.7898C16.4279 40.6592 16.3041 40.6317 16.3204 40.5492C16.4507 40.5974 16.6463 40.6729 16.7571 40.6592C16.6365 40.5011 16.6626 40.4908 16.6626 40.4427L16.7604 40.5836C16.7115 40.3224 17.0015 40.8722 16.9787 40.6523L17.0374 40.7588L16.8581 40.4427C16.744 40.1025 17.096 40.7107 16.9233 40.2571C16.907 40.3052 16.6984 39.9512 16.7832 39.9822L16.8646 40.13C16.8679 40.0819 16.8386 40.02 16.8744 40.0372C16.9103 40.1231 16.9982 40.2434 17.0178 40.1953L17.109 40.3843L17.008 40.0818C17.1546 40.1952 17.1123 39.9512 17.2589 40.1333C17.2589 40.1333 17.4251 40.154 17.3143 39.9203C17.3763 40.0715 17.4675 40.0818 17.549 40.2502C17.4805 40.0784 17.487 39.8929 17.6207 40.0372L17.6272 40.0612C17.852 40.1471 17.6989 39.6901 17.9335 39.8206C17.826 39.6522 17.94 39.7073 17.7966 39.4942C17.7869 39.1952 18.2692 39.8069 17.9205 39.0956C17.9531 39.0234 18.0769 39.2158 18.1258 39.233L18.1323 39.2776C18.2007 39.1573 18.2268 39.1333 18.3115 39.1024C18.3115 39.0096 18.1421 38.6866 18.2529 38.7209C18.3018 38.8618 18.3148 38.8206 18.3409 38.8069C18.3344 38.8378 18.3571 38.8859 18.4354 38.9546C18.4191 38.9134 18.4126 38.8824 18.4093 38.8584C18.4158 38.8687 18.4191 38.8756 18.4289 38.8893C18.4484 38.8172 18.4191 38.7828 18.3898 38.7759C18.38 38.7553 18.3637 38.7312 18.3409 38.7003C18.4745 38.8412 18.4615 38.6144 18.5853 38.8344C18.6863 38.7072 18.657 38.4185 18.7254 38.2707C18.7971 38.3773 18.8232 38.4941 18.8134 38.556L18.8688 38.4701C18.9535 38.635 18.8721 38.5904 18.8688 38.6385C19.0969 38.855 18.9242 38.2639 19.1556 38.4494L19.1132 38.3051L19.1295 38.3223C19.0936 38.2536 19.0709 38.1436 19.0774 38.1127C19.1654 38.2501 19.2436 38.446 19.2924 38.4082C19.4032 38.5251 19.3772 38.2707 19.3967 38.1607C19.3544 38.1539 19.325 38.068 19.312 38.0095C19.3381 37.9889 19.4228 38.1264 19.413 38.0543L19.5108 38.2501C19.4098 38.0714 19.4847 38.013 19.4554 37.9271C19.5401 38.0645 19.475 38.0748 19.5206 38.1882C19.6216 38.1126 19.5694 38.1504 19.6705 38.0714C19.6574 37.8927 19.5695 37.8893 19.5173 37.7037C19.5499 37.6384 19.5369 37.4734 19.6542 37.5593L19.5532 37.3944C19.589 37.2054 19.6574 37.1951 19.8074 37.3394C19.8465 36.4287 19.6705 35.9132 19.4749 35.6314C19.2794 35.3462 19.0643 35.2946 19.0643 35.2946C18.5755 35.0609 18.6504 35.6589 18.3572 35.9923L18.3669 35.9785Z" fill="#ACDE45"/>
<path d="M10.2838 50.5706H10.2036C10.2403 50.5777 10.2704 50.5813 10.2838 50.5706Z" fill="#ACDE45"/>
<path d="M9.94611 54.5088C9.94611 54.5088 9.95741 54.5088 9.96497 54.5128C9.95741 54.5128 9.94988 54.5088 9.94611 54.5088Z" fill="#ACDE45"/>
<path d="M7.61149 50.7465C7.61149 50.7465 7.60074 50.7388 7.58997 50.7388L7.61149 50.7465Z" fill="#ACDE45"/>
<path d="M7.96141 49.9071C7.83106 50.1167 7.46278 50.1132 7.56707 50.3813C7.52144 50.4912 7.5801 50.6287 7.60943 50.7456C7.87992 50.8418 7.59314 50.8933 7.818 50.993H7.65832C7.73653 51.0274 7.78542 51.0583 7.69743 51.0686L7.6518 51.0617C7.76586 51.1133 7.69092 51.1373 7.74958 51.1614L7.70395 51.1545L7.72022 51.1958L7.65506 51.1786C7.77564 51.2542 7.77565 51.3126 7.71048 51.3539L7.90273 51.3745C7.67462 51.4535 8.06566 51.5463 7.80169 51.6082L7.7561 51.6013C8.24819 51.7869 7.38784 51.7559 7.85711 51.9381C7.79845 51.914 7.7561 51.9346 7.71048 51.9277C7.75936 51.993 7.78217 52.0583 8.16019 52.0996C8.15042 52.1408 8.0396 52.1202 7.89295 52.1099C8.05915 52.1271 8.12432 52.1718 8.13084 52.2061L8.06894 52.1855L8.11457 52.2852L8.4274 52.2989C8.33289 52.3402 8.04613 52.2715 8.11783 52.3265L8.37525 52.3504C8.31659 52.4123 7.92228 52.4158 7.72675 52.4639C7.58987 52.7388 8.2319 53.0859 7.75937 53.3162H7.5638C7.28029 53.3024 7.98096 53.4124 7.717 53.409L7.84406 53.4468C7.79192 53.4537 7.73655 53.4674 7.67463 53.4468C7.6616 53.4743 7.70722 53.4777 7.79521 53.5018L7.61596 53.5224C7.47257 53.6255 7.81148 53.7389 7.73653 53.8523C7.36828 53.976 7.69415 54.2578 7.88316 54.409C8.30681 54.6255 7.16298 54.8557 7.6518 55.0825C7.61269 55.0894 7.70068 55.1066 7.73327 55.1066L7.6909 55.306C7.6909 55.306 7.66483 55.5465 7.93532 55.6943C8.2058 55.8421 8.76959 55.8764 9.94602 55.519H10.0079C10.1578 55.4193 10.1904 55.3575 9.8776 55.2888C10.2621 55.2785 9.91671 55.2063 10.0405 55.1822H10.0731C9.77983 55.1204 10.3175 55.0585 10.0536 54.9966C10.0829 54.9966 10.1904 55.0001 10.197 55.0138C10.1481 54.9692 10.0633 54.9107 10.2882 54.9107C10.2328 54.8076 10.3371 54.6667 9.98187 54.5911L10.0438 54.598C9.80261 54.5533 10.0079 54.5499 9.88735 54.5018C9.91668 54.5018 9.93299 54.4983 9.94276 54.5018C9.70813 54.4537 9.91016 54.3815 9.80914 54.3437H9.95581L9.92319 54.2647L9.89061 54.2956C9.48326 54.2716 10.1481 54.2406 9.88409 54.1719C9.93623 54.1203 9.04332 54.0241 9.24537 53.9725C9.05636 53.9347 9.55496 54.0104 9.40831 53.9623C9.62013 53.9692 9.54194 53.9863 9.7114 53.9828C9.61363 53.9382 9.92974 53.9245 9.78961 53.8695L9.95581 53.8764C9.656 53.7973 10.1774 53.7663 9.89061 53.7079C9.757 53.6323 10.3827 53.6908 10.0633 53.6014L10.2882 53.5877C10.3273 53.5602 10.0144 53.5499 10.1252 53.5224C10.2654 53.5327 10.2393 53.488 10.3729 53.5155C10.5978 53.4571 10.0666 53.3437 10.4479 53.275C10.1742 53.2337 10.3403 53.1959 10.1383 53.165C10.2589 53.1718 10.1643 53.0687 10.4185 53.1443C10.4381 53.1512 10.4348 53.1581 10.3892 53.1546L10.5522 53.1753C10.8617 53.1444 10.3892 53.0619 10.4414 53.0103C10.386 53.0206 10.399 53.0446 10.2882 53.0206L10.3143 52.9725L10.4511 52.9931L10.5359 52.9244H10.3664C10.4577 52.8901 10.7444 52.9038 10.5098 52.8419C10.3762 52.811 10.2784 52.8557 10.2295 52.811C10.3501 52.7732 10.5293 52.7148 10.5847 52.6564C10.3925 52.6426 10.4023 52.6288 10.3664 52.6048L10.5326 52.6185C10.3077 52.5292 10.8976 52.6323 10.7216 52.5464L10.8357 52.5636L10.4935 52.512C10.1741 52.4192 10.8389 52.5155 10.399 52.402C10.4251 52.433 10.034 52.3745 10.109 52.3504L10.2686 52.3745C10.2361 52.3539 10.1709 52.3402 10.2035 52.3299C10.2882 52.3505 10.4348 52.3608 10.4088 52.3299L10.6076 52.3676L10.3208 52.2852C10.4968 52.2646 10.2882 52.1821 10.5131 52.1924C10.5131 52.1924 10.6304 52.1236 10.3892 52.0755C10.5391 52.1099 10.6043 52.0755 10.7803 52.1065C10.6108 52.0652 10.4772 51.9828 10.6629 51.9828L10.6825 51.9896C10.8813 51.9209 10.4446 51.7971 10.6825 51.7456C10.4903 51.7215 10.6011 51.6941 10.3566 51.67C10.1285 51.5497 10.8715 51.5841 10.122 51.4432C10.0862 51.3985 10.3045 51.4226 10.3469 51.4088L10.386 51.4226C10.3338 51.3401 10.3306 51.3161 10.3566 51.2645C10.2882 51.2267 9.93951 51.1648 10.0308 51.1304C10.1676 51.1682 10.1448 51.1443 10.1481 51.1271C10.1676 51.1408 10.2198 51.1545 10.3143 51.1442C10.2719 51.1339 10.2458 51.1236 10.2263 51.1168C10.2361 51.1168 10.2458 51.1168 10.2621 51.1202C10.2165 51.0824 10.1741 51.0789 10.1513 51.0892C10.1318 51.0858 10.1024 51.0823 10.0633 51.0789C10.2458 51.0789 10.0633 50.9862 10.3045 51.024C10.2654 50.9243 10.0275 50.8143 9.94929 50.718C10.0731 50.7318 10.1774 50.7696 10.223 50.8005L10.1872 50.7387C10.3632 50.7696 10.2817 50.7868 10.3143 50.8108C10.6076 50.7971 10.0535 50.6253 10.3273 50.5978L10.1904 50.5565H10.2132C10.1383 50.5428 10.0438 50.505 10.021 50.4913C10.1741 50.5084 10.3729 50.56 10.3696 50.5222C10.5228 50.5222 10.311 50.4225 10.2361 50.3675C10.2067 50.3847 10.122 50.3607 10.0699 50.3401C10.0699 50.3195 10.223 50.34 10.1611 50.3126L10.3664 50.3538C10.1709 50.3229 10.1676 50.261 10.0829 50.237C10.236 50.2576 10.21 50.2919 10.3241 50.3229C10.3208 50.2438 10.3241 50.2816 10.3175 50.206C10.1709 50.1338 10.122 50.1716 9.94602 50.1132C9.91344 50.0685 9.77657 50.0033 9.90692 49.9861L9.72114 49.9586C9.59079 49.8589 9.62339 49.8211 9.81566 49.8177C9.12805 49.395 8.62944 49.2369 8.3003 49.1991C7.97116 49.1613 7.81474 49.2403 7.81474 49.2403C7.36502 49.3709 7.87339 49.6081 7.9679 49.8933L7.96141 49.9071Z" fill="#ACDE45"/>
</svg>
