<svg width="77" height="39" viewBox="0 0 77 39" fill="none" xmlns="http://www.w3.org/2000/svg">
<path d="M2.85708 1.59558L2.79932 1.65061C2.83141 1.63686 2.85387 1.61621 2.85708 1.59558Z" fill="#ACDE45"/>
<path d="M5.97784 6.87721C5.97784 6.87721 5.98724 6.87384 5.99351 6.87048C5.98724 6.87048 5.98098 6.87049 5.97784 6.87721Z" fill="#ACDE45"/>
<path d="M0.637215 2.24807C0.686062 2.6224 0.415765 2.85936 0.68931 3.15126C0.738158 3.32984 0.89122 3.47063 1.00194 3.61486C1.27549 3.56679 1.10289 3.82433 1.34713 3.80715L1.22664 3.91363C1.31131 3.90677 1.37319 3.91706 1.31457 3.98918L1.27549 4.0098C1.39924 3.9995 1.36341 4.08534 1.42528 4.07847L1.3862 4.09909L1.4318 4.14374L1.36993 4.16432C1.51647 4.18493 1.56206 4.26394 1.55229 4.36009L1.71185 4.26393C1.6109 4.51805 1.97237 4.38068 1.82908 4.64168L1.79001 4.6623C2.30127 4.58332 1.64673 5.10874 2.14497 5.04349C2.0831 5.05379 2.06682 5.10187 2.02774 5.12591C2.11892 5.17742 2.19055 5.24951 2.49992 5.0572C2.52923 5.11901 2.42829 5.16711 2.31432 5.24953C2.45109 5.16368 2.53575 5.17742 2.56831 5.21863L2.50318 5.23234L2.62367 5.33195L2.86464 5.14305C2.83208 5.25638 2.56505 5.36287 2.66274 5.38691L2.87442 5.24953C2.88745 5.36973 2.60087 5.63414 2.49992 5.82988C2.6432 6.27633 3.41827 6.29693 3.29126 6.8979L3.15122 7.02841C2.93629 7.20355 3.54201 6.87388 3.34662 7.04216L3.47363 7.00438C3.44106 7.04559 3.41499 7.10053 3.35312 7.12113C3.3694 7.16234 3.40524 7.13834 3.4899 7.11086L3.38243 7.25507C3.37918 7.48173 3.72438 7.39586 3.77974 7.58474C3.63971 7.9831 4.13795 8.11363 4.42778 8.17201C4.93579 8.1514 4.36914 9.1988 4.94229 9.13699C4.91949 9.17133 5.00416 9.13357 5.02696 9.10953L5.20282 9.37053C5.20282 9.37053 5.43728 9.67272 5.77921 9.65211C6.1244 9.63838 6.54448 9.28123 6.99713 8.06553L7.04273 8.02776C7.04273 7.80797 7.00039 7.71524 6.71382 7.84918C6.97108 7.57444 6.65846 7.72557 6.72034 7.61568L6.74314 7.59849C6.47285 7.72555 6.78873 7.28599 6.54449 7.39588C6.56729 7.37871 6.64544 7.31004 6.66172 7.32034C6.58682 7.30317 6.46634 7.28943 6.62265 7.13832C6.48262 7.0559 6.41423 6.82239 6.0951 6.97349L6.14393 6.93916C5.93226 7.04905 6.07229 6.90481 5.94203 6.93228C5.96157 6.91168 5.9681 6.89794 5.97787 6.89107C5.76294 6.9941 5.83458 6.77087 5.73037 6.79491L5.83782 6.69874L5.73363 6.61976L5.74013 6.67816C5.42751 6.92198 5.87365 6.44118 5.61964 6.53391C5.60662 6.43431 4.88043 6.92198 4.97486 6.7228C4.80553 6.80522 5.23213 6.56136 5.08233 6.59913C5.2419 6.4652 5.19956 6.54079 5.32005 6.42403C5.20607 6.43433 5.42099 6.20766 5.26794 6.23513L5.39168 6.13209C5.10511 6.23168 5.4503 5.84706 5.18978 5.96382C5.0237 5.96039 5.52846 5.61355 5.21584 5.72001L5.36565 5.55174C5.36565 5.49336 5.13442 5.68909 5.18978 5.58263C5.3005 5.50365 5.2419 5.46243 5.36239 5.40749C5.46985 5.18427 4.99115 5.39718 5.19956 5.0572C4.96509 5.18769 5.05302 5.02975 4.87717 5.12934C4.96835 5.05723 4.81203 4.98854 5.06278 4.91643C5.08231 4.90956 5.08558 4.92329 5.04976 4.95076L5.18328 4.86834C5.38193 4.62452 4.96835 4.834 4.95859 4.7344C4.92928 4.78592 4.95859 4.80651 4.85763 4.85115L4.83158 4.77218L4.94881 4.71034V4.56613L4.82506 4.67257C4.86414 4.57641 5.08559 4.40129 4.85763 4.48028C4.73389 4.52836 4.70458 4.65196 4.62968 4.62793C4.68178 4.49743 4.7632 4.30511 4.75668 4.19522C4.60689 4.30511 4.60035 4.27767 4.55476 4.27424L4.68829 4.18495C4.44731 4.21929 4.96509 3.95829 4.76318 3.96859L4.86087 3.91707L4.56454 4.07503C4.24866 4.16775 4.81855 3.85525 4.40172 3.99605C4.44405 4.01666 4.11188 4.2021 4.1477 4.11968L4.28449 4.04757C4.24215 4.0407 4.18354 4.06816 4.20308 4.03382C4.28123 4.00291 4.39846 3.92049 4.35612 3.89988L4.53199 3.8209L4.25191 3.90332C4.36263 3.76252 4.14119 3.79 4.31379 3.65263C4.31379 3.65263 4.34311 3.48438 4.12492 3.58397C4.26495 3.52902 4.27797 3.43973 4.43753 3.36761C4.27797 3.42599 4.11514 3.40882 4.25191 3.28176H4.27145C4.36263 3.05854 3.93929 3.18215 4.07281 2.95893C3.91324 3.05508 3.9686 2.94522 3.76996 3.07572C3.50293 3.06542 4.08583 2.61895 3.41825 2.92803C3.35638 2.89025 3.5355 2.78038 3.55504 2.7323H3.59411C3.48991 2.64988 3.46711 2.62238 3.44757 2.53653C3.36616 2.52966 3.06005 2.68076 3.10238 2.57086C3.23264 2.53309 3.19682 2.51592 3.18705 2.48845C3.21311 2.49531 3.25869 2.47814 3.32382 2.40259C3.28474 2.41633 3.25868 2.41978 3.23589 2.42322C3.24566 2.41978 3.25218 2.4129 3.26521 2.40603C3.20333 2.38199 3.16751 2.40946 3.161 2.44036C3.14146 2.44723 3.11865 2.46097 3.08934 2.48501C3.22286 2.35794 3.02097 2.3614 3.22613 2.25151C3.11867 2.14162 2.85814 2.15191 2.72788 2.07293C2.82883 2.00768 2.93629 1.99048 2.99165 2.00422L2.92002 1.94243C3.07633 1.87031 3.02747 1.94587 3.0698 1.95618C3.28148 1.74326 2.73766 1.87719 2.92002 1.6574L2.78649 1.69174L2.80279 1.67455C2.73766 1.70546 2.6367 1.71919 2.61065 1.71232C2.74091 1.63334 2.92327 1.57154 2.89396 1.52003C3.00794 1.417 2.77998 1.42388 2.68228 1.39984C2.67251 1.44105 2.5911 1.46508 2.53899 1.47195C2.52271 1.44447 2.65298 1.36891 2.58785 1.37234L2.77021 1.28993C2.60088 1.37578 2.55204 1.29678 2.47388 1.32082C2.60414 1.24527 2.60739 1.31395 2.71486 1.27618C2.65298 1.16972 2.68554 1.22468 2.62367 1.11822C2.46084 1.11822 2.45107 1.20407 2.27848 1.24528C2.21986 1.2075 2.07007 1.20753 2.15799 1.09763L2.00169 1.18693C1.8356 1.13541 1.83234 1.06329 1.97563 0.925926C1.15825 0.809164 0.676283 0.932759 0.402737 1.10447C0.129192 1.27618 0.0640694 1.49253 0.0640694 1.49253C-0.18668 1.97331 0.360416 1.94928 0.640475 2.27553L0.637215 2.24807Z" fill="#ACDE45"/>
<path d="M13.194 13.0347L13.1779 13.1127C13.194 13.0821 13.2036 13.0516 13.194 13.0347Z" fill="#ACDE45"/>
<path d="M18.7073 15.6331C18.7073 15.6331 18.7136 15.6268 18.7168 15.6205C18.7105 15.6236 18.7073 15.6299 18.7073 15.6331Z" fill="#ACDE45"/>
<path d="M12.8616 15.8268C12.8616 15.8268 12.8522 15.8335 12.8491 15.8402L12.8647 15.8268H12.8616Z" fill="#ACDE45"/>
<path d="M11.8134 14.9854C12.0642 15.2429 11.9795 15.6069 12.3605 15.6584C12.4973 15.7683 12.6959 15.7821 12.8588 15.8267C13.0509 15.6138 13.0542 15.9263 13.2398 15.7615L13.204 15.9229C13.2658 15.8645 13.3244 15.8336 13.3147 15.9263L13.2919 15.9675C13.3863 15.8817 13.4026 15.971 13.4514 15.9297L13.4286 15.971L13.4905 15.9813L13.4547 16.0362C13.585 15.9607 13.6631 15.9916 13.7055 16.0774L13.7804 15.8989C13.8325 16.1667 14.0539 15.8336 14.0767 16.1324L14.0572 16.1736C14.4317 15.7924 14.1777 16.62 14.5424 16.2629C14.4968 16.3075 14.5098 16.359 14.4903 16.4002C14.5912 16.3899 14.6857 16.4037 14.8387 16.0568C14.8941 16.0877 14.8387 16.1873 14.7866 16.3247C14.8518 16.1736 14.9299 16.1324 14.9787 16.1461L14.9332 16.1942L15.083 16.2045L15.1806 15.9057C15.2132 16.0191 15.0471 16.2663 15.1416 16.2251L15.2425 15.9847C15.3142 16.0774 15.2165 16.4655 15.2328 16.6819C15.5747 16.9635 16.2292 16.5307 16.4149 17.1077L16.3595 17.2965C16.2651 17.5644 16.6102 16.9463 16.5288 17.197L16.6168 17.0939C16.6103 17.1454 16.6168 17.2073 16.5712 17.2588C16.607 17.2862 16.6233 17.2416 16.6819 17.1729L16.6591 17.3549C16.7633 17.5472 17.0108 17.2828 17.1476 17.4133C17.216 17.8323 17.6947 17.6674 17.9682 17.5644C18.3981 17.2759 18.3785 18.4813 18.8377 18.1311C18.8377 18.1723 18.8898 18.0967 18.8996 18.0658L19.1666 18.2066C19.1666 18.2066 19.4988 18.3543 19.7853 18.1688C20.0752 17.9868 20.3129 17.4717 20.1696 16.1701L20.1956 16.1152C20.0947 15.9195 20.0133 15.8576 19.8179 16.1152C19.9189 15.7443 19.7104 16.0328 19.7137 15.9023L19.7267 15.8748C19.5443 16.122 19.6192 15.576 19.4532 15.7958C19.4662 15.7683 19.502 15.6687 19.5216 15.6687C19.4434 15.6928 19.3327 15.7409 19.3978 15.5279C19.2317 15.5279 19.0591 15.3528 18.8475 15.6516L18.8735 15.5966C18.74 15.8027 18.7921 15.6035 18.6912 15.6962C18.6977 15.6688 18.6977 15.6516 18.7042 15.6413C18.5674 15.8439 18.5185 15.6104 18.4371 15.6859L18.4827 15.5451L18.3525 15.5314L18.385 15.5795C18.232 15.9572 18.385 15.3047 18.2092 15.5177C18.1473 15.4387 17.7598 16.2491 17.7435 16.0259C17.6393 16.1873 17.8835 15.7478 17.7761 15.8645C17.8477 15.6653 17.851 15.7512 17.8933 15.5863C17.8021 15.6584 17.8738 15.3459 17.7533 15.449L17.8086 15.291C17.61 15.5383 17.7109 15.0128 17.5481 15.2601C17.4048 15.346 17.6588 14.7759 17.4439 15.0334L17.4862 14.8068C17.4569 14.7553 17.3592 15.0506 17.3495 14.9304C17.4016 14.7999 17.3299 14.7999 17.4048 14.6866C17.3788 14.4393 17.0792 14.8858 17.0759 14.4771C16.9457 14.7175 16.9359 14.5355 16.8382 14.7175C16.8773 14.6041 16.7047 14.6385 16.8805 14.4325C16.8936 14.4153 16.9066 14.4256 16.8871 14.4668L16.9554 14.3191C16.9913 13.9998 16.7503 14.4118 16.6917 14.3329C16.6917 14.3947 16.7307 14.3947 16.6689 14.4874L16.607 14.4325L16.6721 14.3123L16.5972 14.1886L16.5484 14.3535C16.5288 14.2505 16.62 13.9757 16.4702 14.1715C16.3921 14.2813 16.4312 14.405 16.3563 14.429C16.3302 14.2917 16.2911 14.0822 16.226 13.9929C16.1609 14.1714 16.1381 14.1543 16.099 14.1783L16.1609 14.0238C15.9785 14.192 16.2683 13.6735 16.1055 13.7971L16.1576 13.6941L15.998 13.9997C15.7831 14.2607 16.0892 13.6632 15.8189 14.0306C15.8678 14.0238 15.6919 14.3741 15.6756 14.2848L15.7505 14.144C15.7115 14.1646 15.6756 14.2195 15.6724 14.1818C15.7212 14.1096 15.7733 13.9723 15.7245 13.9792L15.8287 13.8075L15.6431 14.041C15.6594 13.8589 15.4868 14.0135 15.5551 13.7971C15.5551 13.7971 15.4868 13.6391 15.3565 13.8521C15.4412 13.725 15.4021 13.6392 15.4933 13.4846C15.3923 13.6289 15.2458 13.7147 15.2881 13.5293L15.3044 13.5121C15.2555 13.2751 14.9755 13.6323 14.9559 13.3644C14.881 13.5396 14.8615 13.4159 14.7736 13.6426C14.5489 13.8006 14.7671 13.0794 14.3991 13.7387C14.3275 13.7456 14.4121 13.543 14.3991 13.4949L14.4284 13.4674C14.2981 13.4674 14.2656 13.4606 14.1972 13.4022C14.1256 13.4468 13.966 13.7593 13.9367 13.646C14.0213 13.5327 13.9823 13.5396 13.9562 13.5258C13.9823 13.5155 14.0083 13.4709 14.0181 13.3679C13.9953 13.4056 13.9757 13.4228 13.9595 13.44C13.9627 13.4297 13.966 13.4228 13.9725 13.4091C13.9074 13.4297 13.8976 13.4743 13.9074 13.5018C13.8976 13.519 13.8878 13.5464 13.8748 13.5842C13.9106 13.3988 13.7478 13.5258 13.8487 13.3095C13.699 13.2889 13.4938 13.4606 13.3472 13.4812C13.3928 13.3644 13.4677 13.282 13.5198 13.258H13.4254C13.5068 13.0965 13.5133 13.1893 13.5524 13.1721C13.5947 12.8665 13.2398 13.3198 13.2561 13.0279L13.1681 13.1378V13.1137C13.1388 13.179 13.0672 13.2545 13.0411 13.2683C13.0997 13.124 13.2072 12.9523 13.1519 12.9317C13.1812 12.7772 13.0021 12.9317 12.9109 12.9729C12.9272 13.0141 12.8783 13.0828 12.8392 13.124C12.8099 13.1137 12.8685 12.9695 12.8197 13.0141L12.9174 12.8287C12.8327 13.0073 12.7513 12.9764 12.6992 13.045C12.7578 12.9008 12.8034 12.9523 12.8653 12.8527C12.7546 12.8081 12.8099 12.8321 12.6992 12.7875C12.5689 12.8905 12.6145 12.9661 12.5006 13.1103C12.4322 13.1172 12.3149 13.2133 12.3182 13.0725L12.2466 13.2442C12.087 13.3129 12.0414 13.258 12.0707 13.0588C11.3608 13.4984 11.0612 13.9173 10.9472 14.2299C10.8332 14.5424 10.9081 14.7519 10.9081 14.7519C10.9895 15.2876 11.4031 14.9098 11.8069 14.9854H11.8134Z" fill="#ACDE45"/>
<path d="M27.8878 18.3337L27.8981 18.4152C27.905 18.3813 27.905 18.3507 27.8878 18.3337Z" fill="#ACDE45"/>
<path d="M33.938 19.3946C33.938 19.3946 33.9414 19.3845 33.9448 19.3778C33.9414 19.3845 33.938 19.3879 33.938 19.3946Z" fill="#ACDE45"/>
<path d="M28.3407 21.1051C28.3407 21.1051 28.334 21.1152 28.3306 21.1219L28.3407 21.1051Z" fill="#ACDE45"/>
<path d="M27.1385 20.6347C27.4446 20.7995 27.4642 21.1704 27.8322 21.0983C27.9885 21.1601 28.1774 21.1155 28.3434 21.1017C28.4704 20.8407 28.5519 21.1395 28.6821 20.9232L28.6886 21.088C28.7342 21.0159 28.7798 20.9678 28.7928 21.0605L28.7831 21.1052C28.8514 20.9953 28.8873 21.0777 28.9231 21.0193L28.9133 21.0639L28.9719 21.0537L28.9524 21.1189C29.0534 21.009 29.138 21.0159 29.1999 21.088L29.2259 20.8957C29.3432 21.1395 29.4669 20.7549 29.5646 21.033L29.5548 21.0777C29.8154 20.6072 29.7763 21.4726 30.0368 21.0296C30.0042 21.0845 30.0303 21.1292 30.0205 21.1773C30.1117 21.1395 30.2062 21.1258 30.2713 20.7514C30.3299 20.7686 30.3006 20.8785 30.2843 21.0262C30.3104 20.8613 30.3755 20.803 30.4243 20.7995L30.3918 20.8579L30.5383 20.827L30.5611 20.511C30.6197 20.6141 30.5188 20.8922 30.6002 20.8304L30.6393 20.5729C30.7304 20.6415 30.7272 21.0433 30.7923 21.2494C31.1798 21.4314 31.7106 20.8442 32.0168 21.3627L32.0037 21.5585C31.9679 21.8435 32.1698 21.1567 32.1438 21.4211L32.2056 21.2975C32.2089 21.349 32.2284 21.4074 32.1959 21.4692C32.2349 21.4863 32.2415 21.4417 32.2838 21.3593L32.3001 21.5413C32.4401 21.7027 32.6225 21.3868 32.782 21.4795C32.9318 21.871 33.3584 21.5997 33.6027 21.4383C33.9641 21.0605 34.1726 22.2453 34.5503 21.8023C34.5568 21.8435 34.5926 21.7576 34.5959 21.7233L34.8792 21.8057C34.8792 21.8057 35.2244 21.8813 35.4719 21.6443C35.7226 21.4074 35.8692 20.8544 35.4947 19.6044L35.511 19.5426C35.3742 19.3709 35.283 19.3228 35.1365 19.6216C35.169 19.237 35.0127 19.5632 34.9932 19.4361L34.9997 19.4052C34.8662 19.6868 34.8369 19.134 34.7131 19.3847C34.7197 19.3537 34.7359 19.2507 34.7587 19.2473C34.6871 19.2851 34.5829 19.3571 34.6089 19.1339C34.4428 19.1683 34.2377 19.0344 34.0879 19.3743L34.1042 19.3125C34.013 19.5426 34.026 19.3366 33.9446 19.4499C33.9446 19.419 33.9446 19.4052 33.9446 19.3915C33.8502 19.6181 33.7557 19.4018 33.6906 19.4945L33.7069 19.3468L33.5766 19.3606L33.6189 19.3984C33.5473 19.8002 33.5603 19.1305 33.4333 19.3778C33.3552 19.3125 33.1435 20.1951 33.0816 19.9822C33.0132 20.1642 33.163 19.68 33.0816 19.8174C33.1109 19.6044 33.1305 19.6903 33.137 19.5185C33.0621 19.6078 33.0653 19.2851 32.9709 19.419L32.9904 19.2542C32.8472 19.5392 32.8341 19.0069 32.7267 19.285C32.6029 19.4052 32.7267 18.7836 32.5769 19.0893L32.5671 18.8592C32.528 18.8146 32.4955 19.1271 32.4596 19.0103C32.4824 18.8695 32.4108 18.8867 32.4596 18.7596C32.3782 18.5227 32.1828 19.0309 32.0884 18.636C32.0135 18.9039 31.9646 18.7287 31.9093 18.9279C31.9223 18.8077 31.7595 18.8833 31.8865 18.6394C31.8963 18.6188 31.9093 18.6257 31.9028 18.6703L31.9386 18.5089C31.8995 18.1895 31.7562 18.6497 31.6813 18.5879C31.6976 18.6463 31.7334 18.636 31.6944 18.7459L31.6195 18.7115L31.6585 18.5776L31.5543 18.478L31.5446 18.6497C31.5022 18.5536 31.525 18.2651 31.4241 18.4917C31.3752 18.6188 31.4436 18.7287 31.3752 18.7699C31.3166 18.6429 31.2287 18.4471 31.1408 18.3819C31.118 18.5742 31.0952 18.5604 31.0626 18.5948L31.0854 18.4299C30.9454 18.6394 31.1049 18.0625 30.9747 18.2239L31.0007 18.1105L30.9193 18.4505C30.7728 18.7596 30.9258 18.1003 30.75 18.5261C30.7956 18.5055 30.7109 18.8901 30.6718 18.8111L30.7109 18.6532C30.6783 18.6806 30.6588 18.7459 30.6458 18.7115C30.6751 18.6291 30.6914 18.4814 30.6458 18.502L30.7044 18.3098L30.5807 18.5879C30.5481 18.4059 30.4178 18.6016 30.4308 18.375C30.4308 18.375 30.3201 18.2411 30.2517 18.4815C30.3038 18.3338 30.242 18.2617 30.2908 18.09C30.2289 18.2548 30.1084 18.3784 30.0987 18.1861L30.1085 18.1655C29.9945 17.9492 29.8154 18.375 29.7275 18.1209C29.7014 18.3132 29.6493 18.1964 29.6232 18.4403C29.4474 18.6566 29.4669 17.8976 29.2846 18.6394C29.2162 18.6669 29.2422 18.4505 29.2194 18.4024L29.2422 18.3647C29.1152 18.4024 29.0827 18.4025 29.0012 18.3681C28.9459 18.4334 28.8742 18.7802 28.8156 18.6806C28.8645 18.5467 28.8287 18.5673 28.8026 18.5604C28.8254 18.5433 28.8384 18.4918 28.8189 18.3922C28.8059 18.4334 28.7928 18.4574 28.7798 18.478C28.7798 18.4677 28.7798 18.4574 28.7863 18.4437C28.731 18.4815 28.731 18.5261 28.7472 18.5501C28.7407 18.5707 28.7407 18.5982 28.7375 18.6394C28.7212 18.4505 28.5974 18.6223 28.6365 18.3853C28.4835 18.4093 28.3337 18.636 28.1969 18.7013C28.2067 18.5776 28.2555 18.4746 28.2978 18.4334L28.2034 18.4608C28.236 18.2857 28.2718 18.3716 28.3044 18.3407C28.2588 18.035 28.0438 18.581 27.9755 18.296L27.9233 18.4299V18.4059C27.9071 18.478 27.8615 18.5742 27.8387 18.5948C27.8517 18.4368 27.9071 18.241 27.8484 18.2376C27.8322 18.0796 27.7019 18.2823 27.627 18.351C27.6531 18.3853 27.627 18.4677 27.6042 18.5158C27.5749 18.5158 27.5879 18.3578 27.5521 18.4196L27.5912 18.2136C27.5651 18.4093 27.474 18.4059 27.4446 18.4883C27.4577 18.3303 27.5163 18.3681 27.5456 18.2514C27.4251 18.2445 27.4837 18.2514 27.3632 18.241C27.2688 18.3818 27.3372 18.4403 27.2688 18.612C27.2069 18.6394 27.1223 18.7734 27.0832 18.6325L27.0669 18.8214C26.9334 18.9416 26.8748 18.9038 26.8454 18.7047C26.3049 19.3606 26.1551 19.8586 26.1453 20.1951C26.1355 20.5317 26.2625 20.7034 26.2625 20.7034C26.4905 21.1807 26.764 20.6828 27.1613 20.6209L27.1385 20.6347Z" fill="#ACDE45"/>
<path d="M43.5155 20.5897L43.5315 20.6677C43.5315 20.6338 43.5315 20.5999 43.5155 20.5897Z" fill="#ACDE45"/>
<path d="M49.6866 21.2077C49.6866 21.2077 49.6899 21.1976 49.6933 21.1909C49.6899 21.1976 49.6866 21.201 49.6866 21.2077Z" fill="#ACDE45"/>
<path d="M44.2061 23.2994C44.2061 23.2994 44.1994 23.3095 44.196 23.3162L44.2061 23.2994Z" fill="#ACDE45"/>
<path d="M42.9878 22.9593C43.3037 23.0864 43.3558 23.4573 43.7043 23.3474C43.8606 23.392 44.0429 23.3268 44.2025 23.3027C44.3034 23.028 44.4077 23.3199 44.5216 23.0933L44.5412 23.2581C44.5803 23.1791 44.6193 23.131 44.6421 23.2203L44.6356 23.265C44.6942 23.1482 44.7366 23.2272 44.7659 23.1688L44.7594 23.2169L44.818 23.2032L44.8017 23.2684C44.8929 23.1482 44.9775 23.1482 45.0427 23.2134L45.0557 23.0212C45.1892 23.2547 45.2837 22.8597 45.3976 23.131L45.3911 23.1791C45.6191 22.688 45.6321 23.5569 45.8633 23.0898C45.834 23.1482 45.8633 23.1894 45.8568 23.2375C45.9447 23.1894 46.0359 23.1722 46.0782 22.7911C46.1369 22.8014 46.1141 22.9147 46.1076 23.0624C46.1238 22.8975 46.1825 22.8323 46.2313 22.8254L46.202 22.8872L46.342 22.846L46.3485 22.5301C46.4104 22.6262 46.329 22.9147 46.4039 22.846L46.4299 22.585C46.5244 22.6468 46.5439 23.0452 46.6188 23.2478C47.0063 23.4024 47.5078 22.7842 47.8335 23.2787V23.4744C47.8074 23.7595 47.9768 23.0624 47.9638 23.3268L48.0191 23.1997C48.0256 23.2513 48.0452 23.3096 48.0191 23.3714C48.0582 23.3852 48.0647 23.3405 48.1005 23.2581L48.1266 23.4401C48.2699 23.5947 48.4392 23.265 48.5988 23.3543C48.7616 23.7389 49.1719 23.4436 49.4096 23.2718C49.7613 22.8769 49.9925 24.0514 50.3573 23.5947C50.3638 23.6359 50.3996 23.5466 50.4029 23.5157L50.6829 23.5844C50.6829 23.5844 52.0572 23.8385 51.2593 21.3659L51.2723 21.3041C51.1323 21.1358 51.0379 21.0912 50.8946 21.3934C50.9174 21.0087 50.7708 21.3418 50.7481 21.2113L50.7546 21.1804C50.6276 21.4655 50.5852 20.916 50.4615 21.1701C50.468 21.1392 50.481 21.0362 50.5038 21.0293C50.4322 21.0705 50.3312 21.1461 50.3507 20.9229C50.1847 20.9641 49.9697 20.837 49.8297 21.1839L49.8427 21.1221C49.7581 21.3556 49.7646 21.1495 49.6832 21.2663C49.6832 21.2354 49.6799 21.2216 49.6832 21.2079C49.5952 21.438 49.4943 21.2251 49.4292 21.3212L49.4422 21.1736L49.3119 21.1942L49.3575 21.232C49.2989 21.6372 49.2891 20.9675 49.1686 21.2217C49.0872 21.1598 48.9049 22.0493 48.8365 21.8398C48.7746 22.0252 48.9081 21.5341 48.8267 21.6749C48.8463 21.462 48.8691 21.5444 48.8723 21.3727C48.7974 21.4655 48.7909 21.1461 48.6997 21.28L48.7127 21.1152C48.5792 21.4071 48.5434 20.8782 48.449 21.1598C48.3317 21.2869 48.4294 20.6619 48.2894 20.9744L48.2699 20.7477C48.2275 20.7065 48.208 21.019 48.1689 20.9057C48.1852 20.7649 48.1168 20.7855 48.1591 20.655C48.0647 20.4215 47.8889 20.9435 47.7749 20.5554C47.713 20.8267 47.6544 20.655 47.6055 20.8576C47.6153 20.7374 47.4525 20.8233 47.5665 20.5726C47.5762 20.552 47.5892 20.5588 47.5827 20.6035L47.6088 20.4421C47.5534 20.1262 47.4329 20.5932 47.3515 20.5383C47.3711 20.5932 47.4069 20.5829 47.3743 20.6928L47.2962 20.6619L47.3255 20.5279L47.2147 20.4352V20.6069C47.1626 20.5142 47.1724 20.2223 47.0812 20.4558C47.0389 20.5863 47.1138 20.6893 47.0454 20.7374C46.9803 20.6138 46.8793 20.4284 46.7849 20.3666C46.7751 20.5589 46.7491 20.5486 46.7165 20.5863L46.7295 20.4215C46.5993 20.6413 46.7295 20.054 46.6025 20.2257L46.6221 20.1124L46.5602 20.4558C46.4332 20.7752 46.5439 20.1056 46.3941 20.5451C46.4397 20.5211 46.3778 20.9126 46.3322 20.8336L46.3615 20.6756C46.329 20.7065 46.3127 20.7718 46.2964 20.7374C46.3225 20.6516 46.329 20.5073 46.2834 20.5279L46.3322 20.3322L46.2248 20.6172C46.1824 20.4387 46.062 20.6447 46.0587 20.4146C46.0587 20.4146 45.9382 20.291 45.8829 20.5348C45.9252 20.3837 45.8568 20.3185 45.8959 20.1399C45.8438 20.3116 45.7298 20.4421 45.707 20.2532L45.7168 20.2326C45.5865 20.0266 45.4367 20.4661 45.326 20.2223C45.313 20.4146 45.2543 20.3047 45.2446 20.552C45.0817 20.7821 45.0427 20.0266 44.9157 20.7821C44.8473 20.8164 44.8603 20.5966 44.831 20.552L44.8506 20.5142C44.7268 20.5657 44.691 20.5692 44.6063 20.5417C44.5542 20.6104 44.5151 20.9641 44.4435 20.8714C44.4826 20.734 44.4467 20.7546 44.4174 20.7546C44.437 20.734 44.45 20.6825 44.4174 20.5863C44.4077 20.631 44.3979 20.655 44.3881 20.6756C44.3881 20.6653 44.3881 20.655 44.3881 20.6413C44.336 20.6859 44.3393 20.7306 44.3588 20.7512C44.3588 20.7718 44.3556 20.7993 44.3588 20.8405C44.3263 20.655 44.2155 20.8404 44.2351 20.5966C44.082 20.6378 43.955 20.8748 43.8215 20.9572C43.8215 20.8302 43.8606 20.7237 43.8996 20.679L43.8085 20.7168C43.828 20.5383 43.8671 20.6207 43.8996 20.5863C43.8247 20.2876 43.6587 20.8508 43.5642 20.576L43.5252 20.7134L43.5186 20.6893C43.5121 20.7649 43.4763 20.8645 43.4535 20.8851C43.4535 20.7271 43.4893 20.528 43.4275 20.5314C43.3949 20.3768 43.2842 20.5932 43.2158 20.6688C43.2451 20.6997 43.2288 20.7821 43.2093 20.837C43.18 20.837 43.1767 20.6825 43.1474 20.7477L43.1637 20.5383C43.1572 20.7374 43.066 20.7443 43.0464 20.8267C43.0464 20.6687 43.1051 20.6962 43.1246 20.5829C43.0041 20.5898 43.0627 20.5863 42.9422 20.5932C42.8641 20.7443 42.9357 20.7924 42.8869 20.9744C42.825 21.0087 42.7566 21.1495 42.7045 21.0156V21.2045C42.5873 21.3384 42.5254 21.3109 42.4733 21.1152C41.5387 22.5507 42.1086 23.1722 42.1086 23.1722C42.3789 23.6152 42.5905 23.0898 42.9748 22.9834L42.9878 22.9593Z" fill="#ACDE45"/>
<path d="M59.3583 22.9529V23.0344C59.3721 23.0005 59.3755 22.9699 59.3583 22.9529Z" fill="#ACDE45"/>
<path d="M65.3342 25.2387C65.3342 25.2387 65.3405 25.2325 65.3468 25.2262C65.3405 25.2293 65.3374 25.2325 65.3342 25.2387Z" fill="#ACDE45"/>
<path d="M59.5831 25.748C59.5831 25.748 59.5764 25.7581 59.5731 25.7649L59.5865 25.748H59.5831Z" fill="#ACDE45"/>
<path d="M58.4823 25.2019C58.7656 25.3771 58.7526 25.7548 59.1043 25.7033C59.2443 25.7789 59.4267 25.7445 59.583 25.748C59.7296 25.4973 59.7751 25.8064 59.9217 25.6037L59.9087 25.7686C59.9608 25.6999 60.0064 25.6587 60.0129 25.7514L59.9966 25.796C60.0715 25.693 60.1008 25.7789 60.1366 25.7274L60.1203 25.772H60.1789L60.1496 25.8304C60.2604 25.7308 60.3385 25.7479 60.3874 25.8304L60.4395 25.645C60.5176 25.8991 60.6902 25.5351 60.7423 25.8235L60.726 25.8682C61.0452 25.4389 60.8726 26.2906 61.1885 25.8888C61.1494 25.9403 61.1657 25.9849 61.1494 26.0296C61.2438 26.0055 61.335 26.009 61.4555 25.6484C61.5109 25.6724 61.462 25.7789 61.4229 25.9197C61.475 25.7617 61.5467 25.7136 61.5923 25.7205L61.5532 25.772L61.6965 25.7651L61.7746 25.4595C61.8137 25.5694 61.6672 25.827 61.7551 25.7823L61.8398 25.535C61.9147 25.6175 61.8398 26.0124 61.8626 26.2253C62.185 26.4726 62.8102 26.0158 62.9795 26.5893L62.9209 26.7782C62.8232 27.0461 63.1684 26.4279 63.0837 26.6786L63.1717 26.5756C63.1651 26.6271 63.1652 26.6889 63.1228 26.7404C63.1554 26.7679 63.1717 26.7233 63.2303 26.6546L63.201 26.8366C63.2889 27.0289 63.5396 26.7645 63.6601 26.8984C63.696 27.314 64.1519 27.1663 64.4222 27.0907C64.8748 26.84 64.6892 28.0248 65.1646 27.7329C65.1549 27.7741 65.2167 27.7054 65.233 27.6745L65.4577 27.8462C65.4577 27.8462 65.7345 28.0386 66.0406 27.9115C66.3435 27.781 66.7082 27.3483 66.7864 26.0296L66.8222 25.9781C66.7505 25.7583 66.6724 25.6759 66.4314 25.8991C66.591 25.5522 66.3305 25.796 66.3533 25.669L66.3695 25.6415C66.1514 25.8544 66.2979 25.3187 66.0927 25.5076C66.109 25.4835 66.1579 25.3908 66.1807 25.3943C66.096 25.4046 65.9722 25.4354 66.0667 25.2328C65.8908 25.2054 65.7248 24.9993 65.4773 25.2706L65.5098 25.2191C65.3535 25.408 65.4252 25.2157 65.3112 25.2947C65.3209 25.2672 65.321 25.25 65.3275 25.2397C65.1679 25.4251 65.1386 25.1848 65.0474 25.2535L65.106 25.1161L64.9725 25.0886L65.0051 25.1401C64.826 25.5042 65.0181 24.8619 64.826 25.0611C64.7641 24.9753 64.3277 25.7583 64.3245 25.535C64.2105 25.6896 64.4808 25.2672 64.3635 25.3736C64.445 25.1779 64.4449 25.2637 64.4938 25.1023C64.3961 25.1676 64.4808 24.8551 64.3538 24.9547L64.4156 24.8001C64.204 25.0336 64.318 24.5185 64.1454 24.7555C63.9956 24.8379 64.2626 24.2713 64.0379 24.522L64.0802 24.2953C64.0477 24.2404 63.9467 24.5357 63.9369 24.4121C63.9923 24.2816 63.9174 24.2816 63.9956 24.1682C63.963 23.9141 63.6536 24.3606 63.6406 23.9485C63.5103 24.1888 63.4941 24.0069 63.3964 24.1889C63.4354 24.0755 63.2531 24.1099 63.4289 23.9004C63.4452 23.8832 63.455 23.8935 63.4387 23.9347L63.5071 23.7871C63.5299 23.4642 63.2922 23.8832 63.2238 23.8042C63.2303 23.8661 63.2694 23.866 63.2075 23.9622L63.1358 23.9107L63.201 23.7871L63.113 23.6634L63.0707 23.8283C63.0447 23.7218 63.1196 23.4436 62.9763 23.6428C62.9014 23.7561 62.9535 23.8798 62.8753 23.9038C62.8395 23.763 62.7809 23.557 62.6995 23.4711C62.6441 23.6565 62.6213 23.6394 62.5822 23.6634L62.6343 23.5055C62.4552 23.684 62.7158 23.1449 62.5529 23.2788L62.5985 23.1723L62.4585 23.4883C62.2598 23.763 62.5171 23.1449 62.2696 23.5295C62.3185 23.5192 62.1719 23.8832 62.1459 23.7974L62.211 23.6497C62.1719 23.6703 62.1426 23.7321 62.1328 23.6943C62.1784 23.6188 62.2143 23.478 62.1654 23.4883L62.2566 23.3097L62.084 23.5604C62.0775 23.3749 61.9147 23.5467 61.9603 23.3235C61.9603 23.3235 61.8658 23.1723 61.7584 23.3956C61.83 23.2582 61.7779 23.1758 61.8528 23.0144C61.7649 23.1655 61.6248 23.2685 61.6411 23.0762L61.6541 23.059C61.563 22.8289 61.3252 23.2204 61.2601 22.9525C61.2113 23.138 61.1722 23.0144 61.1168 23.2547C60.9117 23.4402 61.0094 22.6916 60.7456 23.4059C60.6739 23.4265 60.7228 23.2101 60.7033 23.1621L60.7293 23.1277C60.5958 23.1483 60.56 23.1449 60.4786 23.1002C60.4134 23.1586 60.3125 23.4951 60.2571 23.3887C60.319 23.2616 60.2832 23.2754 60.2539 23.2685C60.2766 23.2513 60.2994 23.2067 60.2864 23.1037C60.2701 23.1449 60.2538 23.1655 60.2408 23.1861C60.2408 23.1758 60.2441 23.1655 60.2506 23.1517C60.1887 23.1861 60.1855 23.2307 60.2017 23.2547C60.1952 23.2753 60.1887 23.3028 60.1855 23.3406C60.1855 23.1517 60.0422 23.3097 60.1008 23.0762C59.9412 23.0865 59.7719 23.2925 59.6286 23.3509C59.6482 23.2273 59.7035 23.1277 59.7523 23.0933L59.6547 23.114C59.7002 22.9423 59.7296 23.0281 59.7654 23.0006C59.7361 22.6915 59.4821 23.217 59.43 22.9285L59.3681 23.059V23.035C59.3485 23.1071 59.2964 23.1998 59.2736 23.217C59.2964 23.0624 59.3648 22.8702 59.303 22.8633C59.2932 22.7053 59.1499 22.8976 59.0685 22.9628C59.0945 22.9972 59.062 23.0796 59.0359 23.1277C59.0066 23.1277 59.0262 22.9697 58.9871 23.0281L59.0359 22.8221C59.0001 23.0178 58.9057 23.0075 58.8763 23.0899C58.8959 22.9354 58.9545 22.9732 58.9903 22.8598C58.8666 22.8461 58.9285 22.853 58.8047 22.8392C58.7038 22.9766 58.7689 23.035 58.694 23.2067C58.6289 23.2307 58.5409 23.3578 58.5051 23.217L58.4823 23.4024C58.3455 23.5158 58.2869 23.478 58.2609 23.2754C57.7008 23.9141 57.551 24.4121 57.5314 24.7486C57.5119 25.0852 57.6291 25.2569 57.6291 25.2569C57.8278 25.7342 58.1013 25.2431 58.4856 25.1985L58.4823 25.2019Z" fill="#ACDE45"/>
<path d="M73.0022 31.5176L72.9573 31.5819C72.9829 31.5582 73.0022 31.5379 73.0022 31.5176Z" fill="#ACDE45"/>
<path d="M71.452 33.705C71.452 33.705 71.4425 33.7083 71.4363 33.7117L71.4551 33.705H71.452Z" fill="#ACDE45"/>
<path d="M71.0782 32.8397C71.1531 33.0904 70.9187 33.3618 71.1727 33.4682C71.2183 33.5815 71.3518 33.633 71.4527 33.7017C71.7002 33.5815 71.5374 33.8253 71.7588 33.7429L71.6481 33.8562C71.723 33.8288 71.7816 33.8185 71.7263 33.8872L71.6905 33.9112C71.8044 33.87 71.7686 33.9421 71.824 33.9215L71.7849 33.9455L71.824 33.9696L71.7686 34.0005C71.8989 33.9764 71.938 34.0245 71.9217 34.1001L72.0715 33.9902C71.9607 34.2065 72.3027 34.0211 72.1529 34.2512L72.1138 34.2752C72.5925 34.1138 71.9379 34.6358 72.3971 34.495C72.3385 34.5122 72.319 34.5534 72.2799 34.5774C72.358 34.6015 72.4134 34.6427 72.7228 34.4504C72.7423 34.495 72.6446 34.5431 72.5274 34.6255C72.6641 34.5397 72.739 34.5397 72.7651 34.5671L72.7032 34.5843L72.8009 34.6461L73.0484 34.4675C72.9996 34.5637 72.7391 34.6736 72.827 34.6804L73.0419 34.5499C73.0354 34.6427 72.7325 34.8796 72.6055 35.0376C72.6479 35.3501 73.3578 35.3364 73.0875 35.8L72.9247 35.8962C72.6804 36.0267 73.3187 35.7794 73.0973 35.9065L73.2243 35.879C73.1852 35.9099 73.1461 35.9511 73.0842 35.9648C73.0842 35.9957 73.1266 35.9786 73.2112 35.9614L73.0712 36.0679C73.0028 36.2327 73.3382 36.1812 73.3252 36.3289C73.0712 36.6139 73.462 36.7375 73.6932 36.8234C74.1556 36.892 73.234 37.5445 73.742 37.5961C73.7095 37.6167 73.7974 37.6064 73.8267 37.5961L73.856 37.8158C73.856 37.8158 73.9081 38.0734 74.198 38.1524C74.4878 38.2245 75.0316 38.1524 75.9792 37.3694L76.0379 37.3557C76.1356 37.1805 76.1421 37.0844 75.8295 37.0981C76.1714 36.9607 75.8294 36.9813 75.9337 36.9092L75.9629 36.9024C75.6731 36.923 76.1323 36.6585 75.8685 36.6723C75.8978 36.6654 75.9923 36.6311 76.0021 36.6448C75.9402 36.607 75.836 36.5589 76.0346 36.4799C75.9369 36.3701 75.9597 36.1468 75.6145 36.1949L75.6699 36.1777C75.4387 36.2189 75.6145 36.1297 75.4875 36.1228C75.5136 36.1091 75.5233 36.0988 75.5364 36.0953C75.3052 36.1331 75.4452 35.9614 75.341 35.958L75.4713 35.8996L75.4028 35.8103L75.3898 35.8618C75.0251 36.0061 75.5852 35.6867 75.3247 35.7141C75.341 35.6248 74.5268 35.9168 74.6734 35.7691C74.4943 35.8137 74.9567 35.6729 74.8069 35.6832C74.9925 35.5939 74.9339 35.6523 75.0739 35.5699C74.9665 35.5631 75.2303 35.4017 75.0805 35.3982L75.2238 35.3261C74.9274 35.3741 75.3475 35.0857 75.0739 35.1544C74.9209 35.1338 75.4745 34.8899 75.1553 34.9449L75.3345 34.8144C75.3475 34.7629 75.087 34.9071 75.1619 34.8213C75.2856 34.7629 75.2368 34.7217 75.3605 34.6839C75.507 34.4916 75.0056 34.6392 75.2661 34.3508C75.0219 34.4504 75.1293 34.3164 74.9469 34.392C75.0479 34.3336 74.9046 34.2615 75.1586 34.21C75.1781 34.2065 75.1814 34.2169 75.1423 34.2375L75.2824 34.1688C75.5071 33.9558 75.0805 34.1207 75.0837 34.0314C75.0479 34.076 75.0739 34.0966 74.9697 34.131L74.9567 34.0589L75.0772 34.0074L75.0968 33.8769L74.96 33.9696C75.0088 33.8837 75.2433 33.7258 75.0153 33.791C74.8916 33.8322 74.846 33.9455 74.7776 33.9215C74.8428 33.8047 74.9404 33.6296 74.9404 33.5266C74.7874 33.6296 74.7809 33.6055 74.7353 33.6021L74.872 33.5163C74.6376 33.5506 75.1554 33.3034 74.96 33.3137L75.0577 33.2621L74.7613 33.4167C74.452 33.5129 75.0219 33.2003 74.6083 33.3514C74.6474 33.3686 74.3152 33.554 74.3543 33.4785L74.491 33.4064C74.452 33.4029 74.3934 33.4304 74.4129 33.3995C74.4911 33.3686 74.6083 33.2862 74.5659 33.269L74.7418 33.1866L74.4682 33.2793C74.5822 33.1454 74.364 33.1866 74.5366 33.0492C74.5366 33.0492 74.5692 32.8912 74.3543 33.0011C74.491 32.9393 74.504 32.8535 74.6604 32.7711C74.504 32.8363 74.3445 32.8397 74.478 32.7092L74.4975 32.7024C74.5822 32.486 74.1719 32.6543 74.2956 32.4311C74.1458 32.541 74.1947 32.4311 74.0091 32.5822C73.755 32.62 74.2859 32.1151 73.6639 32.5135C73.602 32.4929 73.7681 32.3589 73.7844 32.3143L73.8235 32.3006C73.7192 32.2525 73.6965 32.2319 73.6704 32.1598C73.5922 32.1735 73.3154 32.3727 73.3448 32.2697C73.4652 32.2044 73.4294 32.1976 73.4164 32.177C73.4424 32.177 73.4848 32.1495 73.5401 32.067C73.5043 32.0877 73.4783 32.098 73.4587 32.1083C73.4685 32.1014 73.475 32.098 73.4848 32.0877C73.4229 32.0842 73.3936 32.1151 73.3904 32.1426C73.3741 32.1529 73.3545 32.1735 73.3252 32.201C73.4392 32.0602 73.2471 32.1117 73.4294 31.9641C73.3155 31.8954 73.0745 31.9743 72.9442 31.9469C73.0321 31.861 73.1298 31.8129 73.1819 31.8095L73.1038 31.7786C73.2406 31.6687 73.208 31.7477 73.247 31.7477C73.4131 31.5004 72.9214 31.7786 73.0614 31.5348L72.9442 31.6069L72.9572 31.5863C72.9019 31.6343 72.8107 31.679 72.7846 31.6824C72.8921 31.5725 73.0517 31.4592 73.0158 31.4249C73.1038 31.2978 72.8921 31.3802 72.7976 31.394C72.7976 31.4317 72.726 31.4798 72.6772 31.5038C72.6576 31.4867 72.7651 31.3768 72.7032 31.4043L72.8563 31.2703C72.7163 31.4043 72.6576 31.3562 72.5892 31.4008C72.6934 31.2909 72.713 31.3459 72.8009 31.2772C72.7228 31.2085 72.7618 31.2429 72.6869 31.1776C72.5371 31.236 72.5469 31.3115 72.3971 31.4111C72.3385 31.4008 72.205 31.4592 72.2636 31.3356L72.1399 31.4695C71.9803 31.497 71.964 31.4455 72.0617 31.2738C71.3127 31.5279 70.9317 31.861 70.7233 32.1117C70.5181 32.3658 70.4888 32.5444 70.4888 32.5444C70.3358 32.9874 70.7982 32.7195 71.075 32.8432L71.0782 32.8397Z" fill="#ACDE45"/>
</svg>
