<svg width="71" height="46" viewBox="0 0 71 46" fill="none" xmlns="http://www.w3.org/2000/svg">
<path d="M70.7813 2.52185L70.7028 2.5429C70.7387 2.54641 70.7682 2.54288 70.7813 2.52185Z" fill="#20BB65"/>
<path d="M68.5358 9.30804C68.5358 9.30804 68.5434 9.31946 68.5472 9.32326C68.5472 9.31566 68.5396 9.31185 68.5358 9.30804Z" fill="#20BB65"/>
<path d="M68.1234 3.13236C68.1234 3.13236 68.1131 3.12505 68.1063 3.1214L68.1234 3.13236Z" fill="#20BB65"/>
<path d="M68.4744 1.96771C68.3605 2.27791 67.9928 2.31276 68.1002 2.65084C68.0481 2.79723 68.1002 2.9715 68.123 3.13183C68.3865 3.25731 68.0872 3.32704 68.2987 3.46298H68.1392C68.2108 3.50829 68.2564 3.55357 68.1685 3.56403L68.1262 3.55011C68.2336 3.61982 68.1555 3.65464 68.2076 3.6895L68.162 3.67558L68.1718 3.73481L68.11 3.71043C68.2173 3.81848 68.2043 3.89862 68.1327 3.9509L68.3182 3.99622C68.0774 4.08684 68.4418 4.25067 68.1653 4.3134L68.123 4.29945C68.5589 4.62011 67.7228 4.45629 68.123 4.77695C68.0742 4.73513 68.0286 4.75256 67.9831 4.73862C68.0124 4.83621 68.0123 4.93033 68.3637 5.05929C68.341 5.11854 68.2368 5.06627 68.1002 5.02445C68.2531 5.08021 68.3019 5.1569 68.2954 5.2057L68.2434 5.16387L68.2499 5.31372L68.5459 5.39737C68.4386 5.43571 68.1881 5.27888 68.2336 5.37299L68.4711 5.4671C68.3898 5.54727 68.0091 5.4601 67.8041 5.47753C67.6838 5.64134 67.7326 5.88884 67.7423 6.12237C67.7423 6.35241 67.7065 6.565 67.4332 6.63123L67.2543 6.55456C67.0005 6.42908 67.5796 6.84385 67.3421 6.73232L67.4365 6.83337C67.3877 6.81943 67.3291 6.81945 67.2803 6.76716C67.2543 6.79853 67.2933 6.81944 67.3551 6.88915L67.1827 6.84383C66.994 6.91703 67.2348 7.2098 67.0949 7.32134C66.6947 7.31437 66.802 7.81279 66.8476 8.11254C66.9485 8.36697 66.7142 8.41577 66.4865 8.45759C66.2587 8.5029 66.0472 8.54474 66.1513 8.82009C66.1123 8.80266 66.1709 8.87934 66.1969 8.90025L66.0049 9.11286C66.0049 9.11286 65.9529 9.18257 65.9073 9.29062C65.8618 9.39867 65.826 9.55203 65.865 9.72979C65.9496 10.0748 66.3043 10.5454 67.5634 10.8242L67.6057 10.8695C67.8269 10.8207 67.9213 10.7475 67.7423 10.4513C68.0547 10.6708 67.8562 10.3537 67.9766 10.3955L67.9993 10.4164C67.8236 10.148 68.3214 10.3781 68.1685 10.1306C68.1913 10.1515 68.2726 10.2177 68.2661 10.2421C68.2694 10.148 68.2564 10.0086 68.4386 10.1341C68.4906 9.94241 68.7119 9.77859 68.4809 9.47536L68.5264 9.51718C68.3605 9.32199 68.5394 9.42306 68.4776 9.28713C68.5036 9.30107 68.5199 9.30454 68.5297 9.31151C68.3702 9.11632 68.6045 9.1059 68.5492 9.00134L68.6761 9.07801L68.7184 8.93161L68.6631 8.96296C68.328 8.72944 68.9331 9.00481 68.7607 8.77129C68.8518 8.70855 68.136 8.15438 68.3507 8.17181C68.2108 8.03239 68.5948 8.36696 68.5037 8.23103C68.6858 8.33908 68.6012 8.32862 68.7542 8.39832C68.7021 8.28331 68.9949 8.40533 68.9136 8.25545L69.0567 8.33561C68.8518 8.08466 69.3398 8.24499 69.1251 8.03587C69.0567 7.8616 69.5871 8.19967 69.3593 7.93129L69.5773 7.99404C69.6326 7.96268 69.3528 7.83019 69.4765 7.82671C69.6001 7.89642 69.6066 7.80931 69.7107 7.90342C69.9645 7.87902 69.548 7.50607 69.9515 7.50607C69.7237 7.34923 69.9059 7.33875 69.7335 7.22025C69.8408 7.26904 69.8213 7.05992 70.0133 7.26556C70.0295 7.28298 70.0198 7.29694 69.9775 7.27602L70.1174 7.35618C70.4362 7.39104 70.0393 7.10874 70.1174 7.03206C70.0588 7.03903 70.0556 7.08084 69.9645 7.01113L70.0198 6.93097L70.1369 7.00415L70.2605 6.9031L70.1011 6.8543C70.2052 6.82293 70.4753 6.91353 70.2866 6.74623C70.1792 6.65909 70.0556 6.71836 70.0328 6.62774C70.1727 6.5894 70.3809 6.52319 70.4623 6.4256C70.2833 6.36635 70.2996 6.33846 70.2768 6.29315L70.4297 6.34889C70.2606 6.14325 70.7779 6.43605 70.6542 6.24784L70.7583 6.30013L70.4493 6.14326C70.1825 5.92019 70.7876 6.206 70.4135 5.92716C70.4232 5.98293 70.0686 5.82259 70.1532 5.79122L70.2963 5.86096C70.2768 5.81913 70.2182 5.78428 70.254 5.77382C70.3289 5.82262 70.4655 5.86443 70.4558 5.80518L70.6315 5.90627L70.3874 5.71804C70.5664 5.7041 70.4005 5.52284 70.6184 5.56815C70.6184 5.56815 70.7681 5.44968 70.5469 5.33814C70.6803 5.41482 70.7616 5.3486 70.921 5.42877C70.7714 5.33466 70.6738 5.17779 70.856 5.18476L70.8722 5.19872C71.0935 5.07324 70.703 4.82579 70.9601 4.73168C70.7746 4.68986 70.895 4.63408 70.6575 4.59226C70.4688 4.37616 71.1976 4.41448 70.4883 4.17747C70.4655 4.0973 70.677 4.13217 70.7193 4.1008L70.7551 4.12866C70.7226 3.97531 70.7258 3.93698 70.7616 3.8359C70.6998 3.76968 70.3647 3.693 70.459 3.6198C70.5892 3.67557 70.5696 3.63377 70.5762 3.59891C70.5924 3.62331 70.6412 3.64071 70.7388 3.61283C70.6965 3.59889 70.6738 3.58495 70.6542 3.571C70.664 3.571 70.6737 3.57101 70.6868 3.57798C70.6477 3.51176 70.6054 3.51524 70.5826 3.53616C70.5631 3.52919 70.5371 3.52918 70.4981 3.52918C70.6802 3.50478 70.5111 3.36188 70.7453 3.39673C70.716 3.212 70.5013 3.0517 70.4232 2.89834C70.5436 2.89834 70.6477 2.9471 70.69 2.9959L70.6575 2.88787C70.8299 2.91227 70.7518 2.96104 70.7811 2.9959C71.0739 2.91225 70.5306 2.7066 70.8006 2.59855L70.6672 2.55328L70.69 2.54631C70.6184 2.53933 70.5208 2.49399 70.5013 2.47308C70.6542 2.47308 70.8494 2.51492 70.8494 2.44173C71.0024 2.3999 70.7909 2.27444 70.7128 2.19427C70.6835 2.23261 70.6022 2.2117 70.5501 2.19078C70.5501 2.15593 70.6998 2.14897 70.6347 2.11411L70.8397 2.12803C70.6477 2.12803 70.638 2.01998 70.5534 1.99907C70.7063 1.98861 70.6803 2.0618 70.7941 2.07923C70.7844 1.93632 70.7876 2.00603 70.7779 1.86313C70.6282 1.77948 70.5827 1.86313 70.407 1.81782C70.3712 1.7516 70.2313 1.6819 70.3582 1.61219L70.176 1.62614C70.0393 1.50067 70.0588 1.43095 70.2443 1.35427C69.509 0.897678 69.0014 0.883718 68.6826 0.94297C68.3605 1.00571 68.2238 1.15213 68.2238 1.15213C67.8204 1.43794 68.3442 1.59478 68.4614 1.97469L68.4744 1.96771Z" fill="#20BB65"/>
<path d="M60.9853 16.8022L60.9263 16.746C60.9427 16.7777 60.9656 16.8022 60.9853 16.8022Z" fill="#20BB65"/>
<path d="M58.9159 14.9027C58.9159 14.9027 58.9159 14.8884 58.9123 14.8813V14.9027H58.9159Z" fill="#20BB65"/>
<path d="M60.0739 14.4666C59.7518 14.5538 59.5045 14.2645 59.293 14.5712C59.1434 14.6235 59.0328 14.7838 58.9189 14.9024C58.984 15.2022 58.7432 15.0035 58.7692 15.2684L58.6684 15.1359C58.6781 15.2265 58.6684 15.2928 58.6066 15.2265L58.587 15.1813C58.6 15.3172 58.5252 15.2719 58.5317 15.3416L58.5122 15.2963L58.4732 15.3416L58.4536 15.2754C58.4406 15.4323 58.3723 15.4776 58.2812 15.4567L58.3691 15.6344C58.1413 15.502 58.2584 15.9064 58.0274 15.7286L58.0079 15.6832C58.0632 16.2479 57.6142 15.4775 57.6533 16.0179C57.65 15.9516 57.6045 15.9273 57.5849 15.8819C57.5329 15.9726 57.4646 16.0388 57.6142 16.4013C57.5557 16.4223 57.5199 16.3107 57.4548 16.1747C57.5231 16.3351 57.5004 16.4222 57.4613 16.4536L57.4548 16.3839L57.354 16.4955L57.5036 16.7847C57.4027 16.729 57.3344 16.4257 57.3019 16.5303L57.406 16.7778C57.2921 16.7709 57.0839 16.4187 56.9245 16.2758C56.5178 16.3351 56.3616 17.1543 55.8476 16.858L55.763 16.6732C55.6556 16.3979 55.8183 17.1264 55.7109 16.8719L55.7174 17.0149C55.6881 16.9695 55.6458 16.9277 55.6426 16.8545C55.6003 16.858 55.6166 16.9068 55.6198 17.0009L55.5157 16.8441C55.3205 16.7709 55.314 17.1578 55.1318 17.1508C54.8194 16.8719 54.5819 17.3355 54.4355 17.604C54.2793 18.1373 53.5798 17.1334 53.4367 17.726C53.4139 17.6877 53.4172 17.7888 53.4269 17.8201L53.1406 17.8759C53.1406 17.8759 52.799 17.963 52.6721 18.3046C52.5452 18.6428 52.6201 19.2389 53.4953 20.2394L53.5083 20.3021C53.71 20.3997 53.8206 20.3997 53.8304 20.0476C53.9638 20.4241 53.9703 20.0407 54.0451 20.1522L54.0516 20.1835C54.0549 19.8558 54.3249 20.3579 54.3347 20.0616C54.3412 20.0929 54.3705 20.1975 54.3509 20.2114C54.403 20.1382 54.4681 20.0197 54.5429 20.2394C54.6828 20.1243 54.9398 20.1452 54.9268 19.7513L54.9398 19.8141C54.9203 19.5526 55.0049 19.7513 55.0277 19.6049C55.0407 19.6328 55.0504 19.6467 55.0537 19.6571C55.0407 19.3992 55.2261 19.5491 55.2424 19.4306L55.2945 19.577L55.4083 19.4968L55.3498 19.4828C55.2294 19.075 55.5287 19.699 55.532 19.4027C55.6361 19.4201 55.4181 18.5034 55.571 18.6637C55.5482 18.4615 55.6393 18.9844 55.6524 18.8136C55.7272 19.0227 55.6686 18.9565 55.7434 19.1169C55.7695 18.9949 55.9191 19.2912 55.9452 19.1169L56.0037 19.2772C55.9972 18.9426 56.2673 19.4132 56.2315 19.1029C56.2868 18.9286 56.4722 19.5561 56.4657 19.1936L56.5861 19.3957C56.6447 19.4131 56.521 19.1134 56.6121 19.2006C56.6609 19.34 56.7163 19.2842 56.7358 19.4271C56.931 19.5944 56.8562 19.0227 57.1425 19.319C57.0741 19.0401 57.2108 19.1657 57.1587 18.9531C57.2075 19.0681 57.3182 18.9077 57.3279 19.1936C57.3279 19.218 57.3149 19.218 57.2986 19.1726L57.3474 19.333C57.5492 19.5944 57.4418 19.0995 57.5427 19.1064C57.4971 19.0646 57.4678 19.0959 57.4483 18.9774L57.5361 18.9634L57.5719 19.1029L57.7216 19.1274L57.6403 18.9704C57.7314 19.0297 57.8615 19.2982 57.8355 19.0367C57.8127 18.8938 57.6923 18.8415 57.7346 18.7613C57.855 18.838 58.0372 18.9531 58.1576 18.9566C58.073 18.7788 58.1023 18.7717 58.1153 18.7229L58.1836 18.8798C58.1966 18.6114 58.3658 19.211 58.3983 18.9879L58.4341 19.1029L58.3235 18.7578C58.2845 18.3988 58.5122 19.0646 58.4341 18.587C58.4048 18.6323 58.2682 18.2454 58.3463 18.2907L58.3983 18.451C58.4113 18.4057 58.3951 18.336 58.4276 18.3604C58.4471 18.451 58.5122 18.587 58.5415 18.5417L58.5935 18.7474L58.5513 18.4267C58.6814 18.5626 58.6847 18.3082 58.8018 18.5138C58.8018 18.5138 58.9742 18.5556 58.9026 18.3081C58.9417 18.465 59.036 18.4859 59.0913 18.6672C59.0523 18.4859 59.0913 18.3046 59.2085 18.458V18.4824C59.4362 18.587 59.3451 18.1095 59.5729 18.2594C59.485 18.0816 59.5989 18.1443 59.4753 17.9212C59.5013 17.6249 59.934 18.2593 59.6477 17.5238C59.69 17.4541 59.7973 17.6527 59.8462 17.6702V17.7155C59.934 17.597 59.9633 17.5726 60.0544 17.5412C60.0609 17.4506 59.908 17.1194 60.0219 17.1578C60.0609 17.3007 60.0804 17.2588 60.1064 17.2449C60.0999 17.2763 60.1162 17.3251 60.1975 17.3913C60.1813 17.3495 60.178 17.3182 60.1748 17.2938C60.1813 17.3042 60.1845 17.3111 60.191 17.3251C60.2138 17.2519 60.1878 17.2171 60.1552 17.2101C60.1455 17.1892 60.1325 17.1647 60.1064 17.1333C60.2366 17.2728 60.2333 17.0462 60.3504 17.2658C60.4611 17.1334 60.4448 16.851 60.5131 16.6976C60.5847 16.8022 60.6107 16.9207 60.601 16.9835L60.6595 16.8928C60.7441 17.0567 60.6595 17.0148 60.653 17.0636C60.8873 17.2693 60.7149 16.6802 60.9524 16.8545L60.9068 16.7115L60.9263 16.729C60.8905 16.6628 60.8645 16.5547 60.871 16.5233C60.9621 16.6558 61.0435 16.851 61.0955 16.8057C61.2126 16.9172 61.1834 16.6628 61.1996 16.5477C61.1573 16.5442 61.1248 16.4606 61.1085 16.4013C61.1346 16.3804 61.2257 16.5093 61.2126 16.4361L61.32 16.6244C61.2126 16.4536 61.2842 16.3874 61.2517 16.3037C61.346 16.4327 61.2745 16.4501 61.3265 16.5617C61.4274 16.4745 61.3753 16.5164 61.4762 16.4293C61.4567 16.2515 61.3656 16.2584 61.3005 16.0737C61.3298 16.004 61.307 15.8401 61.4274 15.9167L61.3135 15.7634C61.333 15.5717 61.4013 15.5542 61.5608 15.6797C61.5152 14.7734 61.2679 14.2993 61.0467 14.0414C60.8255 13.7834 60.627 13.7451 60.627 13.7451C60.1618 13.5498 60.3114 14.118 60.0706 14.4457L60.0739 14.4666Z" fill="#20BB65"/>
<path d="M45.4627 22.6621L45.4163 22.5911C45.4262 22.6266 45.4395 22.6585 45.4627 22.6621Z" fill="#20BB65"/>
<path d="M45.13 20.1513C44.7819 20.1548 44.6029 19.8167 44.3036 20.0677C44.1344 20.0886 43.988 20.2245 43.8416 20.3152C43.8416 20.6219 43.6366 20.3814 43.6106 20.6463L43.5358 20.4964C43.526 20.5871 43.5065 20.6533 43.4512 20.5766L43.4414 20.5278C43.4284 20.6637 43.3568 20.608 43.3503 20.6742L43.3406 20.6254L43.2917 20.6638L43.282 20.5941C43.2364 20.7474 43.1583 20.7823 43.0705 20.7439L43.1291 20.9357C42.9176 20.7649 42.9696 21.1866 42.7614 20.9705L42.7517 20.9217C42.7126 21.4899 42.384 20.6568 42.332 21.2006C42.3385 21.1344 42.2962 21.1029 42.2864 21.0541C42.2181 21.1343 42.1367 21.1901 42.2376 21.5735C42.1758 21.5875 42.1563 21.469 42.1107 21.3226C42.1563 21.4899 42.1205 21.5771 42.0782 21.6015V21.5283L41.9643 21.6259L42.0749 21.9326C41.9806 21.8629 41.9546 21.5527 41.9058 21.6503L41.9773 21.9117C41.8634 21.8908 41.7008 21.5108 41.5511 21.347C41.1216 21.3574 40.8744 22.1557 40.3766 21.8072L40.3083 21.6154C40.2237 21.3296 40.3213 22.0721 40.2334 21.8106L40.2269 21.9535C40.2009 21.9047 40.1618 21.8594 40.1651 21.7862C40.1228 21.7862 40.1326 21.835 40.1293 21.9291L40.0382 21.7653C39.843 21.6746 39.804 22.0616 39.6185 22.0407C39.3192 21.7374 39.0361 22.1871 38.8735 22.4485C38.688 22.9679 38.0178 21.9362 37.8453 22.5218C37.8225 22.4834 37.8226 22.5845 37.8323 22.6159L37.5362 22.6612C37.5362 22.6612 36.1275 22.9714 37.8421 25.0247L37.8518 25.0874C38.0503 25.192 38.1544 25.1955 38.1739 24.8469C38.2976 25.2268 38.3138 24.8469 38.3822 24.9619L38.3887 24.9933C38.4017 24.6691 38.6522 25.1815 38.6685 24.8887C38.675 24.92 38.701 25.0282 38.6815 25.0386C38.7335 24.9689 38.8019 24.8573 38.8669 25.0804C39.0101 24.9723 39.2574 25.0107 39.2606 24.6203L39.2704 24.683C39.2606 24.4251 39.3354 24.6238 39.3647 24.4808C39.3777 24.5087 39.3842 24.5226 39.3875 24.5366C39.3875 24.2786 39.5599 24.4425 39.5827 24.3275L39.6283 24.4739L39.7454 24.4007L39.6901 24.3832C39.5925 23.9684 39.856 24.6098 39.8723 24.317C39.9699 24.3414 39.8105 23.4141 39.9536 23.5849C39.9439 23.3793 40.0024 23.9092 40.0252 23.7419C40.087 23.9545 40.0317 23.8847 40.0968 24.0486C40.1326 23.9301 40.2595 24.2368 40.2952 24.0695L40.344 24.2333C40.3603 23.8987 40.5913 24.3937 40.5783 24.0835C40.6434 23.9162 40.7833 24.5575 40.7995 24.1985L40.9037 24.4111C40.959 24.4321 40.8614 24.1253 40.9427 24.2194C40.9785 24.3623 41.037 24.3135 41.0436 24.4564C41.2192 24.6447 41.19 24.0695 41.4437 24.4007C41.4014 24.1148 41.5218 24.2542 41.4893 24.0416C41.5251 24.1601 41.6455 24.0137 41.6324 24.3031C41.6324 24.3275 41.6162 24.3274 41.6064 24.2786L41.639 24.446C41.8081 24.7284 41.7496 24.2264 41.8472 24.2508C41.8081 24.2055 41.7788 24.2298 41.7691 24.1078H41.8537L41.8732 24.2473L42.0131 24.2926L41.9513 24.1253C42.0326 24.195 42.1302 24.4808 42.1302 24.2159C42.1237 24.073 42.0131 24.0032 42.0619 23.93C42.1693 24.0242 42.332 24.1637 42.4458 24.1846C42.384 23.9963 42.4133 23.9928 42.4296 23.9475L42.4784 24.1148C42.5207 23.8499 42.615 24.4704 42.6703 24.2543L42.6931 24.3728L42.628 24.0172C42.6345 23.6581 42.7712 24.3484 42.7549 23.8638C42.7224 23.9057 42.6378 23.5013 42.7061 23.5606L42.7354 23.7244C42.7549 23.6826 42.7452 23.6129 42.7744 23.6408C42.7809 23.7314 42.8297 23.8778 42.8623 23.836L42.8883 24.0451V23.7244C42.9924 23.8778 43.0315 23.6337 43.1161 23.8534C43.1161 23.8534 43.2755 23.9265 43.2397 23.6686C43.256 23.8324 43.3406 23.8673 43.3698 24.0556C43.3568 23.8708 43.4186 23.6965 43.5065 23.8708V23.8952C43.7017 24.0416 43.6854 23.5571 43.8774 23.7488C43.8188 23.5571 43.9164 23.6408 43.8351 23.3968C43.9067 23.1109 44.2157 23.8255 44.0628 23.0447C44.1149 22.9854 44.1832 23.2015 44.2255 23.2328V23.2782C44.3199 23.1806 44.3524 23.1631 44.4435 23.1527C44.4663 23.0655 44.3817 22.7065 44.4793 22.7693C44.4923 22.9192 44.5151 22.8843 44.5444 22.8739C44.5313 22.9018 44.5411 22.954 44.6029 23.0377C44.5964 22.9924 44.5964 22.9645 44.6029 22.9366C44.6062 22.9471 44.6094 22.9575 44.6127 22.9714C44.6485 22.9052 44.6289 22.8669 44.5997 22.8529C44.5964 22.832 44.5866 22.8041 44.5704 22.7658C44.668 22.9331 44.707 22.71 44.7754 22.9506C44.9055 22.8495 44.9445 22.5671 45.0389 22.4346C45.0844 22.5566 45.0844 22.6751 45.0617 22.7344L45.1365 22.6612C45.1821 22.8425 45.1137 22.7797 45.0975 22.825C45.2732 23.0865 45.2309 22.4695 45.4196 22.6996L45.4065 22.5496L45.4196 22.5706C45.4 22.4939 45.4 22.3858 45.4131 22.3545C45.4716 22.5079 45.5042 22.717 45.5627 22.6891C45.6473 22.8251 45.6766 22.574 45.7156 22.4694C45.6766 22.452 45.6636 22.3614 45.6636 22.3021C45.6929 22.2882 45.7482 22.4381 45.7547 22.3649L45.8132 22.5775C45.7514 22.3823 45.836 22.337 45.823 22.2499C45.8816 22.4033 45.8132 22.3998 45.836 22.5183C45.9499 22.4625 45.8913 22.4904 46.0052 22.4346C46.028 22.2569 45.9434 22.2394 45.9239 22.0442C45.9694 21.9849 45.9857 21.821 46.0833 21.9291L46.0149 21.7478C46.0833 21.5701 46.1516 21.5736 46.272 21.7409C46.6657 19.9701 45.9043 19.597 45.9043 19.597C45.4879 19.2763 45.4684 19.8724 45.1365 20.1304L45.13 20.1513Z" fill="#20BB65"/>
<path d="M29.9561 27.7013L29.9069 27.6345C29.92 27.6697 29.9331 27.6978 29.9561 27.7013Z" fill="#20BB65"/>
<path d="M29.4773 25.2191C29.1292 25.2435 28.9275 24.9193 28.6412 25.1877C28.472 25.2191 28.3321 25.362 28.1922 25.4631C28.2117 25.7699 27.9904 25.5433 27.9807 25.8082L27.8961 25.6619C27.8928 25.7525 27.8766 25.8187 27.818 25.7455L27.805 25.7002C27.7985 25.8361 27.7269 25.7838 27.7237 25.8535L27.7107 25.8082L27.6618 25.85L27.6488 25.7803C27.613 25.9372 27.535 25.9755 27.4471 25.9442L27.5154 26.1324C27.2942 25.979 27.3723 26.3938 27.151 26.1916L27.138 26.1464C27.138 26.7146 26.7509 25.9093 26.7346 26.4566C26.7346 26.3869 26.6923 26.3625 26.6793 26.3172C26.6175 26.4043 26.5394 26.4671 26.6663 26.8401C26.6044 26.8575 26.5784 26.7425 26.5199 26.5996C26.5752 26.7634 26.5491 26.8506 26.5036 26.8784V26.8052L26.3897 26.9133L26.5199 27.2131C26.419 27.1503 26.3734 26.8436 26.3311 26.9447L26.419 27.1991C26.3051 27.1852 26.1132 26.8226 25.957 26.6693C25.5275 26.7146 25.3356 27.5338 24.815 27.234L24.7304 27.0493C24.623 26.7739 24.776 27.5024 24.6718 27.2514V27.3978C24.6458 27.3525 24.6003 27.3106 24.6003 27.2374C24.558 27.2409 24.5742 27.2898 24.5742 27.3839L24.4701 27.227C24.2684 27.1538 24.2554 27.5442 24.0699 27.5442C23.7478 27.2723 23.5006 27.7464 23.3574 28.0252C23.2175 28.5656 22.4627 27.6035 22.3358 28.21C22.3098 28.1752 22.3195 28.2728 22.3326 28.3076L22.043 28.3878C22.043 28.3878 21.6981 28.5064 21.5908 28.8584C21.4834 29.2105 21.6168 29.7892 22.5538 30.7165L22.5701 30.7792C22.775 30.8594 22.8792 30.8524 22.8661 30.5038C23.0223 30.8698 23.0028 30.4898 23.0841 30.5944L23.0939 30.6258C23.0776 30.2981 23.3704 30.7826 23.3607 30.4898C23.3672 30.5212 23.4062 30.6257 23.3867 30.6397C23.4322 30.5665 23.4876 30.4445 23.5754 30.6606C23.7055 30.5386 23.9561 30.5491 23.9235 30.1622L23.9398 30.2249C23.9105 29.9669 23.9984 30.1587 24.0179 30.0158C24.0309 30.0437 24.0407 30.0541 24.0439 30.068C24.0211 29.8101 24.2066 29.9565 24.2196 29.838L24.2749 29.9809L24.3823 29.8972L24.327 29.8868C24.1968 29.4824 24.5092 30.0959 24.5027 29.8031C24.6035 29.8205 24.3693 28.9073 24.5254 29.0641C24.4994 28.8619 24.6003 29.3813 24.6068 29.214C24.6849 29.4197 24.6263 29.3569 24.7011 29.5137C24.7272 29.3917 24.8768 29.6846 24.8996 29.5137L24.9614 29.6742C24.9517 29.3395 25.2184 29.8135 25.1827 29.5033C25.2347 29.329 25.4202 29.9565 25.4104 29.5974L25.5275 29.7996C25.5828 29.817 25.4625 29.5172 25.5503 29.6044C25.5959 29.7438 25.6512 29.6881 25.6707 29.831C25.8594 30.0018 25.7878 29.4336 26.0611 29.7404C25.9993 29.458 26.1294 29.5905 26.0806 29.3778C26.1262 29.4929 26.2335 29.336 26.2401 29.6253C26.2401 29.6497 26.227 29.6497 26.2108 29.6044L26.2563 29.7682C26.445 30.0366 26.3507 29.5417 26.4483 29.5556C26.406 29.5138 26.3767 29.5381 26.3604 29.4196L26.445 29.4092L26.4743 29.5486L26.6175 29.58L26.5426 29.4196C26.6272 29.4824 26.7476 29.7578 26.7281 29.4964C26.7118 29.3535 26.5979 29.2942 26.637 29.2175C26.7508 29.3012 26.9233 29.4266 27.0339 29.4406C26.9591 29.2558 26.9884 29.2523 27.0014 29.2035L27.0599 29.3639C27.0827 29.0989 27.2194 29.709 27.2584 29.4894L27.2877 29.6079L27.1966 29.2558C27.1771 28.8967 27.3625 29.573 27.3105 29.0954C27.2812 29.1373 27.1673 28.7434 27.2421 28.7957L27.2844 28.9595C27.3007 28.9142 27.2844 28.8445 27.317 28.8724C27.33 28.963 27.3853 29.106 27.4178 29.0606L27.4569 29.2663L27.4341 28.9456C27.5512 29.092 27.5708 28.8445 27.6716 29.0572C27.6716 29.0572 27.8343 29.1164 27.7822 28.8619C27.8083 29.0223 27.8961 29.0537 27.9384 29.2384C27.9124 29.0537 27.9612 28.8759 28.062 29.0432V29.0675C28.267 29.2 28.2215 28.7189 28.4232 28.8967C28.3549 28.7085 28.4557 28.7852 28.3581 28.5516C28.4102 28.2623 28.7648 28.9526 28.5631 28.1857C28.6119 28.1229 28.6932 28.3356 28.7355 28.36V28.4052C28.8266 28.3007 28.8592 28.2798 28.947 28.2658C28.9633 28.1752 28.8559 27.8266 28.96 27.8824C28.9795 28.0288 29.0023 27.9939 29.0316 27.9835C29.0218 28.0113 29.0316 28.0636 29.0999 28.1438C29.0901 28.0985 29.0902 28.0706 29.0902 28.0462C29.0934 28.0566 29.0967 28.0636 29.1032 28.0811C29.1357 28.0148 29.1129 27.973 29.0836 27.9625C29.0771 27.9416 29.0674 27.9137 29.0479 27.8789C29.1552 28.0392 29.1812 27.8161 29.2658 28.0532C29.3895 27.9451 29.409 27.6592 29.5001 27.5233C29.5522 27.6418 29.5619 27.7604 29.5424 27.8196L29.6107 27.7429C29.666 27.9207 29.5945 27.8615 29.5814 27.9068C29.7734 28.1543 29.6953 27.5442 29.897 27.7638L29.8775 27.6139L29.8905 27.6349C29.8677 27.5617 29.8612 27.4501 29.871 27.4222C29.9361 27.5686 29.9849 27.7778 30.0402 27.7464C30.1345 27.8789 30.1475 27.6244 30.1801 27.5198C30.1378 27.5059 30.1215 27.4152 30.1183 27.356C30.1443 27.342 30.2126 27.4884 30.2126 27.4152L30.2809 27.6209C30.2061 27.4292 30.2875 27.3804 30.2712 27.2933C30.3363 27.4397 30.2712 27.4432 30.2972 27.5617C30.4078 27.4989 30.3525 27.5303 30.4631 27.4675C30.4761 27.2898 30.3883 27.2758 30.3623 27.0806C30.4046 27.0213 30.4111 26.854 30.5152 26.9586L30.4371 26.7808C30.4957 26.5996 30.564 26.5995 30.6909 26.7599C30.987 24.9751 30.2061 24.6474 30.2061 24.6474C29.7701 24.3511 29.7831 24.9472 29.4643 25.2226L29.4773 25.2191Z" fill="#20BB65"/>
<path d="M15.0225 34.2852L14.9667 34.2219C14.9831 34.257 15.0028 34.2817 15.0225 34.2852Z" fill="#20BB65"/>
<path d="M9.5462 37.4809C9.5462 37.4809 9.54621 37.4919 9.54986 37.4992C9.54986 37.4919 9.54985 37.4845 9.5462 37.4809Z" fill="#20BB65"/>
<path d="M14.277 31.8796C13.9322 31.9493 13.6979 31.6496 13.4441 31.9528C13.2814 32.0051 13.1546 32.169 13.0244 32.2875C13.0765 32.5872 12.8325 32.3954 12.852 32.6603L12.7511 32.5279C12.7576 32.6186 12.7511 32.6883 12.6828 32.622L12.6633 32.5767C12.673 32.7126 12.595 32.6708 12.5982 32.7405L12.5787 32.6952L12.5364 32.744L12.5169 32.6778C12.4973 32.8381 12.4258 32.8869 12.3314 32.8695L12.4225 33.0473C12.1817 32.9253 12.3086 33.3261 12.0646 33.1588L12.0451 33.1135C12.1102 33.6781 11.6287 32.9357 11.6775 33.4795C11.6709 33.4132 11.6221 33.3923 11.6026 33.347C11.5506 33.4411 11.479 33.5143 11.6514 33.8663C11.5929 33.8942 11.5506 33.7827 11.479 33.6502C11.5538 33.8036 11.5376 33.8977 11.4985 33.9291L11.4887 33.8593L11.3879 33.9848L11.5571 34.2602C11.4497 34.2149 11.3651 33.9152 11.3358 34.0232L11.4562 34.2637C11.3423 34.2672 11.1048 33.936 10.9259 33.8106C10.4997 33.9256 10.4183 34.7655 9.85548 34.5599L9.74485 34.3926C9.59844 34.1382 9.85548 34.8353 9.71558 34.6018L9.73834 34.7446C9.70255 34.7063 9.6505 34.6715 9.64074 34.5983C9.59844 34.6122 9.62121 34.654 9.63748 34.7481L9.51061 34.6122C9.29587 34.5809 9.34141 34.9642 9.15596 34.9991C8.79157 34.7899 8.61262 35.3128 8.52152 35.6195C8.47272 36.1771 7.55197 35.4 7.53245 36.0308C7.49992 36.0029 7.52594 36.097 7.54546 36.1248L7.26892 36.2748C7.26892 36.2748 6.9468 36.4804 6.91101 36.8533C6.87197 37.2263 7.14528 37.7456 8.24498 38.4253L8.27425 38.481C8.48573 38.5124 8.58333 38.481 8.49874 38.1499C8.72324 38.4706 8.62563 38.1081 8.72649 38.1918L8.73952 38.2196C8.65818 37.9059 9.03232 38.3138 8.96725 38.0315C8.98027 38.0593 9.03559 38.1534 9.02258 38.1708C9.05186 38.0907 9.0844 37.9617 9.20803 38.1534C9.30889 38.0105 9.54639 37.9722 9.44879 37.5993L9.4748 37.6585C9.39997 37.411 9.52037 37.5852 9.51061 37.4389C9.53013 37.4633 9.53988 37.4738 9.54639 37.4842C9.47807 37.2367 9.68628 37.3448 9.67652 37.2263L9.75462 37.3552L9.84571 37.2507H9.79041C9.59519 36.8743 10.0019 37.4215 9.94657 37.1357C10.0474 37.1357 9.67002 36.2782 9.84897 36.4072C9.7904 36.212 9.9726 36.707 9.95308 36.5397C10.0604 36.7279 9.99538 36.6756 10.093 36.8185C10.0962 36.6931 10.2915 36.9579 10.2849 36.7836L10.3695 36.93C10.3077 36.6024 10.6428 37.0242 10.5582 36.7279C10.581 36.5467 10.8608 37.1357 10.7957 36.7836L10.9422 36.9649C11.0007 36.9719 10.8381 36.6965 10.9357 36.7697C11.0007 36.8986 11.0463 36.8359 11.0853 36.9754C11.2935 37.1148 11.1406 36.564 11.453 36.8254C11.3521 36.557 11.4953 36.6652 11.4204 36.463C11.4822 36.5711 11.5636 36.4002 11.6124 36.6825C11.6156 36.7069 11.6026 36.7104 11.5799 36.6651L11.6482 36.8185C11.8694 37.0555 11.7067 36.5815 11.8043 36.5815C11.7555 36.5466 11.7328 36.5745 11.7002 36.463L11.7816 36.4421L11.8304 36.578L11.9735 36.5884L11.8792 36.4421C11.9703 36.4909 12.1232 36.7453 12.0711 36.4908C12.0353 36.3514 11.915 36.3096 11.9442 36.2294C12.0679 36.2956 12.2533 36.3967 12.3639 36.3932C12.2663 36.2224 12.2956 36.2155 12.3021 36.1632L12.3802 36.3166C12.3672 36.0517 12.5819 36.6337 12.5917 36.4107L12.6373 36.5222L12.5038 36.1876C12.4388 35.8356 12.7056 36.4804 12.595 36.0099C12.5722 36.0587 12.4095 35.6822 12.4908 35.7206L12.5527 35.8739C12.5624 35.8286 12.5396 35.7624 12.5722 35.7833C12.595 35.8704 12.6698 36.0029 12.6958 35.9575L12.7609 36.1562L12.6991 35.8426C12.8325 35.9715 12.8195 35.7241 12.9463 35.9193C12.9463 35.9193 13.1123 35.9576 13.0277 35.7136C13.0732 35.8704 13.1643 35.8879 13.2261 36.0656C13.1773 35.8879 13.2034 35.7032 13.3237 35.8565V35.8809C13.545 35.9854 13.4409 35.515 13.6621 35.6648C13.571 35.4871 13.6816 35.5498 13.558 35.3302C13.5743 35.034 14.007 35.6753 13.7174 34.9398C13.7565 34.8701 13.8638 35.0688 13.9094 35.0897V35.135C13.994 35.02 14.02 34.9956 14.1079 34.9712C14.1144 34.8806 13.9679 34.546 14.0786 34.5878C14.1176 34.7307 14.1339 34.6924 14.1599 34.6784C14.1534 34.7098 14.1697 34.7586 14.2445 34.8283C14.2315 34.7864 14.2282 34.7551 14.225 34.7307C14.2315 34.7411 14.2347 34.7481 14.2412 34.7621C14.264 34.6924 14.238 34.654 14.2087 34.647C14.199 34.6261 14.1859 34.6017 14.1632 34.5669C14.2868 34.7133 14.2868 34.4868 14.3974 34.7098C14.508 34.5878 14.495 34.302 14.5699 34.1556C14.6349 34.2671 14.6577 34.3822 14.6447 34.4449L14.7065 34.3613C14.7813 34.5286 14.7065 34.4833 14.6967 34.5286C14.9147 34.7516 14.7683 34.1556 14.9928 34.3473L14.957 34.201L14.9733 34.2183C14.9408 34.1486 14.9212 34.0406 14.9277 34.0092C15.0091 34.1487 15.0806 34.3473 15.1295 34.3089C15.2368 34.4275 15.2206 34.173 15.2433 34.065C15.201 34.0545 15.175 33.9709 15.1653 33.9116C15.1913 33.8942 15.2726 34.0301 15.2661 33.9569L15.3572 34.1521C15.2628 33.9709 15.3377 33.9151 15.3116 33.828C15.393 33.9674 15.3247 33.9779 15.367 34.0894C15.4711 34.0127 15.419 34.051 15.5199 33.9778C15.5134 33.7966 15.4255 33.7966 15.3767 33.6084C15.4125 33.5421 15.3995 33.3784 15.5134 33.4655L15.4158 33.2982C15.4548 33.11 15.5199 33.1031 15.6663 33.246C15.7639 31.437 14.9505 31.2104 14.9505 31.2104C14.4853 30.9699 14.5633 31.5589 14.2803 31.8761L14.277 31.8796Z" fill="#20BB65"/>
<path d="M3.36928 43.6297L3.29968 43.5907C3.32951 43.612 3.35602 43.6262 3.36928 43.6297Z" fill="#20BB65"/>
<path d="M2.58063 45.2602C2.58063 45.2602 2.59086 45.2639 2.59768 45.2712L2.58063 45.2602Z" fill="#20BB65"/>
<path d="M1.04266 42.4656C1.04266 42.4656 1.03245 42.4583 1.02563 42.451L1.04266 42.4656Z" fill="#20BB65"/>
<path d="M1.43198 42.2072C1.29859 42.2525 0.982994 42.0781 1.04481 42.2629C0.992755 42.2978 1.03179 42.3954 1.04155 42.4651C1.26605 42.6394 1.00903 42.5313 1.19448 42.6847L1.05456 42.6115C1.11638 42.6638 1.15868 42.7021 1.0806 42.6672L1.04155 42.6429C1.13591 42.7196 1.06759 42.6987 1.11314 42.737L1.0741 42.7126L1.08385 42.7405L1.02855 42.7021C1.1229 42.7928 1.11638 42.8242 1.05456 42.8137L1.22049 42.9113C1.01227 42.8451 1.34413 43.0717 1.10337 42.981L1.06433 42.9566C1.47102 43.2703 0.722712 42.866 1.10663 43.1658C1.05783 43.1274 1.01878 43.117 0.979736 43.0926C1.01227 43.1449 1.02529 43.1867 1.35064 43.3784C1.33763 43.3923 1.24003 43.3331 1.11314 43.2634C1.2563 43.3471 1.30835 43.3958 1.30835 43.4168L1.2563 43.3784L1.28557 43.4481L1.55888 43.5945C1.47103 43.5701 1.227 43.4098 1.28231 43.469L1.50681 43.598C1.44824 43.6015 1.10012 43.4237 0.917918 43.3609C0.758495 43.4341 1.27256 43.8839 0.820316 43.7828L0.647869 43.6957C0.397347 43.5667 1.00252 43.9257 0.768268 43.8071L0.875621 43.8803C0.830071 43.8594 0.778027 43.842 0.725971 43.8071C0.709703 43.8141 0.751995 43.835 0.823573 43.8838L0.660896 43.8141C0.517741 43.8002 0.797536 43.9989 0.712944 44.0198C0.364816 43.9222 0.605592 44.1906 0.748748 44.344C1.09037 44.6194 0.026463 44.2534 0.423394 44.5602C0.384352 44.5462 0.462427 44.5915 0.494963 44.6054L0.423394 44.6821C0.423394 44.6821 0.355057 44.7832 0.573044 44.9575C0.787778 45.1353 1.29533 45.3654 2.42105 45.6896L2.47637 45.7174C2.62929 45.7349 2.66832 45.7244 2.39827 45.5641C2.7464 45.714 2.44708 45.5467 2.56421 45.585L2.5935 45.599C2.33972 45.4525 2.83425 45.6478 2.6065 45.5118C2.63253 45.5258 2.72689 45.5711 2.73014 45.578C2.69435 45.5397 2.62928 45.4804 2.82774 45.571C2.79195 45.5048 2.90908 45.4874 2.60325 45.3096L2.65857 45.3375C2.45035 45.219 2.6358 45.3026 2.53494 45.2329C2.56096 45.2434 2.57397 45.2504 2.58698 45.2539C2.38201 45.1318 2.57398 45.1876 2.49264 45.1283L2.62602 45.191L2.60976 45.1423H2.57723C2.21609 44.9575 2.81473 45.226 2.59024 45.0865C2.64555 45.0865 1.86146 44.6612 2.05016 44.724C1.88749 44.6264 2.32019 44.8739 2.19656 44.7902C2.38526 44.8843 2.31043 44.8599 2.46335 44.9296C2.38201 44.8669 2.66833 44.9994 2.5512 44.9122L2.69761 44.9854C2.44384 44.8216 2.91234 45.0342 2.66832 44.8843C2.56096 44.7937 3.10756 45.09 2.83751 44.9122L3.03923 45.0064C3.07502 45.0099 2.80173 44.8704 2.90259 44.9088C3.02622 44.975 3.00995 44.9435 3.12383 45.0133C3.3288 45.0865 2.87981 44.8041 3.22468 44.9401C2.99043 44.8006 3.1401 44.8599 2.96441 44.7553C3.06852 44.8111 3.00018 44.724 3.21491 44.8704C3.23118 44.8808 3.22794 44.8843 3.18564 44.8599L3.32554 44.9401C3.60209 45.0656 3.19864 44.8181 3.2507 44.8181C3.2019 44.7972 3.20841 44.8146 3.11406 44.7553L3.14335 44.7449L3.26047 44.8146L3.34506 44.8216L3.19539 44.7449C3.27673 44.7728 3.53052 44.9087 3.3288 44.7728C3.21493 44.6995 3.12383 44.6752 3.08478 44.6333C3.1954 44.6682 3.36132 44.724 3.41663 44.724C3.2507 44.6334 3.26046 44.6298 3.23118 44.6019L3.37433 44.6821C3.18888 44.5427 3.69319 44.853 3.55004 44.7345L3.64764 44.7937L3.35158 44.6159C3.08153 44.4277 3.65415 44.7763 3.28325 44.5253C3.30277 44.5497 2.96765 44.3475 3.03597 44.3684L3.17262 44.4521C3.14659 44.4277 3.09129 44.3928 3.12057 44.4032C3.19215 44.452 3.31903 44.5218 3.29951 44.4973L3.4687 44.6054L3.22794 44.4381C3.38411 44.5078 3.21167 44.3754 3.40688 44.4835C3.40688 44.4835 3.51749 44.5079 3.31252 44.3719C3.4394 44.4556 3.49798 44.4695 3.6509 44.5671C3.50774 44.4695 3.40037 44.3719 3.56305 44.4556L3.57931 44.4695C3.75825 44.5323 3.39386 44.2708 3.60534 44.3579C3.44267 44.2603 3.54028 44.2952 3.3288 44.1732C3.14335 44.0093 3.78428 44.3719 3.14984 43.9606C3.12381 43.9222 3.30928 44.0373 3.34832 44.0477L3.38085 44.0721C3.34506 44.0093 3.34507 43.9954 3.3711 43.9849C3.31579 43.9326 3.01971 43.7444 3.10105 43.7688C3.21492 43.849 3.19865 43.8281 3.20191 43.8211C3.21817 43.8385 3.26047 43.8664 3.34506 43.9082C3.30927 43.8838 3.28976 43.8664 3.27024 43.8525C3.28 43.8595 3.2865 43.863 3.29951 43.8699C3.26372 43.8316 3.22794 43.8106 3.20842 43.8037C3.1889 43.7932 3.16611 43.7793 3.13358 43.7584C3.293 43.842 3.14334 43.7165 3.34506 43.8455C3.31904 43.7793 3.12706 43.6154 3.0685 43.5317C3.17261 43.598 3.26046 43.6643 3.29625 43.6991L3.27024 43.6538C3.4199 43.7514 3.34831 43.7235 3.37433 43.7479C3.62811 43.8804 3.16612 43.5353 3.40362 43.6503L3.28976 43.5666L3.30928 43.5771C3.24746 43.5353 3.16611 43.4725 3.14984 43.4551C3.27998 43.5387 3.44592 43.6538 3.44592 43.6328C3.57606 43.706 3.40363 43.5562 3.34506 43.4934C3.31904 43.4865 3.24746 43.4377 3.20516 43.4028C3.20516 43.3923 3.3353 43.476 3.28325 43.4307L3.45567 43.5492C3.28974 43.4411 3.29301 43.4097 3.22143 43.3574C3.35157 43.4411 3.32554 43.4447 3.41989 43.5144C3.41989 43.4725 3.41989 43.4934 3.41989 43.4516C3.29951 43.347 3.25397 43.3435 3.10756 43.2285C3.08153 43.1902 2.97091 43.0926 3.08478 43.1483L2.9286 43.0472C2.82774 42.9357 2.85378 42.9322 3.01971 43.0228C2.46336 42.4825 2.05341 42.1653 1.77686 41.991C1.50031 41.8167 1.35716 41.7819 1.35716 41.7819C0.96348 41.639 1.37667 41.998 1.43198 42.1897V42.2072Z" fill="#20BB65"/>
</svg>
