<svg width="84" height="110" viewBox="0 0 84 110" fill="none" xmlns="http://www.w3.org/2000/svg">
<path d="M83.4372 1.4932L83.3633 1.47942C83.3954 1.49319 83.4243 1.50009 83.4372 1.4932Z" fill="#20BB65"/>
<path d="M82.0972 4.71917C82.0972 4.71917 82.1037 4.72573 82.1103 4.729C82.107 4.72245 82.1004 4.72244 82.0972 4.71917Z" fill="#20BB65"/>
<path d="M80.8975 1.01157C80.8975 1.01157 80.8883 1.00502 80.8822 1.00175L80.8975 1.01157Z" fill="#20BB65"/>
<path d="M81.2959 0.49989C81.157 0.624496 80.8145 0.534489 80.8921 0.745628C80.8372 0.811392 80.8856 0.92216 80.8985 1.01215C81.1408 1.15407 80.8662 1.11255 81.0633 1.24407L80.9147 1.19908C80.9825 1.24407 81.0245 1.28213 80.9405 1.26482L80.8985 1.24754C80.9987 1.31677 80.9244 1.31328 80.9761 1.34789L80.9341 1.32714L80.9438 1.36175L80.8856 1.33061C80.9858 1.41714 80.9793 1.46211 80.9147 1.47249L81.0892 1.54521C80.8662 1.53136 81.2151 1.71827 80.9599 1.6802L80.9179 1.65941C81.3411 1.95016 80.5561 1.64558 80.9535 1.93287C80.905 1.89825 80.863 1.89478 80.821 1.87401C80.8533 1.93631 80.863 1.99171 81.199 2.15093C81.1828 2.17862 81.0827 2.12324 80.9535 2.0644C81.1021 2.13362 81.1505 2.18898 81.1505 2.21667L81.0988 2.17861L81.1215 2.2686L81.4057 2.38974C81.3121 2.38628 81.0633 2.23398 81.1182 2.29974L81.3476 2.41053C81.283 2.43822 80.9212 2.29282 80.7338 2.25474C80.5561 2.38973 81.0439 2.89161 80.5658 2.85354L80.3913 2.77047C80.1426 2.63894 80.737 3.01622 80.5044 2.89854L80.6078 2.97818C80.5626 2.96088 80.5076 2.947 80.456 2.90547C80.4366 2.91931 80.4786 2.94008 80.5464 2.99546L80.3849 2.92972C80.2298 2.93664 80.498 3.1616 80.401 3.20313C80.0457 3.1166 80.246 3.44889 80.359 3.64619C80.6466 4.00616 79.6031 3.57698 79.9391 3.96811C79.9035 3.9508 79.9714 4.00961 80.0005 4.02692L79.8971 4.13078C79.8971 4.13078 79.7905 4.26575 79.9552 4.50804C80.1232 4.74687 80.5561 5.11031 81.6803 5.50143L81.7288 5.5395C81.9 5.54642 81.9549 5.51182 81.7223 5.2903C82.0454 5.48759 81.7902 5.24877 81.9032 5.29723L81.9291 5.31455C81.7094 5.11034 82.1875 5.34568 81.9937 5.16223C82.0195 5.17954 82.1068 5.23492 82.1068 5.24877C82.0841 5.18992 82.0389 5.09994 82.2263 5.21416C82.2198 5.1034 82.3684 5.04108 82.0938 4.80918L82.1455 4.84378C81.9582 4.69148 82.1358 4.78842 82.0486 4.6915C82.0745 4.70535 82.0874 4.70879 82.0971 4.71571C81.9129 4.56342 82.1132 4.60498 82.0421 4.52537L82.1681 4.59804V4.51844L82.1326 4.52537C81.7902 4.31423 82.3749 4.60496 82.1746 4.42498C82.2392 4.40421 81.493 3.92307 81.6868 3.97499C81.535 3.86077 81.942 4.14462 81.8322 4.04078C82.0163 4.14462 81.9388 4.12037 82.0874 4.19306C82.0163 4.11345 82.3006 4.24847 82.194 4.13771L82.3361 4.21731C82.1003 4.02002 82.572 4.22424 82.3361 4.05117C82.2424 3.93349 82.7787 4.24846 82.5235 4.04078L82.727 4.12385C82.769 4.11692 82.4977 3.97848 82.6043 4.00271C82.727 4.07194 82.7173 4.02003 82.8272 4.09964C83.0469 4.14117 82.6107 3.82965 82.9725 3.92311C82.7399 3.78119 82.9015 3.81581 82.727 3.70851C82.8336 3.76043 82.7787 3.63583 82.9855 3.79851C83.0016 3.81235 82.9952 3.81581 82.9564 3.79851L83.0953 3.87811C83.3861 3.97156 82.9855 3.71542 83.0469 3.69465C82.9919 3.68427 82.9984 3.70849 82.9047 3.64619L82.9435 3.61505L83.0598 3.68426L83.1567 3.65658L83.0049 3.5908C83.0953 3.59772 83.3537 3.71543 83.1567 3.57351C83.0468 3.49737 82.9435 3.50083 82.9112 3.44545C83.0307 3.45583 83.2116 3.46967 83.2794 3.43852C83.1082 3.35891 83.1211 3.34853 83.0921 3.31738L83.2407 3.38659C83.063 3.23083 83.5702 3.52158 83.4345 3.38659L83.5347 3.44198L83.2342 3.27931C82.9661 3.08894 83.5508 3.397 83.1761 3.15125C83.1922 3.18586 82.8498 3.00586 82.9241 3.00932L83.063 3.08546C83.0404 3.05431 82.9822 3.02314 83.0145 3.0266C83.0888 3.0716 83.2181 3.13047 83.2051 3.09586L83.3764 3.1962L83.1341 3.03007C83.2988 3.06814 83.1308 2.92971 83.3344 3.00932C83.3344 3.00932 83.4604 2.98508 83.2471 2.8674C83.3796 2.94355 83.4474 2.92972 83.6025 3.01625C83.4571 2.92626 83.3505 2.81548 83.525 2.8674L83.5411 2.88126C83.7414 2.8778 83.3635 2.63896 83.5961 2.65973C83.4216 2.58704 83.5314 2.59052 83.3053 2.50052C83.1147 2.33092 83.806 2.55936 83.1341 2.23746C83.1082 2.189 83.3085 2.2686 83.3505 2.26514L83.3828 2.28935C83.3505 2.20282 83.3505 2.18207 83.3828 2.14054C83.3247 2.08862 83.0081 1.95014 83.0985 1.94322C83.2213 2.00898 83.2019 1.98132 83.2084 1.96747C83.2245 1.98478 83.2698 2.00902 83.3634 2.02286C83.3247 2.0021 83.3021 1.98825 83.2827 1.97787C83.2924 1.98133 83.3021 1.98476 83.315 1.99168C83.2794 1.94669 83.2374 1.93634 83.2181 1.9398C83.1987 1.92941 83.1728 1.92246 83.1373 1.91208C83.3117 1.95362 83.1535 1.83248 83.3731 1.91901C83.3505 1.81863 83.1438 1.67326 83.0824 1.57288C83.1987 1.61095 83.2924 1.66633 83.3311 1.70095L83.3053 1.63862C83.4668 1.70439 83.3893 1.70093 83.4184 1.72862C83.6994 1.77708 83.1955 1.51059 83.4604 1.54174L83.3376 1.47942H83.3602C83.2924 1.45865 83.2051 1.40673 83.1858 1.38942C83.3311 1.43442 83.5121 1.5175 83.5153 1.48288C83.6607 1.51057 83.4701 1.38252 83.4054 1.32021C83.3764 1.3306 83.2988 1.29251 83.2504 1.26482C83.2504 1.24751 83.3957 1.2925 83.3376 1.25443L83.5314 1.32714C83.3473 1.26484 83.3505 1.2129 83.273 1.17482C83.4184 1.21982 83.3861 1.24408 83.4927 1.28907C83.4959 1.21639 83.4927 1.25444 83.4991 1.18175C83.3667 1.09176 83.315 1.11944 83.1534 1.03983C83.1244 0.994832 83.0016 0.918699 83.1276 0.925621L82.9532 0.873694C82.8369 0.769855 82.8692 0.74219 83.0533 0.76988C82.4201 0.31299 81.9452 0.129519 81.6351 0.0533702C81.3218 -0.0227781 81.1731 0.00490714 81.1731 0.00490714C80.7499 0.0187523 81.2248 0.271448 81.2959 0.503354V0.49989Z" fill="#20BB65"/>
<path d="M76.1615 11.9074L76.098 11.8598C76.1202 11.887 76.1424 11.9108 76.1615 11.9074Z" fill="#20BB65"/>
<path d="M73.9111 10.3158C73.9111 10.3158 73.9077 10.3021 73.9043 10.2953L73.9111 10.3158Z" fill="#20BB65"/>
<path d="M74.964 9.74495C74.6636 9.86956 74.3922 9.62033 74.2242 9.94569C74.0853 10.0149 74.0045 10.188 73.9109 10.3161C74.011 10.5964 73.7526 10.4372 73.8172 10.6899L73.7009 10.5722C73.7235 10.6587 73.7235 10.7245 73.6524 10.6691L73.6298 10.6276C73.6621 10.7591 73.5813 10.7245 73.5975 10.7903L73.5749 10.7487L73.5426 10.7972L73.5135 10.7349C73.52 10.8906 73.4618 10.9426 73.3714 10.9322L73.4812 11.0949C73.2421 10.9945 73.4134 11.3752 73.1678 11.2299L73.1452 11.1883C73.2712 11.7317 72.7414 11.036 72.848 11.5587C72.8351 11.4929 72.7899 11.4756 72.7672 11.4341C72.7285 11.5275 72.6703 11.6002 72.8642 11.9359C72.8125 11.9636 72.764 11.8563 72.68 11.7317C72.764 11.8771 72.7576 11.9671 72.722 12.0017L72.7059 11.9325L72.6219 12.0571L72.8028 12.3202C72.6962 12.2786 72.5928 11.9913 72.5766 12.0952L72.7091 12.3271C72.5993 12.334 72.357 12.019 72.1793 11.8944C71.7981 12.0017 71.7529 12.822 71.223 12.5936L71.1197 12.424C70.9808 12.1678 71.2295 12.8601 71.0938 12.6248L71.1165 12.7666C71.0841 12.7251 71.0357 12.6871 71.0228 12.6178C70.984 12.6282 71.0034 12.6697 71.0228 12.7632L70.9065 12.6213C70.7094 12.5728 70.7514 12.9501 70.5769 12.9674C70.2442 12.7286 70.073 13.2097 69.9664 13.4901C69.8792 14.03 69.0941 13.1232 69.0263 13.715C69.0004 13.6804 69.0134 13.7773 69.0263 13.8085L68.7581 13.895C68.7581 13.895 68.4416 14.0162 68.3576 14.3623C68.2736 14.7084 68.4028 15.2865 69.3558 16.1795L69.3752 16.2418C69.5819 16.3179 69.6886 16.3041 69.6595 15.958C69.8307 16.3145 69.7952 15.9372 69.8792 16.0376L69.8888 16.0687C69.8565 15.7468 70.1731 16.2106 70.1473 15.9199C70.157 15.951 70.199 16.0514 70.1796 16.0653C70.2216 15.9891 70.27 15.8645 70.367 16.0722C70.4897 15.9407 70.7417 15.9303 70.6868 15.5495L70.7062 15.6119C70.6577 15.3592 70.7611 15.5426 70.7675 15.3972C70.7837 15.4214 70.7934 15.4353 70.7998 15.4457C70.7546 15.193 70.9549 15.3211 70.9581 15.1999L71.026 15.3349L71.1261 15.2415L71.068 15.2345C70.9065 14.8469 71.2683 15.4249 71.236 15.1342C71.3361 15.1377 71.0195 14.2619 71.1875 14.4038C71.1391 14.2065 71.2909 14.7084 71.2844 14.5423C71.3813 14.7361 71.3167 14.6808 71.4072 14.8296C71.4169 14.705 71.5978 14.9784 71.601 14.8088L71.6786 14.9611C71.6333 14.6323 71.9499 15.0649 71.8789 14.7638C71.9079 14.5838 72.1664 15.1792 72.1147 14.8261L72.2568 15.0096C72.315 15.0199 72.1599 14.7396 72.2568 14.8123C72.3182 14.9438 72.3667 14.8815 72.4022 15.0199C72.6122 15.1619 72.4668 14.6081 72.7834 14.8642C72.6833 14.5977 72.8286 14.705 72.7543 14.5042C72.8157 14.6115 72.9029 14.4385 72.9482 14.7188C72.9514 14.743 72.9385 14.7465 72.9158 14.7015L72.9837 14.8538C73.2098 15.0823 73.0451 14.615 73.1452 14.6081C73.0968 14.5735 73.0741 14.608 73.0386 14.4938L73.1194 14.4696L73.1711 14.6011H73.3164L73.2195 14.4627C73.3132 14.5077 73.4747 14.7569 73.4166 14.5008C73.3778 14.3623 73.2551 14.3277 73.2841 14.2446C73.4101 14.3035 73.6007 14.3969 73.717 14.3831C73.6136 14.2169 73.6395 14.21 73.6459 14.1581L73.7332 14.3035C73.7106 14.037 73.9496 14.6046 73.9528 14.3796L74.0045 14.4869L73.8527 14.1616C73.7687 13.8154 74.0724 14.435 73.9367 13.9781C73.9141 14.0266 73.7332 13.6666 73.8139 13.7012L73.885 13.85C73.8915 13.805 73.8656 13.7393 73.9012 13.7566C73.9302 13.8431 74.011 13.9677 74.0368 13.9193L74.1144 14.1131L74.0336 13.8085C74.1758 13.9227 74.1499 13.677 74.2888 13.8604C74.2888 13.8604 74.4633 13.8777 74.3599 13.6458C74.418 13.7947 74.5117 13.805 74.586 13.9746C74.5247 13.8016 74.5376 13.6181 74.67 13.7566V13.7808C74.9059 13.8535 74.7572 13.4001 74.9963 13.5143C74.8865 13.3516 75.006 13.4001 74.8574 13.1958C74.8445 12.9016 75.3485 13.4693 74.9737 12.7874C75.0028 12.7113 75.1352 12.8947 75.1837 12.9051L75.1934 12.9501C75.258 12.822 75.2838 12.7944 75.3678 12.7528C75.3646 12.6628 75.1708 12.3582 75.2838 12.3824C75.342 12.5174 75.3549 12.4759 75.3775 12.4551C75.3775 12.4863 75.4001 12.5347 75.4841 12.5867C75.4647 12.5451 75.455 12.5175 75.4486 12.4932C75.455 12.5036 75.4615 12.5071 75.468 12.5209C75.4809 12.4482 75.4486 12.417 75.4195 12.4136C75.4098 12.3963 75.3904 12.3721 75.3646 12.3444C75.51 12.4655 75.4744 12.244 75.6166 12.4413C75.707 12.2994 75.6521 12.0225 75.6973 11.8667C75.7813 11.9602 75.8201 12.0709 75.8201 12.1332L75.8653 12.0398C75.9687 12.1886 75.8847 12.1575 75.8815 12.2059C76.1367 12.379 75.8879 11.8252 76.1432 11.9636L76.0818 11.8287L76.1012 11.8425C76.0559 11.7802 76.0204 11.6798 76.0204 11.6487C76.127 11.7663 76.2304 11.9463 76.2756 11.8979C76.4048 11.9879 76.3434 11.7456 76.3402 11.6348C76.2982 11.6348 76.2562 11.5586 76.2336 11.5033C76.253 11.479 76.3628 11.5933 76.3402 11.5241L76.4694 11.6937C76.3402 11.5414 76.4048 11.4652 76.3596 11.3891C76.4662 11.5033 76.4048 11.531 76.4662 11.6314C76.5502 11.5345 76.5082 11.5829 76.5922 11.4825C76.547 11.3095 76.463 11.3302 76.3757 11.1606C76.3951 11.0879 76.3499 10.9322 76.4791 10.991L76.3499 10.856C76.3434 10.6691 76.4048 10.6414 76.576 10.7418C76.4081 9.86264 76.1044 9.43342 75.8556 9.2119C75.6069 8.99038 75.4098 8.98002 75.4098 8.98002C74.9349 8.84849 75.1578 9.3815 74.9705 9.73456L74.964 9.74495Z" fill="#20BB65"/>
<path d="M61.679 19.0857L61.6346 19.0178C61.6441 19.0518 61.6568 19.0823 61.679 19.0857Z" fill="#20BB65"/>
<path d="M61.3117 16.6053C60.9822 16.6053 60.8045 16.2695 60.5267 16.5153C60.3684 16.5326 60.2295 16.6641 60.0938 16.7506C60.0938 17.0552 59.9 16.8129 59.8774 17.0725L59.8031 16.9237C59.7966 17.0137 59.774 17.0794 59.7255 16.9998L59.7158 16.9514C59.7029 17.0864 59.6383 17.0275 59.6318 17.0933L59.6222 17.0448L59.5737 17.0795L59.5672 17.0102C59.5252 17.159 59.4509 17.1902 59.367 17.1521L59.4219 17.3459C59.2216 17.1694 59.2668 17.5882 59.073 17.3667L59.0633 17.3183C59.0213 17.879 58.7144 17.0414 58.6627 17.5779C58.6691 17.5121 58.6304 17.4809 58.6207 17.4325C58.5561 17.5086 58.4785 17.564 58.569 17.9448C58.5108 17.9552 58.4947 17.8374 58.4495 17.6921C58.4882 17.8582 58.4559 17.9413 58.4139 17.9655L58.4204 17.8963L58.3041 17.9898L58.4042 18.2978C58.3138 18.2251 58.2944 17.9171 58.2459 18.0105L58.3073 18.2736C58.2007 18.2494 58.0489 17.8651 57.9132 17.6955C57.5062 17.6851 57.2445 18.4639 56.7825 18.0936L56.7211 17.8998C56.6501 17.6125 56.7211 18.3532 56.6436 18.0901L56.6307 18.232C56.6081 18.1836 56.5693 18.1351 56.5758 18.0659C56.5338 18.0659 56.5435 18.1109 56.537 18.2078L56.4562 18.0382C56.2753 17.9378 56.2204 18.3186 56.046 18.2874C55.7746 17.969 55.4871 18.3947 55.3191 18.6405C55.1156 19.1458 54.5341 18.0728 54.337 18.6405C54.3176 18.6024 54.3111 18.6993 54.3208 18.7339L54.0366 18.7582C54.0366 18.7582 52.67 18.9555 54.1755 21.1257L54.1819 21.1915C54.3661 21.3091 54.4695 21.323 54.5114 20.9769C54.6084 21.3611 54.6439 20.9873 54.7053 21.1049V21.1361C54.7408 20.8142 54.9508 21.3403 54.9863 21.0495C54.9863 21.0807 55.0089 21.188 54.9896 21.1984C55.0445 21.1326 55.1156 21.0253 55.1673 21.2503C55.3126 21.1534 55.5517 21.2053 55.5775 20.8211L55.584 20.8869C55.5904 20.6273 55.6518 20.8315 55.6874 20.693C55.6971 20.7207 55.7035 20.7346 55.7067 20.7484C55.7164 20.4923 55.8812 20.6653 55.907 20.5511L55.9426 20.6999L56.0589 20.6342L56.0072 20.6134C55.9361 20.1946 56.1558 20.8488 56.1881 20.5615C56.285 20.5926 56.1719 19.6616 56.3044 19.8416C56.3044 19.6373 56.3367 20.1634 56.3658 20.0008C56.4142 20.2154 56.3658 20.1427 56.4207 20.3123C56.4595 20.1946 56.5693 20.5061 56.6113 20.3434L56.6501 20.5096C56.6824 20.1807 56.8827 20.6826 56.8859 20.3746C56.957 20.2119 57.0636 20.8557 57.0959 20.4992L57.1863 20.7138C57.2413 20.738 57.1572 20.4265 57.2316 20.5234C57.2606 20.6653 57.3188 20.6203 57.322 20.7657C57.4868 20.9595 57.4803 20.3884 57.7161 20.7276C57.6871 20.4403 57.7969 20.5857 57.7743 20.3711C57.8066 20.4923 57.9294 20.3503 57.9035 20.6342C57.9035 20.6584 57.8874 20.6584 57.8777 20.61L57.9035 20.7761C58.0586 21.0634 58.0198 20.5649 58.1135 20.5892C58.0747 20.5407 58.0457 20.565 58.0424 20.4473H58.1264L58.1426 20.5926L58.2782 20.6411L58.2233 20.475C58.3009 20.5476 58.3881 20.8349 58.3978 20.5719C58.3978 20.43 58.2912 20.3573 58.3364 20.2846C58.4398 20.3815 58.5948 20.5269 58.7047 20.5511C58.6498 20.3607 58.6788 20.3607 58.695 20.3158L58.737 20.4819C58.7855 20.2223 58.863 20.8384 58.9211 20.6273L58.9405 20.7449L58.8856 20.3884C58.8985 20.0319 59.018 20.7207 59.0148 20.243C58.9825 20.2811 58.9082 19.8796 58.976 19.9385L59.0019 20.1046C59.0213 20.0631 59.0148 19.9939 59.0407 20.0215C59.0439 20.1115 59.0891 20.2569 59.1214 20.2188L59.144 20.4265L59.1505 20.1081C59.2506 20.2638 59.2926 20.0215 59.3734 20.243C59.3734 20.243 59.5285 20.3192 59.4962 20.0631C59.5091 20.2258 59.5931 20.2638 59.6157 20.4507C59.606 20.2673 59.6674 20.0977 59.7546 20.2708V20.295C59.9452 20.4438 59.9355 19.9627 60.1229 20.1565C60.068 19.9661 60.1649 20.0492 60.0841 19.807C60.1552 19.5266 60.4556 20.2396 60.3103 19.4608C60.362 19.402 60.4266 19.62 60.4686 19.6477V19.6927C60.5622 19.5958 60.5945 19.5785 60.6818 19.5716C60.7044 19.485 60.6204 19.1285 60.7173 19.1908C60.7302 19.3397 60.7528 19.305 60.7819 19.2946C60.769 19.3223 60.7787 19.3743 60.8401 19.4574C60.8336 19.4124 60.8336 19.3847 60.8401 19.357C60.8433 19.3674 60.8465 19.3777 60.8498 19.3916C60.8853 19.3293 60.8659 19.2877 60.8368 19.2739C60.8336 19.2531 60.8239 19.2254 60.8078 19.1874C60.9047 19.3535 60.9402 19.1355 61.008 19.3743C61.134 19.2739 61.1696 18.997 61.2633 18.8654C61.3085 18.9866 61.3117 19.1043 61.2891 19.1631L61.3602 19.0939C61.4054 19.2739 61.3408 19.2116 61.3247 19.2566C61.5023 19.5162 61.4539 18.907 61.6412 19.1354L61.6283 18.9866L61.6412 19.0074C61.6219 18.9312 61.6186 18.8239 61.6315 18.7928C61.6897 18.9416 61.7285 19.1527 61.7834 19.125C61.8706 19.26 61.8932 19.0108 61.9288 18.907C61.89 18.8897 61.8771 18.8032 61.8738 18.7443C61.8997 18.7305 61.9611 18.8793 61.9643 18.8066L62.0257 19.0143C61.9611 18.8205 62.0418 18.7789 62.0289 18.6889C62.0871 18.8378 62.0224 18.8378 62.0451 18.9554C62.1549 18.9001 62.1 18.9278 62.2098 18.8724C62.2292 18.6959 62.1452 18.6785 62.1226 18.4847C62.1646 18.4259 62.1775 18.2632 62.2744 18.3705L62.2034 18.1905C62.2647 18.014 62.3293 18.014 62.4521 18.1801C62.6169 17.3044 62.5038 16.7749 62.3552 16.4668C62.2066 16.1587 62.0224 16.0687 62.0224 16.0687C61.6186 15.7538 61.6219 16.3422 61.3117 16.5949V16.6053Z" fill="#20BB65"/>
<path d="M46.2768 22.7521L46.2382 22.6798C46.2446 22.7177 46.2575 22.7452 46.2768 22.7521Z" fill="#20BB65"/>
<path d="M46.1346 20.243C45.7987 20.2119 45.6501 19.8588 45.3464 20.0734C45.1849 20.0734 45.0298 20.1946 44.8844 20.2673C44.8618 20.5684 44.6841 20.3123 44.6389 20.5719L44.5775 20.4161C44.5614 20.5061 44.5387 20.5684 44.4903 20.4853L44.4838 20.4369C44.4612 20.5684 44.3966 20.5061 44.3869 20.5719L44.3805 20.5234L44.3288 20.5546V20.4853C44.2706 20.6307 44.1931 20.6549 44.1123 20.61L44.1543 20.8072C43.9637 20.6169 43.9831 21.0357 43.799 20.8038L43.7925 20.7553C43.7117 21.3091 43.4565 20.4542 43.3693 20.9838C43.379 20.918 43.3402 20.8834 43.3338 20.8349C43.2627 20.9076 43.1787 20.9561 43.2465 21.3437C43.1852 21.3507 43.1755 21.233 43.1432 21.0841C43.1722 21.2537 43.1335 21.3334 43.0915 21.3541L43.1012 21.2849L42.9784 21.368L43.0624 21.6829C42.9752 21.6033 42.9752 21.2953 42.9202 21.3853L42.9687 21.6518C42.8621 21.6172 42.7329 21.2295 42.6037 21.0495C42.1902 21.0149 41.8897 21.7764 41.4407 21.3818L41.389 21.1845C41.3308 20.8938 41.3664 21.6379 41.3017 21.368L41.2824 21.5099C41.2597 21.4614 41.2275 21.4095 41.2339 21.3403C41.1919 21.3368 41.2016 21.3853 41.1887 21.4787L41.1144 21.3057C40.9335 21.1949 40.8656 21.5722 40.688 21.5341C40.4263 21.2018 40.1194 21.6172 39.9417 21.856C39.722 22.351 39.1664 21.2607 38.9499 21.8179C38.9338 21.7799 38.9241 21.8768 38.9305 21.9114L38.643 21.9253C38.643 21.9253 37.2668 22.0845 38.7335 24.2928V24.3585C38.9176 24.4831 39.021 24.497 39.0695 24.1578C39.1567 24.5454 39.2019 24.1716 39.26 24.2928V24.3239C39.302 24.0055 39.4991 24.5351 39.5411 24.2478C39.5411 24.2789 39.5605 24.3862 39.5411 24.3966C39.5992 24.3343 39.6703 24.2305 39.7188 24.4554C39.8642 24.3654 40.1032 24.4278 40.1355 24.0436V24.1093C40.1517 23.8532 40.2066 24.0574 40.2486 23.919C40.2583 23.9467 40.2648 23.9639 40.2648 23.9743C40.2841 23.7182 40.4392 23.9017 40.4715 23.7874L40.5006 23.9397L40.6169 23.8808L40.5652 23.8566C40.507 23.4378 40.7073 24.0989 40.7461 23.8116C40.8398 23.8463 40.7623 22.9117 40.885 23.0986C40.8915 22.8944 40.9044 23.424 40.9399 23.2613C40.9819 23.4794 40.9367 23.4032 40.9819 23.5728C41.0239 23.4586 41.1208 23.7736 41.1725 23.6144L41.2048 23.784C41.2468 23.4551 41.431 23.9708 41.4439 23.6628C41.5214 23.5036 41.6022 24.1508 41.6474 23.7978L41.7282 24.0193C41.7799 24.047 41.712 23.7321 41.7799 23.8324C41.8025 23.9778 41.8639 23.9363 41.8574 24.0782C42.0125 24.2824 42.0318 23.7113 42.2483 24.0643C42.2321 23.777 42.3355 23.9293 42.3226 23.7147C42.3484 23.8359 42.4777 23.7043 42.4389 23.9882C42.4357 24.0124 42.4227 24.009 42.413 23.9605L42.4324 24.1301C42.5746 24.4278 42.5552 23.9259 42.6489 23.957C42.6134 23.9086 42.5843 23.9293 42.5843 23.8082L42.6683 23.8151L42.678 23.957L42.8104 24.0158L42.762 23.8462C42.8363 23.9224 42.9073 24.2132 42.9267 23.957C42.9299 23.8151 42.8298 23.7355 42.8815 23.6697C42.9784 23.7736 43.1238 23.9293 43.2304 23.9605C43.1852 23.7667 43.2142 23.7701 43.2336 23.7251L43.2659 23.8947C43.3273 23.6386 43.3693 24.2581 43.4404 24.0504L43.4533 24.1716L43.4177 23.8116C43.45 23.4586 43.5308 24.1543 43.5502 23.6732C43.5147 23.7113 43.4662 23.3028 43.5276 23.3686L43.5437 23.5347C43.5664 23.4932 43.5631 23.424 43.5857 23.4551C43.5857 23.5451 43.618 23.694 43.6536 23.6594L43.6633 23.8705L43.6859 23.5555C43.7763 23.7182 43.8313 23.4793 43.8959 23.7043C43.8959 23.7043 44.0445 23.7909 44.0283 23.5347C44.0283 23.6974 44.1123 23.7424 44.1252 23.9293C44.1252 23.7459 44.1995 23.5797 44.2706 23.7632V23.7874C44.4451 23.9501 44.4677 23.4724 44.6389 23.6836C44.5969 23.4897 44.6874 23.5832 44.626 23.334C44.7164 23.0571 44.9619 23.7944 44.8747 23.0086C44.9296 22.9533 44.9781 23.1748 45.0169 23.2094L45.0104 23.2544C45.1138 23.1678 45.1461 23.154 45.2333 23.154C45.2624 23.0709 45.2042 22.7075 45.2979 22.7802C45.2979 22.929 45.3238 22.8944 45.3528 22.8909C45.3399 22.9186 45.3431 22.9705 45.3981 23.0605C45.3981 23.0155 45.3981 22.9879 45.4013 22.9636C45.4013 22.974 45.4078 22.9844 45.4078 22.9982C45.4465 22.9394 45.4304 22.8944 45.4078 22.8806C45.4078 22.8598 45.3981 22.8321 45.3851 22.7906C45.4659 22.9671 45.5208 22.749 45.5693 22.9948C45.7017 22.9082 45.7599 22.6348 45.8633 22.5137C45.8988 22.6383 45.8923 22.7559 45.8633 22.8113L45.9408 22.749C45.9731 22.9325 45.9117 22.8632 45.8923 22.9048C46.0442 23.1782 46.0474 22.569 46.2122 22.8148V22.6659L46.2219 22.6902C46.2089 22.614 46.2154 22.5033 46.2283 22.4756C46.2735 22.6313 46.2929 22.8425 46.3478 22.8217C46.4221 22.9671 46.4641 22.7179 46.5126 22.621C46.4738 22.6002 46.4706 22.5102 46.4738 22.4513C46.5029 22.441 46.5481 22.5967 46.5578 22.5241L46.5998 22.7386C46.5514 22.5379 46.6386 22.5067 46.6321 22.4167C46.6774 22.5725 46.6095 22.5621 46.6257 22.6833C46.7387 22.6383 46.6838 22.6625 46.7969 22.6175C46.8324 22.4444 46.7484 22.4168 46.7452 22.2229C46.7937 22.171 46.8195 22.0083 46.9067 22.126L46.8518 21.9391C46.9293 21.7695 46.994 21.7799 47.1006 21.9599C47.6013 20.2569 46.8906 19.8104 46.8906 19.8104C46.5126 19.4504 46.4512 20.0354 46.1152 20.2569L46.1346 20.243Z" fill="#20BB65"/>
<path d="M30.9253 26.023L30.8835 25.9507C30.8931 25.9852 30.906 26.0161 30.9253 26.023Z" fill="#20BB65"/>
<path d="M30.6732 23.5244C30.334 23.5105 30.166 23.1679 29.8687 23.3998C29.704 23.4102 29.5554 23.5417 29.41 23.6247C29.4035 23.9293 29.2097 23.6836 29.1774 23.9432L29.1063 23.7909C29.0966 23.8809 29.074 23.9432 29.0223 23.8671L29.0127 23.8186C28.9965 23.9536 28.9287 23.8948 28.9222 23.9605L28.9125 23.9121L28.864 23.9467L28.8576 23.8774C28.8091 24.0262 28.7316 24.0574 28.6476 24.0193L28.6993 24.2132C28.4958 24.0367 28.5378 24.4555 28.3407 24.2339L28.331 24.1855C28.2858 24.7462 27.9757 23.912 27.9175 24.4485C27.924 24.3828 27.882 24.3516 27.8723 24.3032C27.8044 24.3828 27.7237 24.4347 27.8206 24.8154C27.7592 24.8258 27.7431 24.7082 27.6978 24.5662C27.7398 24.7324 27.7075 24.8154 27.6623 24.8397L27.6687 24.7704L27.5525 24.8674L27.6591 25.1754C27.5654 25.1062 27.5428 24.7947 27.4975 24.8916L27.5654 25.1512C27.4556 25.1269 27.2972 24.7497 27.1551 24.5835C26.7351 24.587 26.4928 25.3762 26.0083 25.0335L25.9404 24.8431C25.8564 24.5593 25.9566 25.2966 25.8694 25.037L25.8629 25.1789C25.837 25.1304 25.7983 25.0854 25.8015 25.0127C25.7595 25.0127 25.7724 25.0612 25.766 25.1546L25.6755 24.992C25.4849 24.902 25.4461 25.2862 25.2685 25.2688C24.9713 24.9712 24.6999 25.4212 24.5481 25.6877C24.3801 26.2069 23.7017 25.2031 23.5434 25.7915C23.5208 25.7534 23.524 25.8538 23.5337 25.885L23.2461 25.9438C23.2461 25.9438 22.9037 26.0373 22.7842 26.38C22.6614 26.7192 22.7745 27.3007 23.637 28.2802L23.65 28.3425C23.8406 28.4359 23.944 28.4394 23.9472 28.0933C24.0829 28.4671 24.0796 28.0898 24.1507 28.2006L24.1572 28.2317C24.1572 27.9098 24.4124 28.4082 24.4188 28.1175C24.4253 28.1486 24.4544 28.2525 24.4382 28.2663C24.4867 28.1971 24.5448 28.0829 24.6159 28.3009C24.7484 28.1902 24.9842 28.2213 24.9745 27.8371L24.9874 27.8995C24.9713 27.6433 25.0488 27.8406 25.0714 27.6987C25.0843 27.7264 25.0908 27.7402 25.094 27.7541C25.0843 27.4979 25.2588 27.6572 25.2749 27.5429L25.3202 27.6883L25.43 27.6156L25.3751 27.5983C25.2749 27.1899 25.5398 27.8233 25.5495 27.5325C25.6432 27.5568 25.472 26.6361 25.6141 26.8057C25.6012 26.6015 25.6658 27.1276 25.6852 26.9614C25.7466 27.1726 25.6949 27.1033 25.7563 27.266C25.7886 27.1449 25.9146 27.4495 25.9469 27.2833L25.9953 27.446C26.005 27.1137 26.2344 27.6052 26.2182 27.2972C26.2796 27.131 26.4185 27.7679 26.4315 27.4114L26.5316 27.6225C26.5833 27.6433 26.4864 27.3387 26.5671 27.4322C26.6027 27.5741 26.6576 27.5256 26.6673 27.6675C26.8353 27.8544 26.8062 27.2868 27.0485 27.6156C27.0065 27.3318 27.1228 27.4737 27.0905 27.2591C27.126 27.3768 27.2423 27.2349 27.2294 27.5187C27.2294 27.5429 27.2132 27.5429 27.2036 27.4945L27.2359 27.6606C27.4006 27.9444 27.3392 27.446 27.4329 27.4702C27.3942 27.4218 27.3651 27.446 27.3586 27.3283H27.4394L27.4588 27.4702L27.5912 27.5152L27.5298 27.3491C27.6074 27.4183 27.7011 27.7021 27.7011 27.4425C27.6946 27.3006 27.588 27.228 27.6332 27.1587C27.7366 27.2522 27.8917 27.3941 27.9983 27.4183C27.9401 27.228 27.9692 27.2279 27.9854 27.183L28.0306 27.3491C28.0726 27.0895 28.1598 27.7056 28.2115 27.491L28.2309 27.6087L28.1695 27.2522C28.176 26.8956 28.3052 27.5845 28.2923 27.1033C28.26 27.1414 28.1824 26.7434 28.247 26.7988L28.2761 26.9614C28.2955 26.9199 28.2858 26.8507 28.3116 26.8784C28.3181 26.9683 28.3601 27.1137 28.3956 27.0757L28.4182 27.2833V26.9649C28.5184 27.1206 28.5571 26.8784 28.6379 27.0999C28.6379 27.0999 28.7898 27.176 28.7575 26.9199C28.7704 27.0826 28.8544 27.1206 28.877 27.3076C28.8673 27.1241 28.9254 26.9545 29.0094 27.131V27.1553C29.1936 27.3076 29.1839 26.8265 29.368 27.0237C29.3163 26.8299 29.4068 26.9199 29.3325 26.6742C29.4068 26.3938 29.6911 27.1137 29.5586 26.335C29.6103 26.2761 29.6717 26.4941 29.7104 26.5253V26.5703C29.8041 26.4768 29.8332 26.4596 29.9204 26.4561C29.9431 26.3696 29.8688 26.0131 29.9624 26.0788C29.9721 26.2277 29.9947 26.193 30.0238 26.1861C30.0109 26.2138 30.0174 26.2657 30.0755 26.3522C30.069 26.3072 30.0723 26.2796 30.0755 26.2519C30.0755 26.2623 30.082 26.2726 30.0852 26.2865C30.1207 26.2242 30.1013 26.1827 30.0755 26.1688C30.0723 26.148 30.0626 26.1204 30.0464 26.0823C30.1369 26.2519 30.1789 26.0338 30.2403 26.2761C30.3663 26.1826 30.4115 25.9057 30.5052 25.7811C30.5472 25.9023 30.5439 26.02 30.5213 26.0788L30.5924 26.013C30.6312 26.193 30.5698 26.1307 30.5504 26.1722C30.7152 26.4388 30.6893 25.8296 30.8638 26.065L30.8573 25.9161L30.8702 25.9369C30.8541 25.8607 30.8573 25.7534 30.8702 25.7223C30.9219 25.8746 30.951 26.0857 31.0059 26.0615C31.0834 26.1999 31.119 25.9542 31.1577 25.8538C31.119 25.8365 31.1093 25.7465 31.1125 25.6877C31.1416 25.6738 31.19 25.8296 31.1997 25.7534L31.2482 25.9646C31.1933 25.7673 31.2773 25.7292 31.2676 25.6392C31.3193 25.7915 31.2514 25.7846 31.2708 25.9058C31.3806 25.8573 31.3257 25.8815 31.4356 25.833C31.4614 25.6565 31.3806 25.6357 31.3677 25.4419C31.4129 25.3865 31.4356 25.2239 31.5228 25.3381L31.4614 25.1546C31.5325 24.9816 31.5971 24.9885 31.7101 25.165C32.1463 23.4379 31.4226 23.0259 31.4226 23.0259C31.0285 22.6833 30.9865 23.2717 30.657 23.5105L30.6732 23.5244Z" fill="#20BB65"/>
<path d="M16.4774 31.6472L16.4201 31.5926C16.436 31.6233 16.4583 31.6472 16.4774 31.6472Z" fill="#20BB65"/>
<path d="M11.8165 35.4554C11.8165 35.4554 11.8197 35.4652 11.823 35.4717C11.823 35.4652 11.8197 35.4587 11.8165 35.4554Z" fill="#20BB65"/>
<path d="M14.3561 29.8548C14.3561 29.8548 14.3561 29.8411 14.3527 29.8343V29.8548H14.3561Z" fill="#20BB65"/>
<path d="M15.5739 29.3289C15.2347 29.4224 14.9795 29.1524 14.7469 29.4743C14.5854 29.5435 14.4756 29.72 14.356 29.8516C14.4336 30.1423 14.1751 29.9762 14.2204 30.2392L14.1073 30.1215C14.1234 30.2115 14.1202 30.2808 14.0491 30.2254L14.0265 30.1839C14.0491 30.3189 13.9684 30.2842 13.9781 30.3535L13.9555 30.3119L13.9167 30.3639L13.8908 30.3015C13.8908 30.4608 13.823 30.5161 13.7293 30.5127L13.8391 30.6753C13.5904 30.5853 13.7584 30.9661 13.4999 30.8346L13.4773 30.7931C13.6098 31.3365 13.0444 30.6754 13.1607 31.2049C13.1446 31.1392 13.0961 31.1288 13.0703 31.0873C13.0315 31.1876 12.9701 31.2707 13.1866 31.5926C13.1317 31.6272 13.0767 31.5234 12.9863 31.4057C13.0832 31.5441 13.0767 31.6376 13.0444 31.6757L13.0251 31.6064L12.9443 31.7449L13.1478 31.9906C13.038 31.963 12.912 31.6826 12.8991 31.7934L13.0509 32.008C12.941 32.0322 12.66 31.7414 12.4662 31.6514C12.0591 31.8384 12.1205 32.676 11.539 32.579L11.4033 32.4372C11.216 32.2156 11.5875 32.8456 11.4098 32.6483L11.4582 32.7833C11.4162 32.7521 11.3613 32.7279 11.3387 32.6621C11.2999 32.6829 11.329 32.721 11.3613 32.811L11.2127 32.7036C10.9995 32.7175 11.1126 33.0809 10.9381 33.1536C10.544 33.0325 10.4697 33.5794 10.4471 33.8944C10.5181 34.4378 9.465 33.9151 9.58129 34.5278C9.54576 34.507 9.591 34.5935 9.61685 34.6178L9.38747 34.8324C9.38747 34.8324 9.31962 34.9016 9.26148 35.0158C9.20333 35.1335 9.15164 35.2962 9.18071 35.4761C9.2324 35.8465 9.6233 36.255 10.8251 36.6357L10.8671 36.6841C11.0738 36.6634 11.1546 36.6149 10.9963 36.3207C11.287 36.5734 11.1061 36.2515 11.2192 36.3103L11.2386 36.3346C11.0867 36.0577 11.5358 36.3588 11.4066 36.1061C11.4259 36.1304 11.5002 36.2065 11.4906 36.2273C11.5002 36.1442 11.497 36.0161 11.6585 36.1719C11.7199 36.0161 11.9299 35.9261 11.7555 35.5973L11.7942 35.6492C11.6682 35.4311 11.8201 35.5696 11.7813 35.4311C11.8039 35.4485 11.8168 35.4589 11.8265 35.4658C11.707 35.2443 11.9267 35.3066 11.8911 35.1923L11.9945 35.2996L12.0559 35.1854L12.001 35.1958C11.7361 34.8774 12.24 35.3204 12.127 35.0573C12.2206 35.0366 11.6876 34.2924 11.8847 34.3789C11.791 34.2024 12.0624 34.642 12.0107 34.4862C12.1528 34.6454 12.0785 34.6109 12.2013 34.7285C12.1787 34.6074 12.4145 34.822 12.3757 34.6593L12.4855 34.7839C12.3596 34.4828 12.7602 34.8255 12.6212 34.5555C12.6083 34.3789 12.9863 34.8912 12.8538 34.5658L13.0251 34.7147C13.08 34.7147 12.8732 34.4758 12.9798 34.5278C13.067 34.642 13.0961 34.5762 13.1607 34.7008C13.3804 34.8012 13.1349 34.2993 13.4741 34.5001C13.3287 34.2578 13.4838 34.3409 13.3772 34.1574C13.4547 34.2509 13.5032 34.0744 13.5968 34.3409C13.6033 34.3616 13.5936 34.3686 13.5645 34.3305L13.6582 34.4689C13.9102 34.6628 13.6712 34.2335 13.7616 34.2197C13.7099 34.192 13.6938 34.2232 13.6421 34.1193L13.7132 34.0882L13.7842 34.2093L13.9199 34.1989L13.8068 34.0709C13.9038 34.1055 14.0879 34.3305 13.9942 34.0916C13.9361 33.9636 13.8165 33.9394 13.8327 33.8563C13.9619 33.9047 14.1525 33.9774 14.2559 33.9567C14.1364 33.8044 14.1622 33.794 14.159 33.7455L14.2591 33.8805C14.2042 33.6244 14.5014 34.1609 14.4723 33.9463L14.5337 34.0466L14.3528 33.742C14.2333 33.4098 14.5886 33.9982 14.4109 33.5621C14.3948 33.6105 14.1848 33.2679 14.2688 33.2956L14.3496 33.4375C14.3496 33.3925 14.3205 33.3302 14.356 33.3475C14.3916 33.4306 14.482 33.5482 14.4982 33.4998L14.5919 33.6832L14.4852 33.389C14.6306 33.4963 14.5822 33.2575 14.7275 33.434C14.7275 33.434 14.8891 33.4513 14.7728 33.2228C14.8374 33.3682 14.9246 33.3752 15.0118 33.5413C14.9408 33.3752 14.9408 33.1952 15.0732 33.3302L15.0797 33.351C15.2961 33.4306 15.1346 32.984 15.364 33.1052C15.2541 32.9425 15.364 32.9944 15.2218 32.7902C15.2024 32.5029 15.687 33.0844 15.3252 32.3956C15.3543 32.3229 15.4803 32.5099 15.5255 32.5272L15.5352 32.5722C15.5965 32.451 15.6192 32.4268 15.6999 32.3956C15.6999 32.3056 15.519 31.9941 15.6289 32.0253C15.6806 32.1637 15.6935 32.1222 15.7161 32.1049C15.7128 32.136 15.7355 32.1845 15.813 32.2468C15.7936 32.2052 15.7872 32.1775 15.7839 32.1533C15.7904 32.1637 15.7968 32.1706 15.8033 32.1845C15.8162 32.1152 15.7872 32.0806 15.7613 32.0772C15.7516 32.0564 15.7355 32.0357 15.7096 32.0045C15.8453 32.136 15.8195 31.918 15.9455 32.1256C16.0359 31.9976 15.9971 31.7172 16.0521 31.5718C16.1264 31.6757 16.1554 31.7899 16.1522 31.8487L16.2007 31.7622C16.2879 31.9214 16.2104 31.8799 16.2071 31.9249C16.4365 32.1291 16.2394 31.5545 16.472 31.7311L16.4236 31.5926L16.4397 31.6099C16.4042 31.5441 16.3751 31.4368 16.3784 31.4057C16.4688 31.5372 16.5528 31.7276 16.598 31.6895C16.7111 31.8003 16.6723 31.5545 16.6852 31.4472C16.6432 31.4403 16.6109 31.3572 16.598 31.3019C16.6206 31.2811 16.7111 31.4126 16.6982 31.3399L16.8016 31.5268C16.6982 31.3538 16.766 31.2949 16.7337 31.2119C16.8209 31.3434 16.7595 31.3572 16.808 31.468C16.8985 31.3884 16.8532 31.4299 16.9469 31.3503C16.9275 31.1738 16.8435 31.1772 16.7822 30.9938C16.8112 30.928 16.7886 30.7653 16.9049 30.8484L16.8016 30.6892C16.8274 30.5058 16.892 30.4919 17.0406 30.6269C17.0341 29.7339 16.8468 29.232 16.6433 28.962C16.443 28.6886 16.2362 28.6436 16.2362 28.6436C15.7581 28.4324 15.8615 29.0139 15.5965 29.3497L15.5739 29.3289Z" fill="#20BB65"/>
<path d="M7.10288 43.8144L7.02576 43.8075C7.05789 43.8213 7.08681 43.8282 7.10288 43.8144Z" fill="#20BB65"/>
<path d="M5.1778 49.9236C5.1778 49.9236 5.18688 49.9301 5.19293 49.9333C5.18991 49.9268 5.18384 49.9236 5.1778 49.9236Z" fill="#20BB65"/>
<path d="M4.39867 43.7652C4.39867 43.7652 4.38952 43.7554 4.38342 43.7521L4.39867 43.7652Z" fill="#20BB65"/>
<path d="M5.05543 42.5857C4.84545 42.8764 4.49009 42.828 4.49332 43.226C4.4061 43.3783 4.41903 43.586 4.39965 43.7625C4.62578 43.9425 4.32856 43.9737 4.50947 44.1536L4.35118 44.1294C4.41256 44.1917 4.45134 44.2471 4.36088 44.2471L4.31888 44.2298C4.41257 44.3198 4.32857 44.3475 4.37703 44.3925L4.33503 44.3752V44.4375L4.27688 44.4028C4.36411 44.5309 4.34473 44.6175 4.26397 44.6694L4.44164 44.7317C4.19289 44.8113 4.53856 45.012 4.25427 45.064L4.21227 45.0466C4.61609 45.4066 3.79877 45.2093 4.17997 45.5658C4.13151 45.5208 4.08629 45.5416 4.0443 45.5243C4.06691 45.6281 4.06366 45.732 4.40933 45.8635C4.38348 45.9223 4.28334 45.8739 4.14766 45.8324C4.29949 45.8877 4.34473 45.9674 4.33827 46.0193L4.28659 45.9743L4.29303 46.1335L4.59024 46.2131C4.48363 46.2546 4.23166 46.1024 4.28012 46.1993L4.51917 46.2858C4.43841 46.3689 4.06044 46.2962 3.85045 46.3342C3.61462 46.715 4.09275 47.3726 3.55648 47.6115L3.3691 47.5665C3.10097 47.4834 3.7277 47.8053 3.47895 47.7361L3.58555 47.8226C3.53386 47.8226 3.47571 47.8295 3.42402 47.788C3.4014 47.8261 3.44341 47.8434 3.51772 47.8987L3.34002 47.8884C3.16557 48.013 3.44341 48.2553 3.33034 48.4076C2.93621 48.508 3.1365 49.0029 3.25926 49.2867C3.57262 49.7228 2.4161 49.7817 2.78761 50.2455C2.74562 50.2455 2.82637 50.2974 2.85544 50.3044L2.74561 50.5951C2.74561 50.5951 2.63255 50.9551 2.83284 51.2493C3.03314 51.547 3.54679 51.7581 4.78408 51.5193L4.83899 51.5435C5.01667 51.4223 5.07483 51.3323 4.8067 51.142C5.17175 51.225 4.87453 51.0208 5.00052 51.0174L5.0296 51.0278C4.77762 50.8512 5.30742 50.8928 5.08452 50.7301C5.11359 50.7405 5.21051 50.7716 5.21051 50.7958C5.18144 50.7162 5.12652 50.5986 5.33651 50.654C5.32359 50.4774 5.47542 50.2801 5.17175 50.0794L5.22666 50.1036C5.01668 49.9755 5.21373 50.0171 5.11682 49.9167C5.14589 49.9202 5.15883 49.9201 5.17175 49.9236C4.96823 49.7921 5.1879 49.7263 5.10713 49.6432L5.24604 49.6813V49.5428L5.20728 49.5809C4.83254 49.4459 5.47219 49.5602 5.25251 49.3906C5.32358 49.3213 4.51271 48.9648 4.7227 48.9337C4.55794 48.8333 5.00052 49.0652 4.88099 48.9544C5.07806 49.0168 4.99729 49.0236 5.15881 49.0583C5.08128 48.9648 5.38818 49.0202 5.27834 48.8991L5.43342 48.9475C5.18144 48.7537 5.68862 48.8229 5.4431 48.6672C5.34619 48.5218 5.918 48.7467 5.64986 48.5391L5.86954 48.5668C5.91799 48.5322 5.62403 48.4491 5.74033 48.4318C5.86955 48.4802 5.86308 48.4041 5.97938 48.4733C6.21844 48.4283 5.7597 48.141 6.15059 48.1064C5.9083 47.9853 6.07953 47.9611 5.89862 47.8711C6.01169 47.9057 5.96322 47.7257 6.17644 47.8953C6.19259 47.9091 6.18614 47.9195 6.14414 47.9057L6.29273 47.968C6.60287 47.9818 6.18613 47.7568 6.25397 47.6876C6.19582 47.6945 6.19906 47.7326 6.10214 47.6737L6.14736 47.6011L6.27012 47.6634L6.37997 47.5699L6.21844 47.5319C6.31535 47.5042 6.58673 47.5768 6.38643 47.4315C6.27336 47.3588 6.16028 47.4107 6.12797 47.3311C6.26043 47.293 6.45749 47.2342 6.53502 47.1546C6.35735 47.0992 6.37028 47.075 6.34443 47.0369L6.49626 47.0888C6.31858 46.9054 6.84193 47.1719 6.70625 47.0092L6.80963 47.0577L6.49949 46.9123C6.22813 46.7081 6.83223 46.978 6.45426 46.7219C6.46718 46.7738 6.11183 46.6181 6.19582 46.5904L6.33797 46.6596C6.31535 46.6215 6.2572 46.5869 6.29597 46.58C6.37027 46.625 6.50595 46.67 6.49626 46.6181L6.6707 46.715L6.4252 46.535C6.60288 46.535 6.43487 46.3654 6.65132 46.4173C6.65132 46.4173 6.79347 46.3273 6.57702 46.2131C6.70948 46.2927 6.78701 46.2408 6.94531 46.3273C6.7967 46.2339 6.69979 46.0851 6.88393 46.1127L6.90008 46.1266C7.12298 46.0504 6.74824 45.7874 7.00022 45.7389C6.82254 45.6766 6.94207 45.6455 6.7127 45.5728C6.53825 45.3478 7.25221 45.5105 6.58026 45.1816C6.5641 45.1055 6.76762 45.1747 6.81285 45.1574L6.84516 45.1851C6.82901 45.0466 6.83224 45.012 6.88069 44.9324C6.82901 44.8632 6.51241 44.7248 6.61579 44.6798C6.73532 44.7559 6.72239 44.7144 6.73208 44.6867C6.745 44.7144 6.79025 44.7386 6.8904 44.7351C6.85163 44.7143 6.83223 44.6971 6.81285 44.6798C6.82254 44.6832 6.83224 44.6867 6.84516 44.6901C6.81609 44.6244 6.7741 44.6175 6.74825 44.6313C6.72887 44.6209 6.70302 44.614 6.66749 44.6071C6.8484 44.6244 6.70625 44.4652 6.92593 44.5482C6.92593 44.3856 6.73855 44.1883 6.69979 44.0325C6.81608 44.0671 6.90653 44.1363 6.93561 44.1882L6.92593 44.0879C7.08745 44.1571 7.00022 44.1744 7.02284 44.2159C7.32005 44.2263 6.8387 43.8975 7.12298 43.8837L7.00346 43.8041H7.02607C6.95823 43.7764 6.87746 43.7106 6.86131 43.6864C7.00669 43.7314 7.18436 43.8248 7.19728 43.766C7.34912 43.7798 7.17791 43.6068 7.12622 43.5133C7.09068 43.5341 7.01637 43.4925 6.97437 43.4545C6.98083 43.4233 7.12621 43.4683 7.07452 43.4199L7.26513 43.4995C7.08422 43.4337 7.10361 43.3402 7.02931 43.2953C7.17468 43.3402 7.13267 43.3921 7.23605 43.4475C7.26189 43.3229 7.24899 43.3852 7.27483 43.2606C7.1553 43.136 7.09391 43.1948 6.93884 43.091C6.92269 43.0183 6.81286 42.9076 6.94854 42.8937L6.77408 42.8383C6.68363 42.6757 6.72886 42.6237 6.92593 42.6272C6.39935 41.9349 5.95354 41.6788 5.63695 41.6027C5.32035 41.5265 5.1362 41.6269 5.1362 41.6269C4.64516 41.7757 5.06513 42.1565 5.05543 42.5857Z" fill="#20BB65"/>
<path d="M3.47525 59.7986L3.39813 59.8193C3.43348 59.8193 3.4624 59.8193 3.47525 59.7986Z" fill="#20BB65"/>
<path d="M0.887468 60.6396C0.887468 60.6396 0.877908 60.6328 0.868347 60.6294L0.887468 60.6396Z" fill="#20BB65"/>
<path d="M1.17857 59.2864C1.05904 59.636 0.706917 59.7052 0.823217 60.0894C0.78445 60.2659 0.855526 60.4598 0.887831 60.6363C1.15597 60.7332 0.881365 60.8647 1.10427 60.972L0.949212 61.0032C1.02674 61.0412 1.07844 61.0828 0.991211 61.1105H0.945978C1.06228 61.1624 0.987975 61.2143 1.04612 61.242H1.00089L1.01704 61.3009L0.952446 61.287C1.07521 61.3805 1.07842 61.4705 1.02027 61.5466H1.20765C0.994436 61.7093 1.3821 61.782 1.12689 61.9273H1.08166C1.56947 62.1281 0.73922 62.2215 1.20442 62.4327C1.14627 62.4084 1.1075 62.4431 1.06227 62.4396C1.11396 62.5331 1.14304 62.63 1.51132 62.6369C1.50486 62.7027 1.39503 62.6888 1.25288 62.6957C1.41441 62.6957 1.47901 62.7546 1.48871 62.8065L1.42732 62.7823L1.48224 62.9311L1.78591 62.9034C1.69869 62.9796 1.4144 62.9207 1.48871 62.9969H1.7407C1.69224 63.1042 1.30779 63.17 1.12365 63.2773C1.01705 63.7238 1.66961 64.1772 1.23995 64.5994L1.04936 64.6237C0.771532 64.641 1.46286 64.7206 1.20765 64.7483L1.33688 64.7898C1.28842 64.8037 1.23673 64.8348 1.17212 64.814C1.16243 64.859 1.20766 64.8591 1.29488 64.8868L1.12365 64.9421C0.997663 65.1221 1.33686 65.2536 1.27871 65.4406C0.939507 65.6828 1.28519 66.0774 1.49194 66.2989C1.92483 66.5932 0.861977 67.0847 1.36271 67.3823C1.32394 67.3962 1.4144 67.4169 1.44671 67.4135L1.43703 67.7319C1.43703 67.7319 1.44995 68.1161 1.73746 68.3134C2.02175 68.5176 2.57417 68.5142 3.65317 67.8185H3.71455C3.84054 67.6385 3.86315 67.5346 3.54979 67.4585C3.91807 67.3996 3.57563 67.32 3.69193 67.2681H3.72102C3.42704 67.2024 3.93746 67.0396 3.67578 66.9739C3.70486 66.9739 3.80823 66.967 3.81469 66.9877C3.76301 66.9254 3.67254 66.8389 3.88576 66.8112C3.81469 66.652 3.89545 66.4132 3.54332 66.337H3.6047C3.36887 66.2989 3.56593 66.2643 3.43994 66.2055C3.46902 66.1986 3.48195 66.1951 3.49487 66.1916C3.25905 66.1432 3.44641 66.0013 3.34303 65.9563L3.48517 65.9424L3.44318 65.8144L3.41411 65.8663C3.01676 65.8767 3.6564 65.7486 3.39473 65.6724C3.43996 65.579 2.56448 65.5444 2.75186 65.4371C2.56448 65.4025 3.05552 65.4579 2.90692 65.399C3.11367 65.3852 3.03936 65.4232 3.20089 65.3956C3.10074 65.3367 3.40441 65.2779 3.26227 65.2052L3.42379 65.1914C3.12658 65.1014 3.62732 64.9837 3.34303 64.9283C3.20735 64.8245 3.81793 64.8348 3.49811 64.7344L3.71455 64.6825C3.74685 64.6341 3.44641 64.6583 3.54979 64.6029C3.68547 64.6029 3.65639 64.5302 3.78884 64.5579C3.99883 64.4298 3.47872 64.326 3.83408 64.1564C3.56594 64.1287 3.721 64.0457 3.52394 64.0249C3.64024 64.018 3.5401 63.8656 3.79208 63.9487C3.81146 63.9556 3.80822 63.9695 3.76299 63.9695L3.92131 63.9764C4.21852 63.8795 3.75332 63.8172 3.79855 63.7272C3.74686 63.7549 3.75978 63.7895 3.65317 63.7687L3.67255 63.6857L3.80499 63.6995L3.87931 63.5749L3.71455 63.5957C3.79854 63.5334 4.07636 63.5092 3.84376 63.4434C3.71454 63.4122 3.62409 63.5022 3.56917 63.4399C3.68224 63.3569 3.85023 63.2357 3.89869 63.1353C3.71455 63.1457 3.721 63.118 3.68223 63.0903H3.84376C3.62085 62.9761 4.19913 63.0488 4.01822 62.9381L4.13128 62.9484L3.79531 62.9173C3.47549 62.8169 4.12806 62.8654 3.69517 62.7546C3.72101 62.7961 3.33981 62.7719 3.41088 62.72L3.56594 62.7338C3.53363 62.7027 3.46902 62.6923 3.50132 62.675C3.58532 62.6923 3.72746 62.6853 3.70161 62.6438L3.89546 62.675L3.61117 62.5919C3.77916 62.5296 3.5724 62.4292 3.78884 62.405C3.78884 62.405 3.89869 62.2735 3.65964 62.2354C3.80824 62.2666 3.86639 62.1938 4.04084 62.2181C3.87285 62.18 3.73716 62.0727 3.91807 62.0347L3.93746 62.0415C4.12483 61.8962 3.69194 61.7716 3.91807 61.6435C3.7307 61.6435 3.83408 61.5743 3.59502 61.5847C3.36565 61.4324 4.0893 61.3458 3.35596 61.2628C3.3172 61.197 3.53041 61.1936 3.5724 61.1624L3.61117 61.1797C3.55625 61.0551 3.54979 61.0205 3.5724 60.9305C3.50133 60.882 3.16213 60.8544 3.24935 60.7782C3.38503 60.8128 3.35918 60.7782 3.36241 60.747C3.3818 60.7678 3.43349 60.7782 3.52717 60.7436C3.48518 60.7366 3.45932 60.7263 3.43994 60.7159C3.44963 60.7159 3.45934 60.7159 3.47226 60.7159C3.42703 60.664 3.38503 60.6675 3.36565 60.6917C3.34626 60.6917 3.31718 60.6917 3.28165 60.6917C3.45933 60.6501 3.27842 60.5428 3.51102 60.5532C3.4658 60.3975 3.22997 60.2728 3.14921 60.1378C3.26874 60.1309 3.37535 60.169 3.41735 60.2106L3.37856 60.1171C3.54978 60.1309 3.47548 60.1759 3.50779 60.2071C3.79531 60.1206 3.24289 59.9648 3.50779 59.861L3.37211 59.8229L3.39473 59.816C3.32366 59.809 3.22673 59.7744 3.20412 59.7536C3.35595 59.7467 3.54979 59.7813 3.54655 59.719C3.69516 59.681 3.48518 59.5737 3.40764 59.501C3.37857 59.5321 3.29781 59.5148 3.24612 59.494C3.24612 59.4629 3.39473 59.456 3.33335 59.4283L3.53687 59.4421C3.34627 59.4387 3.33658 59.3418 3.25582 59.3244C3.40765 59.321 3.38181 59.3833 3.49487 59.404C3.48518 59.276 3.49163 59.3418 3.48194 59.2137C3.33334 59.1341 3.28812 59.2068 3.11367 59.1583C3.07814 59.096 2.94245 59.0233 3.06844 58.9679H2.88753C2.75831 58.8468 2.78414 58.781 2.97474 58.7257C2.28018 58.2307 1.78591 58.1234 1.46286 58.1511C1.1398 58.1788 0.991211 58.3345 0.991211 58.3345C0.56155 58.6357 1.06873 58.8676 1.17857 59.2864Z" fill="#20BB65"/>
<path d="M5.36099 75.9663L5.29755 76.0173C5.32927 76.0037 5.35464 75.9901 5.36099 75.9663Z" fill="#20BB65"/>
<path d="M3.06184 76.4786C3.08123 76.849 2.78401 77.067 3.03599 77.3716C3.0683 77.5516 3.20398 77.7004 3.3009 77.8493C3.58196 77.825 3.38167 78.0639 3.62719 78.0673L3.49474 78.1608C3.57874 78.1608 3.64335 78.1781 3.57551 78.2438L3.53351 78.2577C3.6595 78.2577 3.61427 78.3408 3.67565 78.3408L3.63365 78.3581L3.67242 78.4065L3.6078 78.4204C3.75318 78.455 3.79194 78.5346 3.7661 78.6315L3.93733 78.5519C3.80164 78.7942 4.18607 78.6938 4.00839 78.9361L3.96639 78.9534C4.48974 78.9292 3.7661 79.3757 4.27329 79.3653C4.21191 79.3653 4.1893 79.4172 4.1473 79.4345C4.23129 79.4968 4.29267 79.5765 4.63188 79.4207C4.65126 79.483 4.54466 79.5211 4.41867 79.5868C4.56728 79.5176 4.64804 79.5418 4.67711 79.5868H4.60928L4.71588 79.7045L4.98402 79.5453C4.93233 79.6561 4.65128 79.7253 4.74819 79.7599L4.97755 79.6491C4.97432 79.7703 4.64804 79.9952 4.51882 80.1752C4.59312 80.6287 5.36199 80.7602 5.12939 81.3348L4.96787 81.4421C4.72235 81.5805 5.38136 81.3486 5.15846 81.4836L5.29092 81.4663C5.25215 81.5009 5.21662 81.5528 5.15201 81.5597C5.1617 81.6047 5.20047 81.584 5.29092 81.5736L5.15522 81.6982C5.11 81.9197 5.46536 81.892 5.48798 82.0859C5.27153 82.4562 5.73673 82.6639 6.01132 82.7747C6.51852 82.8508 5.73672 83.7681 6.30853 83.82C6.27945 83.8511 6.36991 83.8269 6.39576 83.8096L6.50882 84.1038C6.50882 84.1038 6.66712 84.4465 7.0031 84.5053C7.34231 84.5641 7.84304 84.3184 8.56022 83.2142L8.61513 83.1866C8.66359 82.9651 8.64097 82.8612 8.32761 82.9304C8.64097 82.7124 8.29853 82.7954 8.38576 82.6951L8.41484 82.6812C8.12086 82.7504 8.52469 82.3766 8.25978 82.432C8.28563 82.4181 8.37607 82.3662 8.39223 82.3835C8.32115 82.3489 8.20485 82.3109 8.39223 82.1897C8.26623 82.0755 8.25009 81.8228 7.89796 81.9093L7.95288 81.8851C7.72028 81.9509 7.88827 81.8332 7.75259 81.8367C7.7752 81.8194 7.7849 81.8055 7.79782 81.8021C7.56522 81.8609 7.68151 81.6497 7.56844 81.6532L7.69444 81.5771L7.60721 81.4767L7.60074 81.5355C7.24215 81.719 7.7752 81.3244 7.50706 81.3659C7.51352 81.2621 6.69942 81.6117 6.83187 81.4317C6.64773 81.4836 7.11617 81.3175 6.9611 81.3279C7.14201 81.224 7.09033 81.2933 7.22924 81.1963C7.11294 81.186 7.37139 80.999 7.21309 80.9956L7.35524 80.9125C7.04834 80.9609 7.46183 80.6321 7.18077 80.7083C7.01602 80.6737 7.57814 80.4141 7.24862 80.466L7.4263 80.3241C7.43922 80.2652 7.17432 80.421 7.24539 80.3241C7.36815 80.2618 7.31646 80.2133 7.44568 80.1787C7.59106 79.971 7.07416 80.1025 7.33583 79.791C7.08062 79.8845 7.1937 79.7391 6.99987 79.8084C7.10324 79.753 6.95463 79.656 7.21631 79.6214C7.23892 79.6214 7.23892 79.6318 7.20016 79.6526L7.34877 79.5903C7.58137 79.3722 7.13555 79.5176 7.14201 79.4172C7.10647 79.4657 7.13232 79.4899 7.02248 79.5176L7.00957 79.4345L7.13554 79.3895L7.15816 79.2442L7.01601 79.3342C7.0677 79.2407 7.31645 79.0988 7.0774 79.1403C6.94817 79.1715 6.89973 79.2926 6.82542 79.2546C6.8965 79.13 7.00311 78.9465 7.00957 78.8322C6.84481 78.9222 6.83833 78.8946 6.79311 78.8842L6.93848 78.8115C6.69296 78.8115 7.24539 78.6211 7.0451 78.6004L7.15171 78.5588L6.83187 78.68C6.50236 78.7284 7.11616 78.4896 6.67681 78.5761C6.71881 78.6038 6.36023 78.7457 6.40222 78.6696L6.55082 78.6142C6.50882 78.6003 6.44744 78.6211 6.47005 78.5865C6.55405 78.5657 6.68005 78.5 6.64128 78.4688L6.82866 78.4134L6.5379 78.4619C6.66712 78.3338 6.44098 78.3304 6.63158 78.2162C6.63158 78.2162 6.68004 78.0466 6.44744 78.1192C6.59604 78.0812 6.61867 77.9912 6.78989 77.9358C6.6219 77.9739 6.45713 77.9358 6.60896 77.825H6.63158C6.74788 77.6104 6.30854 77.6866 6.46684 77.4685C6.29562 77.5481 6.36345 77.4408 6.15023 77.5516C5.8821 77.5135 6.51205 77.1189 5.8078 77.3612C5.74965 77.3162 5.94348 77.2228 5.96609 77.1778H6.00809C5.91117 77.0878 5.8918 77.0566 5.87888 76.9666C5.79489 76.9528 5.47505 77.0739 5.52351 76.9666C5.65919 76.9389 5.62367 76.9182 5.61397 76.8905C5.63982 76.9009 5.68826 76.8905 5.76257 76.8143C5.72057 76.8247 5.69473 76.8282 5.67212 76.8282C5.68181 76.8247 5.68827 76.8178 5.70442 76.8143C5.64304 76.7866 5.60751 76.8074 5.59459 76.8385C5.57521 76.8455 5.54937 76.8559 5.51706 76.8767C5.66567 76.7624 5.45891 76.7417 5.67535 76.6517C5.57521 76.5305 5.3103 76.5167 5.18754 76.4267C5.29738 76.3713 5.40721 76.3609 5.46213 76.3782L5.3943 76.309C5.55906 76.2467 5.50413 76.3228 5.54613 76.3367C5.77549 76.1359 5.21339 76.2294 5.41692 76.0182L5.27799 76.0425L5.29737 76.0286C5.22953 76.0528 5.12615 76.0633 5.10031 76.0529C5.23599 75.9836 5.42982 75.9317 5.40075 75.8763C5.52351 75.7794 5.29092 75.769 5.19401 75.7379C5.18109 75.7794 5.09708 75.7967 5.04216 75.8036C5.02924 75.7759 5.16492 75.7067 5.09708 75.7067L5.29092 75.634C5.11324 75.7102 5.07124 75.6271 4.98725 75.6444C5.12616 75.5752 5.12615 75.6444 5.23599 75.6133C5.18107 75.5025 5.21014 75.5579 5.15522 75.4471C4.99047 75.4368 4.97755 75.5233 4.79664 75.5544C4.74172 75.5129 4.5899 75.5025 4.68681 75.3987L4.52205 75.4783C4.35729 75.4194 4.35728 75.3467 4.50912 75.2152C3.68856 75.0525 3.1943 75.1633 2.90678 75.3225C2.61927 75.4817 2.5385 75.6929 2.5385 75.6929C2.25421 76.1532 2.80663 76.1532 3.06184 76.4924V76.4786Z" fill="#20BB65"/>
<path d="M13.2056 89.9396L13.167 90.0118C13.1927 89.9877 13.2088 89.9602 13.2056 89.9396Z" fill="#20BB65"/>
<path d="M17.5381 94.3694C17.5381 94.3694 17.5473 94.3629 17.5534 94.3596C17.5473 94.3596 17.5442 94.3661 17.5381 94.3694Z" fill="#20BB65"/>
<path d="M11.9909 92.5286C11.9909 92.5286 11.9813 92.532 11.9717 92.5354L11.9909 92.5286Z" fill="#20BB65"/>
<path d="M11.2769 91.3725C11.432 91.7048 11.2349 92.0267 11.5741 92.1997C11.6678 92.352 11.8487 92.4317 11.9876 92.5251C12.2364 92.3832 12.1362 92.6878 12.3656 92.5874L12.2784 92.7293C12.3559 92.6947 12.4205 92.6843 12.3818 92.7709L12.3495 92.802C12.4658 92.7501 12.4528 92.8436 12.511 92.8193L12.4787 92.8505L12.5336 92.8782L12.4819 92.9197C12.6273 92.8886 12.6919 92.9474 12.7048 93.0478L12.834 92.9024C12.7953 93.1793 13.1119 92.9301 13.0343 93.2278L13.002 93.2624C13.4769 93.0236 12.9665 93.7331 13.4285 93.5151C13.3703 93.5427 13.3671 93.5946 13.3348 93.6293C13.4317 93.6535 13.5189 93.6985 13.7741 93.4181C13.8129 93.47 13.7289 93.5428 13.6352 93.6604C13.7483 93.5358 13.8323 93.5254 13.8743 93.5531L13.8161 93.5843L13.955 93.6431L14.1456 93.387C14.1359 93.5081 13.9001 93.6881 14.0035 93.6812L14.1779 93.4839C14.2167 93.5981 13.9938 93.9373 13.9357 94.1554C14.1618 94.543 14.9177 94.3561 14.9016 94.9792L14.7853 95.1418C14.6044 95.3668 15.1374 94.8892 14.9791 95.1038L15.0954 95.0346C15.0728 95.083 15.0566 95.1453 14.9985 95.1765C15.0211 95.2146 15.0534 95.1765 15.1309 95.1315L15.0502 95.3011C15.0825 95.5226 15.4056 95.3564 15.4895 95.5295C15.412 95.9587 15.916 95.9691 16.2067 95.9656C16.7074 95.841 16.2842 96.9971 16.8334 96.8206C16.8173 96.8587 16.8948 96.8033 16.9142 96.7791L17.1177 97.0075C17.1177 97.0075 17.3794 97.2671 17.7122 97.1909C18.0449 97.1182 18.439 96.7029 18.7427 95.3945L18.7847 95.3495C18.7556 95.1246 18.7007 95.0346 18.4293 95.218C18.649 94.8961 18.355 95.1003 18.4035 94.9757L18.4261 94.9515C18.1741 95.128 18.4261 94.6261 18.1967 94.7784C18.2193 94.7577 18.2839 94.6711 18.3033 94.6815C18.2226 94.678 18.103 94.6815 18.2355 94.5015C18.0804 94.4427 17.977 94.2142 17.6798 94.4288L17.7251 94.3838C17.5312 94.5361 17.6475 94.3596 17.5215 94.415C17.5377 94.3907 17.5442 94.3734 17.5506 94.3665C17.3536 94.5119 17.3891 94.2696 17.2857 94.3146L17.3762 94.1934L17.2599 94.1346L17.276 94.1934C17.0079 94.505 17.3665 93.9269 17.1306 94.0723C17.1016 93.9719 16.4619 94.6192 16.5233 94.3977C16.3715 94.5188 16.7494 94.1796 16.6073 94.2523C16.7398 94.0827 16.7139 94.1692 16.8108 94.0238C16.701 94.0585 16.8722 93.7816 16.7236 93.8439L16.827 93.7123C16.5588 93.8785 16.827 93.4112 16.5944 93.5877C16.4296 93.6223 16.8625 93.1585 16.5718 93.3351L16.6848 93.1309C16.6751 93.072 16.4813 93.3212 16.5169 93.2001C16.6105 93.0928 16.5427 93.0685 16.6525 92.9855C16.7139 92.7363 16.281 93.0616 16.4135 92.6671C16.21 92.854 16.2616 92.674 16.1098 92.8159C16.1841 92.7224 16.0129 92.6913 16.2455 92.5563C16.2649 92.5459 16.2713 92.5563 16.239 92.5909L16.3521 92.4732C16.491 92.179 16.1292 92.4905 16.1001 92.3936C16.0839 92.4524 16.1163 92.4663 16.0258 92.5355L15.9838 92.4628L16.0872 92.3693L16.0549 92.224L15.9547 92.3659C15.9709 92.2586 16.1486 92.0267 15.9418 92.1617C15.832 92.2413 15.8288 92.3728 15.7512 92.3693C15.7738 92.2274 15.8061 92.0128 15.7738 91.9021C15.6511 92.0509 15.6382 92.0267 15.5929 92.0371L15.7028 91.909C15.4734 92.0059 15.9224 91.6079 15.7254 91.6702L15.8094 91.5906L15.5574 91.8294C15.2699 92.0059 15.7544 91.5352 15.3765 91.7948C15.4249 91.8052 15.1439 92.0821 15.1568 91.9921L15.2731 91.8813C15.2311 91.8848 15.1794 91.9298 15.1891 91.8917C15.2602 91.8398 15.3539 91.7256 15.3054 91.7152L15.4605 91.5871L15.2053 91.7498C15.2796 91.5767 15.0663 91.6667 15.2053 91.4833C15.2053 91.4833 15.1923 91.3067 15.0017 91.466C15.1245 91.3725 15.1148 91.2756 15.2537 91.1579C15.1116 91.2617 14.9436 91.2929 15.0437 91.1268L15.0631 91.1164C15.0922 90.8706 14.7142 91.1164 14.7821 90.8533C14.6528 90.9987 14.6787 90.8706 14.5204 91.061C14.2555 91.1372 14.6981 90.5106 14.136 91.0264C14.0649 91.0091 14.2103 90.8429 14.2167 90.791L14.2555 90.7737C14.1327 90.7322 14.1036 90.7114 14.0584 90.6318C13.9777 90.6526 13.7224 90.9018 13.7321 90.7806C13.8484 90.701 13.8097 90.6941 13.7903 90.6699C13.8194 90.6699 13.8581 90.6353 13.9001 90.5384C13.8646 90.566 13.842 90.5764 13.8193 90.5868C13.8258 90.5799 13.8323 90.5729 13.842 90.5626C13.7741 90.5626 13.7483 90.5972 13.7515 90.6283C13.7354 90.6422 13.716 90.6629 13.6934 90.6976C13.7871 90.5314 13.59 90.5972 13.758 90.4241C13.6223 90.3514 13.3735 90.4483 13.2249 90.4241C13.3057 90.3272 13.4026 90.2718 13.4608 90.2649L13.3703 90.2303C13.4995 90.1057 13.4769 90.1957 13.5189 90.1922C13.6578 89.9084 13.1732 90.2303 13.2831 89.9534L13.1668 90.033L13.1797 90.0122C13.1248 90.0641 13.0343 90.1161 13.0053 90.1161C13.1054 89.9949 13.2637 89.8668 13.2185 89.8288C13.296 89.6869 13.0763 89.7769 12.9762 89.7872C12.9762 89.8322 12.9083 89.8841 12.8599 89.9084C12.8373 89.8876 12.9374 89.7665 12.876 89.7942L13.0246 89.6453C12.889 89.7907 12.8211 89.7319 12.75 89.7838C12.8502 89.6626 12.876 89.7284 12.9665 89.6522C12.876 89.5726 12.9213 89.6107 12.8276 89.5311C12.6725 89.5899 12.6919 89.6765 12.5368 89.7803C12.469 89.763 12.3269 89.8219 12.3785 89.6834L12.2558 89.8253C12.0813 89.8392 12.0555 89.7734 12.1492 89.5865C11.3383 89.7838 10.9248 90.0953 10.718 90.3653C10.5145 90.6353 10.5177 90.8602 10.5177 90.8602C10.4241 91.4036 10.9345 91.1683 11.2899 91.3691L11.2769 91.3725Z" fill="#20BB65"/>
<path d="M25.2394 100.126L25.2233 100.209C25.2394 100.178 25.249 100.147 25.2394 100.126Z" fill="#20BB65"/>
<path d="M30.6378 102.977C30.6378 102.977 30.6444 102.971 30.6509 102.964C30.6444 102.968 30.6411 102.974 30.6378 102.977Z" fill="#20BB65"/>
<path d="M24.8318 102.989C24.8318 102.989 24.8226 102.995 24.8165 103.002L24.8318 102.989Z" fill="#20BB65"/>
<path d="M23.8279 102.134C24.0702 102.397 23.9765 102.767 24.348 102.816C24.4772 102.926 24.6711 102.944 24.8326 102.985C25.0297 102.767 25.02 103.089 25.2073 102.919L25.1653 103.082C25.23 103.023 25.2881 102.992 25.2752 103.089L25.2526 103.131C25.3495 103.044 25.3624 103.137 25.4109 103.092L25.3882 103.134L25.4464 103.144L25.4076 103.2C25.5369 103.124 25.6144 103.158 25.6532 103.248L25.7339 103.068C25.7759 103.345 26.0053 103.006 26.015 103.311L25.9924 103.352C26.3768 102.971 26.0893 103.812 26.4673 103.456C26.4188 103.501 26.4317 103.553 26.4091 103.594C26.5093 103.584 26.6029 103.601 26.7709 103.252C26.8226 103.286 26.7645 103.387 26.7063 103.525C26.7774 103.369 26.8581 103.331 26.9034 103.345L26.8549 103.394L27.0035 103.407L27.1166 103.103C27.1424 103.22 26.968 103.466 27.0617 103.432L27.1747 103.189C27.2426 103.286 27.1263 103.681 27.1295 103.906C27.4493 104.204 28.1213 103.785 28.2731 104.387L28.2085 104.577C28.0987 104.851 28.4766 104.228 28.383 104.48L28.4766 104.377C28.4669 104.428 28.467 104.494 28.4217 104.543C28.454 104.57 28.4734 104.529 28.5348 104.46L28.5025 104.647C28.5929 104.847 28.8546 104.588 28.9806 104.726C29.0226 105.159 29.504 105.013 29.7818 104.92C30.2276 104.647 30.1275 105.882 30.6056 105.546C30.5991 105.588 30.6573 105.512 30.6702 105.481L30.9222 105.64C30.9222 105.64 31.2388 105.81 31.536 105.64C31.8364 105.47 32.1045 104.951 32.0528 103.605L32.0819 103.549C31.9947 103.342 31.9204 103.272 31.7072 103.529C31.8332 103.151 31.607 103.439 31.6167 103.304L31.6329 103.276C31.4358 103.522 31.5456 102.961 31.3647 103.179C31.3809 103.151 31.4197 103.051 31.4423 103.054C31.3648 103.075 31.2484 103.117 31.3292 102.902C31.1644 102.892 31.0029 102.705 30.7736 102.999L30.8026 102.944C30.6573 103.148 30.7219 102.944 30.6153 103.034C30.625 103.006 30.625 102.989 30.6314 102.978C30.4828 103.179 30.4505 102.937 30.3633 103.009L30.4182 102.867L30.2922 102.847L30.3213 102.895C30.1468 103.276 30.3342 102.611 30.1501 102.822C30.0952 102.736 29.659 103.553 29.6558 103.324C29.5427 103.487 29.8141 103.047 29.6978 103.158C29.7818 102.957 29.7785 103.044 29.8302 102.878C29.7333 102.947 29.8238 102.629 29.6978 102.729L29.7624 102.57C29.5492 102.812 29.6816 102.279 29.504 102.525C29.3554 102.608 29.6429 102.03 29.4135 102.289L29.4684 102.061C29.4426 102.006 29.3263 102.307 29.3263 102.182C29.3877 102.051 29.3166 102.047 29.3974 101.933C29.3877 101.673 29.0614 102.123 29.0808 101.704C28.9386 101.947 28.9386 101.76 28.8288 101.943C28.874 101.829 28.6996 101.857 28.8869 101.653C28.9031 101.635 28.9128 101.646 28.8934 101.687L28.9709 101.538C29.0226 101.213 28.7609 101.625 28.706 101.538C28.706 101.601 28.7416 101.604 28.6737 101.698L28.6123 101.639L28.6834 101.518L28.6123 101.389L28.5542 101.556C28.5413 101.448 28.6446 101.168 28.4863 101.365C28.4023 101.476 28.4379 101.604 28.3603 101.625C28.341 101.483 28.3151 101.265 28.2505 101.171C28.1762 101.355 28.1568 101.334 28.1148 101.358L28.1827 101.203C27.9921 101.369 28.3054 100.846 28.1374 100.967L28.1956 100.863L28.0211 101.171C27.795 101.431 28.1278 100.829 27.8402 101.196C27.8887 101.189 27.6981 101.545 27.6852 101.452L27.7659 101.31C27.7272 101.327 27.6884 101.386 27.6884 101.344C27.7401 101.272 27.7982 101.133 27.7498 101.137L27.8628 100.964L27.6658 101.199C27.6884 101.012 27.5107 101.164 27.5882 100.943C27.5882 100.943 27.5236 100.78 27.3879 100.991C27.4784 100.863 27.4429 100.773 27.5398 100.618C27.4332 100.763 27.2846 100.846 27.333 100.656L27.3492 100.638C27.3072 100.393 27.0164 100.756 27.0035 100.479C26.9228 100.659 26.9098 100.528 26.8129 100.763C26.5836 100.919 26.8259 100.181 26.435 100.853C26.3607 100.86 26.4511 100.652 26.4414 100.6L26.4737 100.573C26.3445 100.573 26.3122 100.562 26.2443 100.503C26.1733 100.548 26.0021 100.87 25.9762 100.753C26.0634 100.638 26.0247 100.645 25.9988 100.631C26.0247 100.621 26.0537 100.576 26.0667 100.472C26.0408 100.51 26.0214 100.531 26.0053 100.545C26.0118 100.535 26.0117 100.528 26.0214 100.514C25.9568 100.535 25.9439 100.58 25.9536 100.607C25.9439 100.628 25.931 100.652 25.9181 100.69C25.9601 100.5 25.7921 100.631 25.8987 100.406C25.7468 100.382 25.5401 100.559 25.3915 100.58C25.4399 100.458 25.5142 100.375 25.5692 100.351H25.4755C25.5595 100.185 25.5659 100.278 25.6047 100.261C25.6532 99.9461 25.2881 100.413 25.3107 100.112L25.2203 100.226L25.2267 100.202C25.1912 100.271 25.1201 100.348 25.091 100.361C25.1524 100.213 25.2623 100.04 25.2073 100.015C25.2396 99.8561 25.0587 100.015 24.965 100.057C24.9812 100.098 24.9295 100.171 24.8908 100.213C24.8617 100.202 24.9231 100.053 24.8714 100.102L24.9715 99.9115C24.8843 100.095 24.8035 100.064 24.7518 100.133C24.8132 99.9842 24.8552 100.036 24.9198 99.9358C24.81 99.8908 24.8649 99.9115 24.7518 99.8665C24.6194 99.9738 24.6646 100.05 24.5483 100.199C24.4805 100.206 24.3609 100.31 24.3674 100.161L24.2931 100.337C24.1316 100.41 24.0863 100.355 24.1186 100.147C23.4079 100.611 23.1075 101.047 22.9944 101.372C22.8814 101.698 22.9492 101.909 22.9492 101.909C23.0203 102.452 23.4306 102.058 23.8279 102.127V102.134Z" fill="#20BB65"/>
<path d="M38.9212 106.111L38.9143 106.19C38.9246 106.155 38.9281 106.124 38.9212 106.111Z" fill="#20BB65"/>
<path d="M41.938 106.861C41.938 106.861 41.9413 106.851 41.9446 106.844C41.9413 106.851 41.938 106.854 41.938 106.861Z" fill="#20BB65"/>
<path d="M38.74 108.866C38.74 108.866 38.7368 108.876 38.7335 108.882L38.7433 108.866H38.74Z" fill="#20BB65"/>
<path d="M38.165 108.475C38.3039 108.617 38.2587 108.99 38.4654 108.894C38.5397 108.945 38.6463 108.887 38.7368 108.866C38.8434 108.592 38.8434 108.89 38.9436 108.665L38.9209 108.831C38.9565 108.755 38.9888 108.703 38.9823 108.797L38.9694 108.842C39.0211 108.727 39.0308 108.807 39.0566 108.748L39.0437 108.797L39.076 108.783L39.0566 108.849C39.1277 108.731 39.1697 108.734 39.1923 108.804L39.2343 108.606C39.2602 108.845 39.3829 108.45 39.3926 108.727L39.3797 108.776C39.5897 108.284 39.4411 109.164 39.6446 108.7C39.6187 108.759 39.6252 108.8 39.6155 108.849C39.6704 108.804 39.7221 108.786 39.8093 108.402C39.8384 108.416 39.8093 108.53 39.777 108.679C39.8158 108.509 39.8578 108.447 39.8836 108.444L39.8578 108.506L39.9386 108.468L39.9967 108.146C40.0129 108.246 39.9192 108.534 39.9709 108.468L40.029 108.205C40.0678 108.27 40.0064 108.675 40.0129 108.883C40.1938 109.049 40.5588 108.43 40.6461 108.942L40.6105 109.143C40.5524 109.434 40.7559 108.727 40.7042 108.997L40.7559 108.869C40.7527 108.921 40.7527 108.98 40.7268 109.042C40.7462 109.06 40.7559 109.011 40.7882 108.928L40.772 109.115C40.8237 109.274 40.9659 108.945 41.0337 109.035C41.0596 109.427 41.3212 109.136 41.4731 108.963C41.7121 108.565 41.6669 109.762 41.9253 109.302C41.9253 109.343 41.9544 109.254 41.9609 109.222L42.0998 109.295C42.0998 109.295 42.271 109.361 42.4325 109.112C42.5941 108.862 42.7362 108.295 42.7007 107.031L42.7168 106.969C42.6684 106.799 42.6264 106.754 42.5133 107.063C42.5779 106.671 42.4584 107.007 42.4648 106.879L42.4713 106.848C42.3679 107.139 42.4229 106.578 42.3259 106.838C42.3324 106.806 42.355 106.699 42.3679 106.696C42.3259 106.737 42.2645 106.813 42.3065 106.585C42.2161 106.626 42.1289 106.498 42.0061 106.848L42.0223 106.786C41.9447 107.024 41.977 106.813 41.9221 106.931C41.9253 106.9 41.9286 106.886 41.9286 106.872C41.8478 107.108 41.8284 106.889 41.7832 106.986L41.8123 106.834L41.7412 106.855L41.7574 106.893C41.6637 107.305 41.7638 106.623 41.6637 106.879C41.6314 106.817 41.402 107.72 41.3988 107.506C41.3374 107.696 41.4828 107.194 41.4214 107.336C41.4666 107.121 41.4634 107.204 41.4925 107.031C41.4408 107.125 41.486 106.799 41.4181 106.934L41.4505 106.765C41.3374 107.059 41.402 106.523 41.3083 106.806C41.2275 106.931 41.3794 106.301 41.2566 106.616L41.2857 106.384C41.2695 106.343 41.2114 106.658 41.2082 106.543C41.2405 106.401 41.2017 106.422 41.2437 106.291C41.234 106.052 41.0596 106.578 41.066 106.183C40.9885 106.457 40.9885 106.284 40.9303 106.488C40.9562 106.367 40.8593 106.45 40.9594 106.197C40.9691 106.176 40.9723 106.183 40.9594 106.228L41.0014 106.066C41.0272 105.744 40.8883 106.218 40.856 106.159C40.856 106.218 40.8754 106.208 40.8399 106.318L40.8043 106.287L40.8431 106.149L40.8043 106.052L40.7753 106.225C40.7656 106.128 40.8205 105.834 40.7365 106.069C40.6913 106.201 40.7107 106.308 40.6687 106.353C40.6557 106.225 40.6396 106.035 40.6008 105.972C40.5621 106.166 40.5491 106.156 40.5297 106.19L40.5653 106.021C40.4619 106.239 40.6299 105.647 40.5362 105.82L40.5685 105.706L40.4748 106.052C40.3521 106.37 40.5297 105.699 40.3747 106.138C40.4005 106.114 40.3004 106.509 40.2907 106.429L40.3327 106.27C40.3101 106.301 40.2907 106.367 40.2907 106.332C40.3198 106.246 40.3488 106.097 40.323 106.121L40.3844 105.924L40.2778 106.211C40.2875 106.031 40.1905 106.235 40.2325 106.003C40.2325 106.003 40.1938 105.875 40.1227 106.121C40.1712 105.969 40.1486 105.9 40.2035 105.723C40.1453 105.893 40.0645 106.024 40.0872 105.834L40.0969 105.813C40.071 105.602 39.9127 106.041 39.903 105.792C39.861 105.986 39.8513 105.872 39.7997 106.121C39.6737 106.35 39.7996 105.585 39.5897 106.343C39.5477 106.374 39.5961 106.152 39.5897 106.111L39.6058 106.073C39.5347 106.121 39.5154 106.121 39.4766 106.093C39.4378 106.163 39.3474 106.516 39.3312 106.419C39.3765 106.28 39.3571 106.301 39.3409 106.298C39.3571 106.277 39.37 106.228 39.3765 106.128C39.3635 106.169 39.3538 106.197 39.3441 106.218C39.3441 106.208 39.3474 106.197 39.3506 106.183C39.3151 106.225 39.3086 106.273 39.3151 106.294C39.3086 106.315 39.3022 106.343 39.2957 106.384C39.3151 106.194 39.2246 106.377 39.2795 106.135C39.1955 106.169 39.0825 106.408 38.9985 106.484C39.0243 106.356 39.0631 106.253 39.0922 106.208L39.0372 106.242C39.0825 106.062 39.0857 106.145 39.1083 106.114C39.1309 105.81 38.9339 106.374 38.9403 106.09L38.8919 106.228V106.204C38.8757 106.28 38.8369 106.377 38.8208 106.398C38.8531 106.239 38.9112 106.038 38.8789 106.038C38.8951 105.882 38.795 106.093 38.7433 106.169C38.753 106.201 38.7271 106.287 38.7045 106.339C38.6883 106.339 38.7207 106.183 38.6916 106.246L38.7433 106.035C38.698 106.235 38.6496 106.239 38.6237 106.322C38.656 106.163 38.6819 106.194 38.7142 106.076C38.6496 106.076 38.6819 106.076 38.6205 106.08C38.5494 106.228 38.5753 106.28 38.5139 106.46C38.4751 106.495 38.4105 106.633 38.4105 106.495L38.3717 106.685C38.2813 106.813 38.2554 106.782 38.2716 106.585C37.4833 107.987 37.6481 108.634 37.6481 108.634C37.6998 109.094 37.9227 108.575 38.1456 108.485L38.165 108.475Z" fill="#20BB65"/>
</svg>
